<?xml version="1.0" encoding="utf-8" standalone="no"?>
<!DOCTYPE svg PUBLIC "-//W3C//DTD SVG 1.1//EN"
  "http://www.w3.org/Graphics/SVG/1.1/DTD/svg11.dtd">
<svg xmlns:xlink="http://www.w3.org/1999/xlink" width="243pt" height="150.182259pt" viewBox="0 0 243 150.182259" xmlns="http://www.w3.org/2000/svg" version="1.1">
 <metadata>
  <rdf:RDF xmlns:dc="http://purl.org/dc/elements/1.1/" xmlns:cc="http://creativecommons.org/ns#" xmlns:rdf="http://www.w3.org/1999/02/22-rdf-syntax-ns#">
   <cc:Work>
    <dc:type rdf:resource="http://purl.org/dc/dcmitype/StillImage"/>
    <dc:date>2024-12-10T19:39:40.289538</dc:date>
    <dc:format>image/svg+xml</dc:format>
    <dc:creator>
     <cc:Agent>
      <dc:title>Matplotlib v3.8.4, https://matplotlib.org/</dc:title>
     </cc:Agent>
    </dc:creator>
   </cc:Work>
  </rdf:RDF>
 </metadata>
 <defs>
  <style type="text/css">*{stroke-linejoin: round; stroke-linecap: butt}</style>
 </defs>
 <g id="figure_1">
  <g id="patch_1">
   <path d="M 0 150.182259 
L 243 150.182259 
L 243 0 
L 0 0 
L 0 150.182259 
z
" style="fill: none"/>
  </g>
  <g id="axes_1">
   <g id="patch_2">
    <path d="M 25.832501 121.563974 
L 216.867499 121.563974 
L 216.867499 3.00024 
L 25.832501 3.00024 
L 25.832501 121.563974 
z
" style="fill: none"/>
   </g>
   <g id="matplotlib.axis_1">
    <g id="xtick_1">
     <g id="line2d_1">
      <defs>
       <path id="ma3131e76bf" d="M 0 0 
L 0 -2 
" style="stroke: #000000; stroke-width: 0.5"/>
      </defs>
      <g>
       <use xlink:href="#ma3131e76bf" x="37.459438" y="121.563974" style="stroke: #000000; stroke-width: 0.5"/>
      </g>
     </g>
     <g id="line2d_2">
      <defs>
       <path id="mfd468d23a1" d="M 0 0 
L 0 2 
" style="stroke: #000000; stroke-width: 0.5"/>
      </defs>
      <g>
       <use xlink:href="#mfd468d23a1" x="37.459438" y="3.00024" style="stroke: #000000; stroke-width: 0.5"/>
      </g>
     </g>
     <g id="text_1">
      <!-- −4 -->
      <g transform="translate(32.710688 131.026432) scale(0.0833 -0.0833)">
       <defs>
        <path id="ArialMT-2212" d="M 3381 1997 
L 356 1997 
L 356 2522 
L 3381 2522 
L 3381 1997 
z
" transform="scale(0.015625)"/>
        <path id="ArialMT-34" d="M 2069 0 
L 2069 1097 
L 81 1097 
L 81 1613 
L 2172 4581 
L 2631 4581 
L 2631 1613 
L 3250 1613 
L 3250 1097 
L 2631 1097 
L 2631 0 
L 2069 0 
z
M 2069 1613 
L 2069 3678 
L 634 1613 
L 2069 1613 
z
" transform="scale(0.015625)"/>
       </defs>
       <use xlink:href="#ArialMT-2212"/>
       <use xlink:href="#ArialMT-34" x="58.398438"/>
      </g>
     </g>
    </g>
    <g id="xtick_2">
     <g id="line2d_3">
      <g>
       <use xlink:href="#ma3131e76bf" x="66.894723" y="121.563974" style="stroke: #000000; stroke-width: 0.5"/>
      </g>
     </g>
     <g id="line2d_4">
      <g>
       <use xlink:href="#mfd468d23a1" x="66.894723" y="3.00024" style="stroke: #000000; stroke-width: 0.5"/>
      </g>
     </g>
     <g id="text_2">
      <!-- −3 -->
      <g transform="translate(62.145972 131.026432) scale(0.0833 -0.0833)">
       <defs>
        <path id="ArialMT-33" d="M 269 1209 
L 831 1284 
Q 928 806 1161 595 
Q 1394 384 1728 384 
Q 2125 384 2398 659 
Q 2672 934 2672 1341 
Q 2672 1728 2419 1979 
Q 2166 2231 1775 2231 
Q 1616 2231 1378 2169 
L 1441 2663 
Q 1497 2656 1531 2656 
Q 1891 2656 2178 2843 
Q 2466 3031 2466 3422 
Q 2466 3731 2256 3934 
Q 2047 4138 1716 4138 
Q 1388 4138 1169 3931 
Q 950 3725 888 3313 
L 325 3413 
Q 428 3978 793 4289 
Q 1159 4600 1703 4600 
Q 2078 4600 2393 4439 
Q 2709 4278 2876 4000 
Q 3044 3722 3044 3409 
Q 3044 3113 2884 2869 
Q 2725 2625 2413 2481 
Q 2819 2388 3044 2092 
Q 3269 1797 3269 1353 
Q 3269 753 2831 336 
Q 2394 -81 1725 -81 
Q 1122 -81 723 278 
Q 325 638 269 1209 
z
" transform="scale(0.015625)"/>
       </defs>
       <use xlink:href="#ArialMT-2212"/>
       <use xlink:href="#ArialMT-33" x="58.398438"/>
      </g>
     </g>
    </g>
    <g id="xtick_3">
     <g id="line2d_5">
      <g>
       <use xlink:href="#ma3131e76bf" x="96.330008" y="121.563974" style="stroke: #000000; stroke-width: 0.5"/>
      </g>
     </g>
     <g id="line2d_6">
      <g>
       <use xlink:href="#mfd468d23a1" x="96.330008" y="3.00024" style="stroke: #000000; stroke-width: 0.5"/>
      </g>
     </g>
     <g id="text_3">
      <!-- −2 -->
      <g transform="translate(91.581257 131.026432) scale(0.0833 -0.0833)">
       <defs>
        <path id="ArialMT-32" d="M 3222 541 
L 3222 0 
L 194 0 
Q 188 203 259 391 
Q 375 700 629 1000 
Q 884 1300 1366 1694 
Q 2113 2306 2375 2664 
Q 2638 3022 2638 3341 
Q 2638 3675 2398 3904 
Q 2159 4134 1775 4134 
Q 1369 4134 1125 3890 
Q 881 3647 878 3216 
L 300 3275 
Q 359 3922 746 4261 
Q 1134 4600 1788 4600 
Q 2447 4600 2831 4234 
Q 3216 3869 3216 3328 
Q 3216 3053 3103 2787 
Q 2991 2522 2730 2228 
Q 2469 1934 1863 1422 
Q 1356 997 1212 845 
Q 1069 694 975 541 
L 3222 541 
z
" transform="scale(0.015625)"/>
       </defs>
       <use xlink:href="#ArialMT-2212"/>
       <use xlink:href="#ArialMT-32" x="58.398438"/>
      </g>
     </g>
    </g>
    <g id="xtick_4">
     <g id="line2d_7">
      <g>
       <use xlink:href="#ma3131e76bf" x="125.765293" y="121.563974" style="stroke: #000000; stroke-width: 0.5"/>
      </g>
     </g>
     <g id="line2d_8">
      <g>
       <use xlink:href="#mfd468d23a1" x="125.765293" y="3.00024" style="stroke: #000000; stroke-width: 0.5"/>
      </g>
     </g>
     <g id="text_4">
      <!-- −1 -->
      <g transform="translate(121.016542 131.026432) scale(0.0833 -0.0833)">
       <defs>
        <path id="ArialMT-31" d="M 2384 0 
L 1822 0 
L 1822 3584 
Q 1619 3391 1289 3197 
Q 959 3003 697 2906 
L 697 3450 
Q 1169 3672 1522 3987 
Q 1875 4303 2022 4600 
L 2384 4600 
L 2384 0 
z
" transform="scale(0.015625)"/>
       </defs>
       <use xlink:href="#ArialMT-2212"/>
       <use xlink:href="#ArialMT-31" x="58.398438"/>
      </g>
     </g>
    </g>
    <g id="xtick_5">
     <g id="line2d_9">
      <g>
       <use xlink:href="#ma3131e76bf" x="155.200577" y="121.563974" style="stroke: #000000; stroke-width: 0.5"/>
      </g>
     </g>
     <g id="line2d_10">
      <g>
       <use xlink:href="#mfd468d23a1" x="155.200577" y="3.00024" style="stroke: #000000; stroke-width: 0.5"/>
      </g>
     </g>
     <g id="text_5">
      <!-- 0 -->
      <g transform="translate(152.884447 131.026432) scale(0.0833 -0.0833)">
       <defs>
        <path id="ArialMT-30" d="M 266 2259 
Q 266 3072 433 3567 
Q 600 4063 929 4331 
Q 1259 4600 1759 4600 
Q 2128 4600 2406 4451 
Q 2684 4303 2865 4023 
Q 3047 3744 3150 3342 
Q 3253 2941 3253 2259 
Q 3253 1453 3087 958 
Q 2922 463 2592 192 
Q 2263 -78 1759 -78 
Q 1097 -78 719 397 
Q 266 969 266 2259 
z
M 844 2259 
Q 844 1131 1108 757 
Q 1372 384 1759 384 
Q 2147 384 2411 759 
Q 2675 1134 2675 2259 
Q 2675 3391 2411 3762 
Q 2147 4134 1753 4134 
Q 1366 4134 1134 3806 
Q 844 3388 844 2259 
z
" transform="scale(0.015625)"/>
       </defs>
       <use xlink:href="#ArialMT-30"/>
      </g>
     </g>
    </g>
    <g id="xtick_6">
     <g id="line2d_11">
      <g>
       <use xlink:href="#ma3131e76bf" x="184.635862" y="121.563974" style="stroke: #000000; stroke-width: 0.5"/>
      </g>
     </g>
     <g id="line2d_12">
      <g>
       <use xlink:href="#mfd468d23a1" x="184.635862" y="3.00024" style="stroke: #000000; stroke-width: 0.5"/>
      </g>
     </g>
     <g id="text_6">
      <!-- 1 -->
      <g transform="translate(182.319732 131.026432) scale(0.0833 -0.0833)">
       <use xlink:href="#ArialMT-31"/>
      </g>
     </g>
    </g>
    <g id="xtick_7">
     <g id="line2d_13">
      <g>
       <use xlink:href="#ma3131e76bf" x="214.071147" y="121.563974" style="stroke: #000000; stroke-width: 0.5"/>
      </g>
     </g>
     <g id="line2d_14">
      <g>
       <use xlink:href="#mfd468d23a1" x="214.071147" y="3.00024" style="stroke: #000000; stroke-width: 0.5"/>
      </g>
     </g>
     <g id="text_7">
      <!-- 2 -->
      <g transform="translate(211.755017 131.026432) scale(0.0833 -0.0833)">
       <use xlink:href="#ArialMT-32"/>
      </g>
     </g>
    </g>
    <g id="text_8">
     <!-- $V_\mathrm{g}$ (V) -->
     <g transform="translate(108.3 143.982019) scale(0.1 -0.1)">
      <defs>
       <path id="Cmmi10-56" d="M 1409 -72 
L 897 4006 
Q 850 4147 416 4147 
Q 353 4147 353 4231 
Q 366 4300 384 4336 
Q 403 4372 459 4372 
L 2022 4372 
Q 2056 4372 2072 4347 
Q 2088 4322 2088 4288 
Q 2063 4147 2003 4147 
Q 1503 4147 1472 3975 
L 1894 628 
L 3866 3775 
Q 3922 3881 3922 3944 
Q 3922 4056 3820 4101 
Q 3719 4147 3584 4147 
Q 3519 4147 3519 4231 
Q 3531 4281 3540 4309 
Q 3550 4338 3569 4355 
Q 3588 4372 3628 4372 
L 4863 4372 
Q 4922 4372 4922 4288 
Q 4897 4147 4838 4147 
Q 4356 4147 4084 3725 
Q 4072 3713 4063 3713 
L 1703 -72 
Q 1656 -141 1581 -141 
L 1491 -141 
Q 1419 -141 1409 -72 
z
" transform="scale(0.015625)"/>
       <path id="Cmr10-67" d="M 178 -500 
Q 178 -272 343 -101 
Q 509 69 738 141 
Q 609 238 542 384 
Q 475 531 475 697 
Q 475 997 666 1228 
Q 372 1516 372 1888 
Q 372 2088 458 2263 
Q 544 2438 697 2566 
Q 850 2694 1037 2761 
Q 1225 2828 1422 2828 
Q 1803 2828 2106 2606 
Q 2238 2747 2417 2823 
Q 2597 2900 2791 2900 
Q 2928 2900 3015 2801 
Q 3103 2703 3103 2566 
Q 3103 2488 3043 2428 
Q 2984 2369 2906 2369 
Q 2825 2369 2765 2428 
Q 2706 2488 2706 2566 
Q 2706 2684 2784 2731 
Q 2453 2731 2216 2503 
Q 2331 2388 2401 2220 
Q 2472 2053 2472 1888 
Q 2472 1616 2322 1398 
Q 2172 1181 1926 1061 
Q 1681 941 1422 941 
Q 1072 941 781 1131 
Q 691 1006 691 850 
Q 691 681 802 554 
Q 913 428 1081 428 
L 1606 428 
Q 1988 428 2294 359 
Q 2600 291 2808 84 
Q 3016 -122 3016 -500 
Q 3016 -781 2778 -967 
Q 2541 -1153 2211 -1236 
Q 1881 -1319 1600 -1319 
Q 1316 -1319 984 -1236 
Q 653 -1153 415 -967 
Q 178 -781 178 -500 
z
M 538 -500 
Q 538 -716 713 -861 
Q 888 -1006 1134 -1076 
Q 1381 -1147 1600 -1147 
Q 1816 -1147 2062 -1076 
Q 2309 -1006 2482 -861 
Q 2656 -716 2656 -500 
Q 2656 -166 2350 -67 
Q 2044 31 1606 31 
L 1081 31 
Q 934 31 811 -39 
Q 688 -109 613 -236 
Q 538 -363 538 -500 
z
M 1422 1113 
Q 1966 1113 1966 1888 
Q 1966 2222 1850 2439 
Q 1734 2656 1422 2656 
Q 1109 2656 993 2439 
Q 878 2222 878 1888 
Q 878 1675 922 1503 
Q 966 1331 1084 1222 
Q 1203 1113 1422 1113 
z
" transform="scale(0.015625)"/>
       <path id="ArialMT-20" transform="scale(0.015625)"/>
       <path id="ArialMT-28" d="M 1497 -1347 
Q 1031 -759 709 28 
Q 388 816 388 1659 
Q 388 2403 628 3084 
Q 909 3875 1497 4659 
L 1900 4659 
Q 1522 4009 1400 3731 
Q 1209 3300 1100 2831 
Q 966 2247 966 1656 
Q 966 153 1900 -1347 
L 1497 -1347 
z
" transform="scale(0.015625)"/>
       <path id="ArialMT-56" d="M 1803 0 
L 28 4581 
L 684 4581 
L 1875 1253 
Q 2019 853 2116 503 
Q 2222 878 2363 1253 
L 3600 4581 
L 4219 4581 
L 2425 0 
L 1803 0 
z
" transform="scale(0.015625)"/>
       <path id="ArialMT-29" d="M 791 -1347 
L 388 -1347 
Q 1322 153 1322 1656 
Q 1322 2244 1188 2822 
Q 1081 3291 891 3722 
Q 769 4003 388 4659 
L 791 4659 
Q 1378 3875 1659 3084 
Q 1900 2403 1900 1659 
Q 1900 816 1576 28 
Q 1253 -759 791 -1347 
z
" transform="scale(0.015625)"/>
      </defs>
      <use xlink:href="#Cmmi10-56" transform="translate(0 0.203125)"/>
      <use xlink:href="#Cmr10-67" transform="translate(58.300781 -16.803125) scale(0.7)"/>
      <use xlink:href="#ArialMT-20" transform="translate(99.678125 0.203125)"/>
      <use xlink:href="#ArialMT-28" transform="translate(127.461328 0.203125)"/>
      <use xlink:href="#ArialMT-56" transform="translate(160.762109 0.203125)"/>
      <use xlink:href="#ArialMT-29" transform="translate(227.461328 0.203125)"/>
     </g>
    </g>
   </g>
   <g id="matplotlib.axis_2">
    <g id="ytick_1">
     <g id="line2d_15">
      <defs>
       <path id="mfb8a25ce2f" d="M 0 0 
L 2 0 
" style="stroke: #000000; stroke-width: 0.5"/>
      </defs>
      <g>
       <use xlink:href="#mfb8a25ce2f" x="25.832501" y="106.204799" style="stroke: #000000; stroke-width: 0.5"/>
      </g>
     </g>
     <g id="text_9">
      <!-- 2 -->
      <g transform="translate(17.70024 109.186028) scale(0.0833 -0.0833)">
       <use xlink:href="#ArialMT-32"/>
      </g>
     </g>
    </g>
    <g id="ytick_2">
     <g id="line2d_16">
      <g>
       <use xlink:href="#mfb8a25ce2f" x="25.832501" y="76.83196" style="stroke: #000000; stroke-width: 0.5"/>
      </g>
     </g>
     <g id="text_10">
      <!-- 4 -->
      <g transform="translate(17.70024 79.813189) scale(0.0833 -0.0833)">
       <use xlink:href="#ArialMT-34"/>
      </g>
     </g>
    </g>
    <g id="ytick_3">
     <g id="line2d_17">
      <g>
       <use xlink:href="#mfb8a25ce2f" x="25.832501" y="47.45912" style="stroke: #000000; stroke-width: 0.5"/>
      </g>
     </g>
     <g id="text_11">
      <!-- 6 -->
      <g transform="translate(17.70024 50.440349) scale(0.0833 -0.0833)">
       <defs>
        <path id="ArialMT-36" d="M 3184 3459 
L 2625 3416 
Q 2550 3747 2413 3897 
Q 2184 4138 1850 4138 
Q 1581 4138 1378 3988 
Q 1113 3794 959 3422 
Q 806 3050 800 2363 
Q 1003 2672 1297 2822 
Q 1591 2972 1913 2972 
Q 2475 2972 2870 2558 
Q 3266 2144 3266 1488 
Q 3266 1056 3080 686 
Q 2894 316 2569 119 
Q 2244 -78 1831 -78 
Q 1128 -78 684 439 
Q 241 956 241 2144 
Q 241 3472 731 4075 
Q 1159 4600 1884 4600 
Q 2425 4600 2770 4297 
Q 3116 3994 3184 3459 
z
M 888 1484 
Q 888 1194 1011 928 
Q 1134 663 1356 523 
Q 1578 384 1822 384 
Q 2178 384 2434 671 
Q 2691 959 2691 1453 
Q 2691 1928 2437 2201 
Q 2184 2475 1800 2475 
Q 1419 2475 1153 2201 
Q 888 1928 888 1484 
z
" transform="scale(0.015625)"/>
       </defs>
       <use xlink:href="#ArialMT-36"/>
      </g>
     </g>
    </g>
    <g id="ytick_4">
     <g id="line2d_18">
      <g>
       <use xlink:href="#mfb8a25ce2f" x="25.832501" y="18.086281" style="stroke: #000000; stroke-width: 0.5"/>
      </g>
     </g>
     <g id="text_12">
      <!-- 8 -->
      <g transform="translate(17.70024 21.06751) scale(0.0833 -0.0833)">
       <defs>
        <path id="ArialMT-38" d="M 1131 2484 
Q 781 2613 612 2850 
Q 444 3088 444 3419 
Q 444 3919 803 4259 
Q 1163 4600 1759 4600 
Q 2359 4600 2725 4251 
Q 3091 3903 3091 3403 
Q 3091 3084 2923 2848 
Q 2756 2613 2416 2484 
Q 2838 2347 3058 2040 
Q 3278 1734 3278 1309 
Q 3278 722 2862 322 
Q 2447 -78 1769 -78 
Q 1091 -78 675 323 
Q 259 725 259 1325 
Q 259 1772 486 2073 
Q 713 2375 1131 2484 
z
M 1019 3438 
Q 1019 3113 1228 2906 
Q 1438 2700 1772 2700 
Q 2097 2700 2305 2904 
Q 2513 3109 2513 3406 
Q 2513 3716 2298 3927 
Q 2084 4138 1766 4138 
Q 1444 4138 1231 3931 
Q 1019 3725 1019 3438 
z
M 838 1322 
Q 838 1081 952 856 
Q 1066 631 1291 507 
Q 1516 384 1775 384 
Q 2178 384 2440 643 
Q 2703 903 2703 1303 
Q 2703 1709 2433 1975 
Q 2163 2241 1756 2241 
Q 1359 2241 1098 1978 
Q 838 1716 838 1322 
z
" transform="scale(0.015625)"/>
       </defs>
       <use xlink:href="#ArialMT-38"/>
      </g>
     </g>
    </g>
    <g id="text_13">
     <!-- $n$ ($10^{12}\,$cm$^{-2}$) -->
     <g transform="translate(11.50024 91.482107) rotate(-90) scale(0.1 -0.1)">
      <defs>
       <path id="Cmmi10-6e" d="M 494 109 
Q 494 147 500 166 
L 978 2075 
Q 1025 2253 1025 2388 
Q 1025 2663 838 2663 
Q 638 2663 541 2423 
Q 444 2184 353 1819 
Q 353 1800 334 1789 
Q 316 1778 300 1778 
L 225 1778 
Q 203 1778 187 1801 
Q 172 1825 172 1844 
Q 241 2122 305 2315 
Q 369 2509 505 2668 
Q 641 2828 844 2828 
Q 1084 2828 1268 2676 
Q 1453 2525 1453 2291 
Q 1644 2541 1900 2684 
Q 2156 2828 2444 2828 
Q 2672 2828 2837 2750 
Q 3003 2672 3095 2514 
Q 3188 2356 3188 2138 
Q 3188 1875 3070 1503 
Q 2953 1131 2778 672 
Q 2688 463 2688 288 
Q 2688 97 2834 97 
Q 3084 97 3251 365 
Q 3419 634 3488 941 
Q 3500 978 3541 978 
L 3616 978 
Q 3641 978 3658 962 
Q 3675 947 3675 922 
Q 3675 916 3669 903 
Q 3581 541 3364 234 
Q 3147 -72 2822 -72 
Q 2597 -72 2437 83 
Q 2278 238 2278 459 
Q 2278 578 2328 709 
Q 2409 919 2514 1209 
Q 2619 1500 2686 1765 
Q 2753 2031 2753 2234 
Q 2753 2413 2679 2538 
Q 2606 2663 2431 2663 
Q 2197 2663 2000 2559 
Q 1803 2456 1656 2286 
Q 1509 2116 1388 1881 
L 953 141 
Q 931 53 854 -9 
Q 778 -72 684 -72 
Q 606 -72 550 -22 
Q 494 28 494 109 
z
" transform="scale(0.015625)"/>
       <path id="Cmr10-31" d="M 594 0 
L 594 225 
Q 1394 225 1394 428 
L 1394 3788 
Q 1063 3628 556 3628 
L 556 3853 
Q 1341 3853 1741 4263 
L 1831 4263 
Q 1853 4263 1873 4245 
Q 1894 4228 1894 4206 
L 1894 428 
Q 1894 225 2694 225 
L 2694 0 
L 594 0 
z
" transform="scale(0.015625)"/>
       <path id="Cmr10-30" d="M 1600 -141 
Q 816 -141 533 504 
Q 250 1150 250 2041 
Q 250 2597 351 3087 
Q 453 3578 754 3920 
Q 1056 4263 1600 4263 
Q 2022 4263 2290 4056 
Q 2559 3850 2700 3523 
Q 2841 3197 2892 2823 
Q 2944 2450 2944 2041 
Q 2944 1491 2842 1011 
Q 2741 531 2444 195 
Q 2147 -141 1600 -141 
z
M 1600 25 
Q 1956 25 2131 390 
Q 2306 756 2347 1200 
Q 2388 1644 2388 2144 
Q 2388 2625 2347 3031 
Q 2306 3438 2132 3767 
Q 1959 4097 1600 4097 
Q 1238 4097 1063 3765 
Q 888 3434 847 3029 
Q 806 2625 806 2144 
Q 806 1788 823 1472 
Q 841 1156 916 820 
Q 991 484 1158 254 
Q 1325 25 1600 25 
z
" transform="scale(0.015625)"/>
       <path id="Cmr10-32" d="M 319 0 
L 319 172 
Q 319 188 331 206 
L 1325 1306 
Q 1550 1550 1690 1715 
Q 1831 1881 1968 2097 
Q 2106 2313 2186 2536 
Q 2266 2759 2266 3009 
Q 2266 3272 2169 3511 
Q 2072 3750 1880 3894 
Q 1688 4038 1416 4038 
Q 1138 4038 916 3870 
Q 694 3703 603 3438 
Q 628 3444 672 3444 
Q 816 3444 917 3347 
Q 1019 3250 1019 3097 
Q 1019 2950 917 2848 
Q 816 2747 672 2747 
Q 522 2747 420 2851 
Q 319 2956 319 3097 
Q 319 3338 409 3548 
Q 500 3759 670 3923 
Q 841 4088 1055 4175 
Q 1269 4263 1509 4263 
Q 1875 4263 2190 4108 
Q 2506 3953 2690 3670 
Q 2875 3388 2875 3009 
Q 2875 2731 2753 2481 
Q 2631 2231 2440 2026 
Q 2250 1822 1953 1562 
Q 1656 1303 1563 1216 
L 838 519 
L 1453 519 
Q 1906 519 2211 526 
Q 2516 534 2534 550 
Q 2609 631 2688 1141 
L 2875 1141 
L 2694 0 
L 319 0 
z
" transform="scale(0.015625)"/>
       <path id="ArialMT-63" d="M 2588 1216 
L 3141 1144 
Q 3050 572 2676 248 
Q 2303 -75 1759 -75 
Q 1078 -75 664 370 
Q 250 816 250 1647 
Q 250 2184 428 2587 
Q 606 2991 970 3192 
Q 1334 3394 1763 3394 
Q 2303 3394 2647 3120 
Q 2991 2847 3088 2344 
L 2541 2259 
Q 2463 2594 2264 2762 
Q 2066 2931 1784 2931 
Q 1359 2931 1093 2626 
Q 828 2322 828 1663 
Q 828 994 1084 691 
Q 1341 388 1753 388 
Q 2084 388 2306 591 
Q 2528 794 2588 1216 
z
" transform="scale(0.015625)"/>
       <path id="ArialMT-6d" d="M 422 0 
L 422 3319 
L 925 3319 
L 925 2853 
Q 1081 3097 1340 3245 
Q 1600 3394 1931 3394 
Q 2300 3394 2536 3241 
Q 2772 3088 2869 2813 
Q 3263 3394 3894 3394 
Q 4388 3394 4653 3120 
Q 4919 2847 4919 2278 
L 4919 0 
L 4359 0 
L 4359 2091 
Q 4359 2428 4304 2576 
Q 4250 2725 4106 2815 
Q 3963 2906 3769 2906 
Q 3419 2906 3187 2673 
Q 2956 2441 2956 1928 
L 2956 0 
L 2394 0 
L 2394 2156 
Q 2394 2531 2256 2718 
Q 2119 2906 1806 2906 
Q 1569 2906 1367 2781 
Q 1166 2656 1075 2415 
Q 984 2175 984 1722 
L 984 0 
L 422 0 
z
" transform="scale(0.015625)"/>
       <path id="Cmsy10-a1" d="M 653 1472 
Q 600 1472 565 1512 
Q 531 1553 531 1600 
Q 531 1647 565 1687 
Q 600 1728 653 1728 
L 4325 1728 
Q 4375 1728 4408 1687 
Q 4441 1647 4441 1600 
Q 4441 1553 4408 1512 
Q 4375 1472 4325 1472 
L 653 1472 
z
" transform="scale(0.015625)"/>
      </defs>
      <use xlink:href="#Cmmi10-6e" transform="translate(0 0.109375)"/>
      <use xlink:href="#ArialMT-20" transform="translate(60.009766 0.109375)"/>
      <use xlink:href="#ArialMT-28" transform="translate(87.792969 0.109375)"/>
      <use xlink:href="#Cmr10-31" transform="translate(121.09375 0.109375)"/>
      <use xlink:href="#Cmr10-30" transform="translate(171.09375 0.109375)"/>
      <use xlink:href="#Cmr10-31" transform="translate(225.557891 38.373438) scale(0.7)"/>
      <use xlink:href="#Cmr10-32" transform="translate(260.557891 38.373438) scale(0.7)"/>
      <use xlink:href="#ArialMT-63" transform="translate(316.567688 0.109375)"/>
      <use xlink:href="#ArialMT-6d" transform="translate(366.567688 0.109375)"/>
      <use xlink:href="#Cmsy10-a1" transform="translate(454.33261 38.373438) scale(0.7)"/>
      <use xlink:href="#Cmr10-32" transform="translate(508.712493 38.373438) scale(0.7)"/>
      <use xlink:href="#ArialMT-29" transform="translate(550.089837 0.109375)"/>
     </g>
    </g>
   </g>
   <g id="line2d_19">
    <path d="M 34.51591 116.174713 
L 37.459438 114.885654 
L 40.402967 113.933758 
L 46.290024 111.305853 
L 49.233552 109.851204 
L 52.177081 108.406718 
L 55.120609 106.962465 
L 58.064138 105.533177 
L 61.007666 104.268962 
L 63.951195 102.892044 
L 66.894723 101.637135 
L 69.838252 100.335323 
L 72.78178 99.051724 
L 75.725309 97.70462 
L 78.668837 96.367596 
L 81.612366 95.000443 
L 84.555894 93.559151 
L 87.499423 92.104536 
L 90.442951 90.601911 
L 93.386479 89.068101 
L 96.330008 87.504016 
L 99.273536 85.906862 
L 102.217065 84.224282 
L 105.160593 82.605788 
L 108.104122 80.821031 
L 111.04765 79.031035 
L 113.991179 77.231897 
L 116.934707 75.327089 
L 119.878236 73.424772 
L 122.821764 71.352604 
L 125.765293 69.3034 
L 128.708821 67.200384 
L 131.65235 65.084947 
L 134.595878 62.869487 
L 137.539407 60.701606 
L 140.482935 58.452298 
L 143.426464 56.231472 
L 146.369992 53.995993 
L 149.313521 51.72134 
L 152.257049 49.483823 
L 155.200577 47.239031 
L 158.144106 44.922993 
L 161.087634 42.7055 
L 164.031163 40.496411 
L 166.974691 38.162922 
L 169.91822 35.991419 
L 172.861748 33.845639 
L 175.805277 31.601086 
L 178.748805 29.31453 
L 181.692334 27.146956 
L 184.635862 24.963346 
L 187.579391 22.924211 
L 190.522919 20.831032 
L 193.466448 18.62147 
L 196.409976 16.588182 
L 199.353505 14.522828 
L 202.297033 12.592032 
L 205.240562 10.498883 
L 208.18409 8.389501 
" clip-path="url(#p7fa7b95479)" style="fill: none; stroke: #000000; stroke-linecap: square"/>
    <defs>
     <path id="me63636595a" d="M 0 1 
C 0.265203 1 0.51958 0.894634 0.707107 0.707107 
C 0.894634 0.51958 1 0.265203 1 0 
C 1 -0.265203 0.894634 -0.51958 0.707107 -0.707107 
C 0.51958 -0.894634 0.265203 -1 0 -1 
C -0.265203 -1 -0.51958 -0.894634 -0.707107 -0.707107 
C -0.894634 -0.51958 -1 -0.265203 -1 0 
C -1 0.265203 -0.894634 0.51958 -0.707107 0.707107 
C -0.51958 0.894634 -0.265203 1 0 1 
z
" style="stroke: #000000; stroke-width: 0.5"/>
    </defs>
    <g clip-path="url(#p7fa7b95479)">
     <use xlink:href="#me63636595a" x="34.51591" y="116.174713" style="stroke: #000000; stroke-width: 0.5"/>
     <use xlink:href="#me63636595a" x="37.459438" y="114.885654" style="stroke: #000000; stroke-width: 0.5"/>
     <use xlink:href="#me63636595a" x="40.402967" y="113.933758" style="stroke: #000000; stroke-width: 0.5"/>
     <use xlink:href="#me63636595a" x="46.290024" y="111.305853" style="stroke: #000000; stroke-width: 0.5"/>
     <use xlink:href="#me63636595a" x="49.233552" y="109.851204" style="stroke: #000000; stroke-width: 0.5"/>
     <use xlink:href="#me63636595a" x="52.177081" y="108.406718" style="stroke: #000000; stroke-width: 0.5"/>
     <use xlink:href="#me63636595a" x="55.120609" y="106.962465" style="stroke: #000000; stroke-width: 0.5"/>
     <use xlink:href="#me63636595a" x="58.064138" y="105.533177" style="stroke: #000000; stroke-width: 0.5"/>
     <use xlink:href="#me63636595a" x="61.007666" y="104.268962" style="stroke: #000000; stroke-width: 0.5"/>
     <use xlink:href="#me63636595a" x="63.951195" y="102.892044" style="stroke: #000000; stroke-width: 0.5"/>
     <use xlink:href="#me63636595a" x="66.894723" y="101.637135" style="stroke: #000000; stroke-width: 0.5"/>
     <use xlink:href="#me63636595a" x="69.838252" y="100.335323" style="stroke: #000000; stroke-width: 0.5"/>
     <use xlink:href="#me63636595a" x="72.78178" y="99.051724" style="stroke: #000000; stroke-width: 0.5"/>
     <use xlink:href="#me63636595a" x="75.725309" y="97.70462" style="stroke: #000000; stroke-width: 0.5"/>
     <use xlink:href="#me63636595a" x="78.668837" y="96.367596" style="stroke: #000000; stroke-width: 0.5"/>
     <use xlink:href="#me63636595a" x="81.612366" y="95.000443" style="stroke: #000000; stroke-width: 0.5"/>
     <use xlink:href="#me63636595a" x="84.555894" y="93.559151" style="stroke: #000000; stroke-width: 0.5"/>
     <use xlink:href="#me63636595a" x="87.499423" y="92.104536" style="stroke: #000000; stroke-width: 0.5"/>
     <use xlink:href="#me63636595a" x="90.442951" y="90.601911" style="stroke: #000000; stroke-width: 0.5"/>
     <use xlink:href="#me63636595a" x="93.386479" y="89.068101" style="stroke: #000000; stroke-width: 0.5"/>
     <use xlink:href="#me63636595a" x="96.330008" y="87.504016" style="stroke: #000000; stroke-width: 0.5"/>
     <use xlink:href="#me63636595a" x="99.273536" y="85.906862" style="stroke: #000000; stroke-width: 0.5"/>
     <use xlink:href="#me63636595a" x="102.217065" y="84.224282" style="stroke: #000000; stroke-width: 0.5"/>
     <use xlink:href="#me63636595a" x="105.160593" y="82.605788" style="stroke: #000000; stroke-width: 0.5"/>
     <use xlink:href="#me63636595a" x="108.104122" y="80.821031" style="stroke: #000000; stroke-width: 0.5"/>
     <use xlink:href="#me63636595a" x="111.04765" y="79.031035" style="stroke: #000000; stroke-width: 0.5"/>
     <use xlink:href="#me63636595a" x="113.991179" y="77.231897" style="stroke: #000000; stroke-width: 0.5"/>
     <use xlink:href="#me63636595a" x="116.934707" y="75.327089" style="stroke: #000000; stroke-width: 0.5"/>
     <use xlink:href="#me63636595a" x="119.878236" y="73.424772" style="stroke: #000000; stroke-width: 0.5"/>
     <use xlink:href="#me63636595a" x="122.821764" y="71.352604" style="stroke: #000000; stroke-width: 0.5"/>
     <use xlink:href="#me63636595a" x="125.765293" y="69.3034" style="stroke: #000000; stroke-width: 0.5"/>
     <use xlink:href="#me63636595a" x="128.708821" y="67.200384" style="stroke: #000000; stroke-width: 0.5"/>
     <use xlink:href="#me63636595a" x="131.65235" y="65.084947" style="stroke: #000000; stroke-width: 0.5"/>
     <use xlink:href="#me63636595a" x="134.595878" y="62.869487" style="stroke: #000000; stroke-width: 0.5"/>
     <use xlink:href="#me63636595a" x="137.539407" y="60.701606" style="stroke: #000000; stroke-width: 0.5"/>
     <use xlink:href="#me63636595a" x="140.482935" y="58.452298" style="stroke: #000000; stroke-width: 0.5"/>
     <use xlink:href="#me63636595a" x="143.426464" y="56.231472" style="stroke: #000000; stroke-width: 0.5"/>
     <use xlink:href="#me63636595a" x="146.369992" y="53.995993" style="stroke: #000000; stroke-width: 0.5"/>
     <use xlink:href="#me63636595a" x="149.313521" y="51.72134" style="stroke: #000000; stroke-width: 0.5"/>
     <use xlink:href="#me63636595a" x="152.257049" y="49.483823" style="stroke: #000000; stroke-width: 0.5"/>
     <use xlink:href="#me63636595a" x="155.200577" y="47.239031" style="stroke: #000000; stroke-width: 0.5"/>
     <use xlink:href="#me63636595a" x="158.144106" y="44.922993" style="stroke: #000000; stroke-width: 0.5"/>
     <use xlink:href="#me63636595a" x="161.087634" y="42.7055" style="stroke: #000000; stroke-width: 0.5"/>
     <use xlink:href="#me63636595a" x="164.031163" y="40.496411" style="stroke: #000000; stroke-width: 0.5"/>
     <use xlink:href="#me63636595a" x="166.974691" y="38.162922" style="stroke: #000000; stroke-width: 0.5"/>
     <use xlink:href="#me63636595a" x="169.91822" y="35.991419" style="stroke: #000000; stroke-width: 0.5"/>
     <use xlink:href="#me63636595a" x="172.861748" y="33.845639" style="stroke: #000000; stroke-width: 0.5"/>
     <use xlink:href="#me63636595a" x="175.805277" y="31.601086" style="stroke: #000000; stroke-width: 0.5"/>
     <use xlink:href="#me63636595a" x="178.748805" y="29.31453" style="stroke: #000000; stroke-width: 0.5"/>
     <use xlink:href="#me63636595a" x="181.692334" y="27.146956" style="stroke: #000000; stroke-width: 0.5"/>
     <use xlink:href="#me63636595a" x="184.635862" y="24.963346" style="stroke: #000000; stroke-width: 0.5"/>
     <use xlink:href="#me63636595a" x="187.579391" y="22.924211" style="stroke: #000000; stroke-width: 0.5"/>
     <use xlink:href="#me63636595a" x="190.522919" y="20.831032" style="stroke: #000000; stroke-width: 0.5"/>
     <use xlink:href="#me63636595a" x="193.466448" y="18.62147" style="stroke: #000000; stroke-width: 0.5"/>
     <use xlink:href="#me63636595a" x="196.409976" y="16.588182" style="stroke: #000000; stroke-width: 0.5"/>
     <use xlink:href="#me63636595a" x="199.353505" y="14.522828" style="stroke: #000000; stroke-width: 0.5"/>
     <use xlink:href="#me63636595a" x="202.297033" y="12.592032" style="stroke: #000000; stroke-width: 0.5"/>
     <use xlink:href="#me63636595a" x="205.240562" y="10.498883" style="stroke: #000000; stroke-width: 0.5"/>
     <use xlink:href="#me63636595a" x="208.18409" y="8.389501" style="stroke: #000000; stroke-width: 0.5"/>
    </g>
   </g>
   <g id="patch_3">
    <path d="M 25.832501 121.563974 
L 25.832501 3.00024 
" style="fill: none; stroke: #000000; stroke-width: 0.5; stroke-linejoin: miter; stroke-linecap: square"/>
   </g>
   <g id="patch_4">
    <path d="M 216.867499 121.563974 
L 216.867499 3.00024 
" style="fill: none; stroke: #000000; stroke-width: 0.5; stroke-linejoin: miter; stroke-linecap: square"/>
   </g>
   <g id="patch_5">
    <path d="M 25.832501 121.563974 
L 216.867499 121.563974 
" style="fill: none; stroke: #000000; stroke-width: 0.5; stroke-linejoin: miter; stroke-linecap: square"/>
   </g>
   <g id="patch_6">
    <path d="M 25.832501 3.00024 
L 216.867499 3.00024 
" style="fill: none; stroke: #000000; stroke-width: 0.5; stroke-linejoin: miter; stroke-linecap: square"/>
   </g>
  </g>
  <g id="axes_2">
   <g id="matplotlib.axis_3">
    <g id="ytick_5">
     <g id="line2d_20">
      <defs>
       <path id="mb777b921bd" d="M 0 0 
L -2 0 
" style="stroke: #000000; stroke-width: 0.5"/>
      </defs>
      <g>
       <use xlink:href="#mb777b921bd" x="216.867499" y="118.642997" style="stroke: #000000; stroke-width: 0.5"/>
      </g>
     </g>
     <g id="text_14">
      <!-- 1 -->
      <g transform="translate(220.367499 121.624226) scale(0.0833 -0.0833)">
       <use xlink:href="#ArialMT-31"/>
      </g>
     </g>
    </g>
    <g id="ytick_6">
     <g id="line2d_21">
      <g>
       <use xlink:href="#mb777b921bd" x="216.867499" y="97.5171" style="stroke: #000000; stroke-width: 0.5"/>
      </g>
     </g>
     <g id="text_15">
      <!-- 2 -->
      <g transform="translate(220.367499 100.498329) scale(0.0833 -0.0833)">
       <use xlink:href="#ArialMT-32"/>
      </g>
     </g>
    </g>
    <g id="ytick_7">
     <g id="line2d_22">
      <g>
       <use xlink:href="#mb777b921bd" x="216.867499" y="76.391202" style="stroke: #000000; stroke-width: 0.5"/>
      </g>
     </g>
     <g id="text_16">
      <!-- 3 -->
      <g transform="translate(220.367499 79.372431) scale(0.0833 -0.0833)">
       <use xlink:href="#ArialMT-33"/>
      </g>
     </g>
    </g>
    <g id="ytick_8">
     <g id="line2d_23">
      <g>
       <use xlink:href="#mb777b921bd" x="216.867499" y="55.265305" style="stroke: #000000; stroke-width: 0.5"/>
      </g>
     </g>
     <g id="text_17">
      <!-- 4 -->
      <g transform="translate(220.367499 58.246534) scale(0.0833 -0.0833)">
       <use xlink:href="#ArialMT-34"/>
      </g>
     </g>
    </g>
    <g id="ytick_9">
     <g id="line2d_24">
      <g>
       <use xlink:href="#mb777b921bd" x="216.867499" y="34.139408" style="stroke: #000000; stroke-width: 0.5"/>
      </g>
     </g>
     <g id="text_18">
      <!-- 5 -->
      <g transform="translate(220.367499 37.120637) scale(0.0833 -0.0833)">
       <defs>
        <path id="ArialMT-35" d="M 266 1200 
L 856 1250 
Q 922 819 1161 601 
Q 1400 384 1738 384 
Q 2144 384 2425 690 
Q 2706 997 2706 1503 
Q 2706 1984 2436 2262 
Q 2166 2541 1728 2541 
Q 1456 2541 1237 2417 
Q 1019 2294 894 2097 
L 366 2166 
L 809 4519 
L 3088 4519 
L 3088 3981 
L 1259 3981 
L 1013 2750 
Q 1425 3038 1878 3038 
Q 2478 3038 2890 2622 
Q 3303 2206 3303 1553 
Q 3303 931 2941 478 
Q 2500 -78 1738 -78 
Q 1113 -78 717 272 
Q 322 622 266 1200 
z
" transform="scale(0.015625)"/>
       </defs>
       <use xlink:href="#ArialMT-35"/>
      </g>
     </g>
    </g>
    <g id="ytick_10">
     <g id="line2d_25">
      <g>
       <use xlink:href="#mb777b921bd" x="216.867499" y="13.013511" style="stroke: #000000; stroke-width: 0.5"/>
      </g>
     </g>
     <g id="text_19">
      <!-- 6 -->
      <g transform="translate(220.367499 15.99474) scale(0.0833 -0.0833)">
       <use xlink:href="#ArialMT-36"/>
      </g>
     </g>
    </g>
    <g id="text_20">
     <!-- $\mu$ ($10^3\,$cm$^2/$V$\,$s) -->
     <g transform="translate(237.49976 96.082107) rotate(-90) scale(0.1 -0.1)">
      <defs>
       <path id="Cmmi10-b9" d="M 178 -1203 
Q 178 -1166 184 -1153 
L 1125 2625 
Q 1153 2716 1226 2772 
Q 1300 2828 1394 2828 
Q 1475 2828 1531 2779 
Q 1588 2731 1588 2650 
Q 1588 2631 1586 2620 
Q 1584 2609 1581 2597 
L 1203 1100 
Q 1141 834 1141 641 
Q 1141 403 1253 250 
Q 1366 97 1594 97 
Q 2059 97 2413 678 
Q 2416 684 2417 687 
Q 2419 691 2419 697 
L 2881 2553 
Q 2903 2638 2981 2698 
Q 3059 2759 3150 2759 
Q 3225 2759 3283 2709 
Q 3341 2659 3341 2578 
Q 3341 2541 3334 2528 
L 2875 684 
Q 2828 503 2828 372 
Q 2828 97 3016 97 
Q 3216 97 3317 344 
Q 3419 591 3494 941 
Q 3506 978 3547 978 
L 3622 978 
Q 3647 978 3664 958 
Q 3681 938 3681 916 
Q 3569 469 3436 198 
Q 3303 -72 3003 -72 
Q 2791 -72 2627 50 
Q 2463 172 2413 378 
Q 2253 178 2039 53 
Q 1825 -72 1588 -72 
Q 1188 -72 959 116 
L 634 -1178 
Q 616 -1269 541 -1325 
Q 466 -1381 372 -1381 
Q 294 -1381 236 -1332 
Q 178 -1284 178 -1203 
z
" transform="scale(0.015625)"/>
       <path id="Cmr10-33" d="M 609 494 
Q 759 275 1012 169 
Q 1266 63 1556 63 
Q 1928 63 2084 380 
Q 2241 697 2241 1100 
Q 2241 1281 2208 1462 
Q 2175 1644 2097 1800 
Q 2019 1956 1883 2050 
Q 1747 2144 1550 2144 
L 1125 2144 
Q 1069 2144 1069 2203 
L 1069 2259 
Q 1069 2309 1125 2309 
L 1478 2338 
Q 1703 2338 1851 2506 
Q 2000 2675 2069 2917 
Q 2138 3159 2138 3378 
Q 2138 3684 1994 3881 
Q 1850 4078 1556 4078 
Q 1313 4078 1091 3986 
Q 869 3894 738 3706 
Q 750 3709 759 3711 
Q 769 3713 781 3713 
Q 925 3713 1022 3613 
Q 1119 3513 1119 3372 
Q 1119 3234 1022 3134 
Q 925 3034 781 3034 
Q 641 3034 541 3134 
Q 441 3234 441 3372 
Q 441 3647 606 3850 
Q 772 4053 1033 4158 
Q 1294 4263 1556 4263 
Q 1750 4263 1965 4205 
Q 2181 4147 2356 4039 
Q 2531 3931 2642 3762 
Q 2753 3594 2753 3378 
Q 2753 3109 2633 2881 
Q 2513 2653 2303 2487 
Q 2094 2322 1844 2241 
Q 2122 2188 2372 2031 
Q 2622 1875 2773 1631 
Q 2925 1388 2925 1106 
Q 2925 753 2731 467 
Q 2538 181 2222 20 
Q 1906 -141 1556 -141 
Q 1256 -141 954 -26 
Q 653 88 461 316 
Q 269 544 269 863 
Q 269 1022 375 1128 
Q 481 1234 641 1234 
Q 744 1234 830 1186 
Q 916 1138 964 1050 
Q 1013 963 1013 863 
Q 1013 706 903 600 
Q 794 494 641 494 
L 609 494 
z
" transform="scale(0.015625)"/>
       <path id="Cmmi10-3d" d="M 359 -1472 
Q 359 -1453 366 -1447 
L 2591 4722 
Q 2603 4759 2634 4779 
Q 2666 4800 2706 4800 
Q 2763 4800 2798 4765 
Q 2834 4731 2834 4672 
L 2834 4647 
L 609 -1522 
Q 572 -1600 488 -1600 
Q 434 -1600 396 -1562 
Q 359 -1525 359 -1472 
z
" transform="scale(0.015625)"/>
       <path id="ArialMT-73" d="M 197 991 
L 753 1078 
Q 800 744 1014 566 
Q 1228 388 1613 388 
Q 2000 388 2187 545 
Q 2375 703 2375 916 
Q 2375 1106 2209 1216 
Q 2094 1291 1634 1406 
Q 1016 1563 777 1677 
Q 538 1791 414 1992 
Q 291 2194 291 2438 
Q 291 2659 392 2848 
Q 494 3038 669 3163 
Q 800 3259 1026 3326 
Q 1253 3394 1513 3394 
Q 1903 3394 2198 3281 
Q 2494 3169 2634 2976 
Q 2775 2784 2828 2463 
L 2278 2388 
Q 2241 2644 2061 2787 
Q 1881 2931 1553 2931 
Q 1166 2931 1000 2803 
Q 834 2675 834 2503 
Q 834 2394 903 2306 
Q 972 2216 1119 2156 
Q 1203 2125 1616 2013 
Q 2213 1853 2448 1751 
Q 2684 1650 2818 1456 
Q 2953 1263 2953 975 
Q 2953 694 2789 445 
Q 2625 197 2315 61 
Q 2006 -75 1616 -75 
Q 969 -75 630 194 
Q 291 463 197 991 
z
" transform="scale(0.015625)"/>
      </defs>
      <use xlink:href="#Cmmi10-b9" transform="translate(0 0.109375)"/>
      <use xlink:href="#ArialMT-20" transform="translate(60.205078 0.109375)"/>
      <use xlink:href="#ArialMT-28" transform="translate(87.988281 0.109375)"/>
      <use xlink:href="#Cmr10-31" transform="translate(121.289062 0.109375)"/>
      <use xlink:href="#Cmr10-30" transform="translate(171.289062 0.109375)"/>
      <use xlink:href="#Cmr10-33" transform="translate(225.753203 38.373438) scale(0.7)"/>
      <use xlink:href="#ArialMT-63" transform="translate(281.763001 0.109375)"/>
      <use xlink:href="#ArialMT-6d" transform="translate(331.763001 0.109375)"/>
      <use xlink:href="#Cmr10-32" transform="translate(419.527923 38.373438) scale(0.7)"/>
      <use xlink:href="#Cmmi10-3d" transform="translate(460.905267 0.109375)"/>
      <use xlink:href="#ArialMT-56" transform="translate(510.905267 0.109375)"/>
      <use xlink:href="#ArialMT-73" transform="translate(592.236939 0.109375)"/>
      <use xlink:href="#ArialMT-29" transform="translate(642.236939 0.109375)"/>
     </g>
    </g>
   </g>
   <g id="line2d_26">
    <path d="M 34.51591 113.168897 
L 37.459438 105.30117 
L 40.402967 96.089173 
L 46.290024 76.92568 
L 49.233552 67.12551 
L 52.177081 57.070773 
L 55.120609 47.256965 
L 58.064138 37.845608 
L 61.007666 28.666231 
L 63.951195 21.1903 
L 66.894723 14.987885 
L 69.838252 10.764062 
L 72.78178 8.523853 
L 75.725309 8.389501 
L 78.668837 9.917185 
L 81.612366 12.676022 
L 84.555894 16.473962 
L 87.499423 20.726173 
L 90.442951 25.170742 
L 93.386479 29.555171 
L 96.330008 33.668989 
L 99.273536 37.474853 
L 102.217065 41.078106 
L 105.160593 44.190169 
L 108.104122 47.169241 
L 111.04765 49.843015 
L 113.991179 52.235009 
L 116.934707 54.487276 
L 119.878236 56.527286 
L 122.821764 58.521266 
L 125.765293 60.304352 
L 128.708821 61.98778 
L 131.65235 63.525503 
L 134.595878 65.010828 
L 137.539407 66.345108 
L 140.482935 67.613294 
L 143.426464 68.776428 
L 146.369992 69.890779 
L 149.313521 70.95661 
L 152.257049 71.942508 
L 155.200577 72.879385 
L 158.144106 73.843954 
L 161.087634 74.653152 
L 164.031163 75.456655 
L 166.974691 76.313024 
L 169.91822 77.031042 
L 172.861748 77.725551 
L 175.805277 78.453606 
L 178.748805 79.202101 
L 181.692334 79.855143 
L 184.635862 80.522406 
L 187.579391 81.066348 
L 190.522919 81.655367 
L 193.466448 82.291929 
L 196.409976 82.819779 
L 199.353505 83.346829 
L 202.297033 83.829581 
L 205.240562 84.376431 
L 208.18409 84.925298 
" clip-path="url(#p7fa7b95479)" style="fill: none; stroke: #1f77b4; stroke-linecap: square"/>
    <defs>
     <path id="mc1d0063a42" d="M -1 1 
L 1 1 
L 1 -1 
L -1 -1 
z
" style="stroke: #1f77b4; stroke-width: 0.5; stroke-linejoin: miter"/>
    </defs>
    <g clip-path="url(#p7fa7b95479)">
     <use xlink:href="#mc1d0063a42" x="34.51591" y="113.168897" style="fill: #1f77b4; stroke: #1f77b4; stroke-width: 0.5; stroke-linejoin: miter"/>
     <use xlink:href="#mc1d0063a42" x="37.459438" y="105.30117" style="fill: #1f77b4; stroke: #1f77b4; stroke-width: 0.5; stroke-linejoin: miter"/>
     <use xlink:href="#mc1d0063a42" x="40.402967" y="96.089173" style="fill: #1f77b4; stroke: #1f77b4; stroke-width: 0.5; stroke-linejoin: miter"/>
     <use xlink:href="#mc1d0063a42" x="46.290024" y="76.92568" style="fill: #1f77b4; stroke: #1f77b4; stroke-width: 0.5; stroke-linejoin: miter"/>
     <use xlink:href="#mc1d0063a42" x="49.233552" y="67.12551" style="fill: #1f77b4; stroke: #1f77b4; stroke-width: 0.5; stroke-linejoin: miter"/>
     <use xlink:href="#mc1d0063a42" x="52.177081" y="57.070773" style="fill: #1f77b4; stroke: #1f77b4; stroke-width: 0.5; stroke-linejoin: miter"/>
     <use xlink:href="#mc1d0063a42" x="55.120609" y="47.256965" style="fill: #1f77b4; stroke: #1f77b4; stroke-width: 0.5; stroke-linejoin: miter"/>
     <use xlink:href="#mc1d0063a42" x="58.064138" y="37.845608" style="fill: #1f77b4; stroke: #1f77b4; stroke-width: 0.5; stroke-linejoin: miter"/>
     <use xlink:href="#mc1d0063a42" x="61.007666" y="28.666231" style="fill: #1f77b4; stroke: #1f77b4; stroke-width: 0.5; stroke-linejoin: miter"/>
     <use xlink:href="#mc1d0063a42" x="63.951195" y="21.1903" style="fill: #1f77b4; stroke: #1f77b4; stroke-width: 0.5; stroke-linejoin: miter"/>
     <use xlink:href="#mc1d0063a42" x="66.894723" y="14.987885" style="fill: #1f77b4; stroke: #1f77b4; stroke-width: 0.5; stroke-linejoin: miter"/>
     <use xlink:href="#mc1d0063a42" x="69.838252" y="10.764062" style="fill: #1f77b4; stroke: #1f77b4; stroke-width: 0.5; stroke-linejoin: miter"/>
     <use xlink:href="#mc1d0063a42" x="72.78178" y="8.523853" style="fill: #1f77b4; stroke: #1f77b4; stroke-width: 0.5; stroke-linejoin: miter"/>
     <use xlink:href="#mc1d0063a42" x="75.725309" y="8.389501" style="fill: #1f77b4; stroke: #1f77b4; stroke-width: 0.5; stroke-linejoin: miter"/>
     <use xlink:href="#mc1d0063a42" x="78.668837" y="9.917185" style="fill: #1f77b4; stroke: #1f77b4; stroke-width: 0.5; stroke-linejoin: miter"/>
     <use xlink:href="#mc1d0063a42" x="81.612366" y="12.676022" style="fill: #1f77b4; stroke: #1f77b4; stroke-width: 0.5; stroke-linejoin: miter"/>
     <use xlink:href="#mc1d0063a42" x="84.555894" y="16.473962" style="fill: #1f77b4; stroke: #1f77b4; stroke-width: 0.5; stroke-linejoin: miter"/>
     <use xlink:href="#mc1d0063a42" x="87.499423" y="20.726173" style="fill: #1f77b4; stroke: #1f77b4; stroke-width: 0.5; stroke-linejoin: miter"/>
     <use xlink:href="#mc1d0063a42" x="90.442951" y="25.170742" style="fill: #1f77b4; stroke: #1f77b4; stroke-width: 0.5; stroke-linejoin: miter"/>
     <use xlink:href="#mc1d0063a42" x="93.386479" y="29.555171" style="fill: #1f77b4; stroke: #1f77b4; stroke-width: 0.5; stroke-linejoin: miter"/>
     <use xlink:href="#mc1d0063a42" x="96.330008" y="33.668989" style="fill: #1f77b4; stroke: #1f77b4; stroke-width: 0.5; stroke-linejoin: miter"/>
     <use xlink:href="#mc1d0063a42" x="99.273536" y="37.474853" style="fill: #1f77b4; stroke: #1f77b4; stroke-width: 0.5; stroke-linejoin: miter"/>
     <use xlink:href="#mc1d0063a42" x="102.217065" y="41.078106" style="fill: #1f77b4; stroke: #1f77b4; stroke-width: 0.5; stroke-linejoin: miter"/>
     <use xlink:href="#mc1d0063a42" x="105.160593" y="44.190169" style="fill: #1f77b4; stroke: #1f77b4; stroke-width: 0.5; stroke-linejoin: miter"/>
     <use xlink:href="#mc1d0063a42" x="108.104122" y="47.169241" style="fill: #1f77b4; stroke: #1f77b4; stroke-width: 0.5; stroke-linejoin: miter"/>
     <use xlink:href="#mc1d0063a42" x="111.04765" y="49.843015" style="fill: #1f77b4; stroke: #1f77b4; stroke-width: 0.5; stroke-linejoin: miter"/>
     <use xlink:href="#mc1d0063a42" x="113.991179" y="52.235009" style="fill: #1f77b4; stroke: #1f77b4; stroke-width: 0.5; stroke-linejoin: miter"/>
     <use xlink:href="#mc1d0063a42" x="116.934707" y="54.487276" style="fill: #1f77b4; stroke: #1f77b4; stroke-width: 0.5; stroke-linejoin: miter"/>
     <use xlink:href="#mc1d0063a42" x="119.878236" y="56.527286" style="fill: #1f77b4; stroke: #1f77b4; stroke-width: 0.5; stroke-linejoin: miter"/>
     <use xlink:href="#mc1d0063a42" x="122.821764" y="58.521266" style="fill: #1f77b4; stroke: #1f77b4; stroke-width: 0.5; stroke-linejoin: miter"/>
     <use xlink:href="#mc1d0063a42" x="125.765293" y="60.304352" style="fill: #1f77b4; stroke: #1f77b4; stroke-width: 0.5; stroke-linejoin: miter"/>
     <use xlink:href="#mc1d0063a42" x="128.708821" y="61.98778" style="fill: #1f77b4; stroke: #1f77b4; stroke-width: 0.5; stroke-linejoin: miter"/>
     <use xlink:href="#mc1d0063a42" x="131.65235" y="63.525503" style="fill: #1f77b4; stroke: #1f77b4; stroke-width: 0.5; stroke-linejoin: miter"/>
     <use xlink:href="#mc1d0063a42" x="134.595878" y="65.010828" style="fill: #1f77b4; stroke: #1f77b4; stroke-width: 0.5; stroke-linejoin: miter"/>
     <use xlink:href="#mc1d0063a42" x="137.539407" y="66.345108" style="fill: #1f77b4; stroke: #1f77b4; stroke-width: 0.5; stroke-linejoin: miter"/>
     <use xlink:href="#mc1d0063a42" x="140.482935" y="67.613294" style="fill: #1f77b4; stroke: #1f77b4; stroke-width: 0.5; stroke-linejoin: miter"/>
     <use xlink:href="#mc1d0063a42" x="143.426464" y="68.776428" style="fill: #1f77b4; stroke: #1f77b4; stroke-width: 0.5; stroke-linejoin: miter"/>
     <use xlink:href="#mc1d0063a42" x="146.369992" y="69.890779" style="fill: #1f77b4; stroke: #1f77b4; stroke-width: 0.5; stroke-linejoin: miter"/>
     <use xlink:href="#mc1d0063a42" x="149.313521" y="70.95661" style="fill: #1f77b4; stroke: #1f77b4; stroke-width: 0.5; stroke-linejoin: miter"/>
     <use xlink:href="#mc1d0063a42" x="152.257049" y="71.942508" style="fill: #1f77b4; stroke: #1f77b4; stroke-width: 0.5; stroke-linejoin: miter"/>
     <use xlink:href="#mc1d0063a42" x="155.200577" y="72.879385" style="fill: #1f77b4; stroke: #1f77b4; stroke-width: 0.5; stroke-linejoin: miter"/>
     <use xlink:href="#mc1d0063a42" x="158.144106" y="73.843954" style="fill: #1f77b4; stroke: #1f77b4; stroke-width: 0.5; stroke-linejoin: miter"/>
     <use xlink:href="#mc1d0063a42" x="161.087634" y="74.653152" style="fill: #1f77b4; stroke: #1f77b4; stroke-width: 0.5; stroke-linejoin: miter"/>
     <use xlink:href="#mc1d0063a42" x="164.031163" y="75.456655" style="fill: #1f77b4; stroke: #1f77b4; stroke-width: 0.5; stroke-linejoin: miter"/>
     <use xlink:href="#mc1d0063a42" x="166.974691" y="76.313024" style="fill: #1f77b4; stroke: #1f77b4; stroke-width: 0.5; stroke-linejoin: miter"/>
     <use xlink:href="#mc1d0063a42" x="169.91822" y="77.031042" style="fill: #1f77b4; stroke: #1f77b4; stroke-width: 0.5; stroke-linejoin: miter"/>
     <use xlink:href="#mc1d0063a42" x="172.861748" y="77.725551" style="fill: #1f77b4; stroke: #1f77b4; stroke-width: 0.5; stroke-linejoin: miter"/>
     <use xlink:href="#mc1d0063a42" x="175.805277" y="78.453606" style="fill: #1f77b4; stroke: #1f77b4; stroke-width: 0.5; stroke-linejoin: miter"/>
     <use xlink:href="#mc1d0063a42" x="178.748805" y="79.202101" style="fill: #1f77b4; stroke: #1f77b4; stroke-width: 0.5; stroke-linejoin: miter"/>
     <use xlink:href="#mc1d0063a42" x="181.692334" y="79.855143" style="fill: #1f77b4; stroke: #1f77b4; stroke-width: 0.5; stroke-linejoin: miter"/>
     <use xlink:href="#mc1d0063a42" x="184.635862" y="80.522406" style="fill: #1f77b4; stroke: #1f77b4; stroke-width: 0.5; stroke-linejoin: miter"/>
     <use xlink:href="#mc1d0063a42" x="187.579391" y="81.066348" style="fill: #1f77b4; stroke: #1f77b4; stroke-width: 0.5; stroke-linejoin: miter"/>
     <use xlink:href="#mc1d0063a42" x="190.522919" y="81.655367" style="fill: #1f77b4; stroke: #1f77b4; stroke-width: 0.5; stroke-linejoin: miter"/>
     <use xlink:href="#mc1d0063a42" x="193.466448" y="82.291929" style="fill: #1f77b4; stroke: #1f77b4; stroke-width: 0.5; stroke-linejoin: miter"/>
     <use xlink:href="#mc1d0063a42" x="196.409976" y="82.819779" style="fill: #1f77b4; stroke: #1f77b4; stroke-width: 0.5; stroke-linejoin: miter"/>
     <use xlink:href="#mc1d0063a42" x="199.353505" y="83.346829" style="fill: #1f77b4; stroke: #1f77b4; stroke-width: 0.5; stroke-linejoin: miter"/>
     <use xlink:href="#mc1d0063a42" x="202.297033" y="83.829581" style="fill: #1f77b4; stroke: #1f77b4; stroke-width: 0.5; stroke-linejoin: miter"/>
     <use xlink:href="#mc1d0063a42" x="205.240562" y="84.376431" style="fill: #1f77b4; stroke: #1f77b4; stroke-width: 0.5; stroke-linejoin: miter"/>
     <use xlink:href="#mc1d0063a42" x="208.18409" y="84.925298" style="fill: #1f77b4; stroke: #1f77b4; stroke-width: 0.5; stroke-linejoin: miter"/>
    </g>
   </g>
   <g id="line2d_27">
    <path d="M 34.51591 116.174713 
L 37.459438 108.777294 
L 40.402967 99.883799 
L 46.290024 81.442193 
L 49.233552 71.887401 
L 52.177081 62.130615 
L 55.120609 52.432658 
L 58.064138 42.995248 
L 61.007666 33.753015 
L 63.951195 26.017548 
L 66.894723 19.291781 
L 69.838252 14.562868 
L 72.78178 11.752498 
L 75.725309 11.048005 
L 78.668837 12.016274 
L 81.612366 14.338236 
L 84.555894 17.771602 
L 87.499423 21.658692 
L 90.442951 25.783094 
L 93.386479 29.96751 
L 96.330008 33.907821 
L 99.273536 37.580838 
L 102.217065 41.059784 
L 105.160593 44.081048 
L 108.104122 46.991827 
L 111.04765 49.606667 
L 113.991179 51.944569 
L 116.934707 54.15319 
L 119.878236 56.139938 
L 122.821764 58.105859 
L 125.765293 59.88516 
L 128.708821 61.514687 
L 131.65235 62.973768 
L 134.595878 64.469061 
L 137.539407 65.767369 
L 140.482935 66.995094 
L 143.426464 68.13974 
L 146.369992 69.234699 
L 149.313521 70.257381 
L 152.257049 71.215609 
L 155.200577 72.105468 
L 158.144106 73.031267 
L 161.087634 73.836067 
L 164.031163 74.617381 
L 166.974691 75.43545 
L 169.91822 76.148445 
L 172.861748 76.816353 
L 175.805277 77.517603 
L 178.748805 78.254249 
L 181.692334 78.880723 
L 184.635862 79.503485 
L 187.579391 80.054733 
L 190.522919 80.617647 
L 193.466448 81.244832 
L 196.409976 81.764007 
L 199.353505 82.272453 
L 202.297033 82.749603 
L 205.240562 83.281078 
L 208.18409 83.816048 
" clip-path="url(#p7fa7b95479)" style="fill: none; stroke: #ff7f0e; stroke-linecap: square"/>
    <defs>
     <path id="m73a16a72f7" d="M -0 1.414214 
L 1.414214 0 
L 0 -1.414214 
L -1.414214 -0 
z
" style="stroke: #ff7f0e; stroke-width: 0.5; stroke-linejoin: miter"/>
    </defs>
    <g clip-path="url(#p7fa7b95479)">
     <use xlink:href="#m73a16a72f7" x="34.51591" y="116.174713" style="fill: #ff7f0e; stroke: #ff7f0e; stroke-width: 0.5; stroke-linejoin: miter"/>
     <use xlink:href="#m73a16a72f7" x="37.459438" y="108.777294" style="fill: #ff7f0e; stroke: #ff7f0e; stroke-width: 0.5; stroke-linejoin: miter"/>
     <use xlink:href="#m73a16a72f7" x="40.402967" y="99.883799" style="fill: #ff7f0e; stroke: #ff7f0e; stroke-width: 0.5; stroke-linejoin: miter"/>
     <use xlink:href="#m73a16a72f7" x="46.290024" y="81.442193" style="fill: #ff7f0e; stroke: #ff7f0e; stroke-width: 0.5; stroke-linejoin: miter"/>
     <use xlink:href="#m73a16a72f7" x="49.233552" y="71.887401" style="fill: #ff7f0e; stroke: #ff7f0e; stroke-width: 0.5; stroke-linejoin: miter"/>
     <use xlink:href="#m73a16a72f7" x="52.177081" y="62.130615" style="fill: #ff7f0e; stroke: #ff7f0e; stroke-width: 0.5; stroke-linejoin: miter"/>
     <use xlink:href="#m73a16a72f7" x="55.120609" y="52.432658" style="fill: #ff7f0e; stroke: #ff7f0e; stroke-width: 0.5; stroke-linejoin: miter"/>
     <use xlink:href="#m73a16a72f7" x="58.064138" y="42.995248" style="fill: #ff7f0e; stroke: #ff7f0e; stroke-width: 0.5; stroke-linejoin: miter"/>
     <use xlink:href="#m73a16a72f7" x="61.007666" y="33.753015" style="fill: #ff7f0e; stroke: #ff7f0e; stroke-width: 0.5; stroke-linejoin: miter"/>
     <use xlink:href="#m73a16a72f7" x="63.951195" y="26.017548" style="fill: #ff7f0e; stroke: #ff7f0e; stroke-width: 0.5; stroke-linejoin: miter"/>
     <use xlink:href="#m73a16a72f7" x="66.894723" y="19.291781" style="fill: #ff7f0e; stroke: #ff7f0e; stroke-width: 0.5; stroke-linejoin: miter"/>
     <use xlink:href="#m73a16a72f7" x="69.838252" y="14.562868" style="fill: #ff7f0e; stroke: #ff7f0e; stroke-width: 0.5; stroke-linejoin: miter"/>
     <use xlink:href="#m73a16a72f7" x="72.78178" y="11.752498" style="fill: #ff7f0e; stroke: #ff7f0e; stroke-width: 0.5; stroke-linejoin: miter"/>
     <use xlink:href="#m73a16a72f7" x="75.725309" y="11.048005" style="fill: #ff7f0e; stroke: #ff7f0e; stroke-width: 0.5; stroke-linejoin: miter"/>
     <use xlink:href="#m73a16a72f7" x="78.668837" y="12.016274" style="fill: #ff7f0e; stroke: #ff7f0e; stroke-width: 0.5; stroke-linejoin: miter"/>
     <use xlink:href="#m73a16a72f7" x="81.612366" y="14.338236" style="fill: #ff7f0e; stroke: #ff7f0e; stroke-width: 0.5; stroke-linejoin: miter"/>
     <use xlink:href="#m73a16a72f7" x="84.555894" y="17.771602" style="fill: #ff7f0e; stroke: #ff7f0e; stroke-width: 0.5; stroke-linejoin: miter"/>
     <use xlink:href="#m73a16a72f7" x="87.499423" y="21.658692" style="fill: #ff7f0e; stroke: #ff7f0e; stroke-width: 0.5; stroke-linejoin: miter"/>
     <use xlink:href="#m73a16a72f7" x="90.442951" y="25.783094" style="fill: #ff7f0e; stroke: #ff7f0e; stroke-width: 0.5; stroke-linejoin: miter"/>
     <use xlink:href="#m73a16a72f7" x="93.386479" y="29.96751" style="fill: #ff7f0e; stroke: #ff7f0e; stroke-width: 0.5; stroke-linejoin: miter"/>
     <use xlink:href="#m73a16a72f7" x="96.330008" y="33.907821" style="fill: #ff7f0e; stroke: #ff7f0e; stroke-width: 0.5; stroke-linejoin: miter"/>
     <use xlink:href="#m73a16a72f7" x="99.273536" y="37.580838" style="fill: #ff7f0e; stroke: #ff7f0e; stroke-width: 0.5; stroke-linejoin: miter"/>
     <use xlink:href="#m73a16a72f7" x="102.217065" y="41.059784" style="fill: #ff7f0e; stroke: #ff7f0e; stroke-width: 0.5; stroke-linejoin: miter"/>
     <use xlink:href="#m73a16a72f7" x="105.160593" y="44.081048" style="fill: #ff7f0e; stroke: #ff7f0e; stroke-width: 0.5; stroke-linejoin: miter"/>
     <use xlink:href="#m73a16a72f7" x="108.104122" y="46.991827" style="fill: #ff7f0e; stroke: #ff7f0e; stroke-width: 0.5; stroke-linejoin: miter"/>
     <use xlink:href="#m73a16a72f7" x="111.04765" y="49.606667" style="fill: #ff7f0e; stroke: #ff7f0e; stroke-width: 0.5; stroke-linejoin: miter"/>
     <use xlink:href="#m73a16a72f7" x="113.991179" y="51.944569" style="fill: #ff7f0e; stroke: #ff7f0e; stroke-width: 0.5; stroke-linejoin: miter"/>
     <use xlink:href="#m73a16a72f7" x="116.934707" y="54.15319" style="fill: #ff7f0e; stroke: #ff7f0e; stroke-width: 0.5; stroke-linejoin: miter"/>
     <use xlink:href="#m73a16a72f7" x="119.878236" y="56.139938" style="fill: #ff7f0e; stroke: #ff7f0e; stroke-width: 0.5; stroke-linejoin: miter"/>
     <use xlink:href="#m73a16a72f7" x="122.821764" y="58.105859" style="fill: #ff7f0e; stroke: #ff7f0e; stroke-width: 0.5; stroke-linejoin: miter"/>
     <use xlink:href="#m73a16a72f7" x="125.765293" y="59.88516" style="fill: #ff7f0e; stroke: #ff7f0e; stroke-width: 0.5; stroke-linejoin: miter"/>
     <use xlink:href="#m73a16a72f7" x="128.708821" y="61.514687" style="fill: #ff7f0e; stroke: #ff7f0e; stroke-width: 0.5; stroke-linejoin: miter"/>
     <use xlink:href="#m73a16a72f7" x="131.65235" y="62.973768" style="fill: #ff7f0e; stroke: #ff7f0e; stroke-width: 0.5; stroke-linejoin: miter"/>
     <use xlink:href="#m73a16a72f7" x="134.595878" y="64.469061" style="fill: #ff7f0e; stroke: #ff7f0e; stroke-width: 0.5; stroke-linejoin: miter"/>
     <use xlink:href="#m73a16a72f7" x="137.539407" y="65.767369" style="fill: #ff7f0e; stroke: #ff7f0e; stroke-width: 0.5; stroke-linejoin: miter"/>
     <use xlink:href="#m73a16a72f7" x="140.482935" y="66.995094" style="fill: #ff7f0e; stroke: #ff7f0e; stroke-width: 0.5; stroke-linejoin: miter"/>
     <use xlink:href="#m73a16a72f7" x="143.426464" y="68.13974" style="fill: #ff7f0e; stroke: #ff7f0e; stroke-width: 0.5; stroke-linejoin: miter"/>
     <use xlink:href="#m73a16a72f7" x="146.369992" y="69.234699" style="fill: #ff7f0e; stroke: #ff7f0e; stroke-width: 0.5; stroke-linejoin: miter"/>
     <use xlink:href="#m73a16a72f7" x="149.313521" y="70.257381" style="fill: #ff7f0e; stroke: #ff7f0e; stroke-width: 0.5; stroke-linejoin: miter"/>
     <use xlink:href="#m73a16a72f7" x="152.257049" y="71.215609" style="fill: #ff7f0e; stroke: #ff7f0e; stroke-width: 0.5; stroke-linejoin: miter"/>
     <use xlink:href="#m73a16a72f7" x="155.200577" y="72.105468" style="fill: #ff7f0e; stroke: #ff7f0e; stroke-width: 0.5; stroke-linejoin: miter"/>
     <use xlink:href="#m73a16a72f7" x="158.144106" y="73.031267" style="fill: #ff7f0e; stroke: #ff7f0e; stroke-width: 0.5; stroke-linejoin: miter"/>
     <use xlink:href="#m73a16a72f7" x="161.087634" y="73.836067" style="fill: #ff7f0e; stroke: #ff7f0e; stroke-width: 0.5; stroke-linejoin: miter"/>
     <use xlink:href="#m73a16a72f7" x="164.031163" y="74.617381" style="fill: #ff7f0e; stroke: #ff7f0e; stroke-width: 0.5; stroke-linejoin: miter"/>
     <use xlink:href="#m73a16a72f7" x="166.974691" y="75.43545" style="fill: #ff7f0e; stroke: #ff7f0e; stroke-width: 0.5; stroke-linejoin: miter"/>
     <use xlink:href="#m73a16a72f7" x="169.91822" y="76.148445" style="fill: #ff7f0e; stroke: #ff7f0e; stroke-width: 0.5; stroke-linejoin: miter"/>
     <use xlink:href="#m73a16a72f7" x="172.861748" y="76.816353" style="fill: #ff7f0e; stroke: #ff7f0e; stroke-width: 0.5; stroke-linejoin: miter"/>
     <use xlink:href="#m73a16a72f7" x="175.805277" y="77.517603" style="fill: #ff7f0e; stroke: #ff7f0e; stroke-width: 0.5; stroke-linejoin: miter"/>
     <use xlink:href="#m73a16a72f7" x="178.748805" y="78.254249" style="fill: #ff7f0e; stroke: #ff7f0e; stroke-width: 0.5; stroke-linejoin: miter"/>
     <use xlink:href="#m73a16a72f7" x="181.692334" y="78.880723" style="fill: #ff7f0e; stroke: #ff7f0e; stroke-width: 0.5; stroke-linejoin: miter"/>
     <use xlink:href="#m73a16a72f7" x="184.635862" y="79.503485" style="fill: #ff7f0e; stroke: #ff7f0e; stroke-width: 0.5; stroke-linejoin: miter"/>
     <use xlink:href="#m73a16a72f7" x="187.579391" y="80.054733" style="fill: #ff7f0e; stroke: #ff7f0e; stroke-width: 0.5; stroke-linejoin: miter"/>
     <use xlink:href="#m73a16a72f7" x="190.522919" y="80.617647" style="fill: #ff7f0e; stroke: #ff7f0e; stroke-width: 0.5; stroke-linejoin: miter"/>
     <use xlink:href="#m73a16a72f7" x="193.466448" y="81.244832" style="fill: #ff7f0e; stroke: #ff7f0e; stroke-width: 0.5; stroke-linejoin: miter"/>
     <use xlink:href="#m73a16a72f7" x="196.409976" y="81.764007" style="fill: #ff7f0e; stroke: #ff7f0e; stroke-width: 0.5; stroke-linejoin: miter"/>
     <use xlink:href="#m73a16a72f7" x="199.353505" y="82.272453" style="fill: #ff7f0e; stroke: #ff7f0e; stroke-width: 0.5; stroke-linejoin: miter"/>
     <use xlink:href="#m73a16a72f7" x="202.297033" y="82.749603" style="fill: #ff7f0e; stroke: #ff7f0e; stroke-width: 0.5; stroke-linejoin: miter"/>
     <use xlink:href="#m73a16a72f7" x="205.240562" y="83.281078" style="fill: #ff7f0e; stroke: #ff7f0e; stroke-width: 0.5; stroke-linejoin: miter"/>
     <use xlink:href="#m73a16a72f7" x="208.18409" y="83.816048" style="fill: #ff7f0e; stroke: #ff7f0e; stroke-width: 0.5; stroke-linejoin: miter"/>
    </g>
   </g>
   <g id="patch_7">
    <path d="M 25.832501 121.563974 
L 25.832501 3.00024 
" style="fill: none; stroke: #000000; stroke-width: 0.5; stroke-linejoin: miter; stroke-linecap: square"/>
   </g>
   <g id="patch_8">
    <path d="M 216.867499 121.563974 
L 216.867499 3.00024 
" style="fill: none; stroke: #000000; stroke-width: 0.5; stroke-linejoin: miter; stroke-linecap: square"/>
   </g>
   <g id="patch_9">
    <path d="M 25.832501 121.563974 
L 216.867499 121.563974 
" style="fill: none; stroke: #000000; stroke-width: 0.5; stroke-linejoin: miter; stroke-linecap: square"/>
   </g>
   <g id="patch_10">
    <path d="M 25.832501 3.00024 
L 216.867499 3.00024 
" style="fill: none; stroke: #000000; stroke-width: 0.5; stroke-linejoin: miter; stroke-linecap: square"/>
   </g>
   <g id="legend_1">
    <g id="patch_11">
     <path d="M 117.1004 118.093974 
L 163.8066 118.093974 
Q 165.1946 118.093974 165.1946 116.705974 
L 165.1946 85.583327 
Q 165.1946 84.195327 163.8066 84.195327 
L 117.1004 84.195327 
Q 115.7124 84.195327 115.7124 85.583327 
L 115.7124 116.705974 
Q 115.7124 118.093974 117.1004 118.093974 
z
" style="fill: #ffffff; opacity: 0.8; stroke: #cccccc; stroke-linejoin: miter"/>
    </g>
    <g id="line2d_28">
     <path d="M 118.4884 89.509849 
L 125.4284 89.509849 
L 132.3684 89.509849 
" style="fill: none; stroke: #000000; stroke-linecap: square"/>
     <g>
      <use xlink:href="#me63636595a" x="125.4284" y="89.509849" style="stroke: #000000; stroke-width: 0.5"/>
     </g>
    </g>
    <g id="text_21">
     <!-- $n$ -->
     <g transform="translate(137.9204 91.938849) scale(0.0694 -0.0694)">
      <use xlink:href="#Cmmi10-6e" transform="translate(0 0.8125)"/>
     </g>
    </g>
    <g id="line2d_29">
     <path d="M 118.4884 99.564174 
L 125.4284 99.564174 
L 132.3684 99.564174 
" style="fill: none; stroke: #1f77b4; stroke-linecap: square"/>
     <g>
      <use xlink:href="#mc1d0063a42" x="125.4284" y="99.564174" style="fill: #1f77b4; stroke: #1f77b4; stroke-width: 0.5; stroke-linejoin: miter"/>
     </g>
    </g>
    <g id="text_22">
     <!-- $\mu \parallel [110]$ -->
     <g transform="translate(137.9204 101.993174) scale(0.0694 -0.0694)">
      <defs>
       <path id="STIXGeneral-Regular-2225" d="M 2522 -1210 
L 2099 -1210 
L 2099 4416 
L 2522 4416 
L 2522 -1210 
z
M 1248 -1210 
L 826 -1210 
L 826 4416 
L 1248 4416 
L 1248 -1210 
z
" transform="scale(0.015625)"/>
       <path id="Cmr10-5b" d="M 756 -1600 
L 756 4800 
L 1631 4800 
L 1631 4544 
L 1013 4544 
L 1013 -1344 
L 1631 -1344 
L 1631 -1600 
L 756 -1600 
z
" transform="scale(0.015625)"/>
       <path id="Cmr10-5d" d="M 141 -1600 
L 141 -1344 
L 763 -1344 
L 763 4544 
L 141 4544 
L 141 4800 
L 1019 4800 
L 1019 -1600 
L 141 -1600 
z
" transform="scale(0.015625)"/>
      </defs>
      <use xlink:href="#Cmmi10-b9"/>
      <use xlink:href="#STIXGeneral-Regular-2225" transform="translate(77.763672 0)"/>
      <use xlink:href="#Cmr10-5b" transform="translate(147.622253 0)"/>
      <use xlink:href="#Cmr10-31" transform="translate(175.3078 0)"/>
      <use xlink:href="#Cmr10-31" transform="translate(225.3078 0)"/>
      <use xlink:href="#Cmr10-30" transform="translate(275.3078 0)"/>
      <use xlink:href="#Cmr10-5d" transform="translate(325.3078 0)"/>
     </g>
    </g>
    <g id="line2d_30">
     <path d="M 118.4884 111.153974 
L 125.4284 111.153974 
L 132.3684 111.153974 
" style="fill: none; stroke: #ff7f0e; stroke-linecap: square"/>
     <g>
      <use xlink:href="#m73a16a72f7" x="125.4284" y="111.153974" style="fill: #ff7f0e; stroke: #ff7f0e; stroke-width: 0.5; stroke-linejoin: miter"/>
     </g>
    </g>
    <g id="text_23">
     <!-- $\mu \parallel [1\overline{1}0]$ -->
     <g transform="translate(137.9204 113.582974) scale(0.0694 -0.0694)">
      <use xlink:href="#Cmmi10-b9" transform="translate(0 0.640625)"/>
      <use xlink:href="#STIXGeneral-Regular-2225" transform="translate(77.763672 0.640625)"/>
      <use xlink:href="#Cmr10-5b" transform="translate(147.622253 0.640625)"/>
      <use xlink:href="#Cmr10-31" transform="translate(175.3078 0.640625)"/>
      <use xlink:href="#Cmr10-31" transform="translate(225.3078 1.140625)"/>
      <use xlink:href="#Cmr10-30" transform="translate(275.3078 0.640625)"/>
      <use xlink:href="#Cmr10-5d" transform="translate(325.3078 0.640625)"/>
      <path d="M 225.3078 79.5 
L 225.3078 85.75 
L 275.3078 85.75 
L 275.3078 79.5 
L 225.3078 79.5 
z
"/>
     </g>
    </g>
   </g>
  </g>
 </g>
 <defs>
  <clipPath id="p7fa7b95479">
   <rect x="25.832501" y="3.00024" width="191.034998" height="118.563734"/>
  </clipPath>
 </defs>
</svg>
