<?xml version="1.0" encoding="utf-8" standalone="no"?>
<!DOCTYPE svg PUBLIC "-//W3C//DTD SVG 1.1//EN"
  "http://www.w3.org/Graphics/SVG/1.1/DTD/svg11.dtd">
<svg xmlns:xlink="http://www.w3.org/1999/xlink" width="180pt" height="180pt" viewBox="0 0 180 180" xmlns="http://www.w3.org/2000/svg" version="1.1">
 <metadata>
  <rdf:RDF xmlns:dc="http://purl.org/dc/elements/1.1/" xmlns:cc="http://creativecommons.org/ns#" xmlns:rdf="http://www.w3.org/1999/02/22-rdf-syntax-ns#">
   <cc:Work>
    <dc:type rdf:resource="http://purl.org/dc/dcmitype/StillImage"/>
    <dc:date>2024-10-28T17:28:09.982027</dc:date>
    <dc:format>image/svg+xml</dc:format>
    <dc:creator>
     <cc:Agent>
      <dc:title>Matplotlib v3.8.4, https://matplotlib.org/</dc:title>
     </cc:Agent>
    </dc:creator>
   </cc:Work>
  </rdf:RDF>
 </metadata>
 <defs>
  <style type="text/css">*{stroke-linejoin: round; stroke-linecap: butt}</style>
 </defs>
 <g id="figure_1">
  <g id="patch_1">
   <path d="M 0 180 
L 180 180 
L 180 0 
L 0 0 
L 0 180 
z
" style="fill: none"/>
  </g>
  <g id="axes_1">
   <g id="patch_2">
    <path d="M 29.264762 151.381715 
L 163.854447 151.381715 
L 163.854447 3.00024 
L 29.264762 3.00024 
L 29.264762 151.381715 
z
" style="fill: none"/>
   </g>
   <g id="matplotlib.axis_1">
    <g id="xtick_1">
     <g id="line2d_1">
      <defs>
       <path id="m34442174a6" d="M 0 0 
L 0 -2 
" style="stroke: #000000; stroke-width: 0.5"/>
      </defs>
      <g>
       <use xlink:href="#m34442174a6" x="37.181802" y="151.381715" style="stroke: #000000; stroke-width: 0.5"/>
      </g>
     </g>
     <g id="text_1">
      <!-- −5 -->
      <g transform="translate(32.433051 160.844173) scale(0.0833 -0.0833)">
       <defs>
        <path id="ArialMT-2212" d="M 3381 1997 
L 356 1997 
L 356 2522 
L 3381 2522 
L 3381 1997 
z
" transform="scale(0.015625)"/>
        <path id="ArialMT-35" d="M 266 1200 
L 856 1250 
Q 922 819 1161 601 
Q 1400 384 1738 384 
Q 2144 384 2425 690 
Q 2706 997 2706 1503 
Q 2706 1984 2436 2262 
Q 2166 2541 1728 2541 
Q 1456 2541 1237 2417 
Q 1019 2294 894 2097 
L 366 2166 
L 809 4519 
L 3088 4519 
L 3088 3981 
L 1259 3981 
L 1013 2750 
Q 1425 3038 1878 3038 
Q 2478 3038 2890 2622 
Q 3303 2206 3303 1553 
Q 3303 931 2941 478 
Q 2500 -78 1738 -78 
Q 1113 -78 717 272 
Q 322 622 266 1200 
z
" transform="scale(0.015625)"/>
       </defs>
       <use xlink:href="#ArialMT-2212"/>
       <use xlink:href="#ArialMT-35" x="58.398438"/>
      </g>
     </g>
    </g>
    <g id="xtick_2">
     <g id="line2d_2">
      <g>
       <use xlink:href="#m34442174a6" x="76.767004" y="151.381715" style="stroke: #000000; stroke-width: 0.5"/>
      </g>
     </g>
     <g id="text_2">
      <!-- 0 -->
      <g transform="translate(74.450873 160.844173) scale(0.0833 -0.0833)">
       <defs>
        <path id="ArialMT-30" d="M 266 2259 
Q 266 3072 433 3567 
Q 600 4063 929 4331 
Q 1259 4600 1759 4600 
Q 2128 4600 2406 4451 
Q 2684 4303 2865 4023 
Q 3047 3744 3150 3342 
Q 3253 2941 3253 2259 
Q 3253 1453 3087 958 
Q 2922 463 2592 192 
Q 2263 -78 1759 -78 
Q 1097 -78 719 397 
Q 266 969 266 2259 
z
M 844 2259 
Q 844 1131 1108 757 
Q 1372 384 1759 384 
Q 2147 384 2411 759 
Q 2675 1134 2675 2259 
Q 2675 3391 2411 3762 
Q 2147 4134 1753 4134 
Q 1366 4134 1134 3806 
Q 844 3388 844 2259 
z
" transform="scale(0.015625)"/>
       </defs>
       <use xlink:href="#ArialMT-30"/>
      </g>
     </g>
    </g>
    <g id="xtick_3">
     <g id="line2d_3">
      <g>
       <use xlink:href="#m34442174a6" x="116.352206" y="151.381715" style="stroke: #000000; stroke-width: 0.5"/>
      </g>
     </g>
     <g id="text_3">
      <!-- 5 -->
      <g transform="translate(114.036075 160.844173) scale(0.0833 -0.0833)">
       <use xlink:href="#ArialMT-35"/>
      </g>
     </g>
    </g>
    <g id="xtick_4">
     <g id="line2d_4">
      <g>
       <use xlink:href="#m34442174a6" x="155.937407" y="151.381715" style="stroke: #000000; stroke-width: 0.5"/>
      </g>
     </g>
     <g id="text_4">
      <!-- 10 -->
      <g transform="translate(151.305146 160.844173) scale(0.0833 -0.0833)">
       <defs>
        <path id="ArialMT-31" d="M 2384 0 
L 1822 0 
L 1822 3584 
Q 1619 3391 1289 3197 
Q 959 3003 697 2906 
L 697 3450 
Q 1169 3672 1522 3987 
Q 1875 4303 2022 4600 
L 2384 4600 
L 2384 0 
z
" transform="scale(0.015625)"/>
       </defs>
       <use xlink:href="#ArialMT-31"/>
       <use xlink:href="#ArialMT-30" x="55.615234"/>
      </g>
     </g>
    </g>
    <g id="text_5">
     <!-- $V_\mathrm{g}$ (V) -->
     <g transform="translate(83.509605 173.79976) scale(0.1 -0.1)">
      <defs>
       <path id="Cmmi10-56" d="M 1409 -72 
L 897 4006 
Q 850 4147 416 4147 
Q 353 4147 353 4231 
Q 366 4300 384 4336 
Q 403 4372 459 4372 
L 2022 4372 
Q 2056 4372 2072 4347 
Q 2088 4322 2088 4288 
Q 2063 4147 2003 4147 
Q 1503 4147 1472 3975 
L 1894 628 
L 3866 3775 
Q 3922 3881 3922 3944 
Q 3922 4056 3820 4101 
Q 3719 4147 3584 4147 
Q 3519 4147 3519 4231 
Q 3531 4281 3540 4309 
Q 3550 4338 3569 4355 
Q 3588 4372 3628 4372 
L 4863 4372 
Q 4922 4372 4922 4288 
Q 4897 4147 4838 4147 
Q 4356 4147 4084 3725 
Q 4072 3713 4063 3713 
L 1703 -72 
Q 1656 -141 1581 -141 
L 1491 -141 
Q 1419 -141 1409 -72 
z
" transform="scale(0.015625)"/>
       <path id="Cmr10-67" d="M 178 -500 
Q 178 -272 343 -101 
Q 509 69 738 141 
Q 609 238 542 384 
Q 475 531 475 697 
Q 475 997 666 1228 
Q 372 1516 372 1888 
Q 372 2088 458 2263 
Q 544 2438 697 2566 
Q 850 2694 1037 2761 
Q 1225 2828 1422 2828 
Q 1803 2828 2106 2606 
Q 2238 2747 2417 2823 
Q 2597 2900 2791 2900 
Q 2928 2900 3015 2801 
Q 3103 2703 3103 2566 
Q 3103 2488 3043 2428 
Q 2984 2369 2906 2369 
Q 2825 2369 2765 2428 
Q 2706 2488 2706 2566 
Q 2706 2684 2784 2731 
Q 2453 2731 2216 2503 
Q 2331 2388 2401 2220 
Q 2472 2053 2472 1888 
Q 2472 1616 2322 1398 
Q 2172 1181 1926 1061 
Q 1681 941 1422 941 
Q 1072 941 781 1131 
Q 691 1006 691 850 
Q 691 681 802 554 
Q 913 428 1081 428 
L 1606 428 
Q 1988 428 2294 359 
Q 2600 291 2808 84 
Q 3016 -122 3016 -500 
Q 3016 -781 2778 -967 
Q 2541 -1153 2211 -1236 
Q 1881 -1319 1600 -1319 
Q 1316 -1319 984 -1236 
Q 653 -1153 415 -967 
Q 178 -781 178 -500 
z
M 538 -500 
Q 538 -716 713 -861 
Q 888 -1006 1134 -1076 
Q 1381 -1147 1600 -1147 
Q 1816 -1147 2062 -1076 
Q 2309 -1006 2482 -861 
Q 2656 -716 2656 -500 
Q 2656 -166 2350 -67 
Q 2044 31 1606 31 
L 1081 31 
Q 934 31 811 -39 
Q 688 -109 613 -236 
Q 538 -363 538 -500 
z
M 1422 1113 
Q 1966 1113 1966 1888 
Q 1966 2222 1850 2439 
Q 1734 2656 1422 2656 
Q 1109 2656 993 2439 
Q 878 2222 878 1888 
Q 878 1675 922 1503 
Q 966 1331 1084 1222 
Q 1203 1113 1422 1113 
z
" transform="scale(0.015625)"/>
       <path id="ArialMT-20" transform="scale(0.015625)"/>
       <path id="ArialMT-28" d="M 1497 -1347 
Q 1031 -759 709 28 
Q 388 816 388 1659 
Q 388 2403 628 3084 
Q 909 3875 1497 4659 
L 1900 4659 
Q 1522 4009 1400 3731 
Q 1209 3300 1100 2831 
Q 966 2247 966 1656 
Q 966 153 1900 -1347 
L 1497 -1347 
z
" transform="scale(0.015625)"/>
       <path id="ArialMT-56" d="M 1803 0 
L 28 4581 
L 684 4581 
L 1875 1253 
Q 2019 853 2116 503 
Q 2222 878 2363 1253 
L 3600 4581 
L 4219 4581 
L 2425 0 
L 1803 0 
z
" transform="scale(0.015625)"/>
       <path id="ArialMT-29" d="M 791 -1347 
L 388 -1347 
Q 1322 153 1322 1656 
Q 1322 2244 1188 2822 
Q 1081 3291 891 3722 
Q 769 4003 388 4659 
L 791 4659 
Q 1378 3875 1659 3084 
Q 1900 2403 1900 1659 
Q 1900 816 1576 28 
Q 1253 -759 791 -1347 
z
" transform="scale(0.015625)"/>
      </defs>
      <use xlink:href="#Cmmi10-56" transform="translate(0 0.203125)"/>
      <use xlink:href="#Cmr10-67" transform="translate(58.300781 -16.803125) scale(0.7)"/>
      <use xlink:href="#ArialMT-20" transform="translate(99.678125 0.203125)"/>
      <use xlink:href="#ArialMT-28" transform="translate(127.461328 0.203125)"/>
      <use xlink:href="#ArialMT-56" transform="translate(160.762109 0.203125)"/>
      <use xlink:href="#ArialMT-29" transform="translate(227.461328 0.203125)"/>
     </g>
    </g>
   </g>
   <g id="matplotlib.axis_2">
    <g id="ytick_1">
     <g id="line2d_5">
      <defs>
       <path id="m9229f38abc" d="M 0 0 
L 2 0 
" style="stroke: #000000; stroke-width: 0.5"/>
      </defs>
      <g>
       <use xlink:href="#m9229f38abc" x="29.264762" y="124.505052" style="stroke: #000000; stroke-width: 0.5"/>
      </g>
     </g>
     <g id="text_6">
      <!-- 0 -->
      <g transform="translate(21.132501 127.486281) scale(0.0833 -0.0833)">
       <use xlink:href="#ArialMT-30"/>
      </g>
     </g>
    </g>
    <g id="ytick_2">
     <g id="line2d_6">
      <g>
       <use xlink:href="#m9229f38abc" x="29.264762" y="96.196047" style="stroke: #000000; stroke-width: 0.5"/>
      </g>
     </g>
     <g id="text_7">
      <!-- 10 -->
      <g transform="translate(16.50024 99.177276) scale(0.0833 -0.0833)">
       <use xlink:href="#ArialMT-31"/>
       <use xlink:href="#ArialMT-30" x="55.615234"/>
      </g>
     </g>
    </g>
    <g id="ytick_3">
     <g id="line2d_7">
      <g>
       <use xlink:href="#m9229f38abc" x="29.264762" y="67.887043" style="stroke: #000000; stroke-width: 0.5"/>
      </g>
     </g>
     <g id="text_8">
      <!-- 20 -->
      <g transform="translate(16.50024 70.868271) scale(0.0833 -0.0833)">
       <defs>
        <path id="ArialMT-32" d="M 3222 541 
L 3222 0 
L 194 0 
Q 188 203 259 391 
Q 375 700 629 1000 
Q 884 1300 1366 1694 
Q 2113 2306 2375 2664 
Q 2638 3022 2638 3341 
Q 2638 3675 2398 3904 
Q 2159 4134 1775 4134 
Q 1369 4134 1125 3890 
Q 881 3647 878 3216 
L 300 3275 
Q 359 3922 746 4261 
Q 1134 4600 1788 4600 
Q 2447 4600 2831 4234 
Q 3216 3869 3216 3328 
Q 3216 3053 3103 2787 
Q 2991 2522 2730 2228 
Q 2469 1934 1863 1422 
Q 1356 997 1212 845 
Q 1069 694 975 541 
L 3222 541 
z
" transform="scale(0.015625)"/>
       </defs>
       <use xlink:href="#ArialMT-32"/>
       <use xlink:href="#ArialMT-30" x="55.615234"/>
      </g>
     </g>
    </g>
    <g id="ytick_4">
     <g id="line2d_8">
      <g>
       <use xlink:href="#m9229f38abc" x="29.264762" y="39.578038" style="stroke: #000000; stroke-width: 0.5"/>
      </g>
     </g>
     <g id="text_9">
      <!-- 30 -->
      <g transform="translate(16.50024 42.559266) scale(0.0833 -0.0833)">
       <defs>
        <path id="ArialMT-33" d="M 269 1209 
L 831 1284 
Q 928 806 1161 595 
Q 1394 384 1728 384 
Q 2125 384 2398 659 
Q 2672 934 2672 1341 
Q 2672 1728 2419 1979 
Q 2166 2231 1775 2231 
Q 1616 2231 1378 2169 
L 1441 2663 
Q 1497 2656 1531 2656 
Q 1891 2656 2178 2843 
Q 2466 3031 2466 3422 
Q 2466 3731 2256 3934 
Q 2047 4138 1716 4138 
Q 1388 4138 1169 3931 
Q 950 3725 888 3313 
L 325 3413 
Q 428 3978 793 4289 
Q 1159 4600 1703 4600 
Q 2078 4600 2393 4439 
Q 2709 4278 2876 4000 
Q 3044 3722 3044 3409 
Q 3044 3113 2884 2869 
Q 2725 2625 2413 2481 
Q 2819 2388 3044 2092 
Q 3269 1797 3269 1353 
Q 3269 753 2831 336 
Q 2394 -81 1725 -81 
Q 1122 -81 723 278 
Q 325 638 269 1209 
z
" transform="scale(0.015625)"/>
       </defs>
       <use xlink:href="#ArialMT-33"/>
       <use xlink:href="#ArialMT-30" x="55.615234"/>
      </g>
     </g>
    </g>
    <g id="ytick_5">
     <g id="line2d_9">
      <g>
       <use xlink:href="#m9229f38abc" x="29.264762" y="11.269033" style="stroke: #000000; stroke-width: 0.5"/>
      </g>
     </g>
     <g id="text_10">
      <!-- 40 -->
      <g transform="translate(16.50024 14.250262) scale(0.0833 -0.0833)">
       <defs>
        <path id="ArialMT-34" d="M 2069 0 
L 2069 1097 
L 81 1097 
L 81 1613 
L 2172 4581 
L 2631 4581 
L 2631 1613 
L 3250 1613 
L 3250 1097 
L 2631 1097 
L 2631 0 
L 2069 0 
z
M 2069 1613 
L 2069 3678 
L 634 1613 
L 2069 1613 
z
" transform="scale(0.015625)"/>
       </defs>
       <use xlink:href="#ArialMT-34"/>
       <use xlink:href="#ArialMT-30" x="55.615234"/>
      </g>
     </g>
    </g>
    <g id="text_11">
     <!-- $B_*$ (mT) -->
     <g transform="translate(10.30024 96.240977) rotate(-90) scale(0.1 -0.1)">
      <defs>
       <path id="Cmmi10-42" d="M 319 0 
Q 256 0 256 84 
Q 259 100 268 137 
Q 278 175 293 200 
Q 309 225 341 225 
Q 522 225 656 234 
Q 791 244 884 269 
Q 959 297 1006 441 
L 1881 3956 
Q 1894 4019 1894 4044 
Q 1894 4113 1819 4122 
Q 1697 4147 1356 4147 
Q 1294 4147 1294 4231 
Q 1297 4247 1306 4286 
Q 1316 4325 1333 4348 
Q 1350 4372 1375 4372 
L 3669 4372 
Q 3878 4372 4083 4320 
Q 4288 4269 4461 4156 
Q 4634 4044 4736 3876 
Q 4838 3709 4838 3488 
Q 4838 3247 4714 3040 
Q 4591 2834 4395 2681 
Q 4200 2528 3973 2429 
Q 3747 2331 3500 2284 
Q 3675 2284 3854 2215 
Q 4034 2147 4175 2028 
Q 4316 1909 4402 1743 
Q 4488 1578 4488 1388 
Q 4488 1003 4219 684 
Q 3950 366 3542 183 
Q 3134 0 2753 0 
L 319 0 
z
M 1497 275 
Q 1497 225 1716 225 
L 2631 225 
Q 2944 225 3231 398 
Q 3519 572 3692 859 
Q 3866 1147 3866 1459 
Q 3866 1650 3786 1820 
Q 3706 1991 3556 2089 
Q 3406 2188 3213 2188 
L 1966 2188 
L 1522 416 
Q 1497 328 1497 275 
z
M 2009 2356 
L 2981 2356 
Q 3288 2356 3577 2512 
Q 3866 2669 4048 2937 
Q 4231 3206 4231 3506 
Q 4231 3784 4057 3965 
Q 3884 4147 3609 4147 
L 2731 4147 
Q 2559 4147 2500 4115 
Q 2441 4084 2400 3928 
L 2009 2356 
z
" transform="scale(0.015625)"/>
       <path id="Cmsy10-a4" d="M 603 813 
Q 531 813 473 873 
Q 416 934 416 1006 
Q 416 1116 506 1159 
L 1428 1600 
L 506 2034 
Q 416 2072 416 2188 
Q 416 2259 473 2320 
Q 531 2381 603 2381 
Q 650 2381 691 2350 
L 1509 1753 
L 1416 2797 
Q 1416 2875 1469 2925 
Q 1522 2975 1600 2975 
Q 1675 2975 1726 2928 
Q 1778 2881 1778 2809 
L 1778 2797 
L 1684 1753 
L 2503 2350 
Q 2544 2381 2591 2381 
Q 2669 2381 2723 2320 
Q 2778 2259 2778 2188 
Q 2778 2072 2688 2034 
L 1766 1600 
L 2688 1159 
Q 2778 1116 2778 1006 
Q 2778 934 2723 873 
Q 2669 813 2591 813 
Q 2544 813 2503 844 
L 1684 1441 
L 1778 403 
L 1778 384 
Q 1778 313 1723 266 
Q 1669 219 1600 219 
Q 1525 219 1470 270 
Q 1416 322 1416 397 
L 1509 1441 
L 691 844 
Q 650 813 603 813 
z
" transform="scale(0.015625)"/>
       <path id="ArialMT-6d" d="M 422 0 
L 422 3319 
L 925 3319 
L 925 2853 
Q 1081 3097 1340 3245 
Q 1600 3394 1931 3394 
Q 2300 3394 2536 3241 
Q 2772 3088 2869 2813 
Q 3263 3394 3894 3394 
Q 4388 3394 4653 3120 
Q 4919 2847 4919 2278 
L 4919 0 
L 4359 0 
L 4359 2091 
Q 4359 2428 4304 2576 
Q 4250 2725 4106 2815 
Q 3963 2906 3769 2906 
Q 3419 2906 3187 2673 
Q 2956 2441 2956 1928 
L 2956 0 
L 2394 0 
L 2394 2156 
Q 2394 2531 2256 2718 
Q 2119 2906 1806 2906 
Q 1569 2906 1367 2781 
Q 1166 2656 1075 2415 
Q 984 2175 984 1722 
L 984 0 
L 422 0 
z
" transform="scale(0.015625)"/>
       <path id="ArialMT-54" d="M 1659 0 
L 1659 4041 
L 150 4041 
L 150 4581 
L 3781 4581 
L 3781 4041 
L 2266 4041 
L 2266 0 
L 1659 0 
z
" transform="scale(0.015625)"/>
      </defs>
      <use xlink:href="#Cmmi10-42" transform="translate(0 0.203125)"/>
      <use xlink:href="#Cmsy10-a4" transform="translate(88.072266 -16.803125) scale(0.7)"/>
      <use xlink:href="#ArialMT-20" transform="translate(141.740625 0.203125)"/>
      <use xlink:href="#ArialMT-28" transform="translate(169.523828 0.203125)"/>
      <use xlink:href="#ArialMT-6d" transform="translate(202.824609 0.203125)"/>
      <use xlink:href="#ArialMT-54" transform="translate(286.125391 0.203125)"/>
      <use xlink:href="#ArialMT-29" transform="translate(347.209375 0.203125)"/>
     </g>
    </g>
   </g>
   <g id="line2d_10">
    <path d="M 29.264762 124.505052 
L 163.854447 124.505052 
" clip-path="url(#p0d6324ce70)" style="fill: none; stroke: #d3d3d3; stroke-width: 0.5; stroke-linecap: square"/>
   </g>
   <g id="patch_3">
    <path d="M 29.264762 151.381715 
L 29.264762 3.00024 
" style="fill: none; stroke: #000000; stroke-width: 0.5; stroke-linejoin: miter; stroke-linecap: square"/>
   </g>
   <g id="patch_4">
    <path d="M 163.854447 151.381715 
L 163.854447 3.00024 
" style="fill: none; stroke: #000000; stroke-width: 0.5; stroke-linejoin: miter; stroke-linecap: square"/>
   </g>
   <g id="patch_5">
    <path d="M 29.264762 151.381715 
L 163.854447 151.381715 
" style="fill: none; stroke: #000000; stroke-width: 0.5; stroke-linejoin: miter; stroke-linecap: square"/>
   </g>
   <g id="patch_6">
    <path d="M 29.264762 3.00024 
L 163.854447 3.00024 
" style="fill: none; stroke: #000000; stroke-width: 0.5; stroke-linejoin: miter; stroke-linecap: square"/>
   </g>
   <g id="LineCollection_1">
    <path d="M 53.015883 112.084322 
L 53.015883 102.987262 
" clip-path="url(#p0d6324ce70)" style="fill: none; stroke: #d62728"/>
    <path d="M 76.767004 64.805515 
L 76.767004 56.354277 
" clip-path="url(#p0d6324ce70)" style="fill: none; stroke: #d62728"/>
    <path d="M 155.937407 19.23241 
L 155.937407 9.744852 
" clip-path="url(#p0d6324ce70)" style="fill: none; stroke: #d62728"/>
   </g>
   <g id="line2d_11">
    <path d="M 53.015883 107.535792 
L 76.767004 60.579896 
L 155.937407 14.488631 
" clip-path="url(#p0d6324ce70)" style="fill: none; stroke: #d62728; stroke-linecap: square"/>
    <defs>
     <path id="ma8f85b50f5" d="M 0 1.5 
C 0.397805 1.5 0.77937 1.341951 1.06066 1.06066 
C 1.341951 0.77937 1.5 0.397805 1.5 0 
C 1.5 -0.397805 1.341951 -0.77937 1.06066 -1.06066 
C 0.77937 -1.341951 0.397805 -1.5 0 -1.5 
C -0.397805 -1.5 -0.77937 -1.341951 -1.06066 -1.06066 
C -1.341951 -0.77937 -1.5 -0.397805 -1.5 0 
C -1.5 0.397805 -1.341951 0.77937 -1.06066 1.06066 
C -0.77937 1.341951 -0.397805 1.5 0 1.5 
z
" style="stroke: #d62728; stroke-width: 0.5"/>
    </defs>
    <g clip-path="url(#p0d6324ce70)">
     <use xlink:href="#ma8f85b50f5" x="53.015883" y="107.535792" style="fill: #d62728; stroke: #d62728; stroke-width: 0.5"/>
     <use xlink:href="#ma8f85b50f5" x="76.767004" y="60.579896" style="fill: #d62728; stroke: #d62728; stroke-width: 0.5"/>
     <use xlink:href="#ma8f85b50f5" x="155.937407" y="14.488631" style="fill: #d62728; stroke: #d62728; stroke-width: 0.5"/>
    </g>
   </g>
   <g id="LineCollection_2">
    <path d="M 49.057363 144.637102 
L 49.057363 137.184582 
" clip-path="url(#p0d6324ce70)" style="fill: none; stroke: #ff7f0e"/>
    <path d="M 76.767004 104.855014 
L 76.767004 95.271697 
" clip-path="url(#p0d6324ce70)" style="fill: none; stroke: #ff7f0e"/>
    <path d="M 155.937407 51.020088 
L 155.937407 37.968373 
" clip-path="url(#p0d6324ce70)" style="fill: none; stroke: #ff7f0e"/>
   </g>
   <g id="legend_1">
    <g id="patch_7">
     <path d="M 33.317762 48.709576 
L 84.675062 48.709576 
Q 85.833062 48.709576 85.833062 47.551576 
L 85.833062 7.05324 
Q 85.833062 5.89524 84.675062 5.89524 
L 33.317762 5.89524 
Q 32.159762 5.89524 32.159762 7.05324 
L 32.159762 47.551576 
Q 32.159762 48.709576 33.317762 48.709576 
z
" style="fill: #ffffff; opacity: 0.8; stroke: #cccccc; stroke-linejoin: miter"/>
    </g>
    <g id="LineCollection_3">
     <path d="M 40.265762 13.224113 
L 40.265762 7.434113 
" style="fill: none; stroke: #d62728"/>
    </g>
    <g id="line2d_12">
     <path d="M 34.475762 10.329113 
L 46.055762 10.329113 
" style="fill: none; stroke: #d62728; stroke-linecap: square"/>
    </g>
    <g id="line2d_13">
     <g>
      <use xlink:href="#ma8f85b50f5" x="40.265762" y="10.329113" style="fill: #d62728; stroke: #d62728; stroke-width: 0.5"/>
     </g>
    </g>
    <g id="text_12">
     <!-- $W_\mathrm{sc}\rightarrow\infty$ -->
     <g transform="translate(50.687762 12.355613) scale(0.0579 -0.0579)">
      <defs>
       <path id="Cmmi10-57" d="M 1141 -72 
L 844 4006 
Q 822 4100 703 4123 
Q 584 4147 409 4147 
Q 347 4147 347 4231 
Q 369 4313 381 4342 
Q 394 4372 453 4372 
L 1978 4372 
Q 2041 4372 2041 4288 
Q 2016 4147 1959 4147 
Q 1447 4147 1416 3969 
L 1644 738 
L 3244 3525 
L 3213 4006 
Q 3191 4100 3072 4123 
Q 2953 4147 2778 4147 
Q 2713 4147 2713 4231 
Q 2734 4313 2746 4342 
Q 2759 4372 2822 4372 
L 4347 4372 
Q 4409 4372 4409 4288 
Q 4406 4272 4397 4234 
Q 4388 4197 4372 4172 
Q 4356 4147 4325 4147 
Q 3809 4147 3781 3969 
L 3781 3922 
L 4013 738 
L 5753 3775 
Q 5791 3844 5791 3909 
Q 5791 4041 5662 4094 
Q 5534 4147 5375 4147 
Q 5313 4147 5313 4231 
Q 5325 4281 5333 4309 
Q 5341 4338 5361 4355 
Q 5381 4372 5422 4372 
L 6644 4372 
Q 6706 4372 6706 4288 
Q 6703 4272 6693 4233 
Q 6684 4194 6667 4170 
Q 6650 4147 6625 4147 
Q 6169 4147 5931 3731 
Q 5913 3713 5913 3713 
L 3744 -72 
Q 3709 -141 3634 -141 
L 3584 -141 
Q 3506 -141 3506 -72 
L 3263 3225 
L 1381 -72 
Q 1334 -141 1269 -141 
L 1216 -141 
Q 1141 -141 1141 -72 
z
" transform="scale(0.015625)"/>
       <path id="Cmr10-73" d="M 213 -19 
L 213 1025 
Q 213 1075 269 1075 
L 347 1075 
Q 384 1075 397 1025 
Q 575 97 1259 97 
Q 1563 97 1767 234 
Q 1972 372 1972 659 
Q 1972 866 1812 1011 
Q 1653 1156 1434 1209 
L 1006 1294 
Q 791 1341 614 1437 
Q 438 1534 325 1695 
Q 213 1856 213 2069 
Q 213 2350 361 2529 
Q 509 2709 746 2789 
Q 984 2869 1259 2869 
Q 1588 2869 1831 2694 
L 2016 2853 
Q 2016 2869 2047 2869 
L 2094 2869 
Q 2113 2869 2128 2851 
Q 2144 2834 2144 2816 
L 2144 1978 
Q 2144 1919 2094 1919 
L 2016 1919 
Q 1959 1919 1959 1978 
Q 1959 2313 1773 2516 
Q 1588 2719 1253 2719 
Q 966 2719 755 2612 
Q 544 2506 544 2247 
Q 544 2069 695 1955 
Q 847 1841 1050 1791 
L 1484 1709 
Q 1703 1659 1892 1540 
Q 2081 1422 2192 1240 
Q 2303 1059 2303 831 
Q 2303 600 2223 429 
Q 2144 259 2001 146 
Q 1859 34 1665 -19 
Q 1472 -72 1259 -72 
Q 859 -72 575 197 
L 341 -56 
Q 341 -72 306 -72 
L 269 -72 
Q 213 -72 213 -19 
z
" transform="scale(0.015625)"/>
       <path id="Cmr10-63" d="M 1594 -72 
Q 1206 -72 890 129 
Q 575 331 394 667 
Q 213 1003 213 1381 
Q 213 1759 392 2106 
Q 572 2453 889 2661 
Q 1206 2869 1594 2869 
Q 1969 2869 2276 2722 
Q 2584 2575 2584 2241 
Q 2584 2116 2495 2023 
Q 2406 1931 2278 1931 
Q 2150 1931 2061 2023 
Q 1972 2116 1972 2241 
Q 1972 2353 2044 2436 
Q 2116 2519 2222 2541 
Q 2000 2681 1600 2681 
Q 1294 2681 1106 2478 
Q 919 2275 844 1975 
Q 769 1675 769 1381 
Q 769 1072 861 783 
Q 953 494 1158 305 
Q 1363 116 1672 116 
Q 1975 116 2187 302 
Q 2400 488 2478 788 
Q 2478 825 2528 825 
L 2606 825 
Q 2625 825 2640 808 
Q 2656 791 2656 769 
L 2656 750 
Q 2559 372 2271 150 
Q 1984 -72 1594 -72 
z
" transform="scale(0.015625)"/>
       <path id="Cmsy10-21" d="M 481 1472 
Q 428 1472 393 1512 
Q 359 1553 359 1600 
Q 359 1647 393 1687 
Q 428 1728 481 1728 
L 5338 1728 
Q 5094 1903 4906 2133 
Q 4719 2363 4594 2627 
Q 4469 2891 4416 3188 
Q 4416 3272 4481 3272 
L 4609 3272 
Q 4631 3272 4648 3253 
Q 4666 3234 4672 3213 
Q 4725 2938 4839 2702 
Q 4953 2466 5125 2262 
Q 5297 2059 5509 1912 
Q 5722 1766 5991 1672 
Q 6034 1644 6034 1600 
Q 6034 1550 5991 1538 
Q 5656 1422 5378 1192 
Q 5100 963 4919 652 
Q 4738 341 4672 -13 
Q 4666 -34 4647 -53 
Q 4628 -72 4609 -72 
L 4481 -72 
Q 4416 -72 4416 13 
Q 4497 450 4740 836 
Q 4984 1222 5338 1472 
L 481 1472 
z
" transform="scale(0.015625)"/>
       <path id="Cmsy10-31" d="M 1575 -72 
Q 1213 -72 933 140 
Q 653 353 506 690 
Q 359 1028 359 1381 
Q 359 1653 445 1912 
Q 531 2172 693 2378 
Q 856 2584 1086 2706 
Q 1316 2828 1594 2828 
Q 1881 2828 2150 2718 
Q 2419 2609 2642 2428 
Q 2866 2247 3059 2009 
L 3250 1753 
Q 3441 2056 3672 2295 
Q 3903 2534 4195 2681 
Q 4488 2828 4819 2828 
Q 5097 2828 5325 2704 
Q 5553 2581 5712 2368 
Q 5872 2156 5953 1898 
Q 6034 1641 6034 1381 
Q 6034 1019 5882 683 
Q 5731 347 5451 137 
Q 5172 -72 4800 -72 
Q 4381 -72 4004 153 
Q 3628 378 3334 750 
L 3144 1006 
Q 2850 528 2451 228 
Q 2053 -72 1575 -72 
z
M 1509 153 
Q 2322 153 2963 1241 
L 2625 1672 
Q 2331 2059 2078 2278 
Q 1825 2497 1491 2497 
Q 1206 2497 986 2336 
Q 766 2175 645 1915 
Q 525 1656 525 1375 
Q 525 1159 592 942 
Q 659 725 787 547 
Q 916 369 1098 261 
Q 1281 153 1509 153 
z
M 3769 1088 
Q 4063 700 4316 481 
Q 4569 263 4903 263 
Q 5116 263 5294 356 
Q 5472 450 5601 609 
Q 5731 769 5800 969 
Q 5869 1169 5869 1381 
Q 5869 1678 5750 1961 
Q 5631 2244 5407 2425 
Q 5184 2606 4884 2606 
Q 4072 2606 3431 1516 
L 3769 1088 
z
" transform="scale(0.015625)"/>
      </defs>
      <use xlink:href="#Cmmi10-57" transform="translate(0 0.6875)"/>
      <use xlink:href="#Cmr10-73" transform="translate(94.384766 -16.31875) scale(0.7)"/>
      <use xlink:href="#Cmr10-63" transform="translate(121.967773 -16.31875) scale(0.7)"/>
      <use xlink:href="#Cmsy10-21" transform="translate(176.973047 0.6875)"/>
      <use xlink:href="#Cmsy10-31" transform="translate(294.531641 0.6875)"/>
     </g>
    </g>
    <g id="LineCollection_4">
     <path d="M 40.265762 21.438676 
L 40.265762 15.648676 
" style="fill: none; stroke: #ff7f0e"/>
    </g>
    <g id="line2d_14">
     <path d="M 34.475762 18.543676 
L 46.055762 18.543676 
" style="fill: none; stroke: #ff7f0e; stroke-linecap: square"/>
    </g>
    <g id="line2d_15">
     <defs>
      <path id="mb0503e3b36" d="M 0 -1.5 
L -1.5 1.5 
L 1.5 1.5 
z
" style="stroke: #ff7f0e; stroke-width: 0.5; stroke-linejoin: miter"/>
     </defs>
     <g>
      <use xlink:href="#mb0503e3b36" x="40.265762" y="18.543676" style="fill: #ff7f0e; stroke: #ff7f0e; stroke-width: 0.5; stroke-linejoin: miter"/>
     </g>
    </g>
    <g id="text_13">
     <!-- $W_\mathrm{sc}=$1.2$\,$μm -->
     <g transform="translate(50.687762 20.570176) scale(0.0579 -0.0579)">
      <defs>
       <path id="Cmr10-3d" d="M 481 850 
Q 428 850 393 890 
Q 359 931 359 978 
Q 359 1031 393 1068 
Q 428 1106 481 1106 
L 4500 1106 
Q 4547 1106 4581 1068 
Q 4616 1031 4616 978 
Q 4616 931 4581 890 
Q 4547 850 4500 850 
L 481 850 
z
M 481 2094 
Q 428 2094 393 2131 
Q 359 2169 359 2222 
Q 359 2269 393 2309 
Q 428 2350 481 2350 
L 4500 2350 
Q 4547 2350 4581 2309 
Q 4616 2269 4616 2222 
Q 4616 2169 4581 2131 
Q 4547 2094 4500 2094 
L 481 2094 
z
" transform="scale(0.015625)"/>
       <path id="ArialMT-2e" d="M 581 0 
L 581 641 
L 1222 641 
L 1222 0 
L 581 0 
z
" transform="scale(0.015625)"/>
       <path id="ArialMT-3bc" d="M 3181 3319 
L 3181 0 
L 2678 0 
L 2678 394 
Q 2516 144 2356 50 
Q 2138 -78 1847 -78 
Q 1588 -78 1388 25 
Q 1238 103 1056 334 
L 1056 -1272 
L 500 -1272 
L 500 3319 
L 1056 3319 
L 1056 1913 
Q 1056 1147 1137 920 
Q 1219 694 1401 562 
Q 1584 431 1822 431 
Q 2072 431 2269 568 
Q 2466 706 2547 923 
Q 2628 1141 2628 1903 
L 2628 3319 
L 3181 3319 
z
" transform="scale(0.015625)"/>
      </defs>
      <use xlink:href="#Cmmi10-57" transform="translate(0 0.125)"/>
      <use xlink:href="#Cmr10-73" transform="translate(94.384766 -16.88125) scale(0.7)"/>
      <use xlink:href="#Cmr10-63" transform="translate(121.967773 -16.88125) scale(0.7)"/>
      <use xlink:href="#Cmr10-3d" transform="translate(176.973047 0.125)"/>
      <use xlink:href="#ArialMT-31" transform="translate(272.217188 0.125)"/>
      <use xlink:href="#ArialMT-2e" transform="translate(327.832422 0.125)"/>
      <use xlink:href="#ArialMT-32" transform="translate(355.615625 0.125)"/>
      <use xlink:href="#ArialMT-3bc" transform="translate(425.863313 0.125)"/>
      <use xlink:href="#ArialMT-6d" transform="translate(483.480501 0.125)"/>
     </g>
    </g>
    <g id="LineCollection_5">
     <path d="M 40.265762 29.660476 
L 40.265762 23.870476 
" style="fill: none; stroke: #2ca02c"/>
    </g>
    <g id="line2d_16">
     <path d="M 34.475762 26.765476 
L 46.055762 26.765476 
" style="fill: none; stroke: #2ca02c; stroke-linecap: square"/>
    </g>
    <g id="line2d_17">
     <defs>
      <path id="m50e96baaff" d="M -1.5 1.5 
L 1.5 1.5 
L 1.5 -1.5 
L -1.5 -1.5 
z
" style="stroke: #2ca02c; stroke-width: 0.5; stroke-linejoin: miter"/>
     </defs>
     <g>
      <use xlink:href="#m50e96baaff" x="40.265762" y="26.765476" style="fill: #2ca02c; stroke: #2ca02c; stroke-width: 0.5; stroke-linejoin: miter"/>
     </g>
    </g>
    <g id="text_14">
     <!-- $W_\mathrm{sc}=$0.9$\,$μm -->
     <g transform="translate(50.687762 28.791976) scale(0.0579 -0.0579)">
      <defs>
       <path id="ArialMT-39" d="M 350 1059 
L 891 1109 
Q 959 728 1153 556 
Q 1347 384 1650 384 
Q 1909 384 2104 503 
Q 2300 622 2425 820 
Q 2550 1019 2634 1356 
Q 2719 1694 2719 2044 
Q 2719 2081 2716 2156 
Q 2547 1888 2255 1720 
Q 1963 1553 1622 1553 
Q 1053 1553 659 1965 
Q 266 2378 266 3053 
Q 266 3750 677 4175 
Q 1088 4600 1706 4600 
Q 2153 4600 2523 4359 
Q 2894 4119 3086 3673 
Q 3278 3228 3278 2384 
Q 3278 1506 3087 986 
Q 2897 466 2520 194 
Q 2144 -78 1638 -78 
Q 1100 -78 759 220 
Q 419 519 350 1059 
z
M 2653 3081 
Q 2653 3566 2395 3850 
Q 2138 4134 1775 4134 
Q 1400 4134 1122 3828 
Q 844 3522 844 3034 
Q 844 2597 1108 2323 
Q 1372 2050 1759 2050 
Q 2150 2050 2401 2323 
Q 2653 2597 2653 3081 
z
" transform="scale(0.015625)"/>
      </defs>
      <use xlink:href="#Cmmi10-57" transform="translate(0 0.125)"/>
      <use xlink:href="#Cmr10-73" transform="translate(94.384766 -16.88125) scale(0.7)"/>
      <use xlink:href="#Cmr10-63" transform="translate(121.967773 -16.88125) scale(0.7)"/>
      <use xlink:href="#Cmr10-3d" transform="translate(176.973047 0.125)"/>
      <use xlink:href="#ArialMT-30" transform="translate(272.217188 0.125)"/>
      <use xlink:href="#ArialMT-2e" transform="translate(327.832422 0.125)"/>
      <use xlink:href="#ArialMT-39" transform="translate(355.615625 0.125)"/>
      <use xlink:href="#ArialMT-3bc" transform="translate(425.863313 0.125)"/>
      <use xlink:href="#ArialMT-6d" transform="translate(483.480501 0.125)"/>
     </g>
    </g>
    <g id="LineCollection_6">
     <path d="M 40.265762 37.882276 
L 40.265762 32.092276 
" style="fill: none; stroke: #1f77b4"/>
    </g>
    <g id="line2d_18">
     <path d="M 34.475762 34.987276 
L 46.055762 34.987276 
" style="fill: none; stroke: #1f77b4; stroke-linecap: square"/>
    </g>
    <g id="line2d_19">
     <defs>
      <path id="md6d070040d" d="M -0 2.12132 
L 2.12132 0 
L 0 -2.12132 
L -2.12132 -0 
z
" style="stroke: #1f77b4; stroke-width: 0.5; stroke-linejoin: miter"/>
     </defs>
     <g>
      <use xlink:href="#md6d070040d" x="40.265762" y="34.987276" style="fill: #1f77b4; stroke: #1f77b4; stroke-width: 0.5; stroke-linejoin: miter"/>
     </g>
    </g>
    <g id="text_15">
     <!-- $W_\mathrm{sc}=$0.6$\,$μm -->
     <g transform="translate(50.687762 37.013776) scale(0.0579 -0.0579)">
      <defs>
       <path id="ArialMT-36" d="M 3184 3459 
L 2625 3416 
Q 2550 3747 2413 3897 
Q 2184 4138 1850 4138 
Q 1581 4138 1378 3988 
Q 1113 3794 959 3422 
Q 806 3050 800 2363 
Q 1003 2672 1297 2822 
Q 1591 2972 1913 2972 
Q 2475 2972 2870 2558 
Q 3266 2144 3266 1488 
Q 3266 1056 3080 686 
Q 2894 316 2569 119 
Q 2244 -78 1831 -78 
Q 1128 -78 684 439 
Q 241 956 241 2144 
Q 241 3472 731 4075 
Q 1159 4600 1884 4600 
Q 2425 4600 2770 4297 
Q 3116 3994 3184 3459 
z
M 888 1484 
Q 888 1194 1011 928 
Q 1134 663 1356 523 
Q 1578 384 1822 384 
Q 2178 384 2434 671 
Q 2691 959 2691 1453 
Q 2691 1928 2437 2201 
Q 2184 2475 1800 2475 
Q 1419 2475 1153 2201 
Q 888 1928 888 1484 
z
" transform="scale(0.015625)"/>
      </defs>
      <use xlink:href="#Cmmi10-57" transform="translate(0 0.125)"/>
      <use xlink:href="#Cmr10-73" transform="translate(94.384766 -16.88125) scale(0.7)"/>
      <use xlink:href="#Cmr10-63" transform="translate(121.967773 -16.88125) scale(0.7)"/>
      <use xlink:href="#Cmr10-3d" transform="translate(176.973047 0.125)"/>
      <use xlink:href="#ArialMT-30" transform="translate(272.217188 0.125)"/>
      <use xlink:href="#ArialMT-2e" transform="translate(327.832422 0.125)"/>
      <use xlink:href="#ArialMT-36" transform="translate(355.615625 0.125)"/>
      <use xlink:href="#ArialMT-3bc" transform="translate(425.863313 0.125)"/>
      <use xlink:href="#ArialMT-6d" transform="translate(483.480501 0.125)"/>
     </g>
    </g>
    <g id="LineCollection_7">
     <path d="M 40.265762 46.104076 
L 40.265762 40.314076 
" style="fill: none; stroke: #9467bd"/>
    </g>
    <g id="line2d_20">
     <path d="M 34.475762 43.209076 
L 46.055762 43.209076 
" style="fill: none; stroke: #9467bd; stroke-linecap: square"/>
    </g>
    <g id="line2d_21">
     <defs>
      <path id="me2419827d9" d="M -1.5 1.5 
L 1.5 -1.5 
M -1.5 -1.5 
L 1.5 1.5 
" style="stroke: #9467bd; stroke-width: 0.5"/>
     </defs>
     <g>
      <use xlink:href="#me2419827d9" x="40.265762" y="43.209076" style="fill: #9467bd; stroke: #9467bd; stroke-width: 0.5"/>
     </g>
    </g>
    <g id="text_16">
     <!-- $W_\mathrm{sc}=$0.3$\,$μm -->
     <g transform="translate(50.687762 45.235576) scale(0.0579 -0.0579)">
      <use xlink:href="#Cmmi10-57" transform="translate(0 0.125)"/>
      <use xlink:href="#Cmr10-73" transform="translate(94.384766 -16.88125) scale(0.7)"/>
      <use xlink:href="#Cmr10-63" transform="translate(121.967773 -16.88125) scale(0.7)"/>
      <use xlink:href="#Cmr10-3d" transform="translate(176.973047 0.125)"/>
      <use xlink:href="#ArialMT-30" transform="translate(272.217188 0.125)"/>
      <use xlink:href="#ArialMT-2e" transform="translate(327.832422 0.125)"/>
      <use xlink:href="#ArialMT-33" transform="translate(355.615625 0.125)"/>
      <use xlink:href="#ArialMT-3bc" transform="translate(425.863313 0.125)"/>
      <use xlink:href="#ArialMT-6d" transform="translate(483.480501 0.125)"/>
     </g>
    </g>
   </g>
   <g id="line2d_22">
    <path d="M 49.057363 140.910842 
L 76.767004 100.063356 
L 155.937407 44.49423 
" clip-path="url(#p0d6324ce70)" style="fill: none; stroke: #ff7f0e; stroke-linecap: square"/>
    <g clip-path="url(#p0d6324ce70)">
     <use xlink:href="#mb0503e3b36" x="49.057363" y="140.910842" style="fill: #ff7f0e; stroke: #ff7f0e; stroke-width: 0.5; stroke-linejoin: miter"/>
     <use xlink:href="#mb0503e3b36" x="76.767004" y="100.063356" style="fill: #ff7f0e; stroke: #ff7f0e; stroke-width: 0.5; stroke-linejoin: miter"/>
     <use xlink:href="#mb0503e3b36" x="155.937407" y="44.49423" style="fill: #ff7f0e; stroke: #ff7f0e; stroke-width: 0.5; stroke-linejoin: miter"/>
    </g>
   </g>
   <g id="LineCollection_8">
    <path d="M 53.015883 133.319862 
L 53.015883 124.491384 
" clip-path="url(#p0d6324ce70)" style="fill: none; stroke: #2ca02c"/>
    <path d="M 76.767004 105.870877 
L 76.767004 98.607035 
" clip-path="url(#p0d6324ce70)" style="fill: none; stroke: #2ca02c"/>
    <path d="M 155.937407 69.746733 
L 155.937407 62.187634 
" clip-path="url(#p0d6324ce70)" style="fill: none; stroke: #2ca02c"/>
   </g>
   <g id="line2d_23">
    <path d="M 53.015883 128.905623 
L 76.767004 102.238956 
L 155.937407 65.967183 
" clip-path="url(#p0d6324ce70)" style="fill: none; stroke: #2ca02c; stroke-linecap: square"/>
    <g clip-path="url(#p0d6324ce70)">
     <use xlink:href="#m50e96baaff" x="53.015883" y="128.905623" style="fill: #2ca02c; stroke: #2ca02c; stroke-width: 0.5; stroke-linejoin: miter"/>
     <use xlink:href="#m50e96baaff" x="76.767004" y="102.238956" style="fill: #2ca02c; stroke: #2ca02c; stroke-width: 0.5; stroke-linejoin: miter"/>
     <use xlink:href="#m50e96baaff" x="155.937407" y="65.967183" style="fill: #2ca02c; stroke: #2ca02c; stroke-width: 0.5; stroke-linejoin: miter"/>
    </g>
   </g>
   <g id="LineCollection_9">
    <path d="M 45.098843 125.008357 
L 45.098843 116.215334 
" clip-path="url(#p0d6324ce70)" style="fill: none; stroke: #1f77b4"/>
    <path d="M 76.767004 112.314412 
L 76.767004 99.089497 
" clip-path="url(#p0d6324ce70)" style="fill: none; stroke: #1f77b4"/>
    <path d="M 155.937407 85.155491 
L 155.937407 63.58101 
" clip-path="url(#p0d6324ce70)" style="fill: none; stroke: #1f77b4"/>
   </g>
   <g id="line2d_24">
    <path d="M 45.098843 120.611846 
L 76.767004 105.701955 
L 155.937407 74.368251 
" clip-path="url(#p0d6324ce70)" style="fill: none; stroke: #1f77b4; stroke-linecap: square"/>
    <g clip-path="url(#p0d6324ce70)">
     <use xlink:href="#md6d070040d" x="45.098843" y="120.611846" style="fill: #1f77b4; stroke: #1f77b4; stroke-width: 0.5; stroke-linejoin: miter"/>
     <use xlink:href="#md6d070040d" x="76.767004" y="105.701955" style="fill: #1f77b4; stroke: #1f77b4; stroke-width: 0.5; stroke-linejoin: miter"/>
     <use xlink:href="#md6d070040d" x="155.937407" y="74.368251" style="fill: #1f77b4; stroke: #1f77b4; stroke-width: 0.5; stroke-linejoin: miter"/>
    </g>
   </g>
   <g id="LineCollection_10">
    <path d="M 49.057363 118.250419 
L 49.057363 106.478464 
" clip-path="url(#p0d6324ce70)" style="fill: none; stroke: #9467bd"/>
    <path d="M 76.767004 91.498738 
L 76.767004 83.57013 
" clip-path="url(#p0d6324ce70)" style="fill: none; stroke: #9467bd"/>
   </g>
   <g id="line2d_25">
    <path d="M 49.057363 112.364441 
L 76.767004 87.534434 
" clip-path="url(#p0d6324ce70)" style="fill: none; stroke: #9467bd; stroke-linecap: square"/>
    <g clip-path="url(#p0d6324ce70)">
     <use xlink:href="#me2419827d9" x="49.057363" y="112.364441" style="fill: #9467bd; stroke: #9467bd; stroke-width: 0.5"/>
     <use xlink:href="#me2419827d9" x="76.767004" y="87.534434" style="fill: #9467bd; stroke: #9467bd; stroke-width: 0.5"/>
    </g>
   </g>
  </g>
  <g id="axes_2">
   <g id="matplotlib.axis_3">
    <g id="ytick_6">
     <g id="line2d_26">
      <defs>
       <path id="mb23b9c3cd7" d="M 0 0 
L -2 0 
" style="stroke: #000000; stroke-width: 0.5"/>
      </defs>
      <g>
       <use xlink:href="#mb23b9c3cd7" x="163.854447" y="127.73107" style="stroke: #000000; stroke-width: 0.5"/>
      </g>
     </g>
    </g>
    <g id="ytick_7">
     <g id="line2d_27">
      <g>
       <use xlink:href="#mb23b9c3cd7" x="163.854447" y="79.958379" style="stroke: #000000; stroke-width: 0.5"/>
      </g>
     </g>
    </g>
    <g id="ytick_8">
     <g id="line2d_28">
      <g>
       <use xlink:href="#mb23b9c3cd7" x="163.854447" y="32.185688" style="stroke: #000000; stroke-width: 0.5"/>
      </g>
     </g>
    </g>
    <g id="text_17">
     <!-- $\longleftarrow\tau\qquad\alpha\longrightarrow$ -->
     <g transform="translate(175.01226 110.640977) rotate(-90) scale(0.1 -0.1)">
      <defs>
       <path id="STIXGeneral-Regular-27f5" d="M 9722 1408 
L 1549 1408 
Q 1498 1408 1440 1360 
Q 1382 1312 1382 1267 
Q 1382 1197 1472 1107 
Q 1798 794 1997 493 
L 1869 371 
Q 1075 1286 352 1587 
L 352 1651 
Q 1075 1958 1869 2874 
L 1997 2752 
Q 1811 2483 1478 2138 
Q 1389 2048 1389 1958 
Q 1389 1830 1555 1830 
L 9722 1830 
L 9722 1408 
z
" transform="scale(0.015625)"/>
       <path id="Cmmi10-bf" d="M 997 97 
Q 997 141 1006 166 
L 1678 2363 
L 1100 2363 
Q 866 2363 662 2216 
Q 459 2069 325 1844 
Q 313 1819 288 1819 
L 213 1819 
Q 153 1819 153 1881 
Q 153 1894 166 1919 
Q 375 2275 614 2517 
Q 853 2759 1153 2759 
L 3116 2759 
Q 3184 2759 3231 2712 
Q 3278 2666 3278 2597 
Q 3278 2503 3211 2433 
Q 3144 2363 3047 2363 
L 1888 2363 
L 1459 153 
Q 1434 50 1365 -17 
Q 1297 -84 1191 -84 
Q 1109 -84 1053 -32 
Q 997 19 997 97 
z
" transform="scale(0.015625)"/>
       <path id="Cmmi10-ae" d="M 1288 -72 
Q 984 -72 748 72 
Q 513 216 384 459 
Q 256 703 256 1013 
Q 256 1447 498 1872 
Q 741 2297 1142 2562 
Q 1544 2828 1984 2828 
Q 2309 2828 2556 2658 
Q 2803 2488 2931 2205 
Q 3059 1922 3059 1600 
L 3066 1172 
Q 3284 1475 3436 1801 
Q 3588 2128 3669 2478 
Q 3681 2516 3719 2516 
L 3794 2516 
Q 3853 2516 3853 2456 
Q 3853 2450 3847 2438 
Q 3772 2144 3659 1873 
Q 3547 1603 3395 1350 
Q 3244 1097 3066 891 
Q 3066 97 3250 97 
Q 3369 97 3445 167 
Q 3522 238 3580 341 
Q 3638 444 3653 447 
L 3731 447 
Q 3781 447 3781 384 
Q 3781 225 3598 76 
Q 3416 -72 3238 -72 
Q 3006 -72 2853 78 
Q 2700 228 2644 469 
Q 2344 213 1994 70 
Q 1644 -72 1288 -72 
z
M 1300 97 
Q 1984 97 2613 659 
Q 2609 697 2603 751 
Q 2597 806 2597 813 
L 2597 1503 
Q 2597 2663 1972 2663 
Q 1597 2663 1315 2342 
Q 1034 2022 892 1576 
Q 750 1131 750 763 
Q 750 484 892 290 
Q 1034 97 1300 97 
z
" transform="scale(0.015625)"/>
       <path id="STIXGeneral-Regular-27f6" d="M 9722 1651 
L 9722 1587 
Q 8986 1274 8198 365 
L 8070 486 
Q 8250 742 8595 1101 
Q 8685 1190 8685 1280 
Q 8685 1408 8518 1408 
L 352 1408 
L 352 1830 
L 8525 1830 
Q 8576 1830 8633 1878 
Q 8691 1926 8691 1971 
Q 8691 2042 8602 2131 
Q 8288 2432 8077 2752 
L 8205 2874 
Q 9005 1952 9722 1651 
z
" transform="scale(0.015625)"/>
      </defs>
      <use xlink:href="#STIXGeneral-Regular-27f5" transform="translate(17.558594 0.09375)"/>
      <use xlink:href="#Cmmi10-bf" transform="translate(192.517166 0.09375)"/>
      <use xlink:href="#Cmmi10-ae" transform="translate(411.804276 0.09375)"/>
      <use xlink:href="#STIXGeneral-Regular-27f6" transform="translate(493.278885 0.09375)"/>
     </g>
    </g>
   </g>
   <g id="patch_8">
    <path d="M 29.264762 151.381715 
L 29.264762 3.00024 
" style="fill: none; stroke: #000000; stroke-width: 0.5; stroke-linejoin: miter; stroke-linecap: square"/>
   </g>
   <g id="patch_9">
    <path d="M 163.854447 151.381715 
L 163.854447 3.00024 
" style="fill: none; stroke: #000000; stroke-width: 0.5; stroke-linejoin: miter; stroke-linecap: square"/>
   </g>
   <g id="patch_10">
    <path d="M 29.264762 151.381715 
L 163.854447 151.381715 
" style="fill: none; stroke: #000000; stroke-width: 0.5; stroke-linejoin: miter; stroke-linecap: square"/>
   </g>
   <g id="patch_11">
    <path d="M 29.264762 3.00024 
L 163.854447 3.00024 
" style="fill: none; stroke: #000000; stroke-width: 0.5; stroke-linejoin: miter; stroke-linecap: square"/>
   </g>
  </g>
 </g>
 <defs>
  <clipPath id="p0d6324ce70">
   <rect x="29.264762" y="3.00024" width="134.589686" height="148.381475"/>
  </clipPath>
 </defs>
</svg>
