<?xml version="1.0" encoding="UTF-8" standalone="no"?>
<!-- Created with Inkscape (http://www.inkscape.org/) -->

<svg
   width="8.5in"
   height="11in"
   viewBox="0 0 215.9 279.40001"
   version="1.1"
   id="svg8"
   inkscape:version="1.3.2 (091e20e, 2023-11-25, custom)"
   sodipodi:docname="gate.svg"
   xml:space="preserve"
   xmlns:inkscape="http://www.inkscape.org/namespaces/inkscape"
   xmlns:sodipodi="http://sodipodi.sourceforge.net/DTD/sodipodi-0.dtd"
   xmlns:xlink="http://www.w3.org/1999/xlink"
   xmlns="http://www.w3.org/2000/svg"
   xmlns:svg="http://www.w3.org/2000/svg"
   xmlns:rdf="http://www.w3.org/1999/02/22-rdf-syntax-ns#"
   xmlns:cc="http://creativecommons.org/ns#"
   xmlns:dc="http://purl.org/dc/elements/1.1/"><defs
     id="defs2"><style
       type="text/css"
       id="style1">*{stroke-linejoin: round; stroke-linecap: butt}</style><path
       id="m34442174a6"
       d="M 0 0  L 0 -2  "
       style="stroke: #000000; stroke-width: 0.5" /><path
       id="ArialMT-2212"
       d="M 3381 1997  L 356 1997  L 356 2522  L 3381 2522  L 3381 1997  z "
       transform="scale(0.015625)" /><path
       id="ArialMT-35"
       d="M 266 1200  L 856 1250  Q 922 819 1161 601  Q 1400 384 1738 384  Q 2144 384 2425 690  Q 2706 997 2706 1503  Q 2706 1984 2436 2262  Q 2166 2541 1728 2541  Q 1456 2541 1237 2417  Q 1019 2294 894 2097  L 366 2166  L 809 4519  L 3088 4519  L 3088 3981  L 1259 3981  L 1013 2750  Q 1425 3038 1878 3038  Q 2478 3038 2890 2622  Q 3303 2206 3303 1553  Q 3303 931 2941 478  Q 2500 -78 1738 -78  Q 1113 -78 717 272  Q 322 622 266 1200  z "
       transform="scale(0.015625)" /><path
       id="ArialMT-30"
       d="M 266 2259  Q 266 3072 433 3567  Q 600 4063 929 4331  Q 1259 4600 1759 4600  Q 2128 4600 2406 4451  Q 2684 4303 2865 4023  Q 3047 3744 3150 3342  Q 3253 2941 3253 2259  Q 3253 1453 3087 958  Q 2922 463 2592 192  Q 2263 -78 1759 -78  Q 1097 -78 719 397  Q 266 969 266 2259  z M 844 2259  Q 844 1131 1108 757  Q 1372 384 1759 384  Q 2147 384 2411 759  Q 2675 1134 2675 2259  Q 2675 3391 2411 3762  Q 2147 4134 1753 4134  Q 1366 4134 1134 3806  Q 844 3388 844 2259  z "
       transform="scale(0.015625)" /><path
       id="ArialMT-31"
       d="M 2384 0  L 1822 0  L 1822 3584  Q 1619 3391 1289 3197  Q 959 3003 697 2906  L 697 3450  Q 1169 3672 1522 3987  Q 1875 4303 2022 4600  L 2384 4600  L 2384 0  z "
       transform="scale(0.015625)" /><path
       id="Cmmi10-56"
       d="M 1409 -72  L 897 4006  Q 850 4147 416 4147  Q 353 4147 353 4231  Q 366 4300 384 4336  Q 403 4372 459 4372  L 2022 4372  Q 2056 4372 2072 4347  Q 2088 4322 2088 4288  Q 2063 4147 2003 4147  Q 1503 4147 1472 3975  L 1894 628  L 3866 3775  Q 3922 3881 3922 3944  Q 3922 4056 3820 4101  Q 3719 4147 3584 4147  Q 3519 4147 3519 4231  Q 3531 4281 3540 4309  Q 3550 4338 3569 4355  Q 3588 4372 3628 4372  L 4863 4372  Q 4922 4372 4922 4288  Q 4897 4147 4838 4147  Q 4356 4147 4084 3725  Q 4072 3713 4063 3713  L 1703 -72  Q 1656 -141 1581 -141  L 1491 -141  Q 1419 -141 1409 -72  z "
       transform="scale(0.015625)" /><path
       id="Cmr10-67"
       d="M 178 -500  Q 178 -272 343 -101  Q 509 69 738 141  Q 609 238 542 384  Q 475 531 475 697  Q 475 997 666 1228  Q 372 1516 372 1888  Q 372 2088 458 2263  Q 544 2438 697 2566  Q 850 2694 1037 2761  Q 1225 2828 1422 2828  Q 1803 2828 2106 2606  Q 2238 2747 2417 2823  Q 2597 2900 2791 2900  Q 2928 2900 3015 2801  Q 3103 2703 3103 2566  Q 3103 2488 3043 2428  Q 2984 2369 2906 2369  Q 2825 2369 2765 2428  Q 2706 2488 2706 2566  Q 2706 2684 2784 2731  Q 2453 2731 2216 2503  Q 2331 2388 2401 2220  Q 2472 2053 2472 1888  Q 2472 1616 2322 1398  Q 2172 1181 1926 1061  Q 1681 941 1422 941  Q 1072 941 781 1131  Q 691 1006 691 850  Q 691 681 802 554  Q 913 428 1081 428  L 1606 428  Q 1988 428 2294 359  Q 2600 291 2808 84  Q 3016 -122 3016 -500  Q 3016 -781 2778 -967  Q 2541 -1153 2211 -1236  Q 1881 -1319 1600 -1319  Q 1316 -1319 984 -1236  Q 653 -1153 415 -967  Q 178 -781 178 -500  z M 538 -500  Q 538 -716 713 -861  Q 888 -1006 1134 -1076  Q 1381 -1147 1600 -1147  Q 1816 -1147 2062 -1076  Q 2309 -1006 2482 -861  Q 2656 -716 2656 -500  Q 2656 -166 2350 -67  Q 2044 31 1606 31  L 1081 31  Q 934 31 811 -39  Q 688 -109 613 -236  Q 538 -363 538 -500  z M 1422 1113  Q 1966 1113 1966 1888  Q 1966 2222 1850 2439  Q 1734 2656 1422 2656  Q 1109 2656 993 2439  Q 878 2222 878 1888  Q 878 1675 922 1503  Q 966 1331 1084 1222  Q 1203 1113 1422 1113  z "
       transform="scale(0.015625)" /><path
       id="ArialMT-20"
       transform="scale(0.015625)" /><path
       id="ArialMT-28"
       d="M 1497 -1347  Q 1031 -759 709 28  Q 388 816 388 1659  Q 388 2403 628 3084  Q 909 3875 1497 4659  L 1900 4659  Q 1522 4009 1400 3731  Q 1209 3300 1100 2831  Q 966 2247 966 1656  Q 966 153 1900 -1347  L 1497 -1347  z "
       transform="scale(0.015625)" /><path
       id="ArialMT-56"
       d="M 1803 0  L 28 4581  L 684 4581  L 1875 1253  Q 2019 853 2116 503  Q 2222 878 2363 1253  L 3600 4581  L 4219 4581  L 2425 0  L 1803 0  z "
       transform="scale(0.015625)" /><path
       id="ArialMT-29"
       d="M 791 -1347  L 388 -1347  Q 1322 153 1322 1656  Q 1322 2244 1188 2822  Q 1081 3291 891 3722  Q 769 4003 388 4659  L 791 4659  Q 1378 3875 1659 3084  Q 1900 2403 1900 1659  Q 1900 816 1576 28  Q 1253 -759 791 -1347  z "
       transform="scale(0.015625)" /><path
       id="m9229f38abc"
       d="M 0 0  L 2 0  "
       style="stroke: #000000; stroke-width: 0.5" /><path
       id="ArialMT-32"
       d="M 3222 541  L 3222 0  L 194 0  Q 188 203 259 391  Q 375 700 629 1000  Q 884 1300 1366 1694  Q 2113 2306 2375 2664  Q 2638 3022 2638 3341  Q 2638 3675 2398 3904  Q 2159 4134 1775 4134  Q 1369 4134 1125 3890  Q 881 3647 878 3216  L 300 3275  Q 359 3922 746 4261  Q 1134 4600 1788 4600  Q 2447 4600 2831 4234  Q 3216 3869 3216 3328  Q 3216 3053 3103 2787  Q 2991 2522 2730 2228  Q 2469 1934 1863 1422  Q 1356 997 1212 845  Q 1069 694 975 541  L 3222 541  z "
       transform="scale(0.015625)" /><path
       id="ArialMT-33"
       d="M 269 1209  L 831 1284  Q 928 806 1161 595  Q 1394 384 1728 384  Q 2125 384 2398 659  Q 2672 934 2672 1341  Q 2672 1728 2419 1979  Q 2166 2231 1775 2231  Q 1616 2231 1378 2169  L 1441 2663  Q 1497 2656 1531 2656  Q 1891 2656 2178 2843  Q 2466 3031 2466 3422  Q 2466 3731 2256 3934  Q 2047 4138 1716 4138  Q 1388 4138 1169 3931  Q 950 3725 888 3313  L 325 3413  Q 428 3978 793 4289  Q 1159 4600 1703 4600  Q 2078 4600 2393 4439  Q 2709 4278 2876 4000  Q 3044 3722 3044 3409  Q 3044 3113 2884 2869  Q 2725 2625 2413 2481  Q 2819 2388 3044 2092  Q 3269 1797 3269 1353  Q 3269 753 2831 336  Q 2394 -81 1725 -81  Q 1122 -81 723 278  Q 325 638 269 1209  z "
       transform="scale(0.015625)" /><path
       id="ArialMT-34"
       d="M 2069 0  L 2069 1097  L 81 1097  L 81 1613  L 2172 4581  L 2631 4581  L 2631 1613  L 3250 1613  L 3250 1097  L 2631 1097  L 2631 0  L 2069 0  z M 2069 1613  L 2069 3678  L 634 1613  L 2069 1613  z "
       transform="scale(0.015625)" /><path
       id="Cmmi10-42"
       d="M 319 0  Q 256 0 256 84  Q 259 100 268 137  Q 278 175 293 200  Q 309 225 341 225  Q 522 225 656 234  Q 791 244 884 269  Q 959 297 1006 441  L 1881 3956  Q 1894 4019 1894 4044  Q 1894 4113 1819 4122  Q 1697 4147 1356 4147  Q 1294 4147 1294 4231  Q 1297 4247 1306 4286  Q 1316 4325 1333 4348  Q 1350 4372 1375 4372  L 3669 4372  Q 3878 4372 4083 4320  Q 4288 4269 4461 4156  Q 4634 4044 4736 3876  Q 4838 3709 4838 3488  Q 4838 3247 4714 3040  Q 4591 2834 4395 2681  Q 4200 2528 3973 2429  Q 3747 2331 3500 2284  Q 3675 2284 3854 2215  Q 4034 2147 4175 2028  Q 4316 1909 4402 1743  Q 4488 1578 4488 1388  Q 4488 1003 4219 684  Q 3950 366 3542 183  Q 3134 0 2753 0  L 319 0  z M 1497 275  Q 1497 225 1716 225  L 2631 225  Q 2944 225 3231 398  Q 3519 572 3692 859  Q 3866 1147 3866 1459  Q 3866 1650 3786 1820  Q 3706 1991 3556 2089  Q 3406 2188 3213 2188  L 1966 2188  L 1522 416  Q 1497 328 1497 275  z M 2009 2356  L 2981 2356  Q 3288 2356 3577 2512  Q 3866 2669 4048 2937  Q 4231 3206 4231 3506  Q 4231 3784 4057 3965  Q 3884 4147 3609 4147  L 2731 4147  Q 2559 4147 2500 4115  Q 2441 4084 2400 3928  L 2009 2356  z "
       transform="scale(0.015625)" /><path
       id="Cmsy10-a4"
       d="M 603 813  Q 531 813 473 873  Q 416 934 416 1006  Q 416 1116 506 1159  L 1428 1600  L 506 2034  Q 416 2072 416 2188  Q 416 2259 473 2320  Q 531 2381 603 2381  Q 650 2381 691 2350  L 1509 1753  L 1416 2797  Q 1416 2875 1469 2925  Q 1522 2975 1600 2975  Q 1675 2975 1726 2928  Q 1778 2881 1778 2809  L 1778 2797  L 1684 1753  L 2503 2350  Q 2544 2381 2591 2381  Q 2669 2381 2723 2320  Q 2778 2259 2778 2188  Q 2778 2072 2688 2034  L 1766 1600  L 2688 1159  Q 2778 1116 2778 1006  Q 2778 934 2723 873  Q 2669 813 2591 813  Q 2544 813 2503 844  L 1684 1441  L 1778 403  L 1778 384  Q 1778 313 1723 266  Q 1669 219 1600 219  Q 1525 219 1470 270  Q 1416 322 1416 397  L 1509 1441  L 691 844  Q 650 813 603 813  z "
       transform="scale(0.015625)" /><path
       id="ArialMT-6d"
       d="M 422 0  L 422 3319  L 925 3319  L 925 2853  Q 1081 3097 1340 3245  Q 1600 3394 1931 3394  Q 2300 3394 2536 3241  Q 2772 3088 2869 2813  Q 3263 3394 3894 3394  Q 4388 3394 4653 3120  Q 4919 2847 4919 2278  L 4919 0  L 4359 0  L 4359 2091  Q 4359 2428 4304 2576  Q 4250 2725 4106 2815  Q 3963 2906 3769 2906  Q 3419 2906 3187 2673  Q 2956 2441 2956 1928  L 2956 0  L 2394 0  L 2394 2156  Q 2394 2531 2256 2718  Q 2119 2906 1806 2906  Q 1569 2906 1367 2781  Q 1166 2656 1075 2415  Q 984 2175 984 1722  L 984 0  L 422 0  z "
       transform="scale(0.015625)" /><path
       id="ArialMT-54"
       d="M 1659 0  L 1659 4041  L 150 4041  L 150 4581  L 3781 4581  L 3781 4041  L 2266 4041  L 2266 0  L 1659 0  z "
       transform="scale(0.015625)" /><path
       id="ma8f85b50f5"
       d="M 0 1.5  C 0.397805 1.5 0.77937 1.341951 1.06066 1.06066  C 1.341951 0.77937 1.5 0.397805 1.5 0  C 1.5 -0.397805 1.341951 -0.77937 1.06066 -1.06066  C 0.77937 -1.341951 0.397805 -1.5 0 -1.5  C -0.397805 -1.5 -0.77937 -1.341951 -1.06066 -1.06066  C -1.341951 -0.77937 -1.5 -0.397805 -1.5 0  C -1.5 0.397805 -1.341951 0.77937 -1.06066 1.06066  C -0.77937 1.341951 -0.397805 1.5 0 1.5  z "
       style="stroke: #d62728; stroke-width: 0.5" /><path
       id="Cmmi10-57"
       d="M 1141 -72  L 844 4006  Q 822 4100 703 4123  Q 584 4147 409 4147  Q 347 4147 347 4231  Q 369 4313 381 4342  Q 394 4372 453 4372  L 1978 4372  Q 2041 4372 2041 4288  Q 2016 4147 1959 4147  Q 1447 4147 1416 3969  L 1644 738  L 3244 3525  L 3213 4006  Q 3191 4100 3072 4123  Q 2953 4147 2778 4147  Q 2713 4147 2713 4231  Q 2734 4313 2746 4342  Q 2759 4372 2822 4372  L 4347 4372  Q 4409 4372 4409 4288  Q 4406 4272 4397 4234  Q 4388 4197 4372 4172  Q 4356 4147 4325 4147  Q 3809 4147 3781 3969  L 3781 3922  L 4013 738  L 5753 3775  Q 5791 3844 5791 3909  Q 5791 4041 5662 4094  Q 5534 4147 5375 4147  Q 5313 4147 5313 4231  Q 5325 4281 5333 4309  Q 5341 4338 5361 4355  Q 5381 4372 5422 4372  L 6644 4372  Q 6706 4372 6706 4288  Q 6703 4272 6693 4233  Q 6684 4194 6667 4170  Q 6650 4147 6625 4147  Q 6169 4147 5931 3731  Q 5913 3713 5913 3713  L 3744 -72  Q 3709 -141 3634 -141  L 3584 -141  Q 3506 -141 3506 -72  L 3263 3225  L 1381 -72  Q 1334 -141 1269 -141  L 1216 -141  Q 1141 -141 1141 -72  z "
       transform="scale(0.015625)" /><path
       id="Cmr10-73"
       d="M 213 -19  L 213 1025  Q 213 1075 269 1075  L 347 1075  Q 384 1075 397 1025  Q 575 97 1259 97  Q 1563 97 1767 234  Q 1972 372 1972 659  Q 1972 866 1812 1011  Q 1653 1156 1434 1209  L 1006 1294  Q 791 1341 614 1437  Q 438 1534 325 1695  Q 213 1856 213 2069  Q 213 2350 361 2529  Q 509 2709 746 2789  Q 984 2869 1259 2869  Q 1588 2869 1831 2694  L 2016 2853  Q 2016 2869 2047 2869  L 2094 2869  Q 2113 2869 2128 2851  Q 2144 2834 2144 2816  L 2144 1978  Q 2144 1919 2094 1919  L 2016 1919  Q 1959 1919 1959 1978  Q 1959 2313 1773 2516  Q 1588 2719 1253 2719  Q 966 2719 755 2612  Q 544 2506 544 2247  Q 544 2069 695 1955  Q 847 1841 1050 1791  L 1484 1709  Q 1703 1659 1892 1540  Q 2081 1422 2192 1240  Q 2303 1059 2303 831  Q 2303 600 2223 429  Q 2144 259 2001 146  Q 1859 34 1665 -19  Q 1472 -72 1259 -72  Q 859 -72 575 197  L 341 -56  Q 341 -72 306 -72  L 269 -72  Q 213 -72 213 -19  z "
       transform="scale(0.015625)" /><path
       id="Cmr10-63"
       d="M 1594 -72  Q 1206 -72 890 129  Q 575 331 394 667  Q 213 1003 213 1381  Q 213 1759 392 2106  Q 572 2453 889 2661  Q 1206 2869 1594 2869  Q 1969 2869 2276 2722  Q 2584 2575 2584 2241  Q 2584 2116 2495 2023  Q 2406 1931 2278 1931  Q 2150 1931 2061 2023  Q 1972 2116 1972 2241  Q 1972 2353 2044 2436  Q 2116 2519 2222 2541  Q 2000 2681 1600 2681  Q 1294 2681 1106 2478  Q 919 2275 844 1975  Q 769 1675 769 1381  Q 769 1072 861 783  Q 953 494 1158 305  Q 1363 116 1672 116  Q 1975 116 2187 302  Q 2400 488 2478 788  Q 2478 825 2528 825  L 2606 825  Q 2625 825 2640 808  Q 2656 791 2656 769  L 2656 750  Q 2559 372 2271 150  Q 1984 -72 1594 -72  z "
       transform="scale(0.015625)" /><path
       id="Cmsy10-21"
       d="M 481 1472  Q 428 1472 393 1512  Q 359 1553 359 1600  Q 359 1647 393 1687  Q 428 1728 481 1728  L 5338 1728  Q 5094 1903 4906 2133  Q 4719 2363 4594 2627  Q 4469 2891 4416 3188  Q 4416 3272 4481 3272  L 4609 3272  Q 4631 3272 4648 3253  Q 4666 3234 4672 3213  Q 4725 2938 4839 2702  Q 4953 2466 5125 2262  Q 5297 2059 5509 1912  Q 5722 1766 5991 1672  Q 6034 1644 6034 1600  Q 6034 1550 5991 1538  Q 5656 1422 5378 1192  Q 5100 963 4919 652  Q 4738 341 4672 -13  Q 4666 -34 4647 -53  Q 4628 -72 4609 -72  L 4481 -72  Q 4416 -72 4416 13  Q 4497 450 4740 836  Q 4984 1222 5338 1472  L 481 1472  z "
       transform="scale(0.015625)" /><path
       id="Cmsy10-31"
       d="M 1575 -72  Q 1213 -72 933 140  Q 653 353 506 690  Q 359 1028 359 1381  Q 359 1653 445 1912  Q 531 2172 693 2378  Q 856 2584 1086 2706  Q 1316 2828 1594 2828  Q 1881 2828 2150 2718  Q 2419 2609 2642 2428  Q 2866 2247 3059 2009  L 3250 1753  Q 3441 2056 3672 2295  Q 3903 2534 4195 2681  Q 4488 2828 4819 2828  Q 5097 2828 5325 2704  Q 5553 2581 5712 2368  Q 5872 2156 5953 1898  Q 6034 1641 6034 1381  Q 6034 1019 5882 683  Q 5731 347 5451 137  Q 5172 -72 4800 -72  Q 4381 -72 4004 153  Q 3628 378 3334 750  L 3144 1006  Q 2850 528 2451 228  Q 2053 -72 1575 -72  z M 1509 153  Q 2322 153 2963 1241  L 2625 1672  Q 2331 2059 2078 2278  Q 1825 2497 1491 2497  Q 1206 2497 986 2336  Q 766 2175 645 1915  Q 525 1656 525 1375  Q 525 1159 592 942  Q 659 725 787 547  Q 916 369 1098 261  Q 1281 153 1509 153  z M 3769 1088  Q 4063 700 4316 481  Q 4569 263 4903 263  Q 5116 263 5294 356  Q 5472 450 5601 609  Q 5731 769 5800 969  Q 5869 1169 5869 1381  Q 5869 1678 5750 1961  Q 5631 2244 5407 2425  Q 5184 2606 4884 2606  Q 4072 2606 3431 1516  L 3769 1088  z "
       transform="scale(0.015625)" /><path
       id="mb0503e3b36"
       d="M 0 -1.5  L -1.5 1.5  L 1.5 1.5  z "
       style="stroke: #ff7f0e; stroke-width: 0.5; stroke-linejoin: miter" /><path
       id="Cmr10-3d"
       d="M 481 850  Q 428 850 393 890  Q 359 931 359 978  Q 359 1031 393 1068  Q 428 1106 481 1106  L 4500 1106  Q 4547 1106 4581 1068  Q 4616 1031 4616 978  Q 4616 931 4581 890  Q 4547 850 4500 850  L 481 850  z M 481 2094  Q 428 2094 393 2131  Q 359 2169 359 2222  Q 359 2269 393 2309  Q 428 2350 481 2350  L 4500 2350  Q 4547 2350 4581 2309  Q 4616 2269 4616 2222  Q 4616 2169 4581 2131  Q 4547 2094 4500 2094  L 481 2094  z "
       transform="scale(0.015625)" /><path
       id="ArialMT-2e"
       d="M 581 0  L 581 641  L 1222 641  L 1222 0  L 581 0  z "
       transform="scale(0.015625)" /><path
       id="ArialMT-3bc"
       d="M 3181 3319  L 3181 0  L 2678 0  L 2678 394  Q 2516 144 2356 50  Q 2138 -78 1847 -78  Q 1588 -78 1388 25  Q 1238 103 1056 334  L 1056 -1272  L 500 -1272  L 500 3319  L 1056 3319  L 1056 1913  Q 1056 1147 1137 920  Q 1219 694 1401 562  Q 1584 431 1822 431  Q 2072 431 2269 568  Q 2466 706 2547 923  Q 2628 1141 2628 1903  L 2628 3319  L 3181 3319  z "
       transform="scale(0.015625)" /><path
       id="m50e96baaff"
       d="M -1.5 1.5  L 1.5 1.5  L 1.5 -1.5  L -1.5 -1.5  z "
       style="stroke: #2ca02c; stroke-width: 0.5; stroke-linejoin: miter" /><path
       id="ArialMT-39"
       d="M 350 1059  L 891 1109  Q 959 728 1153 556  Q 1347 384 1650 384  Q 1909 384 2104 503  Q 2300 622 2425 820  Q 2550 1019 2634 1356  Q 2719 1694 2719 2044  Q 2719 2081 2716 2156  Q 2547 1888 2255 1720  Q 1963 1553 1622 1553  Q 1053 1553 659 1965  Q 266 2378 266 3053  Q 266 3750 677 4175  Q 1088 4600 1706 4600  Q 2153 4600 2523 4359  Q 2894 4119 3086 3673  Q 3278 3228 3278 2384  Q 3278 1506 3087 986  Q 2897 466 2520 194  Q 2144 -78 1638 -78  Q 1100 -78 759 220  Q 419 519 350 1059  z M 2653 3081  Q 2653 3566 2395 3850  Q 2138 4134 1775 4134  Q 1400 4134 1122 3828  Q 844 3522 844 3034  Q 844 2597 1108 2323  Q 1372 2050 1759 2050  Q 2150 2050 2401 2323  Q 2653 2597 2653 3081  z "
       transform="scale(0.015625)" /><path
       id="md6d070040d"
       d="M -0 2.12132  L 2.12132 0  L 0 -2.12132  L -2.12132 -0  z "
       style="stroke: #1f77b4; stroke-width: 0.5; stroke-linejoin: miter" /><path
       id="ArialMT-36"
       d="M 3184 3459  L 2625 3416  Q 2550 3747 2413 3897  Q 2184 4138 1850 4138  Q 1581 4138 1378 3988  Q 1113 3794 959 3422  Q 806 3050 800 2363  Q 1003 2672 1297 2822  Q 1591 2972 1913 2972  Q 2475 2972 2870 2558  Q 3266 2144 3266 1488  Q 3266 1056 3080 686  Q 2894 316 2569 119  Q 2244 -78 1831 -78  Q 1128 -78 684 439  Q 241 956 241 2144  Q 241 3472 731 4075  Q 1159 4600 1884 4600  Q 2425 4600 2770 4297  Q 3116 3994 3184 3459  z M 888 1484  Q 888 1194 1011 928  Q 1134 663 1356 523  Q 1578 384 1822 384  Q 2178 384 2434 671  Q 2691 959 2691 1453  Q 2691 1928 2437 2201  Q 2184 2475 1800 2475  Q 1419 2475 1153 2201  Q 888 1928 888 1484  z "
       transform="scale(0.015625)" /><path
       id="me2419827d9"
       d="M -1.5 1.5  L 1.5 -1.5  M -1.5 -1.5  L 1.5 1.5  "
       style="stroke: #9467bd; stroke-width: 0.5" /><path
       id="mb23b9c3cd7"
       d="M 0 0  L -2 0  "
       style="stroke: #000000; stroke-width: 0.5" /><path
       id="STIXGeneral-Regular-27f5"
       d="M 9722 1408  L 1549 1408  Q 1498 1408 1440 1360  Q 1382 1312 1382 1267  Q 1382 1197 1472 1107  Q 1798 794 1997 493  L 1869 371  Q 1075 1286 352 1587  L 352 1651  Q 1075 1958 1869 2874  L 1997 2752  Q 1811 2483 1478 2138  Q 1389 2048 1389 1958  Q 1389 1830 1555 1830  L 9722 1830  L 9722 1408  z "
       transform="scale(0.015625)" /><path
       id="Cmmi10-bf"
       d="M 997 97  Q 997 141 1006 166  L 1678 2363  L 1100 2363  Q 866 2363 662 2216  Q 459 2069 325 1844  Q 313 1819 288 1819  L 213 1819  Q 153 1819 153 1881  Q 153 1894 166 1919  Q 375 2275 614 2517  Q 853 2759 1153 2759  L 3116 2759  Q 3184 2759 3231 2712  Q 3278 2666 3278 2597  Q 3278 2503 3211 2433  Q 3144 2363 3047 2363  L 1888 2363  L 1459 153  Q 1434 50 1365 -17  Q 1297 -84 1191 -84  Q 1109 -84 1053 -32  Q 997 19 997 97  z "
       transform="scale(0.015625)" /><path
       id="Cmmi10-ae"
       d="M 1288 -72  Q 984 -72 748 72  Q 513 216 384 459  Q 256 703 256 1013  Q 256 1447 498 1872  Q 741 2297 1142 2562  Q 1544 2828 1984 2828  Q 2309 2828 2556 2658  Q 2803 2488 2931 2205  Q 3059 1922 3059 1600  L 3066 1172  Q 3284 1475 3436 1801  Q 3588 2128 3669 2478  Q 3681 2516 3719 2516  L 3794 2516  Q 3853 2516 3853 2456  Q 3853 2450 3847 2438  Q 3772 2144 3659 1873  Q 3547 1603 3395 1350  Q 3244 1097 3066 891  Q 3066 97 3250 97  Q 3369 97 3445 167  Q 3522 238 3580 341  Q 3638 444 3653 447  L 3731 447  Q 3781 447 3781 384  Q 3781 225 3598 76  Q 3416 -72 3238 -72  Q 3006 -72 2853 78  Q 2700 228 2644 469  Q 2344 213 1994 70  Q 1644 -72 1288 -72  z M 1300 97  Q 1984 97 2613 659  Q 2609 697 2603 751  Q 2597 806 2597 813  L 2597 1503  Q 2597 2663 1972 2663  Q 1597 2663 1315 2342  Q 1034 2022 892 1576  Q 750 1131 750 763  Q 750 484 892 290  Q 1034 97 1300 97  z "
       transform="scale(0.015625)" /><path
       id="STIXGeneral-Regular-27f6"
       d="M 9722 1651  L 9722 1587  Q 8986 1274 8198 365  L 8070 486  Q 8250 742 8595 1101  Q 8685 1190 8685 1280  Q 8685 1408 8518 1408  L 352 1408  L 352 1830  L 8525 1830  Q 8576 1830 8633 1878  Q 8691 1926 8691 1971  Q 8691 2042 8602 2131  Q 8288 2432 8077 2752  L 8205 2874  Q 9005 1952 9722 1651  z "
       transform="scale(0.015625)" /><clipPath
       id="p0d6324ce70"><rect
         x="29.264762"
         y="3.00024"
         width="134.589686"
         height="148.381475"
         id="rect124" /></clipPath></defs><sodipodi:namedview
     id="base"
     pagecolor="#ffffff"
     bordercolor="#666666"
     borderopacity="1.0"
     inkscape:pageopacity="0.0"
     inkscape:pageshadow="2"
     inkscape:zoom="0.90509668"
     inkscape:cx="354.65824"
     inkscape:cy="482.82135"
     inkscape:document-units="in"
     inkscape:current-layer="layer1"
     showgrid="false"
     units="in"
     showguides="true"
     inkscape:guide-bbox="true"
     inkscape:window-width="2880"
     inkscape:window-height="1586"
     inkscape:window-x="-11"
     inkscape:window-y="-11"
     inkscape:window-maximized="1"
     inkscape:showpageshadow="2"
     inkscape:pagecheckerboard="0"
     inkscape:deskcolor="#d1d1d1"><sodipodi:guide
       position="19.05,279.4"
       orientation="1,0"
       id="guide861"
       inkscape:locked="false"
       inkscape:label=""
       inkscape:color="rgb(0,0,255)" /><sodipodi:guide
       position="0,260.35"
       orientation="0,1"
       id="guide863"
       inkscape:locked="false"
       inkscape:label=""
       inkscape:color="rgb(0,0,255)" /><sodipodi:guide
       position="196.85,279.4"
       orientation="1,0"
       id="guide865"
       inkscape:locked="false"
       inkscape:label=""
       inkscape:color="rgb(0,0,255)" /><sodipodi:guide
       position="0,19.05"
       orientation="0,1"
       id="guide867"
       inkscape:locked="false"
       inkscape:label=""
       inkscape:color="rgb(0,0,255)" /><sodipodi:guide
       position="104.775,279.4"
       orientation="1,0"
       id="guide869"
       inkscape:locked="false"
       inkscape:label=""
       inkscape:color="rgb(0,0,255)" /><sodipodi:guide
       position="111.125,279.4"
       orientation="1,0"
       id="guide871"
       inkscape:locked="false"
       inkscape:label=""
       inkscape:color="rgb(0,0,255)" /></sodipodi:namedview><metadata
     id="metadata5"><rdf:RDF><cc:Work
         rdf:about=""><dc:format>image/svg+xml</dc:format><dc:type
           rdf:resource="http://purl.org/dc/dcmitype/StillImage" /></cc:Work></rdf:RDF></metadata><g
     inkscape:label="Layer 1"
     inkscape:groupmode="layer"
     id="layer1"
     transform="translate(0,-17.599975)"><g
       id="figure_1"
       transform="matrix(0.35277778,0,0,0.35277778,31.100101,36.64998)"><g
         id="patch_1"><path
           d="M 0,180 H 180 V 0 H 0 Z"
           style="fill:none"
           id="path1" /></g><g
         id="axes_1"><g
           id="patch_2"><path
             d="M 29.264762,151.38172 H 163.85445 V 3.00024 H 29.264762 Z"
             style="fill:none"
             id="path2" /></g><g
           id="matplotlib.axis_1"><g
             id="xtick_1"><g
               id="line2d_1"><defs
                 id="defs2-5"><path
                   id="path3"
                   d="M 0,0 V -2"
                   style="stroke:#000000;stroke-width:0.5" /></defs><g
                 id="g2"><use
                   xlink:href="#m34442174a6"
                   x="37.181801"
                   y="151.38171"
                   style="stroke:#000000;stroke-width:0.5"
                   id="use2" /></g></g><g
               id="text_1"><!-- −5 --><g
                 transform="matrix(0.0833,0,0,-0.0833,32.433051,160.84417)"
                 id="g4"><defs
                   id="defs3"><path
                     id="path4"
                     d="M 3381,1997 H 356 v 525 h 3025 z"
                     transform="scale(0.015625)" /><path
                     id="path5"
                     d="m 266,1200 590,50 q 66,-431 305,-649 239,-217 577,-217 406,0 687,306 281,307 281,813 0,481 -270,759 -270,279 -708,279 -272,0 -491,-124 -218,-123 -343,-320 l -528,69 443,2353 H 3088 V 3981 H 1259 L 1013,2750 q 412,288 865,288 600,0 1012,-416 413,-416 413,-1069 Q 3303,931 2941,478 2500,-78 1738,-78 1113,-78 717,272 322,622 266,1200 Z"
                     transform="scale(0.015625)" /></defs><use
                   xlink:href="#ArialMT-2212"
                   id="use3" /><use
                   xlink:href="#ArialMT-35"
                   x="58.398438"
                   id="use4" /></g></g></g><g
             id="xtick_2"><g
               id="line2d_2"><g
                 id="g5"><use
                   xlink:href="#m34442174a6"
                   x="76.767006"
                   y="151.38171"
                   style="stroke:#000000;stroke-width:0.5"
                   id="use5" /></g></g><g
               id="text_2"><!-- 0 --><g
                 transform="matrix(0.0833,0,0,-0.0833,74.450873,160.84417)"
                 id="g6"><defs
                   id="defs5"><path
                     id="path6"
                     d="m 266,2259 q 0,813 167,1308 167,496 496,764 330,269 830,269 369,0 647,-149 278,-148 459,-428 182,-279 285,-681 103,-401 103,-1083 0,-806 -166,-1301 Q 2922,463 2592,192 2263,-78 1759,-78 1097,-78 719,397 266,969 266,2259 Z m 578,0 q 0,-1128 264,-1502 264,-373 651,-373 388,0 652,375 264,375 264,1500 0,1132 -264,1503 -264,372 -658,372 -387,0 -619,-328 Q 844,3388 844,2259 Z"
                     transform="scale(0.015625)" /></defs><use
                   xlink:href="#ArialMT-30"
                   id="use6" /></g></g></g><g
             id="xtick_3"><g
               id="line2d_3"><g
                 id="g7"><use
                   xlink:href="#m34442174a6"
                   x="116.3522"
                   y="151.38171"
                   style="stroke:#000000;stroke-width:0.5"
                   id="use7" /></g></g><g
               id="text_3"><!-- 5 --><g
                 transform="matrix(0.0833,0,0,-0.0833,114.03607,160.84417)"
                 id="g8"><use
                   xlink:href="#ArialMT-35"
                   id="use8" /></g></g></g><g
             id="xtick_4"><g
               id="line2d_4"><g
                 id="g9"><use
                   xlink:href="#m34442174a6"
                   x="155.93741"
                   y="151.38171"
                   style="stroke:#000000;stroke-width:0.5"
                   id="use9" /></g></g><g
               id="text_4"><!-- 10 --><g
                 transform="matrix(0.0833,0,0,-0.0833,151.30515,160.84417)"
                 id="g11"><defs
                   id="defs9"><path
                     id="path7"
                     d="M 2384,0 H 1822 V 3584 Q 1619,3391 1289,3197 959,3003 697,2906 v 544 q 472,222 825,537 353,316 500,613 h 362 z"
                     transform="scale(0.015625)" /></defs><use
                   xlink:href="#ArialMT-31"
                   id="use10" /><use
                   xlink:href="#ArialMT-30"
                   x="55.615234"
                   id="use11" /></g></g></g><g
             id="text_5"><!-- $V_\mathrm{g}$ (V) --><g
               transform="matrix(0.1,0,0,-0.1,83.509605,173.79976)"
               id="g17"><defs
                 id="defs11"><path
                   id="path8"
                   d="M 1409,-72 897,4006 q -47,141 -481,141 -63,0 -63,84 13,69 31,105 19,36 75,36 h 1563 q 34,0 50,-25 16,-25 16,-59 -25,-141 -85,-141 -500,0 -531,-172 L 1894,628 3866,3775 q 56,106 56,169 0,112 -102,157 -101,46 -236,46 -65,0 -65,84 12,50 21,78 10,29 29,46 19,17 59,17 h 1235 q 59,0 59,-84 -25,-141 -84,-141 -482,0 -754,-422 -12,-12 -21,-12 L 1703,-72 q -47,-69 -122,-69 h -90 q -72,0 -82,69 z"
                   transform="scale(0.015625)" /><path
                   id="path9"
                   d="m 178,-500 q 0,228 165,399 166,170 395,242 -129,97 -196,243 -67,147 -67,313 0,300 191,531 -294,288 -294,660 0,200 86,375 86,175 239,303 153,128 340,195 188,67 385,67 381,0 684,-222 132,141 311,217 180,77 374,77 137,0 224,-99 88,-98 88,-235 0,-78 -60,-138 -59,-59 -137,-59 -81,0 -141,59 -59,60 -59,138 0,118 78,165 -331,0 -568,-228 115,-115 185,-283 71,-167 71,-332 0,-272 -150,-490 -150,-217 -396,-337 -245,-120 -504,-120 -350,0 -641,190 -90,-125 -90,-281 0,-169 111,-296 111,-126 279,-126 h 525 q 382,0 688,-69 306,-68 514,-275 208,-206 208,-584 0,-281 -238,-467 -237,-186 -567,-269 -330,-83 -611,-83 -284,0 -616,83 -331,83 -569,269 -237,186 -237,467 z m 360,0 q 0,-216 175,-361 175,-145 421,-215 247,-71 466,-71 216,0 462,71 247,70 420,215 174,145 174,361 0,334 -306,433 -306,98 -744,98 H 1081 Q 934,31 811,-39 688,-109 613,-236 538,-363 538,-500 Z m 884,1613 q 544,0 544,775 0,334 -116,551 -116,217 -428,217 -313,0 -429,-217 -115,-217 -115,-551 0,-213 44,-385 44,-172 162,-281 119,-109 338,-109 z"
                   transform="scale(0.015625)" /><path
                   id="path10"
                   transform="scale(0.015625)"
                   d="" /><path
                   id="path11"
                   d="M 1497,-1347 Q 1031,-759 709,28 388,816 388,1659 q 0,744 240,1425 281,791 869,1575 h 403 Q 1522,4009 1400,3731 1209,3300 1100,2831 966,2247 966,1656 966,153 1900,-1347 Z"
                   transform="scale(0.015625)" /><path
                   id="path12"
                   d="M 1803,0 28,4581 H 684 L 1875,1253 q 144,-400 241,-750 106,375 247,750 l 1237,3328 h 619 L 2425,0 Z"
                   transform="scale(0.015625)" /><path
                   id="path13"
                   d="M 791,-1347 H 388 q 934,1500 934,3003 0,588 -134,1166 -107,469 -297,900 -122,281 -503,937 h 403 q 587,-784 868,-1575 241,-681 241,-1425 0,-843 -324,-1631 -323,-787 -785,-1375 z"
                   transform="scale(0.015625)" /></defs><use
                 xlink:href="#Cmmi10-56"
                 transform="translate(0,0.203125)"
                 id="use12" /><use
                 xlink:href="#Cmr10-67"
                 transform="matrix(0.7,0,0,0.7,58.300781,-16.803125)"
                 id="use13" /><use
                 xlink:href="#ArialMT-20"
                 transform="translate(99.678125,0.203125)"
                 id="use14" /><use
                 xlink:href="#ArialMT-28"
                 transform="translate(127.46133,0.203125)"
                 id="use15" /><use
                 xlink:href="#ArialMT-56"
                 transform="translate(160.76211,0.203125)"
                 id="use16" /><use
                 xlink:href="#ArialMT-29"
                 transform="translate(227.46133,0.203125)"
                 id="use17" /></g></g></g><g
           id="matplotlib.axis_2"><g
             id="ytick_1"><g
               id="line2d_5"><defs
                 id="defs17"><path
                   id="path14"
                   d="M 0,0 H 2"
                   style="stroke:#000000;stroke-width:0.5" /></defs><g
                 id="g18"><use
                   xlink:href="#m9229f38abc"
                   x="29.264763"
                   y="124.50505"
                   style="stroke:#000000;stroke-width:0.5"
                   id="use18" /></g></g><g
               id="text_6"><!-- 0 --><g
                 transform="matrix(0.0833,0,0,-0.0833,21.132501,127.48628)"
                 id="g19"><use
                   xlink:href="#ArialMT-30"
                   id="use19" /></g></g></g><g
             id="ytick_2"><g
               id="line2d_6"><g
                 id="g20"><use
                   xlink:href="#m9229f38abc"
                   x="29.264763"
                   y="96.196045"
                   style="stroke:#000000;stroke-width:0.5"
                   id="use20" /></g></g><g
               id="text_7"><!-- 10 --><g
                 transform="matrix(0.0833,0,0,-0.0833,16.50024,99.177276)"
                 id="g22"><use
                   xlink:href="#ArialMT-31"
                   id="use21" /><use
                   xlink:href="#ArialMT-30"
                   x="55.615234"
                   id="use22" /></g></g></g><g
             id="ytick_3"><g
               id="line2d_7"><g
                 id="g23"><use
                   xlink:href="#m9229f38abc"
                   x="29.264763"
                   y="67.887047"
                   style="stroke:#000000;stroke-width:0.5"
                   id="use23" /></g></g><g
               id="text_8"><!-- 20 --><g
                 transform="matrix(0.0833,0,0,-0.0833,16.50024,70.868271)"
                 id="g25"><defs
                   id="defs23"><path
                     id="path15"
                     d="M 3222,541 V 0 H 194 q -6,203 65,391 116,309 370,609 255,300 737,694 747,612 1009,970 263,358 263,677 0,334 -240,563 -239,230 -623,230 -406,0 -650,-244 -244,-243 -247,-674 l -578,59 q 59,647 446,986 388,339 1042,339 659,0 1043,-366 385,-365 385,-906 0,-275 -113,-541 Q 2991,2522 2730,2228 2469,1934 1863,1422 1356,997 1212,845 1069,694 975,541 Z"
                     transform="scale(0.015625)" /></defs><use
                   xlink:href="#ArialMT-32"
                   id="use24" /><use
                   xlink:href="#ArialMT-30"
                   x="55.615234"
                   id="use25" /></g></g></g><g
             id="ytick_4"><g
               id="line2d_8"><g
                 id="g26"><use
                   xlink:href="#m9229f38abc"
                   x="29.264763"
                   y="39.578037"
                   style="stroke:#000000;stroke-width:0.5"
                   id="use26" /></g></g><g
               id="text_9"><!-- 30 --><g
                 transform="matrix(0.0833,0,0,-0.0833,16.50024,42.559266)"
                 id="g28"><defs
                   id="defs26"><path
                     id="path16"
                     d="m 269,1209 562,75 q 97,-478 330,-689 233,-211 567,-211 397,0 670,275 274,275 274,682 0,387 -253,638 -253,252 -644,252 -159,0 -397,-62 l 63,494 q 56,-7 90,-7 360,0 647,187 288,188 288,579 0,309 -210,512 -209,204 -540,204 -328,0 -547,-207 -219,-206 -281,-618 l -563,100 q 103,565 468,876 366,311 910,311 375,0 690,-161 316,-161 483,-439 168,-278 168,-591 0,-296 -160,-540 -159,-244 -471,-388 406,-93 631,-389 225,-295 225,-739 Q 3269,753 2831,336 2394,-81 1725,-81 1122,-81 723,278 325,638 269,1209 Z"
                     transform="scale(0.015625)" /></defs><use
                   xlink:href="#ArialMT-33"
                   id="use27" /><use
                   xlink:href="#ArialMT-30"
                   x="55.615234"
                   id="use28" /></g></g></g><g
             id="ytick_5"><g
               id="line2d_9"><g
                 id="g29"><use
                   xlink:href="#m9229f38abc"
                   x="29.264763"
                   y="11.269033"
                   style="stroke:#000000;stroke-width:0.5"
                   id="use29" /></g></g><g
               id="text_10"><!-- 40 --><g
                 transform="matrix(0.0833,0,0,-0.0833,16.50024,14.250262)"
                 id="g31"><defs
                   id="defs29"><path
                     id="path17"
                     d="M 2069,0 V 1097 H 81 v 516 l 2091,2968 h 459 V 1613 h 619 V 1097 H 2631 V 0 Z m 0,1613 V 3678 L 634,1613 Z"
                     transform="scale(0.015625)" /></defs><use
                   xlink:href="#ArialMT-34"
                   id="use30" /><use
                   xlink:href="#ArialMT-30"
                   x="55.615234"
                   id="use31" /></g></g></g><g
             id="text_11"><!-- $B_*$ (mT) --><g
               transform="matrix(0,-0.1,-0.1,0,10.30024,96.240977)"
               id="g38"><defs
                 id="defs31"><path
                   id="path18"
                   d="m 319,0 q -63,0 -63,84 3,16 12,53 10,38 25,63 16,25 48,25 181,0 315,9 135,10 228,35 75,28 122,172 l 875,3515 q 13,63 13,88 0,69 -75,78 -122,25 -463,25 -62,0 -62,84 3,16 12,55 10,39 27,62 17,24 42,24 h 2294 q 209,0 414,-52 205,-51 378,-164 173,-112 275,-280 102,-167 102,-388 0,-241 -124,-448 -123,-206 -319,-359 -195,-153 -422,-252 -226,-98 -473,-145 175,0 354,-69 180,-68 321,-187 141,-119 227,-285 86,-165 86,-355 0,-385 -269,-704 Q 3950,366 3542,183 3134,0 2753,0 Z m 1178,275 q 0,-50 219,-50 h 915 q 313,0 600,173 288,174 461,461 174,288 174,600 0,191 -80,361 -80,171 -230,269 -150,99 -343,99 H 1966 L 1522,416 q -25,-88 -25,-141 z m 512,2081 h 972 q 307,0 596,156 289,157 471,425 183,269 183,569 0,278 -174,459 -173,182 -448,182 h -878 q -172,0 -231,-32 -59,-31 -100,-187 z"
                   transform="scale(0.015625)" /><path
                   id="path19"
                   d="m 603,813 q -72,0 -130,60 -57,61 -57,133 0,110 90,153 l 922,441 -922,434 q -90,38 -90,154 0,71 57,132 58,61 130,61 47,0 88,-31 l 818,-597 -93,1044 q 0,78 53,128 53,50 131,50 75,0 126,-47 52,-47 52,-119 v -12 l -94,-1044 819,597 q 41,31 88,31 78,0 132,-61 55,-61 55,-132 0,-116 -90,-154 l -922,-434 922,-441 q 90,-43 90,-153 0,-72 -55,-133 -54,-60 -132,-60 -47,0 -88,31 l -819,597 94,-1038 v -19 q 0,-71 -55,-118 -54,-47 -123,-47 -75,0 -130,51 -54,52 -54,127 l 93,1044 -818,-597 q -41,-31 -88,-31 z"
                   transform="scale(0.015625)" /><path
                   id="path20"
                   d="m 422,0 v 3319 h 503 v -466 q 156,244 415,392 260,149 591,149 369,0 605,-153 236,-153 333,-428 394,581 1025,581 494,0 759,-274 266,-273 266,-842 V 0 h -560 v 2091 q 0,337 -55,485 -54,149 -198,239 -143,91 -337,91 -350,0 -582,-233 -231,-232 -231,-745 V 0 h -562 v 2156 q 0,375 -138,562 -137,188 -450,188 -237,0 -439,-125 -201,-125 -292,-366 -91,-240 -91,-693 V 0 Z"
                   transform="scale(0.015625)" /><path
                   id="path21"
                   d="M 1659,0 V 4041 H 150 v 540 H 3781 V 4041 H 2266 V 0 Z"
                   transform="scale(0.015625)" /></defs><use
                 xlink:href="#Cmmi10-42"
                 transform="translate(0,0.203125)"
                 id="use32" /><use
                 xlink:href="#Cmsy10-a4"
                 transform="matrix(0.7,0,0,0.7,88.072266,-16.803125)"
                 id="use33" /><use
                 xlink:href="#ArialMT-20"
                 transform="translate(141.74062,0.203125)"
                 id="use34" /><use
                 xlink:href="#ArialMT-28"
                 transform="translate(169.52383,0.203125)"
                 id="use35" /><use
                 xlink:href="#ArialMT-6d"
                 transform="translate(202.82461,0.203125)"
                 id="use36" /><use
                 xlink:href="#ArialMT-54"
                 transform="translate(286.12539,0.203125)"
                 id="use37" /><use
                 xlink:href="#ArialMT-29"
                 transform="translate(347.20938,0.203125)"
                 id="use38" /></g></g></g><g
           id="line2d_10"><path
             d="M 29.264762,124.50505 H 163.85445"
             clip-path="url(#p0d6324ce70)"
             style="fill:none;stroke:#d3d3d3;stroke-width:0.5;stroke-linecap:square"
             id="path38" /></g><g
           id="patch_3"><path
             d="M 29.264762,151.38172 V 3.00024"
             style="fill:none;stroke:#000000;stroke-width:0.5;stroke-linecap:square;stroke-linejoin:miter"
             id="path39" /></g><g
           id="patch_4"><path
             d="M 163.85445,151.38172 V 3.00024"
             style="fill:none;stroke:#000000;stroke-width:0.5;stroke-linecap:square;stroke-linejoin:miter"
             id="path40" /></g><g
           id="patch_5"><path
             d="M 29.264762,151.38172 H 163.85445"
             style="fill:none;stroke:#000000;stroke-width:0.5;stroke-linecap:square;stroke-linejoin:miter"
             id="path41" /></g><g
           id="patch_6"><path
             d="M 29.264762,3.00024 H 163.85445"
             style="fill:none;stroke:#000000;stroke-width:0.5;stroke-linecap:square;stroke-linejoin:miter"
             id="path42" /></g><g
           id="LineCollection_1"><path
             d="m 53.015883,112.08432 v -9.09706"
             clip-path="url(#p0d6324ce70)"
             style="fill:none;stroke:#d62728"
             id="path43" /><path
             d="M 76.767004,64.805515 V 56.354277"
             clip-path="url(#p0d6324ce70)"
             style="fill:none;stroke:#d62728"
             id="path44" /><path
             d="M 155.93741,19.23241 V 9.744852"
             clip-path="url(#p0d6324ce70)"
             style="fill:none;stroke:#d62728"
             id="path45" /></g><g
           id="line2d_11"><path
             d="M 53.015883,107.53579 76.767004,60.579896 155.93741,14.488631"
             clip-path="url(#p0d6324ce70)"
             style="fill:none;stroke:#d62728;stroke-linecap:square"
             id="path46" /><defs
             id="defs46"><path
               id="path22"
               d="M 0,1.5 C 0.397805,1.5 0.77937,1.341951 1.06066,1.06066 1.341951,0.77937 1.5,0.397805 1.5,0 1.5,-0.397805 1.341951,-0.77937 1.06066,-1.06066 0.77937,-1.341951 0.397805,-1.5 0,-1.5 c -0.397805,0 -0.77937,0.158049 -1.06066,0.43934 C -1.341951,-0.77937 -1.5,-0.397805 -1.5,0 c 0,0.397805 0.158049,0.77937 0.43934,1.06066 C -0.77937,1.341951 -0.397805,1.5 0,1.5 Z"
               style="stroke:#d62728;stroke-width:0.5" /></defs><g
             clip-path="url(#p0d6324ce70)"
             id="g48"><use
               xlink:href="#ma8f85b50f5"
               x="53.015884"
               y="107.53579"
               style="fill:#d62728;stroke:#d62728;stroke-width:0.5"
               id="use46" /><use
               xlink:href="#ma8f85b50f5"
               x="76.767006"
               y="60.579895"
               style="fill:#d62728;stroke:#d62728;stroke-width:0.5"
               id="use47" /><use
               xlink:href="#ma8f85b50f5"
               x="155.93741"
               y="14.488631"
               style="fill:#d62728;stroke:#d62728;stroke-width:0.5"
               id="use48" /></g></g><g
           id="LineCollection_2"><path
             d="m 49.057363,144.6371 v -7.45252"
             clip-path="url(#p0d6324ce70)"
             style="fill:none;stroke:#ff7f0e"
             id="path48" /><path
             d="M 76.767004,104.85501 V 95.271697"
             clip-path="url(#p0d6324ce70)"
             style="fill:none;stroke:#ff7f0e"
             id="path49" /><path
             d="M 155.93741,51.020088 V 37.968373"
             clip-path="url(#p0d6324ce70)"
             style="fill:none;stroke:#ff7f0e"
             id="path50" /></g><g
           id="legend_1"><g
             id="patch_7"><path
               d="m 33.317762,48.709576 h 51.3573 q 1.158,0 1.158,-1.158 V 7.05324 q 0,-1.158 -1.158,-1.158 h -51.3573 q -1.158,0 -1.158,1.158 v 40.498336 q 0,1.158 1.158,1.158 z"
               style="opacity:0.8;fill:#ffffff;stroke:#cccccc;stroke-linejoin:miter"
               id="path51" /></g><g
             id="LineCollection_3"><path
               d="m 40.265762,13.224113 v -5.79"
               style="fill:none;stroke:#d62728"
               id="path52" /></g><g
             id="line2d_12"><path
               d="m 34.475762,10.329113 h 11.58"
               style="fill:none;stroke:#d62728;stroke-linecap:square"
               id="path53" /></g><g
             id="line2d_13"><g
               id="g53"><use
                 xlink:href="#ma8f85b50f5"
                 x="40.265762"
                 y="10.329113"
                 style="fill:#d62728;stroke:#d62728;stroke-width:0.5"
                 id="use53" /></g></g><g
             id="text_12"><!-- $W_\mathrm{sc}\rightarrow\infty$ --><g
               transform="matrix(0.0579,0,0,-0.0579,50.687762,12.355613)"
               id="g58"><defs
                 id="defs53"><path
                   id="path23"
                   d="M 1141,-72 844,4006 q -22,94 -141,117 -119,24 -294,24 -62,0 -62,84 22,82 34,111 13,30 72,30 h 1525 q 63,0 63,-84 -25,-141 -82,-141 -512,0 -543,-178 l 228,-3231 1600,2787 -31,481 q -22,94 -141,117 -119,24 -294,24 -65,0 -65,84 21,82 33,111 13,30 76,30 h 1525 q 62,0 62,-84 -3,-16 -12,-54 -9,-37 -25,-62 -16,-25 -47,-25 -516,0 -544,-178 v -47 L 4013,738 5753,3775 q 38,69 38,134 0,132 -129,185 -128,53 -287,53 -62,0 -62,84 12,50 20,78 8,29 28,46 20,17 61,17 h 1222 q 62,0 62,-84 -3,-16 -13,-55 -9,-39 -26,-63 -17,-23 -42,-23 -456,0 -694,-416 -18,-18 -18,-18 L 3744,-72 q -35,-69 -110,-69 h -50 q -78,0 -78,69 L 3263,3225 1381,-72 q -47,-69 -112,-69 h -53 q -75,0 -75,69 z"
                   transform="scale(0.015625)" /><path
                   id="path24"
                   d="m 213,-19 v 1044 q 0,50 56,50 h 78 q 37,0 50,-50 178,-928 862,-928 304,0 508,137 205,138 205,425 0,207 -160,352 -159,145 -378,198 l -428,85 q -215,47 -392,143 -176,97 -289,258 -112,161 -112,374 0,281 148,460 148,180 385,260 238,80 513,80 329,0 572,-175 l 185,159 q 0,16 31,16 h 47 q 19,0 34,-18 16,-17 16,-35 v -838 q 0,-59 -50,-59 h -78 q -57,0 -57,59 0,335 -186,538 -185,203 -520,203 -287,0 -498,-107 -211,-106 -211,-365 0,-178 151,-292 152,-114 355,-164 l 434,-82 q 219,-50 408,-169 189,-118 300,-300 111,-181 111,-409 0,-231 -80,-402 Q 2144,259 2001,146 1859,34 1665,-19 1472,-72 1259,-72 859,-72 575,197 L 341,-56 q 0,-16 -35,-16 h -37 q -56,0 -56,53 z"
                   transform="scale(0.015625)" /><path
                   id="path25"
                   d="m 1594,-72 q -388,0 -704,201 -315,202 -496,538 -181,336 -181,714 0,378 179,725 180,347 497,555 317,208 705,208 375,0 682,-147 308,-147 308,-481 0,-125 -89,-218 -89,-92 -217,-92 -128,0 -217,92 -89,93 -89,218 0,112 72,195 72,83 178,105 -222,140 -622,140 -306,0 -494,-203 -187,-203 -262,-503 -75,-300 -75,-594 0,-309 92,-598 92,-289 297,-478 205,-189 514,-189 303,0 515,186 213,186 291,486 0,37 50,37 h 78 q 19,0 34,-17 16,-17 16,-39 V 750 Q 2559,372 2271,150 1984,-72 1594,-72 Z"
                   transform="scale(0.015625)" /><path
                   id="path26"
                   d="m 481,1472 q -53,0 -88,40 -34,41 -34,88 0,47 34,87 35,41 88,41 h 4857 q -244,175 -432,405 -187,230 -312,494 -125,264 -178,561 0,84 65,84 h 128 q 22,0 39,-19 18,-19 24,-40 53,-275 167,-511 114,-236 286,-440 172,-203 384,-350 213,-146 482,-240 43,-28 43,-72 0,-50 -43,-62 -335,-116 -613,-346 -278,-229 -459,-540 -181,-311 -247,-665 -6,-21 -25,-40 -19,-19 -38,-19 h -128 q -65,0 -65,85 81,437 324,823 244,386 598,636 z"
                   transform="scale(0.015625)" /><path
                   id="path27"
                   d="m 1575,-72 q -362,0 -642,212 -280,213 -427,550 -147,338 -147,691 0,272 86,531 86,260 248,466 163,206 393,328 230,122 508,122 287,0 556,-110 269,-109 492,-290 224,-181 417,-419 l 191,-256 q 191,303 422,542 231,239 523,386 293,147 624,147 278,0 506,-124 228,-123 387,-336 160,-212 241,-470 81,-257 81,-517 0,-362 -152,-698 -151,-336 -431,-546 -279,-209 -651,-209 -419,0 -796,225 -376,225 -670,597 l -190,256 Q 2850,528 2451,228 2053,-72 1575,-72 Z m -66,225 q 813,0 1454,1088 l -338,431 q -294,387 -547,606 -253,219 -587,219 -285,0 -505,-161 Q 766,2175 645,1915 525,1656 525,1375 525,1159 592,942 659,725 787,547 916,369 1098,261 1281,153 1509,153 Z m 2260,935 q 294,-388 547,-607 253,-218 587,-218 213,0 391,93 178,94 307,253 130,160 199,360 69,200 69,412 0,297 -119,580 -119,283 -343,464 -223,181 -523,181 -812,0 -1453,-1090 z"
                   transform="scale(0.015625)" /></defs><use
                 xlink:href="#Cmmi10-57"
                 transform="translate(0,0.6875)"
                 id="use54" /><use
                 xlink:href="#Cmr10-73"
                 transform="matrix(0.7,0,0,0.7,94.384766,-16.31875)"
                 id="use55" /><use
                 xlink:href="#Cmr10-63"
                 transform="matrix(0.7,0,0,0.7,121.96777,-16.31875)"
                 id="use56" /><use
                 xlink:href="#Cmsy10-21"
                 transform="translate(176.97305,0.6875)"
                 id="use57" /><use
                 xlink:href="#Cmsy10-31"
                 transform="translate(294.53164,0.6875)"
                 id="use58" /></g></g><g
             id="LineCollection_4"><path
               d="m 40.265762,21.438676 v -5.79"
               style="fill:none;stroke:#ff7f0e"
               id="path58" /></g><g
             id="line2d_14"><path
               d="m 34.475762,18.543676 h 11.58"
               style="fill:none;stroke:#ff7f0e;stroke-linecap:square"
               id="path59" /></g><g
             id="line2d_15"><defs
               id="defs59"><path
                 id="path28"
                 d="m 0,-1.5 -1.5,3 h 3 z"
                 style="stroke:#ff7f0e;stroke-width:0.5;stroke-linejoin:miter" /></defs><g
               id="g59"><use
                 xlink:href="#mb0503e3b36"
                 x="40.265762"
                 y="18.543676"
                 style="fill:#ff7f0e;stroke:#ff7f0e;stroke-width:0.5;stroke-linejoin:miter"
                 id="use59" /></g></g><g
             id="text_13"><!-- $W_\mathrm{sc}=$1.2$\,$μm --><g
               transform="matrix(0.0579,0,0,-0.0579,50.687762,20.570176)"
               id="g68"><defs
                 id="defs60"><path
                   id="path29"
                   d="m 481,850 q -53,0 -88,40 -34,41 -34,88 0,53 34,90 35,38 88,38 h 4019 q 47,0 81,-38 35,-37 35,-90 0,-47 -35,-88 -34,-40 -81,-40 z m 0,1244 q -53,0 -88,37 -34,38 -34,91 0,47 34,87 35,41 88,41 h 4019 q 47,0 81,-41 35,-40 35,-87 0,-53 -35,-91 -34,-37 -81,-37 z"
                   transform="scale(0.015625)" /><path
                   id="path30"
                   d="m 581,0 v 641 h 641 V 0 Z"
                   transform="scale(0.015625)" /><path
                   id="path31"
                   d="M 3181,3319 V 0 H 2678 V 394 Q 2516,144 2356,50 2138,-78 1847,-78 1588,-78 1388,25 1238,103 1056,334 V -1272 H 500 v 4591 h 556 V 1913 q 0,-766 81,-993 82,-226 264,-358 183,-131 421,-131 250,0 447,137 197,138 278,355 81,218 81,980 v 1416 z"
                   transform="scale(0.015625)" /></defs><use
                 xlink:href="#Cmmi10-57"
                 transform="translate(0,0.125)"
                 id="use60" /><use
                 xlink:href="#Cmr10-73"
                 transform="matrix(0.7,0,0,0.7,94.384766,-16.88125)"
                 id="use61" /><use
                 xlink:href="#Cmr10-63"
                 transform="matrix(0.7,0,0,0.7,121.96777,-16.88125)"
                 id="use62" /><use
                 xlink:href="#Cmr10-3d"
                 transform="translate(176.97305,0.125)"
                 id="use63" /><use
                 xlink:href="#ArialMT-31"
                 transform="translate(272.21719,0.125)"
                 id="use64" /><use
                 xlink:href="#ArialMT-2e"
                 transform="translate(327.83242,0.125)"
                 id="use65" /><use
                 xlink:href="#ArialMT-32"
                 transform="translate(355.61563,0.125)"
                 id="use66" /><use
                 xlink:href="#ArialMT-3bc"
                 transform="translate(425.86331,0.125)"
                 id="use67" /><use
                 xlink:href="#ArialMT-6d"
                 transform="translate(483.4805,0.125)"
                 id="use68" /></g></g><g
             id="LineCollection_5"><path
               d="m 40.265762,29.660476 v -5.79"
               style="fill:none;stroke:#2ca02c"
               id="path68" /></g><g
             id="line2d_16"><path
               d="m 34.475762,26.765476 h 11.58"
               style="fill:none;stroke:#2ca02c;stroke-linecap:square"
               id="path69" /></g><g
             id="line2d_17"><defs
               id="defs69"><path
                 id="path32"
                 d="m -1.5,1.5 h 3 v -3 h -3 z"
                 style="stroke:#2ca02c;stroke-width:0.5;stroke-linejoin:miter" /></defs><g
               id="g69"><use
                 xlink:href="#m50e96baaff"
                 x="40.265762"
                 y="26.765476"
                 style="fill:#2ca02c;stroke:#2ca02c;stroke-width:0.5;stroke-linejoin:miter"
                 id="use69" /></g></g><g
             id="text_14"><!-- $W_\mathrm{sc}=$0.9$\,$μm --><g
               transform="matrix(0.0579,0,0,-0.0579,50.687762,28.791976)"
               id="g78"><defs
                 id="defs70"><path
                   id="path33"
                   d="m 350,1059 541,50 q 68,-381 262,-553 194,-172 497,-172 259,0 454,119 196,119 321,317 125,199 209,536 85,338 85,688 0,37 -3,112 -169,-268 -461,-436 -292,-167 -633,-167 -569,0 -963,412 -393,413 -393,1088 0,697 411,1122 411,425 1029,425 447,0 817,-241 371,-240 563,-686 192,-445 192,-1289 0,-878 -191,-1398 Q 2897,466 2520,194 2144,-78 1638,-78 1100,-78 759,220 419,519 350,1059 Z m 2303,2022 q 0,485 -258,769 -257,284 -620,284 -375,0 -653,-306 -278,-306 -278,-794 0,-437 264,-711 264,-273 651,-273 391,0 642,273 252,274 252,758 z"
                   transform="scale(0.015625)" /></defs><use
                 xlink:href="#Cmmi10-57"
                 transform="translate(0,0.125)"
                 id="use70" /><use
                 xlink:href="#Cmr10-73"
                 transform="matrix(0.7,0,0,0.7,94.384766,-16.88125)"
                 id="use71" /><use
                 xlink:href="#Cmr10-63"
                 transform="matrix(0.7,0,0,0.7,121.96777,-16.88125)"
                 id="use72" /><use
                 xlink:href="#Cmr10-3d"
                 transform="translate(176.97305,0.125)"
                 id="use73" /><use
                 xlink:href="#ArialMT-30"
                 transform="translate(272.21719,0.125)"
                 id="use74" /><use
                 xlink:href="#ArialMT-2e"
                 transform="translate(327.83242,0.125)"
                 id="use75" /><use
                 xlink:href="#ArialMT-39"
                 transform="translate(355.61563,0.125)"
                 id="use76" /><use
                 xlink:href="#ArialMT-3bc"
                 transform="translate(425.86331,0.125)"
                 id="use77" /><use
                 xlink:href="#ArialMT-6d"
                 transform="translate(483.4805,0.125)"
                 id="use78" /></g></g><g
             id="LineCollection_6"><path
               d="m 40.265762,37.882276 v -5.79"
               style="fill:none;stroke:#1f77b4"
               id="path78" /></g><g
             id="line2d_18"><path
               d="m 34.475762,34.987276 h 11.58"
               style="fill:none;stroke:#1f77b4;stroke-linecap:square"
               id="path79" /></g><g
             id="line2d_19"><defs
               id="defs79"><path
                 id="path34"
                 d="M 0,2.12132 2.12132,0 0,-2.12132 -2.12132,0 Z"
                 style="stroke:#1f77b4;stroke-width:0.5;stroke-linejoin:miter" /></defs><g
               id="g79"><use
                 xlink:href="#md6d070040d"
                 x="40.265762"
                 y="34.987274"
                 style="fill:#1f77b4;stroke:#1f77b4;stroke-width:0.5;stroke-linejoin:miter"
                 id="use79" /></g></g><g
             id="text_15"><!-- $W_\mathrm{sc}=$0.6$\,$μm --><g
               transform="matrix(0.0579,0,0,-0.0579,50.687762,37.013776)"
               id="g88"><defs
                 id="defs80"><path
                   id="path35"
                   d="m 3184,3459 -559,-43 q -75,331 -212,481 -229,241 -563,241 -269,0 -472,-150 -265,-194 -419,-566 -153,-372 -159,-1059 203,309 497,459 294,150 616,150 562,0 957,-414 396,-414 396,-1070 0,-432 -186,-802 Q 2894,316 2569,119 2244,-78 1831,-78 1128,-78 684,439 241,956 241,2144 q 0,1328 490,1931 428,525 1153,525 541,0 886,-303 346,-303 414,-838 z M 888,1484 q 0,-290 123,-556 123,-265 345,-405 222,-139 466,-139 356,0 612,287 257,288 257,782 0,475 -254,748 -253,274 -637,274 -381,0 -647,-274 -265,-273 -265,-717 z"
                   transform="scale(0.015625)" /></defs><use
                 xlink:href="#Cmmi10-57"
                 transform="translate(0,0.125)"
                 id="use80" /><use
                 xlink:href="#Cmr10-73"
                 transform="matrix(0.7,0,0,0.7,94.384766,-16.88125)"
                 id="use81" /><use
                 xlink:href="#Cmr10-63"
                 transform="matrix(0.7,0,0,0.7,121.96777,-16.88125)"
                 id="use82" /><use
                 xlink:href="#Cmr10-3d"
                 transform="translate(176.97305,0.125)"
                 id="use83" /><use
                 xlink:href="#ArialMT-30"
                 transform="translate(272.21719,0.125)"
                 id="use84" /><use
                 xlink:href="#ArialMT-2e"
                 transform="translate(327.83242,0.125)"
                 id="use85" /><use
                 xlink:href="#ArialMT-36"
                 transform="translate(355.61563,0.125)"
                 id="use86" /><use
                 xlink:href="#ArialMT-3bc"
                 transform="translate(425.86331,0.125)"
                 id="use87" /><use
                 xlink:href="#ArialMT-6d"
                 transform="translate(483.4805,0.125)"
                 id="use88" /></g></g><g
             id="LineCollection_7"><path
               d="m 40.265762,46.104076 v -5.79"
               style="fill:none;stroke:#9467bd"
               id="path88" /></g><g
             id="line2d_20"><path
               d="m 34.475762,43.209076 h 11.58"
               style="fill:none;stroke:#9467bd;stroke-linecap:square"
               id="path89" /></g><g
             id="line2d_21"><defs
               id="defs89"><path
                 id="path36"
                 d="m -1.5,1.5 3,-3 m -3,0 3,3"
                 style="stroke:#9467bd;stroke-width:0.5" /></defs><g
               id="g89"><use
                 xlink:href="#me2419827d9"
                 x="40.265762"
                 y="43.209076"
                 style="fill:#9467bd;stroke:#9467bd;stroke-width:0.5"
                 id="use89" /></g></g><g
             id="text_16"><!-- $W_\mathrm{sc}=$0.3$\,$μm --><g
               transform="matrix(0.0579,0,0,-0.0579,50.687762,45.235576)"
               id="g98"><use
                 xlink:href="#Cmmi10-57"
                 transform="translate(0,0.125)"
                 id="use90" /><use
                 xlink:href="#Cmr10-73"
                 transform="matrix(0.7,0,0,0.7,94.384766,-16.88125)"
                 id="use91" /><use
                 xlink:href="#Cmr10-63"
                 transform="matrix(0.7,0,0,0.7,121.96777,-16.88125)"
                 id="use92" /><use
                 xlink:href="#Cmr10-3d"
                 transform="translate(176.97305,0.125)"
                 id="use93" /><use
                 xlink:href="#ArialMT-30"
                 transform="translate(272.21719,0.125)"
                 id="use94" /><use
                 xlink:href="#ArialMT-2e"
                 transform="translate(327.83242,0.125)"
                 id="use95" /><use
                 xlink:href="#ArialMT-33"
                 transform="translate(355.61563,0.125)"
                 id="use96" /><use
                 xlink:href="#ArialMT-3bc"
                 transform="translate(425.86331,0.125)"
                 id="use97" /><use
                 xlink:href="#ArialMT-6d"
                 transform="translate(483.4805,0.125)"
                 id="use98" /></g></g></g><g
           id="line2d_22"><path
             d="M 49.057363,140.91084 76.767004,100.06336 155.93741,44.49423"
             clip-path="url(#p0d6324ce70)"
             style="fill:none;stroke:#ff7f0e;stroke-linecap:square"
             id="path98" /><g
             clip-path="url(#p0d6324ce70)"
             id="g101"><use
               xlink:href="#mb0503e3b36"
               x="49.057362"
               y="140.91084"
               style="fill:#ff7f0e;stroke:#ff7f0e;stroke-width:0.5;stroke-linejoin:miter"
               id="use99" /><use
               xlink:href="#mb0503e3b36"
               x="76.767006"
               y="100.06335"
               style="fill:#ff7f0e;stroke:#ff7f0e;stroke-width:0.5;stroke-linejoin:miter"
               id="use100" /><use
               xlink:href="#mb0503e3b36"
               x="155.93741"
               y="44.494228"
               style="fill:#ff7f0e;stroke:#ff7f0e;stroke-width:0.5;stroke-linejoin:miter"
               id="use101" /></g></g><g
           id="LineCollection_8"><path
             d="m 53.015883,133.31986 v -8.82848"
             clip-path="url(#p0d6324ce70)"
             style="fill:none;stroke:#2ca02c"
             id="path101" /><path
             d="M 76.767004,105.87088 V 98.607035"
             clip-path="url(#p0d6324ce70)"
             style="fill:none;stroke:#2ca02c"
             id="path102" /><path
             d="M 155.93741,69.746733 V 62.187634"
             clip-path="url(#p0d6324ce70)"
             style="fill:none;stroke:#2ca02c"
             id="path103" /></g><g
           id="line2d_23"><path
             d="M 53.015883,128.90562 76.767004,102.23896 155.93741,65.967183"
             clip-path="url(#p0d6324ce70)"
             style="fill:none;stroke:#2ca02c;stroke-linecap:square"
             id="path104" /><g
             clip-path="url(#p0d6324ce70)"
             id="g106"><use
               xlink:href="#m50e96baaff"
               x="53.015884"
               y="128.90562"
               style="fill:#2ca02c;stroke:#2ca02c;stroke-width:0.5;stroke-linejoin:miter"
               id="use104" /><use
               xlink:href="#m50e96baaff"
               x="76.767006"
               y="102.23895"
               style="fill:#2ca02c;stroke:#2ca02c;stroke-width:0.5;stroke-linejoin:miter"
               id="use105" /><use
               xlink:href="#m50e96baaff"
               x="155.93741"
               y="65.967186"
               style="fill:#2ca02c;stroke:#2ca02c;stroke-width:0.5;stroke-linejoin:miter"
               id="use106" /></g></g><g
           id="LineCollection_9"><path
             d="m 45.098843,125.00836 v -8.79303"
             clip-path="url(#p0d6324ce70)"
             style="fill:none;stroke:#1f77b4"
             id="path106" /><path
             d="M 76.767004,112.31441 V 99.089497"
             clip-path="url(#p0d6324ce70)"
             style="fill:none;stroke:#1f77b4"
             id="path107" /><path
             d="M 155.93741,85.155491 V 63.58101"
             clip-path="url(#p0d6324ce70)"
             style="fill:none;stroke:#1f77b4"
             id="path108" /></g><g
           id="line2d_24"><path
             d="M 45.098843,120.61185 76.767004,105.70195 155.93741,74.368251"
             clip-path="url(#p0d6324ce70)"
             style="fill:none;stroke:#1f77b4;stroke-linecap:square"
             id="path109" /><g
             clip-path="url(#p0d6324ce70)"
             id="g111"><use
               xlink:href="#md6d070040d"
               x="45.098843"
               y="120.61185"
               style="fill:#1f77b4;stroke:#1f77b4;stroke-width:0.5;stroke-linejoin:miter"
               id="use109" /><use
               xlink:href="#md6d070040d"
               x="76.767006"
               y="105.70196"
               style="fill:#1f77b4;stroke:#1f77b4;stroke-width:0.5;stroke-linejoin:miter"
               id="use110" /><use
               xlink:href="#md6d070040d"
               x="155.93741"
               y="74.368248"
               style="fill:#1f77b4;stroke:#1f77b4;stroke-width:0.5;stroke-linejoin:miter"
               id="use111" /></g></g><g
           id="LineCollection_10"><path
             d="M 49.057363,118.25042 V 106.47846"
             clip-path="url(#p0d6324ce70)"
             style="fill:none;stroke:#9467bd"
             id="path111" /><path
             d="M 76.767004,91.498738 V 83.57013"
             clip-path="url(#p0d6324ce70)"
             style="fill:none;stroke:#9467bd"
             id="path112" /></g><g
           id="line2d_25"><path
             d="M 49.057363,112.36444 76.767004,87.534434"
             clip-path="url(#p0d6324ce70)"
             style="fill:none;stroke:#9467bd;stroke-linecap:square"
             id="path113" /><g
             clip-path="url(#p0d6324ce70)"
             id="g114"><use
               xlink:href="#me2419827d9"
               x="49.057362"
               y="112.36444"
               style="fill:#9467bd;stroke:#9467bd;stroke-width:0.5"
               id="use113" /><use
               xlink:href="#me2419827d9"
               x="76.767006"
               y="87.534431"
               style="fill:#9467bd;stroke:#9467bd;stroke-width:0.5"
               id="use114" /></g></g></g><g
         id="axes_2"><g
           id="matplotlib.axis_3"><g
             id="ytick_6"><g
               id="line2d_26"><defs
                 id="defs114"><path
                   id="path37"
                   d="M 0,0 H -2"
                   style="stroke:#000000;stroke-width:0.5" /></defs><g
                 id="g115"><use
                   xlink:href="#mb23b9c3cd7"
                   x="163.85445"
                   y="127.73107"
                   style="stroke:#000000;stroke-width:0.5"
                   id="use115" /></g></g></g><g
             id="ytick_7"><g
               id="line2d_27"><g
                 id="g116"><use
                   xlink:href="#mb23b9c3cd7"
                   x="163.85445"
                   y="79.958382"
                   style="stroke:#000000;stroke-width:0.5"
                   id="use116" /></g></g></g><g
             id="ytick_8"><g
               id="line2d_28"><g
                 id="g117"><use
                   xlink:href="#mb23b9c3cd7"
                   x="163.85445"
                   y="32.185688"
                   style="stroke:#000000;stroke-width:0.5"
                   id="use117" /></g></g></g><g
             id="text_17"><!-- $\longleftarrow\tau\qquad\alpha\longrightarrow$ --><g
               transform="matrix(0,-0.1,-0.1,0,175.01226,110.64098)"
               id="g121"><defs
                 id="defs117"><path
                   id="path47"
                   d="M 9722,1408 H 1549 q -51,0 -109,-48 -58,-48 -58,-93 0,-70 90,-160 326,-313 525,-614 L 1869,371 Q 1075,1286 352,1587 v 64 q 723,307 1517,1223 l 128,-122 q -186,-269 -519,-614 -89,-90 -89,-180 0,-128 166,-128 h 8167 z"
                   transform="scale(0.015625)" /><path
                   id="path54"
                   d="m 997,97 q 0,44 9,69 l 672,2197 h -578 q -234,0 -438,-147 -203,-147 -337,-372 -12,-25 -37,-25 h -75 q -60,0 -60,62 0,13 13,38 209,356 448,598 239,242 539,242 h 1963 q 68,0 115,-47 47,-46 47,-115 0,-94 -67,-164 -67,-70 -164,-70 H 1888 L 1459,153 q -25,-103 -94,-170 -68,-67 -174,-67 -82,0 -138,52 -56,51 -56,129 z"
                   transform="scale(0.015625)" /><path
                   id="path55"
                   d="M 1288,-72 Q 984,-72 748,72 513,216 384,459 256,703 256,1013 q 0,434 242,859 243,425 644,690 402,266 842,266 325,0 572,-170 247,-170 375,-453 128,-283 128,-605 l 7,-428 q 218,303 370,629 152,327 233,677 12,38 50,38 h 75 q 59,0 59,-60 0,-6 -6,-18 -75,-294 -188,-565 -112,-270 -264,-523 -151,-253 -329,-459 0,-794 184,-794 119,0 195,70 77,71 135,174 58,103 73,106 h 78 q 50,0 50,-63 Q 3781,225 3598,76 3416,-72 3238,-72 3006,-72 2853,78 2700,228 2644,469 2344,213 1994,70 1644,-72 1288,-72 Z m 12,169 q 684,0 1313,562 -4,38 -10,92 -6,55 -6,62 v 690 q 0,1160 -625,1160 -375,0 -657,-321 Q 1034,2022 892,1576 750,1131 750,763 750,484 892,290 1034,97 1300,97 Z"
                   transform="scale(0.015625)" /><path
                   id="path56"
                   d="m 9722,1651 v -64 Q 8986,1274 8198,365 l -128,121 q 180,256 525,615 90,89 90,179 0,128 -167,128 H 352 v 422 h 8173 q 51,0 108,48 58,48 58,93 0,71 -89,160 -314,301 -525,621 l 128,122 q 800,-922 1517,-1223 z"
                   transform="scale(0.015625)" /></defs><use
                 xlink:href="#STIXGeneral-Regular-27f5"
                 transform="translate(17.558594,0.09375)"
                 id="use118" /><use
                 xlink:href="#Cmmi10-bf"
                 transform="translate(192.51717,0.09375)"
                 id="use119" /><use
                 xlink:href="#Cmmi10-ae"
                 transform="translate(411.80428,0.09375)"
                 id="use120" /><use
                 xlink:href="#STIXGeneral-Regular-27f6"
                 transform="translate(493.27888,0.09375)"
                 id="use121" /></g></g></g><g
           id="patch_8"><path
             d="M 29.264762,151.38172 V 3.00024"
             style="fill:none;stroke:#000000;stroke-width:0.5;stroke-linecap:square;stroke-linejoin:miter"
             id="path121" /></g><g
           id="patch_9"><path
             d="M 163.85445,151.38172 V 3.00024"
             style="fill:none;stroke:#000000;stroke-width:0.5;stroke-linecap:square;stroke-linejoin:miter"
             id="path122" /></g><g
           id="patch_10"><path
             d="M 29.264762,151.38172 H 163.85445"
             style="fill:none;stroke:#000000;stroke-width:0.5;stroke-linecap:square;stroke-linejoin:miter"
             id="path123" /></g><g
           id="patch_11"><path
             d="M 29.264762,3.00024 H 163.85445"
             style="fill:none;stroke:#000000;stroke-width:0.5;stroke-linecap:square;stroke-linejoin:miter"
             id="path124" /></g></g></g></g></svg>
