<?xml version="1.0" encoding="UTF-8" standalone="no"?>
<svg
   width="243pt"
   height="150.182259pt"
   viewBox="0 0 243 150.182259"
   version="1.1"
   id="svg158"
   sodipodi:docname="savgol.svg"
   inkscape:export-filename="savgol.pdf"
   inkscape:export-xdpi="96"
   inkscape:export-ydpi="96"
   inkscape:version="1.3.2 (091e20e, 2023-11-25, custom)"
   xmlns:inkscape="http://www.inkscape.org/namespaces/inkscape"
   xmlns:sodipodi="http://sodipodi.sourceforge.net/DTD/sodipodi-0.dtd"
   xmlns:xlink="http://www.w3.org/1999/xlink"
   xmlns="http://www.w3.org/2000/svg"
   xmlns:svg="http://www.w3.org/2000/svg"
   xmlns:rdf="http://www.w3.org/1999/02/22-rdf-syntax-ns#"
   xmlns:cc="http://creativecommons.org/ns#"
   xmlns:dc="http://purl.org/dc/elements/1.1/">
  <sodipodi:namedview
     id="namedview158"
     pagecolor="#ffffff"
     bordercolor="#000000"
     borderopacity="0.25"
     inkscape:showpageshadow="2"
     inkscape:pageopacity="0.0"
     inkscape:pagecheckerboard="0"
     inkscape:deskcolor="#d1d1d1"
     inkscape:document-units="in"
     showgrid="false"
     inkscape:zoom="3.3425926"
     inkscape:cx="161.70083"
     inkscape:cy="100.22161"
     inkscape:window-width="1920"
     inkscape:window-height="1046"
     inkscape:window-x="-11"
     inkscape:window-y="-11"
     inkscape:window-maximized="1"
     inkscape:current-layer="svg158" />
  <metadata
     id="metadata1">
    <rdf:RDF>
      <cc:Work>
        <dc:type
           rdf:resource="http://purl.org/dc/dcmitype/StillImage" />
        <dc:date>2024-12-10T21:28:37.511026</dc:date>
        <dc:format>image/svg+xml</dc:format>
        <dc:creator>
          <cc:Agent>
            <dc:title>Matplotlib v3.8.4, https://matplotlib.org/</dc:title>
          </cc:Agent>
        </dc:creator>
      </cc:Work>
    </rdf:RDF>
  </metadata>
  <defs
     id="defs1">
    <style
       type="text/css"
       id="style1">*{stroke-linejoin: round; stroke-linecap: butt}</style>
  </defs>
  <g
     id="figure_1">
    <g
       id="patch_1">
      <path
         d="M 0 150.182259  L 243 150.182259  L 243 0  L 0 0  L 0 150.182259  z "
         style="fill: none"
         id="path1" />
    </g>
    <g
       id="axes_1">
      <g
         id="patch_2">
        <path
           d="M 34.130002 121.663974  L 234.21041 121.663974  L 234.21041 3.00024  L 34.130002 3.00024  L 34.130002 121.663974  z "
           style="fill: none"
           id="path2" />
      </g>
      <g
         id="line2d_1">
        <path
           d="M 84.150104 90.652487  L 84.650305 86.948662  L 85.150506 86.557548  L 85.650707 89.765322  L 86.150908 89.551996  L 86.651109 88.295428  L 87.15131 89.134968  L 87.651512 88.931122  L 88.151713 88.532424  L 88.651914 90.547257  L 89.152115 89.341903  L 89.652316 92.53289  L 90.152517 89.931665  L 90.652718 89.732289  L 91.152919 91.667728  L 91.65312 91.459  L 92.153321 89.150776  L 93.153723 92.711977  L 93.653924 92.297314  L 94.154125 91.182857  L 94.654326 94.32916  L 95.154527 93.89857  L 95.654728 92.389972  L 96.154929 94.15162  L 96.65513 93.738431  L 97.155331 93.535772  L 97.655532 93.986286  L 98.155733 94.829209  L 98.655934 93.589167  L 99.156135 94.422937  L 99.656336 94.026544  L 100.156537 96.471166  L 100.656738 96.058647  L 101.156939 96.855401  L 101.65714 95.655835  L 102.157341 95.262391  L 102.657542 96.24253  L 103.157743 96.617905  L 103.657944 95.845725  L 104.158145 96.982646  L 104.658346 97.536736  L 105.158547 97.139879  L 105.658748 96.94474  L 106.158949 97.485479  L 106.65915 95.641278  L 107.159351 96.908673  L 107.659552 96.720528  L 108.159753 97.059788  L 108.659954 97.059788  L 109.160155 96.690781  L 110.160557 96.329422  L 110.660758 96.841545  L 111.160959 94.422937  L 111.66116 96.485087  L 112.161361 96.986978  L 112.661562 96.810258  L 113.161763 95.121579  L 113.661964 94.955898  L 114.162166 95.457963  L 114.662367 94.629432  L 115.162568 92.984556  L 115.662769 94.309337  L 116.16297 92.681984  L 116.663171 91.874218  L 117.163372 91.729377  L 117.663573 91.729377  L 118.163774 91.585925  L 118.663975 91.585925  L 119.164176 89.341903  L 119.664377 88.553675  L 120.164578 88.952436  L 120.664779 88.176253  L 121.16498 86.096352  L 121.665181 86.634794  L 122.165382 84.349491  L 123.165784 82.941374  L 123.665985 81.441991  L 124.166186 81.351566  L 124.666387 80.524699  L 125.166588 78.408398  L 125.666789 77.680986  L 126.16699 77.609052  L 126.667191 76.301738  L 127.167392 76.236059  L 128.167794 72.024518  L 129.168196 71.978859  L 129.668397 69.269732  L 130.168598 69.269732  L 130.668799 67.225792  L 131.669201 65.874252  L 132.169402 64.547064  L 132.669603 63.860609  L 133.670005 61.136234  L 134.170206 61.133135  L 134.670407 59.067404  L 135.170608 59.067404  L 135.670809 58.402645  L 136.17101 57.057351  L 136.671211 55.061931  L 137.171412 55.061931  L 138.171814 52.316426  L 138.672015 52.358851  L 139.172216 52.273618  L 139.672417 50.909902  L 140.172618 48.835084  L 140.672819 48.776197  L 141.173021 49.378057  L 141.673222 47.204356  L 142.173423 45.812425  L 142.673624 45.738489  L 143.173825 43.682835  L 144.174227 42.197271  L 144.674428 43.342238  L 145.174629 41.258497  L 145.67483 40.398996  L 146.175031 38.862666  L 147.175433 37.194441  L 147.675634 35.493981  L 148.175835 35.366186  L 148.676036 37.392775  L 149.176237 34.431943  L 149.676438 32.951528  L 150.176639 32.80967  L 150.67684 32.375606  L 151.177041 33.058858  L 151.677242 32.228016  L 152.177443 32.07894  L 152.677644 30.927286  L 153.177845 31.151958  L 153.678046 31.703638  L 154.178247 31.545133  L 154.678448 31.545133  L 155.67885 31.223064  L 156.179051 30.557921  L 157.179453 31.87782  L 157.679654 31.545133  L 158.179855 31.376002  L 158.680056 32.74243  L 159.180257 31.971534  L 159.680458 30.857076  L 160.180659 31.283394  L 160.68086 32.241099  L 161.181061 32.070124  L 161.681262 31.283394  L 162.181463 30.927286  L 162.681664 29.76428  L 163.181865 31.545133  L 163.682066 32.639392  L 164.182267 29.999588  L 164.682468 32.462542  L 165.182669 29.415734  L 165.68287 30.050096  L 166.183071 34.468838  L 166.683272 31.545133  L 167.183473 32.399272  L 167.683675 32.025681  L 168.183876 32.709537  L 168.684077 34.29736  L 169.184278 35.019256  L 169.684479 33.034043  L 170.18468 32.65151  L 170.684881 33.373794  L 171.185082 33.181592  L 171.685283 35.046265  L 172.185484 33.535498  L 172.685685 34.488487  L 173.185886 34.29736  L 173.686087 36.235548  L 174.186288 35.075375  L 174.686489 34.691945  L 175.18669 35.301823  L 175.686891 35.301823  L 177.187494 34.70814  L 177.687695 36.590883  L 178.187896 35.140955  L 178.688097 34.934942  L 179.688499 36.887692  L 180.1887 35.802484  L 180.688901 38.90268  L 181.189102 36.286922  L 181.689303 38.718609  L 182.189504 38.341449  L 182.689705 40.285469  L 183.189906 40.285469  L 183.690107 38.728912  L 184.190308 35.520572  L 184.690509 37.206218  L 185.19071 37.475189  L 185.690911 36.799385  L 186.691313 38.531556  L 187.191514 38.630654  L 187.691715 37.833412  L 189.192318 37.200809  L 190.19272 40.823894  L 190.692921 40.634316  L 191.193122 39.801814  L 191.693323 39.497421  L 192.193524 40.795674  L 192.693725 40.697888  L 193.193926 42.013885  L 193.694127 43.841901  L 194.194328 41.442565  L 194.69453 44.353575  L 195.194731 42.806661  L 195.694932 42.621169  L 196.695334 43.745304  L 197.195535 42.755086  L 197.695736 45.559671  L 198.696138 42.262462  L 199.196339 45.306269  L 199.69654 45.885685  L 200.196741 46.642442  L 200.696942 45.63006  L 202.197545 47.796022  L 202.697746 47.483518  L 203.698148 47.403204  L 204.198349 48.136242  L 205.198751 47.900322  L 205.698952 46.901763  L 206.199153 47.656123  L 206.699354 49.353661  L 208.199957 48.975905  L 208.700158 50.743595  L 209.200359 48.738058  L 210.200761 50.466694  L 210.700962 48.491236  L 211.201163 50.322986  L 211.701364 50.175594  L 212.701766 57.246444  L 213.201967 54.480359  L 213.702168 52.532975  L 214.202369 56.17842  L 214.70257 56.143163  L 215.202771 54.203405  L 215.702972 56.071309  L 217.203575 55.922002  L 217.703776 54.916651  L 218.203977 56.790645  L 218.704178 57.728483  L 219.204379 56.68836  L 220.204781 58.719853  L 221.205184 58.65505  L 221.705385 60.734524  L 222.205586 58.587478  L 222.705787 57.432023  L 223.205988 57.463588  L 223.706189 55.141433  L 224.20639 58.443293  L 224.706591 57.30105  L 225.206792 58.418002  L 225.706993 58.418002  L 226.207194 57.197571  L 226.707395 58.339804  L 227.207596 58.312933  L 227.707797 60.632396  L 228.207998 58.257926  L 228.708199 58.22977  L 229.2084 56.936648  L 230.208802 59.35829  L 230.709003 58.082039  L 231.209204 59.317607  L 231.709405 58.051022  L 232.209606 58.019485  L 233.210008 60.520297  L 233.710209 57.887878  L 233.710209 57.887878  "
           clip-path="url(#pc1678563f0)"
           style="fill: none; stroke: #2ca02c; stroke-width: 0.5; stroke-linecap: square"
           id="path3" />
      </g>
      <g
         id="line2d_2">
        <path
           d="M 46.635028 65.22126  L 47.885531 68.547298  L 54.138043 67.874531  L 55.388546 70.812057  L 56.639048 67.64165  L 57.889551 70.469488  L 59.140053 70.307808  L 60.390556 72.82854  L 62.891561 72.442262  L 64.142064 72.082173  L 65.392566 71.911131  L 66.643069 74.126338  L 67.893571 73.929431  L 69.144074 71.280412  L 71.645079 75.375377  L 72.895581 74.982457  L 74.146084 74.794416  L 75.396587 78.638797  L 76.647089 78.184225  L 77.897592 77.96603  L 79.148094 81.478396  L 80.398597 78.95614  L 81.649099 82.504071  L 82.899602 81.760918  L 84.150104 82.941374  L 85.400607 80.849316  L 86.651109 85.366463  L 87.901612 84.854576  L 89.152115 89.050662  L 90.402617 86.533508  L 91.65312 88.796907  L 92.903622 88.273076  L 94.154125 94.820269  L 95.404627 93.614767  L 96.65513 93.969541  L 97.905632 94.58424  L 99.156135 97.139879  L 100.406637 98.739751  L 101.65714 100.998394  L 102.907643 101.40936  L 104.158145 105.712027  L 105.408648 108.816145  L 106.65915 110.51288  L 107.909653 110.053578  L 109.160155 113.947907  L 110.410658 113.412828  L 111.66116 115.91513  L 112.911663 113.053398  L 114.162166 114.392113  L 116.663171 111.265087  L 117.913673 108.263464  L 119.164176 104.589698  L 120.414678 99.255839  L 121.665181 95.817731  L 122.915683 90.201974  L 124.166186 85.822431  L 125.416688 82.906347  L 126.667191 78.84441  L 127.917694 75.95269  L 129.168196 71.212674  L 130.418699 71.863304  L 131.669201 66.782664  L 132.919704 63.976959  L 134.170206 61.819631  L 135.420709 60.384821  L 137.921714 53.251377  L 139.172216 50.341149  L 140.422719 47.123273  L 141.673222 44.626706  L 142.923724 40.520989  L 144.174227 35.69443  L 145.424729 33.288691  L 146.675232 28.895111  L 147.925734 23.56065  L 149.176237 22.256367  L 150.426739 19.846138  L 151.677242 18.305826  L 152.927744 17.766956  L 154.178247 14.425049  L 155.42875 15.471051  L 156.679252 15.949179  L 157.929755 13.798013  L 159.180257 14.915479  L 160.43076 15.749743  L 161.681262 18.893104  L 162.931765 21.221645  L 164.182267 20.973086  L 165.43277 25.689572  L 166.683272 28.1813  L 167.933775 27.891314  L 169.184278 28.1813  L 170.43478 31.267385  L 171.685283 32.249191  L 172.935785 32.426915  L 174.186288 36.214334  L 175.43679 35.152975  L 177.937795 37.004469  L 179.188298 41.177928  L 180.4388 37.46084  L 181.689303 38.531556  L 182.939806 41.636632  L 185.440811 40.608199  L 186.691313 41.902198  L 187.941816 45.455038  L 189.192318 45.230865  L 190.442821 44.763576  L 191.693323 46.35091  L 192.943826 48.263886  L 194.194328 48.058496  L 195.444831 47.62846  L 196.695334 49.709832  L 197.945836 49.512925  L 199.196339 49.099254  L 201.697344 53.782154  L 202.947846 51.007311  L 204.198349 53.487201  L 205.448851 53.169775  L 206.699354 55.997612  L 211.701364 55.512444  L 212.951867 58.564309  L 214.202369 58.492763  L 215.452872 55.091965  L 216.703374 58.339804  L 217.953877 54.77905  L 219.204379 58.172101  L 221.705385 58.082039  L 222.955887 57.575543  L 225.456892 58.88036  L 227.957897 58.776968  L 229.2084 60.267093  L 231.709405 60.209286  L 232.959907 60.999184  L 234.21041 60.985623  L 234.21041 60.985623  "
           clip-path="url(#pc1678563f0)"
           style="fill: none; stroke: #ff7f0e; stroke-width: 0.5; stroke-linecap: square"
           id="path4" />
      </g>
      <g
         id="line2d_3">
        <path
           d="M 84.150104 81.707988  L 85.400607 80.873511  L 86.651109 82.555589  L 87.901612 79.864034  L 89.152115 85.107707  L 90.402617 85.107707  L 91.65312 85.672266  L 92.903622 88.376209  L 94.154125 89.032664  L 95.404627 89.943482  L 96.65513 91.935624  L 97.905632 94.091939  L 99.156135 96.120787  L 100.406637 97.68989  L 101.65714 101.90915  L 102.907643 102.007018  L 104.158145 105.435434  L 105.408648 107.916604  L 106.65915 108.859688  L 107.909653 111.697157  L 110.410658 116.270168  L 111.66116 113.507799  L 112.911663 115.84483  L 114.162166 116.057332  L 115.412668 114.679866  L 116.663171 111.190352  L 117.913673 107.690083  L 119.164176 101.771315  L 120.414678 94.502328  L 121.665181 89.49438  L 122.915683 85.847011  L 124.166186 81.478396  L 125.416688 75.864502  L 126.667191 73.144257  L 127.917694 70.001928  L 129.168196 67.698175  L 130.418699 66.20724  L 131.669201 65.484825  L 132.919704 64.062187  L 134.170206 63.325825  L 135.420709 60.342827  L 136.671211 57.432023  L 137.921714 59.565947  L 140.422719 52.101891  L 141.673222 49.709832  L 142.923724 46.529481  L 144.174227 39.744476  L 145.424729 35.035223  L 147.925734 23.54153  L 149.176237 17.537529  L 150.426739 14.017792  L 151.677242 11.977469  L 152.927744 8.394046  L 154.178247 12.053333  L 155.42875 8.519458  L 156.679252 10.993831  L 157.929755 10.795196  L 159.180257 11.556951  L 160.43076 14.779574  L 161.681262 13.23093  L 162.931765 19.306506  L 164.182267 18.953085  L 165.43277 22.934955  L 166.683272 24.336919  L 167.933775 29.170663  L 169.184278 29.871668  L 170.43478 30.608808  L 171.685283 32.52173  L 172.935785 33.38502  L 174.186288 35.870061  L 175.43679 38.531556  L 176.687293 39.394077  L 177.937795 38.826341  L 179.188298 41.902198  L 180.4388 41.363889  L 181.689303 44.763576  L 182.939806 42.217438  L 184.190308 43.745304  "
           clip-path="url(#pc1678563f0)"
           style="fill: none; stroke: #e377c2; stroke-width: 0.5; stroke-linecap: square"
           id="path5" />
      </g>
      <g
         id="matplotlib.axis_1">
        <g
           id="xtick_1">
          <g
             id="line2d_4">
            <defs
               id="defs5">
              <path
                 id="m7dd0ff5cce"
                 d="M 0 0  L 0 -2  "
                 style="stroke: #000000; stroke-width: 0.5" />
            </defs>
            <g
               id="g5">
              <use
                 xlink:href="#m7dd0ff5cce"
                 x="34.130002"
                 y="121.663974"
                 style="stroke: #000000; stroke-width: 0.5"
                 id="use5" />
            </g>
          </g>
          <g
             id="line2d_5">
            <defs
               id="defs6">
              <path
                 id="m089825763b"
                 d="M 0 0  L 0 2  "
                 style="stroke: #000000; stroke-width: 0.5" />
            </defs>
            <g
               id="g6">
              <use
                 xlink:href="#m089825763b"
                 x="34.130002"
                 y="3.00024"
                 style="stroke: #000000; stroke-width: 0.5"
                 id="use6" />
            </g>
          </g>
          <g
             id="text_1">
            <!-- −0.4 -->
            <g
               transform="translate(25.908032 131.126432) scale(0.0833 -0.0833)"
               id="g10">
              <defs
                 id="defs7">
                <path
                   id="ArialMT-2212"
                   d="M 3381 1997  L 356 1997  L 356 2522  L 3381 2522  L 3381 1997  z "
                   transform="scale(0.015625)" />
                <path
                   id="ArialMT-30"
                   d="M 266 2259  Q 266 3072 433 3567  Q 600 4063 929 4331  Q 1259 4600 1759 4600  Q 2128 4600 2406 4451  Q 2684 4303 2865 4023  Q 3047 3744 3150 3342  Q 3253 2941 3253 2259  Q 3253 1453 3087 958  Q 2922 463 2592 192  Q 2263 -78 1759 -78  Q 1097 -78 719 397  Q 266 969 266 2259  z M 844 2259  Q 844 1131 1108 757  Q 1372 384 1759 384  Q 2147 384 2411 759  Q 2675 1134 2675 2259  Q 2675 3391 2411 3762  Q 2147 4134 1753 4134  Q 1366 4134 1134 3806  Q 844 3388 844 2259  z "
                   transform="scale(0.015625)" />
                <path
                   id="ArialMT-2e"
                   d="M 581 0  L 581 641  L 1222 641  L 1222 0  L 581 0  z "
                   transform="scale(0.015625)" />
                <path
                   id="ArialMT-34"
                   d="M 2069 0  L 2069 1097  L 81 1097  L 81 1613  L 2172 4581  L 2631 4581  L 2631 1613  L 3250 1613  L 3250 1097  L 2631 1097  L 2631 0  L 2069 0  z M 2069 1613  L 2069 3678  L 634 1613  L 2069 1613  z "
                   transform="scale(0.015625)" />
              </defs>
              <use
                 xlink:href="#ArialMT-2212"
                 id="use7" />
              <use
                 xlink:href="#ArialMT-30"
                 x="58.398438"
                 id="use8" />
              <use
                 xlink:href="#ArialMT-2e"
                 x="114.013672"
                 id="use9" />
              <use
                 xlink:href="#ArialMT-34"
                 x="141.796875"
                 id="use10" />
            </g>
          </g>
        </g>
        <g
           id="xtick_2">
          <g
             id="line2d_6">
            <g
               id="g11">
              <use
                 xlink:href="#m7dd0ff5cce"
                 x="59.140053"
                 y="121.663974"
                 style="stroke: #000000; stroke-width: 0.5"
                 id="use11" />
            </g>
          </g>
          <g
             id="line2d_7">
            <g
               id="g12">
              <use
                 xlink:href="#m089825763b"
                 x="59.140053"
                 y="3.00024"
                 style="stroke: #000000; stroke-width: 0.5"
                 id="use12" />
            </g>
          </g>
          <g
             id="text_2">
            <!-- −0.3 -->
            <g
               transform="translate(50.918083 131.126432) scale(0.0833 -0.0833)"
               id="g16">
              <defs
                 id="defs12">
                <path
                   id="ArialMT-33"
                   d="M 269 1209  L 831 1284  Q 928 806 1161 595  Q 1394 384 1728 384  Q 2125 384 2398 659  Q 2672 934 2672 1341  Q 2672 1728 2419 1979  Q 2166 2231 1775 2231  Q 1616 2231 1378 2169  L 1441 2663  Q 1497 2656 1531 2656  Q 1891 2656 2178 2843  Q 2466 3031 2466 3422  Q 2466 3731 2256 3934  Q 2047 4138 1716 4138  Q 1388 4138 1169 3931  Q 950 3725 888 3313  L 325 3413  Q 428 3978 793 4289  Q 1159 4600 1703 4600  Q 2078 4600 2393 4439  Q 2709 4278 2876 4000  Q 3044 3722 3044 3409  Q 3044 3113 2884 2869  Q 2725 2625 2413 2481  Q 2819 2388 3044 2092  Q 3269 1797 3269 1353  Q 3269 753 2831 336  Q 2394 -81 1725 -81  Q 1122 -81 723 278  Q 325 638 269 1209  z "
                   transform="scale(0.015625)" />
              </defs>
              <use
                 xlink:href="#ArialMT-2212"
                 id="use13" />
              <use
                 xlink:href="#ArialMT-30"
                 x="58.398438"
                 id="use14" />
              <use
                 xlink:href="#ArialMT-2e"
                 x="114.013672"
                 id="use15" />
              <use
                 xlink:href="#ArialMT-33"
                 x="141.796875"
                 id="use16" />
            </g>
          </g>
        </g>
        <g
           id="xtick_3">
          <g
             id="line2d_8">
            <g
               id="g17">
              <use
                 xlink:href="#m7dd0ff5cce"
                 x="84.150104"
                 y="121.663974"
                 style="stroke: #000000; stroke-width: 0.5"
                 id="use17" />
            </g>
          </g>
          <g
             id="line2d_9">
            <g
               id="g18">
              <use
                 xlink:href="#m089825763b"
                 x="84.150104"
                 y="3.00024"
                 style="stroke: #000000; stroke-width: 0.5"
                 id="use18" />
            </g>
          </g>
          <g
             id="text_3">
            <!-- −0.2 -->
            <g
               transform="translate(75.928134 131.126432) scale(0.0833 -0.0833)"
               id="g22">
              <defs
                 id="defs18">
                <path
                   id="ArialMT-32"
                   d="M 3222 541  L 3222 0  L 194 0  Q 188 203 259 391  Q 375 700 629 1000  Q 884 1300 1366 1694  Q 2113 2306 2375 2664  Q 2638 3022 2638 3341  Q 2638 3675 2398 3904  Q 2159 4134 1775 4134  Q 1369 4134 1125 3890  Q 881 3647 878 3216  L 300 3275  Q 359 3922 746 4261  Q 1134 4600 1788 4600  Q 2447 4600 2831 4234  Q 3216 3869 3216 3328  Q 3216 3053 3103 2787  Q 2991 2522 2730 2228  Q 2469 1934 1863 1422  Q 1356 997 1212 845  Q 1069 694 975 541  L 3222 541  z "
                   transform="scale(0.015625)" />
              </defs>
              <use
                 xlink:href="#ArialMT-2212"
                 id="use19" />
              <use
                 xlink:href="#ArialMT-30"
                 x="58.398438"
                 id="use20" />
              <use
                 xlink:href="#ArialMT-2e"
                 x="114.013672"
                 id="use21" />
              <use
                 xlink:href="#ArialMT-32"
                 x="141.796875"
                 id="use22" />
            </g>
          </g>
        </g>
        <g
           id="xtick_4">
          <g
             id="line2d_10">
            <g
               id="g23">
              <use
                 xlink:href="#m7dd0ff5cce"
                 x="109.160155"
                 y="121.663974"
                 style="stroke: #000000; stroke-width: 0.5"
                 id="use23" />
            </g>
          </g>
          <g
             id="line2d_11">
            <g
               id="g24">
              <use
                 xlink:href="#m089825763b"
                 x="109.160155"
                 y="3.00024"
                 style="stroke: #000000; stroke-width: 0.5"
                 id="use24" />
            </g>
          </g>
          <g
             id="text_4">
            <!-- −0.1 -->
            <g
               transform="translate(100.938185 131.126432) scale(0.0833 -0.0833)"
               id="g28">
              <defs
                 id="defs24">
                <path
                   id="ArialMT-31"
                   d="M 2384 0  L 1822 0  L 1822 3584  Q 1619 3391 1289 3197  Q 959 3003 697 2906  L 697 3450  Q 1169 3672 1522 3987  Q 1875 4303 2022 4600  L 2384 4600  L 2384 0  z "
                   transform="scale(0.015625)" />
              </defs>
              <use
                 xlink:href="#ArialMT-2212"
                 id="use25" />
              <use
                 xlink:href="#ArialMT-30"
                 x="58.398438"
                 id="use26" />
              <use
                 xlink:href="#ArialMT-2e"
                 x="114.013672"
                 id="use27" />
              <use
                 xlink:href="#ArialMT-31"
                 x="141.796875"
                 id="use28" />
            </g>
          </g>
        </g>
        <g
           id="xtick_5">
          <g
             id="line2d_12">
            <g
               id="g29">
              <use
                 xlink:href="#m7dd0ff5cce"
                 x="134.170206"
                 y="121.663974"
                 style="stroke: #000000; stroke-width: 0.5"
                 id="use29" />
            </g>
          </g>
          <g
             id="line2d_13">
            <g
               id="g30">
              <use
                 xlink:href="#m089825763b"
                 x="134.170206"
                 y="3.00024"
                 style="stroke: #000000; stroke-width: 0.5"
                 id="use30" />
            </g>
          </g>
          <g
             id="text_5">
            <!-- 0.0 -->
            <g
               transform="translate(128.380856 131.126432) scale(0.0833 -0.0833)"
               id="g33">
              <use
                 xlink:href="#ArialMT-30"
                 id="use31" />
              <use
                 xlink:href="#ArialMT-2e"
                 x="55.615234"
                 id="use32" />
              <use
                 xlink:href="#ArialMT-30"
                 x="83.398438"
                 id="use33" />
            </g>
          </g>
        </g>
        <g
           id="xtick_6">
          <g
             id="line2d_14">
            <g
               id="g34">
              <use
                 xlink:href="#m7dd0ff5cce"
                 x="159.180257"
                 y="121.663974"
                 style="stroke: #000000; stroke-width: 0.5"
                 id="use34" />
            </g>
          </g>
          <g
             id="line2d_15">
            <g
               id="g35">
              <use
                 xlink:href="#m089825763b"
                 x="159.180257"
                 y="3.00024"
                 style="stroke: #000000; stroke-width: 0.5"
                 id="use35" />
            </g>
          </g>
          <g
             id="text_6">
            <!-- 0.1 -->
            <g
               transform="translate(153.390907 131.126432) scale(0.0833 -0.0833)"
               id="g38">
              <use
                 xlink:href="#ArialMT-30"
                 id="use36" />
              <use
                 xlink:href="#ArialMT-2e"
                 x="55.615234"
                 id="use37" />
              <use
                 xlink:href="#ArialMT-31"
                 x="83.398438"
                 id="use38" />
            </g>
          </g>
        </g>
        <g
           id="xtick_7">
          <g
             id="line2d_16">
            <g
               id="g39">
              <use
                 xlink:href="#m7dd0ff5cce"
                 x="184.190308"
                 y="121.663974"
                 style="stroke: #000000; stroke-width: 0.5"
                 id="use39" />
            </g>
          </g>
          <g
             id="line2d_17">
            <g
               id="g40">
              <use
                 xlink:href="#m089825763b"
                 x="184.190308"
                 y="3.00024"
                 style="stroke: #000000; stroke-width: 0.5"
                 id="use40" />
            </g>
          </g>
          <g
             id="text_7">
            <!-- 0.2 -->
            <g
               transform="translate(178.400958 131.126432) scale(0.0833 -0.0833)"
               id="g43">
              <use
                 xlink:href="#ArialMT-30"
                 id="use41" />
              <use
                 xlink:href="#ArialMT-2e"
                 x="55.615234"
                 id="use42" />
              <use
                 xlink:href="#ArialMT-32"
                 x="83.398438"
                 id="use43" />
            </g>
          </g>
        </g>
        <g
           id="xtick_8">
          <g
             id="line2d_18">
            <g
               id="g44">
              <use
                 xlink:href="#m7dd0ff5cce"
                 x="209.200359"
                 y="121.663974"
                 style="stroke: #000000; stroke-width: 0.5"
                 id="use44" />
            </g>
          </g>
          <g
             id="line2d_19">
            <g
               id="g45">
              <use
                 xlink:href="#m089825763b"
                 x="209.200359"
                 y="3.00024"
                 style="stroke: #000000; stroke-width: 0.5"
                 id="use45" />
            </g>
          </g>
          <g
             id="text_8">
            <!-- 0.3 -->
            <g
               transform="translate(203.411009 131.126432) scale(0.0833 -0.0833)"
               id="g48">
              <use
                 xlink:href="#ArialMT-30"
                 id="use46" />
              <use
                 xlink:href="#ArialMT-2e"
                 x="55.615234"
                 id="use47" />
              <use
                 xlink:href="#ArialMT-33"
                 x="83.398438"
                 id="use48" />
            </g>
          </g>
        </g>
        <g
           id="xtick_9">
          <g
             id="line2d_20">
            <g
               id="g49">
              <use
                 xlink:href="#m7dd0ff5cce"
                 x="234.21041"
                 y="121.663974"
                 style="stroke: #000000; stroke-width: 0.5"
                 id="use49" />
            </g>
          </g>
          <g
             id="line2d_21">
            <g
               id="g50">
              <use
                 xlink:href="#m089825763b"
                 x="234.21041"
                 y="3.00024"
                 style="stroke: #000000; stroke-width: 0.5"
                 id="use50" />
            </g>
          </g>
          <g
             id="text_9">
            <!-- 0.4 -->
            <g
               transform="translate(228.42106 131.126432) scale(0.0833 -0.0833)"
               id="g53">
              <use
                 xlink:href="#ArialMT-30"
                 id="use51" />
              <use
                 xlink:href="#ArialMT-2e"
                 x="55.615234"
                 id="use52" />
              <use
                 xlink:href="#ArialMT-34"
                 x="83.398438"
                 id="use53" />
            </g>
          </g>
        </g>
        <g
           id="text_10">
          <!-- $B_\parallel$ (T) -->
          <g
             transform="translate(119.220206 144.082019) scale(0.1 -0.1)"
             id="g59">
            <defs
               id="defs53">
              <path
                 id="Cmmi10-42"
                 d="M 319 0  Q 256 0 256 84  Q 259 100 268 137  Q 278 175 293 200  Q 309 225 341 225  Q 522 225 656 234  Q 791 244 884 269  Q 959 297 1006 441  L 1881 3956  Q 1894 4019 1894 4044  Q 1894 4113 1819 4122  Q 1697 4147 1356 4147  Q 1294 4147 1294 4231  Q 1297 4247 1306 4286  Q 1316 4325 1333 4348  Q 1350 4372 1375 4372  L 3669 4372  Q 3878 4372 4083 4320  Q 4288 4269 4461 4156  Q 4634 4044 4736 3876  Q 4838 3709 4838 3488  Q 4838 3247 4714 3040  Q 4591 2834 4395 2681  Q 4200 2528 3973 2429  Q 3747 2331 3500 2284  Q 3675 2284 3854 2215  Q 4034 2147 4175 2028  Q 4316 1909 4402 1743  Q 4488 1578 4488 1388  Q 4488 1003 4219 684  Q 3950 366 3542 183  Q 3134 0 2753 0  L 319 0  z M 1497 275  Q 1497 225 1716 225  L 2631 225  Q 2944 225 3231 398  Q 3519 572 3692 859  Q 3866 1147 3866 1459  Q 3866 1650 3786 1820  Q 3706 1991 3556 2089  Q 3406 2188 3213 2188  L 1966 2188  L 1522 416  Q 1497 328 1497 275  z M 2009 2356  L 2981 2356  Q 3288 2356 3577 2512  Q 3866 2669 4048 2937  Q 4231 3206 4231 3506  Q 4231 3784 4057 3965  Q 3884 4147 3609 4147  L 2731 4147  Q 2559 4147 2500 4115  Q 2441 4084 2400 3928  L 2009 2356  z "
                 transform="scale(0.015625)" />
              <path
                 id="STIXGeneral-Regular-2225"
                 d="M 2522 -1210  L 2099 -1210  L 2099 4416  L 2522 4416  L 2522 -1210  z M 1248 -1210  L 826 -1210  L 826 4416  L 1248 4416  L 1248 -1210  z "
                 transform="scale(0.015625)" />
              <path
                 id="ArialMT-20"
                 transform="scale(0.015625)" />
              <path
                 id="ArialMT-28"
                 d="M 1497 -1347  Q 1031 -759 709 28  Q 388 816 388 1659  Q 388 2403 628 3084  Q 909 3875 1497 4659  L 1900 4659  Q 1522 4009 1400 3731  Q 1209 3300 1100 2831  Q 966 2247 966 1656  Q 966 153 1900 -1347  L 1497 -1347  z "
                 transform="scale(0.015625)" />
              <path
                 id="ArialMT-54"
                 d="M 1659 0  L 1659 4041  L 150 4041  L 150 4581  L 3781 4581  L 3781 4041  L 2266 4041  L 2266 0  L 1659 0  z "
                 transform="scale(0.015625)" />
              <path
                 id="ArialMT-29"
                 d="M 791 -1347  L 388 -1347  Q 1322 153 1322 1656  Q 1322 2244 1188 2822  Q 1081 3291 891 3722  Q 769 4003 388 4659  L 791 4659  Q 1378 3875 1659 3084  Q 1900 2403 1900 1659  Q 1900 816 1576 28  Q 1253 -759 791 -1347  z "
                 transform="scale(0.015625)" />
            </defs>
            <use
               xlink:href="#Cmmi10-42"
               transform="translate(0 0.203125)"
               id="use54" />
            <use
               xlink:href="#STIXGeneral-Regular-2225"
               transform="translate(88.072266 -16.803125) scale(0.7)"
               id="use55" />
            <use
               xlink:href="#ArialMT-20"
               transform="translate(143.350616 0.203125)"
               id="use56" />
            <use
               xlink:href="#ArialMT-28"
               transform="translate(171.13382 0.203125)"
               id="use57" />
            <use
               xlink:href="#ArialMT-54"
               transform="translate(204.434601 0.203125)"
               id="use58" />
            <use
               xlink:href="#ArialMT-29"
               transform="translate(265.518585 0.203125)"
               id="use59" />
          </g>
        </g>
      </g>
      <g
         id="matplotlib.axis_2">
        <g
           id="ytick_1">
          <g
             id="line2d_22">
            <defs
               id="defs59">
              <path
                 id="m8dc667f66c"
                 d="M 0 0  L 2 0  "
                 style="stroke: #000000; stroke-width: 0.5" />
            </defs>
            <g
               id="g60">
              <use
                 xlink:href="#m8dc667f66c"
                 x="34.130002"
                 y="92.09413"
                 style="stroke: #000000; stroke-width: 0.5"
                 id="use60" />
            </g>
          </g>
          <g
             id="line2d_23">
            <defs
               id="defs60">
              <path
                 id="m0fba3b146e"
                 d="M 0 0  L -2 0  "
                 style="stroke: #000000; stroke-width: 0.5" />
            </defs>
            <g
               id="g61">
              <use
                 xlink:href="#m0fba3b146e"
                 x="234.21041"
                 y="92.09413"
                 style="stroke: #000000; stroke-width: 0.5"
                 id="use61" />
            </g>
          </g>
          <g
             id="text_11">
            <!-- −10 -->
            <g
               transform="translate(16.50024 95.075359) scale(0.0833 -0.0833)"
               id="g64">
              <use
                 xlink:href="#ArialMT-2212"
                 id="use62" />
              <use
                 xlink:href="#ArialMT-31"
                 x="58.398438"
                 id="use63" />
              <use
                 xlink:href="#ArialMT-30"
                 x="114.013672"
                 id="use64" />
            </g>
          </g>
        </g>
        <g
           id="ytick_2">
          <g
             id="line2d_24">
            <g
               id="g65">
              <use
                 xlink:href="#m8dc667f66c"
                 x="34.130002"
                 y="61.819631"
                 style="stroke: #000000; stroke-width: 0.5"
                 id="use65" />
            </g>
          </g>
          <g
             id="line2d_25">
            <g
               id="g66">
              <use
                 xlink:href="#m0fba3b146e"
                 x="234.21041"
                 y="61.819631"
                 style="stroke: #000000; stroke-width: 0.5"
                 id="use66" />
            </g>
          </g>
          <g
             id="text_12">
            <!-- 0 -->
            <g
               transform="translate(25.997742 64.80086) scale(0.0833 -0.0833)"
               id="g67">
              <use
                 xlink:href="#ArialMT-30"
                 id="use67" />
            </g>
          </g>
        </g>
        <g
           id="ytick_3">
          <g
             id="line2d_26">
            <g
               id="g68">
              <use
                 xlink:href="#m8dc667f66c"
                 x="34.130002"
                 y="31.545133"
                 style="stroke: #000000; stroke-width: 0.5"
                 id="use68" />
            </g>
          </g>
          <g
             id="line2d_27">
            <g
               id="g69">
              <use
                 xlink:href="#m0fba3b146e"
                 x="234.21041"
                 y="31.545133"
                 style="stroke: #000000; stroke-width: 0.5"
                 id="use69" />
            </g>
          </g>
          <g
             id="text_13">
            <!-- 10 -->
            <g
               transform="translate(21.365481 34.526362) scale(0.0833 -0.0833)"
               id="g71">
              <use
                 xlink:href="#ArialMT-31"
                 id="use70" />
              <use
                 xlink:href="#ArialMT-30"
                 x="55.615234"
                 id="use71" />
            </g>
          </g>
        </g>
        <g
           id="text_14">
          <!-- $\eta$ (%) -->
          <g
             transform="translate(10.30024 73.982107) rotate(-90) scale(0.1 -0.1)"
             id="g76">
            <defs
               id="defs71">
              <path
                 id="Cmmi10-b4"
                 d="M 684 -72  Q 606 -72 550 -22  Q 494 28 494 109  Q 494 147 500 166  L 978 2075  Q 1025 2253 1025 2388  Q 1025 2663 838 2663  Q 638 2663 541 2423  Q 444 2184 353 1819  Q 353 1800 334 1789  Q 316 1778 300 1778  L 225 1778  Q 203 1778 187 1801  Q 172 1825 172 1844  Q 241 2122 305 2315  Q 369 2509 505 2668  Q 641 2828 844 2828  Q 1081 2828 1267 2678  Q 1453 2528 1453 2291  Q 1641 2541 1894 2684  Q 2147 2828 2444 2828  Q 2778 2828 2979 2648  Q 3181 2469 3181 2138  Q 3181 1947 3138 1784  L 2394 -1178  Q 2375 -1269 2300 -1325  Q 2225 -1381 2131 -1381  Q 2053 -1381 1997 -1332  Q 1941 -1284 1941 -1203  Q 1941 -1166 1947 -1153  L 2681 1797  Q 2747 2059 2747 2234  Q 2747 2413 2672 2538  Q 2597 2663 2431 2663  Q 1803 2663 1388 1888  L 953 141  Q 931 53 854 -9  Q 778 -72 684 -72  z "
                 transform="scale(0.015625)" />
              <path
                 id="ArialMT-25"
                 d="M 372 3481  Q 372 3972 619 4315  Q 866 4659 1334 4659  Q 1766 4659 2048 4351  Q 2331 4044 2331 3447  Q 2331 2866 2045 2552  Q 1759 2238 1341 2238  Q 925 2238 648 2547  Q 372 2856 372 3481  z M 1350 4272  Q 1141 4272 1002 4090  Q 863 3909 863 3425  Q 863 2984 1003 2804  Q 1144 2625 1350 2625  Q 1563 2625 1702 2806  Q 1841 2988 1841 3469  Q 1841 3913 1700 4092  Q 1559 4272 1350 4272  z M 1353 -169  L 3859 4659  L 4316 4659  L 1819 -169  L 1353 -169  z M 3334 1075  Q 3334 1569 3581 1911  Q 3828 2253 4300 2253  Q 4731 2253 5014 1945  Q 5297 1638 5297 1041  Q 5297 459 5011 145  Q 4725 -169 4303 -169  Q 3888 -169 3611 142  Q 3334 453 3334 1075  z M 4316 1866  Q 4103 1866 3964 1684  Q 3825 1503 3825 1019  Q 3825 581 3965 400  Q 4106 219 4313 219  Q 4528 219 4667 400  Q 4806 581 4806 1063  Q 4806 1506 4665 1686  Q 4525 1866 4316 1866  z "
                 transform="scale(0.015625)" />
            </defs>
            <use
               xlink:href="#Cmmi10-b4"
               transform="translate(0 0.203125)"
               id="use72" />
            <use
               xlink:href="#ArialMT-20"
               transform="translate(49.609375 0.203125)"
               id="use73" />
            <use
               xlink:href="#ArialMT-28"
               transform="translate(77.392578 0.203125)"
               id="use74" />
            <use
               xlink:href="#ArialMT-25"
               transform="translate(110.693359 0.203125)"
               id="use75" />
            <use
               xlink:href="#ArialMT-29"
               transform="translate(199.609375 0.203125)"
               id="use76" />
          </g>
        </g>
      </g>
      <g
         id="line2d_28">
        <path
           d="M 34.130002 61.819631  L 234.21041 61.819631  "
           clip-path="url(#pc1678563f0)"
           style="fill: none; stroke: #d3d3d3; stroke-width: 0.5; stroke-linecap: square"
           id="path76" />
      </g>
      <g
         id="line2d_29">
        <path
           d="M 134.170206 121.663974  L 134.170206 3.00024  "
           clip-path="url(#pc1678563f0)"
           style="fill: none; stroke: #d3d3d3; stroke-width: 0.5; stroke-linecap: square"
           id="path77" />
      </g>
      <g
         id="line2d_30">
        <path
           d="M 84.150104 89.167588  L 84.650305 88.679539  L 85.150506 88.401463  L 85.650707 88.304288  L 86.150908 88.358944  L 87.15131 88.807459  L 87.651512 89.143174  L 88.651914 90.042395  L 89.152115 90.02591  L 89.652316 90.151389  L 90.652718 90.67907  L 91.152919 90.721164  L 92.153321 91.120001  L 93.153723 91.582911  L 93.653924 92.182498  L 94.154125 92.521227  L 94.654326 92.721291  L 95.654728 93.612497  L 96.154929 93.701913  L 96.65513 93.617753  L 97.655532 93.960027  L 98.155733 94.082671  L 99.156135 94.852386  L 99.656336 94.99515  L 100.156537 95.364986  L 103.157743 96.607427  L 103.657944 96.534837  L 105.658748 96.989537  L 107.659552 96.915318  L 108.659954 96.584674  L 109.160155 96.490898  L 110.160557 96.618469  L 110.660758 96.393829  L 112.161361 96.012448  L 113.161763 95.690983  L 114.162166 94.937805  L 114.662367 94.525778  L 115.162568 93.791909  L 117.663573 91.58748  L 119.664377 89.327042  L 120.164578 88.599577  L 127.667593 74.187595  L 133.670005 61.634506  L 134.670407 59.763125  L 136.17101 56.682402  L 137.171412 54.936086  L 137.671613 53.853706  L 140.672819 49.023349  L 142.173423 46.148097  L 144.674428 41.774577  L 145.67483 39.981019  L 147.175433 37.538959  L 148.175835 35.602945  L 149.176237 34.41404  L 151.177041 32.422993  L 152.177443 31.6245  L 152.677644 31.711947  L 155.178649 31.167299  L 155.67885 31.248562  L 156.179051 31.465391  L 158.179855 31.622858  L 159.180257 31.919251  L 159.680458 31.818542  L 160.180659 31.543257  L 160.68086 31.561786  L 161.181061 31.374624  L 161.681262 31.445555  L 162.181463 31.327271  L 162.681664 31.008832  L 163.181865 31.089625  L 164.182267 31.033842  L 165.68287 31.436545  L 166.183071 31.848438  L 167.183473 32.423501  L 167.683675 32.908099  L 168.183876 32.959122  L 168.684077 33.42309  L 169.684479 33.346648  L 171.185082 33.936981  L 172.185484 34.091062  L 172.685685 34.363651  L 173.185886 34.788084  L 173.686087 35.026303  L 174.186288 34.989621  L 175.18669 35.174927  L 175.686891 35.268996  L 176.187092 35.150841  L 176.687293 35.227656  L 177.187494 35.024722  L 177.687695 35.396115  L 178.688097 35.725794  L 179.188298 35.932267  L 179.688499 36.310529  L 180.1887 36.898356  L 180.688901 37.660282  L 182.189504 38.638389  L 183.189906 38.376859  L 183.690107 38.241165  L 184.190308 37.985423  L 184.690509 38.001356  L 185.19071 37.705686  L 185.690911 37.595489  L 186.191112 37.300622  L 186.691313 37.240647  L 187.191514 37.532913  L 187.691715 37.991254  L 188.692117 38.382703  L 189.192318 38.678334  L 190.19272 38.982968  L 191.693323 40.626682  L 192.693725 41.58661  L 193.193926 41.778344  L 195.194731 43.325458  L 196.695334 43.32205  L 197.195535 43.534164  L 197.695736 43.926901  L 198.195937 44.056687  L 200.696942 46.206436  L 201.197143 46.486479  L 202.197545 47.480959  L 203.197947 47.45726  L 204.198349 47.748399  L 204.69855 47.845128  L 205.198751 47.827365  L 207.199555 48.903423  L 208.199957 49.264025  L 208.700158 49.001256  L 209.200359 49.317674  L 209.70056 49.781101  L 210.200761 49.988549  L 210.700962 50.551931  L 211.701364 52.091519  L 212.701766 52.807125  L 213.702168 54.487787  L 214.70257 55.459566  L 215.202771 55.664757  L 215.702972 55.727395  L 216.703374 55.482062  L 217.703776 56.372229  L 218.203977 56.347619  L 220.204781 58.525462  L 221.205184 58.682516  L 222.205586 58.234262  L 222.705787 58.21847  L 224.20639 57.366545  L 225.206792 57.5378  L 225.706993 58.051707  L 226.207194 58.302587  L 226.707395 58.373101  L 227.207596 58.586079  L 227.707797 58.348239  L 228.207998 58.503369  L 230.208802 58.426686  L 231.209204 58.282425  L 232.209606 58.896447  L 233.710209 59.598982  L 233.710209 59.598982  "
           clip-path="url(#pc1678563f0)"
           style="fill: none; stroke: #1f77b4; stroke-width: 0.5; stroke-linecap: square"
           id="path78" />
      </g>
      <g
         id="line2d_31">
        <path
           d="M 46.635028 66.791181  L 52.887541 68.577304  L 57.889551 70.172752  L 59.140053 70.737743  L 60.390556 71.524953  L 61.641059 71.983735  L 64.142064 72.424756  L 65.392566 72.94695  L 66.643069 72.793822  L 69.144074 73.362862  L 70.394576 73.758664  L 71.645079 74.61392  L 72.895581 75.259331  L 75.396587 76.897095  L 76.647089 78.147462  L 77.897592 79.009186  L 79.148094 79.68746  L 80.398597 80.169348  L 81.649099 81.200834  L 84.150104 82.724951  L 85.400607 83.333542  L 87.901612 85.335613  L 89.152115 86.762002  L 90.402617 87.78178  L 94.154125 91.886396  L 95.404627 92.811954  L 97.905632 95.463829  L 99.156135 97.55051  L 100.406637 99.188497  L 101.65714 101.197755  L 102.907643 102.872496  L 104.158145 105.454552  L 106.65915 109.725598  L 107.909653 111.444339  L 109.160155 112.965356  L 110.410658 114.072822  L 111.66116 114.781432  L 112.911663 114.50858  L 114.162166 113.791974  L 115.412668 112.429638  L 116.663171 110.244922  L 117.913673 107.187251  L 119.164176 103.752399  L 120.414678 99.869428  L 125.416688 82.958465  L 126.667191 79.13342  L 127.917694 75.775714  L 130.418699 69.935458  L 135.420709 59.359983  L 137.921714 53.630345  L 140.422719 47.240722  L 142.923724 39.798229  L 144.174227 35.894138  L 147.925734 25.508482  L 149.176237 22.704754  L 150.426739 20.186687  L 151.677242 18.223058  L 152.927744 16.576568  L 154.178247 15.335336  L 155.42875 14.977892  L 156.679252 14.809819  L 157.929755 14.90881  L 159.180257 15.794483  L 161.681262 18.569799  L 165.43277 24.088307  L 166.683272 26.249477  L 169.184278 29.662785  L 170.43478 30.751496  L 171.685283 32.30596  L 172.935785 33.668417  L 174.186288 34.412505  L 175.43679 35.48715  L 176.687293 36.732422  L 177.937795 37.655513  L 179.188298 38.118628  L 185.440811 42.005051  L 186.691313 42.896216  L 187.941816 43.612872  L 189.192318 44.852909  L 190.442821 45.73356  L 192.943826 47.062135  L 194.194328 48.024328  L 197.945836 49.69719  L 201.697344 51.824107  L 202.947846 52.728408  L 205.448851 53.894383  L 206.699354 54.893929  L 209.200359 55.985211  L 210.450862 56.215814  L 211.701364 56.670008  L 212.951867 56.760658  L 214.202369 56.986264  L 215.452872 56.974915  L 220.454882 57.530688  L 221.705385 57.549554  L 224.20639 58.44422  L 225.456892 58.641214  L 226.707395 59.180787  L 227.957897 59.255034  L 232.959907 60.702134  L 234.21041 61.022609  L 234.21041 61.022609  "
           clip-path="url(#pc1678563f0)"
           style="fill: none; stroke: #d62728; stroke-width: 0.5; stroke-linecap: square"
           id="path79" />
      </g>
      <g
         id="line2d_32">
        <path
           d="M 84.150104 80.957888  L 85.400607 81.412664  L 86.651109 82.011802  L 87.901612 82.756901  L 89.152115 83.649561  L 90.402617 84.691384  L 91.65312 85.883969  L 92.903622 87.228917  L 94.154125 88.948762  L 95.404627 90.560606  L 96.65513 92.433538  L 97.905632 94.123612  L 99.156135 96.21475  L 100.406637 98.166262  L 101.65714 100.602483  L 102.907643 103.058598  L 104.158145 105.494639  L 105.408648 107.87247  L 106.65915 110.235367  L 107.909653 112.330939  L 110.410658 114.097975  L 111.66116 115.252969  L 112.911663 115.645241  L 114.162166 114.666916  L 115.412668 112.735386  L 116.663171 109.960387  L 117.913673 106.002131  L 119.164176 101.355308  L 120.414678 96.557669  L 121.665181 91.12976  L 122.915683 85.862776  L 124.166186 81.077314  L 125.416688 76.893191  L 126.667191 73.497826  L 127.917694 70.905481  L 129.168196 68.444872  L 130.418699 66.731609  L 131.669201 65.104469  L 132.919704 63.665264  L 134.170206 62.460969  L 135.420709 60.793287  L 136.671211 59.210609  L 137.921714 56.751129  L 140.422719 53.2096  L 141.673222 48.684671  L 142.923724 43.642767  L 144.174227 37.70009  L 145.424729 32.081893  L 147.925734 26.259143  L 149.176237 20.842592  L 150.426739 16.673956  L 151.677242 12.881583  L 152.927744 10.554425  L 154.178247 9.10781  L 155.42875 8.939314  L 156.679252 9.733977  L 157.929755 10.794661  L 159.180257 11.947078  L 160.43076 13.642217  L 161.681262 15.747581  L 162.931765 17.709451  L 164.182267 20.273024  L 165.43277 22.441761  L 166.683272 24.716416  L 167.933775 26.953242  L 169.184278 29.172423  L 170.43478 31.223886  L 171.685283 32.884159  L 172.935785 34.534679  L 174.186288 36.117721  L 175.43679 37.538639  L 176.687293 38.91298  L 177.937795 40.15096  L 179.188298 41.234578  L 180.4388 42.14583  L 181.689303 42.866716  L 182.939806 43.379233  L 184.190308 43.66538  "
           clip-path="url(#pc1678563f0)"
           style="fill: none; stroke: #9467bd; stroke-width: 0.5; stroke-linecap: square"
           id="path80" />
      </g>
      <g
         id="patch_3">
        <path
           d="M 34.130002 121.663974  L 34.130002 3.00024  "
           style="fill: none; stroke: #000000; stroke-width: 0.5; stroke-linejoin: miter; stroke-linecap: square"
           id="path81" />
      </g>
      <g
         id="patch_4">
        <path
           d="M 234.21041 121.663974  L 234.21041 3.00024  "
           style="fill: none; stroke: #000000; stroke-width: 0.5; stroke-linejoin: miter; stroke-linecap: square"
           id="path82" />
      </g>
      <g
         id="patch_5">
        <path
           d="M 34.130002 121.663974  L 234.21041 121.663974  "
           style="fill: none; stroke: #000000; stroke-width: 0.5; stroke-linejoin: miter; stroke-linecap: square"
           id="path83" />
      </g>
      <g
         id="patch_6">
        <path
           d="M 34.130002 3.00024  L 234.21041 3.00024  "
           style="fill: none; stroke: #000000; stroke-width: 0.5; stroke-linejoin: miter; stroke-linecap: square"
           id="path84" />
      </g>
      <g
         id="legend_1">
        <g
           id="patch_7">
          <path
             d="M 38.183003 61.13184  L 110.558002 61.13184  Q 111.716002 61.13184 111.716002 59.97384  L 111.716002 7.05324  Q 111.716002 5.89524 110.558002 5.89524  L 38.183003 5.89524  Q 37.025002 5.89524 37.025002 7.05324  L 37.025002 59.97384  Q 37.025002 61.13184 38.183003 61.13184  z "
             style="fill: #ffffff; opacity: 0.8; stroke: #cccccc; stroke-linejoin: miter"
             id="path85" />
        </g>
        <g
           id="line2d_33">
          <path
             d="M 39.341003 10.35354  L 45.131003 10.35354  L 50.921003 10.35354  "
             style="fill: none; stroke: #2ca02c; stroke-width: 0.5; stroke-linecap: square"
             id="path86" />
        </g>
        <g
           id="text_15">
          <!-- $V_\mathrm{g}=$10$\,$V raw -->
          <g
             transform="translate(55.553002 12.38004) scale(0.0579 -0.0579)"
             id="g95">
            <defs
               id="defs86">
              <path
                 id="Cmmi10-56"
                 d="M 1409 -72  L 897 4006  Q 850 4147 416 4147  Q 353 4147 353 4231  Q 366 4300 384 4336  Q 403 4372 459 4372  L 2022 4372  Q 2056 4372 2072 4347  Q 2088 4322 2088 4288  Q 2063 4147 2003 4147  Q 1503 4147 1472 3975  L 1894 628  L 3866 3775  Q 3922 3881 3922 3944  Q 3922 4056 3820 4101  Q 3719 4147 3584 4147  Q 3519 4147 3519 4231  Q 3531 4281 3540 4309  Q 3550 4338 3569 4355  Q 3588 4372 3628 4372  L 4863 4372  Q 4922 4372 4922 4288  Q 4897 4147 4838 4147  Q 4356 4147 4084 3725  Q 4072 3713 4063 3713  L 1703 -72  Q 1656 -141 1581 -141  L 1491 -141  Q 1419 -141 1409 -72  z "
                 transform="scale(0.015625)" />
              <path
                 id="Cmr10-67"
                 d="M 178 -500  Q 178 -272 343 -101  Q 509 69 738 141  Q 609 238 542 384  Q 475 531 475 697  Q 475 997 666 1228  Q 372 1516 372 1888  Q 372 2088 458 2263  Q 544 2438 697 2566  Q 850 2694 1037 2761  Q 1225 2828 1422 2828  Q 1803 2828 2106 2606  Q 2238 2747 2417 2823  Q 2597 2900 2791 2900  Q 2928 2900 3015 2801  Q 3103 2703 3103 2566  Q 3103 2488 3043 2428  Q 2984 2369 2906 2369  Q 2825 2369 2765 2428  Q 2706 2488 2706 2566  Q 2706 2684 2784 2731  Q 2453 2731 2216 2503  Q 2331 2388 2401 2220  Q 2472 2053 2472 1888  Q 2472 1616 2322 1398  Q 2172 1181 1926 1061  Q 1681 941 1422 941  Q 1072 941 781 1131  Q 691 1006 691 850  Q 691 681 802 554  Q 913 428 1081 428  L 1606 428  Q 1988 428 2294 359  Q 2600 291 2808 84  Q 3016 -122 3016 -500  Q 3016 -781 2778 -967  Q 2541 -1153 2211 -1236  Q 1881 -1319 1600 -1319  Q 1316 -1319 984 -1236  Q 653 -1153 415 -967  Q 178 -781 178 -500  z M 538 -500  Q 538 -716 713 -861  Q 888 -1006 1134 -1076  Q 1381 -1147 1600 -1147  Q 1816 -1147 2062 -1076  Q 2309 -1006 2482 -861  Q 2656 -716 2656 -500  Q 2656 -166 2350 -67  Q 2044 31 1606 31  L 1081 31  Q 934 31 811 -39  Q 688 -109 613 -236  Q 538 -363 538 -500  z M 1422 1113  Q 1966 1113 1966 1888  Q 1966 2222 1850 2439  Q 1734 2656 1422 2656  Q 1109 2656 993 2439  Q 878 2222 878 1888  Q 878 1675 922 1503  Q 966 1331 1084 1222  Q 1203 1113 1422 1113  z "
                 transform="scale(0.015625)" />
              <path
                 id="Cmr10-3d"
                 d="M 481 850  Q 428 850 393 890  Q 359 931 359 978  Q 359 1031 393 1068  Q 428 1106 481 1106  L 4500 1106  Q 4547 1106 4581 1068  Q 4616 1031 4616 978  Q 4616 931 4581 890  Q 4547 850 4500 850  L 481 850  z M 481 2094  Q 428 2094 393 2131  Q 359 2169 359 2222  Q 359 2269 393 2309  Q 428 2350 481 2350  L 4500 2350  Q 4547 2350 4581 2309  Q 4616 2269 4616 2222  Q 4616 2169 4581 2131  Q 4547 2094 4500 2094  L 481 2094  z "
                 transform="scale(0.015625)" />
              <path
                 id="ArialMT-56"
                 d="M 1803 0  L 28 4581  L 684 4581  L 1875 1253  Q 2019 853 2116 503  Q 2222 878 2363 1253  L 3600 4581  L 4219 4581  L 2425 0  L 1803 0  z "
                 transform="scale(0.015625)" />
              <path
                 id="ArialMT-72"
                 d="M 416 0  L 416 3319  L 922 3319  L 922 2816  Q 1116 3169 1280 3281  Q 1444 3394 1641 3394  Q 1925 3394 2219 3213  L 2025 2691  Q 1819 2813 1613 2813  Q 1428 2813 1281 2702  Q 1134 2591 1072 2394  Q 978 2094 978 1738  L 978 0  L 416 0  z "
                 transform="scale(0.015625)" />
              <path
                 id="ArialMT-61"
                 d="M 2588 409  Q 2275 144 1986 34  Q 1697 -75 1366 -75  Q 819 -75 525 192  Q 231 459 231 875  Q 231 1119 342 1320  Q 453 1522 633 1644  Q 813 1766 1038 1828  Q 1203 1872 1538 1913  Q 2219 1994 2541 2106  Q 2544 2222 2544 2253  Q 2544 2597 2384 2738  Q 2169 2928 1744 2928  Q 1347 2928 1158 2789  Q 969 2650 878 2297  L 328 2372  Q 403 2725 575 2942  Q 747 3159 1072 3276  Q 1397 3394 1825 3394  Q 2250 3394 2515 3294  Q 2781 3194 2906 3042  Q 3031 2891 3081 2659  Q 3109 2516 3109 2141  L 3109 1391  Q 3109 606 3145 398  Q 3181 191 3288 0  L 2700 0  Q 2613 175 2588 409  z M 2541 1666  Q 2234 1541 1622 1453  Q 1275 1403 1131 1340  Q 988 1278 909 1158  Q 831 1038 831 891  Q 831 666 1001 516  Q 1172 366 1500 366  Q 1825 366 2078 508  Q 2331 650 2450 897  Q 2541 1088 2541 1459  L 2541 1666  z "
                 transform="scale(0.015625)" />
              <path
                 id="ArialMT-77"
                 d="M 1034 0  L 19 3319  L 600 3319  L 1128 1403  L 1325 691  Q 1338 744 1497 1375  L 2025 3319  L 2603 3319  L 3100 1394  L 3266 759  L 3456 1400  L 4025 3319  L 4572 3319  L 3534 0  L 2950 0  L 2422 1988  L 2294 2553  L 1622 0  L 1034 0  z "
                 transform="scale(0.015625)" />
            </defs>
            <use
               xlink:href="#Cmmi10-56"
               transform="translate(0 0.125)"
               id="use86" />
            <use
               xlink:href="#Cmr10-67"
               transform="translate(58.300781 -16.88125) scale(0.7)"
               id="use87" />
            <use
               xlink:href="#Cmr10-3d"
               transform="translate(117.236719 0.125)"
               id="use88" />
            <use
               xlink:href="#ArialMT-31"
               transform="translate(212.480859 0.125)"
               id="use89" />
            <use
               xlink:href="#ArialMT-30"
               transform="translate(268.096094 0.125)"
               id="use90" />
            <use
               xlink:href="#ArialMT-56"
               transform="translate(338.343782 0.125)"
               id="use91" />
            <use
               xlink:href="#ArialMT-20"
               transform="translate(405.043001 0.125)"
               id="use92" />
            <use
               xlink:href="#ArialMT-72"
               transform="translate(432.826204 0.125)"
               id="use93" />
            <use
               xlink:href="#ArialMT-61"
               transform="translate(466.126985 0.125)"
               id="use94" />
            <use
               xlink:href="#ArialMT-77"
               transform="translate(521.74222 0.125)"
               id="use95" />
          </g>
        </g>
        <g
           id="line2d_34">
          <path
             d="M 39.341003 19.27014  L 45.131003 19.27014  L 50.921003 19.27014  "
             style="fill: none; stroke: #1f77b4; stroke-width: 0.5; stroke-linecap: square"
             id="path95" />
        </g>
        <g
           id="text_16">
          <!-- $V_\mathrm{g}=$10$\,$V smoothed -->
          <g
             transform="translate(55.553002 21.29664) scale(0.0579 -0.0579)"
             id="g110">
            <defs
               id="defs95">
              <path
                 id="ArialMT-73"
                 d="M 197 991  L 753 1078  Q 800 744 1014 566  Q 1228 388 1613 388  Q 2000 388 2187 545  Q 2375 703 2375 916  Q 2375 1106 2209 1216  Q 2094 1291 1634 1406  Q 1016 1563 777 1677  Q 538 1791 414 1992  Q 291 2194 291 2438  Q 291 2659 392 2848  Q 494 3038 669 3163  Q 800 3259 1026 3326  Q 1253 3394 1513 3394  Q 1903 3394 2198 3281  Q 2494 3169 2634 2976  Q 2775 2784 2828 2463  L 2278 2388  Q 2241 2644 2061 2787  Q 1881 2931 1553 2931  Q 1166 2931 1000 2803  Q 834 2675 834 2503  Q 834 2394 903 2306  Q 972 2216 1119 2156  Q 1203 2125 1616 2013  Q 2213 1853 2448 1751  Q 2684 1650 2818 1456  Q 2953 1263 2953 975  Q 2953 694 2789 445  Q 2625 197 2315 61  Q 2006 -75 1616 -75  Q 969 -75 630 194  Q 291 463 197 991  z "
                 transform="scale(0.015625)" />
              <path
                 id="ArialMT-6d"
                 d="M 422 0  L 422 3319  L 925 3319  L 925 2853  Q 1081 3097 1340 3245  Q 1600 3394 1931 3394  Q 2300 3394 2536 3241  Q 2772 3088 2869 2813  Q 3263 3394 3894 3394  Q 4388 3394 4653 3120  Q 4919 2847 4919 2278  L 4919 0  L 4359 0  L 4359 2091  Q 4359 2428 4304 2576  Q 4250 2725 4106 2815  Q 3963 2906 3769 2906  Q 3419 2906 3187 2673  Q 2956 2441 2956 1928  L 2956 0  L 2394 0  L 2394 2156  Q 2394 2531 2256 2718  Q 2119 2906 1806 2906  Q 1569 2906 1367 2781  Q 1166 2656 1075 2415  Q 984 2175 984 1722  L 984 0  L 422 0  z "
                 transform="scale(0.015625)" />
              <path
                 id="ArialMT-6f"
                 d="M 213 1659  Q 213 2581 725 3025  Q 1153 3394 1769 3394  Q 2453 3394 2887 2945  Q 3322 2497 3322 1706  Q 3322 1066 3130 698  Q 2938 331 2570 128  Q 2203 -75 1769 -75  Q 1072 -75 642 372  Q 213 819 213 1659  z M 791 1659  Q 791 1022 1069 705  Q 1347 388 1769 388  Q 2188 388 2466 706  Q 2744 1025 2744 1678  Q 2744 2294 2464 2611  Q 2184 2928 1769 2928  Q 1347 2928 1069 2612  Q 791 2297 791 1659  z "
                 transform="scale(0.015625)" />
              <path
                 id="ArialMT-74"
                 d="M 1650 503  L 1731 6  Q 1494 -44 1306 -44  Q 1000 -44 831 53  Q 663 150 594 308  Q 525 466 525 972  L 525 2881  L 113 2881  L 113 3319  L 525 3319  L 525 4141  L 1084 4478  L 1084 3319  L 1650 3319  L 1650 2881  L 1084 2881  L 1084 941  Q 1084 700 1114 631  Q 1144 563 1211 522  Q 1278 481 1403 481  Q 1497 481 1650 503  z "
                 transform="scale(0.015625)" />
              <path
                 id="ArialMT-68"
                 d="M 422 0  L 422 4581  L 984 4581  L 984 2938  Q 1378 3394 1978 3394  Q 2347 3394 2619 3248  Q 2891 3103 3008 2847  Q 3125 2591 3125 2103  L 3125 0  L 2563 0  L 2563 2103  Q 2563 2525 2380 2717  Q 2197 2909 1863 2909  Q 1613 2909 1392 2779  Q 1172 2650 1078 2428  Q 984 2206 984 1816  L 984 0  L 422 0  z "
                 transform="scale(0.015625)" />
              <path
                 id="ArialMT-65"
                 d="M 2694 1069  L 3275 997  Q 3138 488 2766 206  Q 2394 -75 1816 -75  Q 1088 -75 661 373  Q 234 822 234 1631  Q 234 2469 665 2931  Q 1097 3394 1784 3394  Q 2450 3394 2872 2941  Q 3294 2488 3294 1666  Q 3294 1616 3291 1516  L 816 1516  Q 847 969 1125 678  Q 1403 388 1819 388  Q 2128 388 2347 550  Q 2566 713 2694 1069  z M 847 1978  L 2700 1978  Q 2663 2397 2488 2606  Q 2219 2931 1791 2931  Q 1403 2931 1139 2672  Q 875 2413 847 1978  z "
                 transform="scale(0.015625)" />
              <path
                 id="ArialMT-64"
                 d="M 2575 0  L 2575 419  Q 2259 -75 1647 -75  Q 1250 -75 917 144  Q 584 363 401 755  Q 219 1147 219 1656  Q 219 2153 384 2558  Q 550 2963 881 3178  Q 1213 3394 1622 3394  Q 1922 3394 2156 3267  Q 2391 3141 2538 2938  L 2538 4581  L 3097 4581  L 3097 0  L 2575 0  z M 797 1656  Q 797 1019 1065 703  Q 1334 388 1700 388  Q 2069 388 2326 689  Q 2584 991 2584 1609  Q 2584 2291 2321 2609  Q 2059 2928 1675 2928  Q 1300 2928 1048 2622  Q 797 2316 797 1656  z "
                 transform="scale(0.015625)" />
            </defs>
            <use
               xlink:href="#Cmmi10-56"
               transform="translate(0 0.125)"
               id="use96" />
            <use
               xlink:href="#Cmr10-67"
               transform="translate(58.300781 -16.88125) scale(0.7)"
               id="use97" />
            <use
               xlink:href="#Cmr10-3d"
               transform="translate(117.236719 0.125)"
               id="use98" />
            <use
               xlink:href="#ArialMT-31"
               transform="translate(212.480859 0.125)"
               id="use99" />
            <use
               xlink:href="#ArialMT-30"
               transform="translate(268.096094 0.125)"
               id="use100" />
            <use
               xlink:href="#ArialMT-56"
               transform="translate(338.343782 0.125)"
               id="use101" />
            <use
               xlink:href="#ArialMT-20"
               transform="translate(405.043001 0.125)"
               id="use102" />
            <use
               xlink:href="#ArialMT-73"
               transform="translate(432.826204 0.125)"
               id="use103" />
            <use
               xlink:href="#ArialMT-6d"
               transform="translate(482.826204 0.125)"
               id="use104" />
            <use
               xlink:href="#ArialMT-6f"
               transform="translate(566.126985 0.125)"
               id="use105" />
            <use
               xlink:href="#ArialMT-6f"
               transform="translate(621.74222 0.125)"
               id="use106" />
            <use
               xlink:href="#ArialMT-74"
               transform="translate(677.357454 0.125)"
               id="use107" />
            <use
               xlink:href="#ArialMT-68"
               transform="translate(705.140657 0.125)"
               id="use108" />
            <use
               xlink:href="#ArialMT-65"
               transform="translate(760.755892 0.125)"
               id="use109" />
            <use
               xlink:href="#ArialMT-64"
               transform="translate(816.371126 0.125)"
               id="use110" />
          </g>
        </g>
        <g
           id="line2d_35">
          <path
             d="M 39.341003 28.18674  L 45.131003 28.18674  L 50.921003 28.18674  "
             style="fill: none; stroke: #ff7f0e; stroke-width: 0.5; stroke-linecap: square"
             id="path110" />
        </g>
        <g
           id="text_17">
          <!-- $V_\mathrm{g}=$0$\,$V raw -->
          <g
             transform="translate(55.553002 30.21324) scale(0.0579 -0.0579)"
             id="g119">
            <use
               xlink:href="#Cmmi10-56"
               transform="translate(0 0.125)"
               id="use111" />
            <use
               xlink:href="#Cmr10-67"
               transform="translate(58.300781 -16.88125) scale(0.7)"
               id="use112" />
            <use
               xlink:href="#Cmr10-3d"
               transform="translate(117.236719 0.125)"
               id="use113" />
            <use
               xlink:href="#ArialMT-30"
               transform="translate(212.480859 0.125)"
               id="use114" />
            <use
               xlink:href="#ArialMT-56"
               transform="translate(282.728548 0.125)"
               id="use115" />
            <use
               xlink:href="#ArialMT-20"
               transform="translate(349.427767 0.125)"
               id="use116" />
            <use
               xlink:href="#ArialMT-72"
               transform="translate(377.21097 0.125)"
               id="use117" />
            <use
               xlink:href="#ArialMT-61"
               transform="translate(410.511751 0.125)"
               id="use118" />
            <use
               xlink:href="#ArialMT-77"
               transform="translate(466.126985 0.125)"
               id="use119" />
          </g>
        </g>
        <g
           id="line2d_36">
          <path
             d="M 39.341003 37.10334  L 45.131003 37.10334  L 50.921003 37.10334  "
             style="fill: none; stroke: #d62728; stroke-width: 0.5; stroke-linecap: square"
             id="path119" />
        </g>
        <g
           id="text_18">
          <!-- $V_\mathrm{g}=$0$\,$V smoothed -->
          <g
             transform="translate(55.553002 39.12984) scale(0.0579 -0.0579)"
             id="g133">
            <use
               xlink:href="#Cmmi10-56"
               transform="translate(0 0.125)"
               id="use120" />
            <use
               xlink:href="#Cmr10-67"
               transform="translate(58.300781 -16.88125) scale(0.7)"
               id="use121" />
            <use
               xlink:href="#Cmr10-3d"
               transform="translate(117.236719 0.125)"
               id="use122" />
            <use
               xlink:href="#ArialMT-30"
               transform="translate(212.480859 0.125)"
               id="use123" />
            <use
               xlink:href="#ArialMT-56"
               transform="translate(282.728548 0.125)"
               id="use124" />
            <use
               xlink:href="#ArialMT-20"
               transform="translate(349.427767 0.125)"
               id="use125" />
            <use
               xlink:href="#ArialMT-73"
               transform="translate(377.21097 0.125)"
               id="use126" />
            <use
               xlink:href="#ArialMT-6d"
               transform="translate(427.21097 0.125)"
               id="use127" />
            <use
               xlink:href="#ArialMT-6f"
               transform="translate(510.511751 0.125)"
               id="use128" />
            <use
               xlink:href="#ArialMT-6f"
               transform="translate(566.126985 0.125)"
               id="use129" />
            <use
               xlink:href="#ArialMT-74"
               transform="translate(621.74222 0.125)"
               id="use130" />
            <use
               xlink:href="#ArialMT-68"
               transform="translate(649.525423 0.125)"
               id="use131" />
            <use
               xlink:href="#ArialMT-65"
               transform="translate(705.140657 0.125)"
               id="use132" />
            <use
               xlink:href="#ArialMT-64"
               transform="translate(760.755892 0.125)"
               id="use133" />
          </g>
        </g>
        <g
           id="line2d_37">
          <path
             d="M 39.341003 46.01994  L 45.131003 46.01994  L 50.921003 46.01994  "
             style="fill: none; stroke: #e377c2; stroke-width: 0.5; stroke-linecap: square"
             id="path133" />
        </g>
        <g
           id="text_19">
          <!-- $V_\mathrm{g}=-$3$\,$V raw -->
          <g
             transform="translate(55.553002 48.04644) scale(0.0579 -0.0579)"
             id="g143">
            <defs
               id="defs133">
              <path
                 id="Cmsy10-a1"
                 d="M 653 1472  Q 600 1472 565 1512  Q 531 1553 531 1600  Q 531 1647 565 1687  Q 600 1728 653 1728  L 4325 1728  Q 4375 1728 4408 1687  Q 4441 1647 4441 1600  Q 4441 1553 4408 1512  Q 4375 1472 4325 1472  L 653 1472  z "
                 transform="scale(0.015625)" />
            </defs>
            <use
               xlink:href="#Cmmi10-56"
               transform="translate(0 0.125)"
               id="use134" />
            <use
               xlink:href="#Cmr10-67"
               transform="translate(58.300781 -16.88125) scale(0.7)"
               id="use135" />
            <use
               xlink:href="#Cmr10-3d"
               transform="translate(117.236719 0.125)"
               id="use136" />
            <use
               xlink:href="#Cmsy10-a1"
               transform="translate(230.039453 0.125)"
               id="use137" />
            <use
               xlink:href="#ArialMT-33"
               transform="translate(325.283594 0.125)"
               id="use138" />
            <use
               xlink:href="#ArialMT-56"
               transform="translate(395.531282 0.125)"
               id="use139" />
            <use
               xlink:href="#ArialMT-20"
               transform="translate(462.230501 0.125)"
               id="use140" />
            <use
               xlink:href="#ArialMT-72"
               transform="translate(490.013704 0.125)"
               id="use141" />
            <use
               xlink:href="#ArialMT-61"
               transform="translate(523.314485 0.125)"
               id="use142" />
            <use
               xlink:href="#ArialMT-77"
               transform="translate(578.92972 0.125)"
               id="use143" />
          </g>
        </g>
        <g
           id="line2d_38">
          <path
             d="M 39.341003 54.93654  L 45.131003 54.93654  L 50.921003 54.93654  "
             style="fill: none; stroke: #9467bd; stroke-width: 0.5; stroke-linecap: square"
             id="path143" />
        </g>
        <g
           id="text_20">
          <!-- $V_\mathrm{g}=-$3$\,$V smoothed -->
          <g
             transform="translate(55.553002 56.96304) scale(0.0579 -0.0579)"
             id="g158">
            <use
               xlink:href="#Cmmi10-56"
               transform="translate(0 0.125)"
               id="use144" />
            <use
               xlink:href="#Cmr10-67"
               transform="translate(58.300781 -16.88125) scale(0.7)"
               id="use145" />
            <use
               xlink:href="#Cmr10-3d"
               transform="translate(117.236719 0.125)"
               id="use146" />
            <use
               xlink:href="#Cmsy10-a1"
               transform="translate(230.039453 0.125)"
               id="use147" />
            <use
               xlink:href="#ArialMT-33"
               transform="translate(325.283594 0.125)"
               id="use148" />
            <use
               xlink:href="#ArialMT-56"
               transform="translate(395.531282 0.125)"
               id="use149" />
            <use
               xlink:href="#ArialMT-20"
               transform="translate(462.230501 0.125)"
               id="use150" />
            <use
               xlink:href="#ArialMT-73"
               transform="translate(490.013704 0.125)"
               id="use151" />
            <use
               xlink:href="#ArialMT-6d"
               transform="translate(540.013704 0.125)"
               id="use152" />
            <use
               xlink:href="#ArialMT-6f"
               transform="translate(623.314485 0.125)"
               id="use153" />
            <use
               xlink:href="#ArialMT-6f"
               transform="translate(678.92972 0.125)"
               id="use154" />
            <use
               xlink:href="#ArialMT-74"
               transform="translate(734.544954 0.125)"
               id="use155" />
            <use
               xlink:href="#ArialMT-68"
               transform="translate(762.328157 0.125)"
               id="use156" />
            <use
               xlink:href="#ArialMT-65"
               transform="translate(817.943392 0.125)"
               id="use157" />
            <use
               xlink:href="#ArialMT-64"
               transform="translate(873.558626 0.125)"
               id="use158" />
          </g>
        </g>
      </g>
    </g>
  </g>
  <defs
     id="defs158">
    <clipPath
       id="pc1678563f0">
      <rect
         x="34.130002"
         y="3.00024"
         width="200.080407"
         height="118.663734"
         id="rect158" />
    </clipPath>
  </defs>
</svg>
