<?xml version="1.0" encoding="utf-8" standalone="no"?>
<!DOCTYPE svg PUBLIC "-//W3C//DTD SVG 1.1//EN"
  "http://www.w3.org/Graphics/SVG/1.1/DTD/svg11.dtd">
<svg xmlns:xlink="http://www.w3.org/1999/xlink" width="243pt" height="243pt" viewBox="0 0 243 243" xmlns="http://www.w3.org/2000/svg" version="1.1">
 <metadata>
  <rdf:RDF xmlns:dc="http://purl.org/dc/elements/1.1/" xmlns:cc="http://creativecommons.org/ns#" xmlns:rdf="http://www.w3.org/1999/02/22-rdf-syntax-ns#">
   <cc:Work>
    <dc:type rdf:resource="http://purl.org/dc/dcmitype/StillImage"/>
    <dc:date>2024-12-02T22:13:38.746526</dc:date>
    <dc:format>image/svg+xml</dc:format>
    <dc:creator>
     <cc:Agent>
      <dc:title>Matplotlib v3.8.4, https://matplotlib.org/</dc:title>
     </cc:Agent>
    </dc:creator>
   </cc:Work>
  </rdf:RDF>
 </metadata>
 <defs>
  <style type="text/css">*{stroke-linejoin: round; stroke-linecap: butt}</style>
 </defs>
 <g id="figure_1">
  <g id="patch_1">
   <path d="M 0 243 
L 243 243 
L 243 0 
L 0 0 
L 0 243 
z
" style="fill: none"/>
  </g>
  <g id="axes_1">
   <g id="patch_2">
    <path d="M 34.230003 105.740737 
L 239.99976 105.740737 
L 239.99976 3.00024 
L 34.230003 3.00024 
L 34.230003 105.740737 
z
" style="fill: none"/>
   </g>
   <g id="matplotlib.axis_1">
    <g id="xtick_1">
     <g id="line2d_1">
      <defs>
       <path id="m1b42745986" d="M 0 0 
L 0 -2 
" style="stroke: #000000; stroke-width: 0.5"/>
      </defs>
      <g>
       <use xlink:href="#m1b42745986" x="49.428905" y="105.740737" style="stroke: #000000; stroke-width: 0.5"/>
      </g>
     </g>
    </g>
    <g id="xtick_2">
     <g id="line2d_2">
      <g>
       <use xlink:href="#m1b42745986" x="78.657564" y="105.740737" style="stroke: #000000; stroke-width: 0.5"/>
      </g>
     </g>
    </g>
    <g id="xtick_3">
     <g id="line2d_3">
      <g>
       <use xlink:href="#m1b42745986" x="107.886223" y="105.740737" style="stroke: #000000; stroke-width: 0.5"/>
      </g>
     </g>
    </g>
    <g id="xtick_4">
     <g id="line2d_4">
      <g>
       <use xlink:href="#m1b42745986" x="137.114881" y="105.740737" style="stroke: #000000; stroke-width: 0.5"/>
      </g>
     </g>
    </g>
    <g id="xtick_5">
     <g id="line2d_5">
      <g>
       <use xlink:href="#m1b42745986" x="166.34354" y="105.740737" style="stroke: #000000; stroke-width: 0.5"/>
      </g>
     </g>
    </g>
    <g id="xtick_6">
     <g id="line2d_6">
      <g>
       <use xlink:href="#m1b42745986" x="195.572199" y="105.740737" style="stroke: #000000; stroke-width: 0.5"/>
      </g>
     </g>
    </g>
    <g id="xtick_7">
     <g id="line2d_7">
      <g>
       <use xlink:href="#m1b42745986" x="224.800857" y="105.740737" style="stroke: #000000; stroke-width: 0.5"/>
      </g>
     </g>
    </g>
   </g>
   <g id="matplotlib.axis_2">
    <g id="ytick_1">
     <g id="line2d_8">
      <defs>
       <path id="mbe282a2514" d="M 0 0 
L 2 0 
" style="stroke: #000000; stroke-width: 0.5"/>
      </defs>
      <g>
       <use xlink:href="#mbe282a2514" x="34.230003" y="92.893849" style="stroke: #000000; stroke-width: 0.5"/>
      </g>
     </g>
     <g id="text_1">
      <!-- −20 -->
      <g transform="translate(16.60024 95.875078) scale(0.0833 -0.0833)">
       <defs>
        <path id="ArialMT-2212" d="M 3381 1997 
L 356 1997 
L 356 2522 
L 3381 2522 
L 3381 1997 
z
" transform="scale(0.015625)"/>
        <path id="ArialMT-32" d="M 3222 541 
L 3222 0 
L 194 0 
Q 188 203 259 391 
Q 375 700 629 1000 
Q 884 1300 1366 1694 
Q 2113 2306 2375 2664 
Q 2638 3022 2638 3341 
Q 2638 3675 2398 3904 
Q 2159 4134 1775 4134 
Q 1369 4134 1125 3890 
Q 881 3647 878 3216 
L 300 3275 
Q 359 3922 746 4261 
Q 1134 4600 1788 4600 
Q 2447 4600 2831 4234 
Q 3216 3869 3216 3328 
Q 3216 3053 3103 2787 
Q 2991 2522 2730 2228 
Q 2469 1934 1863 1422 
Q 1356 997 1212 845 
Q 1069 694 975 541 
L 3222 541 
z
" transform="scale(0.015625)"/>
        <path id="ArialMT-30" d="M 266 2259 
Q 266 3072 433 3567 
Q 600 4063 929 4331 
Q 1259 4600 1759 4600 
Q 2128 4600 2406 4451 
Q 2684 4303 2865 4023 
Q 3047 3744 3150 3342 
Q 3253 2941 3253 2259 
Q 3253 1453 3087 958 
Q 2922 463 2592 192 
Q 2263 -78 1759 -78 
Q 1097 -78 719 397 
Q 266 969 266 2259 
z
M 844 2259 
Q 844 1131 1108 757 
Q 1372 384 1759 384 
Q 2147 384 2411 759 
Q 2675 1134 2675 2259 
Q 2675 3391 2411 3762 
Q 2147 4134 1753 4134 
Q 1366 4134 1134 3806 
Q 844 3388 844 2259 
z
" transform="scale(0.015625)"/>
       </defs>
       <use xlink:href="#ArialMT-2212"/>
       <use xlink:href="#ArialMT-32" x="58.398438"/>
       <use xlink:href="#ArialMT-30" x="114.013672"/>
      </g>
     </g>
    </g>
    <g id="ytick_2">
     <g id="line2d_9">
      <g>
       <use xlink:href="#mbe282a2514" x="34.230003" y="75.715222" style="stroke: #000000; stroke-width: 0.5"/>
      </g>
     </g>
     <g id="text_2">
      <!-- −10 -->
      <g transform="translate(16.60024 78.696451) scale(0.0833 -0.0833)">
       <defs>
        <path id="ArialMT-31" d="M 2384 0 
L 1822 0 
L 1822 3584 
Q 1619 3391 1289 3197 
Q 959 3003 697 2906 
L 697 3450 
Q 1169 3672 1522 3987 
Q 1875 4303 2022 4600 
L 2384 4600 
L 2384 0 
z
" transform="scale(0.015625)"/>
       </defs>
       <use xlink:href="#ArialMT-2212"/>
       <use xlink:href="#ArialMT-31" x="58.398438"/>
       <use xlink:href="#ArialMT-30" x="114.013672"/>
      </g>
     </g>
    </g>
    <g id="ytick_3">
     <g id="line2d_10">
      <g>
       <use xlink:href="#mbe282a2514" x="34.230003" y="58.536595" style="stroke: #000000; stroke-width: 0.5"/>
      </g>
     </g>
     <g id="text_3">
      <!-- 0 -->
      <g transform="translate(26.097742 61.517824) scale(0.0833 -0.0833)">
       <use xlink:href="#ArialMT-30"/>
      </g>
     </g>
    </g>
    <g id="ytick_4">
     <g id="line2d_11">
      <g>
       <use xlink:href="#mbe282a2514" x="34.230003" y="41.357968" style="stroke: #000000; stroke-width: 0.5"/>
      </g>
     </g>
     <g id="text_4">
      <!-- 10 -->
      <g transform="translate(21.465481 44.339197) scale(0.0833 -0.0833)">
       <use xlink:href="#ArialMT-31"/>
       <use xlink:href="#ArialMT-30" x="55.615234"/>
      </g>
     </g>
    </g>
    <g id="ytick_5">
     <g id="line2d_12">
      <g>
       <use xlink:href="#mbe282a2514" x="34.230003" y="24.179341" style="stroke: #000000; stroke-width: 0.5"/>
      </g>
     </g>
     <g id="text_5">
      <!-- 20 -->
      <g transform="translate(21.465481 27.16057) scale(0.0833 -0.0833)">
       <use xlink:href="#ArialMT-32"/>
       <use xlink:href="#ArialMT-30" x="55.615234"/>
      </g>
     </g>
    </g>
    <g id="ytick_6">
     <g id="line2d_13">
      <g>
       <use xlink:href="#mbe282a2514" x="34.230003" y="7.000714" style="stroke: #000000; stroke-width: 0.5"/>
      </g>
     </g>
     <g id="text_6">
      <!-- 30 -->
      <g transform="translate(21.465481 9.981943) scale(0.0833 -0.0833)">
       <defs>
        <path id="ArialMT-33" d="M 269 1209 
L 831 1284 
Q 928 806 1161 595 
Q 1394 384 1728 384 
Q 2125 384 2398 659 
Q 2672 934 2672 1341 
Q 2672 1728 2419 1979 
Q 2166 2231 1775 2231 
Q 1616 2231 1378 2169 
L 1441 2663 
Q 1497 2656 1531 2656 
Q 1891 2656 2178 2843 
Q 2466 3031 2466 3422 
Q 2466 3731 2256 3934 
Q 2047 4138 1716 4138 
Q 1388 4138 1169 3931 
Q 950 3725 888 3313 
L 325 3413 
Q 428 3978 793 4289 
Q 1159 4600 1703 4600 
Q 2078 4600 2393 4439 
Q 2709 4278 2876 4000 
Q 3044 3722 3044 3409 
Q 3044 3113 2884 2869 
Q 2725 2625 2413 2481 
Q 2819 2388 3044 2092 
Q 3269 1797 3269 1353 
Q 3269 753 2831 336 
Q 2394 -81 1725 -81 
Q 1122 -81 723 278 
Q 325 638 269 1209 
z
" transform="scale(0.015625)"/>
       </defs>
       <use xlink:href="#ArialMT-33"/>
       <use xlink:href="#ArialMT-30" x="55.615234"/>
      </g>
     </g>
    </g>
    <g id="text_7">
     <!-- $\partial_B I_{\mathrm{c}+}$ (μA/T) -->
     <g transform="translate(10.30024 83.320489) rotate(-90) scale(0.1 -0.1)">
      <defs>
       <path id="STIXGeneral-Regular-2202" d="M 1248 4000 
L 1184 4128 
Q 1427 4275 1811 4275 
Q 3014 4275 3014 2611 
Q 3014 2298 2963 1965 
Q 2912 1632 2777 1261 
Q 2643 890 2438 598 
Q 2234 307 1894 118 
Q 1555 -70 1126 -70 
Q 685 -70 470 224 
Q 256 518 256 966 
Q 256 1664 739 2224 
Q 1222 2784 1901 2784 
Q 2342 2784 2515 2477 
Q 2560 2726 2560 2925 
Q 2560 3418 2365 3750 
Q 2170 4083 1722 4083 
Q 1510 4083 1248 4000 
z
M 2349 2042 
Q 2349 2323 2230 2457 
Q 2112 2592 1958 2592 
Q 1491 2592 1132 2013 
Q 774 1434 774 749 
Q 774 122 1203 122 
Q 1549 122 1827 499 
Q 2106 877 2253 1414 
Q 2349 1766 2349 2042 
z
" transform="scale(0.015625)"/>
       <path id="Cmmi10-42" d="M 319 0 
Q 256 0 256 84 
Q 259 100 268 137 
Q 278 175 293 200 
Q 309 225 341 225 
Q 522 225 656 234 
Q 791 244 884 269 
Q 959 297 1006 441 
L 1881 3956 
Q 1894 4019 1894 4044 
Q 1894 4113 1819 4122 
Q 1697 4147 1356 4147 
Q 1294 4147 1294 4231 
Q 1297 4247 1306 4286 
Q 1316 4325 1333 4348 
Q 1350 4372 1375 4372 
L 3669 4372 
Q 3878 4372 4083 4320 
Q 4288 4269 4461 4156 
Q 4634 4044 4736 3876 
Q 4838 3709 4838 3488 
Q 4838 3247 4714 3040 
Q 4591 2834 4395 2681 
Q 4200 2528 3973 2429 
Q 3747 2331 3500 2284 
Q 3675 2284 3854 2215 
Q 4034 2147 4175 2028 
Q 4316 1909 4402 1743 
Q 4488 1578 4488 1388 
Q 4488 1003 4219 684 
Q 3950 366 3542 183 
Q 3134 0 2753 0 
L 319 0 
z
M 1497 275 
Q 1497 225 1716 225 
L 2631 225 
Q 2944 225 3231 398 
Q 3519 572 3692 859 
Q 3866 1147 3866 1459 
Q 3866 1650 3786 1820 
Q 3706 1991 3556 2089 
Q 3406 2188 3213 2188 
L 1966 2188 
L 1522 416 
Q 1497 328 1497 275 
z
M 2009 2356 
L 2981 2356 
Q 3288 2356 3577 2512 
Q 3866 2669 4048 2937 
Q 4231 3206 4231 3506 
Q 4231 3784 4057 3965 
Q 3884 4147 3609 4147 
L 2731 4147 
Q 2559 4147 2500 4115 
Q 2441 4084 2400 3928 
L 2009 2356 
z
" transform="scale(0.015625)"/>
       <path id="Cmmi10-49" d="M 269 0 
Q 206 0 206 84 
Q 231 225 288 225 
Q 666 225 800 250 
Q 947 284 984 441 
L 1863 3956 
Q 1875 4019 1875 4038 
Q 1875 4078 1854 4095 
Q 1834 4113 1791 4122 
Q 1663 4147 1306 4147 
Q 1241 4147 1241 4231 
Q 1263 4313 1275 4342 
Q 1288 4372 1350 4372 
L 3138 4372 
Q 3200 4372 3200 4288 
Q 3197 4272 3187 4234 
Q 3178 4197 3162 4172 
Q 3147 4147 3116 4147 
Q 2741 4147 2597 4122 
Q 2456 4088 2419 3928 
L 1544 416 
Q 1528 338 1528 331 
Q 1528 316 1533 302 
Q 1538 288 1552 277 
Q 1566 266 1580 261 
Q 1594 256 1613 250 
Q 1734 225 2100 225 
Q 2163 225 2163 141 
Q 2141 50 2128 25 
Q 2116 0 2053 0 
L 269 0 
z
" transform="scale(0.015625)"/>
       <path id="Cmr10-63" d="M 1594 -72 
Q 1206 -72 890 129 
Q 575 331 394 667 
Q 213 1003 213 1381 
Q 213 1759 392 2106 
Q 572 2453 889 2661 
Q 1206 2869 1594 2869 
Q 1969 2869 2276 2722 
Q 2584 2575 2584 2241 
Q 2584 2116 2495 2023 
Q 2406 1931 2278 1931 
Q 2150 1931 2061 2023 
Q 1972 2116 1972 2241 
Q 1972 2353 2044 2436 
Q 2116 2519 2222 2541 
Q 2000 2681 1600 2681 
Q 1294 2681 1106 2478 
Q 919 2275 844 1975 
Q 769 1675 769 1381 
Q 769 1072 861 783 
Q 953 494 1158 305 
Q 1363 116 1672 116 
Q 1975 116 2187 302 
Q 2400 488 2478 788 
Q 2478 825 2528 825 
L 2606 825 
Q 2625 825 2640 808 
Q 2656 791 2656 769 
L 2656 750 
Q 2559 372 2271 150 
Q 1984 -72 1594 -72 
z
" transform="scale(0.015625)"/>
       <path id="Cmr10-2b" d="M 481 1472 
Q 428 1472 393 1512 
Q 359 1553 359 1600 
Q 359 1647 393 1687 
Q 428 1728 481 1728 
L 2363 1728 
L 2363 3616 
Q 2363 3666 2400 3698 
Q 2438 3731 2491 3731 
Q 2538 3731 2578 3698 
Q 2619 3666 2619 3616 
L 2619 1728 
L 4500 1728 
Q 4547 1728 4581 1687 
Q 4616 1647 4616 1600 
Q 4616 1553 4581 1512 
Q 4547 1472 4500 1472 
L 2619 1472 
L 2619 -416 
Q 2619 -466 2578 -498 
Q 2538 -531 2491 -531 
Q 2438 -531 2400 -498 
Q 2363 -466 2363 -416 
L 2363 1472 
L 481 1472 
z
" transform="scale(0.015625)"/>
       <path id="ArialMT-20" transform="scale(0.015625)"/>
       <path id="ArialMT-28" d="M 1497 -1347 
Q 1031 -759 709 28 
Q 388 816 388 1659 
Q 388 2403 628 3084 
Q 909 3875 1497 4659 
L 1900 4659 
Q 1522 4009 1400 3731 
Q 1209 3300 1100 2831 
Q 966 2247 966 1656 
Q 966 153 1900 -1347 
L 1497 -1347 
z
" transform="scale(0.015625)"/>
       <path id="ArialMT-3bc" d="M 3181 3319 
L 3181 0 
L 2678 0 
L 2678 394 
Q 2516 144 2356 50 
Q 2138 -78 1847 -78 
Q 1588 -78 1388 25 
Q 1238 103 1056 334 
L 1056 -1272 
L 500 -1272 
L 500 3319 
L 1056 3319 
L 1056 1913 
Q 1056 1147 1137 920 
Q 1219 694 1401 562 
Q 1584 431 1822 431 
Q 2072 431 2269 568 
Q 2466 706 2547 923 
Q 2628 1141 2628 1903 
L 2628 3319 
L 3181 3319 
z
" transform="scale(0.015625)"/>
       <path id="ArialMT-41" d="M -9 0 
L 1750 4581 
L 2403 4581 
L 4278 0 
L 3588 0 
L 3053 1388 
L 1138 1388 
L 634 0 
L -9 0 
z
M 1313 1881 
L 2866 1881 
L 2388 3150 
Q 2169 3728 2063 4100 
Q 1975 3659 1816 3225 
L 1313 1881 
z
" transform="scale(0.015625)"/>
       <path id="ArialMT-2f" d="M 0 -78 
L 1328 4659 
L 1778 4659 
L 453 -78 
L 0 -78 
z
" transform="scale(0.015625)"/>
       <path id="ArialMT-54" d="M 1659 0 
L 1659 4041 
L 150 4041 
L 150 4581 
L 3781 4581 
L 3781 4041 
L 2266 4041 
L 2266 0 
L 1659 0 
z
" transform="scale(0.015625)"/>
       <path id="ArialMT-29" d="M 791 -1347 
L 388 -1347 
Q 1322 153 1322 1656 
Q 1322 2244 1188 2822 
Q 1081 3291 891 3722 
Q 769 4003 388 4659 
L 791 4659 
Q 1378 3875 1659 3084 
Q 1900 2403 1900 1659 
Q 1900 816 1576 28 
Q 1253 -759 791 -1347 
z
" transform="scale(0.015625)"/>
      </defs>
      <use xlink:href="#STIXGeneral-Regular-2202" transform="translate(0 0.203125)"/>
      <use xlink:href="#Cmmi10-42" transform="translate(51.564131 -16.803125) scale(0.7)"/>
      <use xlink:href="#Cmmi10-49" transform="translate(110.98835 0.203125)"/>
      <use xlink:href="#Cmr10-63" transform="translate(154.884835 -16.803125) scale(0.7)"/>
      <use xlink:href="#Cmr10-2b" transform="translate(198.245186 -16.803125) scale(0.7)"/>
      <use xlink:href="#ArialMT-20" transform="translate(271.293428 0.203125)"/>
      <use xlink:href="#ArialMT-28" transform="translate(299.076631 0.203125)"/>
      <use xlink:href="#ArialMT-3bc" transform="translate(332.377413 0.203125)"/>
      <use xlink:href="#ArialMT-41" transform="translate(389.9946 0.203125)"/>
      <use xlink:href="#ArialMT-2f" transform="translate(456.693819 0.203125)"/>
      <use xlink:href="#ArialMT-54" transform="translate(484.477022 0.203125)"/>
      <use xlink:href="#ArialMT-29" transform="translate(545.561006 0.203125)"/>
     </g>
    </g>
   </g>
   <g id="line2d_14">
    <path d="M 34.230003 58.536595 
L 239.99976 58.536595 
" clip-path="url(#pc9a72d5477)" style="fill: none; stroke: #808080; stroke-width: 0.5; stroke-linecap: square"/>
   </g>
   <g id="line2d_15">
    <path d="M 137.114881 105.740737 
L 137.114881 3.00024 
" clip-path="url(#pc9a72d5477)" style="fill: none; stroke: #808080; stroke-width: 0.5; stroke-linecap: square"/>
   </g>
   <g id="line2d_16"/>
   <g id="line2d_17"/>
   <g id="line2d_18"/>
   <g id="line2d_19"/>
   <g id="line2d_20"/>
   <g id="patch_3">
    <path d="M 34.230003 105.740737 
L 34.230003 3.00024 
" style="fill: none; stroke: #000000; stroke-width: 0.5; stroke-linejoin: miter; stroke-linecap: square"/>
   </g>
   <g id="patch_4">
    <path d="M 239.99976 105.740737 
L 239.99976 3.00024 
" style="fill: none; stroke: #000000; stroke-width: 0.5; stroke-linejoin: miter; stroke-linecap: square"/>
   </g>
   <g id="patch_5">
    <path d="M 34.230003 105.740737 
L 239.99976 105.740737 
" style="fill: none; stroke: #000000; stroke-width: 0.5; stroke-linejoin: miter; stroke-linecap: square"/>
   </g>
   <g id="patch_6">
    <path d="M 34.230003 3.00024 
L 239.99976 3.00024 
" style="fill: none; stroke: #000000; stroke-width: 0.5; stroke-linejoin: miter; stroke-linecap: square"/>
   </g>
   <g id="line2d_21">
    <path d="M 96.194759 50.410842 
L 97.363905 51.183266 
L 98.533052 51.482523 
L 99.702198 51.374666 
L 100.871344 50.947498 
L 102.040491 50.127238 
L 104.963357 47.903207 
L 106.132503 47.447361 
L 107.886223 47.204322 
L 110.224515 46.175693 
L 113.147381 43.392711 
L 114.901101 42.277266 
L 115.485674 41.703032 
L 116.65482 40.31321 
L 117.823966 39.444645 
L 118.993113 38.135336 
L 119.577686 37.75007 
L 120.162259 37.583788 
L 122.500552 37.581192 
L 123.085125 37.415304 
L 124.254271 36.3385 
L 124.838845 35.750302 
L 125.423418 34.962349 
L 126.007991 33.478933 
L 127.177137 28.82973 
L 128.346284 22.892578 
L 130.684576 9.527113 
L 131.26915 8.026691 
L 131.853723 7.670263 
L 132.438296 8.621314 
L 133.022869 10.728819 
L 134.192015 17.8383 
L 135.361162 27.421533 
L 136.530308 37.59996 
L 137.699454 45.410107 
L 138.868601 53.730139 
L 142.960613 87.368951 
L 143.545186 91.46425 
L 144.129759 94.277678 
L 144.714333 95.791536 
L 145.298906 96.423021 
L 145.883479 96.813119 
L 146.468052 97.416708 
L 147.637198 98.980266 
L 148.806345 99.952446 
L 149.390918 100.617407 
L 149.975491 101.070715 
L 150.560064 101.05603 
L 151.144637 100.804898 
L 151.729211 99.962213 
L 154.067503 92.976174 
L 156.405796 87.414932 
L 159.328662 81.05545 
L 160.497808 78.895531 
L 161.082381 78.247002 
L 161.666955 77.820549 
L 162.836101 76.712536 
L 163.420674 76.287412 
L 166.928113 72.71328 
L 167.512686 72.343437 
L 171.020125 69.412763 
L 172.189272 68.929167 
L 173.358418 68.294134 
L 173.942991 67.739584 
L 175.696711 65.228824 
L 177.45043 62.435006 
L 178.035003 61.821298 
L 178.619577 61.644345 
L 179.20415 62.005643 
L 182.127016 64.645155 
L 182.711589 64.874274 
L 183.296162 64.982829 
L 183.880735 64.900186 
L 185.049882 64.381035 
L 186.219028 63.762048 
L 190.895613 62.770041 
L 193.233906 62.346946 
L 194.987626 62.099509 
L 203.17165 61.302284 
L 208.432809 60.935664 
L 213.109394 60.639369 
L 218.370553 60.008275 
L 221.877992 59.96077 
L 224.800857 59.760716 
L 230.062016 59.645714 
L 230.062016 59.645714 
" clip-path="url(#pc9a72d5477)" style="fill: none; stroke: #d62728; stroke-linecap: square"/>
   </g>
   <g id="line2d_22">
    <path d="M 102.040491 50.938954 
L 104.378783 50.352126 
L 106.717076 49.289054 
L 109.055369 48.194203 
L 111.393662 46.814034 
L 113.731954 44.919365 
L 116.070247 42.371079 
L 118.40854 40.31654 
L 120.746832 39.359154 
L 123.085125 38.488412 
L 125.423418 35.196292 
L 127.76171 26.209669 
L 130.100003 22.353787 
L 132.438296 28.847848 
L 134.776589 42.913188 
L 137.114881 54.604293 
L 139.453174 62.615931 
L 141.791467 73.615953 
L 144.129759 81.155963 
L 146.468052 85.632712 
L 148.806345 88.280294 
L 151.144637 89.039564 
L 153.48293 86.53125 
L 155.821223 81.797557 
L 158.159516 77.401743 
L 160.497808 74.571853 
L 162.836101 72.803658 
L 165.174394 71.138099 
L 167.512686 69.780631 
L 169.850979 68.298037 
L 172.189272 66.893437 
L 174.527564 65.955519 
L 176.865857 65.103277 
L 179.20415 64.580476 
L 181.542443 64.240367 
L 183.880735 63.750311 
L 189.726467 62.365761 
L 195.572199 61.45458 
L 201.41793 61.099262 
L 207.263662 60.533833 
L 213.109394 60.119864 
L 218.955126 60.019258 
L 224.800857 59.778514 
L 230.646589 59.637317 
" clip-path="url(#pc9a72d5477)" style="fill: none; stroke: #ff7f0e; stroke-linecap: square"/>
   </g>
   <g id="legend_1">
    <g id="patch_7">
     <path d="M 185.40006 48.709576 
L 235.94676 48.709576 
Q 237.10476 48.709576 237.10476 47.551576 
L 237.10476 7.05324 
Q 237.10476 5.89524 235.94676 5.89524 
L 185.40006 5.89524 
Q 184.24206 5.89524 184.24206 7.05324 
L 184.24206 47.551576 
Q 184.24206 48.709576 185.40006 48.709576 
z
" style="fill: #ffffff; opacity: 0.8; stroke: #cccccc; stroke-linejoin: miter"/>
    </g>
    <g id="line2d_23">
     <path d="M 186.55806 10.329113 
L 192.34806 10.329113 
L 198.13806 10.329113 
" style="fill: none; stroke: #d62728; stroke-linecap: square"/>
    </g>
    <g id="text_8">
     <!-- $W_\mathrm{sc}\rightarrow\infty$ -->
     <g transform="translate(202.77006 12.355613) scale(0.0579 -0.0579)">
      <defs>
       <path id="Cmmi10-57" d="M 1141 -72 
L 844 4006 
Q 822 4100 703 4123 
Q 584 4147 409 4147 
Q 347 4147 347 4231 
Q 369 4313 381 4342 
Q 394 4372 453 4372 
L 1978 4372 
Q 2041 4372 2041 4288 
Q 2016 4147 1959 4147 
Q 1447 4147 1416 3969 
L 1644 738 
L 3244 3525 
L 3213 4006 
Q 3191 4100 3072 4123 
Q 2953 4147 2778 4147 
Q 2713 4147 2713 4231 
Q 2734 4313 2746 4342 
Q 2759 4372 2822 4372 
L 4347 4372 
Q 4409 4372 4409 4288 
Q 4406 4272 4397 4234 
Q 4388 4197 4372 4172 
Q 4356 4147 4325 4147 
Q 3809 4147 3781 3969 
L 3781 3922 
L 4013 738 
L 5753 3775 
Q 5791 3844 5791 3909 
Q 5791 4041 5662 4094 
Q 5534 4147 5375 4147 
Q 5313 4147 5313 4231 
Q 5325 4281 5333 4309 
Q 5341 4338 5361 4355 
Q 5381 4372 5422 4372 
L 6644 4372 
Q 6706 4372 6706 4288 
Q 6703 4272 6693 4233 
Q 6684 4194 6667 4170 
Q 6650 4147 6625 4147 
Q 6169 4147 5931 3731 
Q 5913 3713 5913 3713 
L 3744 -72 
Q 3709 -141 3634 -141 
L 3584 -141 
Q 3506 -141 3506 -72 
L 3263 3225 
L 1381 -72 
Q 1334 -141 1269 -141 
L 1216 -141 
Q 1141 -141 1141 -72 
z
" transform="scale(0.015625)"/>
       <path id="Cmr10-73" d="M 213 -19 
L 213 1025 
Q 213 1075 269 1075 
L 347 1075 
Q 384 1075 397 1025 
Q 575 97 1259 97 
Q 1563 97 1767 234 
Q 1972 372 1972 659 
Q 1972 866 1812 1011 
Q 1653 1156 1434 1209 
L 1006 1294 
Q 791 1341 614 1437 
Q 438 1534 325 1695 
Q 213 1856 213 2069 
Q 213 2350 361 2529 
Q 509 2709 746 2789 
Q 984 2869 1259 2869 
Q 1588 2869 1831 2694 
L 2016 2853 
Q 2016 2869 2047 2869 
L 2094 2869 
Q 2113 2869 2128 2851 
Q 2144 2834 2144 2816 
L 2144 1978 
Q 2144 1919 2094 1919 
L 2016 1919 
Q 1959 1919 1959 1978 
Q 1959 2313 1773 2516 
Q 1588 2719 1253 2719 
Q 966 2719 755 2612 
Q 544 2506 544 2247 
Q 544 2069 695 1955 
Q 847 1841 1050 1791 
L 1484 1709 
Q 1703 1659 1892 1540 
Q 2081 1422 2192 1240 
Q 2303 1059 2303 831 
Q 2303 600 2223 429 
Q 2144 259 2001 146 
Q 1859 34 1665 -19 
Q 1472 -72 1259 -72 
Q 859 -72 575 197 
L 341 -56 
Q 341 -72 306 -72 
L 269 -72 
Q 213 -72 213 -19 
z
" transform="scale(0.015625)"/>
       <path id="Cmsy10-21" d="M 481 1472 
Q 428 1472 393 1512 
Q 359 1553 359 1600 
Q 359 1647 393 1687 
Q 428 1728 481 1728 
L 5338 1728 
Q 5094 1903 4906 2133 
Q 4719 2363 4594 2627 
Q 4469 2891 4416 3188 
Q 4416 3272 4481 3272 
L 4609 3272 
Q 4631 3272 4648 3253 
Q 4666 3234 4672 3213 
Q 4725 2938 4839 2702 
Q 4953 2466 5125 2262 
Q 5297 2059 5509 1912 
Q 5722 1766 5991 1672 
Q 6034 1644 6034 1600 
Q 6034 1550 5991 1538 
Q 5656 1422 5378 1192 
Q 5100 963 4919 652 
Q 4738 341 4672 -13 
Q 4666 -34 4647 -53 
Q 4628 -72 4609 -72 
L 4481 -72 
Q 4416 -72 4416 13 
Q 4497 450 4740 836 
Q 4984 1222 5338 1472 
L 481 1472 
z
" transform="scale(0.015625)"/>
       <path id="Cmsy10-31" d="M 1575 -72 
Q 1213 -72 933 140 
Q 653 353 506 690 
Q 359 1028 359 1381 
Q 359 1653 445 1912 
Q 531 2172 693 2378 
Q 856 2584 1086 2706 
Q 1316 2828 1594 2828 
Q 1881 2828 2150 2718 
Q 2419 2609 2642 2428 
Q 2866 2247 3059 2009 
L 3250 1753 
Q 3441 2056 3672 2295 
Q 3903 2534 4195 2681 
Q 4488 2828 4819 2828 
Q 5097 2828 5325 2704 
Q 5553 2581 5712 2368 
Q 5872 2156 5953 1898 
Q 6034 1641 6034 1381 
Q 6034 1019 5882 683 
Q 5731 347 5451 137 
Q 5172 -72 4800 -72 
Q 4381 -72 4004 153 
Q 3628 378 3334 750 
L 3144 1006 
Q 2850 528 2451 228 
Q 2053 -72 1575 -72 
z
M 1509 153 
Q 2322 153 2963 1241 
L 2625 1672 
Q 2331 2059 2078 2278 
Q 1825 2497 1491 2497 
Q 1206 2497 986 2336 
Q 766 2175 645 1915 
Q 525 1656 525 1375 
Q 525 1159 592 942 
Q 659 725 787 547 
Q 916 369 1098 261 
Q 1281 153 1509 153 
z
M 3769 1088 
Q 4063 700 4316 481 
Q 4569 263 4903 263 
Q 5116 263 5294 356 
Q 5472 450 5601 609 
Q 5731 769 5800 969 
Q 5869 1169 5869 1381 
Q 5869 1678 5750 1961 
Q 5631 2244 5407 2425 
Q 5184 2606 4884 2606 
Q 4072 2606 3431 1516 
L 3769 1088 
z
" transform="scale(0.015625)"/>
      </defs>
      <use xlink:href="#Cmmi10-57" transform="translate(0 0.6875)"/>
      <use xlink:href="#Cmr10-73" transform="translate(94.384766 -16.31875) scale(0.7)"/>
      <use xlink:href="#Cmr10-63" transform="translate(121.967773 -16.31875) scale(0.7)"/>
      <use xlink:href="#Cmsy10-21" transform="translate(176.973047 0.6875)"/>
      <use xlink:href="#Cmsy10-31" transform="translate(294.531641 0.6875)"/>
     </g>
    </g>
    <g id="line2d_24">
     <path d="M 186.55806 18.543676 
L 192.34806 18.543676 
L 198.13806 18.543676 
" style="fill: none; stroke: #ff7f0e; stroke-linecap: square"/>
    </g>
    <g id="text_9">
     <!-- $W_\mathrm{sc}=$1.2μm -->
     <g transform="translate(202.77006 20.570176) scale(0.0579 -0.0579)">
      <defs>
       <path id="Cmr10-3d" d="M 481 850 
Q 428 850 393 890 
Q 359 931 359 978 
Q 359 1031 393 1068 
Q 428 1106 481 1106 
L 4500 1106 
Q 4547 1106 4581 1068 
Q 4616 1031 4616 978 
Q 4616 931 4581 890 
Q 4547 850 4500 850 
L 481 850 
z
M 481 2094 
Q 428 2094 393 2131 
Q 359 2169 359 2222 
Q 359 2269 393 2309 
Q 428 2350 481 2350 
L 4500 2350 
Q 4547 2350 4581 2309 
Q 4616 2269 4616 2222 
Q 4616 2169 4581 2131 
Q 4547 2094 4500 2094 
L 481 2094 
z
" transform="scale(0.015625)"/>
       <path id="ArialMT-2e" d="M 581 0 
L 581 641 
L 1222 641 
L 1222 0 
L 581 0 
z
" transform="scale(0.015625)"/>
       <path id="ArialMT-6d" d="M 422 0 
L 422 3319 
L 925 3319 
L 925 2853 
Q 1081 3097 1340 3245 
Q 1600 3394 1931 3394 
Q 2300 3394 2536 3241 
Q 2772 3088 2869 2813 
Q 3263 3394 3894 3394 
Q 4388 3394 4653 3120 
Q 4919 2847 4919 2278 
L 4919 0 
L 4359 0 
L 4359 2091 
Q 4359 2428 4304 2576 
Q 4250 2725 4106 2815 
Q 3963 2906 3769 2906 
Q 3419 2906 3187 2673 
Q 2956 2441 2956 1928 
L 2956 0 
L 2394 0 
L 2394 2156 
Q 2394 2531 2256 2718 
Q 2119 2906 1806 2906 
Q 1569 2906 1367 2781 
Q 1166 2656 1075 2415 
Q 984 2175 984 1722 
L 984 0 
L 422 0 
z
" transform="scale(0.015625)"/>
      </defs>
      <use xlink:href="#Cmmi10-57" transform="translate(0 0.125)"/>
      <use xlink:href="#Cmr10-73" transform="translate(94.384766 -16.88125) scale(0.7)"/>
      <use xlink:href="#Cmr10-63" transform="translate(121.967773 -16.88125) scale(0.7)"/>
      <use xlink:href="#Cmr10-3d" transform="translate(176.973047 0.125)"/>
      <use xlink:href="#ArialMT-31" transform="translate(272.217188 0.125)"/>
      <use xlink:href="#ArialMT-2e" transform="translate(327.832422 0.125)"/>
      <use xlink:href="#ArialMT-32" transform="translate(355.615625 0.125)"/>
      <use xlink:href="#ArialMT-3bc" transform="translate(411.230859 0.125)"/>
      <use xlink:href="#ArialMT-6d" transform="translate(468.848047 0.125)"/>
     </g>
    </g>
    <g id="line2d_25">
     <path d="M 186.55806 26.765476 
L 192.34806 26.765476 
L 198.13806 26.765476 
" style="fill: none; stroke: #2ca02c; stroke-linecap: square"/>
    </g>
    <g id="text_10">
     <!-- $W_\mathrm{sc}=$0.9μm -->
     <g transform="translate(202.77006 28.791976) scale(0.0579 -0.0579)">
      <defs>
       <path id="ArialMT-39" d="M 350 1059 
L 891 1109 
Q 959 728 1153 556 
Q 1347 384 1650 384 
Q 1909 384 2104 503 
Q 2300 622 2425 820 
Q 2550 1019 2634 1356 
Q 2719 1694 2719 2044 
Q 2719 2081 2716 2156 
Q 2547 1888 2255 1720 
Q 1963 1553 1622 1553 
Q 1053 1553 659 1965 
Q 266 2378 266 3053 
Q 266 3750 677 4175 
Q 1088 4600 1706 4600 
Q 2153 4600 2523 4359 
Q 2894 4119 3086 3673 
Q 3278 3228 3278 2384 
Q 3278 1506 3087 986 
Q 2897 466 2520 194 
Q 2144 -78 1638 -78 
Q 1100 -78 759 220 
Q 419 519 350 1059 
z
M 2653 3081 
Q 2653 3566 2395 3850 
Q 2138 4134 1775 4134 
Q 1400 4134 1122 3828 
Q 844 3522 844 3034 
Q 844 2597 1108 2323 
Q 1372 2050 1759 2050 
Q 2150 2050 2401 2323 
Q 2653 2597 2653 3081 
z
" transform="scale(0.015625)"/>
      </defs>
      <use xlink:href="#Cmmi10-57" transform="translate(0 0.125)"/>
      <use xlink:href="#Cmr10-73" transform="translate(94.384766 -16.88125) scale(0.7)"/>
      <use xlink:href="#Cmr10-63" transform="translate(121.967773 -16.88125) scale(0.7)"/>
      <use xlink:href="#Cmr10-3d" transform="translate(176.973047 0.125)"/>
      <use xlink:href="#ArialMT-30" transform="translate(272.217188 0.125)"/>
      <use xlink:href="#ArialMT-2e" transform="translate(327.832422 0.125)"/>
      <use xlink:href="#ArialMT-39" transform="translate(355.615625 0.125)"/>
      <use xlink:href="#ArialMT-3bc" transform="translate(411.230859 0.125)"/>
      <use xlink:href="#ArialMT-6d" transform="translate(468.848047 0.125)"/>
     </g>
    </g>
    <g id="line2d_26">
     <path d="M 186.55806 34.987276 
L 192.34806 34.987276 
L 198.13806 34.987276 
" style="fill: none; stroke: #1f77b4; stroke-linecap: square"/>
    </g>
    <g id="text_11">
     <!-- $W_\mathrm{sc}=$0.6μm -->
     <g transform="translate(202.77006 37.013776) scale(0.0579 -0.0579)">
      <defs>
       <path id="ArialMT-36" d="M 3184 3459 
L 2625 3416 
Q 2550 3747 2413 3897 
Q 2184 4138 1850 4138 
Q 1581 4138 1378 3988 
Q 1113 3794 959 3422 
Q 806 3050 800 2363 
Q 1003 2672 1297 2822 
Q 1591 2972 1913 2972 
Q 2475 2972 2870 2558 
Q 3266 2144 3266 1488 
Q 3266 1056 3080 686 
Q 2894 316 2569 119 
Q 2244 -78 1831 -78 
Q 1128 -78 684 439 
Q 241 956 241 2144 
Q 241 3472 731 4075 
Q 1159 4600 1884 4600 
Q 2425 4600 2770 4297 
Q 3116 3994 3184 3459 
z
M 888 1484 
Q 888 1194 1011 928 
Q 1134 663 1356 523 
Q 1578 384 1822 384 
Q 2178 384 2434 671 
Q 2691 959 2691 1453 
Q 2691 1928 2437 2201 
Q 2184 2475 1800 2475 
Q 1419 2475 1153 2201 
Q 888 1928 888 1484 
z
" transform="scale(0.015625)"/>
      </defs>
      <use xlink:href="#Cmmi10-57" transform="translate(0 0.125)"/>
      <use xlink:href="#Cmr10-73" transform="translate(94.384766 -16.88125) scale(0.7)"/>
      <use xlink:href="#Cmr10-63" transform="translate(121.967773 -16.88125) scale(0.7)"/>
      <use xlink:href="#Cmr10-3d" transform="translate(176.973047 0.125)"/>
      <use xlink:href="#ArialMT-30" transform="translate(272.217188 0.125)"/>
      <use xlink:href="#ArialMT-2e" transform="translate(327.832422 0.125)"/>
      <use xlink:href="#ArialMT-36" transform="translate(355.615625 0.125)"/>
      <use xlink:href="#ArialMT-3bc" transform="translate(411.230859 0.125)"/>
      <use xlink:href="#ArialMT-6d" transform="translate(468.848047 0.125)"/>
     </g>
    </g>
    <g id="line2d_27">
     <path d="M 186.55806 43.209076 
L 192.34806 43.209076 
L 198.13806 43.209076 
" style="fill: none; stroke: #9467bd; stroke-linecap: square"/>
    </g>
    <g id="text_12">
     <!-- $W_\mathrm{sc}=$0.3μm -->
     <g transform="translate(202.77006 45.235576) scale(0.0579 -0.0579)">
      <use xlink:href="#Cmmi10-57" transform="translate(0 0.125)"/>
      <use xlink:href="#Cmr10-73" transform="translate(94.384766 -16.88125) scale(0.7)"/>
      <use xlink:href="#Cmr10-63" transform="translate(121.967773 -16.88125) scale(0.7)"/>
      <use xlink:href="#Cmr10-3d" transform="translate(176.973047 0.125)"/>
      <use xlink:href="#ArialMT-30" transform="translate(272.217188 0.125)"/>
      <use xlink:href="#ArialMT-2e" transform="translate(327.832422 0.125)"/>
      <use xlink:href="#ArialMT-33" transform="translate(355.615625 0.125)"/>
      <use xlink:href="#ArialMT-3bc" transform="translate(411.230859 0.125)"/>
      <use xlink:href="#ArialMT-6d" transform="translate(468.848047 0.125)"/>
     </g>
    </g>
   </g>
   <g id="line2d_28">
    <path d="M 102.040491 51.469293 
L 104.963357 50.790807 
L 107.886223 49.123643 
L 110.809088 46.478128 
L 113.731954 43.522973 
L 114.901101 42.756069 
L 116.070247 42.37939 
L 117.239393 42.231041 
L 118.40854 42.090019 
L 119.577686 41.868971 
L 120.746832 41.493479 
L 121.915979 40.687988 
L 123.085125 39.275216 
L 124.254271 36.771728 
L 125.423418 32.73666 
L 126.592564 27.114047 
L 127.76171 21.642173 
L 128.930857 20.054528 
L 130.100003 23.766759 
L 131.26915 30.350221 
L 132.438296 36.97561 
L 133.607442 42.752174 
L 134.776589 47.56614 
L 135.945735 50.948147 
L 137.114881 53.990975 
L 139.453174 61.756648 
L 140.62232 66.050581 
L 141.791467 70.002564 
L 142.960613 73.36231 
L 144.129759 76.439901 
L 145.298906 79.015864 
L 146.468052 81.713373 
L 147.637198 84.165868 
L 148.806345 85.973078 
L 149.975491 87.440922 
L 151.144637 88.336157 
L 152.313784 88.785494 
L 153.48293 88.693421 
L 154.652076 87.873278 
L 155.821223 86.075146 
L 156.990369 83.609736 
L 158.159516 80.562887 
L 159.328662 77.487257 
L 160.497808 75.251225 
L 163.420674 71.637746 
L 166.34354 69.148758 
L 169.266406 67.401047 
L 172.189272 66.447261 
L 175.112138 65.95646 
L 178.035003 65.360964 
L 180.957869 64.498644 
L 183.880735 63.415302 
L 186.803601 62.397096 
L 189.726467 61.799519 
L 192.649333 61.694809 
L 195.572199 61.889883 
L 198.495065 62.005261 
L 201.41793 61.755915 
L 204.340796 61.203156 
L 207.263662 60.563119 
L 210.186528 59.97922 
L 213.109394 59.606941 
L 216.03226 59.521608 
L 218.955126 59.558714 
L 221.877992 59.593043 
L 224.800857 59.528811 
L 230.646589 59.349341 
" clip-path="url(#pc9a72d5477)" style="fill: none; stroke: #2ca02c; stroke-linecap: square"/>
   </g>
   <g id="line2d_29">
    <path d="M 43.583173 57.222385 
L 49.428905 57.389891 
L 55.274637 57.614482 
L 61.120369 57.396754 
L 66.9661 56.393416 
L 72.811832 55.226037 
L 78.657564 54.944324 
L 84.503296 55.417841 
L 90.349027 55.374403 
L 93.271893 55.100177 
L 96.194759 54.562246 
L 99.117625 53.177808 
L 102.040491 51.48955 
L 104.963357 49.738924 
L 107.886223 47.948838 
L 110.809088 46.468513 
L 113.731954 45.912002 
L 116.65482 44.743459 
L 119.577686 42.646934 
L 122.500552 41.361398 
L 125.423418 40.278807 
L 128.346284 41.425672 
L 131.26915 46.352308 
L 134.192015 51.782417 
L 137.114881 57.145482 
L 140.037747 62.458031 
L 142.960613 68.055418 
L 145.883479 71.778763 
L 148.806345 73.570109 
L 151.729211 75.400293 
L 154.652076 76.457102 
L 157.574942 76.786363 
L 160.497808 75.349427 
L 163.420674 72.898864 
L 166.34354 70.207243 
L 169.266406 67.525714 
L 172.189272 65.518505 
L 175.112138 63.837223 
L 178.035003 62.565916 
L 180.957869 61.914981 
L 183.880735 61.596655 
L 186.803601 61.724385 
L 189.726467 61.840838 
L 192.649333 62.158699 
L 195.572199 62.430005 
L 198.495065 62.418382 
L 201.41793 61.972598 
L 204.340796 61.145249 
L 207.263662 60.465871 
L 213.109394 59.663635 
L 218.955126 59.376949 
L 224.800857 59.606388 
L 230.646589 59.780873 
" clip-path="url(#pc9a72d5477)" style="fill: none; stroke: #1f77b4; stroke-linecap: square"/>
   </g>
   <g id="line2d_30">
    <path d="M 66.9661 56.813755 
L 69.888966 56.347942 
L 72.811832 55.415021 
L 75.734698 54.419887 
L 78.657564 53.464262 
L 81.58043 52.861471 
L 84.503296 52.502715 
L 87.426161 52.321837 
L 90.349027 52.256673 
L 93.271893 52.128855 
L 96.194759 52.009051 
L 99.117625 51.855521 
L 102.040491 51.687138 
L 104.963357 51.544657 
L 107.886223 51.460287 
L 110.809088 51.355313 
L 113.731954 51.004136 
L 116.65482 50.813988 
L 119.577686 50.264166 
L 120.746832 50.179353 
L 121.915979 50.843503 
L 123.085125 50.955504 
L 124.254271 50.810509 
L 125.423418 51.212863 
L 126.592564 51.523707 
L 127.76171 52.046748 
L 128.930857 53.19058 
L 130.100003 54.190086 
L 131.26915 54.788149 
L 132.438296 55.503829 
L 133.607442 56.80221 
L 134.776589 57.951684 
L 135.945735 58.272206 
L 137.114881 58.561676 
L 138.284028 57.11101 
L 139.453174 56.759966 
L 140.62232 58.81712 
L 141.791467 60.520278 
L 142.960613 61.475217 
L 144.129759 61.711668 
L 145.298906 62.622805 
L 146.468052 63.644536 
L 147.637198 64.442008 
L 148.806345 65.221937 
L 149.975491 64.965845 
L 151.144637 65.113509 
L 152.313784 64.993157 
L 153.48293 64.781618 
L 154.652076 65.462979 
L 157.574942 65.690391 
L 160.497808 65.665289 
L 163.420674 65.903191 
L 166.34354 66.091169 
L 169.266406 66.221777 
L 172.189272 66.296765 
L 175.112138 66.134473 
L 178.035003 66.045369 
L 180.957869 65.815412 
L 183.880735 65.559042 
L 186.803601 65.457853 
L 189.726467 65.166084 
L 192.649333 64.671283 
L 195.572199 63.985782 
L 198.495065 62.952491 
L 201.41793 61.8937 
L 204.340796 61.148692 
L 207.263662 60.388331 
L 210.186528 59.554306 
L 213.109394 59.085474 
L 216.03226 58.444709 
L 218.955126 58.644681 
L 221.877992 58.906714 
L 224.800857 58.547603 
L 227.723723 58.575274 
L 230.646589 58.542308 
" clip-path="url(#pc9a72d5477)" style="fill: none; stroke: #9467bd; stroke-linecap: square"/>
   </g>
  </g>
  <g id="axes_2">
   <g id="patch_8">
    <path d="M 34.230003 214.481715 
L 239.99976 214.481715 
L 239.99976 111.741217 
L 34.230003 111.741217 
L 34.230003 214.481715 
z
" style="fill: none"/>
   </g>
   <g id="matplotlib.axis_3">
    <g id="xtick_8">
     <g id="line2d_31">
      <g>
       <use xlink:href="#m1b42745986" x="49.428905" y="214.481715" style="stroke: #000000; stroke-width: 0.5"/>
      </g>
     </g>
     <g id="text_13">
      <!-- −0.75 -->
      <g transform="translate(38.890804 223.944173) scale(0.0833 -0.0833)">
       <defs>
        <path id="ArialMT-37" d="M 303 3981 
L 303 4522 
L 3269 4522 
L 3269 4084 
Q 2831 3619 2401 2847 
Q 1972 2075 1738 1259 
Q 1569 684 1522 0 
L 944 0 
Q 953 541 1156 1306 
Q 1359 2072 1739 2783 
Q 2119 3494 2547 3981 
L 303 3981 
z
" transform="scale(0.015625)"/>
        <path id="ArialMT-35" d="M 266 1200 
L 856 1250 
Q 922 819 1161 601 
Q 1400 384 1738 384 
Q 2144 384 2425 690 
Q 2706 997 2706 1503 
Q 2706 1984 2436 2262 
Q 2166 2541 1728 2541 
Q 1456 2541 1237 2417 
Q 1019 2294 894 2097 
L 366 2166 
L 809 4519 
L 3088 4519 
L 3088 3981 
L 1259 3981 
L 1013 2750 
Q 1425 3038 1878 3038 
Q 2478 3038 2890 2622 
Q 3303 2206 3303 1553 
Q 3303 931 2941 478 
Q 2500 -78 1738 -78 
Q 1113 -78 717 272 
Q 322 622 266 1200 
z
" transform="scale(0.015625)"/>
       </defs>
       <use xlink:href="#ArialMT-2212"/>
       <use xlink:href="#ArialMT-30" x="58.398438"/>
       <use xlink:href="#ArialMT-2e" x="114.013672"/>
       <use xlink:href="#ArialMT-37" x="141.796875"/>
       <use xlink:href="#ArialMT-35" x="197.412109"/>
      </g>
     </g>
    </g>
    <g id="xtick_9">
     <g id="line2d_32">
      <g>
       <use xlink:href="#m1b42745986" x="78.657564" y="214.481715" style="stroke: #000000; stroke-width: 0.5"/>
      </g>
     </g>
     <g id="text_14">
      <!-- −0.50 -->
      <g transform="translate(68.119463 223.944173) scale(0.0833 -0.0833)">
       <use xlink:href="#ArialMT-2212"/>
       <use xlink:href="#ArialMT-30" x="58.398438"/>
       <use xlink:href="#ArialMT-2e" x="114.013672"/>
       <use xlink:href="#ArialMT-35" x="141.796875"/>
       <use xlink:href="#ArialMT-30" x="197.412109"/>
      </g>
     </g>
    </g>
    <g id="xtick_10">
     <g id="line2d_33">
      <g>
       <use xlink:href="#m1b42745986" x="107.886223" y="214.481715" style="stroke: #000000; stroke-width: 0.5"/>
      </g>
     </g>
     <g id="text_15">
      <!-- −0.25 -->
      <g transform="translate(97.348122 223.944173) scale(0.0833 -0.0833)">
       <use xlink:href="#ArialMT-2212"/>
       <use xlink:href="#ArialMT-30" x="58.398438"/>
       <use xlink:href="#ArialMT-2e" x="114.013672"/>
       <use xlink:href="#ArialMT-32" x="141.796875"/>
       <use xlink:href="#ArialMT-35" x="197.412109"/>
      </g>
     </g>
    </g>
    <g id="xtick_11">
     <g id="line2d_34">
      <g>
       <use xlink:href="#m1b42745986" x="137.114881" y="214.481715" style="stroke: #000000; stroke-width: 0.5"/>
      </g>
     </g>
     <g id="text_16">
      <!-- 0.00 -->
      <g transform="translate(129.009401 223.944173) scale(0.0833 -0.0833)">
       <use xlink:href="#ArialMT-30"/>
       <use xlink:href="#ArialMT-2e" x="55.615234"/>
       <use xlink:href="#ArialMT-30" x="83.398438"/>
       <use xlink:href="#ArialMT-30" x="139.013672"/>
      </g>
     </g>
    </g>
    <g id="xtick_12">
     <g id="line2d_35">
      <g>
       <use xlink:href="#m1b42745986" x="166.34354" y="214.481715" style="stroke: #000000; stroke-width: 0.5"/>
      </g>
     </g>
     <g id="text_17">
      <!-- 0.25 -->
      <g transform="translate(158.23806 223.944173) scale(0.0833 -0.0833)">
       <use xlink:href="#ArialMT-30"/>
       <use xlink:href="#ArialMT-2e" x="55.615234"/>
       <use xlink:href="#ArialMT-32" x="83.398438"/>
       <use xlink:href="#ArialMT-35" x="139.013672"/>
      </g>
     </g>
    </g>
    <g id="xtick_13">
     <g id="line2d_36">
      <g>
       <use xlink:href="#m1b42745986" x="195.572199" y="214.481715" style="stroke: #000000; stroke-width: 0.5"/>
      </g>
     </g>
     <g id="text_18">
      <!-- 0.50 -->
      <g transform="translate(187.466718 223.944173) scale(0.0833 -0.0833)">
       <use xlink:href="#ArialMT-30"/>
       <use xlink:href="#ArialMT-2e" x="55.615234"/>
       <use xlink:href="#ArialMT-35" x="83.398438"/>
       <use xlink:href="#ArialMT-30" x="139.013672"/>
      </g>
     </g>
    </g>
    <g id="xtick_14">
     <g id="line2d_37">
      <g>
       <use xlink:href="#m1b42745986" x="224.800857" y="214.481715" style="stroke: #000000; stroke-width: 0.5"/>
      </g>
     </g>
     <g id="text_19">
      <!-- 0.75 -->
      <g transform="translate(216.695377 223.944173) scale(0.0833 -0.0833)">
       <use xlink:href="#ArialMT-30"/>
       <use xlink:href="#ArialMT-2e" x="55.615234"/>
       <use xlink:href="#ArialMT-37" x="83.398438"/>
       <use xlink:href="#ArialMT-35" x="139.013672"/>
      </g>
     </g>
    </g>
    <g id="text_20">
     <!-- $B_\parallel$ (T) -->
     <g transform="translate(122.164881 236.89976) scale(0.1 -0.1)">
      <defs>
       <path id="STIXGeneral-Regular-2225" d="M 2522 -1210 
L 2099 -1210 
L 2099 4416 
L 2522 4416 
L 2522 -1210 
z
M 1248 -1210 
L 826 -1210 
L 826 4416 
L 1248 4416 
L 1248 -1210 
z
" transform="scale(0.015625)"/>
      </defs>
      <use xlink:href="#Cmmi10-42" transform="translate(0 0.203125)"/>
      <use xlink:href="#STIXGeneral-Regular-2225" transform="translate(88.072266 -16.803125) scale(0.7)"/>
      <use xlink:href="#ArialMT-20" transform="translate(143.350616 0.203125)"/>
      <use xlink:href="#ArialMT-28" transform="translate(171.13382 0.203125)"/>
      <use xlink:href="#ArialMT-54" transform="translate(204.434601 0.203125)"/>
      <use xlink:href="#ArialMT-29" transform="translate(265.518585 0.203125)"/>
     </g>
    </g>
   </g>
   <g id="matplotlib.axis_4">
    <g id="ytick_7">
     <g id="line2d_38">
      <g>
       <use xlink:href="#mbe282a2514" x="34.230003" y="197.029205" style="stroke: #000000; stroke-width: 0.5"/>
      </g>
     </g>
     <g id="text_21">
      <!-- −20 -->
      <g transform="translate(16.60024 200.010434) scale(0.0833 -0.0833)">
       <use xlink:href="#ArialMT-2212"/>
       <use xlink:href="#ArialMT-32" x="58.398438"/>
       <use xlink:href="#ArialMT-30" x="114.013672"/>
      </g>
     </g>
    </g>
    <g id="ytick_8">
     <g id="line2d_39">
      <g>
       <use xlink:href="#mbe282a2514" x="34.230003" y="166.124189" style="stroke: #000000; stroke-width: 0.5"/>
      </g>
     </g>
     <g id="text_22">
      <!-- 0 -->
      <g transform="translate(26.097742 169.105418) scale(0.0833 -0.0833)">
       <use xlink:href="#ArialMT-30"/>
      </g>
     </g>
    </g>
    <g id="ytick_9">
     <g id="line2d_40">
      <g>
       <use xlink:href="#mbe282a2514" x="34.230003" y="135.219174" style="stroke: #000000; stroke-width: 0.5"/>
      </g>
     </g>
     <g id="text_23">
      <!-- 20 -->
      <g transform="translate(21.465481 138.200402) scale(0.0833 -0.0833)">
       <use xlink:href="#ArialMT-32"/>
       <use xlink:href="#ArialMT-30" x="55.615234"/>
      </g>
     </g>
    </g>
    <g id="text_24">
     <!-- $\partial_B I_{\mathrm{c}-}$ (μA/T) -->
     <g transform="translate(10.40024 192.061466) rotate(-90) scale(0.1 -0.1)">
      <defs>
       <path id="Cmsy10-a1" d="M 653 1472 
Q 600 1472 565 1512 
Q 531 1553 531 1600 
Q 531 1647 565 1687 
Q 600 1728 653 1728 
L 4325 1728 
Q 4375 1728 4408 1687 
Q 4441 1647 4441 1600 
Q 4441 1553 4408 1512 
Q 4375 1472 4325 1472 
L 653 1472 
z
" transform="scale(0.015625)"/>
      </defs>
      <use xlink:href="#STIXGeneral-Regular-2202" transform="translate(0 0.203125)"/>
      <use xlink:href="#Cmmi10-42" transform="translate(51.564131 -16.803125) scale(0.7)"/>
      <use xlink:href="#Cmmi10-49" transform="translate(110.98835 0.203125)"/>
      <use xlink:href="#Cmr10-63" transform="translate(154.884835 -16.803125) scale(0.7)"/>
      <use xlink:href="#Cmsy10-a1" transform="translate(198.245186 -16.803125) scale(0.7)"/>
      <use xlink:href="#ArialMT-20" transform="translate(271.293428 0.203125)"/>
      <use xlink:href="#ArialMT-28" transform="translate(299.076631 0.203125)"/>
      <use xlink:href="#ArialMT-3bc" transform="translate(332.377413 0.203125)"/>
      <use xlink:href="#ArialMT-41" transform="translate(389.9946 0.203125)"/>
      <use xlink:href="#ArialMT-2f" transform="translate(456.693819 0.203125)"/>
      <use xlink:href="#ArialMT-54" transform="translate(484.477022 0.203125)"/>
      <use xlink:href="#ArialMT-29" transform="translate(545.561006 0.203125)"/>
     </g>
    </g>
   </g>
   <g id="line2d_41">
    <path d="M 34.230003 166.124189 
L 239.99976 166.124189 
" clip-path="url(#p4b94bbb363)" style="fill: none; stroke: #808080; stroke-width: 0.5; stroke-linecap: square"/>
   </g>
   <g id="line2d_42">
    <path d="M 137.114881 214.481715 
L 137.114881 111.741217 
" clip-path="url(#p4b94bbb363)" style="fill: none; stroke: #808080; stroke-width: 0.5; stroke-linecap: square"/>
   </g>
   <g id="patch_9">
    <path d="M 34.230003 214.481715 
L 34.230003 111.741217 
" style="fill: none; stroke: #000000; stroke-width: 0.5; stroke-linejoin: miter; stroke-linecap: square"/>
   </g>
   <g id="patch_10">
    <path d="M 239.99976 214.481715 
L 239.99976 111.741217 
" style="fill: none; stroke: #000000; stroke-width: 0.5; stroke-linejoin: miter; stroke-linecap: square"/>
   </g>
   <g id="patch_11">
    <path d="M 34.230003 214.481715 
L 239.99976 214.481715 
" style="fill: none; stroke: #000000; stroke-width: 0.5; stroke-linejoin: miter; stroke-linecap: square"/>
   </g>
   <g id="patch_12">
    <path d="M 34.230003 111.741217 
L 239.99976 111.741217 
" style="fill: none; stroke: #000000; stroke-width: 0.5; stroke-linejoin: miter; stroke-linecap: square"/>
   </g>
   <g id="line2d_43">
    <path d="M 96.194759 174.361765 
L 96.779332 173.945811 
L 97.363905 173.699775 
L 97.948479 173.604192 
L 98.533052 173.6396 
L 99.702198 174.025538 
L 101.455918 175.077358 
L 104.963357 177.272006 
L 106.132503 177.961251 
L 108.470796 180.20492 
L 111.978235 183.735537 
L 113.731954 186.073715 
L 114.316527 187.057869 
L 118.40854 195.695144 
L 119.577686 198.925674 
L 121.915979 206.11144 
L 122.500552 207.792637 
L 123.085125 209.122744 
L 123.669698 209.803197 
L 124.254271 209.811692 
L 124.838845 209.043642 
L 125.423418 207.317634 
L 126.007991 204.90944 
L 127.177137 198.561263 
L 129.51543 184.235253 
L 130.684576 179.927293 
L 131.853723 176.841085 
L 133.022869 174.12304 
L 134.192015 170.113003 
L 134.776589 167.623099 
L 135.945735 160.248851 
L 138.284028 143.167004 
L 140.037747 128.24212 
L 141.206893 120.792142 
L 141.791467 118.270818 
L 142.37604 116.863979 
L 142.960613 116.41124 
L 143.545186 117.095132 
L 144.129759 119.232458 
L 144.714333 122.538148 
L 146.468052 134.054586 
L 147.637198 140.064992 
L 148.806345 144.578614 
L 149.390918 146.007296 
L 149.975491 146.900198 
L 151.144637 147.609465 
L 152.313784 148.196819 
L 153.48293 148.418063 
L 154.067503 148.414823 
L 155.23665 148.178734 
L 155.821223 148.240821 
L 156.405796 148.574059 
L 157.574942 149.673882 
L 159.328662 151.745318 
L 160.497808 153.038066 
L 161.666955 153.979672 
L 162.251528 154.336448 
L 164.005247 154.891572 
L 167.512686 156.602419 
L 169.850979 158.074255 
L 170.435552 158.358147 
L 171.020125 158.41624 
L 172.189272 158.275309 
L 173.358418 158.371572 
L 173.942991 158.651886 
L 174.527564 159.107225 
L 175.112138 159.724408 
L 176.281284 161.417257 
L 177.45043 163.108197 
L 178.035003 163.722007 
L 178.619577 163.944495 
L 179.20415 163.677931 
L 182.711589 161.084013 
L 183.296162 160.978146 
L 183.880735 161.011663 
L 185.049882 161.408348 
L 186.219028 161.843126 
L 190.895613 162.409115 
L 194.403052 162.931588 
L 198.495065 163.182701 
L 202.587077 163.591961 
L 209.601955 163.885451 
L 221.293418 164.869764 
L 224.216284 164.947963 
L 230.062016 165.065402 
L 230.062016 165.065402 
" clip-path="url(#p4b94bbb363)" style="fill: none; stroke: #d62728; stroke-linecap: square"/>
   </g>
   <g id="line2d_44">
    <path d="M 102.040491 173.808579 
L 104.378783 174.590872 
L 106.717076 176.015048 
L 109.055369 177.20423 
L 111.393662 178.57643 
L 113.731954 180.414437 
L 116.070247 182.734079 
L 118.40854 186.355091 
L 120.746832 190.920242 
L 123.085125 193.296182 
L 125.423418 192.912706 
L 127.76171 190.639607 
L 130.100003 186.319224 
L 132.438296 181.723715 
L 134.776589 171.285971 
L 137.114881 161.082805 
L 139.453174 153.639349 
L 141.791467 142.044704 
L 144.129759 133.580533 
L 146.468052 136.495513 
L 148.806345 144.528904 
L 151.144637 147.845809 
L 153.48293 148.729153 
L 155.821223 149.309025 
L 158.159516 151.329661 
L 160.497808 153.757189 
L 162.836101 155.282393 
L 165.174394 156.652664 
L 167.512686 157.668524 
L 169.850979 158.597066 
L 172.189272 159.481904 
L 174.527564 160.160718 
L 176.865857 160.829253 
L 179.20415 161.213052 
L 181.542443 161.481205 
L 183.880735 161.856041 
L 189.726467 162.865984 
L 195.572199 163.577852 
L 201.41793 163.858609 
L 207.263662 164.340772 
L 213.109394 164.691721 
L 218.955126 164.752416 
L 224.800857 164.981742 
L 230.646589 165.138843 
" clip-path="url(#p4b94bbb363)" style="fill: none; stroke: #ff7f0e; stroke-linecap: square"/>
   </g>
   <g id="line2d_45">
    <path d="M 102.040491 173.174982 
L 104.963357 173.879925 
L 107.886223 175.540011 
L 110.809088 177.832372 
L 113.731954 180.92577 
L 114.901101 182.916009 
L 116.070247 185.582825 
L 117.239393 188.322685 
L 118.40854 190.594696 
L 119.577686 192.152454 
L 120.746832 192.958429 
L 121.915979 193.047713 
L 123.085125 192.561575 
L 124.254271 191.740506 
L 125.423418 190.441336 
L 126.592564 188.852973 
L 127.76171 186.945734 
L 128.930857 184.68456 
L 130.100003 182.374511 
L 131.26915 179.890432 
L 132.438296 177.079539 
L 133.607442 173.693639 
L 134.776589 170.025292 
L 135.945735 166.604397 
L 137.114881 163.466146 
L 139.453174 156.889013 
L 140.62232 152.875841 
L 141.791467 147.749065 
L 142.960613 141.762462 
L 144.129759 135.350472 
L 145.298906 131.167808 
L 146.468052 131.767124 
L 147.637198 136.339127 
L 148.806345 141.886077 
L 149.975491 146.014413 
L 151.144637 148.457678 
L 152.313784 149.848321 
L 153.48293 150.657893 
L 154.652076 151.024761 
L 155.821223 151.149412 
L 156.990369 151.351248 
L 158.159516 151.473804 
L 159.328662 151.760186 
L 160.497808 152.590337 
L 163.420674 155.196013 
L 166.34354 157.586677 
L 169.266406 158.970072 
L 172.189272 159.702322 
L 175.112138 160.273218 
L 178.035003 160.749362 
L 180.957869 161.274887 
L 183.880735 162.038682 
L 186.803601 162.833054 
L 189.726467 163.298063 
L 192.649333 163.364929 
L 195.572199 163.18269 
L 198.495065 163.082426 
L 201.41793 163.288384 
L 204.340796 163.765859 
L 207.263662 164.351731 
L 210.186528 164.868809 
L 213.109394 165.165233 
L 216.03226 165.260071 
L 218.955126 165.218189 
L 221.877992 165.1592 
L 224.800857 165.228164 
L 230.646589 165.366178 
" clip-path="url(#p4b94bbb363)" style="fill: none; stroke: #2ca02c; stroke-linecap: square"/>
   </g>
   <g id="line2d_46">
    <path d="M 43.583173 167.274976 
L 49.428905 167.118808 
L 55.274637 166.932252 
L 61.120369 167.133719 
L 66.9661 168.033876 
L 72.811832 169.189229 
L 78.657564 169.538369 
L 84.503296 169.059045 
L 90.349027 169.03522 
L 93.271893 169.313944 
L 96.194759 169.850706 
L 99.117625 171.128301 
L 102.040491 172.694225 
L 104.963357 174.570905 
L 107.886223 177.176706 
L 110.809088 179.900355 
L 113.731954 181.191801 
L 116.65482 182.052713 
L 119.577686 182.3641 
L 122.500552 181.269124 
L 125.423418 179.575039 
L 128.346284 177.125288 
L 131.26915 173.655039 
L 134.192015 169.362569 
L 137.114881 164.797658 
L 140.037747 159.785537 
L 142.960613 153.505604 
L 145.883479 150.189132 
L 148.806345 150.054127 
L 151.729211 150.642088 
L 154.652076 152.237961 
L 157.574942 153.399516 
L 160.497808 154.635651 
L 163.420674 155.688563 
L 166.34354 156.748337 
L 169.266406 158.416692 
L 172.189272 160.03661 
L 175.112138 161.514263 
L 178.035003 162.656577 
L 180.957869 163.184397 
L 183.880735 163.443604 
L 186.803601 163.333115 
L 189.726467 163.254999 
L 192.649333 163.031787 
L 195.572199 162.837203 
L 198.495065 162.788043 
L 201.41793 163.074813 
L 204.340796 163.766458 
L 207.263662 164.367096 
L 213.109394 165.096385 
L 218.955126 165.342319 
L 224.800857 165.135522 
L 230.646589 164.977974 
" clip-path="url(#p4b94bbb363)" style="fill: none; stroke: #1f77b4; stroke-linecap: square"/>
   </g>
   <g id="line2d_47">
    <path d="M 66.9661 167.879331 
L 69.888966 168.280728 
L 72.811832 169.172868 
L 75.734698 170.171173 
L 78.657564 171.050326 
L 81.58043 171.615091 
L 84.503296 171.982992 
L 87.426161 172.251133 
L 90.349027 172.488177 
L 93.271893 172.645942 
L 96.194759 172.783213 
L 99.117625 172.975651 
L 102.040491 173.119999 
L 104.963357 173.055194 
L 107.886223 172.797494 
L 110.809088 172.705859 
L 113.731954 172.526768 
L 116.65482 172.520791 
L 119.577686 172.450244 
L 120.746832 172.087996 
L 121.915979 172.263051 
L 123.085125 172.326246 
L 124.254271 171.802024 
L 125.423418 171.551039 
L 126.592564 171.402621 
L 127.76171 171.166757 
L 128.930857 169.930163 
L 130.100003 168.959537 
L 131.26915 168.094529 
L 132.438296 167.276821 
L 133.607442 166.425277 
L 134.776589 165.214142 
L 135.945735 164.630148 
L 137.114881 164.762232 
L 138.284028 165.926956 
L 139.453174 165.906877 
L 140.62232 164.848994 
L 141.791467 163.667215 
L 142.960613 162.450845 
L 144.129759 162.081006 
L 145.298906 161.430161 
L 146.468052 160.630123 
L 147.637198 160.05224 
L 148.806345 159.421528 
L 149.975491 159.243867 
L 151.144637 158.670007 
L 152.313784 159.04763 
L 153.48293 159.563008 
L 154.652076 159.091254 
L 157.574942 159.25893 
L 160.497808 159.561565 
L 163.420674 159.582825 
L 166.34354 159.726048 
L 169.266406 159.835601 
L 172.189272 159.908061 
L 175.112138 160.103796 
L 178.035003 160.222596 
L 180.957869 160.379904 
L 183.880735 160.468603 
L 186.803601 160.458966 
L 189.726467 160.635926 
L 192.649333 160.981342 
L 195.572199 161.59999 
L 198.495065 162.44584 
L 201.41793 163.317445 
L 204.340796 163.970005 
L 207.263662 164.586108 
L 210.186528 165.278295 
L 213.109394 165.66851 
L 216.03226 166.220622 
L 218.955126 165.997725 
L 221.877992 165.750186 
L 224.800857 166.100268 
L 227.723723 166.048918 
L 230.646589 166.049777 
" clip-path="url(#p4b94bbb363)" style="fill: none; stroke: #9467bd; stroke-linecap: square"/>
   </g>
  </g>
 </g>
 <defs>
  <clipPath id="pc9a72d5477">
   <rect x="34.230003" y="3.00024" width="205.769757" height="102.740497"/>
  </clipPath>
  <clipPath id="p4b94bbb363">
   <rect x="34.230003" y="111.741217" width="205.769757" height="102.740497"/>
  </clipPath>
 </defs>
</svg>
