<?xml version="1.0" encoding="utf-8" standalone="no"?>
<!DOCTYPE svg PUBLIC "-//W3C//DTD SVG 1.1//EN"
  "http://www.w3.org/Graphics/SVG/1.1/DTD/svg11.dtd">
<svg xmlns:xlink="http://www.w3.org/1999/xlink" width="243pt" height="243pt" viewBox="0 0 243 243" xmlns="http://www.w3.org/2000/svg" version="1.1">
 <metadata>
  <rdf:RDF xmlns:dc="http://purl.org/dc/elements/1.1/" xmlns:cc="http://creativecommons.org/ns#" xmlns:rdf="http://www.w3.org/1999/02/22-rdf-syntax-ns#">
   <cc:Work>
    <dc:type rdf:resource="http://purl.org/dc/dcmitype/StillImage"/>
    <dc:date>2024-12-02T22:13:39.102882</dc:date>
    <dc:format>image/svg+xml</dc:format>
    <dc:creator>
     <cc:Agent>
      <dc:title>Matplotlib v3.8.4, https://matplotlib.org/</dc:title>
     </cc:Agent>
    </dc:creator>
   </cc:Work>
  </rdf:RDF>
 </metadata>
 <defs>
  <style type="text/css">*{stroke-linejoin: round; stroke-linecap: butt}</style>
 </defs>
 <g id="figure_1">
  <g id="patch_1">
   <path d="M 0 243 
L 243 243 
L 243 0 
L 0 0 
L 0 243 
z
" style="fill: none"/>
  </g>
  <g id="axes_1">
   <g id="patch_2">
    <path d="M 40.362263 101.931715 
L 239.99976 101.931715 
L 239.99976 3.00024 
L 40.362263 3.00024 
L 40.362263 101.931715 
z
" style="fill: none"/>
   </g>
   <g id="matplotlib.axis_1">
    <g id="xtick_1">
     <g id="line2d_1">
      <defs>
       <path id="md074b6ad50" d="M 0 0 
L 0 -2 
" style="stroke: #000000; stroke-width: 0.5"/>
      </defs>
      <g>
       <use xlink:href="#md074b6ad50" x="83.465814" y="101.931715" style="stroke: #000000; stroke-width: 0.5"/>
      </g>
     </g>
    </g>
    <g id="xtick_2">
     <g id="line2d_2">
      <g>
       <use xlink:href="#md074b6ad50" x="140.181012" y="101.931715" style="stroke: #000000; stroke-width: 0.5"/>
      </g>
     </g>
    </g>
    <g id="xtick_3">
     <g id="line2d_3">
      <g>
       <use xlink:href="#md074b6ad50" x="196.89621" y="101.931715" style="stroke: #000000; stroke-width: 0.5"/>
      </g>
     </g>
    </g>
   </g>
   <g id="matplotlib.axis_2">
    <g id="ytick_1">
     <g id="line2d_4">
      <defs>
       <path id="me9589c213f" d="M 0 0 
L 2 0 
" style="stroke: #000000; stroke-width: 0.5"/>
      </defs>
      <g>
       <use xlink:href="#me9589c213f" x="40.362263" y="101.931715" style="stroke: #000000; stroke-width: 0.5"/>
      </g>
     </g>
     <g id="text_1">
      <!-- 0 -->
      <g transform="translate(32.230003 104.912944) scale(0.0833 -0.0833)">
       <defs>
        <path id="ArialMT-30" d="M 266 2259 
Q 266 3072 433 3567 
Q 600 4063 929 4331 
Q 1259 4600 1759 4600 
Q 2128 4600 2406 4451 
Q 2684 4303 2865 4023 
Q 3047 3744 3150 3342 
Q 3253 2941 3253 2259 
Q 3253 1453 3087 958 
Q 2922 463 2592 192 
Q 2263 -78 1759 -78 
Q 1097 -78 719 397 
Q 266 969 266 2259 
z
M 844 2259 
Q 844 1131 1108 757 
Q 1372 384 1759 384 
Q 2147 384 2411 759 
Q 2675 1134 2675 2259 
Q 2675 3391 2411 3762 
Q 2147 4134 1753 4134 
Q 1366 4134 1134 3806 
Q 844 3388 844 2259 
z
" transform="scale(0.015625)"/>
       </defs>
       <use xlink:href="#ArialMT-30"/>
      </g>
     </g>
    </g>
    <g id="ytick_2">
     <g id="line2d_5">
      <g>
       <use xlink:href="#me9589c213f" x="40.362263" y="79.352858" style="stroke: #000000; stroke-width: 0.5"/>
      </g>
     </g>
     <g id="text_2">
      <!-- 100 -->
      <g transform="translate(22.965481 82.334087) scale(0.0833 -0.0833)">
       <defs>
        <path id="ArialMT-31" d="M 2384 0 
L 1822 0 
L 1822 3584 
Q 1619 3391 1289 3197 
Q 959 3003 697 2906 
L 697 3450 
Q 1169 3672 1522 3987 
Q 1875 4303 2022 4600 
L 2384 4600 
L 2384 0 
z
" transform="scale(0.015625)"/>
       </defs>
       <use xlink:href="#ArialMT-31"/>
       <use xlink:href="#ArialMT-30" x="55.615234"/>
       <use xlink:href="#ArialMT-30" x="111.230469"/>
      </g>
     </g>
    </g>
    <g id="ytick_3">
     <g id="line2d_6">
      <g>
       <use xlink:href="#me9589c213f" x="40.362263" y="56.774001" style="stroke: #000000; stroke-width: 0.5"/>
      </g>
     </g>
     <g id="text_3">
      <!-- 200 -->
      <g transform="translate(22.965481 59.75523) scale(0.0833 -0.0833)">
       <defs>
        <path id="ArialMT-32" d="M 3222 541 
L 3222 0 
L 194 0 
Q 188 203 259 391 
Q 375 700 629 1000 
Q 884 1300 1366 1694 
Q 2113 2306 2375 2664 
Q 2638 3022 2638 3341 
Q 2638 3675 2398 3904 
Q 2159 4134 1775 4134 
Q 1369 4134 1125 3890 
Q 881 3647 878 3216 
L 300 3275 
Q 359 3922 746 4261 
Q 1134 4600 1788 4600 
Q 2447 4600 2831 4234 
Q 3216 3869 3216 3328 
Q 3216 3053 3103 2787 
Q 2991 2522 2730 2228 
Q 2469 1934 1863 1422 
Q 1356 997 1212 845 
Q 1069 694 975 541 
L 3222 541 
z
" transform="scale(0.015625)"/>
       </defs>
       <use xlink:href="#ArialMT-32"/>
       <use xlink:href="#ArialMT-30" x="55.615234"/>
       <use xlink:href="#ArialMT-30" x="111.230469"/>
      </g>
     </g>
    </g>
    <g id="ytick_4">
     <g id="line2d_7">
      <g>
       <use xlink:href="#me9589c213f" x="40.362263" y="34.195145" style="stroke: #000000; stroke-width: 0.5"/>
      </g>
     </g>
     <g id="text_4">
      <!-- 300 -->
      <g transform="translate(22.965481 37.176374) scale(0.0833 -0.0833)">
       <defs>
        <path id="ArialMT-33" d="M 269 1209 
L 831 1284 
Q 928 806 1161 595 
Q 1394 384 1728 384 
Q 2125 384 2398 659 
Q 2672 934 2672 1341 
Q 2672 1728 2419 1979 
Q 2166 2231 1775 2231 
Q 1616 2231 1378 2169 
L 1441 2663 
Q 1497 2656 1531 2656 
Q 1891 2656 2178 2843 
Q 2466 3031 2466 3422 
Q 2466 3731 2256 3934 
Q 2047 4138 1716 4138 
Q 1388 4138 1169 3931 
Q 950 3725 888 3313 
L 325 3413 
Q 428 3978 793 4289 
Q 1159 4600 1703 4600 
Q 2078 4600 2393 4439 
Q 2709 4278 2876 4000 
Q 3044 3722 3044 3409 
Q 3044 3113 2884 2869 
Q 2725 2625 2413 2481 
Q 2819 2388 3044 2092 
Q 3269 1797 3269 1353 
Q 3269 753 2831 336 
Q 2394 -81 1725 -81 
Q 1122 -81 723 278 
Q 325 638 269 1209 
z
" transform="scale(0.015625)"/>
       </defs>
       <use xlink:href="#ArialMT-33"/>
       <use xlink:href="#ArialMT-30" x="55.615234"/>
       <use xlink:href="#ArialMT-30" x="111.230469"/>
      </g>
     </g>
    </g>
    <g id="ytick_5">
     <g id="line2d_8">
      <g>
       <use xlink:href="#me9589c213f" x="40.362263" y="11.616288" style="stroke: #000000; stroke-width: 0.5"/>
      </g>
     </g>
     <g id="text_5">
      <!-- 400 -->
      <g transform="translate(22.965481 14.597517) scale(0.0833 -0.0833)">
       <defs>
        <path id="ArialMT-34" d="M 2069 0 
L 2069 1097 
L 81 1097 
L 81 1613 
L 2172 4581 
L 2631 4581 
L 2631 1613 
L 3250 1613 
L 3250 1097 
L 2631 1097 
L 2631 0 
L 2069 0 
z
M 2069 1613 
L 2069 3678 
L 634 1613 
L 2069 1613 
z
" transform="scale(0.015625)"/>
       </defs>
       <use xlink:href="#ArialMT-34"/>
       <use xlink:href="#ArialMT-30" x="55.615234"/>
       <use xlink:href="#ArialMT-30" x="111.230469"/>
      </g>
     </g>
    </g>
    <g id="text_6">
     <!-- $\partial_B^2 I_{\mathrm{c}+}$ (μA/T$^2$) -->
     <g transform="translate(16.365481 83.715977) rotate(-90) scale(0.1 -0.1)">
      <defs>
       <path id="STIXGeneral-Regular-2202" d="M 1248 4000 
L 1184 4128 
Q 1427 4275 1811 4275 
Q 3014 4275 3014 2611 
Q 3014 2298 2963 1965 
Q 2912 1632 2777 1261 
Q 2643 890 2438 598 
Q 2234 307 1894 118 
Q 1555 -70 1126 -70 
Q 685 -70 470 224 
Q 256 518 256 966 
Q 256 1664 739 2224 
Q 1222 2784 1901 2784 
Q 2342 2784 2515 2477 
Q 2560 2726 2560 2925 
Q 2560 3418 2365 3750 
Q 2170 4083 1722 4083 
Q 1510 4083 1248 4000 
z
M 2349 2042 
Q 2349 2323 2230 2457 
Q 2112 2592 1958 2592 
Q 1491 2592 1132 2013 
Q 774 1434 774 749 
Q 774 122 1203 122 
Q 1549 122 1827 499 
Q 2106 877 2253 1414 
Q 2349 1766 2349 2042 
z
" transform="scale(0.015625)"/>
       <path id="Cmr10-32" d="M 319 0 
L 319 172 
Q 319 188 331 206 
L 1325 1306 
Q 1550 1550 1690 1715 
Q 1831 1881 1968 2097 
Q 2106 2313 2186 2536 
Q 2266 2759 2266 3009 
Q 2266 3272 2169 3511 
Q 2072 3750 1880 3894 
Q 1688 4038 1416 4038 
Q 1138 4038 916 3870 
Q 694 3703 603 3438 
Q 628 3444 672 3444 
Q 816 3444 917 3347 
Q 1019 3250 1019 3097 
Q 1019 2950 917 2848 
Q 816 2747 672 2747 
Q 522 2747 420 2851 
Q 319 2956 319 3097 
Q 319 3338 409 3548 
Q 500 3759 670 3923 
Q 841 4088 1055 4175 
Q 1269 4263 1509 4263 
Q 1875 4263 2190 4108 
Q 2506 3953 2690 3670 
Q 2875 3388 2875 3009 
Q 2875 2731 2753 2481 
Q 2631 2231 2440 2026 
Q 2250 1822 1953 1562 
Q 1656 1303 1563 1216 
L 838 519 
L 1453 519 
Q 1906 519 2211 526 
Q 2516 534 2534 550 
Q 2609 631 2688 1141 
L 2875 1141 
L 2694 0 
L 319 0 
z
" transform="scale(0.015625)"/>
       <path id="Cmmi10-42" d="M 319 0 
Q 256 0 256 84 
Q 259 100 268 137 
Q 278 175 293 200 
Q 309 225 341 225 
Q 522 225 656 234 
Q 791 244 884 269 
Q 959 297 1006 441 
L 1881 3956 
Q 1894 4019 1894 4044 
Q 1894 4113 1819 4122 
Q 1697 4147 1356 4147 
Q 1294 4147 1294 4231 
Q 1297 4247 1306 4286 
Q 1316 4325 1333 4348 
Q 1350 4372 1375 4372 
L 3669 4372 
Q 3878 4372 4083 4320 
Q 4288 4269 4461 4156 
Q 4634 4044 4736 3876 
Q 4838 3709 4838 3488 
Q 4838 3247 4714 3040 
Q 4591 2834 4395 2681 
Q 4200 2528 3973 2429 
Q 3747 2331 3500 2284 
Q 3675 2284 3854 2215 
Q 4034 2147 4175 2028 
Q 4316 1909 4402 1743 
Q 4488 1578 4488 1388 
Q 4488 1003 4219 684 
Q 3950 366 3542 183 
Q 3134 0 2753 0 
L 319 0 
z
M 1497 275 
Q 1497 225 1716 225 
L 2631 225 
Q 2944 225 3231 398 
Q 3519 572 3692 859 
Q 3866 1147 3866 1459 
Q 3866 1650 3786 1820 
Q 3706 1991 3556 2089 
Q 3406 2188 3213 2188 
L 1966 2188 
L 1522 416 
Q 1497 328 1497 275 
z
M 2009 2356 
L 2981 2356 
Q 3288 2356 3577 2512 
Q 3866 2669 4048 2937 
Q 4231 3206 4231 3506 
Q 4231 3784 4057 3965 
Q 3884 4147 3609 4147 
L 2731 4147 
Q 2559 4147 2500 4115 
Q 2441 4084 2400 3928 
L 2009 2356 
z
" transform="scale(0.015625)"/>
       <path id="Cmmi10-49" d="M 269 0 
Q 206 0 206 84 
Q 231 225 288 225 
Q 666 225 800 250 
Q 947 284 984 441 
L 1863 3956 
Q 1875 4019 1875 4038 
Q 1875 4078 1854 4095 
Q 1834 4113 1791 4122 
Q 1663 4147 1306 4147 
Q 1241 4147 1241 4231 
Q 1263 4313 1275 4342 
Q 1288 4372 1350 4372 
L 3138 4372 
Q 3200 4372 3200 4288 
Q 3197 4272 3187 4234 
Q 3178 4197 3162 4172 
Q 3147 4147 3116 4147 
Q 2741 4147 2597 4122 
Q 2456 4088 2419 3928 
L 1544 416 
Q 1528 338 1528 331 
Q 1528 316 1533 302 
Q 1538 288 1552 277 
Q 1566 266 1580 261 
Q 1594 256 1613 250 
Q 1734 225 2100 225 
Q 2163 225 2163 141 
Q 2141 50 2128 25 
Q 2116 0 2053 0 
L 269 0 
z
" transform="scale(0.015625)"/>
       <path id="Cmr10-63" d="M 1594 -72 
Q 1206 -72 890 129 
Q 575 331 394 667 
Q 213 1003 213 1381 
Q 213 1759 392 2106 
Q 572 2453 889 2661 
Q 1206 2869 1594 2869 
Q 1969 2869 2276 2722 
Q 2584 2575 2584 2241 
Q 2584 2116 2495 2023 
Q 2406 1931 2278 1931 
Q 2150 1931 2061 2023 
Q 1972 2116 1972 2241 
Q 1972 2353 2044 2436 
Q 2116 2519 2222 2541 
Q 2000 2681 1600 2681 
Q 1294 2681 1106 2478 
Q 919 2275 844 1975 
Q 769 1675 769 1381 
Q 769 1072 861 783 
Q 953 494 1158 305 
Q 1363 116 1672 116 
Q 1975 116 2187 302 
Q 2400 488 2478 788 
Q 2478 825 2528 825 
L 2606 825 
Q 2625 825 2640 808 
Q 2656 791 2656 769 
L 2656 750 
Q 2559 372 2271 150 
Q 1984 -72 1594 -72 
z
" transform="scale(0.015625)"/>
       <path id="Cmr10-2b" d="M 481 1472 
Q 428 1472 393 1512 
Q 359 1553 359 1600 
Q 359 1647 393 1687 
Q 428 1728 481 1728 
L 2363 1728 
L 2363 3616 
Q 2363 3666 2400 3698 
Q 2438 3731 2491 3731 
Q 2538 3731 2578 3698 
Q 2619 3666 2619 3616 
L 2619 1728 
L 4500 1728 
Q 4547 1728 4581 1687 
Q 4616 1647 4616 1600 
Q 4616 1553 4581 1512 
Q 4547 1472 4500 1472 
L 2619 1472 
L 2619 -416 
Q 2619 -466 2578 -498 
Q 2538 -531 2491 -531 
Q 2438 -531 2400 -498 
Q 2363 -466 2363 -416 
L 2363 1472 
L 481 1472 
z
" transform="scale(0.015625)"/>
       <path id="ArialMT-20" transform="scale(0.015625)"/>
       <path id="ArialMT-28" d="M 1497 -1347 
Q 1031 -759 709 28 
Q 388 816 388 1659 
Q 388 2403 628 3084 
Q 909 3875 1497 4659 
L 1900 4659 
Q 1522 4009 1400 3731 
Q 1209 3300 1100 2831 
Q 966 2247 966 1656 
Q 966 153 1900 -1347 
L 1497 -1347 
z
" transform="scale(0.015625)"/>
       <path id="ArialMT-3bc" d="M 3181 3319 
L 3181 0 
L 2678 0 
L 2678 394 
Q 2516 144 2356 50 
Q 2138 -78 1847 -78 
Q 1588 -78 1388 25 
Q 1238 103 1056 334 
L 1056 -1272 
L 500 -1272 
L 500 3319 
L 1056 3319 
L 1056 1913 
Q 1056 1147 1137 920 
Q 1219 694 1401 562 
Q 1584 431 1822 431 
Q 2072 431 2269 568 
Q 2466 706 2547 923 
Q 2628 1141 2628 1903 
L 2628 3319 
L 3181 3319 
z
" transform="scale(0.015625)"/>
       <path id="ArialMT-41" d="M -9 0 
L 1750 4581 
L 2403 4581 
L 4278 0 
L 3588 0 
L 3053 1388 
L 1138 1388 
L 634 0 
L -9 0 
z
M 1313 1881 
L 2866 1881 
L 2388 3150 
Q 2169 3728 2063 4100 
Q 1975 3659 1816 3225 
L 1313 1881 
z
" transform="scale(0.015625)"/>
       <path id="ArialMT-2f" d="M 0 -78 
L 1328 4659 
L 1778 4659 
L 453 -78 
L 0 -78 
z
" transform="scale(0.015625)"/>
       <path id="ArialMT-54" d="M 1659 0 
L 1659 4041 
L 150 4041 
L 150 4581 
L 3781 4581 
L 3781 4041 
L 2266 4041 
L 2266 0 
L 1659 0 
z
" transform="scale(0.015625)"/>
       <path id="ArialMT-29" d="M 791 -1347 
L 388 -1347 
Q 1322 153 1322 1656 
Q 1322 2244 1188 2822 
Q 1081 3291 891 3722 
Q 769 4003 388 4659 
L 791 4659 
Q 1378 3875 1659 3084 
Q 1900 2403 1900 1659 
Q 1900 816 1576 28 
Q 1253 -759 791 -1347 
z
" transform="scale(0.015625)"/>
      </defs>
      <use xlink:href="#STIXGeneral-Regular-2202" transform="translate(0 0.109375)"/>
      <use xlink:href="#Cmr10-32" transform="translate(51.564131 38.373438) scale(0.7)"/>
      <use xlink:href="#Cmmi10-42" transform="translate(51.564131 -25.4) scale(0.7)"/>
      <use xlink:href="#Cmmi10-49" transform="translate(110.98835 0.109375)"/>
      <use xlink:href="#Cmr10-63" transform="translate(154.884835 -16.896875) scale(0.7)"/>
      <use xlink:href="#Cmr10-2b" transform="translate(198.245186 -16.896875) scale(0.7)"/>
      <use xlink:href="#ArialMT-20" transform="translate(271.293428 0.109375)"/>
      <use xlink:href="#ArialMT-28" transform="translate(299.076631 0.109375)"/>
      <use xlink:href="#ArialMT-3bc" transform="translate(332.377413 0.109375)"/>
      <use xlink:href="#ArialMT-41" transform="translate(389.9946 0.109375)"/>
      <use xlink:href="#ArialMT-2f" transform="translate(456.693819 0.109375)"/>
      <use xlink:href="#ArialMT-54" transform="translate(484.477022 0.109375)"/>
      <use xlink:href="#Cmr10-32" transform="translate(550.025147 38.373438) scale(0.7)"/>
      <use xlink:href="#ArialMT-29" transform="translate(591.402491 0.109375)"/>
     </g>
    </g>
   </g>
   <g id="line2d_9">
    <path d="M 40.362263 101.931715 
L 239.99976 101.931715 
" clip-path="url(#p318a4aad7f)" style="fill: none; stroke: #808080; stroke-width: 0.5; stroke-linecap: square"/>
   </g>
   <g id="line2d_10">
    <path d="M 140.181012 101.931715 
L 140.181012 3.00024 
" clip-path="url(#p318a4aad7f)" style="fill: none; stroke: #808080; stroke-width: 0.5; stroke-linecap: square"/>
   </g>
   <g id="line2d_11"/>
   <g id="line2d_12"/>
   <g id="line2d_13"/>
   <g id="line2d_14"/>
   <g id="line2d_15"/>
   <g id="patch_3">
    <path d="M 40.362263 101.931715 
L 40.362263 3.00024 
" style="fill: none; stroke: #000000; stroke-width: 0.5; stroke-linejoin: miter; stroke-linecap: square"/>
   </g>
   <g id="patch_4">
    <path d="M 239.99976 101.931715 
L 239.99976 3.00024 
" style="fill: none; stroke: #000000; stroke-width: 0.5; stroke-linejoin: miter; stroke-linecap: square"/>
   </g>
   <g id="patch_5">
    <path d="M 40.362263 101.931715 
L 239.99976 101.931715 
" style="fill: none; stroke: #000000; stroke-width: 0.5; stroke-linejoin: miter; stroke-linecap: square"/>
   </g>
   <g id="patch_6">
    <path d="M 40.362263 3.00024 
L 239.99976 3.00024 
" style="fill: none; stroke: #000000; stroke-width: 0.5; stroke-linejoin: miter; stroke-linecap: square"/>
   </g>
   <g id="line2d_16">
    <path d="M 100.480373 113.691304 
L 101.614677 109.110594 
L 105.017589 93.254084 
L 105.584741 91.610651 
L 106.151893 90.430397 
L 106.719045 89.867801 
L 107.286197 90.176663 
L 107.853349 91.24346 
L 108.987653 94.073664 
L 110.121957 97.375668 
L 110.689109 98.436143 
L 111.256261 98.53775 
L 111.823413 97.63399 
L 112.390565 96.252041 
L 114.092021 90.569742 
L 114.659173 89.557381 
L 115.793477 89.245033 
L 116.360629 88.539115 
L 116.927781 88.114615 
L 117.494933 88.495851 
L 118.062085 89.079743 
L 118.629237 88.975721 
L 119.76354 87.020771 
L 120.330692 86.560243 
L 120.897844 86.837328 
L 121.464996 87.870763 
L 122.032148 89.874835 
L 123.166452 95.689833 
L 123.733604 97.461335 
L 124.300756 98.311661 
L 125.43506 100.585989 
L 126.002212 99.977189 
L 126.569364 96.662345 
L 127.136516 91.055244 
L 128.27082 75.618053 
L 128.837972 66.07579 
L 131.10658 20.08509 
L 131.673732 14.103936 
L 132.240884 13.919293 
L 132.808036 21.19351 
L 133.375188 35.482211 
L 133.94234 54.876269 
L 135.076644 106.686118 
L 136.210948 166.616119 
L 136.7781 191.188212 
L 137.345252 207.814832 
L 137.912404 217.457918 
L 138.479556 222.713028 
L 139.046708 224.753642 
L 139.61386 224.420283 
L 140.748164 221.002501 
L 141.315316 220.422055 
L 141.882468 220.574754 
L 142.44962 223.136419 
L 143.583924 232.300345 
L 144.151076 232.072384 
L 144.718228 225.027909 
L 145.28538 212.021975 
L 148.121139 135.598673 
L 148.688291 125.108806 
L 149.255443 118.183036 
L 149.822595 114.534595 
L 150.389747 114.777693 
L 150.956899 116.024643 
L 151.524051 114.290972 
L 152.091203 108.89211 
L 154.926963 68.839817 
L 155.494115 63.092091 
L 156.061267 59.842683 
L 156.628419 59.060095 
L 157.195571 59.453763 
L 157.762723 61.268219 
L 158.329875 64.338528 
L 158.897027 66.295218 
L 159.464179 66.721099 
L 160.031331 67.624645 
L 161.165635 71.268785 
L 162.299939 77.451869 
L 163.434243 82.849527 
L 164.001395 85.290629 
L 164.568547 86.93465 
L 166.270003 88.120206 
L 167.404307 87.120896 
L 168.538611 87.551606 
L 169.105763 87.445678 
L 169.672915 87.90114 
L 171.374371 90.389931 
L 171.941523 91.666913 
L 172.508675 92.44474 
L 173.642978 92.584466 
L 174.21013 92.009718 
L 174.777282 90.399679 
L 175.344434 88.034036 
L 177.04589 78.992387 
L 177.613042 78.444175 
L 178.180194 80.026998 
L 178.747346 83.510684 
L 179.88165 94.972971 
L 181.015954 106.731569 
L 181.583106 111.427311 
L 182.150258 114.423322 
L 182.71741 115.337711 
L 183.284562 114.039267 
L 183.851714 110.752538 
L 184.986018 102.677338 
L 185.55317 99.846673 
L 186.120322 97.746938 
L 186.687474 96.45011 
L 187.254626 95.923855 
L 187.821778 95.958351 
L 188.38893 96.395911 
L 190.090386 98.54395 
L 190.657538 98.923915 
L 191.22469 98.902446 
L 191.791842 98.64248 
L 192.358994 98.554649 
L 195.761906 99.909421 
L 196.89621 100.054051 
L 198.030514 100.181894 
L 198.597666 100.282853 
L 200.299121 100.316835 
L 202.567729 100.69496 
L 203.702033 100.769151 
L 204.836337 100.728667 
L 207.104945 100.864141 
L 208.239249 101.038697 
L 209.373553 101.17786 
L 211.075009 101.189128 
L 212.776465 100.572723 
L 215.045073 99.677064 
L 215.612225 99.65371 
L 216.746529 100.056528 
L 217.880833 100.810546 
L 218.447985 101.240777 
L 219.015137 101.525793 
L 220.149441 101.692161 
L 220.716593 101.650065 
L 223.552353 100.916205 
L 224.686657 101.124284 
L 226.955264 101.829119 
L 228.089568 101.841154 
L 229.223872 101.503451 
L 229.791024 101.168336 
L 230.358176 100.703653 
L 230.358176 100.703653 
" clip-path="url(#p318a4aad7f)" style="fill: none; stroke: #d62728; stroke-linecap: square"/>
   </g>
   <g id="line2d_17">
    <path d="M 106.151893 98.075208 
L 108.420501 96.510321 
L 110.689109 94.841011 
L 112.957717 93.799062 
L 115.226325 91.170943 
L 117.494933 87.332635 
L 119.76354 86.807322 
L 122.032148 92.034851 
L 124.300756 95.924679 
L 126.569364 88.25299 
L 128.837972 61.585071 
L 131.10658 59.732611 
L 133.375188 110.600491 
L 135.643796 169.487718 
L 137.912404 186.564655 
L 140.181012 166.672835 
L 142.44962 164.402007 
L 144.718228 162.852289 
L 146.986835 141.417508 
L 149.255443 125.34151 
L 151.524051 113.126268 
L 153.792659 96.18454 
L 156.061267 78.135251 
L 158.329875 71.933125 
L 160.598483 78.188819 
L 162.867091 86.822897 
L 165.135699 90.648764 
L 167.404307 91.998371 
L 169.672915 92.599574 
L 171.941523 92.444701 
L 174.21013 94.234449 
L 176.478738 96.049438 
L 178.747346 97.41347 
L 181.015954 99.096286 
L 183.284562 99.20388 
L 185.55317 98.591443 
L 191.22469 98.914304 
L 196.89621 100.267082 
L 202.567729 100.721524 
L 208.239249 100.644435 
L 213.910769 101.255379 
L 219.582289 101.483059 
L 225.253809 101.429707 
L 230.925328 101.560547 
" clip-path="url(#p318a4aad7f)" style="fill: none; stroke: #ff7f0e; stroke-linecap: square"/>
   </g>
   <g id="legend_1">
    <g id="patch_7">
     <path d="M 185.40006 48.709576 
L 235.94676 48.709576 
Q 237.10476 48.709576 237.10476 47.551576 
L 237.10476 7.05324 
Q 237.10476 5.89524 235.94676 5.89524 
L 185.40006 5.89524 
Q 184.24206 5.89524 184.24206 7.05324 
L 184.24206 47.551576 
Q 184.24206 48.709576 185.40006 48.709576 
z
" style="fill: #ffffff; opacity: 0.8; stroke: #cccccc; stroke-linejoin: miter"/>
    </g>
    <g id="line2d_18">
     <path d="M 186.55806 10.329113 
L 192.34806 10.329113 
L 198.13806 10.329113 
" style="fill: none; stroke: #d62728; stroke-linecap: square"/>
    </g>
    <g id="text_7">
     <!-- $W_\mathrm{sc}\rightarrow\infty$ -->
     <g transform="translate(202.77006 12.355613) scale(0.0579 -0.0579)">
      <defs>
       <path id="Cmmi10-57" d="M 1141 -72 
L 844 4006 
Q 822 4100 703 4123 
Q 584 4147 409 4147 
Q 347 4147 347 4231 
Q 369 4313 381 4342 
Q 394 4372 453 4372 
L 1978 4372 
Q 2041 4372 2041 4288 
Q 2016 4147 1959 4147 
Q 1447 4147 1416 3969 
L 1644 738 
L 3244 3525 
L 3213 4006 
Q 3191 4100 3072 4123 
Q 2953 4147 2778 4147 
Q 2713 4147 2713 4231 
Q 2734 4313 2746 4342 
Q 2759 4372 2822 4372 
L 4347 4372 
Q 4409 4372 4409 4288 
Q 4406 4272 4397 4234 
Q 4388 4197 4372 4172 
Q 4356 4147 4325 4147 
Q 3809 4147 3781 3969 
L 3781 3922 
L 4013 738 
L 5753 3775 
Q 5791 3844 5791 3909 
Q 5791 4041 5662 4094 
Q 5534 4147 5375 4147 
Q 5313 4147 5313 4231 
Q 5325 4281 5333 4309 
Q 5341 4338 5361 4355 
Q 5381 4372 5422 4372 
L 6644 4372 
Q 6706 4372 6706 4288 
Q 6703 4272 6693 4233 
Q 6684 4194 6667 4170 
Q 6650 4147 6625 4147 
Q 6169 4147 5931 3731 
Q 5913 3713 5913 3713 
L 3744 -72 
Q 3709 -141 3634 -141 
L 3584 -141 
Q 3506 -141 3506 -72 
L 3263 3225 
L 1381 -72 
Q 1334 -141 1269 -141 
L 1216 -141 
Q 1141 -141 1141 -72 
z
" transform="scale(0.015625)"/>
       <path id="Cmr10-73" d="M 213 -19 
L 213 1025 
Q 213 1075 269 1075 
L 347 1075 
Q 384 1075 397 1025 
Q 575 97 1259 97 
Q 1563 97 1767 234 
Q 1972 372 1972 659 
Q 1972 866 1812 1011 
Q 1653 1156 1434 1209 
L 1006 1294 
Q 791 1341 614 1437 
Q 438 1534 325 1695 
Q 213 1856 213 2069 
Q 213 2350 361 2529 
Q 509 2709 746 2789 
Q 984 2869 1259 2869 
Q 1588 2869 1831 2694 
L 2016 2853 
Q 2016 2869 2047 2869 
L 2094 2869 
Q 2113 2869 2128 2851 
Q 2144 2834 2144 2816 
L 2144 1978 
Q 2144 1919 2094 1919 
L 2016 1919 
Q 1959 1919 1959 1978 
Q 1959 2313 1773 2516 
Q 1588 2719 1253 2719 
Q 966 2719 755 2612 
Q 544 2506 544 2247 
Q 544 2069 695 1955 
Q 847 1841 1050 1791 
L 1484 1709 
Q 1703 1659 1892 1540 
Q 2081 1422 2192 1240 
Q 2303 1059 2303 831 
Q 2303 600 2223 429 
Q 2144 259 2001 146 
Q 1859 34 1665 -19 
Q 1472 -72 1259 -72 
Q 859 -72 575 197 
L 341 -56 
Q 341 -72 306 -72 
L 269 -72 
Q 213 -72 213 -19 
z
" transform="scale(0.015625)"/>
       <path id="Cmsy10-21" d="M 481 1472 
Q 428 1472 393 1512 
Q 359 1553 359 1600 
Q 359 1647 393 1687 
Q 428 1728 481 1728 
L 5338 1728 
Q 5094 1903 4906 2133 
Q 4719 2363 4594 2627 
Q 4469 2891 4416 3188 
Q 4416 3272 4481 3272 
L 4609 3272 
Q 4631 3272 4648 3253 
Q 4666 3234 4672 3213 
Q 4725 2938 4839 2702 
Q 4953 2466 5125 2262 
Q 5297 2059 5509 1912 
Q 5722 1766 5991 1672 
Q 6034 1644 6034 1600 
Q 6034 1550 5991 1538 
Q 5656 1422 5378 1192 
Q 5100 963 4919 652 
Q 4738 341 4672 -13 
Q 4666 -34 4647 -53 
Q 4628 -72 4609 -72 
L 4481 -72 
Q 4416 -72 4416 13 
Q 4497 450 4740 836 
Q 4984 1222 5338 1472 
L 481 1472 
z
" transform="scale(0.015625)"/>
       <path id="Cmsy10-31" d="M 1575 -72 
Q 1213 -72 933 140 
Q 653 353 506 690 
Q 359 1028 359 1381 
Q 359 1653 445 1912 
Q 531 2172 693 2378 
Q 856 2584 1086 2706 
Q 1316 2828 1594 2828 
Q 1881 2828 2150 2718 
Q 2419 2609 2642 2428 
Q 2866 2247 3059 2009 
L 3250 1753 
Q 3441 2056 3672 2295 
Q 3903 2534 4195 2681 
Q 4488 2828 4819 2828 
Q 5097 2828 5325 2704 
Q 5553 2581 5712 2368 
Q 5872 2156 5953 1898 
Q 6034 1641 6034 1381 
Q 6034 1019 5882 683 
Q 5731 347 5451 137 
Q 5172 -72 4800 -72 
Q 4381 -72 4004 153 
Q 3628 378 3334 750 
L 3144 1006 
Q 2850 528 2451 228 
Q 2053 -72 1575 -72 
z
M 1509 153 
Q 2322 153 2963 1241 
L 2625 1672 
Q 2331 2059 2078 2278 
Q 1825 2497 1491 2497 
Q 1206 2497 986 2336 
Q 766 2175 645 1915 
Q 525 1656 525 1375 
Q 525 1159 592 942 
Q 659 725 787 547 
Q 916 369 1098 261 
Q 1281 153 1509 153 
z
M 3769 1088 
Q 4063 700 4316 481 
Q 4569 263 4903 263 
Q 5116 263 5294 356 
Q 5472 450 5601 609 
Q 5731 769 5800 969 
Q 5869 1169 5869 1381 
Q 5869 1678 5750 1961 
Q 5631 2244 5407 2425 
Q 5184 2606 4884 2606 
Q 4072 2606 3431 1516 
L 3769 1088 
z
" transform="scale(0.015625)"/>
      </defs>
      <use xlink:href="#Cmmi10-57" transform="translate(0 0.6875)"/>
      <use xlink:href="#Cmr10-73" transform="translate(94.384766 -16.31875) scale(0.7)"/>
      <use xlink:href="#Cmr10-63" transform="translate(121.967773 -16.31875) scale(0.7)"/>
      <use xlink:href="#Cmsy10-21" transform="translate(176.973047 0.6875)"/>
      <use xlink:href="#Cmsy10-31" transform="translate(294.531641 0.6875)"/>
     </g>
    </g>
    <g id="line2d_19">
     <path d="M 186.55806 18.543676 
L 192.34806 18.543676 
L 198.13806 18.543676 
" style="fill: none; stroke: #ff7f0e; stroke-linecap: square"/>
    </g>
    <g id="text_8">
     <!-- $W_\mathrm{sc}=$1.2μm -->
     <g transform="translate(202.77006 20.570176) scale(0.0579 -0.0579)">
      <defs>
       <path id="Cmr10-3d" d="M 481 850 
Q 428 850 393 890 
Q 359 931 359 978 
Q 359 1031 393 1068 
Q 428 1106 481 1106 
L 4500 1106 
Q 4547 1106 4581 1068 
Q 4616 1031 4616 978 
Q 4616 931 4581 890 
Q 4547 850 4500 850 
L 481 850 
z
M 481 2094 
Q 428 2094 393 2131 
Q 359 2169 359 2222 
Q 359 2269 393 2309 
Q 428 2350 481 2350 
L 4500 2350 
Q 4547 2350 4581 2309 
Q 4616 2269 4616 2222 
Q 4616 2169 4581 2131 
Q 4547 2094 4500 2094 
L 481 2094 
z
" transform="scale(0.015625)"/>
       <path id="ArialMT-2e" d="M 581 0 
L 581 641 
L 1222 641 
L 1222 0 
L 581 0 
z
" transform="scale(0.015625)"/>
       <path id="ArialMT-6d" d="M 422 0 
L 422 3319 
L 925 3319 
L 925 2853 
Q 1081 3097 1340 3245 
Q 1600 3394 1931 3394 
Q 2300 3394 2536 3241 
Q 2772 3088 2869 2813 
Q 3263 3394 3894 3394 
Q 4388 3394 4653 3120 
Q 4919 2847 4919 2278 
L 4919 0 
L 4359 0 
L 4359 2091 
Q 4359 2428 4304 2576 
Q 4250 2725 4106 2815 
Q 3963 2906 3769 2906 
Q 3419 2906 3187 2673 
Q 2956 2441 2956 1928 
L 2956 0 
L 2394 0 
L 2394 2156 
Q 2394 2531 2256 2718 
Q 2119 2906 1806 2906 
Q 1569 2906 1367 2781 
Q 1166 2656 1075 2415 
Q 984 2175 984 1722 
L 984 0 
L 422 0 
z
" transform="scale(0.015625)"/>
      </defs>
      <use xlink:href="#Cmmi10-57" transform="translate(0 0.125)"/>
      <use xlink:href="#Cmr10-73" transform="translate(94.384766 -16.88125) scale(0.7)"/>
      <use xlink:href="#Cmr10-63" transform="translate(121.967773 -16.88125) scale(0.7)"/>
      <use xlink:href="#Cmr10-3d" transform="translate(176.973047 0.125)"/>
      <use xlink:href="#ArialMT-31" transform="translate(272.217188 0.125)"/>
      <use xlink:href="#ArialMT-2e" transform="translate(327.832422 0.125)"/>
      <use xlink:href="#ArialMT-32" transform="translate(355.615625 0.125)"/>
      <use xlink:href="#ArialMT-3bc" transform="translate(411.230859 0.125)"/>
      <use xlink:href="#ArialMT-6d" transform="translate(468.848047 0.125)"/>
     </g>
    </g>
    <g id="line2d_20">
     <path d="M 186.55806 26.765476 
L 192.34806 26.765476 
L 198.13806 26.765476 
" style="fill: none; stroke: #2ca02c; stroke-linecap: square"/>
    </g>
    <g id="text_9">
     <!-- $W_\mathrm{sc}=$0.9μm -->
     <g transform="translate(202.77006 28.791976) scale(0.0579 -0.0579)">
      <defs>
       <path id="ArialMT-39" d="M 350 1059 
L 891 1109 
Q 959 728 1153 556 
Q 1347 384 1650 384 
Q 1909 384 2104 503 
Q 2300 622 2425 820 
Q 2550 1019 2634 1356 
Q 2719 1694 2719 2044 
Q 2719 2081 2716 2156 
Q 2547 1888 2255 1720 
Q 1963 1553 1622 1553 
Q 1053 1553 659 1965 
Q 266 2378 266 3053 
Q 266 3750 677 4175 
Q 1088 4600 1706 4600 
Q 2153 4600 2523 4359 
Q 2894 4119 3086 3673 
Q 3278 3228 3278 2384 
Q 3278 1506 3087 986 
Q 2897 466 2520 194 
Q 2144 -78 1638 -78 
Q 1100 -78 759 220 
Q 419 519 350 1059 
z
M 2653 3081 
Q 2653 3566 2395 3850 
Q 2138 4134 1775 4134 
Q 1400 4134 1122 3828 
Q 844 3522 844 3034 
Q 844 2597 1108 2323 
Q 1372 2050 1759 2050 
Q 2150 2050 2401 2323 
Q 2653 2597 2653 3081 
z
" transform="scale(0.015625)"/>
      </defs>
      <use xlink:href="#Cmmi10-57" transform="translate(0 0.125)"/>
      <use xlink:href="#Cmr10-73" transform="translate(94.384766 -16.88125) scale(0.7)"/>
      <use xlink:href="#Cmr10-63" transform="translate(121.967773 -16.88125) scale(0.7)"/>
      <use xlink:href="#Cmr10-3d" transform="translate(176.973047 0.125)"/>
      <use xlink:href="#ArialMT-30" transform="translate(272.217188 0.125)"/>
      <use xlink:href="#ArialMT-2e" transform="translate(327.832422 0.125)"/>
      <use xlink:href="#ArialMT-39" transform="translate(355.615625 0.125)"/>
      <use xlink:href="#ArialMT-3bc" transform="translate(411.230859 0.125)"/>
      <use xlink:href="#ArialMT-6d" transform="translate(468.848047 0.125)"/>
     </g>
    </g>
    <g id="line2d_21">
     <path d="M 186.55806 34.987276 
L 192.34806 34.987276 
L 198.13806 34.987276 
" style="fill: none; stroke: #1f77b4; stroke-linecap: square"/>
    </g>
    <g id="text_10">
     <!-- $W_\mathrm{sc}=$0.6μm -->
     <g transform="translate(202.77006 37.013776) scale(0.0579 -0.0579)">
      <defs>
       <path id="ArialMT-36" d="M 3184 3459 
L 2625 3416 
Q 2550 3747 2413 3897 
Q 2184 4138 1850 4138 
Q 1581 4138 1378 3988 
Q 1113 3794 959 3422 
Q 806 3050 800 2363 
Q 1003 2672 1297 2822 
Q 1591 2972 1913 2972 
Q 2475 2972 2870 2558 
Q 3266 2144 3266 1488 
Q 3266 1056 3080 686 
Q 2894 316 2569 119 
Q 2244 -78 1831 -78 
Q 1128 -78 684 439 
Q 241 956 241 2144 
Q 241 3472 731 4075 
Q 1159 4600 1884 4600 
Q 2425 4600 2770 4297 
Q 3116 3994 3184 3459 
z
M 888 1484 
Q 888 1194 1011 928 
Q 1134 663 1356 523 
Q 1578 384 1822 384 
Q 2178 384 2434 671 
Q 2691 959 2691 1453 
Q 2691 1928 2437 2201 
Q 2184 2475 1800 2475 
Q 1419 2475 1153 2201 
Q 888 1928 888 1484 
z
" transform="scale(0.015625)"/>
      </defs>
      <use xlink:href="#Cmmi10-57" transform="translate(0 0.125)"/>
      <use xlink:href="#Cmr10-73" transform="translate(94.384766 -16.88125) scale(0.7)"/>
      <use xlink:href="#Cmr10-63" transform="translate(121.967773 -16.88125) scale(0.7)"/>
      <use xlink:href="#Cmr10-3d" transform="translate(176.973047 0.125)"/>
      <use xlink:href="#ArialMT-30" transform="translate(272.217188 0.125)"/>
      <use xlink:href="#ArialMT-2e" transform="translate(327.832422 0.125)"/>
      <use xlink:href="#ArialMT-36" transform="translate(355.615625 0.125)"/>
      <use xlink:href="#ArialMT-3bc" transform="translate(411.230859 0.125)"/>
      <use xlink:href="#ArialMT-6d" transform="translate(468.848047 0.125)"/>
     </g>
    </g>
    <g id="line2d_22">
     <path d="M 186.55806 43.209076 
L 192.34806 43.209076 
L 198.13806 43.209076 
" style="fill: none; stroke: #9467bd; stroke-linecap: square"/>
    </g>
    <g id="text_11">
     <!-- $W_\mathrm{sc}=$0.3μm -->
     <g transform="translate(202.77006 45.235576) scale(0.0579 -0.0579)">
      <use xlink:href="#Cmmi10-57" transform="translate(0 0.125)"/>
      <use xlink:href="#Cmr10-73" transform="translate(94.384766 -16.88125) scale(0.7)"/>
      <use xlink:href="#Cmr10-63" transform="translate(121.967773 -16.88125) scale(0.7)"/>
      <use xlink:href="#Cmr10-3d" transform="translate(176.973047 0.125)"/>
      <use xlink:href="#ArialMT-30" transform="translate(272.217188 0.125)"/>
      <use xlink:href="#ArialMT-2e" transform="translate(327.832422 0.125)"/>
      <use xlink:href="#ArialMT-33" transform="translate(355.615625 0.125)"/>
      <use xlink:href="#ArialMT-3bc" transform="translate(411.230859 0.125)"/>
      <use xlink:href="#ArialMT-6d" transform="translate(468.848047 0.125)"/>
     </g>
    </g>
   </g>
   <g id="line2d_23">
    <path d="M 106.151893 98.364623 
L 108.987653 95.76567 
L 111.823413 90.594912 
L 114.659173 87.209149 
L 117.494933 90.292809 
L 118.629237 94.416335 
L 119.76354 98.481346 
L 120.897844 100.030029 
L 122.032148 99.552268 
L 123.166452 98.011381 
L 124.300756 94.170544 
L 125.43506 87.353757 
L 126.569364 76.194889 
L 127.703668 58.961718 
L 128.837972 38.463485 
L 129.972276 29.021105 
L 131.10658 55.538056 
L 132.240884 115.894042 
L 133.375188 169.59282 
L 134.509492 188.737474 
L 135.643796 183.434712 
L 136.7781 171.530428 
L 137.912404 155.793911 
L 139.046708 144.154362 
L 140.181012 145.605585 
L 142.44962 156.568253 
L 143.583924 156.122125 
L 144.718228 149.982847 
L 145.852532 144.236527 
L 146.986835 139.085665 
L 148.121139 136.587845 
L 149.255443 135.776451 
L 150.389747 129.925597 
L 151.524051 123.45467 
L 152.658355 117.461366 
L 153.792659 110.767954 
L 154.926963 104.279578 
L 156.061267 95.936824 
L 157.195571 84.724965 
L 158.329875 73.912624 
L 159.464179 65.706318 
L 160.598483 61.696086 
L 161.732787 67.024607 
L 162.867091 75.511362 
L 165.702851 85.890066 
L 168.538611 90.794639 
L 171.374371 94.83025 
L 174.21013 98.134308 
L 177.04589 99.07615 
L 179.88165 98.099531 
L 182.71741 96.817124 
L 185.55317 96.407346 
L 188.38893 97.684281 
L 191.22469 100.085603 
L 194.06045 102.169257 
L 196.89621 102.747803 
L 199.73197 101.579551 
L 202.567729 99.82321 
L 205.403489 98.796192 
L 208.239249 98.714334 
L 211.075009 99.418197 
L 213.910769 100.728784 
L 216.746529 101.804939 
L 219.582289 102.119498 
L 222.418049 101.853109 
L 225.253809 101.549327 
L 230.925328 101.45994 
" clip-path="url(#p318a4aad7f)" style="fill: none; stroke: #2ca02c; stroke-linecap: square"/>
   </g>
   <g id="line2d_24">
    <path d="M 49.436695 102.372042 
L 55.108215 102.447071 
L 60.779735 101.940735 
L 66.451254 100.326797 
L 72.122774 99.078616 
L 77.794294 100.02709 
L 83.465814 102.183813 
L 89.137334 102.496993 
L 94.808853 100.932504 
L 97.644613 99.796784 
L 100.480373 96.878355 
L 103.316133 93.854474 
L 106.151893 92.891867 
L 108.987653 92.624191 
L 111.823413 93.334736 
L 114.659173 96.577454 
L 117.494933 97.397041 
L 120.330692 93.348783 
L 123.166452 93.04124 
L 126.002212 95.706583 
L 128.837972 102.100673 
L 131.673732 117.897217 
L 134.509492 129.156645 
L 137.345252 130.303894 
L 140.181012 129.99486 
L 143.016772 130.610824 
L 145.852532 126.433263 
L 148.688291 116.428268 
L 151.524051 111.451683 
L 154.359811 109.520796 
L 157.195571 105.5753 
L 160.031331 99.019952 
L 162.867091 91.712586 
L 165.702851 88.414379 
L 168.538611 87.807236 
L 171.374371 89.606359 
L 174.21013 92.235725 
L 177.04589 94.170202 
L 179.88165 96.878689 
L 182.71741 99.383803 
L 185.55317 101.43069 
L 188.38893 102.573601 
L 191.22469 103.073404 
L 194.06045 103.480468 
L 196.89621 102.614347 
L 199.73197 100.729323 
L 202.567729 98.58501 
L 205.403489 97.970958 
L 208.239249 98.847577 
L 213.910769 100.500483 
L 219.582289 101.856472 
L 225.253809 102.462616 
L 230.925328 102.390386 
" clip-path="url(#p318a4aad7f)" style="fill: none; stroke: #1f77b4; stroke-linecap: square"/>
   </g>
   <g id="line2d_25">
    <path d="M 72.122774 99.482737 
L 74.958534 98.254844 
L 77.794294 96.863408 
L 80.630054 96.803725 
L 83.465814 97.835084 
L 86.301574 99.404081 
L 89.137334 100.51317 
L 91.973094 101.284941 
L 94.808853 101.424419 
L 97.644613 101.280786 
L 100.480373 101.213198 
L 103.316133 101.085497 
L 106.151893 101.114542 
L 108.987653 101.335389 
L 111.823413 101.433984 
L 114.659173 100.732624 
L 117.494933 100.508726 
L 120.330692 99.986546 
L 123.166452 100.309564 
L 124.300756 105.73899 
L 125.43506 107.032414 
L 126.569364 101.714889 
L 127.703668 103.623024 
L 128.837972 106.618699 
L 129.972276 107.411827 
L 131.10658 112.886047 
L 132.240884 116.017279 
L 133.375188 112.430597 
L 134.509492 110.565352 
L 135.643796 115.1677 
L 136.7781 118.0185 
L 137.912404 111.592215 
L 139.046708 105.940454 
L 140.181012 94.300579 
L 141.315316 90.091258 
L 142.44962 113.143909 
L 143.583924 126.643684 
L 144.718228 119.400162 
L 145.852532 109.761275 
L 146.986835 109.473422 
L 148.121139 114.634111 
L 149.255443 113.887127 
L 150.389747 112.298065 
L 151.524051 105.374262 
L 152.658355 101.219148 
L 153.792659 102.111202 
L 154.926963 99.750593 
L 156.061267 105.019282 
L 157.195571 108.670115 
L 160.031331 102.463531 
L 162.867091 102.491106 
L 165.702851 103.051231 
L 168.538611 102.769185 
L 171.374371 102.472169 
L 174.21013 101.702219 
L 177.04589 101.270866 
L 179.88165 101.092994 
L 182.71741 100.6533 
L 185.55317 100.991793 
L 188.38893 100.898738 
L 191.22469 99.864047 
L 194.06045 98.829038 
L 196.89621 97.4135 
L 199.73197 96.432227 
L 202.567729 97.19004 
L 205.403489 97.974529 
L 208.239249 97.74053 
L 211.075009 98.506875 
L 213.910769 99.014899 
L 216.746529 100.772997 
L 219.582289 103.146194 
L 222.418049 101.676523 
L 225.253809 101.060456 
L 228.089568 101.917794 
L 230.925328 101.758394 
" clip-path="url(#p318a4aad7f)" style="fill: none; stroke: #9467bd; stroke-linecap: square"/>
   </g>
  </g>
  <g id="axes_2">
   <g id="patch_8">
    <path d="M 40.362263 214.481715 
L 239.99976 214.481715 
L 239.99976 115.55024 
L 40.362263 115.55024 
L 40.362263 214.481715 
z
" style="fill: none"/>
   </g>
   <g id="matplotlib.axis_3">
    <g id="xtick_4">
     <g id="line2d_26">
      <g>
       <use xlink:href="#md074b6ad50" x="83.465814" y="214.481715" style="stroke: #000000; stroke-width: 0.5"/>
      </g>
     </g>
     <g id="text_12">
      <!-- −0.5 -->
      <g transform="translate(75.243844 223.944173) scale(0.0833 -0.0833)">
       <defs>
        <path id="ArialMT-2212" d="M 3381 1997 
L 356 1997 
L 356 2522 
L 3381 2522 
L 3381 1997 
z
" transform="scale(0.015625)"/>
        <path id="ArialMT-35" d="M 266 1200 
L 856 1250 
Q 922 819 1161 601 
Q 1400 384 1738 384 
Q 2144 384 2425 690 
Q 2706 997 2706 1503 
Q 2706 1984 2436 2262 
Q 2166 2541 1728 2541 
Q 1456 2541 1237 2417 
Q 1019 2294 894 2097 
L 366 2166 
L 809 4519 
L 3088 4519 
L 3088 3981 
L 1259 3981 
L 1013 2750 
Q 1425 3038 1878 3038 
Q 2478 3038 2890 2622 
Q 3303 2206 3303 1553 
Q 3303 931 2941 478 
Q 2500 -78 1738 -78 
Q 1113 -78 717 272 
Q 322 622 266 1200 
z
" transform="scale(0.015625)"/>
       </defs>
       <use xlink:href="#ArialMT-2212"/>
       <use xlink:href="#ArialMT-30" x="58.398438"/>
       <use xlink:href="#ArialMT-2e" x="114.013672"/>
       <use xlink:href="#ArialMT-35" x="141.796875"/>
      </g>
     </g>
    </g>
    <g id="xtick_5">
     <g id="line2d_27">
      <g>
       <use xlink:href="#md074b6ad50" x="140.181012" y="214.481715" style="stroke: #000000; stroke-width: 0.5"/>
      </g>
     </g>
     <g id="text_13">
      <!-- 0.0 -->
      <g transform="translate(134.391662 223.944173) scale(0.0833 -0.0833)">
       <use xlink:href="#ArialMT-30"/>
       <use xlink:href="#ArialMT-2e" x="55.615234"/>
       <use xlink:href="#ArialMT-30" x="83.398438"/>
      </g>
     </g>
    </g>
    <g id="xtick_6">
     <g id="line2d_28">
      <g>
       <use xlink:href="#md074b6ad50" x="196.89621" y="214.481715" style="stroke: #000000; stroke-width: 0.5"/>
      </g>
     </g>
     <g id="text_14">
      <!-- 0.5 -->
      <g transform="translate(191.10686 223.944173) scale(0.0833 -0.0833)">
       <use xlink:href="#ArialMT-30"/>
       <use xlink:href="#ArialMT-2e" x="55.615234"/>
       <use xlink:href="#ArialMT-35" x="83.398438"/>
      </g>
     </g>
    </g>
    <g id="text_15">
     <!-- $B_\parallel$ (T) -->
     <g transform="translate(125.231012 236.89976) scale(0.1 -0.1)">
      <defs>
       <path id="STIXGeneral-Regular-2225" d="M 2522 -1210 
L 2099 -1210 
L 2099 4416 
L 2522 4416 
L 2522 -1210 
z
M 1248 -1210 
L 826 -1210 
L 826 4416 
L 1248 4416 
L 1248 -1210 
z
" transform="scale(0.015625)"/>
      </defs>
      <use xlink:href="#Cmmi10-42" transform="translate(0 0.203125)"/>
      <use xlink:href="#STIXGeneral-Regular-2225" transform="translate(88.072266 -16.803125) scale(0.7)"/>
      <use xlink:href="#ArialMT-20" transform="translate(143.350616 0.203125)"/>
      <use xlink:href="#ArialMT-28" transform="translate(171.13382 0.203125)"/>
      <use xlink:href="#ArialMT-54" transform="translate(204.434601 0.203125)"/>
      <use xlink:href="#ArialMT-29" transform="translate(265.518585 0.203125)"/>
     </g>
    </g>
   </g>
   <g id="matplotlib.axis_4">
    <g id="ytick_6">
     <g id="line2d_29">
      <g>
       <use xlink:href="#me9589c213f" x="40.362263" y="192.048911" style="stroke: #000000; stroke-width: 0.5"/>
      </g>
     </g>
     <g id="text_16">
      <!-- −400 -->
      <g transform="translate(18.10024 195.03014) scale(0.0833 -0.0833)">
       <use xlink:href="#ArialMT-2212"/>
       <use xlink:href="#ArialMT-34" x="58.398438"/>
       <use xlink:href="#ArialMT-30" x="114.013672"/>
       <use xlink:href="#ArialMT-30" x="169.628906"/>
      </g>
     </g>
    </g>
    <g id="ytick_7">
     <g id="line2d_30">
      <g>
       <use xlink:href="#me9589c213f" x="40.362263" y="153.799575" style="stroke: #000000; stroke-width: 0.5"/>
      </g>
     </g>
     <g id="text_17">
      <!-- −200 -->
      <g transform="translate(18.10024 156.780804) scale(0.0833 -0.0833)">
       <use xlink:href="#ArialMT-2212"/>
       <use xlink:href="#ArialMT-32" x="58.398438"/>
       <use xlink:href="#ArialMT-30" x="114.013672"/>
       <use xlink:href="#ArialMT-30" x="169.628906"/>
      </g>
     </g>
    </g>
    <g id="ytick_8">
     <g id="line2d_31">
      <g>
       <use xlink:href="#me9589c213f" x="40.362263" y="115.55024" style="stroke: #000000; stroke-width: 0.5"/>
      </g>
     </g>
     <g id="text_18">
      <!-- 0 -->
      <g transform="translate(32.230003 118.531469) scale(0.0833 -0.0833)">
       <use xlink:href="#ArialMT-30"/>
      </g>
     </g>
    </g>
    <g id="text_19">
     <!-- $\partial_B^2 I_{\mathrm{c}-}$ (μA/T$^2$) -->
     <g transform="translate(11.50024 196.265977) rotate(-90) scale(0.1 -0.1)">
      <defs>
       <path id="Cmsy10-a1" d="M 653 1472 
Q 600 1472 565 1512 
Q 531 1553 531 1600 
Q 531 1647 565 1687 
Q 600 1728 653 1728 
L 4325 1728 
Q 4375 1728 4408 1687 
Q 4441 1647 4441 1600 
Q 4441 1553 4408 1512 
Q 4375 1472 4325 1472 
L 653 1472 
z
" transform="scale(0.015625)"/>
      </defs>
      <use xlink:href="#STIXGeneral-Regular-2202" transform="translate(0 0.109375)"/>
      <use xlink:href="#Cmr10-32" transform="translate(51.564131 38.373438) scale(0.7)"/>
      <use xlink:href="#Cmmi10-42" transform="translate(51.564131 -25.4) scale(0.7)"/>
      <use xlink:href="#Cmmi10-49" transform="translate(110.98835 0.109375)"/>
      <use xlink:href="#Cmr10-63" transform="translate(154.884835 -16.896875) scale(0.7)"/>
      <use xlink:href="#Cmsy10-a1" transform="translate(198.245186 -16.896875) scale(0.7)"/>
      <use xlink:href="#ArialMT-20" transform="translate(271.293428 0.109375)"/>
      <use xlink:href="#ArialMT-28" transform="translate(299.076631 0.109375)"/>
      <use xlink:href="#ArialMT-3bc" transform="translate(332.377413 0.109375)"/>
      <use xlink:href="#ArialMT-41" transform="translate(389.9946 0.109375)"/>
      <use xlink:href="#ArialMT-2f" transform="translate(456.693819 0.109375)"/>
      <use xlink:href="#ArialMT-54" transform="translate(484.477022 0.109375)"/>
      <use xlink:href="#Cmr10-32" transform="translate(550.025147 38.373438) scale(0.7)"/>
      <use xlink:href="#ArialMT-29" transform="translate(591.402491 0.109375)"/>
     </g>
    </g>
   </g>
   <g id="line2d_32">
    <path d="M 40.362263 115.55024 
L 239.99976 115.55024 
" clip-path="url(#pf358f5edf9)" style="fill: none; stroke: #808080; stroke-width: 0.5; stroke-linecap: square"/>
   </g>
   <g id="line2d_33">
    <path d="M 140.181012 214.481715 
L 140.181012 115.55024 
" clip-path="url(#pf358f5edf9)" style="fill: none; stroke: #808080; stroke-width: 0.5; stroke-linecap: square"/>
   </g>
   <g id="patch_9">
    <path d="M 40.362263 214.481715 
L 40.362263 115.55024 
" style="fill: none; stroke: #000000; stroke-width: 0.5; stroke-linejoin: miter; stroke-linecap: square"/>
   </g>
   <g id="patch_10">
    <path d="M 239.99976 214.481715 
L 239.99976 115.55024 
" style="fill: none; stroke: #000000; stroke-width: 0.5; stroke-linejoin: miter; stroke-linecap: square"/>
   </g>
   <g id="patch_11">
    <path d="M 40.362263 214.481715 
L 239.99976 214.481715 
" style="fill: none; stroke: #000000; stroke-width: 0.5; stroke-linejoin: miter; stroke-linecap: square"/>
   </g>
   <g id="patch_12">
    <path d="M 40.362263 115.55024 
L 239.99976 115.55024 
" style="fill: none; stroke: #000000; stroke-width: 0.5; stroke-linejoin: miter; stroke-linecap: square"/>
   </g>
   <g id="line2d_34">
    <path d="M 100.480373 104.133929 
L 101.614677 111.989598 
L 102.748981 117.822292 
L 103.883285 121.836941 
L 104.450437 123.226538 
L 105.017589 124.304919 
L 105.584741 124.830388 
L 106.151893 124.858785 
L 107.286197 124.48352 
L 107.853349 124.613349 
L 108.987653 125.399056 
L 111.823413 128.753192 
L 113.524869 130.102159 
L 114.092021 130.055836 
L 114.659173 130.395958 
L 115.226325 131.564745 
L 120.330692 146.868434 
L 122.032148 153.146895 
L 123.166452 159.056728 
L 123.733604 161.164285 
L 124.300756 161.668432 
L 124.867908 159.686808 
L 125.43506 154.536449 
L 126.002212 146.057288 
L 126.569364 134.353449 
L 127.703668 103.724303 
L 129.405124 51.21486 
L 129.972276 39.262363 
L 130.539428 32.057635 
L 131.10658 29.615509 
L 131.673732 31.885943 
L 132.240884 38.424494 
L 134.509492 73.407092 
L 135.076644 77.533273 
L 135.643796 76.513484 
L 136.210948 71.20308 
L 137.345252 54.895598 
L 138.479556 34.037963 
L 139.61386 12.147603 
L 140.181012 3.876425 
L 140.634463 -1 
M 142.084237 -1 
L 142.44962 2.497995 
L 143.016772 11.198977 
L 143.583924 24.727228 
L 144.151076 44.579411 
L 145.28538 97.981613 
L 146.419683 151.198652 
L 146.986835 172.130296 
L 147.553987 188.471875 
L 148.121139 199.340957 
L 148.688291 204.037306 
L 149.255443 202.62991 
L 149.822595 195.462042 
L 150.956899 170.51027 
L 152.091203 146.937675 
L 153.225507 130.858647 
L 154.359811 120.005759 
L 154.926963 116.543563 
L 155.494115 115.085902 
L 156.061267 115.141771 
L 156.628419 116.036429 
L 157.195571 117.229174 
L 157.762723 118.687622 
L 158.329875 120.901129 
L 160.031331 129.285959 
L 160.598483 131.444571 
L 161.165635 132.553071 
L 161.732787 132.211541 
L 162.299939 130.786865 
L 164.568547 123.646811 
L 165.135699 122.253335 
L 165.702851 121.304574 
L 166.270003 120.994816 
L 166.837155 121.135827 
L 167.404307 121.602264 
L 167.971459 122.36725 
L 169.105763 124.386451 
L 169.672915 124.616266 
L 170.240067 124.196051 
L 170.807219 123.331983 
L 171.374371 122.01393 
L 172.508675 118.851285 
L 173.075826 117.645127 
L 173.642978 117.05243 
L 174.21013 117.464776 
L 174.777282 119.022618 
L 175.344434 121.632825 
L 177.04589 132.721928 
L 177.613042 134.285839 
L 178.180194 133.856613 
L 178.747346 131.669698 
L 179.314498 127.949417 
L 181.583106 108.366347 
L 182.150258 105.474013 
L 182.71741 104.377884 
L 183.284562 105.124461 
L 183.851714 107.532674 
L 184.986018 113.895037 
L 185.55317 116.120858 
L 186.120322 117.805662 
L 186.687474 118.960539 
L 187.254626 119.502594 
L 187.821778 119.45356 
L 188.38893 118.979286 
L 189.523234 117.74091 
L 190.090386 117.315742 
L 190.657538 117.202149 
L 191.22469 117.39275 
L 192.358994 118.028039 
L 192.926146 117.957741 
L 197.463362 116.431873 
L 198.597666 116.577705 
L 200.299121 117.079052 
L 202.000577 116.959156 
L 207.104945 116.028237 
L 209.373553 116.188259 
L 210.507857 116.501981 
L 212.209313 117.142913 
L 212.776465 117.177623 
L 217.880833 116.558341 
L 220.149441 116.597979 
L 221.850897 116.189244 
L 224.119505 115.904824 
L 225.820961 115.589796 
L 228.089568 115.686149 
L 229.223872 116.015376 
L 230.358176 116.637405 
L 230.358176 116.637405 
" clip-path="url(#pf358f5edf9)" style="fill: none; stroke: #d62728; stroke-linecap: square"/>
   </g>
   <g id="line2d_35">
    <path d="M 106.151893 120.391236 
L 108.420501 122.377287 
L 110.689109 123.636242 
L 112.957717 123.475422 
L 115.226325 125.482953 
L 117.494933 128.414439 
L 119.76354 133.931243 
L 122.032148 140.879081 
L 124.300756 137.026698 
L 126.569364 121.715132 
L 128.837972 107.330521 
L 131.10658 95.149319 
L 133.375188 87.963539 
L 135.643796 69.035789 
L 137.912404 51.685115 
L 140.181012 60.949755 
L 142.44962 56.644372 
L 144.718228 53.486174 
L 146.986835 98.380466 
L 149.255443 149.42564 
L 151.524051 150.669239 
L 153.792659 128.546248 
L 156.061267 120.077582 
L 158.329875 123.59648 
L 160.598483 129.313321 
L 162.867091 127.780406 
L 165.135699 124.509144 
L 167.404307 122.933177 
L 169.672915 121.566421 
L 171.941523 121.161026 
L 174.21013 120.388341 
L 176.478738 119.71908 
L 178.747346 118.806271 
L 181.015954 117.567447 
L 183.284562 117.539717 
L 185.55317 117.921327 
L 191.22469 117.681224 
L 196.89621 116.778755 
L 202.567729 116.494462 
L 208.239249 116.581333 
L 213.910769 116.059708 
L 219.582289 115.909182 
L 225.253809 116.028499 
L 230.925328 115.93911 
" clip-path="url(#pf358f5edf9)" style="fill: none; stroke: #ff7f0e; stroke-linecap: square"/>
   </g>
   <g id="line2d_36">
    <path d="M 106.151893 119.040106 
L 108.987653 121.404358 
L 111.823413 125.333666 
L 114.659173 128.881519 
L 117.494933 137.519994 
L 118.629237 144.369064 
L 119.76354 149.007876 
L 120.897844 146.56474 
L 122.032148 139.249651 
L 123.166452 130.177518 
L 124.300756 121.090285 
L 125.43506 113.094424 
L 126.569364 107.460975 
L 127.703668 102.42976 
L 128.837972 97.681584 
L 129.972276 93.918721 
L 131.10658 89.755228 
L 132.240884 87.262563 
L 133.375188 85.883177 
L 134.509492 82.783852 
L 135.643796 77.203197 
L 136.7781 71.897087 
L 137.912404 71.680532 
L 139.046708 74.960878 
L 140.181012 76.089817 
L 142.44962 68.870889 
L 143.583924 58.990335 
L 144.718228 46.778336 
L 145.852532 38.825163 
L 146.986835 49.988315 
L 148.121139 93.375737 
L 149.255443 147.551442 
L 150.389747 178.168433 
L 151.524051 175.422923 
L 152.658355 156.216676 
L 153.792659 139.275263 
L 154.926963 129.165629 
L 156.061267 122.830294 
L 157.195571 118.591862 
L 158.329875 117.570613 
L 159.464179 117.557641 
L 160.598483 118.080831 
L 161.732787 122.459583 
L 162.867091 126.574616 
L 165.702851 127.917595 
L 168.538611 124.892105 
L 171.374371 120.787061 
L 174.21013 118.775896 
L 177.04589 118.141963 
L 179.88165 118.029655 
L 182.71741 118.741671 
L 185.55317 119.407144 
L 188.38893 118.667566 
L 191.22469 116.866782 
L 194.06045 115.264657 
L 196.89621 114.850963 
L 199.73197 115.811864 
L 202.567729 117.24193 
L 205.403489 118.182324 
L 208.239249 118.280354 
L 211.075009 117.563888 
L 213.910769 116.518726 
L 216.746529 115.681322 
L 219.582289 115.300554 
L 222.418049 115.574931 
L 225.253809 115.891723 
L 230.925328 115.891863 
" clip-path="url(#pf358f5edf9)" style="fill: none; stroke: #2ca02c; stroke-linecap: square"/>
   </g>
   <g id="line2d_37">
    <path d="M 49.436695 115.16368 
L 55.108215 115.12607 
L 60.779735 115.568693 
L 66.451254 116.913656 
L 72.122774 118.094225 
L 77.794294 117.412262 
L 83.465814 115.389119 
L 89.137334 114.927522 
L 94.808853 116.450476 
L 97.644613 117.568798 
L 100.480373 120.041289 
L 103.316133 122.588755 
L 106.151893 124.07166 
L 108.987653 126.645652 
L 111.823413 128.742139 
L 114.659173 125.488738 
L 117.494933 120.877934 
L 120.330692 118.452012 
L 123.166452 113.610636 
L 126.002212 108.646523 
L 128.837972 105.293071 
L 131.673732 100.896562 
L 134.509492 96.335312 
L 137.345252 93.625713 
L 140.181012 91.844372 
L 143.016772 87.599207 
L 145.852532 91.79642 
L 148.688291 107.006858 
L 151.524051 116.671434 
L 154.359811 120.955848 
L 157.195571 122.375656 
L 160.031331 121.485201 
L 162.867091 121.21628 
L 165.702851 120.779736 
L 168.538611 122.303131 
L 171.374371 123.689649 
L 174.21013 123.217606 
L 177.04589 122.035399 
L 179.88165 119.684296 
L 182.71741 117.498356 
L 185.55317 115.918358 
L 188.38893 115.083389 
L 191.22469 114.804368 
L 194.06045 114.516076 
L 196.89621 114.946904 
L 199.73197 116.138392 
L 202.567729 117.972095 
L 205.403489 118.749006 
L 208.239249 118.134304 
L 213.910769 116.757217 
L 219.582289 115.598677 
L 225.253809 115.099312 
L 230.925328 115.160265 
" clip-path="url(#pf358f5edf9)" style="fill: none; stroke: #1f77b4; stroke-linecap: square"/>
   </g>
   <g id="line2d_38">
    <path d="M 72.122774 117.537383 
L 74.958534 118.752111 
L 77.794294 120.229628 
L 80.630054 120.197482 
L 83.465814 119.124345 
L 86.301574 117.858851 
L 89.137334 117.124626 
L 91.973094 116.800718 
L 94.808853 116.527502 
L 97.644613 116.280536 
L 100.480373 116.366365 
L 103.316133 116.383883 
L 106.151893 115.74713 
L 108.987653 114.751947 
L 111.823413 114.685538 
L 114.659173 114.880117 
L 117.494933 115.092145 
L 120.330692 115.360821 
L 123.166452 112.248078 
L 124.300756 114.391852 
L 125.43506 117.024579 
L 126.569364 112.697311 
L 127.703668 110.753099 
L 128.837972 113.078651 
L 129.972276 113.172223 
L 131.10658 106.438362 
L 132.240884 101.8915 
L 133.375188 104.190958 
L 134.509492 105.137243 
L 135.643796 105.220557 
L 136.7781 102.785955 
L 137.912404 104.441609 
L 139.046708 112.753725 
L 140.181012 123.575156 
L 141.315316 122.633544 
L 142.44962 108.879588 
L 143.583924 101.690743 
L 144.718228 100.709993 
L 145.852532 105.734448 
L 146.986835 109.234037 
L 148.121139 106.571873 
L 149.255443 107.023374 
L 150.389747 108.071204 
L 151.524051 110.547863 
L 152.658355 110.899673 
L 153.792659 114.335885 
L 154.926963 121.076315 
L 156.061267 115.820192 
L 157.195571 111.616963 
L 160.031331 116.714394 
L 162.867091 116.351971 
L 165.702851 115.95738 
L 168.538611 116.175932 
L 171.374371 116.000774 
L 174.21013 116.214098 
L 177.04589 116.328805 
L 179.88165 116.233686 
L 182.71741 116.159177 
L 185.55317 115.74594 
L 188.38893 115.96441 
L 191.22469 116.843269 
L 194.06045 117.936572 
L 196.89621 119.175288 
L 199.73197 119.801427 
L 202.567729 119.32298 
L 205.403489 118.690542 
L 208.239249 118.788629 
L 211.075009 118.229491 
L 213.910769 117.882767 
L 216.746529 116.365139 
L 219.582289 114.385775 
L 222.418049 115.804064 
L 225.253809 116.289688 
L 228.089568 115.425261 
L 230.925328 115.554491 
" clip-path="url(#pf358f5edf9)" style="fill: none; stroke: #9467bd; stroke-linecap: square"/>
   </g>
  </g>
 </g>
 <defs>
  <clipPath id="p318a4aad7f">
   <rect x="40.362263" y="3.00024" width="199.637497" height="98.931475"/>
  </clipPath>
  <clipPath id="pf358f5edf9">
   <rect x="40.362263" y="115.55024" width="199.637497" height="98.931475"/>
  </clipPath>
 </defs>
</svg>
