<?xml version="1.0" encoding="utf-8" standalone="no"?>
<!DOCTYPE svg PUBLIC "-//W3C//DTD SVG 1.1//EN"
  "http://www.w3.org/Graphics/SVG/1.1/DTD/svg11.dtd">
<svg xmlns:xlink="http://www.w3.org/1999/xlink" width="243pt" height="243pt" viewBox="0 0 243 243" xmlns="http://www.w3.org/2000/svg" version="1.1">
 <metadata>
  <rdf:RDF xmlns:dc="http://purl.org/dc/elements/1.1/" xmlns:cc="http://creativecommons.org/ns#" xmlns:rdf="http://www.w3.org/1999/02/22-rdf-syntax-ns#">
   <cc:Work>
    <dc:type rdf:resource="http://purl.org/dc/dcmitype/StillImage"/>
    <dc:date>2024-12-02T22:13:38.387192</dc:date>
    <dc:format>image/svg+xml</dc:format>
    <dc:creator>
     <cc:Agent>
      <dc:title>Matplotlib v3.8.4, https://matplotlib.org/</dc:title>
     </cc:Agent>
    </dc:creator>
   </cc:Work>
  </rdf:RDF>
 </metadata>
 <defs>
  <style type="text/css">*{stroke-linejoin: round; stroke-linecap: butt}</style>
 </defs>
 <g id="figure_1">
  <g id="patch_1">
   <path d="M 0 243 
L 243 243 
L 243 0 
L 0 0 
L 0 243 
z
" style="fill: none"/>
  </g>
  <g id="axes_1">
   <g id="patch_2">
    <path d="M 29.497742 101.931715 
L 239.99976 101.931715 
L 239.99976 3.00024 
L 29.497742 3.00024 
L 29.497742 101.931715 
z
" style="fill: none"/>
   </g>
   <g id="matplotlib.axis_1">
    <g id="xtick_1">
     <g id="line2d_1">
      <defs>
       <path id="me6a21ef372" d="M 0 0 
L 0 -2 
" style="stroke: #000000; stroke-width: 0.5"/>
      </defs>
      <g>
       <use xlink:href="#me6a21ef372" x="45.046186" y="101.931715" style="stroke: #000000; stroke-width: 0.5"/>
      </g>
     </g>
    </g>
    <g id="xtick_2">
     <g id="line2d_2">
      <g>
       <use xlink:href="#me6a21ef372" x="74.947041" y="101.931715" style="stroke: #000000; stroke-width: 0.5"/>
      </g>
     </g>
    </g>
    <g id="xtick_3">
     <g id="line2d_3">
      <g>
       <use xlink:href="#me6a21ef372" x="104.847896" y="101.931715" style="stroke: #000000; stroke-width: 0.5"/>
      </g>
     </g>
    </g>
    <g id="xtick_4">
     <g id="line2d_4">
      <g>
       <use xlink:href="#me6a21ef372" x="134.748751" y="101.931715" style="stroke: #000000; stroke-width: 0.5"/>
      </g>
     </g>
    </g>
    <g id="xtick_5">
     <g id="line2d_5">
      <g>
       <use xlink:href="#me6a21ef372" x="164.649606" y="101.931715" style="stroke: #000000; stroke-width: 0.5"/>
      </g>
     </g>
    </g>
    <g id="xtick_6">
     <g id="line2d_6">
      <g>
       <use xlink:href="#me6a21ef372" x="194.550461" y="101.931715" style="stroke: #000000; stroke-width: 0.5"/>
      </g>
     </g>
    </g>
    <g id="xtick_7">
     <g id="line2d_7">
      <g>
       <use xlink:href="#me6a21ef372" x="224.451315" y="101.931715" style="stroke: #000000; stroke-width: 0.5"/>
      </g>
     </g>
    </g>
   </g>
   <g id="matplotlib.axis_2">
    <g id="ytick_1">
     <g id="line2d_8">
      <defs>
       <path id="m5cd1396a14" d="M 0 0 
L 2 0 
" style="stroke: #000000; stroke-width: 0.5"/>
      </defs>
      <g>
       <use xlink:href="#m5cd1396a14" x="29.497742" y="101.931715" style="stroke: #000000; stroke-width: 0.5"/>
      </g>
     </g>
     <g id="text_1">
      <!-- 0 -->
      <g transform="translate(21.365481 104.912944) scale(0.0833 -0.0833)">
       <defs>
        <path id="ArialMT-30" d="M 266 2259 
Q 266 3072 433 3567 
Q 600 4063 929 4331 
Q 1259 4600 1759 4600 
Q 2128 4600 2406 4451 
Q 2684 4303 2865 4023 
Q 3047 3744 3150 3342 
Q 3253 2941 3253 2259 
Q 3253 1453 3087 958 
Q 2922 463 2592 192 
Q 2263 -78 1759 -78 
Q 1097 -78 719 397 
Q 266 969 266 2259 
z
M 844 2259 
Q 844 1131 1108 757 
Q 1372 384 1759 384 
Q 2147 384 2411 759 
Q 2675 1134 2675 2259 
Q 2675 3391 2411 3762 
Q 2147 4134 1753 4134 
Q 1366 4134 1134 3806 
Q 844 3388 844 2259 
z
" transform="scale(0.015625)"/>
       </defs>
       <use xlink:href="#ArialMT-30"/>
      </g>
     </g>
    </g>
    <g id="ytick_2">
     <g id="line2d_9">
      <g>
       <use xlink:href="#m5cd1396a14" x="29.497742" y="67.056309" style="stroke: #000000; stroke-width: 0.5"/>
      </g>
     </g>
     <g id="text_2">
      <!-- 2 -->
      <g transform="translate(21.365481 70.037538) scale(0.0833 -0.0833)">
       <defs>
        <path id="ArialMT-32" d="M 3222 541 
L 3222 0 
L 194 0 
Q 188 203 259 391 
Q 375 700 629 1000 
Q 884 1300 1366 1694 
Q 2113 2306 2375 2664 
Q 2638 3022 2638 3341 
Q 2638 3675 2398 3904 
Q 2159 4134 1775 4134 
Q 1369 4134 1125 3890 
Q 881 3647 878 3216 
L 300 3275 
Q 359 3922 746 4261 
Q 1134 4600 1788 4600 
Q 2447 4600 2831 4234 
Q 3216 3869 3216 3328 
Q 3216 3053 3103 2787 
Q 2991 2522 2730 2228 
Q 2469 1934 1863 1422 
Q 1356 997 1212 845 
Q 1069 694 975 541 
L 3222 541 
z
" transform="scale(0.015625)"/>
       </defs>
       <use xlink:href="#ArialMT-32"/>
      </g>
     </g>
    </g>
    <g id="ytick_3">
     <g id="line2d_10">
      <g>
       <use xlink:href="#m5cd1396a14" x="29.497742" y="32.180903" style="stroke: #000000; stroke-width: 0.5"/>
      </g>
     </g>
     <g id="text_3">
      <!-- 4 -->
      <g transform="translate(21.365481 35.162132) scale(0.0833 -0.0833)">
       <defs>
        <path id="ArialMT-34" d="M 2069 0 
L 2069 1097 
L 81 1097 
L 81 1613 
L 2172 4581 
L 2631 4581 
L 2631 1613 
L 3250 1613 
L 3250 1097 
L 2631 1097 
L 2631 0 
L 2069 0 
z
M 2069 1613 
L 2069 3678 
L 634 1613 
L 2069 1613 
z
" transform="scale(0.015625)"/>
       </defs>
       <use xlink:href="#ArialMT-34"/>
      </g>
     </g>
    </g>
    <g id="text_4">
     <!-- $I_{\mathrm{c}+}$ (μA) -->
     <g transform="translate(15.065481 71.465977) rotate(-90) scale(0.1 -0.1)">
      <defs>
       <path id="Cmmi10-49" d="M 269 0 
Q 206 0 206 84 
Q 231 225 288 225 
Q 666 225 800 250 
Q 947 284 984 441 
L 1863 3956 
Q 1875 4019 1875 4038 
Q 1875 4078 1854 4095 
Q 1834 4113 1791 4122 
Q 1663 4147 1306 4147 
Q 1241 4147 1241 4231 
Q 1263 4313 1275 4342 
Q 1288 4372 1350 4372 
L 3138 4372 
Q 3200 4372 3200 4288 
Q 3197 4272 3187 4234 
Q 3178 4197 3162 4172 
Q 3147 4147 3116 4147 
Q 2741 4147 2597 4122 
Q 2456 4088 2419 3928 
L 1544 416 
Q 1528 338 1528 331 
Q 1528 316 1533 302 
Q 1538 288 1552 277 
Q 1566 266 1580 261 
Q 1594 256 1613 250 
Q 1734 225 2100 225 
Q 2163 225 2163 141 
Q 2141 50 2128 25 
Q 2116 0 2053 0 
L 269 0 
z
" transform="scale(0.015625)"/>
       <path id="Cmr10-63" d="M 1594 -72 
Q 1206 -72 890 129 
Q 575 331 394 667 
Q 213 1003 213 1381 
Q 213 1759 392 2106 
Q 572 2453 889 2661 
Q 1206 2869 1594 2869 
Q 1969 2869 2276 2722 
Q 2584 2575 2584 2241 
Q 2584 2116 2495 2023 
Q 2406 1931 2278 1931 
Q 2150 1931 2061 2023 
Q 1972 2116 1972 2241 
Q 1972 2353 2044 2436 
Q 2116 2519 2222 2541 
Q 2000 2681 1600 2681 
Q 1294 2681 1106 2478 
Q 919 2275 844 1975 
Q 769 1675 769 1381 
Q 769 1072 861 783 
Q 953 494 1158 305 
Q 1363 116 1672 116 
Q 1975 116 2187 302 
Q 2400 488 2478 788 
Q 2478 825 2528 825 
L 2606 825 
Q 2625 825 2640 808 
Q 2656 791 2656 769 
L 2656 750 
Q 2559 372 2271 150 
Q 1984 -72 1594 -72 
z
" transform="scale(0.015625)"/>
       <path id="Cmr10-2b" d="M 481 1472 
Q 428 1472 393 1512 
Q 359 1553 359 1600 
Q 359 1647 393 1687 
Q 428 1728 481 1728 
L 2363 1728 
L 2363 3616 
Q 2363 3666 2400 3698 
Q 2438 3731 2491 3731 
Q 2538 3731 2578 3698 
Q 2619 3666 2619 3616 
L 2619 1728 
L 4500 1728 
Q 4547 1728 4581 1687 
Q 4616 1647 4616 1600 
Q 4616 1553 4581 1512 
Q 4547 1472 4500 1472 
L 2619 1472 
L 2619 -416 
Q 2619 -466 2578 -498 
Q 2538 -531 2491 -531 
Q 2438 -531 2400 -498 
Q 2363 -466 2363 -416 
L 2363 1472 
L 481 1472 
z
" transform="scale(0.015625)"/>
       <path id="ArialMT-20" transform="scale(0.015625)"/>
       <path id="ArialMT-28" d="M 1497 -1347 
Q 1031 -759 709 28 
Q 388 816 388 1659 
Q 388 2403 628 3084 
Q 909 3875 1497 4659 
L 1900 4659 
Q 1522 4009 1400 3731 
Q 1209 3300 1100 2831 
Q 966 2247 966 1656 
Q 966 153 1900 -1347 
L 1497 -1347 
z
" transform="scale(0.015625)"/>
       <path id="ArialMT-3bc" d="M 3181 3319 
L 3181 0 
L 2678 0 
L 2678 394 
Q 2516 144 2356 50 
Q 2138 -78 1847 -78 
Q 1588 -78 1388 25 
Q 1238 103 1056 334 
L 1056 -1272 
L 500 -1272 
L 500 3319 
L 1056 3319 
L 1056 1913 
Q 1056 1147 1137 920 
Q 1219 694 1401 562 
Q 1584 431 1822 431 
Q 2072 431 2269 568 
Q 2466 706 2547 923 
Q 2628 1141 2628 1903 
L 2628 3319 
L 3181 3319 
z
" transform="scale(0.015625)"/>
       <path id="ArialMT-41" d="M -9 0 
L 1750 4581 
L 2403 4581 
L 4278 0 
L 3588 0 
L 3053 1388 
L 1138 1388 
L 634 0 
L -9 0 
z
M 1313 1881 
L 2866 1881 
L 2388 3150 
Q 2169 3728 2063 4100 
Q 1975 3659 1816 3225 
L 1313 1881 
z
" transform="scale(0.015625)"/>
       <path id="ArialMT-29" d="M 791 -1347 
L 388 -1347 
Q 1322 153 1322 1656 
Q 1322 2244 1188 2822 
Q 1081 3291 891 3722 
Q 769 4003 388 4659 
L 791 4659 
Q 1378 3875 1659 3084 
Q 1900 2403 1900 1659 
Q 1900 816 1576 28 
Q 1253 -759 791 -1347 
z
" transform="scale(0.015625)"/>
      </defs>
      <use xlink:href="#Cmmi10-49" transform="translate(0 0.203125)"/>
      <use xlink:href="#Cmr10-63" transform="translate(43.896484 -16.803125) scale(0.7)"/>
      <use xlink:href="#Cmr10-2b" transform="translate(87.256836 -16.803125) scale(0.7)"/>
      <use xlink:href="#ArialMT-20" transform="translate(160.305078 0.203125)"/>
      <use xlink:href="#ArialMT-28" transform="translate(188.088281 0.203125)"/>
      <use xlink:href="#ArialMT-3bc" transform="translate(221.389062 0.203125)"/>
      <use xlink:href="#ArialMT-41" transform="translate(279.00625 0.203125)"/>
      <use xlink:href="#ArialMT-29" transform="translate(345.705469 0.203125)"/>
     </g>
    </g>
   </g>
   <g id="line2d_11">
    <path d="M 134.748751 101.931715 
L 134.748751 3.00024 
" clip-path="url(#p80e38ea59d)" style="fill: none; stroke: #808080; stroke-width: 0.5; stroke-linecap: square"/>
   </g>
   <g id="line2d_12"/>
   <g id="line2d_13"/>
   <g id="line2d_14"/>
   <g id="line2d_15"/>
   <g id="line2d_16"/>
   <g id="patch_3">
    <path d="M 29.497742 101.931715 
L 29.497742 3.00024 
" style="fill: none; stroke: #000000; stroke-width: 0.5; stroke-linejoin: miter; stroke-linecap: square"/>
   </g>
   <g id="patch_4">
    <path d="M 239.99976 101.931715 
L 239.99976 3.00024 
" style="fill: none; stroke: #000000; stroke-width: 0.5; stroke-linejoin: miter; stroke-linecap: square"/>
   </g>
   <g id="patch_5">
    <path d="M 29.497742 101.931715 
L 239.99976 101.931715 
" style="fill: none; stroke: #000000; stroke-width: 0.5; stroke-linejoin: miter; stroke-linecap: square"/>
   </g>
   <g id="patch_6">
    <path d="M 29.497742 3.00024 
L 239.99976 3.00024 
" style="fill: none; stroke: #000000; stroke-width: 0.5; stroke-linejoin: miter; stroke-linecap: square"/>
   </g>
   <g id="line2d_17">
    <path d="M 92.887554 82.968213 
L 95.279622 81.448895 
L 98.269708 79.59094 
L 100.661776 77.803378 
L 103.053845 75.620904 
L 107.837981 70.927716 
L 110.828067 67.296176 
L 115.612204 60.192876 
L 123.386426 45.913291 
L 124.58246 43.183226 
L 125.778494 40.03931 
L 126.974529 36.1466 
L 129.366597 26.239459 
L 131.160648 18.381841 
L 132.356682 14.516352 
L 133.552717 11.424513 
L 134.150734 10.169946 
L 134.748751 9.21679 
L 135.944785 7.91054 
L 137.738836 7.666333 
L 138.336853 7.766541 
L 138.93487 8.273102 
L 139.532888 9.18799 
L 140.728922 12.008006 
L 141.924956 15.225696 
L 144.317024 23.084892 
L 145.513059 26.977997 
L 146.709093 30.889645 
L 150.895212 45.966157 
L 152.689264 51.238103 
L 155.081332 57.454131 
L 156.875383 61.366173 
L 158.669435 64.544412 
L 161.061503 68.568497 
L 163.453571 72.019347 
L 166.443657 75.646153 
L 168.237708 77.581264 
L 170.629777 79.77518 
L 174.217879 82.61721 
L 175.413913 83.162829 
L 180.19805 84.688273 
L 183.786153 86.649896 
L 187.374255 88.235385 
L 191.560375 89.759725 
L 196.344512 91.204529 
L 200.530632 92.299554 
L 206.510803 93.649437 
L 212.490973 94.822418 
L 217.27511 95.529947 
L 228.039418 96.760213 
L 229.833469 96.933564 
L 229.833469 96.933564 
" clip-path="url(#p80e38ea59d)" style="fill: none; stroke: #d62728; stroke-linecap: square"/>
   </g>
   <g id="line2d_18">
    <path d="M 98.867725 81.632715 
L 101.259793 80.090271 
L 103.651862 78.309555 
L 106.04393 76.335468 
L 108.435998 74.110208 
L 110.828067 71.575728 
L 113.220135 68.581169 
L 115.612204 65.012002 
L 118.004272 61.183234 
L 120.39634 57.225338 
L 122.788409 53.04302 
L 125.180477 47.748416 
L 127.572546 39.917237 
L 129.964614 33.057019 
L 132.356682 27.86264 
L 134.748751 26.713408 
L 137.140819 26.265998 
L 139.532888 28.369751 
L 141.924956 32.388707 
L 144.317024 37.55395 
L 146.709093 43.390612 
L 149.101161 49.630859 
L 151.49323 55.775809 
L 153.885298 60.997599 
L 156.277366 65.220516 
L 158.669435 68.657462 
L 161.061503 71.731352 
L 163.453571 74.450354 
L 165.84564 76.847973 
L 168.237708 79.015798 
L 170.629777 80.811436 
L 173.021845 82.408948 
L 175.413913 83.82376 
L 177.805982 85.075234 
L 180.19805 86.277773 
L 182.590119 87.391151 
L 188.57029 89.694141 
L 194.550461 91.278066 
L 200.530632 92.656133 
L 206.510803 93.879382 
L 212.490973 94.683492 
L 218.471144 95.486528 
L 224.451315 96.188516 
L 230.431486 96.747177 
" clip-path="url(#p80e38ea59d)" style="fill: none; stroke: #ff7f0e; stroke-linecap: square"/>
   </g>
   <g id="legend_1">
    <g id="patch_7">
     <path d="M 185.40006 48.709576 
L 235.94676 48.709576 
Q 237.10476 48.709576 237.10476 47.551576 
L 237.10476 7.05324 
Q 237.10476 5.89524 235.94676 5.89524 
L 185.40006 5.89524 
Q 184.24206 5.89524 184.24206 7.05324 
L 184.24206 47.551576 
Q 184.24206 48.709576 185.40006 48.709576 
z
" style="fill: #ffffff; opacity: 0.8; stroke: #cccccc; stroke-linejoin: miter"/>
    </g>
    <g id="line2d_19">
     <path d="M 186.55806 10.329113 
L 192.34806 10.329113 
L 198.13806 10.329113 
" style="fill: none; stroke: #d62728; stroke-linecap: square"/>
    </g>
    <g id="text_5">
     <!-- $W_\mathrm{sc}\rightarrow\infty$ -->
     <g transform="translate(202.77006 12.355613) scale(0.0579 -0.0579)">
      <defs>
       <path id="Cmmi10-57" d="M 1141 -72 
L 844 4006 
Q 822 4100 703 4123 
Q 584 4147 409 4147 
Q 347 4147 347 4231 
Q 369 4313 381 4342 
Q 394 4372 453 4372 
L 1978 4372 
Q 2041 4372 2041 4288 
Q 2016 4147 1959 4147 
Q 1447 4147 1416 3969 
L 1644 738 
L 3244 3525 
L 3213 4006 
Q 3191 4100 3072 4123 
Q 2953 4147 2778 4147 
Q 2713 4147 2713 4231 
Q 2734 4313 2746 4342 
Q 2759 4372 2822 4372 
L 4347 4372 
Q 4409 4372 4409 4288 
Q 4406 4272 4397 4234 
Q 4388 4197 4372 4172 
Q 4356 4147 4325 4147 
Q 3809 4147 3781 3969 
L 3781 3922 
L 4013 738 
L 5753 3775 
Q 5791 3844 5791 3909 
Q 5791 4041 5662 4094 
Q 5534 4147 5375 4147 
Q 5313 4147 5313 4231 
Q 5325 4281 5333 4309 
Q 5341 4338 5361 4355 
Q 5381 4372 5422 4372 
L 6644 4372 
Q 6706 4372 6706 4288 
Q 6703 4272 6693 4233 
Q 6684 4194 6667 4170 
Q 6650 4147 6625 4147 
Q 6169 4147 5931 3731 
Q 5913 3713 5913 3713 
L 3744 -72 
Q 3709 -141 3634 -141 
L 3584 -141 
Q 3506 -141 3506 -72 
L 3263 3225 
L 1381 -72 
Q 1334 -141 1269 -141 
L 1216 -141 
Q 1141 -141 1141 -72 
z
" transform="scale(0.015625)"/>
       <path id="Cmr10-73" d="M 213 -19 
L 213 1025 
Q 213 1075 269 1075 
L 347 1075 
Q 384 1075 397 1025 
Q 575 97 1259 97 
Q 1563 97 1767 234 
Q 1972 372 1972 659 
Q 1972 866 1812 1011 
Q 1653 1156 1434 1209 
L 1006 1294 
Q 791 1341 614 1437 
Q 438 1534 325 1695 
Q 213 1856 213 2069 
Q 213 2350 361 2529 
Q 509 2709 746 2789 
Q 984 2869 1259 2869 
Q 1588 2869 1831 2694 
L 2016 2853 
Q 2016 2869 2047 2869 
L 2094 2869 
Q 2113 2869 2128 2851 
Q 2144 2834 2144 2816 
L 2144 1978 
Q 2144 1919 2094 1919 
L 2016 1919 
Q 1959 1919 1959 1978 
Q 1959 2313 1773 2516 
Q 1588 2719 1253 2719 
Q 966 2719 755 2612 
Q 544 2506 544 2247 
Q 544 2069 695 1955 
Q 847 1841 1050 1791 
L 1484 1709 
Q 1703 1659 1892 1540 
Q 2081 1422 2192 1240 
Q 2303 1059 2303 831 
Q 2303 600 2223 429 
Q 2144 259 2001 146 
Q 1859 34 1665 -19 
Q 1472 -72 1259 -72 
Q 859 -72 575 197 
L 341 -56 
Q 341 -72 306 -72 
L 269 -72 
Q 213 -72 213 -19 
z
" transform="scale(0.015625)"/>
       <path id="Cmsy10-21" d="M 481 1472 
Q 428 1472 393 1512 
Q 359 1553 359 1600 
Q 359 1647 393 1687 
Q 428 1728 481 1728 
L 5338 1728 
Q 5094 1903 4906 2133 
Q 4719 2363 4594 2627 
Q 4469 2891 4416 3188 
Q 4416 3272 4481 3272 
L 4609 3272 
Q 4631 3272 4648 3253 
Q 4666 3234 4672 3213 
Q 4725 2938 4839 2702 
Q 4953 2466 5125 2262 
Q 5297 2059 5509 1912 
Q 5722 1766 5991 1672 
Q 6034 1644 6034 1600 
Q 6034 1550 5991 1538 
Q 5656 1422 5378 1192 
Q 5100 963 4919 652 
Q 4738 341 4672 -13 
Q 4666 -34 4647 -53 
Q 4628 -72 4609 -72 
L 4481 -72 
Q 4416 -72 4416 13 
Q 4497 450 4740 836 
Q 4984 1222 5338 1472 
L 481 1472 
z
" transform="scale(0.015625)"/>
       <path id="Cmsy10-31" d="M 1575 -72 
Q 1213 -72 933 140 
Q 653 353 506 690 
Q 359 1028 359 1381 
Q 359 1653 445 1912 
Q 531 2172 693 2378 
Q 856 2584 1086 2706 
Q 1316 2828 1594 2828 
Q 1881 2828 2150 2718 
Q 2419 2609 2642 2428 
Q 2866 2247 3059 2009 
L 3250 1753 
Q 3441 2056 3672 2295 
Q 3903 2534 4195 2681 
Q 4488 2828 4819 2828 
Q 5097 2828 5325 2704 
Q 5553 2581 5712 2368 
Q 5872 2156 5953 1898 
Q 6034 1641 6034 1381 
Q 6034 1019 5882 683 
Q 5731 347 5451 137 
Q 5172 -72 4800 -72 
Q 4381 -72 4004 153 
Q 3628 378 3334 750 
L 3144 1006 
Q 2850 528 2451 228 
Q 2053 -72 1575 -72 
z
M 1509 153 
Q 2322 153 2963 1241 
L 2625 1672 
Q 2331 2059 2078 2278 
Q 1825 2497 1491 2497 
Q 1206 2497 986 2336 
Q 766 2175 645 1915 
Q 525 1656 525 1375 
Q 525 1159 592 942 
Q 659 725 787 547 
Q 916 369 1098 261 
Q 1281 153 1509 153 
z
M 3769 1088 
Q 4063 700 4316 481 
Q 4569 263 4903 263 
Q 5116 263 5294 356 
Q 5472 450 5601 609 
Q 5731 769 5800 969 
Q 5869 1169 5869 1381 
Q 5869 1678 5750 1961 
Q 5631 2244 5407 2425 
Q 5184 2606 4884 2606 
Q 4072 2606 3431 1516 
L 3769 1088 
z
" transform="scale(0.015625)"/>
      </defs>
      <use xlink:href="#Cmmi10-57" transform="translate(0 0.6875)"/>
      <use xlink:href="#Cmr10-73" transform="translate(94.384766 -16.31875) scale(0.7)"/>
      <use xlink:href="#Cmr10-63" transform="translate(121.967773 -16.31875) scale(0.7)"/>
      <use xlink:href="#Cmsy10-21" transform="translate(176.973047 0.6875)"/>
      <use xlink:href="#Cmsy10-31" transform="translate(294.531641 0.6875)"/>
     </g>
    </g>
    <g id="line2d_20">
     <path d="M 186.55806 18.543676 
L 192.34806 18.543676 
L 198.13806 18.543676 
" style="fill: none; stroke: #ff7f0e; stroke-linecap: square"/>
    </g>
    <g id="text_6">
     <!-- $W_\mathrm{sc}=$1.2μm -->
     <g transform="translate(202.77006 20.570176) scale(0.0579 -0.0579)">
      <defs>
       <path id="Cmr10-3d" d="M 481 850 
Q 428 850 393 890 
Q 359 931 359 978 
Q 359 1031 393 1068 
Q 428 1106 481 1106 
L 4500 1106 
Q 4547 1106 4581 1068 
Q 4616 1031 4616 978 
Q 4616 931 4581 890 
Q 4547 850 4500 850 
L 481 850 
z
M 481 2094 
Q 428 2094 393 2131 
Q 359 2169 359 2222 
Q 359 2269 393 2309 
Q 428 2350 481 2350 
L 4500 2350 
Q 4547 2350 4581 2309 
Q 4616 2269 4616 2222 
Q 4616 2169 4581 2131 
Q 4547 2094 4500 2094 
L 481 2094 
z
" transform="scale(0.015625)"/>
       <path id="ArialMT-31" d="M 2384 0 
L 1822 0 
L 1822 3584 
Q 1619 3391 1289 3197 
Q 959 3003 697 2906 
L 697 3450 
Q 1169 3672 1522 3987 
Q 1875 4303 2022 4600 
L 2384 4600 
L 2384 0 
z
" transform="scale(0.015625)"/>
       <path id="ArialMT-2e" d="M 581 0 
L 581 641 
L 1222 641 
L 1222 0 
L 581 0 
z
" transform="scale(0.015625)"/>
       <path id="ArialMT-6d" d="M 422 0 
L 422 3319 
L 925 3319 
L 925 2853 
Q 1081 3097 1340 3245 
Q 1600 3394 1931 3394 
Q 2300 3394 2536 3241 
Q 2772 3088 2869 2813 
Q 3263 3394 3894 3394 
Q 4388 3394 4653 3120 
Q 4919 2847 4919 2278 
L 4919 0 
L 4359 0 
L 4359 2091 
Q 4359 2428 4304 2576 
Q 4250 2725 4106 2815 
Q 3963 2906 3769 2906 
Q 3419 2906 3187 2673 
Q 2956 2441 2956 1928 
L 2956 0 
L 2394 0 
L 2394 2156 
Q 2394 2531 2256 2718 
Q 2119 2906 1806 2906 
Q 1569 2906 1367 2781 
Q 1166 2656 1075 2415 
Q 984 2175 984 1722 
L 984 0 
L 422 0 
z
" transform="scale(0.015625)"/>
      </defs>
      <use xlink:href="#Cmmi10-57" transform="translate(0 0.125)"/>
      <use xlink:href="#Cmr10-73" transform="translate(94.384766 -16.88125) scale(0.7)"/>
      <use xlink:href="#Cmr10-63" transform="translate(121.967773 -16.88125) scale(0.7)"/>
      <use xlink:href="#Cmr10-3d" transform="translate(176.973047 0.125)"/>
      <use xlink:href="#ArialMT-31" transform="translate(272.217188 0.125)"/>
      <use xlink:href="#ArialMT-2e" transform="translate(327.832422 0.125)"/>
      <use xlink:href="#ArialMT-32" transform="translate(355.615625 0.125)"/>
      <use xlink:href="#ArialMT-3bc" transform="translate(411.230859 0.125)"/>
      <use xlink:href="#ArialMT-6d" transform="translate(468.848047 0.125)"/>
     </g>
    </g>
    <g id="line2d_21">
     <path d="M 186.55806 26.765476 
L 192.34806 26.765476 
L 198.13806 26.765476 
" style="fill: none; stroke: #2ca02c; stroke-linecap: square"/>
    </g>
    <g id="text_7">
     <!-- $W_\mathrm{sc}=$0.9μm -->
     <g transform="translate(202.77006 28.791976) scale(0.0579 -0.0579)">
      <defs>
       <path id="ArialMT-39" d="M 350 1059 
L 891 1109 
Q 959 728 1153 556 
Q 1347 384 1650 384 
Q 1909 384 2104 503 
Q 2300 622 2425 820 
Q 2550 1019 2634 1356 
Q 2719 1694 2719 2044 
Q 2719 2081 2716 2156 
Q 2547 1888 2255 1720 
Q 1963 1553 1622 1553 
Q 1053 1553 659 1965 
Q 266 2378 266 3053 
Q 266 3750 677 4175 
Q 1088 4600 1706 4600 
Q 2153 4600 2523 4359 
Q 2894 4119 3086 3673 
Q 3278 3228 3278 2384 
Q 3278 1506 3087 986 
Q 2897 466 2520 194 
Q 2144 -78 1638 -78 
Q 1100 -78 759 220 
Q 419 519 350 1059 
z
M 2653 3081 
Q 2653 3566 2395 3850 
Q 2138 4134 1775 4134 
Q 1400 4134 1122 3828 
Q 844 3522 844 3034 
Q 844 2597 1108 2323 
Q 1372 2050 1759 2050 
Q 2150 2050 2401 2323 
Q 2653 2597 2653 3081 
z
" transform="scale(0.015625)"/>
      </defs>
      <use xlink:href="#Cmmi10-57" transform="translate(0 0.125)"/>
      <use xlink:href="#Cmr10-73" transform="translate(94.384766 -16.88125) scale(0.7)"/>
      <use xlink:href="#Cmr10-63" transform="translate(121.967773 -16.88125) scale(0.7)"/>
      <use xlink:href="#Cmr10-3d" transform="translate(176.973047 0.125)"/>
      <use xlink:href="#ArialMT-30" transform="translate(272.217188 0.125)"/>
      <use xlink:href="#ArialMT-2e" transform="translate(327.832422 0.125)"/>
      <use xlink:href="#ArialMT-39" transform="translate(355.615625 0.125)"/>
      <use xlink:href="#ArialMT-3bc" transform="translate(411.230859 0.125)"/>
      <use xlink:href="#ArialMT-6d" transform="translate(468.848047 0.125)"/>
     </g>
    </g>
    <g id="line2d_22">
     <path d="M 186.55806 34.987276 
L 192.34806 34.987276 
L 198.13806 34.987276 
" style="fill: none; stroke: #1f77b4; stroke-linecap: square"/>
    </g>
    <g id="text_8">
     <!-- $W_\mathrm{sc}=$0.6μm -->
     <g transform="translate(202.77006 37.013776) scale(0.0579 -0.0579)">
      <defs>
       <path id="ArialMT-36" d="M 3184 3459 
L 2625 3416 
Q 2550 3747 2413 3897 
Q 2184 4138 1850 4138 
Q 1581 4138 1378 3988 
Q 1113 3794 959 3422 
Q 806 3050 800 2363 
Q 1003 2672 1297 2822 
Q 1591 2972 1913 2972 
Q 2475 2972 2870 2558 
Q 3266 2144 3266 1488 
Q 3266 1056 3080 686 
Q 2894 316 2569 119 
Q 2244 -78 1831 -78 
Q 1128 -78 684 439 
Q 241 956 241 2144 
Q 241 3472 731 4075 
Q 1159 4600 1884 4600 
Q 2425 4600 2770 4297 
Q 3116 3994 3184 3459 
z
M 888 1484 
Q 888 1194 1011 928 
Q 1134 663 1356 523 
Q 1578 384 1822 384 
Q 2178 384 2434 671 
Q 2691 959 2691 1453 
Q 2691 1928 2437 2201 
Q 2184 2475 1800 2475 
Q 1419 2475 1153 2201 
Q 888 1928 888 1484 
z
" transform="scale(0.015625)"/>
      </defs>
      <use xlink:href="#Cmmi10-57" transform="translate(0 0.125)"/>
      <use xlink:href="#Cmr10-73" transform="translate(94.384766 -16.88125) scale(0.7)"/>
      <use xlink:href="#Cmr10-63" transform="translate(121.967773 -16.88125) scale(0.7)"/>
      <use xlink:href="#Cmr10-3d" transform="translate(176.973047 0.125)"/>
      <use xlink:href="#ArialMT-30" transform="translate(272.217188 0.125)"/>
      <use xlink:href="#ArialMT-2e" transform="translate(327.832422 0.125)"/>
      <use xlink:href="#ArialMT-36" transform="translate(355.615625 0.125)"/>
      <use xlink:href="#ArialMT-3bc" transform="translate(411.230859 0.125)"/>
      <use xlink:href="#ArialMT-6d" transform="translate(468.848047 0.125)"/>
     </g>
    </g>
    <g id="line2d_23">
     <path d="M 186.55806 43.209076 
L 192.34806 43.209076 
L 198.13806 43.209076 
" style="fill: none; stroke: #9467bd; stroke-linecap: square"/>
    </g>
    <g id="text_9">
     <!-- $W_\mathrm{sc}=$0.3μm -->
     <g transform="translate(202.77006 45.235576) scale(0.0579 -0.0579)">
      <defs>
       <path id="ArialMT-33" d="M 269 1209 
L 831 1284 
Q 928 806 1161 595 
Q 1394 384 1728 384 
Q 2125 384 2398 659 
Q 2672 934 2672 1341 
Q 2672 1728 2419 1979 
Q 2166 2231 1775 2231 
Q 1616 2231 1378 2169 
L 1441 2663 
Q 1497 2656 1531 2656 
Q 1891 2656 2178 2843 
Q 2466 3031 2466 3422 
Q 2466 3731 2256 3934 
Q 2047 4138 1716 4138 
Q 1388 4138 1169 3931 
Q 950 3725 888 3313 
L 325 3413 
Q 428 3978 793 4289 
Q 1159 4600 1703 4600 
Q 2078 4600 2393 4439 
Q 2709 4278 2876 4000 
Q 3044 3722 3044 3409 
Q 3044 3113 2884 2869 
Q 2725 2625 2413 2481 
Q 2819 2388 3044 2092 
Q 3269 1797 3269 1353 
Q 3269 753 2831 336 
Q 2394 -81 1725 -81 
Q 1122 -81 723 278 
Q 325 638 269 1209 
z
" transform="scale(0.015625)"/>
      </defs>
      <use xlink:href="#Cmmi10-57" transform="translate(0 0.125)"/>
      <use xlink:href="#Cmr10-73" transform="translate(94.384766 -16.88125) scale(0.7)"/>
      <use xlink:href="#Cmr10-63" transform="translate(121.967773 -16.88125) scale(0.7)"/>
      <use xlink:href="#Cmr10-3d" transform="translate(176.973047 0.125)"/>
      <use xlink:href="#ArialMT-30" transform="translate(272.217188 0.125)"/>
      <use xlink:href="#ArialMT-2e" transform="translate(327.832422 0.125)"/>
      <use xlink:href="#ArialMT-33" transform="translate(355.615625 0.125)"/>
      <use xlink:href="#ArialMT-3bc" transform="translate(411.230859 0.125)"/>
      <use xlink:href="#ArialMT-6d" transform="translate(468.848047 0.125)"/>
     </g>
    </g>
   </g>
   <g id="line2d_24">
    <path d="M 98.867725 82.472452 
L 101.85781 80.67898 
L 104.847896 78.54115 
L 107.837981 75.901524 
L 110.828067 72.420987 
L 112.024101 70.844267 
L 113.220135 69.217284 
L 114.416169 67.564091 
L 115.612204 65.906991 
L 116.808238 64.225169 
L 118.004272 62.523193 
L 119.200306 60.76514 
L 120.39634 58.899635 
L 121.592375 56.854766 
L 122.788409 54.481014 
L 123.984443 51.61696 
L 125.180477 48.101725 
L 126.376511 44.126792 
L 127.572546 40.28924 
L 128.76858 37.06795 
L 129.964614 34.566948 
L 131.160648 32.69072 
L 132.356682 31.362454 
L 133.552717 30.463539 
L 134.748751 29.821875 
L 137.140819 29.620026 
L 138.336853 30.16078 
L 139.532888 31.145487 
L 140.728922 32.488558 
L 141.924956 34.155348 
L 143.12099 36.123221 
L 144.317024 38.312973 
L 145.513059 40.828484 
L 146.709093 43.516132 
L 147.905127 46.398536 
L 149.101161 49.38418 
L 150.297195 52.448331 
L 151.49323 55.525199 
L 152.689264 58.570658 
L 153.885298 61.481022 
L 155.081332 64.161431 
L 156.277366 66.571278 
L 157.4734 68.633127 
L 158.669435 70.41857 
L 161.65952 74.105418 
L 164.649606 77.067937 
L 167.639691 79.491522 
L 170.629777 81.567006 
L 173.619862 83.506506 
L 176.609948 85.332889 
L 179.600033 86.970151 
L 182.590119 88.358872 
L 185.580204 89.446293 
L 188.57029 90.318233 
L 191.560375 91.10236 
L 194.550461 91.921155 
L 197.540546 92.80429 
L 200.530632 93.681644 
L 203.520717 94.438226 
L 206.510803 95.035032 
L 209.500888 95.466769 
L 212.490973 95.767223 
L 215.481059 96.010013 
L 218.471144 96.267157 
L 221.46123 96.52878 
L 224.451315 96.803347 
L 230.431486 97.215849 
" clip-path="url(#p80e38ea59d)" style="fill: none; stroke: #2ca02c; stroke-linecap: square"/>
   </g>
   <g id="line2d_25">
    <path d="M 39.066015 96.521518 
L 45.046186 95.854503 
L 51.026357 95.357521 
L 57.006528 94.918483 
L 62.986699 94.20049 
L 68.96687 92.742982 
L 74.947041 90.840004 
L 80.927212 89.096535 
L 86.907383 87.674215 
L 89.897468 86.82609 
L 92.887554 85.930094 
L 95.877639 84.808946 
L 98.867725 83.210292 
L 101.85781 81.232284 
L 104.847896 78.745116 
L 107.837981 75.858567 
L 110.828067 72.620074 
L 113.818152 69.451073 
L 116.808238 65.619496 
L 119.798323 61.386424 
L 122.788409 56.902386 
L 125.778494 52.119855 
L 128.76858 48.217897 
L 131.758665 45.935834 
L 134.748751 44.789877 
L 137.738836 45.229787 
L 140.728922 46.780165 
L 143.719007 50.060977 
L 146.709093 53.501104 
L 149.699178 57.691096 
L 152.689264 62.060116 
L 155.679349 66.786482 
L 158.669435 71.322615 
L 161.65952 75.319678 
L 164.649606 78.61205 
L 167.639691 81.243006 
L 170.629777 83.174394 
L 173.619862 84.786609 
L 176.609948 85.864678 
L 179.600033 86.831654 
L 182.590119 87.579346 
L 185.580204 88.384759 
L 188.57029 89.197279 
L 191.560375 90.061796 
L 194.550461 91.035644 
L 197.540546 92.03786 
L 200.530632 93.005809 
L 203.520717 93.781771 
L 206.510803 94.329807 
L 212.490973 95.075222 
L 218.471144 95.473844 
L 224.451315 95.928249 
L 230.431486 96.559771 
" clip-path="url(#p80e38ea59d)" style="fill: none; stroke: #1f77b4; stroke-linecap: square"/>
   </g>
   <g id="line2d_26">
    <path d="M 62.986699 99.219965 
L 65.976785 98.782759 
L 68.96687 98.109135 
L 71.956956 97.198434 
L 74.947041 96.019738 
L 77.937126 94.624019 
L 80.927212 93.139382 
L 83.917297 91.561579 
L 86.907383 89.98514 
L 89.897468 88.374264 
L 92.887554 86.732951 
L 95.877639 85.06127 
L 98.867725 83.342034 
L 101.85781 81.584892 
L 104.847896 79.793341 
L 107.837981 77.993378 
L 110.828067 76.148549 
L 113.818152 74.170349 
L 116.808238 72.229012 
L 118.004272 71.36402 
L 119.200306 70.532356 
L 120.39634 69.802197 
L 121.592375 68.993271 
L 122.788409 68.233676 
L 123.984443 67.506435 
L 125.180477 66.809945 
L 126.376511 66.18889 
L 127.572546 65.724617 
L 128.76858 65.306478 
L 129.964614 64.963622 
L 131.160648 64.690777 
L 132.356682 64.611514 
L 133.552717 64.572031 
L 134.748751 64.557838 
L 135.944785 64.577123 
L 137.140819 64.268421 
L 138.336853 64.216438 
L 139.532888 64.325373 
L 140.728922 64.619158 
L 141.924956 64.921961 
L 143.12099 65.26375 
L 144.317024 65.751528 
L 145.513059 66.300745 
L 146.709093 66.950423 
L 147.905127 67.657978 
L 149.101161 68.255665 
L 150.297195 68.993198 
L 151.49323 69.566452 
L 152.689264 70.261039 
L 155.679349 72.071855 
L 158.669435 73.891882 
L 161.65952 75.689958 
L 164.649606 77.630729 
L 167.639691 79.524211 
L 170.629777 81.531271 
L 173.619862 83.462813 
L 176.609948 85.387503 
L 179.600033 87.273821 
L 182.590119 89.081798 
L 185.580204 90.837999 
L 188.57029 92.594618 
L 191.560375 94.202734 
L 194.550461 95.708222 
L 197.540546 96.968418 
L 200.530632 97.949469 
L 203.520717 98.672285 
L 206.510803 99.275214 
L 209.500888 99.612116 
L 212.490973 99.791744 
L 215.481059 99.890694 
L 218.471144 99.745108 
L 221.46123 99.945552 
L 224.451315 99.932958 
L 227.441401 99.95114 
L 230.431486 99.952589 
" clip-path="url(#p80e38ea59d)" style="fill: none; stroke: #9467bd; stroke-linecap: square"/>
   </g>
  </g>
  <g id="axes_2">
   <g id="patch_8">
    <path d="M 29.497742 214.481715 
L 239.99976 214.481715 
L 239.99976 115.55024 
L 29.497742 115.55024 
L 29.497742 214.481715 
z
" style="fill: none"/>
   </g>
   <g id="matplotlib.axis_3">
    <g id="xtick_8">
     <g id="line2d_27">
      <g>
       <use xlink:href="#me6a21ef372" x="45.046186" y="214.481715" style="stroke: #000000; stroke-width: 0.5"/>
      </g>
     </g>
     <g id="text_10">
      <!-- −0.75 -->
      <g transform="translate(34.508085 223.944173) scale(0.0833 -0.0833)">
       <defs>
        <path id="ArialMT-2212" d="M 3381 1997 
L 356 1997 
L 356 2522 
L 3381 2522 
L 3381 1997 
z
" transform="scale(0.015625)"/>
        <path id="ArialMT-37" d="M 303 3981 
L 303 4522 
L 3269 4522 
L 3269 4084 
Q 2831 3619 2401 2847 
Q 1972 2075 1738 1259 
Q 1569 684 1522 0 
L 944 0 
Q 953 541 1156 1306 
Q 1359 2072 1739 2783 
Q 2119 3494 2547 3981 
L 303 3981 
z
" transform="scale(0.015625)"/>
        <path id="ArialMT-35" d="M 266 1200 
L 856 1250 
Q 922 819 1161 601 
Q 1400 384 1738 384 
Q 2144 384 2425 690 
Q 2706 997 2706 1503 
Q 2706 1984 2436 2262 
Q 2166 2541 1728 2541 
Q 1456 2541 1237 2417 
Q 1019 2294 894 2097 
L 366 2166 
L 809 4519 
L 3088 4519 
L 3088 3981 
L 1259 3981 
L 1013 2750 
Q 1425 3038 1878 3038 
Q 2478 3038 2890 2622 
Q 3303 2206 3303 1553 
Q 3303 931 2941 478 
Q 2500 -78 1738 -78 
Q 1113 -78 717 272 
Q 322 622 266 1200 
z
" transform="scale(0.015625)"/>
       </defs>
       <use xlink:href="#ArialMT-2212"/>
       <use xlink:href="#ArialMT-30" x="58.398438"/>
       <use xlink:href="#ArialMT-2e" x="114.013672"/>
       <use xlink:href="#ArialMT-37" x="141.796875"/>
       <use xlink:href="#ArialMT-35" x="197.412109"/>
      </g>
     </g>
    </g>
    <g id="xtick_9">
     <g id="line2d_28">
      <g>
       <use xlink:href="#me6a21ef372" x="74.947041" y="214.481715" style="stroke: #000000; stroke-width: 0.5"/>
      </g>
     </g>
     <g id="text_11">
      <!-- −0.50 -->
      <g transform="translate(64.40894 223.944173) scale(0.0833 -0.0833)">
       <use xlink:href="#ArialMT-2212"/>
       <use xlink:href="#ArialMT-30" x="58.398438"/>
       <use xlink:href="#ArialMT-2e" x="114.013672"/>
       <use xlink:href="#ArialMT-35" x="141.796875"/>
       <use xlink:href="#ArialMT-30" x="197.412109"/>
      </g>
     </g>
    </g>
    <g id="xtick_10">
     <g id="line2d_29">
      <g>
       <use xlink:href="#me6a21ef372" x="104.847896" y="214.481715" style="stroke: #000000; stroke-width: 0.5"/>
      </g>
     </g>
     <g id="text_12">
      <!-- −0.25 -->
      <g transform="translate(94.309795 223.944173) scale(0.0833 -0.0833)">
       <use xlink:href="#ArialMT-2212"/>
       <use xlink:href="#ArialMT-30" x="58.398438"/>
       <use xlink:href="#ArialMT-2e" x="114.013672"/>
       <use xlink:href="#ArialMT-32" x="141.796875"/>
       <use xlink:href="#ArialMT-35" x="197.412109"/>
      </g>
     </g>
    </g>
    <g id="xtick_11">
     <g id="line2d_30">
      <g>
       <use xlink:href="#me6a21ef372" x="134.748751" y="214.481715" style="stroke: #000000; stroke-width: 0.5"/>
      </g>
     </g>
     <g id="text_13">
      <!-- 0.00 -->
      <g transform="translate(126.64327 223.944173) scale(0.0833 -0.0833)">
       <use xlink:href="#ArialMT-30"/>
       <use xlink:href="#ArialMT-2e" x="55.615234"/>
       <use xlink:href="#ArialMT-30" x="83.398438"/>
       <use xlink:href="#ArialMT-30" x="139.013672"/>
      </g>
     </g>
    </g>
    <g id="xtick_12">
     <g id="line2d_31">
      <g>
       <use xlink:href="#me6a21ef372" x="164.649606" y="214.481715" style="stroke: #000000; stroke-width: 0.5"/>
      </g>
     </g>
     <g id="text_14">
      <!-- 0.25 -->
      <g transform="translate(156.544125 223.944173) scale(0.0833 -0.0833)">
       <use xlink:href="#ArialMT-30"/>
       <use xlink:href="#ArialMT-2e" x="55.615234"/>
       <use xlink:href="#ArialMT-32" x="83.398438"/>
       <use xlink:href="#ArialMT-35" x="139.013672"/>
      </g>
     </g>
    </g>
    <g id="xtick_13">
     <g id="line2d_32">
      <g>
       <use xlink:href="#me6a21ef372" x="194.550461" y="214.481715" style="stroke: #000000; stroke-width: 0.5"/>
      </g>
     </g>
     <g id="text_15">
      <!-- 0.50 -->
      <g transform="translate(186.44498 223.944173) scale(0.0833 -0.0833)">
       <use xlink:href="#ArialMT-30"/>
       <use xlink:href="#ArialMT-2e" x="55.615234"/>
       <use xlink:href="#ArialMT-35" x="83.398438"/>
       <use xlink:href="#ArialMT-30" x="139.013672"/>
      </g>
     </g>
    </g>
    <g id="xtick_14">
     <g id="line2d_33">
      <g>
       <use xlink:href="#me6a21ef372" x="224.451315" y="214.481715" style="stroke: #000000; stroke-width: 0.5"/>
      </g>
     </g>
     <g id="text_16">
      <!-- 0.75 -->
      <g transform="translate(216.345835 223.944173) scale(0.0833 -0.0833)">
       <use xlink:href="#ArialMT-30"/>
       <use xlink:href="#ArialMT-2e" x="55.615234"/>
       <use xlink:href="#ArialMT-37" x="83.398438"/>
       <use xlink:href="#ArialMT-35" x="139.013672"/>
      </g>
     </g>
    </g>
    <g id="text_17">
     <!-- $B_\parallel$ (T) -->
     <g transform="translate(119.798751 236.89976) scale(0.1 -0.1)">
      <defs>
       <path id="Cmmi10-42" d="M 319 0 
Q 256 0 256 84 
Q 259 100 268 137 
Q 278 175 293 200 
Q 309 225 341 225 
Q 522 225 656 234 
Q 791 244 884 269 
Q 959 297 1006 441 
L 1881 3956 
Q 1894 4019 1894 4044 
Q 1894 4113 1819 4122 
Q 1697 4147 1356 4147 
Q 1294 4147 1294 4231 
Q 1297 4247 1306 4286 
Q 1316 4325 1333 4348 
Q 1350 4372 1375 4372 
L 3669 4372 
Q 3878 4372 4083 4320 
Q 4288 4269 4461 4156 
Q 4634 4044 4736 3876 
Q 4838 3709 4838 3488 
Q 4838 3247 4714 3040 
Q 4591 2834 4395 2681 
Q 4200 2528 3973 2429 
Q 3747 2331 3500 2284 
Q 3675 2284 3854 2215 
Q 4034 2147 4175 2028 
Q 4316 1909 4402 1743 
Q 4488 1578 4488 1388 
Q 4488 1003 4219 684 
Q 3950 366 3542 183 
Q 3134 0 2753 0 
L 319 0 
z
M 1497 275 
Q 1497 225 1716 225 
L 2631 225 
Q 2944 225 3231 398 
Q 3519 572 3692 859 
Q 3866 1147 3866 1459 
Q 3866 1650 3786 1820 
Q 3706 1991 3556 2089 
Q 3406 2188 3213 2188 
L 1966 2188 
L 1522 416 
Q 1497 328 1497 275 
z
M 2009 2356 
L 2981 2356 
Q 3288 2356 3577 2512 
Q 3866 2669 4048 2937 
Q 4231 3206 4231 3506 
Q 4231 3784 4057 3965 
Q 3884 4147 3609 4147 
L 2731 4147 
Q 2559 4147 2500 4115 
Q 2441 4084 2400 3928 
L 2009 2356 
z
" transform="scale(0.015625)"/>
       <path id="STIXGeneral-Regular-2225" d="M 2522 -1210 
L 2099 -1210 
L 2099 4416 
L 2522 4416 
L 2522 -1210 
z
M 1248 -1210 
L 826 -1210 
L 826 4416 
L 1248 4416 
L 1248 -1210 
z
" transform="scale(0.015625)"/>
       <path id="ArialMT-54" d="M 1659 0 
L 1659 4041 
L 150 4041 
L 150 4581 
L 3781 4581 
L 3781 4041 
L 2266 4041 
L 2266 0 
L 1659 0 
z
" transform="scale(0.015625)"/>
      </defs>
      <use xlink:href="#Cmmi10-42" transform="translate(0 0.203125)"/>
      <use xlink:href="#STIXGeneral-Regular-2225" transform="translate(88.072266 -16.803125) scale(0.7)"/>
      <use xlink:href="#ArialMT-20" transform="translate(143.350616 0.203125)"/>
      <use xlink:href="#ArialMT-28" transform="translate(171.13382 0.203125)"/>
      <use xlink:href="#ArialMT-54" transform="translate(204.434601 0.203125)"/>
      <use xlink:href="#ArialMT-29" transform="translate(265.518585 0.203125)"/>
     </g>
    </g>
   </g>
   <g id="matplotlib.axis_4">
    <g id="ytick_4">
     <g id="line2d_34">
      <g>
       <use xlink:href="#m5cd1396a14" x="29.497742" y="185.506435" style="stroke: #000000; stroke-width: 0.5"/>
      </g>
     </g>
     <g id="text_18">
      <!-- −4 -->
      <g transform="translate(16.50024 188.487664) scale(0.0833 -0.0833)">
       <use xlink:href="#ArialMT-2212"/>
       <use xlink:href="#ArialMT-34" x="58.398438"/>
      </g>
     </g>
    </g>
    <g id="ytick_5">
     <g id="line2d_35">
      <g>
       <use xlink:href="#m5cd1396a14" x="29.497742" y="150.528338" style="stroke: #000000; stroke-width: 0.5"/>
      </g>
     </g>
     <g id="text_19">
      <!-- −2 -->
      <g transform="translate(16.50024 153.509566) scale(0.0833 -0.0833)">
       <use xlink:href="#ArialMT-2212"/>
       <use xlink:href="#ArialMT-32" x="58.398438"/>
      </g>
     </g>
    </g>
    <g id="ytick_6">
     <g id="line2d_36">
      <g>
       <use xlink:href="#m5cd1396a14" x="29.497742" y="115.55024" style="stroke: #000000; stroke-width: 0.5"/>
      </g>
     </g>
     <g id="text_20">
      <!-- 0 -->
      <g transform="translate(21.365481 118.531469) scale(0.0833 -0.0833)">
       <use xlink:href="#ArialMT-30"/>
      </g>
     </g>
    </g>
    <g id="text_21">
     <!-- $I_{\mathrm{c}-}$ (μA) -->
     <g transform="translate(10.30024 184.015977) rotate(-90) scale(0.1 -0.1)">
      <defs>
       <path id="Cmsy10-a1" d="M 653 1472 
Q 600 1472 565 1512 
Q 531 1553 531 1600 
Q 531 1647 565 1687 
Q 600 1728 653 1728 
L 4325 1728 
Q 4375 1728 4408 1687 
Q 4441 1647 4441 1600 
Q 4441 1553 4408 1512 
Q 4375 1472 4325 1472 
L 653 1472 
z
" transform="scale(0.015625)"/>
      </defs>
      <use xlink:href="#Cmmi10-49" transform="translate(0 0.203125)"/>
      <use xlink:href="#Cmr10-63" transform="translate(43.896484 -16.803125) scale(0.7)"/>
      <use xlink:href="#Cmsy10-a1" transform="translate(87.256836 -16.803125) scale(0.7)"/>
      <use xlink:href="#ArialMT-20" transform="translate(160.305078 0.203125)"/>
      <use xlink:href="#ArialMT-28" transform="translate(188.088281 0.203125)"/>
      <use xlink:href="#ArialMT-3bc" transform="translate(221.389062 0.203125)"/>
      <use xlink:href="#ArialMT-41" transform="translate(279.00625 0.203125)"/>
      <use xlink:href="#ArialMT-29" transform="translate(345.705469 0.203125)"/>
     </g>
    </g>
   </g>
   <g id="line2d_37">
    <path d="M 134.748751 214.481715 
L 134.748751 115.55024 
" clip-path="url(#p38d8e00ddb)" style="fill: none; stroke: #808080; stroke-width: 0.5; stroke-linecap: square"/>
   </g>
   <g id="patch_9">
    <path d="M 29.497742 214.481715 
L 29.497742 115.55024 
" style="fill: none; stroke: #000000; stroke-width: 0.5; stroke-linejoin: miter; stroke-linecap: square"/>
   </g>
   <g id="patch_10">
    <path d="M 239.99976 214.481715 
L 239.99976 115.55024 
" style="fill: none; stroke: #000000; stroke-width: 0.5; stroke-linejoin: miter; stroke-linecap: square"/>
   </g>
   <g id="patch_11">
    <path d="M 29.497742 214.481715 
L 239.99976 214.481715 
" style="fill: none; stroke: #000000; stroke-width: 0.5; stroke-linejoin: miter; stroke-linecap: square"/>
   </g>
   <g id="patch_12">
    <path d="M 29.497742 115.55024 
L 239.99976 115.55024 
" style="fill: none; stroke: #000000; stroke-width: 0.5; stroke-linejoin: miter; stroke-linecap: square"/>
   </g>
   <g id="line2d_38">
    <path d="M 92.887554 135.214704 
L 96.475657 137.826591 
L 98.269708 139.231678 
L 100.661776 141.465291 
L 103.053845 143.961239 
L 105.445913 146.896788 
L 107.239964 149.476225 
L 109.632033 153.279499 
L 111.426084 156.599649 
L 113.220135 160.489182 
L 115.014187 164.892703 
L 118.004272 173.919347 
L 119.798323 180.520473 
L 123.386426 195.202965 
L 124.58246 199.32674 
L 125.778494 202.549157 
L 126.974529 204.760216 
L 127.572546 205.789775 
L 128.76858 207.17782 
L 129.366597 207.699721 
L 130.562631 208.985285 
L 131.160648 209.485425 
L 131.758665 209.736681 
L 132.954699 209.860529 
L 133.552717 209.698696 
L 134.150734 209.286002 
L 134.748751 208.578922 
L 135.346768 207.682707 
L 135.944785 206.586278 
L 137.140819 203.284726 
L 138.336853 199.315266 
L 139.532888 193.984667 
L 142.522973 180.074147 
L 143.719007 175.489009 
L 144.915041 171.911272 
L 146.709093 167.975444 
L 149.101161 163.41286 
L 155.081332 153.330542 
L 157.4734 149.742913 
L 159.267452 147.522358 
L 162.257537 144.163432 
L 165.84564 140.625263 
L 168.237708 138.639741 
L 170.629777 136.926052 
L 174.815896 134.0622 
L 176.011931 133.677362 
L 179.600033 132.85965 
L 180.796067 132.300713 
L 181.992102 131.643884 
L 186.776238 129.63019 
L 191.560375 127.91294 
L 196.344512 126.473694 
L 201.128649 125.202296 
L 211.294939 122.948582 
L 219.069162 121.735112 
L 229.833469 120.534619 
L 229.833469 120.534619 
" clip-path="url(#p38d8e00ddb)" style="fill: none; stroke: #d62728; stroke-linecap: square"/>
   </g>
   <g id="line2d_39">
    <path d="M 98.867725 136.737433 
L 101.259793 138.476862 
L 103.651862 140.570448 
L 106.04393 142.954626 
L 108.435998 145.586576 
L 110.828067 148.591972 
L 113.220135 152.05602 
L 115.612204 156.111559 
L 118.004272 161.214901 
L 120.39634 167.337164 
L 122.788409 173.516136 
L 125.180477 179.464792 
L 127.572546 184.614692 
L 129.964614 188.607436 
L 132.356682 191.676869 
L 134.748751 190.944264 
L 137.140819 189.394547 
L 139.532888 185.29216 
L 141.924956 178.493344 
L 144.317024 170.55908 
L 146.709093 165.079926 
L 149.101161 160.782518 
L 151.49323 156.804985 
L 153.885298 152.907482 
L 156.277366 149.192468 
L 158.669435 146.209741 
L 161.061503 143.593711 
L 163.453571 141.301471 
L 165.84564 139.305787 
L 168.237708 137.473444 
L 170.629777 135.898127 
L 173.021845 134.466366 
L 175.413913 133.198359 
L 177.805982 132.069256 
L 180.19805 130.975002 
L 182.590119 129.967296 
L 188.57029 127.811796 
L 194.550461 126.27968 
L 200.530632 124.929867 
L 206.510803 123.715512 
L 212.490973 122.911407 
L 218.471144 122.094253 
L 224.451315 121.358842 
L 230.431486 120.801238 
" clip-path="url(#p38d8e00ddb)" style="fill: none; stroke: #ff7f0e; stroke-linecap: square"/>
   </g>
   <g id="line2d_40">
    <path d="M 98.867725 136.05206 
L 101.85781 138.047071 
L 104.847896 140.441006 
L 107.837981 143.375454 
L 110.828067 147.066629 
L 112.024101 148.821368 
L 113.220135 150.867603 
L 114.416169 153.225999 
L 115.612204 155.892426 
L 116.808238 158.765111 
L 118.004272 161.784151 
L 119.200306 164.839275 
L 120.39634 167.878525 
L 121.592375 170.823608 
L 122.788409 173.677001 
L 123.984443 176.328006 
L 125.180477 178.821859 
L 126.376511 181.041144 
L 127.572546 183.023161 
L 128.76858 184.719546 
L 129.964614 186.13927 
L 131.160648 187.199385 
L 132.356682 187.85268 
L 133.552717 188.082433 
L 134.748751 187.96138 
L 137.140819 186.64058 
L 138.336853 185.402933 
L 139.532888 183.641701 
L 140.728922 181.243563 
L 141.924956 178.127212 
L 143.12099 174.277664 
L 144.317024 170.21453 
L 145.513059 166.500643 
L 146.709093 163.472422 
L 147.905127 161.014136 
L 149.101161 158.920399 
L 150.297195 157.015167 
L 151.49323 155.236215 
L 152.689264 153.514236 
L 153.885298 151.818328 
L 155.081332 150.124565 
L 156.277366 148.474344 
L 157.4734 146.808322 
L 158.669435 145.222926 
L 161.65952 141.728815 
L 164.649606 139.038707 
L 167.639691 136.897464 
L 170.629777 134.990215 
L 173.619862 133.26335 
L 176.609948 131.679169 
L 179.600033 130.221753 
L 182.590119 128.934965 
L 185.580204 127.909777 
L 188.57029 127.072522 
L 191.560375 126.310482 
L 194.550461 125.511065 
L 197.540546 124.645896 
L 200.530632 123.789741 
L 203.520717 123.041123 
L 206.510803 122.455169 
L 209.500888 122.038095 
L 212.490973 121.744753 
L 215.481059 121.495424 
L 218.471144 121.255752 
L 221.46123 120.982722 
L 224.451315 120.709667 
L 230.431486 120.280711 
" clip-path="url(#p38d8e00ddb)" style="fill: none; stroke: #2ca02c; stroke-linecap: square"/>
   </g>
   <g id="line2d_41">
    <path d="M 39.066015 120.967938 
L 45.046186 121.619165 
L 51.026357 122.093642 
L 57.006528 122.533726 
L 62.986699 123.236221 
L 68.96687 124.695097 
L 74.947041 126.705213 
L 80.927212 128.559243 
L 86.907383 130.026863 
L 89.897468 130.895465 
L 92.887554 131.831935 
L 95.877639 133.004289 
L 98.867725 134.663745 
L 101.85781 136.72225 
L 104.847896 139.443715 
L 107.837981 142.976834 
L 110.828067 147.239602 
L 113.818152 151.503547 
L 116.808238 156.253502 
L 119.798323 160.69366 
L 122.788409 164.823972 
L 125.778494 168.305452 
L 128.76858 171.049458 
L 131.758665 172.567136 
L 134.748751 172.882046 
L 137.738836 171.816456 
L 140.728922 169.295023 
L 143.719007 164.675639 
L 146.709093 160.277426 
L 149.699178 155.581643 
L 152.689264 151.516155 
L 155.679349 147.723471 
L 158.669435 144.315303 
L 161.65952 141.222144 
L 164.649606 138.409816 
L 167.639691 135.916379 
L 170.629777 134.048168 
L 173.619862 132.471438 
L 176.609948 131.439426 
L 179.600033 130.509128 
L 182.590119 129.775807 
L 185.580204 128.992193 
L 188.57029 128.196347 
L 191.560375 127.368528 
L 194.550461 126.446366 
L 197.540546 125.508433 
L 200.530632 124.558451 
L 203.520717 123.7828 
L 206.510803 123.224219 
L 212.490973 122.475545 
L 218.471144 122.060956 
L 224.451315 121.590628 
L 230.431486 120.941989 
" clip-path="url(#p38d8e00ddb)" style="fill: none; stroke: #1f77b4; stroke-linecap: square"/>
   </g>
   <g id="line2d_42">
    <path d="M 62.986699 118.357358 
L 65.976785 118.853972 
L 68.96687 119.577736 
L 71.956956 120.57921 
L 74.947041 121.867911 
L 77.937126 123.366895 
L 80.927212 124.975195 
L 83.917297 126.682372 
L 86.907383 128.442412 
L 89.897468 130.283732 
L 92.887554 132.133051 
L 95.877639 134.052052 
L 98.867725 136.010271 
L 101.85781 138.010959 
L 104.847896 139.932504 
L 107.837981 141.78736 
L 110.828067 143.65705 
L 113.818152 145.410559 
L 116.808238 147.276866 
L 118.004272 147.980627 
L 119.200306 148.626826 
L 120.39634 149.370212 
L 121.592375 150.030715 
L 122.788409 150.655439 
L 123.984443 151.25913 
L 125.180477 151.850258 
L 126.376511 152.400559 
L 127.572546 152.711774 
L 128.76858 153.042365 
L 129.964614 153.157777 
L 131.160648 153.303273 
L 132.356682 153.225931 
L 133.552717 153.097276 
L 134.748751 152.887742 
L 135.944785 152.788985 
L 137.140819 152.843096 
L 138.336853 152.739794 
L 139.532888 152.554445 
L 140.728922 152.183637 
L 141.924956 151.722951 
L 143.12099 151.268427 
L 144.317024 150.660417 
L 145.513059 150.024797 
L 146.709093 149.285978 
L 147.905127 148.507591 
L 149.101161 147.728557 
L 150.297195 146.820272 
L 151.49323 146.126717 
L 152.689264 145.335092 
L 155.679349 143.317896 
L 158.669435 141.450064 
L 161.65952 139.604129 
L 164.649606 137.748327 
L 167.639691 135.983441 
L 170.629777 134.189635 
L 173.619862 132.465754 
L 176.609948 130.782713 
L 179.600033 129.126061 
L 182.590119 127.532041 
L 185.580204 125.925584 
L 188.57029 124.326109 
L 191.560375 122.819793 
L 194.550461 121.415788 
L 197.540546 120.259563 
L 200.530632 119.334222 
L 203.520717 118.671235 
L 206.510803 118.115176 
L 209.500888 117.80084 
L 212.490973 117.636487 
L 215.481059 117.542973 
L 218.471144 117.691058 
L 221.46123 117.471407 
L 224.451315 117.479411 
L 227.441401 117.45787 
L 230.431486 117.436815 
" clip-path="url(#p38d8e00ddb)" style="fill: none; stroke: #9467bd; stroke-linecap: square"/>
   </g>
  </g>
 </g>
 <defs>
  <clipPath id="p80e38ea59d">
   <rect x="29.497742" y="3.00024" width="210.502018" height="98.931475"/>
  </clipPath>
  <clipPath id="p38d8e00ddb">
   <rect x="29.497742" y="115.55024" width="210.502018" height="98.931475"/>
  </clipPath>
 </defs>
</svg>
