<?xml version="1.0" encoding="utf-8" standalone="no"?>
<!DOCTYPE svg PUBLIC "-//W3C//DTD SVG 1.1//EN"
  "http://www.w3.org/Graphics/SVG/1.1/DTD/svg11.dtd">
<svg xmlns:xlink="http://www.w3.org/1999/xlink" width="243pt" height="150.182259pt" viewBox="0 0 243 150.182259" xmlns="http://www.w3.org/2000/svg" version="1.1">
 <metadata>
  <rdf:RDF xmlns:dc="http://purl.org/dc/elements/1.1/" xmlns:cc="http://creativecommons.org/ns#" xmlns:rdf="http://www.w3.org/1999/02/22-rdf-syntax-ns#">
   <cc:Work>
    <dc:type rdf:resource="http://purl.org/dc/dcmitype/StillImage"/>
    <dc:date>2024-10-28T13:56:23.042611</dc:date>
    <dc:format>image/svg+xml</dc:format>
    <dc:creator>
     <cc:Agent>
      <dc:title>Matplotlib v3.8.4, https://matplotlib.org/</dc:title>
     </cc:Agent>
    </dc:creator>
   </cc:Work>
  </rdf:RDF>
 </metadata>
 <defs>
  <style type="text/css">*{stroke-linejoin: round; stroke-linecap: butt}</style>
 </defs>
 <g id="figure_1">
  <g id="patch_1">
   <path d="M 0 150.182259 
L 243 150.182259 
L 243 0 
L 0 0 
L 0 150.182259 
z
" style="fill: none"/>
  </g>
  <g id="axes_1">
   <g id="patch_2">
    <path d="M 39.07894 120.863974 
L 123.406849 120.863974 
L 123.406849 3.00024 
L 39.07894 3.00024 
L 39.07894 120.863974 
z
" style="fill: none"/>
   </g>
   <g id="line2d_1">
    <path d="M 42.912027 111.957177 
L 62.077461 86.057303 
L 68.465939 77.424012 
L 81.242895 60.15743 
L 119.573762 8.357682 
" clip-path="url(#p3401e966e3)" style="fill: none; stroke: #000000; stroke-linecap: square"/>
   </g>
   <g id="matplotlib.axis_1">
    <g id="xtick_1">
     <g id="line2d_2">
      <defs>
       <path id="m2a7dbc0235" d="M 0 0 
L 0 -2 
" style="stroke: #000000; stroke-width: 0.5"/>
      </defs>
      <g>
       <use xlink:href="#m2a7dbc0235" x="42.912027" y="120.863974" style="stroke: #000000; stroke-width: 0.5"/>
      </g>
     </g>
     <g id="text_1">
      <!-- 0 -->
      <g transform="translate(40.595896 130.326432) scale(0.0833 -0.0833)">
       <defs>
        <path id="ArialMT-30" d="M 266 2259 
Q 266 3072 433 3567 
Q 600 4063 929 4331 
Q 1259 4600 1759 4600 
Q 2128 4600 2406 4451 
Q 2684 4303 2865 4023 
Q 3047 3744 3150 3342 
Q 3253 2941 3253 2259 
Q 3253 1453 3087 958 
Q 2922 463 2592 192 
Q 2263 -78 1759 -78 
Q 1097 -78 719 397 
Q 266 969 266 2259 
z
M 844 2259 
Q 844 1131 1108 757 
Q 1372 384 1759 384 
Q 2147 384 2411 759 
Q 2675 1134 2675 2259 
Q 2675 3391 2411 3762 
Q 2147 4134 1753 4134 
Q 1366 4134 1134 3806 
Q 844 3388 844 2259 
z
" transform="scale(0.015625)"/>
       </defs>
       <use xlink:href="#ArialMT-30"/>
      </g>
     </g>
    </g>
    <g id="xtick_2">
     <g id="line2d_3">
      <g>
       <use xlink:href="#m2a7dbc0235" x="65.910547" y="120.863974" style="stroke: #000000; stroke-width: 0.5"/>
      </g>
     </g>
     <g id="text_2">
      <!-- 1 -->
      <g transform="translate(63.594417 130.326432) scale(0.0833 -0.0833)">
       <defs>
        <path id="ArialMT-31" d="M 2384 0 
L 1822 0 
L 1822 3584 
Q 1619 3391 1289 3197 
Q 959 3003 697 2906 
L 697 3450 
Q 1169 3672 1522 3987 
Q 1875 4303 2022 4600 
L 2384 4600 
L 2384 0 
z
" transform="scale(0.015625)"/>
       </defs>
       <use xlink:href="#ArialMT-31"/>
      </g>
     </g>
    </g>
    <g id="xtick_3">
     <g id="line2d_4">
      <g>
       <use xlink:href="#m2a7dbc0235" x="88.909068" y="120.863974" style="stroke: #000000; stroke-width: 0.5"/>
      </g>
     </g>
     <g id="text_3">
      <!-- 2 -->
      <g transform="translate(86.592938 130.326432) scale(0.0833 -0.0833)">
       <defs>
        <path id="ArialMT-32" d="M 3222 541 
L 3222 0 
L 194 0 
Q 188 203 259 391 
Q 375 700 629 1000 
Q 884 1300 1366 1694 
Q 2113 2306 2375 2664 
Q 2638 3022 2638 3341 
Q 2638 3675 2398 3904 
Q 2159 4134 1775 4134 
Q 1369 4134 1125 3890 
Q 881 3647 878 3216 
L 300 3275 
Q 359 3922 746 4261 
Q 1134 4600 1788 4600 
Q 2447 4600 2831 4234 
Q 3216 3869 3216 3328 
Q 3216 3053 3103 2787 
Q 2991 2522 2730 2228 
Q 2469 1934 1863 1422 
Q 1356 997 1212 845 
Q 1069 694 975 541 
L 3222 541 
z
" transform="scale(0.015625)"/>
       </defs>
       <use xlink:href="#ArialMT-32"/>
      </g>
     </g>
    </g>
    <g id="xtick_4">
     <g id="line2d_5">
      <g>
       <use xlink:href="#m2a7dbc0235" x="111.907589" y="120.863974" style="stroke: #000000; stroke-width: 0.5"/>
      </g>
     </g>
     <g id="text_4">
      <!-- 3 -->
      <g transform="translate(109.591458 130.326432) scale(0.0833 -0.0833)">
       <defs>
        <path id="ArialMT-33" d="M 269 1209 
L 831 1284 
Q 928 806 1161 595 
Q 1394 384 1728 384 
Q 2125 384 2398 659 
Q 2672 934 2672 1341 
Q 2672 1728 2419 1979 
Q 2166 2231 1775 2231 
Q 1616 2231 1378 2169 
L 1441 2663 
Q 1497 2656 1531 2656 
Q 1891 2656 2178 2843 
Q 2466 3031 2466 3422 
Q 2466 3731 2256 3934 
Q 2047 4138 1716 4138 
Q 1388 4138 1169 3931 
Q 950 3725 888 3313 
L 325 3413 
Q 428 3978 793 4289 
Q 1159 4600 1703 4600 
Q 2078 4600 2393 4439 
Q 2709 4278 2876 4000 
Q 3044 3722 3044 3409 
Q 3044 3113 2884 2869 
Q 2725 2625 2413 2481 
Q 2819 2388 3044 2092 
Q 3269 1797 3269 1353 
Q 3269 753 2831 336 
Q 2394 -81 1725 -81 
Q 1122 -81 723 278 
Q 325 638 269 1209 
z
" transform="scale(0.015625)"/>
       </defs>
       <use xlink:href="#ArialMT-33"/>
      </g>
     </g>
    </g>
    <g id="text_5">
     <!-- $W_\mathrm{sc}^{-1}$ (μm$^{-1}$) -->
     <g transform="translate(54.342895 144.482019) scale(0.1 -0.1)">
      <defs>
       <path id="Cmmi10-57" d="M 1141 -72 
L 844 4006 
Q 822 4100 703 4123 
Q 584 4147 409 4147 
Q 347 4147 347 4231 
Q 369 4313 381 4342 
Q 394 4372 453 4372 
L 1978 4372 
Q 2041 4372 2041 4288 
Q 2016 4147 1959 4147 
Q 1447 4147 1416 3969 
L 1644 738 
L 3244 3525 
L 3213 4006 
Q 3191 4100 3072 4123 
Q 2953 4147 2778 4147 
Q 2713 4147 2713 4231 
Q 2734 4313 2746 4342 
Q 2759 4372 2822 4372 
L 4347 4372 
Q 4409 4372 4409 4288 
Q 4406 4272 4397 4234 
Q 4388 4197 4372 4172 
Q 4356 4147 4325 4147 
Q 3809 4147 3781 3969 
L 3781 3922 
L 4013 738 
L 5753 3775 
Q 5791 3844 5791 3909 
Q 5791 4041 5662 4094 
Q 5534 4147 5375 4147 
Q 5313 4147 5313 4231 
Q 5325 4281 5333 4309 
Q 5341 4338 5361 4355 
Q 5381 4372 5422 4372 
L 6644 4372 
Q 6706 4372 6706 4288 
Q 6703 4272 6693 4233 
Q 6684 4194 6667 4170 
Q 6650 4147 6625 4147 
Q 6169 4147 5931 3731 
Q 5913 3713 5913 3713 
L 3744 -72 
Q 3709 -141 3634 -141 
L 3584 -141 
Q 3506 -141 3506 -72 
L 3263 3225 
L 1381 -72 
Q 1334 -141 1269 -141 
L 1216 -141 
Q 1141 -141 1141 -72 
z
" transform="scale(0.015625)"/>
       <path id="Cmsy10-a1" d="M 653 1472 
Q 600 1472 565 1512 
Q 531 1553 531 1600 
Q 531 1647 565 1687 
Q 600 1728 653 1728 
L 4325 1728 
Q 4375 1728 4408 1687 
Q 4441 1647 4441 1600 
Q 4441 1553 4408 1512 
Q 4375 1472 4325 1472 
L 653 1472 
z
" transform="scale(0.015625)"/>
       <path id="Cmr10-31" d="M 594 0 
L 594 225 
Q 1394 225 1394 428 
L 1394 3788 
Q 1063 3628 556 3628 
L 556 3853 
Q 1341 3853 1741 4263 
L 1831 4263 
Q 1853 4263 1873 4245 
Q 1894 4228 1894 4206 
L 1894 428 
Q 1894 225 2694 225 
L 2694 0 
L 594 0 
z
" transform="scale(0.015625)"/>
       <path id="Cmr10-73" d="M 213 -19 
L 213 1025 
Q 213 1075 269 1075 
L 347 1075 
Q 384 1075 397 1025 
Q 575 97 1259 97 
Q 1563 97 1767 234 
Q 1972 372 1972 659 
Q 1972 866 1812 1011 
Q 1653 1156 1434 1209 
L 1006 1294 
Q 791 1341 614 1437 
Q 438 1534 325 1695 
Q 213 1856 213 2069 
Q 213 2350 361 2529 
Q 509 2709 746 2789 
Q 984 2869 1259 2869 
Q 1588 2869 1831 2694 
L 2016 2853 
Q 2016 2869 2047 2869 
L 2094 2869 
Q 2113 2869 2128 2851 
Q 2144 2834 2144 2816 
L 2144 1978 
Q 2144 1919 2094 1919 
L 2016 1919 
Q 1959 1919 1959 1978 
Q 1959 2313 1773 2516 
Q 1588 2719 1253 2719 
Q 966 2719 755 2612 
Q 544 2506 544 2247 
Q 544 2069 695 1955 
Q 847 1841 1050 1791 
L 1484 1709 
Q 1703 1659 1892 1540 
Q 2081 1422 2192 1240 
Q 2303 1059 2303 831 
Q 2303 600 2223 429 
Q 2144 259 2001 146 
Q 1859 34 1665 -19 
Q 1472 -72 1259 -72 
Q 859 -72 575 197 
L 341 -56 
Q 341 -72 306 -72 
L 269 -72 
Q 213 -72 213 -19 
z
" transform="scale(0.015625)"/>
       <path id="Cmr10-63" d="M 1594 -72 
Q 1206 -72 890 129 
Q 575 331 394 667 
Q 213 1003 213 1381 
Q 213 1759 392 2106 
Q 572 2453 889 2661 
Q 1206 2869 1594 2869 
Q 1969 2869 2276 2722 
Q 2584 2575 2584 2241 
Q 2584 2116 2495 2023 
Q 2406 1931 2278 1931 
Q 2150 1931 2061 2023 
Q 1972 2116 1972 2241 
Q 1972 2353 2044 2436 
Q 2116 2519 2222 2541 
Q 2000 2681 1600 2681 
Q 1294 2681 1106 2478 
Q 919 2275 844 1975 
Q 769 1675 769 1381 
Q 769 1072 861 783 
Q 953 494 1158 305 
Q 1363 116 1672 116 
Q 1975 116 2187 302 
Q 2400 488 2478 788 
Q 2478 825 2528 825 
L 2606 825 
Q 2625 825 2640 808 
Q 2656 791 2656 769 
L 2656 750 
Q 2559 372 2271 150 
Q 1984 -72 1594 -72 
z
" transform="scale(0.015625)"/>
       <path id="ArialMT-20" transform="scale(0.015625)"/>
       <path id="ArialMT-28" d="M 1497 -1347 
Q 1031 -759 709 28 
Q 388 816 388 1659 
Q 388 2403 628 3084 
Q 909 3875 1497 4659 
L 1900 4659 
Q 1522 4009 1400 3731 
Q 1209 3300 1100 2831 
Q 966 2247 966 1656 
Q 966 153 1900 -1347 
L 1497 -1347 
z
" transform="scale(0.015625)"/>
       <path id="ArialMT-3bc" d="M 3181 3319 
L 3181 0 
L 2678 0 
L 2678 394 
Q 2516 144 2356 50 
Q 2138 -78 1847 -78 
Q 1588 -78 1388 25 
Q 1238 103 1056 334 
L 1056 -1272 
L 500 -1272 
L 500 3319 
L 1056 3319 
L 1056 1913 
Q 1056 1147 1137 920 
Q 1219 694 1401 562 
Q 1584 431 1822 431 
Q 2072 431 2269 568 
Q 2466 706 2547 923 
Q 2628 1141 2628 1903 
L 2628 3319 
L 3181 3319 
z
" transform="scale(0.015625)"/>
       <path id="ArialMT-6d" d="M 422 0 
L 422 3319 
L 925 3319 
L 925 2853 
Q 1081 3097 1340 3245 
Q 1600 3394 1931 3394 
Q 2300 3394 2536 3241 
Q 2772 3088 2869 2813 
Q 3263 3394 3894 3394 
Q 4388 3394 4653 3120 
Q 4919 2847 4919 2278 
L 4919 0 
L 4359 0 
L 4359 2091 
Q 4359 2428 4304 2576 
Q 4250 2725 4106 2815 
Q 3963 2906 3769 2906 
Q 3419 2906 3187 2673 
Q 2956 2441 2956 1928 
L 2956 0 
L 2394 0 
L 2394 2156 
Q 2394 2531 2256 2718 
Q 2119 2906 1806 2906 
Q 1569 2906 1367 2781 
Q 1166 2656 1075 2415 
Q 984 2175 984 1722 
L 984 0 
L 422 0 
z
" transform="scale(0.015625)"/>
       <path id="ArialMT-29" d="M 791 -1347 
L 388 -1347 
Q 1322 153 1322 1656 
Q 1322 2244 1188 2822 
Q 1081 3291 891 3722 
Q 769 4003 388 4659 
L 791 4659 
Q 1378 3875 1659 3084 
Q 1900 2403 1900 1659 
Q 1900 816 1576 28 
Q 1253 -759 791 -1347 
z
" transform="scale(0.015625)"/>
      </defs>
      <use xlink:href="#Cmmi10-57" transform="translate(0 0.109375)"/>
      <use xlink:href="#Cmsy10-a1" transform="translate(105.754297 38.373438) scale(0.7)"/>
      <use xlink:href="#Cmr10-31" transform="translate(160.13418 38.373438) scale(0.7)"/>
      <use xlink:href="#Cmr10-73" transform="translate(94.384766 -25.4) scale(0.7)"/>
      <use xlink:href="#Cmr10-63" transform="translate(121.967773 -25.4) scale(0.7)"/>
      <use xlink:href="#ArialMT-20" transform="translate(201.511523 0.109375)"/>
      <use xlink:href="#ArialMT-28" transform="translate(229.294727 0.109375)"/>
      <use xlink:href="#ArialMT-3bc" transform="translate(262.595508 0.109375)"/>
      <use xlink:href="#ArialMT-6d" transform="translate(320.212695 0.109375)"/>
      <use xlink:href="#Cmsy10-a1" transform="translate(407.977617 38.373438) scale(0.7)"/>
      <use xlink:href="#Cmr10-31" transform="translate(462.3575 38.373438) scale(0.7)"/>
      <use xlink:href="#ArialMT-29" transform="translate(503.734844 0.109375)"/>
     </g>
    </g>
   </g>
   <g id="matplotlib.axis_2">
    <g id="ytick_1">
     <g id="line2d_6">
      <defs>
       <path id="m999221ea2e" d="M 0 0 
L 2 0 
" style="stroke: #000000; stroke-width: 0.5"/>
      </defs>
      <g>
       <use xlink:href="#m999221ea2e" x="39.07894" y="115.506532" style="stroke: #000000; stroke-width: 0.5"/>
      </g>
     </g>
     <g id="text_6">
      <!-- 0.0 -->
      <g transform="translate(24.00024 118.48776) scale(0.0833 -0.0833)">
       <defs>
        <path id="ArialMT-2e" d="M 581 0 
L 581 641 
L 1222 641 
L 1222 0 
L 581 0 
z
" transform="scale(0.015625)"/>
       </defs>
       <use xlink:href="#ArialMT-30"/>
       <use xlink:href="#ArialMT-2e" x="55.615234"/>
       <use xlink:href="#ArialMT-30" x="83.398438"/>
      </g>
     </g>
    </g>
    <g id="ytick_2">
     <g id="line2d_7">
      <g>
       <use xlink:href="#m999221ea2e" x="39.07894" y="89.003775" style="stroke: #000000; stroke-width: 0.5"/>
      </g>
     </g>
     <g id="text_7">
      <!-- 0.5 -->
      <g transform="translate(24.00024 91.985004) scale(0.0833 -0.0833)">
       <defs>
        <path id="ArialMT-35" d="M 266 1200 
L 856 1250 
Q 922 819 1161 601 
Q 1400 384 1738 384 
Q 2144 384 2425 690 
Q 2706 997 2706 1503 
Q 2706 1984 2436 2262 
Q 2166 2541 1728 2541 
Q 1456 2541 1237 2417 
Q 1019 2294 894 2097 
L 366 2166 
L 809 4519 
L 3088 4519 
L 3088 3981 
L 1259 3981 
L 1013 2750 
Q 1425 3038 1878 3038 
Q 2478 3038 2890 2622 
Q 3303 2206 3303 1553 
Q 3303 931 2941 478 
Q 2500 -78 1738 -78 
Q 1113 -78 717 272 
Q 322 622 266 1200 
z
" transform="scale(0.015625)"/>
       </defs>
       <use xlink:href="#ArialMT-30"/>
       <use xlink:href="#ArialMT-2e" x="55.615234"/>
       <use xlink:href="#ArialMT-35" x="83.398438"/>
      </g>
     </g>
    </g>
    <g id="ytick_3">
     <g id="line2d_8">
      <g>
       <use xlink:href="#m999221ea2e" x="39.07894" y="62.501019" style="stroke: #000000; stroke-width: 0.5"/>
      </g>
     </g>
     <g id="text_8">
      <!-- 1.0 -->
      <g transform="translate(24.00024 65.482248) scale(0.0833 -0.0833)">
       <use xlink:href="#ArialMT-31"/>
       <use xlink:href="#ArialMT-2e" x="55.615234"/>
       <use xlink:href="#ArialMT-30" x="83.398438"/>
      </g>
     </g>
    </g>
    <g id="ytick_4">
     <g id="line2d_9">
      <g>
       <use xlink:href="#m999221ea2e" x="39.07894" y="35.998263" style="stroke: #000000; stroke-width: 0.5"/>
      </g>
     </g>
     <g id="text_9">
      <!-- 1.5 -->
      <g transform="translate(24.00024 38.979492) scale(0.0833 -0.0833)">
       <use xlink:href="#ArialMT-31"/>
       <use xlink:href="#ArialMT-2e" x="55.615234"/>
       <use xlink:href="#ArialMT-35" x="83.398438"/>
      </g>
     </g>
    </g>
    <g id="ytick_5">
     <g id="line2d_10">
      <g>
       <use xlink:href="#m999221ea2e" x="39.07894" y="9.495507" style="stroke: #000000; stroke-width: 0.5"/>
      </g>
     </g>
     <g id="text_10">
      <!-- 2.0 -->
      <g transform="translate(24.00024 12.476736) scale(0.0833 -0.0833)">
       <use xlink:href="#ArialMT-32"/>
       <use xlink:href="#ArialMT-2e" x="55.615234"/>
       <use xlink:href="#ArialMT-30" x="83.398438"/>
      </g>
     </g>
    </g>
    <g id="text_11">
     <!-- $1 / \ln\left(\frac{I_\mathrm{c}^\infty}{I_\mathrm{c}^\infty - \max|I_{\mathrm{c}\pm}|}\right)$ -->
     <g transform="translate(13.50024 100.682107) rotate(-90) scale(0.1 -0.1)">
      <defs>
       <path id="Cmmi10-3d" d="M 359 -1472 
Q 359 -1453 366 -1447 
L 2591 4722 
Q 2603 4759 2634 4779 
Q 2666 4800 2706 4800 
Q 2763 4800 2798 4765 
Q 2834 4731 2834 4672 
L 2834 4647 
L 609 -1522 
Q 572 -1600 488 -1600 
Q 434 -1600 396 -1562 
Q 359 -1525 359 -1472 
z
" transform="scale(0.015625)"/>
       <path id="Cmr10-6c" d="M 197 0 
L 197 225 
Q 416 225 556 259 
Q 697 294 697 428 
L 697 3788 
Q 697 3959 645 4036 
Q 594 4113 497 4130 
Q 400 4147 197 4147 
L 197 4372 
L 1147 4441 
L 1147 428 
Q 1147 294 1287 259 
Q 1428 225 1644 225 
L 1644 0 
L 197 0 
z
" transform="scale(0.015625)"/>
       <path id="Cmr10-6e" d="M 191 0 
L 191 225 
Q 409 225 550 259 
Q 691 294 691 428 
L 691 2175 
Q 691 2347 639 2423 
Q 588 2500 491 2517 
Q 394 2534 191 2534 
L 191 2759 
L 1119 2828 
L 1119 2203 
Q 1247 2478 1498 2653 
Q 1750 2828 2047 2828 
Q 2491 2828 2714 2615 
Q 2938 2403 2938 1966 
L 2938 428 
Q 2938 294 3078 259 
Q 3219 225 3438 225 
L 3438 0 
L 1972 0 
L 1972 225 
Q 2191 225 2331 259 
Q 2472 294 2472 428 
L 2472 1947 
Q 2472 2259 2381 2461 
Q 2291 2663 2009 2663 
Q 1638 2663 1398 2366 
Q 1159 2069 1159 1691 
L 1159 428 
Q 1159 294 1300 259 
Q 1441 225 1656 225 
L 1656 0 
L 191 0 
z
" transform="scale(0.015625)"/>
       <path id="Cmex10-b3" d="M 3359 -11244 
Q 2763 -10725 2339 -10065 
Q 1916 -9406 1655 -8656 
Q 1394 -7906 1273 -7115 
Q 1153 -6325 1153 -5503 
Q 1153 -4678 1273 -3886 
Q 1394 -3094 1655 -2344 
Q 1916 -1594 2339 -934 
Q 2763 -275 3359 244 
Q 3359 256 3391 256 
L 3541 256 
Q 3559 256 3575 236 
Q 3591 216 3591 197 
Q 3591 172 3578 159 
Q 3031 -388 2662 -1041 
Q 2294 -1694 2072 -2439 
Q 1850 -3184 1756 -3948 
Q 1663 -4713 1663 -5509 
Q 1663 -6303 1756 -7070 
Q 1850 -7838 2072 -8575 
Q 2294 -9313 2667 -9969 
Q 3041 -10625 3578 -11163 
Q 3591 -11175 3591 -11200 
Q 3591 -11216 3573 -11236 
Q 3556 -11256 3541 -11256 
L 3391 -11256 
Q 3359 -11256 3359 -11244 
z
" transform="scale(0.015625)"/>
       <path id="Cmmi10-49" d="M 269 0 
Q 206 0 206 84 
Q 231 225 288 225 
Q 666 225 800 250 
Q 947 284 984 441 
L 1863 3956 
Q 1875 4019 1875 4038 
Q 1875 4078 1854 4095 
Q 1834 4113 1791 4122 
Q 1663 4147 1306 4147 
Q 1241 4147 1241 4231 
Q 1263 4313 1275 4342 
Q 1288 4372 1350 4372 
L 3138 4372 
Q 3200 4372 3200 4288 
Q 3197 4272 3187 4234 
Q 3178 4197 3162 4172 
Q 3147 4147 3116 4147 
Q 2741 4147 2597 4122 
Q 2456 4088 2419 3928 
L 1544 416 
Q 1528 338 1528 331 
Q 1528 316 1533 302 
Q 1538 288 1552 277 
Q 1566 266 1580 261 
Q 1594 256 1613 250 
Q 1734 225 2100 225 
Q 2163 225 2163 141 
Q 2141 50 2128 25 
Q 2116 0 2053 0 
L 269 0 
z
" transform="scale(0.015625)"/>
       <path id="Cmsy10-31" d="M 1575 -72 
Q 1213 -72 933 140 
Q 653 353 506 690 
Q 359 1028 359 1381 
Q 359 1653 445 1912 
Q 531 2172 693 2378 
Q 856 2584 1086 2706 
Q 1316 2828 1594 2828 
Q 1881 2828 2150 2718 
Q 2419 2609 2642 2428 
Q 2866 2247 3059 2009 
L 3250 1753 
Q 3441 2056 3672 2295 
Q 3903 2534 4195 2681 
Q 4488 2828 4819 2828 
Q 5097 2828 5325 2704 
Q 5553 2581 5712 2368 
Q 5872 2156 5953 1898 
Q 6034 1641 6034 1381 
Q 6034 1019 5882 683 
Q 5731 347 5451 137 
Q 5172 -72 4800 -72 
Q 4381 -72 4004 153 
Q 3628 378 3334 750 
L 3144 1006 
Q 2850 528 2451 228 
Q 2053 -72 1575 -72 
z
M 1509 153 
Q 2322 153 2963 1241 
L 2625 1672 
Q 2331 2059 2078 2278 
Q 1825 2497 1491 2497 
Q 1206 2497 986 2336 
Q 766 2175 645 1915 
Q 525 1656 525 1375 
Q 525 1159 592 942 
Q 659 725 787 547 
Q 916 369 1098 261 
Q 1281 153 1509 153 
z
M 3769 1088 
Q 4063 700 4316 481 
Q 4569 263 4903 263 
Q 5116 263 5294 356 
Q 5472 450 5601 609 
Q 5731 769 5800 969 
Q 5869 1169 5869 1381 
Q 5869 1678 5750 1961 
Q 5631 2244 5407 2425 
Q 5184 2606 4884 2606 
Q 4072 2606 3431 1516 
L 3769 1088 
z
" transform="scale(0.015625)"/>
       <path id="Cmr10-6d" d="M 191 0 
L 191 225 
Q 409 225 550 259 
Q 691 294 691 428 
L 691 2175 
Q 691 2347 639 2423 
Q 588 2500 491 2517 
Q 394 2534 191 2534 
L 191 2759 
L 1119 2828 
L 1119 2203 
Q 1247 2478 1498 2653 
Q 1750 2828 2047 2828 
Q 2784 2828 2913 2228 
Q 3041 2497 3287 2662 
Q 3534 2828 3828 2828 
Q 4119 2828 4317 2734 
Q 4516 2641 4616 2448 
Q 4716 2256 4716 1966 
L 4716 428 
Q 4716 294 4858 259 
Q 5000 225 5216 225 
L 5216 0 
L 3750 0 
L 3750 225 
Q 3969 225 4109 259 
Q 4250 294 4250 428 
L 4250 1947 
Q 4250 2269 4159 2466 
Q 4069 2663 3788 2663 
Q 3419 2663 3178 2366 
Q 2938 2069 2938 1691 
L 2938 428 
Q 2938 294 3078 259 
Q 3219 225 3438 225 
L 3438 0 
L 1972 0 
L 1972 225 
Q 2191 225 2331 259 
Q 2472 294 2472 428 
L 2472 1947 
Q 2472 2259 2381 2461 
Q 2291 2663 2009 2663 
Q 1638 2663 1398 2366 
Q 1159 2069 1159 1691 
L 1159 428 
Q 1159 294 1300 259 
Q 1441 225 1656 225 
L 1656 0 
L 191 0 
z
" transform="scale(0.015625)"/>
       <path id="Cmr10-61" d="M 256 628 
Q 256 1009 556 1248 
Q 856 1488 1276 1586 
Q 1697 1684 2075 1684 
L 2075 1947 
Q 2075 2131 1994 2304 
Q 1913 2478 1759 2589 
Q 1606 2700 1422 2700 
Q 997 2700 775 2509 
Q 897 2509 976 2417 
Q 1056 2325 1056 2203 
Q 1056 2075 965 1984 
Q 875 1894 750 1894 
Q 622 1894 531 1984 
Q 441 2075 441 2203 
Q 441 2541 747 2705 
Q 1053 2869 1422 2869 
Q 1681 2869 1943 2758 
Q 2206 2647 2373 2440 
Q 2541 2234 2541 1959 
L 2541 519 
Q 2541 394 2594 289 
Q 2647 184 2759 184 
Q 2866 184 2917 290 
Q 2969 397 2969 519 
L 2969 928 
L 3156 928 
L 3156 519 
Q 3156 375 3081 245 
Q 3006 116 2879 39 
Q 2753 -38 2606 -38 
Q 2419 -38 2283 107 
Q 2147 253 2131 453 
Q 2013 213 1781 70 
Q 1550 -72 1288 -72 
Q 1044 -72 808 0 
Q 572 72 414 226 
Q 256 381 256 628 
z
M 775 628 
Q 775 403 940 250 
Q 1106 97 1331 97 
Q 1538 97 1706 200 
Q 1875 303 1975 481 
Q 2075 659 2075 856 
L 2075 1522 
Q 1784 1522 1479 1426 
Q 1175 1331 975 1128 
Q 775 925 775 628 
z
" transform="scale(0.015625)"/>
       <path id="Cmr10-78" d="M 78 0 
L 78 225 
Q 322 225 537 320 
Q 753 416 903 603 
L 1484 1344 
L 728 2328 
Q 616 2469 483 2501 
Q 350 2534 109 2534 
L 109 2759 
L 1441 2759 
L 1441 2534 
Q 1356 2534 1282 2496 
Q 1209 2459 1209 2388 
Q 1209 2363 1228 2328 
L 1741 1663 
L 2125 2156 
Q 2203 2250 2203 2344 
Q 2203 2422 2151 2478 
Q 2100 2534 2016 2534 
L 2016 2759 
L 3194 2759 
L 3194 2534 
Q 2947 2534 2730 2439 
Q 2513 2344 2363 2156 
L 1856 1509 
L 2675 428 
Q 2797 288 2928 256 
Q 3059 225 3303 225 
L 3303 0 
L 1972 0 
L 1972 225 
Q 2050 225 2122 262 
Q 2194 300 2194 372 
Q 2194 400 2175 428 
L 1600 1191 
L 1141 603 
Q 1069 522 1069 416 
Q 1069 338 1122 281 
Q 1175 225 1247 225 
L 1247 0 
L 78 0 
z
" transform="scale(0.015625)"/>
       <path id="Cmsy10-6a" d="M 763 -1484 
L 763 4684 
Q 763 4734 800 4767 
Q 838 4800 891 4800 
Q 938 4800 978 4767 
Q 1019 4734 1019 4684 
L 1019 -1484 
Q 1019 -1534 978 -1567 
Q 938 -1600 891 -1600 
Q 838 -1600 800 -1567 
Q 763 -1534 763 -1484 
z
" transform="scale(0.015625)"/>
       <path id="Cmsy10-a7" d="M 481 0 
Q 428 0 393 37 
Q 359 75 359 128 
Q 359 175 393 215 
Q 428 256 481 256 
L 2363 256 
L 2363 2003 
L 481 2003 
Q 428 2003 393 2043 
Q 359 2084 359 2131 
Q 359 2178 393 2218 
Q 428 2259 481 2259 
L 2363 2259 
L 2363 4147 
Q 2363 4197 2400 4230 
Q 2438 4263 2491 4263 
Q 2534 4263 2576 4230 
Q 2619 4197 2619 4147 
L 2619 2259 
L 4500 2259 
Q 4547 2259 4581 2218 
Q 4616 2178 4616 2131 
Q 4616 2084 4581 2043 
Q 4547 2003 4500 2003 
L 2619 2003 
L 2619 256 
L 4500 256 
Q 4547 256 4581 215 
Q 4616 175 4616 128 
Q 4616 75 4581 37 
Q 4547 0 4500 0 
L 481 0 
z
" transform="scale(0.015625)"/>
       <path id="Cmex10-b4" d="M 281 -11256 
Q 225 -11256 225 -11200 
Q 225 -11175 238 -11163 
Q 781 -10619 1156 -9955 
Q 1531 -9291 1747 -8566 
Q 1963 -7841 2056 -7075 
Q 2150 -6309 2150 -5497 
Q 2150 -4666 2054 -3906 
Q 1959 -3147 1743 -2425 
Q 1528 -1703 1154 -1039 
Q 781 -375 238 159 
Q 225 172 225 197 
Q 225 256 281 256 
L 428 256 
Q 447 256 459 244 
Q 1050 -266 1478 -933 
Q 1906 -1600 2167 -2348 
Q 2428 -3097 2545 -3887 
Q 2663 -4678 2663 -5503 
Q 2663 -6325 2545 -7114 
Q 2428 -7903 2167 -8653 
Q 1906 -9403 1478 -10068 
Q 1050 -10734 459 -11244 
Q 447 -11256 428 -11256 
L 281 -11256 
z
" transform="scale(0.015625)"/>
      </defs>
      <use xlink:href="#Cmr10-31" transform="translate(0 0.642188)"/>
      <use xlink:href="#Cmmi10-3d" transform="translate(50 0.642188)"/>
      <use xlink:href="#Cmr10-6c" transform="translate(100 0.642188)"/>
      <use xlink:href="#Cmr10-6e" transform="translate(127.685547 0.642188)"/>
      <use xlink:href="#Cmex10-b3" transform="translate(197.835579 101.234375) scale(0.939554)"/>
      <use xlink:href="#Cmmi10-49" transform="translate(433.941368 56.55) scale(0.7)"/>
      <use xlink:href="#Cmsy10-31" transform="translate(472.627579 83.334844) scale(0.49)"/>
      <use xlink:href="#Cmr10-63" transform="translate(464.668907 38.693438) scale(0.49)"/>
      <use xlink:href="#Cmmi10-49" transform="translate(253.941368 -45.607812) scale(0.7)"/>
      <use xlink:href="#Cmsy10-31" transform="translate(292.627579 -18.822969) scale(0.49)"/>
      <use xlink:href="#Cmr10-63" transform="translate(284.668907 -63.464375) scale(0.49)"/>
      <use xlink:href="#Cmsy10-a1" transform="translate(358.382735 -45.607812) scale(0.7)"/>
      <use xlink:href="#Cmr10-6d" transform="translate(425.053634 -45.607812) scale(0.7)"/>
      <use xlink:href="#Cmr10-61" transform="translate(483.364181 -45.607812) scale(0.7)"/>
      <use xlink:href="#Cmr10-78" transform="translate(518.364181 -45.607812) scale(0.7)"/>
      <use xlink:href="#Cmsy10-6a" transform="translate(555.244064 -45.607812) scale(0.7)"/>
      <use xlink:href="#Cmmi10-49" transform="translate(574.623946 -45.607812) scale(0.7)"/>
      <use xlink:href="#Cmr10-63" transform="translate(605.351485 -57.512188) scale(0.49)"/>
      <use xlink:href="#Cmsy10-a7" transform="translate(635.703732 -57.512188) scale(0.49)"/>
      <use xlink:href="#Cmsy10-6a" transform="translate(686.837501 -45.607812) scale(0.7)"/>
      <use xlink:href="#Cmex10-b4" transform="translate(718.717384 101.234375) scale(0.939554)"/>
      <path d="M 253.941368 13.142188 
L 253.941368 19.392188 
L 706.217384 19.392188 
L 706.217384 13.142188 
L 253.941368 13.142188 
z
"/>
     </g>
    </g>
   </g>
   <g id="line2d_11">
    <path d="M 42.912027 115.506532 
" clip-path="url(#p3401e966e3)" style="fill: none; stroke: #d62728; stroke-linecap: square"/>
    <defs>
     <path id="md868a1edf5" d="M 0 2 
C 0.530406 2 1.03916 1.789267 1.414214 1.414214 
C 1.789267 1.03916 2 0.530406 2 0 
C 2 -0.530406 1.789267 -1.03916 1.414214 -1.414214 
C 1.03916 -1.789267 0.530406 -2 0 -2 
C -0.530406 -2 -1.03916 -1.789267 -1.414214 -1.414214 
C -1.789267 -1.03916 -2 -0.530406 -2 0 
C -2 0.530406 -1.789267 1.03916 -1.414214 1.414214 
C -1.03916 1.789267 -0.530406 2 0 2 
z
" style="stroke: #d62728; stroke-width: 0.5"/>
    </defs>
    <g clip-path="url(#p3401e966e3)">
     <use xlink:href="#md868a1edf5" x="42.912027" y="115.506532" style="fill: #d62728; stroke: #d62728; stroke-width: 0.5"/>
    </g>
   </g>
   <g id="line2d_12">
    <path d="M 62.077461 82.121782 
" clip-path="url(#p3401e966e3)" style="fill: none; stroke: #ff7f0e; stroke-linecap: square"/>
    <defs>
     <path id="m4db9e98b9d" d="M 0 -2 
L -2 2 
L 2 2 
z
" style="stroke: #ff7f0e; stroke-width: 0.5; stroke-linejoin: miter"/>
    </defs>
    <g clip-path="url(#p3401e966e3)">
     <use xlink:href="#m4db9e98b9d" x="62.077461" y="82.121782" style="fill: #ff7f0e; stroke: #ff7f0e; stroke-width: 0.5; stroke-linejoin: miter"/>
    </g>
   </g>
   <g id="line2d_13">
    <path d="M 68.465939 78.276945 
" clip-path="url(#p3401e966e3)" style="fill: none; stroke: #2ca02c; stroke-linecap: square"/>
    <defs>
     <path id="me42171bb32" d="M -2 2 
L 2 2 
L 2 -2 
L -2 -2 
z
" style="stroke: #2ca02c; stroke-width: 0.5; stroke-linejoin: miter"/>
    </defs>
    <g clip-path="url(#p3401e966e3)">
     <use xlink:href="#me42171bb32" x="68.465939" y="78.276945" style="fill: #2ca02c; stroke: #2ca02c; stroke-width: 0.5; stroke-linejoin: miter"/>
    </g>
   </g>
   <g id="line2d_14">
    <path d="M 81.242895 57.824759 
" clip-path="url(#p3401e966e3)" style="fill: none; stroke: #1f77b4; stroke-linecap: square"/>
    <defs>
     <path id="ma70680ba23" d="M -0 2.828427 
L 2.828427 0 
L 0 -2.828427 
L -2.828427 -0 
z
" style="stroke: #1f77b4; stroke-width: 0.5; stroke-linejoin: miter"/>
    </defs>
    <g clip-path="url(#p3401e966e3)">
     <use xlink:href="#ma70680ba23" x="81.242895" y="57.824759" style="fill: #1f77b4; stroke: #1f77b4; stroke-width: 0.5; stroke-linejoin: miter"/>
    </g>
   </g>
   <g id="line2d_15">
    <path d="M 119.573762 10.223587 
" clip-path="url(#p3401e966e3)" style="fill: none; stroke: #9467bd; stroke-linecap: square"/>
    <defs>
     <path id="m98c715f3fe" d="M -2 2 
L 2 -2 
M -2 -2 
L 2 2 
" style="stroke: #9467bd; stroke-width: 0.5"/>
    </defs>
    <g clip-path="url(#p3401e966e3)">
     <use xlink:href="#m98c715f3fe" x="119.573762" y="10.223587" style="fill: #9467bd; stroke: #9467bd; stroke-width: 0.5"/>
    </g>
   </g>
   <g id="patch_3">
    <path d="M 39.07894 120.863974 
L 39.07894 3.00024 
" style="fill: none; stroke: #000000; stroke-width: 0.5; stroke-linejoin: miter; stroke-linecap: square"/>
   </g>
   <g id="patch_4">
    <path d="M 123.406849 120.863974 
L 123.406849 3.00024 
" style="fill: none; stroke: #000000; stroke-width: 0.5; stroke-linejoin: miter; stroke-linecap: square"/>
   </g>
   <g id="patch_5">
    <path d="M 39.07894 120.863974 
L 123.406849 120.863974 
" style="fill: none; stroke: #000000; stroke-width: 0.5; stroke-linejoin: miter; stroke-linecap: square"/>
   </g>
   <g id="patch_6">
    <path d="M 39.07894 3.00024 
L 123.406849 3.00024 
" style="fill: none; stroke: #000000; stroke-width: 0.5; stroke-linejoin: miter; stroke-linecap: square"/>
   </g>
   <g id="legend_1">
    <g id="patch_7">
     <path d="M 43.13194 15.91194 
L 89.27824 15.91194 
Q 90.43624 15.91194 90.43624 14.75394 
L 90.43624 7.05324 
Q 90.43624 5.89524 89.27824 5.89524 
L 43.13194 5.89524 
Q 41.97394 5.89524 41.97394 7.05324 
L 41.97394 14.75394 
Q 41.97394 15.91194 43.13194 15.91194 
z
" style="fill: #ffffff; opacity: 0.8; stroke: #cccccc; stroke-linejoin: miter"/>
    </g>
    <g id="line2d_16">
     <path d="M 44.28994 10.35354 
L 50.07994 10.35354 
L 55.86994 10.35354 
" style="fill: none; stroke: #000000; stroke-linecap: square"/>
    </g>
    <g id="text_12">
     <!-- $\xi=$586$\,$nm -->
     <g transform="translate(60.50194 12.38004) scale(0.0579 -0.0579)">
      <defs>
       <path id="Cmmi10-bb" d="M 1044 -997 
Q 1053 -922 1131 -922 
Q 1138 -922 1252 -984 
Q 1366 -1047 1503 -1097 
Q 1641 -1147 1778 -1147 
Q 1897 -1147 1978 -1045 
Q 2059 -944 2059 -825 
Q 2059 -656 1881 -588 
L 794 -166 
Q 513 -56 330 161 
Q 147 378 147 653 
Q 147 900 278 1167 
Q 409 1434 615 1651 
Q 822 1869 1056 2003 
Q 869 2116 764 2292 
Q 659 2469 659 2681 
Q 659 2906 751 3100 
Q 844 3294 1003 3453 
Q 1163 3613 1359 3723 
Q 1556 3834 1759 3891 
Q 1728 4022 1728 4128 
Q 1728 4475 1863 4475 
Q 1897 4475 1922 4450 
Q 1947 4425 1947 4391 
Q 1947 4359 1930 4253 
Q 1913 4147 1913 4122 
Q 1913 4013 1941 3928 
Q 2106 3963 2259 3963 
Q 2847 3963 2847 3781 
Q 2847 3566 2194 3566 
Q 1994 3566 1869 3700 
Q 1684 3606 1528 3434 
Q 1372 3263 1284 3052 
Q 1197 2841 1197 2625 
Q 1197 2325 1369 2144 
Q 1597 2222 1825 2222 
Q 2413 2222 2413 2041 
Q 2413 1825 1759 1825 
Q 1494 1825 1259 1906 
Q 975 1753 737 1440 
Q 500 1128 500 838 
Q 500 650 636 508 
Q 772 366 972 281 
L 2106 -159 
Q 2253 -216 2345 -339 
Q 2438 -463 2438 -622 
Q 2438 -884 2236 -1098 
Q 2034 -1313 1772 -1313 
Q 1691 -1313 1506 -1269 
Q 1322 -1225 1183 -1153 
Q 1044 -1081 1044 -997 
z
M 1563 2022 
Q 1647 1991 1772 1991 
Q 2081 1991 2216 2028 
Q 2094 2053 1819 2053 
Q 1709 2053 1563 2022 
z
M 2053 3769 
Q 2109 3731 2209 3731 
Q 2516 3731 2650 3769 
L 2053 3769 
z
" transform="scale(0.015625)"/>
       <path id="Cmr10-3d" d="M 481 850 
Q 428 850 393 890 
Q 359 931 359 978 
Q 359 1031 393 1068 
Q 428 1106 481 1106 
L 4500 1106 
Q 4547 1106 4581 1068 
Q 4616 1031 4616 978 
Q 4616 931 4581 890 
Q 4547 850 4500 850 
L 481 850 
z
M 481 2094 
Q 428 2094 393 2131 
Q 359 2169 359 2222 
Q 359 2269 393 2309 
Q 428 2350 481 2350 
L 4500 2350 
Q 4547 2350 4581 2309 
Q 4616 2269 4616 2222 
Q 4616 2169 4581 2131 
Q 4547 2094 4500 2094 
L 481 2094 
z
" transform="scale(0.015625)"/>
       <path id="ArialMT-38" d="M 1131 2484 
Q 781 2613 612 2850 
Q 444 3088 444 3419 
Q 444 3919 803 4259 
Q 1163 4600 1759 4600 
Q 2359 4600 2725 4251 
Q 3091 3903 3091 3403 
Q 3091 3084 2923 2848 
Q 2756 2613 2416 2484 
Q 2838 2347 3058 2040 
Q 3278 1734 3278 1309 
Q 3278 722 2862 322 
Q 2447 -78 1769 -78 
Q 1091 -78 675 323 
Q 259 725 259 1325 
Q 259 1772 486 2073 
Q 713 2375 1131 2484 
z
M 1019 3438 
Q 1019 3113 1228 2906 
Q 1438 2700 1772 2700 
Q 2097 2700 2305 2904 
Q 2513 3109 2513 3406 
Q 2513 3716 2298 3927 
Q 2084 4138 1766 4138 
Q 1444 4138 1231 3931 
Q 1019 3725 1019 3438 
z
M 838 1322 
Q 838 1081 952 856 
Q 1066 631 1291 507 
Q 1516 384 1775 384 
Q 2178 384 2440 643 
Q 2703 903 2703 1303 
Q 2703 1709 2433 1975 
Q 2163 2241 1756 2241 
Q 1359 2241 1098 1978 
Q 838 1716 838 1322 
z
" transform="scale(0.015625)"/>
       <path id="ArialMT-36" d="M 3184 3459 
L 2625 3416 
Q 2550 3747 2413 3897 
Q 2184 4138 1850 4138 
Q 1581 4138 1378 3988 
Q 1113 3794 959 3422 
Q 806 3050 800 2363 
Q 1003 2672 1297 2822 
Q 1591 2972 1913 2972 
Q 2475 2972 2870 2558 
Q 3266 2144 3266 1488 
Q 3266 1056 3080 686 
Q 2894 316 2569 119 
Q 2244 -78 1831 -78 
Q 1128 -78 684 439 
Q 241 956 241 2144 
Q 241 3472 731 4075 
Q 1159 4600 1884 4600 
Q 2425 4600 2770 4297 
Q 3116 3994 3184 3459 
z
M 888 1484 
Q 888 1194 1011 928 
Q 1134 663 1356 523 
Q 1578 384 1822 384 
Q 2178 384 2434 671 
Q 2691 959 2691 1453 
Q 2691 1928 2437 2201 
Q 2184 2475 1800 2475 
Q 1419 2475 1153 2201 
Q 888 1928 888 1484 
z
" transform="scale(0.015625)"/>
       <path id="ArialMT-6e" d="M 422 0 
L 422 3319 
L 928 3319 
L 928 2847 
Q 1294 3394 1984 3394 
Q 2284 3394 2536 3286 
Q 2788 3178 2913 3003 
Q 3038 2828 3088 2588 
Q 3119 2431 3119 2041 
L 3119 0 
L 2556 0 
L 2556 2019 
Q 2556 2363 2490 2533 
Q 2425 2703 2258 2804 
Q 2091 2906 1866 2906 
Q 1506 2906 1245 2678 
Q 984 2450 984 1813 
L 984 0 
L 422 0 
z
" transform="scale(0.015625)"/>
      </defs>
      <use xlink:href="#Cmmi10-bb" transform="translate(0 0.125)"/>
      <use xlink:href="#Cmr10-3d" transform="translate(61.259766 0.125)"/>
      <use xlink:href="#ArialMT-35" transform="translate(156.503906 0.125)"/>
      <use xlink:href="#ArialMT-38" transform="translate(212.119141 0.125)"/>
      <use xlink:href="#ArialMT-36" transform="translate(267.734375 0.125)"/>
      <use xlink:href="#ArialMT-6e" transform="translate(337.982063 0.125)"/>
      <use xlink:href="#ArialMT-6d" transform="translate(393.597298 0.125)"/>
     </g>
    </g>
   </g>
  </g>
  <g id="axes_2">
   <g id="patch_8">
    <path d="M 155.671851 120.863974 
L 239.99976 120.863974 
L 239.99976 3.00024 
L 155.671851 3.00024 
L 155.671851 120.863974 
z
" style="fill: none"/>
   </g>
   <g id="matplotlib.axis_3">
    <g id="xtick_5">
     <g id="line2d_17">
      <g>
       <use xlink:href="#m2a7dbc0235" x="159.504938" y="120.863974" style="stroke: #000000; stroke-width: 0.5"/>
      </g>
     </g>
     <g id="text_13">
      <!-- 0 -->
      <g transform="translate(157.188807 130.326432) scale(0.0833 -0.0833)">
       <use xlink:href="#ArialMT-30"/>
      </g>
     </g>
    </g>
    <g id="xtick_6">
     <g id="line2d_18">
      <g>
       <use xlink:href="#m2a7dbc0235" x="182.503458" y="120.863974" style="stroke: #000000; stroke-width: 0.5"/>
      </g>
     </g>
     <g id="text_14">
      <!-- 1 -->
      <g transform="translate(180.187328 130.326432) scale(0.0833 -0.0833)">
       <use xlink:href="#ArialMT-31"/>
      </g>
     </g>
    </g>
    <g id="xtick_7">
     <g id="line2d_19">
      <g>
       <use xlink:href="#m2a7dbc0235" x="205.501979" y="120.863974" style="stroke: #000000; stroke-width: 0.5"/>
      </g>
     </g>
     <g id="text_15">
      <!-- 2 -->
      <g transform="translate(203.185849 130.326432) scale(0.0833 -0.0833)">
       <use xlink:href="#ArialMT-32"/>
      </g>
     </g>
    </g>
    <g id="xtick_8">
     <g id="line2d_20">
      <g>
       <use xlink:href="#m2a7dbc0235" x="228.5005" y="120.863974" style="stroke: #000000; stroke-width: 0.5"/>
      </g>
     </g>
     <g id="text_16">
      <!-- 3 -->
      <g transform="translate(226.184369 130.326432) scale(0.0833 -0.0833)">
       <use xlink:href="#ArialMT-33"/>
      </g>
     </g>
    </g>
    <g id="text_17">
     <!-- $W_\mathrm{sc}^{-1}$ (μm$^{-1}$) -->
     <g transform="translate(170.935805 144.482019) scale(0.1 -0.1)">
      <use xlink:href="#Cmmi10-57" transform="translate(0 0.109375)"/>
      <use xlink:href="#Cmsy10-a1" transform="translate(105.754297 38.373438) scale(0.7)"/>
      <use xlink:href="#Cmr10-31" transform="translate(160.13418 38.373438) scale(0.7)"/>
      <use xlink:href="#Cmr10-73" transform="translate(94.384766 -25.4) scale(0.7)"/>
      <use xlink:href="#Cmr10-63" transform="translate(121.967773 -25.4) scale(0.7)"/>
      <use xlink:href="#ArialMT-20" transform="translate(201.511523 0.109375)"/>
      <use xlink:href="#ArialMT-28" transform="translate(229.294727 0.109375)"/>
      <use xlink:href="#ArialMT-3bc" transform="translate(262.595508 0.109375)"/>
      <use xlink:href="#ArialMT-6d" transform="translate(320.212695 0.109375)"/>
      <use xlink:href="#Cmsy10-a1" transform="translate(407.977617 38.373438) scale(0.7)"/>
      <use xlink:href="#Cmr10-31" transform="translate(462.3575 38.373438) scale(0.7)"/>
      <use xlink:href="#ArialMT-29" transform="translate(503.734844 0.109375)"/>
     </g>
    </g>
   </g>
   <g id="matplotlib.axis_4">
    <g id="ytick_6">
     <g id="line2d_21">
      <g>
       <use xlink:href="#m999221ea2e" x="155.671851" y="99.515057" style="stroke: #000000; stroke-width: 0.5"/>
      </g>
     </g>
     <g id="text_18">
      <!-- 0 -->
      <g transform="translate(147.53959 102.496286) scale(0.0833 -0.0833)">
       <use xlink:href="#ArialMT-30"/>
      </g>
     </g>
    </g>
    <g id="ytick_7">
     <g id="line2d_22">
      <g>
       <use xlink:href="#m999221ea2e" x="155.671851" y="77.028389" style="stroke: #000000; stroke-width: 0.5"/>
      </g>
     </g>
     <g id="text_19">
      <!-- 10 -->
      <g transform="translate(142.907329 80.009618) scale(0.0833 -0.0833)">
       <use xlink:href="#ArialMT-31"/>
       <use xlink:href="#ArialMT-30" x="55.615234"/>
      </g>
     </g>
    </g>
    <g id="ytick_8">
     <g id="line2d_23">
      <g>
       <use xlink:href="#m999221ea2e" x="155.671851" y="54.54172" style="stroke: #000000; stroke-width: 0.5"/>
      </g>
     </g>
     <g id="text_20">
      <!-- 20 -->
      <g transform="translate(142.907329 57.522949) scale(0.0833 -0.0833)">
       <use xlink:href="#ArialMT-32"/>
       <use xlink:href="#ArialMT-30" x="55.615234"/>
      </g>
     </g>
    </g>
    <g id="ytick_9">
     <g id="line2d_24">
      <g>
       <use xlink:href="#m999221ea2e" x="155.671851" y="32.055052" style="stroke: #000000; stroke-width: 0.5"/>
      </g>
     </g>
     <g id="text_21">
      <!-- 30 -->
      <g transform="translate(142.907329 35.036281) scale(0.0833 -0.0833)">
       <use xlink:href="#ArialMT-33"/>
       <use xlink:href="#ArialMT-30" x="55.615234"/>
      </g>
     </g>
    </g>
    <g id="ytick_10">
     <g id="line2d_25">
      <g>
       <use xlink:href="#m999221ea2e" x="155.671851" y="9.568383" style="stroke: #000000; stroke-width: 0.5"/>
      </g>
     </g>
     <g id="text_22">
      <!-- 40 -->
      <g transform="translate(142.907329 12.549612) scale(0.0833 -0.0833)">
       <defs>
        <path id="ArialMT-34" d="M 2069 0 
L 2069 1097 
L 81 1097 
L 81 1613 
L 2172 4581 
L 2631 4581 
L 2631 1613 
L 3250 1613 
L 3250 1097 
L 2631 1097 
L 2631 0 
L 2069 0 
z
M 2069 1613 
L 2069 3678 
L 634 1613 
L 2069 1613 
z
" transform="scale(0.015625)"/>
       </defs>
       <use xlink:href="#ArialMT-34"/>
       <use xlink:href="#ArialMT-30" x="55.615234"/>
      </g>
     </g>
    </g>
    <g id="text_23">
     <!-- $B_*$ (mT) -->
     <g transform="translate(136.707329 80.982107) rotate(-90) scale(0.1 -0.1)">
      <defs>
       <path id="Cmmi10-42" d="M 319 0 
Q 256 0 256 84 
Q 259 100 268 137 
Q 278 175 293 200 
Q 309 225 341 225 
Q 522 225 656 234 
Q 791 244 884 269 
Q 959 297 1006 441 
L 1881 3956 
Q 1894 4019 1894 4044 
Q 1894 4113 1819 4122 
Q 1697 4147 1356 4147 
Q 1294 4147 1294 4231 
Q 1297 4247 1306 4286 
Q 1316 4325 1333 4348 
Q 1350 4372 1375 4372 
L 3669 4372 
Q 3878 4372 4083 4320 
Q 4288 4269 4461 4156 
Q 4634 4044 4736 3876 
Q 4838 3709 4838 3488 
Q 4838 3247 4714 3040 
Q 4591 2834 4395 2681 
Q 4200 2528 3973 2429 
Q 3747 2331 3500 2284 
Q 3675 2284 3854 2215 
Q 4034 2147 4175 2028 
Q 4316 1909 4402 1743 
Q 4488 1578 4488 1388 
Q 4488 1003 4219 684 
Q 3950 366 3542 183 
Q 3134 0 2753 0 
L 319 0 
z
M 1497 275 
Q 1497 225 1716 225 
L 2631 225 
Q 2944 225 3231 398 
Q 3519 572 3692 859 
Q 3866 1147 3866 1459 
Q 3866 1650 3786 1820 
Q 3706 1991 3556 2089 
Q 3406 2188 3213 2188 
L 1966 2188 
L 1522 416 
Q 1497 328 1497 275 
z
M 2009 2356 
L 2981 2356 
Q 3288 2356 3577 2512 
Q 3866 2669 4048 2937 
Q 4231 3206 4231 3506 
Q 4231 3784 4057 3965 
Q 3884 4147 3609 4147 
L 2731 4147 
Q 2559 4147 2500 4115 
Q 2441 4084 2400 3928 
L 2009 2356 
z
" transform="scale(0.015625)"/>
       <path id="Cmsy10-a4" d="M 603 813 
Q 531 813 473 873 
Q 416 934 416 1006 
Q 416 1116 506 1159 
L 1428 1600 
L 506 2034 
Q 416 2072 416 2188 
Q 416 2259 473 2320 
Q 531 2381 603 2381 
Q 650 2381 691 2350 
L 1509 1753 
L 1416 2797 
Q 1416 2875 1469 2925 
Q 1522 2975 1600 2975 
Q 1675 2975 1726 2928 
Q 1778 2881 1778 2809 
L 1778 2797 
L 1684 1753 
L 2503 2350 
Q 2544 2381 2591 2381 
Q 2669 2381 2723 2320 
Q 2778 2259 2778 2188 
Q 2778 2072 2688 2034 
L 1766 1600 
L 2688 1159 
Q 2778 1116 2778 1006 
Q 2778 934 2723 873 
Q 2669 813 2591 813 
Q 2544 813 2503 844 
L 1684 1441 
L 1778 403 
L 1778 384 
Q 1778 313 1723 266 
Q 1669 219 1600 219 
Q 1525 219 1470 270 
Q 1416 322 1416 397 
L 1509 1441 
L 691 844 
Q 650 813 603 813 
z
" transform="scale(0.015625)"/>
       <path id="ArialMT-54" d="M 1659 0 
L 1659 4041 
L 150 4041 
L 150 4581 
L 3781 4581 
L 3781 4041 
L 2266 4041 
L 2266 0 
L 1659 0 
z
" transform="scale(0.015625)"/>
      </defs>
      <use xlink:href="#Cmmi10-42" transform="translate(0 0.203125)"/>
      <use xlink:href="#Cmsy10-a4" transform="translate(88.072266 -16.803125) scale(0.7)"/>
      <use xlink:href="#ArialMT-20" transform="translate(141.740625 0.203125)"/>
      <use xlink:href="#ArialMT-28" transform="translate(169.523828 0.203125)"/>
      <use xlink:href="#ArialMT-6d" transform="translate(202.824609 0.203125)"/>
      <use xlink:href="#ArialMT-54" transform="translate(286.125391 0.203125)"/>
      <use xlink:href="#ArialMT-29" transform="translate(347.209375 0.203125)"/>
     </g>
    </g>
   </g>
   <g id="LineCollection_1">
    <path d="M 159.504938 15.893926 
L 159.504938 8.357682 
" clip-path="url(#p6e7e0b4530)" style="fill: none; stroke: #1f77b4"/>
    <path d="M 178.670372 41.143806 
L 178.670372 30.776448 
" clip-path="url(#p6e7e0b4530)" style="fill: none; stroke: #1f77b4"/>
    <path d="M 185.05885 56.018926 
L 185.05885 50.014514 
" clip-path="url(#p6e7e0b4530)" style="fill: none; stroke: #1f77b4"/>
    <path d="M 197.835805 68.258553 
L 197.835805 51.121313 
" clip-path="url(#p6e7e0b4530)" style="fill: none; stroke: #1f77b4"/>
   </g>
   <g id="LineCollection_2">
    <path d="M 159.504938 52.093973 
L 159.504938 45.380908 
" clip-path="url(#p6e7e0b4530)" style="fill: none; stroke: #000000"/>
    <path d="M 178.670372 83.906458 
L 178.670372 76.29415 
" clip-path="url(#p6e7e0b4530)" style="fill: none; stroke: #000000"/>
    <path d="M 185.05885 84.713388 
L 185.05885 78.943506 
" clip-path="url(#p6e7e0b4530)" style="fill: none; stroke: #000000"/>
    <path d="M 197.835805 89.831676 
L 197.835805 79.32674 
" clip-path="url(#p6e7e0b4530)" style="fill: none; stroke: #000000"/>
    <path d="M 236.166673 73.297178 
L 236.166673 66.999254 
" clip-path="url(#p6e7e0b4530)" style="fill: none; stroke: #000000"/>
   </g>
   <g id="LineCollection_3">
    <path d="M 159.504938 89.648908 
L 159.504938 82.422849 
" clip-path="url(#p6e7e0b4530)" style="fill: none; stroke: #d62728"/>
    <path d="M 178.670372 115.506532 
L 178.670372 109.586777 
" clip-path="url(#p6e7e0b4530)" style="fill: none; stroke: #d62728"/>
    <path d="M 185.05885 106.516917 
L 185.05885 99.5042 
" clip-path="url(#p6e7e0b4530)" style="fill: none; stroke: #d62728"/>
    <path d="M 197.835805 99.914846 
L 197.835805 92.930292 
" clip-path="url(#p6e7e0b4530)" style="fill: none; stroke: #d62728"/>
    <path d="M 236.166673 94.546819 
L 236.166673 85.196012 
" clip-path="url(#p6e7e0b4530)" style="fill: none; stroke: #d62728"/>
   </g>
   <g id="line2d_26">
    <path d="M 159.504938 12.125804 
L 178.670372 35.960127 
L 185.05885 53.01672 
L 197.835805 59.689933 
" clip-path="url(#p6e7e0b4530)" style="fill: none; stroke: #1f77b4; stroke-linecap: square"/>
    <defs>
     <path id="mb5d4a533b5" d="M 0 -2 
L -2 2 
L 2 2 
z
" style="stroke: #1f77b4; stroke-width: 0.5; stroke-linejoin: miter"/>
    </defs>
    <g clip-path="url(#p6e7e0b4530)">
     <use xlink:href="#mb5d4a533b5" x="159.504938" y="12.125804" style="fill: #1f77b4; stroke: #1f77b4; stroke-width: 0.5; stroke-linejoin: miter"/>
     <use xlink:href="#mb5d4a533b5" x="178.670372" y="35.960127" style="fill: #1f77b4; stroke: #1f77b4; stroke-width: 0.5; stroke-linejoin: miter"/>
     <use xlink:href="#mb5d4a533b5" x="185.05885" y="53.01672" style="fill: #1f77b4; stroke: #1f77b4; stroke-width: 0.5; stroke-linejoin: miter"/>
     <use xlink:href="#mb5d4a533b5" x="197.835805" y="59.689933" style="fill: #1f77b4; stroke: #1f77b4; stroke-width: 0.5; stroke-linejoin: miter"/>
    </g>
   </g>
   <g id="line2d_27">
    <path d="M 159.504938 48.737441 
L 178.670372 80.100304 
L 185.05885 81.828447 
L 197.835805 84.579208 
L 236.166673 70.148216 
" clip-path="url(#p6e7e0b4530)" style="fill: none; stroke: #000000; stroke-linecap: square"/>
    <defs>
     <path id="mae1ff8bee1" d="M 0 2 
C 0.530406 2 1.03916 1.789267 1.414214 1.414214 
C 1.789267 1.03916 2 0.530406 2 0 
C 2 -0.530406 1.789267 -1.03916 1.414214 -1.414214 
C 1.03916 -1.789267 0.530406 -2 0 -2 
C -0.530406 -2 -1.03916 -1.789267 -1.414214 -1.414214 
C -1.789267 -1.03916 -2 -0.530406 -2 0 
C -2 0.530406 -1.789267 1.03916 -1.414214 1.414214 
C -1.03916 1.789267 -0.530406 2 0 2 
z
" style="stroke: #000000; stroke-width: 0.5"/>
    </defs>
    <g clip-path="url(#p6e7e0b4530)">
     <use xlink:href="#mae1ff8bee1" x="159.504938" y="48.737441" style="stroke: #000000; stroke-width: 0.5"/>
     <use xlink:href="#mae1ff8bee1" x="178.670372" y="80.100304" style="stroke: #000000; stroke-width: 0.5"/>
     <use xlink:href="#mae1ff8bee1" x="185.05885" y="81.828447" style="stroke: #000000; stroke-width: 0.5"/>
     <use xlink:href="#mae1ff8bee1" x="197.835805" y="84.579208" style="stroke: #000000; stroke-width: 0.5"/>
     <use xlink:href="#mae1ff8bee1" x="236.166673" y="70.148216" style="stroke: #000000; stroke-width: 0.5"/>
    </g>
   </g>
   <g id="line2d_28">
    <path d="M 159.504938 86.035879 
L 178.670372 112.546654 
L 185.05885 103.010558 
L 197.835805 96.422569 
L 236.166673 89.871416 
" clip-path="url(#p6e7e0b4530)" style="fill: none; stroke: #d62728; stroke-linecap: square"/>
    <defs>
     <path id="m35cbfa91c2" d="M -0 2 
L 2 -2 
L -2 -2 
z
" style="stroke: #d62728; stroke-width: 0.5; stroke-linejoin: miter"/>
    </defs>
    <g clip-path="url(#p6e7e0b4530)">
     <use xlink:href="#m35cbfa91c2" x="159.504938" y="86.035879" style="fill: #d62728; stroke: #d62728; stroke-width: 0.5; stroke-linejoin: miter"/>
     <use xlink:href="#m35cbfa91c2" x="178.670372" y="112.546654" style="fill: #d62728; stroke: #d62728; stroke-width: 0.5; stroke-linejoin: miter"/>
     <use xlink:href="#m35cbfa91c2" x="185.05885" y="103.010558" style="fill: #d62728; stroke: #d62728; stroke-width: 0.5; stroke-linejoin: miter"/>
     <use xlink:href="#m35cbfa91c2" x="197.835805" y="96.422569" style="fill: #d62728; stroke: #d62728; stroke-width: 0.5; stroke-linejoin: miter"/>
     <use xlink:href="#m35cbfa91c2" x="236.166673" y="89.871416" style="fill: #d62728; stroke: #d62728; stroke-width: 0.5; stroke-linejoin: miter"/>
    </g>
   </g>
   <g id="patch_9">
    <path d="M 155.671851 120.863974 
L 155.671851 3.00024 
" style="fill: none; stroke: #000000; stroke-width: 0.5; stroke-linejoin: miter; stroke-linecap: square"/>
   </g>
   <g id="patch_10">
    <path d="M 239.99976 120.863974 
L 239.99976 3.00024 
" style="fill: none; stroke: #000000; stroke-width: 0.5; stroke-linejoin: miter; stroke-linecap: square"/>
   </g>
   <g id="patch_11">
    <path d="M 155.671851 120.863974 
L 239.99976 120.863974 
" style="fill: none; stroke: #000000; stroke-width: 0.5; stroke-linejoin: miter; stroke-linecap: square"/>
   </g>
   <g id="patch_12">
    <path d="M 155.671851 3.00024 
L 239.99976 3.00024 
" style="fill: none; stroke: #000000; stroke-width: 0.5; stroke-linejoin: miter; stroke-linecap: square"/>
   </g>
   <g id="legend_2">
    <g id="patch_13">
     <path d="M 193.91136 34.38204 
L 235.94676 34.38204 
Q 237.10476 34.38204 237.10476 33.22404 
L 237.10476 7.05324 
Q 237.10476 5.89524 235.94676 5.89524 
L 193.91136 5.89524 
Q 192.75336 5.89524 192.75336 7.05324 
L 192.75336 33.22404 
Q 192.75336 34.38204 193.91136 34.38204 
z
" style="fill: #ffffff; opacity: 0.8; stroke: #cccccc; stroke-linejoin: miter"/>
    </g>
    <g id="LineCollection_4">
     <path d="M 200.85936 13.24854 
L 200.85936 7.45854 
" style="fill: none; stroke: #1f77b4"/>
    </g>
    <g id="line2d_29">
     <path d="M 195.06936 10.35354 
L 206.64936 10.35354 
" style="fill: none; stroke: #1f77b4; stroke-linecap: square"/>
    </g>
    <g id="line2d_30">
     <g>
      <use xlink:href="#mb5d4a533b5" x="200.85936" y="10.35354" style="fill: #1f77b4; stroke: #1f77b4; stroke-width: 0.5; stroke-linejoin: miter"/>
     </g>
    </g>
    <g id="text_24">
     <!-- $V_\mathrm{g}=$10$\,$V -->
     <g transform="translate(211.28136 12.38004) scale(0.0579 -0.0579)">
      <defs>
       <path id="Cmmi10-56" d="M 1409 -72 
L 897 4006 
Q 850 4147 416 4147 
Q 353 4147 353 4231 
Q 366 4300 384 4336 
Q 403 4372 459 4372 
L 2022 4372 
Q 2056 4372 2072 4347 
Q 2088 4322 2088 4288 
Q 2063 4147 2003 4147 
Q 1503 4147 1472 3975 
L 1894 628 
L 3866 3775 
Q 3922 3881 3922 3944 
Q 3922 4056 3820 4101 
Q 3719 4147 3584 4147 
Q 3519 4147 3519 4231 
Q 3531 4281 3540 4309 
Q 3550 4338 3569 4355 
Q 3588 4372 3628 4372 
L 4863 4372 
Q 4922 4372 4922 4288 
Q 4897 4147 4838 4147 
Q 4356 4147 4084 3725 
Q 4072 3713 4063 3713 
L 1703 -72 
Q 1656 -141 1581 -141 
L 1491 -141 
Q 1419 -141 1409 -72 
z
" transform="scale(0.015625)"/>
       <path id="Cmr10-67" d="M 178 -500 
Q 178 -272 343 -101 
Q 509 69 738 141 
Q 609 238 542 384 
Q 475 531 475 697 
Q 475 997 666 1228 
Q 372 1516 372 1888 
Q 372 2088 458 2263 
Q 544 2438 697 2566 
Q 850 2694 1037 2761 
Q 1225 2828 1422 2828 
Q 1803 2828 2106 2606 
Q 2238 2747 2417 2823 
Q 2597 2900 2791 2900 
Q 2928 2900 3015 2801 
Q 3103 2703 3103 2566 
Q 3103 2488 3043 2428 
Q 2984 2369 2906 2369 
Q 2825 2369 2765 2428 
Q 2706 2488 2706 2566 
Q 2706 2684 2784 2731 
Q 2453 2731 2216 2503 
Q 2331 2388 2401 2220 
Q 2472 2053 2472 1888 
Q 2472 1616 2322 1398 
Q 2172 1181 1926 1061 
Q 1681 941 1422 941 
Q 1072 941 781 1131 
Q 691 1006 691 850 
Q 691 681 802 554 
Q 913 428 1081 428 
L 1606 428 
Q 1988 428 2294 359 
Q 2600 291 2808 84 
Q 3016 -122 3016 -500 
Q 3016 -781 2778 -967 
Q 2541 -1153 2211 -1236 
Q 1881 -1319 1600 -1319 
Q 1316 -1319 984 -1236 
Q 653 -1153 415 -967 
Q 178 -781 178 -500 
z
M 538 -500 
Q 538 -716 713 -861 
Q 888 -1006 1134 -1076 
Q 1381 -1147 1600 -1147 
Q 1816 -1147 2062 -1076 
Q 2309 -1006 2482 -861 
Q 2656 -716 2656 -500 
Q 2656 -166 2350 -67 
Q 2044 31 1606 31 
L 1081 31 
Q 934 31 811 -39 
Q 688 -109 613 -236 
Q 538 -363 538 -500 
z
M 1422 1113 
Q 1966 1113 1966 1888 
Q 1966 2222 1850 2439 
Q 1734 2656 1422 2656 
Q 1109 2656 993 2439 
Q 878 2222 878 1888 
Q 878 1675 922 1503 
Q 966 1331 1084 1222 
Q 1203 1113 1422 1113 
z
" transform="scale(0.015625)"/>
       <path id="ArialMT-56" d="M 1803 0 
L 28 4581 
L 684 4581 
L 1875 1253 
Q 2019 853 2116 503 
Q 2222 878 2363 1253 
L 3600 4581 
L 4219 4581 
L 2425 0 
L 1803 0 
z
" transform="scale(0.015625)"/>
      </defs>
      <use xlink:href="#Cmmi10-56" transform="translate(0 0.125)"/>
      <use xlink:href="#Cmr10-67" transform="translate(58.300781 -16.88125) scale(0.7)"/>
      <use xlink:href="#Cmr10-3d" transform="translate(117.236719 0.125)"/>
      <use xlink:href="#ArialMT-31" transform="translate(212.480859 0.125)"/>
      <use xlink:href="#ArialMT-30" transform="translate(268.096094 0.125)"/>
      <use xlink:href="#ArialMT-56" transform="translate(338.343782 0.125)"/>
     </g>
    </g>
    <g id="LineCollection_5">
     <path d="M 200.85936 22.16514 
L 200.85936 16.37514 
" style="fill: none; stroke: #000000"/>
    </g>
    <g id="line2d_31">
     <path d="M 195.06936 19.27014 
L 206.64936 19.27014 
" style="fill: none; stroke: #000000; stroke-linecap: square"/>
    </g>
    <g id="line2d_32">
     <g>
      <use xlink:href="#mae1ff8bee1" x="200.85936" y="19.27014" style="stroke: #000000; stroke-width: 0.5"/>
     </g>
    </g>
    <g id="text_25">
     <!-- $V_\mathrm{g}=$0$\,$V -->
     <g transform="translate(211.28136 21.29664) scale(0.0579 -0.0579)">
      <use xlink:href="#Cmmi10-56" transform="translate(0 0.125)"/>
      <use xlink:href="#Cmr10-67" transform="translate(58.300781 -16.88125) scale(0.7)"/>
      <use xlink:href="#Cmr10-3d" transform="translate(117.236719 0.125)"/>
      <use xlink:href="#ArialMT-30" transform="translate(212.480859 0.125)"/>
      <use xlink:href="#ArialMT-56" transform="translate(282.728548 0.125)"/>
     </g>
    </g>
    <g id="LineCollection_6">
     <path d="M 200.85936 31.08174 
L 200.85936 25.29174 
" style="fill: none; stroke: #d62728"/>
    </g>
    <g id="line2d_33">
     <path d="M 195.06936 28.18674 
L 206.64936 28.18674 
" style="fill: none; stroke: #d62728; stroke-linecap: square"/>
    </g>
    <g id="line2d_34">
     <g>
      <use xlink:href="#m35cbfa91c2" x="200.85936" y="28.18674" style="fill: #d62728; stroke: #d62728; stroke-width: 0.5; stroke-linejoin: miter"/>
     </g>
    </g>
    <g id="text_26">
     <!-- $V_\mathrm{g}&lt;$0$\,$V -->
     <g transform="translate(211.28136 30.21324) scale(0.0579 -0.0579)">
      <defs>
       <path id="Cmmi10-3c" d="M 594 1491 
Q 531 1519 531 1600 
Q 531 1681 616 1722 
L 4269 3444 
Q 4294 3456 4313 3456 
Q 4369 3456 4405 3417 
Q 4441 3378 4441 3328 
Q 4441 3250 4366 3206 
L 959 1600 
L 4384 -19 
Q 4441 -38 4441 -128 
Q 4441 -178 4405 -217 
Q 4369 -256 4313 -256 
Q 4294 -256 4269 -244 
L 594 1491 
z
" transform="scale(0.015625)"/>
      </defs>
      <use xlink:href="#Cmmi10-56" transform="translate(0 0.125)"/>
      <use xlink:href="#Cmr10-67" transform="translate(58.300781 -16.88125) scale(0.7)"/>
      <use xlink:href="#Cmmi10-3c" transform="translate(117.236719 0.125)"/>
      <use xlink:href="#ArialMT-30" transform="translate(212.480859 0.125)"/>
      <use xlink:href="#ArialMT-56" transform="translate(282.728548 0.125)"/>
     </g>
    </g>
   </g>
  </g>
 </g>
 <defs>
  <clipPath id="p3401e966e3">
   <rect x="39.07894" y="3.00024" width="84.327909" height="117.863734"/>
  </clipPath>
  <clipPath id="p6e7e0b4530">
   <rect x="155.671851" y="3.00024" width="84.327909" height="117.863734"/>
  </clipPath>
 </defs>
</svg>
