<?xml version="1.0" encoding="utf-8" standalone="no"?>
<!DOCTYPE svg PUBLIC "-//W3C//DTD SVG 1.1//EN"
  "http://www.w3.org/Graphics/SVG/1.1/DTD/svg11.dtd">
<svg xmlns:xlink="http://www.w3.org/1999/xlink" width="168pt" height="207.65942pt" viewBox="0 0 168 207.65942" xmlns="http://www.w3.org/2000/svg" version="1.1">
 <metadata>
  <rdf:RDF xmlns:dc="http://purl.org/dc/elements/1.1/" xmlns:cc="http://creativecommons.org/ns#" xmlns:rdf="http://www.w3.org/1999/02/22-rdf-syntax-ns#">
   <cc:Work>
    <dc:type rdf:resource="http://purl.org/dc/dcmitype/StillImage"/>
    <dc:date>2024-12-06T17:48:35.807988</dc:date>
    <dc:format>image/svg+xml</dc:format>
    <dc:creator>
     <cc:Agent>
      <dc:title>Matplotlib v3.8.4, https://matplotlib.org/</dc:title>
     </cc:Agent>
    </dc:creator>
   </cc:Work>
  </rdf:RDF>
 </metadata>
 <defs>
  <style type="text/css">*{stroke-linejoin: round; stroke-linecap: butt}</style>
 </defs>
 <g id="figure_1">
  <g id="patch_1">
   <path d="M 0 207.65942 
L 168 207.65942 
L 168 0 
L 0 0 
L 0 207.65942 
z
" style="fill: none"/>
  </g>
  <g id="axes_1">
   <g id="patch_2">
    <path d="M 36.444181 95.670687 
L 164.99976 95.670687 
L 164.99976 18.20072 
L 36.444181 18.20072 
L 36.444181 95.670687 
z
" style="fill: none"/>
   </g>
   <g id="PolyCollection_1">
    <path d="M 42.287616 45.806148 
L 42.287616 45.705526 
L 46.782566 43.807704 
L 51.277517 41.298922 
L 55.772467 38.129302 
L 57.120952 37.078952 
L 58.469437 35.974689 
L 59.817922 34.871813 
L 61.166407 33.783275 
L 62.514893 32.723067 
L 63.863378 31.685762 
L 65.211863 30.546732 
L 66.560348 29.669126 
L 67.908833 29.050855 
L 69.257318 28.588122 
L 70.605803 28.434842 
L 71.954288 28.141503 
L 73.302773 28.504363 
L 74.651258 29.185831 
L 75.999744 30.124857 
L 77.348229 31.221737 
L 78.696714 32.501649 
L 80.045199 33.672054 
L 81.393684 34.912572 
L 82.742169 36.231881 
L 87.237119 39.781583 
L 91.73207 42.745455 
L 96.22702 45.252566 
L 100.72197 47.153679 
L 105.216921 48.645616 
L 109.711871 49.927717 
L 114.206821 50.938589 
L 118.701772 51.778976 
L 123.196722 52.47912 
L 127.691672 53.077583 
L 132.186623 53.597147 
L 141.176523 54.421626 
L 145.671474 54.720188 
L 150.166424 54.972788 
L 154.661374 55.186713 
L 159.156325 55.383053 
L 159.156325 55.396185 
L 159.156325 55.396185 
L 154.661374 55.198563 
L 150.166424 54.985391 
L 145.671474 54.730808 
L 141.176523 54.434484 
L 132.186623 53.604878 
L 127.691672 53.083517 
L 123.196722 52.492219 
L 118.701772 51.785034 
L 114.206821 50.949833 
L 109.711871 49.990791 
L 105.216921 48.721196 
L 100.72197 47.265528 
L 96.22702 45.296046 
L 91.73207 42.846975 
L 87.237119 39.836676 
L 82.742169 36.439733 
L 81.393684 35.267434 
L 80.045199 33.999052 
L 78.696714 32.750959 
L 77.348229 31.537807 
L 75.999744 30.392089 
L 74.651258 29.624005 
L 73.302773 28.967618 
L 71.954288 28.551248 
L 70.605803 28.535989 
L 69.257318 29.130139 
L 67.908833 29.569158 
L 66.560348 30.045205 
L 65.211863 30.748669 
L 63.863378 31.732615 
L 62.514893 32.946676 
L 61.166407 34.026545 
L 59.817922 35.023842 
L 58.469437 36.130076 
L 57.120952 37.264891 
L 55.772467 38.325834 
L 51.277517 41.332778 
L 46.782566 43.865776 
L 42.287616 45.806148 
z
" clip-path="url(#pca988fd6e7)" style="fill: #1f77b4; fill-opacity: 0.5"/>
   </g>
   <g id="PolyCollection_2">
    <path d="M 42.287616 68.695677 
L 42.287616 68.56621 
L 46.782566 70.846477 
L 51.277517 73.918649 
L 55.772467 77.167946 
L 57.120952 78.462279 
L 58.469437 79.766346 
L 59.817922 81.06667 
L 61.166407 82.08768 
L 62.514893 83.1747 
L 63.863378 84.28781 
L 65.211863 84.821798 
L 66.560348 85.296306 
L 67.908833 85.197009 
L 69.257318 84.786026 
L 70.605803 84.585592 
L 71.954288 83.944534 
L 73.302773 82.996712 
L 74.651258 82.087654 
L 75.999744 81.115692 
L 77.348229 79.990983 
L 78.696714 78.84571 
L 80.045199 77.705714 
L 81.393684 76.649213 
L 82.742169 75.598894 
L 87.237119 72.499019 
L 91.73207 69.993274 
L 96.22702 67.939392 
L 100.72197 66.188594 
L 105.216921 64.89321 
L 109.711871 63.719521 
L 114.206821 62.812623 
L 118.701772 62.006566 
L 123.196722 61.319604 
L 127.691672 60.753327 
L 132.186623 60.229848 
L 141.176523 59.390269 
L 145.671474 59.083793 
L 150.166424 58.825948 
L 154.661374 58.605159 
L 159.156325 58.408905 
L 159.156325 58.422951 
L 159.156325 58.422951 
L 154.661374 58.617884 
L 150.166424 58.838584 
L 145.671474 59.09563 
L 141.176523 59.398202 
L 132.186623 60.236325 
L 127.691672 60.760343 
L 123.196722 61.332893 
L 118.701772 62.013577 
L 114.206821 62.826102 
L 109.711871 63.776931 
L 105.216921 64.9382 
L 100.72197 66.29654 
L 96.22702 67.973675 
L 91.73207 70.074244 
L 87.237119 72.532028 
L 82.742169 75.733897 
L 81.393684 76.876769 
L 80.045199 77.945529 
L 78.696714 79.010671 
L 77.348229 80.192572 
L 75.999744 81.334469 
L 74.651258 82.432628 
L 73.302773 83.394887 
L 71.954288 84.324982 
L 70.605803 84.705242 
L 69.257318 85.353951 
L 67.908833 85.718945 
L 66.560348 85.695799 
L 65.211863 85.2029 
L 63.863378 84.326384 
L 62.514893 83.46421 
L 61.166407 82.481501 
L 59.817922 81.298675 
L 58.469437 80.070657 
L 57.120952 78.721302 
L 55.772467 77.51861 
L 51.277517 73.940598 
L 46.782566 70.935465 
L 42.287616 68.695677 
z
" clip-path="url(#pca988fd6e7)" style="fill: #1f77b4; fill-opacity: 0.5"/>
   </g>
   <g id="PolyCollection_3">
    <path d="M 42.287616 47.484331 
L 42.287616 47.475512 
L 44.085596 46.759443 
L 45.883576 45.932417 
L 47.681556 45.008308 
L 49.479537 43.979515 
L 51.277517 42.803632 
L 53.075497 41.411727 
L 54.873477 39.758012 
L 56.671457 37.979526 
L 58.469437 36.141697 
L 60.267417 34.19796 
L 62.065397 31.743902 
L 63.863378 28.103839 
L 65.661358 24.909068 
L 67.459338 22.50889 
L 69.257318 21.972111 
L 71.055298 21.763639 
L 72.853278 22.745505 
L 74.651258 24.60811 
L 76.449239 26.989816 
L 78.247219 29.711768 
L 80.045199 32.606784 
L 81.843179 35.463986 
L 83.641159 37.890702 
L 85.439139 39.8502 
L 87.237119 41.448173 
L 89.035099 42.876893 
L 90.83308 44.136985 
L 92.63106 45.251216 
L 94.42904 46.2588 
L 96.22702 47.093777 
L 98.025 47.834958 
L 99.82298 48.492408 
L 101.62096 49.072231 
L 103.418941 49.631033 
L 105.216921 50.14914 
L 109.711871 51.21894 
L 114.206821 51.954733 
L 118.701772 52.595465 
L 123.196722 53.157187 
L 127.691672 53.519421 
L 132.186623 53.906605 
L 136.681573 54.217421 
L 141.176523 54.471974 
L 145.671474 54.74078 
L 150.166424 54.94825 
L 150.166424 54.96244 
L 150.166424 54.96244 
L 145.671474 54.774473 
L 141.176523 54.520956 
L 136.681573 54.256818 
L 132.186623 53.91587 
L 127.691672 53.557473 
L 123.196722 53.173126 
L 118.701772 52.599118 
L 114.206821 51.960378 
L 109.711871 51.225569 
L 105.216921 50.157148 
L 103.418941 49.641534 
L 101.62096 49.083834 
L 99.82298 48.501721 
L 98.025 47.845582 
L 96.22702 47.103546 
L 94.42904 46.271355 
L 92.63106 45.266213 
L 90.83308 44.154364 
L 89.035099 42.889988 
L 87.237119 41.464742 
L 85.439139 39.871667 
L 83.641159 37.91038 
L 81.843179 35.488903 
L 80.045199 32.640799 
L 78.247219 29.742031 
L 76.449239 27.044909 
L 74.651258 24.630924 
L 72.853278 22.762111 
L 71.055298 21.790739 
L 69.257318 21.997667 
L 67.459338 22.527898 
L 65.661358 24.950463 
L 63.863378 28.12509 
L 62.065397 31.755919 
L 60.267417 34.217659 
L 58.469437 36.157013 
L 56.671457 37.99391 
L 54.873477 39.770259 
L 53.075497 41.430353 
L 51.277517 42.818758 
L 49.479537 43.996024 
L 47.681556 45.033284 
L 45.883576 45.942024 
L 44.085596 46.768311 
L 42.287616 47.484331 
z
" clip-path="url(#pca988fd6e7)" style="fill-opacity: 0.5"/>
   </g>
   <g id="PolyCollection_4">
    <path d="M 42.287616 66.716651 
L 42.287616 66.703473 
L 44.085596 67.50923 
L 45.883576 68.477033 
L 47.681556 69.569771 
L 49.479537 70.79585 
L 51.277517 72.1865 
L 53.075497 73.785395 
L 54.873477 75.667514 
L 56.671457 78.026316 
L 58.469437 80.861837 
L 60.267417 83.694285 
L 62.065397 86.469522 
L 63.863378 88.860295 
L 65.661358 90.696907 
L 67.459338 92.129797 
L 69.257318 91.784986 
L 71.055298 91.072845 
L 72.853278 89.159497 
L 74.651258 86.026661 
L 76.449239 82.353766 
L 78.247219 79.820204 
L 80.045199 77.832356 
L 81.843179 75.992452 
L 83.641159 74.190266 
L 85.439139 72.468517 
L 87.237119 71.088799 
L 89.035099 69.878361 
L 90.83308 68.81353 
L 92.63106 67.893574 
L 94.42904 67.045481 
L 96.22702 66.317389 
L 98.025 65.653359 
L 99.82298 65.067342 
L 101.62096 64.542518 
L 103.418941 64.039355 
L 105.216921 63.570115 
L 109.711871 62.575551 
L 114.206821 61.866425 
L 118.701772 61.242003 
L 123.196722 60.675703 
L 127.691672 60.291081 
L 132.186623 59.927169 
L 136.681573 59.574232 
L 141.176523 59.309714 
L 145.671474 59.051795 
L 150.166424 58.866653 
L 150.166424 58.877806 
L 150.166424 58.877806 
L 145.671474 59.084592 
L 141.176523 59.357821 
L 136.681573 59.609493 
L 132.186623 59.937346 
L 127.691672 60.329896 
L 123.196722 60.689658 
L 118.701772 61.247521 
L 114.206821 61.872659 
L 109.711871 62.581856 
L 105.216921 63.5827 
L 103.418941 64.046322 
L 101.62096 64.556142 
L 99.82298 65.076561 
L 98.025 65.664372 
L 96.22702 66.325764 
L 94.42904 67.055988 
L 92.63106 67.904148 
L 90.83308 68.831653 
L 89.035099 69.888814 
L 87.237119 71.10011 
L 85.439139 72.481586 
L 83.641159 74.198932 
L 81.843179 76.004775 
L 80.045199 77.846987 
L 78.247219 79.837372 
L 76.449239 82.376018 
L 74.651258 86.048096 
L 72.853278 89.209117 
L 71.055298 91.093466 
L 69.257318 91.815942 
L 67.459338 92.149325 
L 65.661358 90.740753 
L 63.863378 88.881169 
L 62.065397 86.504532 
L 60.267417 83.772929 
L 58.469437 80.885328 
L 56.671457 78.053296 
L 54.873477 75.687788 
L 53.075497 73.81558 
L 51.277517 72.207708 
L 49.479537 70.816177 
L 47.681556 69.605785 
L 45.883576 68.491422 
L 44.085596 67.521132 
L 42.287616 66.716651 
z
" clip-path="url(#pca988fd6e7)" style="fill-opacity: 0.5"/>
   </g>
   <g id="PolyCollection_5">
    <path d="M 42.287616 49.892296 
L 42.287616 49.886376 
L 46.782566 47.945044 
L 51.277517 45.351964 
L 55.772467 41.355138 
L 57.120952 39.972688 
L 58.469437 38.545771 
L 59.817922 37.030888 
L 61.166407 35.173542 
L 62.514893 31.764267 
L 63.863378 28.691264 
L 65.211863 25.926429 
L 66.560348 24.300734 
L 67.908833 23.591884 
L 69.257318 23.485104 
L 70.605803 23.594393 
L 71.954288 24.229882 
L 73.302773 25.471182 
L 74.651258 27.086287 
L 75.999744 28.974093 
L 77.348229 31.051892 
L 78.696714 33.249996 
L 80.045199 35.425791 
L 81.393684 37.609234 
L 82.742169 39.585899 
L 87.237119 44.283675 
L 91.73207 47.318993 
L 96.22702 49.536567 
L 100.72197 51.093301 
L 105.216921 52.326898 
L 109.711871 53.383333 
L 114.206821 54.046632 
L 118.701772 54.556027 
L 123.196722 54.978442 
L 127.691672 55.222279 
L 132.186623 55.470178 
L 132.186623 55.478088 
L 132.186623 55.478088 
L 127.691672 55.235732 
L 123.196722 54.988981 
L 118.701772 54.565227 
L 114.206821 54.052242 
L 109.711871 53.390158 
L 105.216921 52.329948 
L 100.72197 51.098338 
L 96.22702 49.540186 
L 91.73207 47.325931 
L 87.237119 44.29449 
L 82.742169 39.60426 
L 81.393684 37.626593 
L 80.045199 35.491752 
L 78.696714 33.290539 
L 77.348229 31.114109 
L 75.999744 29.000283 
L 74.651258 27.132398 
L 73.302773 25.514088 
L 71.954288 24.305455 
L 70.605803 23.693461 
L 69.257318 23.514459 
L 67.908833 23.628379 
L 66.560348 24.378438 
L 65.211863 26.019426 
L 63.863378 28.726235 
L 62.514893 31.799703 
L 61.166407 35.228142 
L 59.817922 37.07264 
L 58.469437 38.556883 
L 57.120952 39.985481 
L 55.772467 41.368067 
L 51.277517 45.36007 
L 46.782566 47.954838 
L 42.287616 49.892296 
z
" clip-path="url(#pca988fd6e7)" style="fill: #d62728; fill-opacity: 0.5"/>
   </g>
   <g id="PolyCollection_6">
    <path d="M 42.287616 64.177257 
L 42.287616 64.171461 
L 46.782566 66.382667 
L 51.277517 69.385199 
L 55.772467 73.993824 
L 57.120952 75.950698 
L 58.469437 78.115561 
L 59.817922 80.240098 
L 61.166407 82.515235 
L 62.514893 84.876694 
L 63.863378 86.436504 
L 65.211863 88.076288 
L 66.560348 89.336628 
L 67.908833 90.137868 
L 69.257318 90.353523 
L 70.605803 90.203419 
L 71.954288 89.679619 
L 73.302773 88.209948 
L 74.651258 85.55066 
L 75.999744 81.854252 
L 77.348229 78.857943 
L 78.696714 76.960082 
L 80.045199 75.407792 
L 81.393684 73.974845 
L 82.742169 72.59555 
L 87.237119 68.552271 
L 91.73207 65.950797 
L 96.22702 64.019066 
L 100.72197 62.589279 
L 105.216921 61.425913 
L 109.711871 60.402595 
L 114.206821 59.746221 
L 118.701772 59.237422 
L 123.196722 58.812998 
L 127.691672 58.565338 
L 132.186623 58.309664 
L 132.186623 58.318733 
L 132.186623 58.318733 
L 127.691672 58.579201 
L 123.196722 58.825726 
L 118.701772 59.245188 
L 114.206821 59.754303 
L 109.711871 60.410556 
L 105.216921 61.428993 
L 100.72197 62.593406 
L 96.22702 64.024218 
L 91.73207 65.961543 
L 87.237119 68.566783 
L 82.742169 72.611927 
L 81.393684 74.007007 
L 80.045199 75.461 
L 78.696714 76.980505 
L 77.348229 78.905376 
L 75.999744 81.884661 
L 74.651258 85.602399 
L 73.302773 88.250798 
L 71.954288 89.77969 
L 70.605803 90.33291 
L 69.257318 90.377004 
L 67.908833 90.164072 
L 66.560348 89.420937 
L 65.211863 88.138367 
L 63.863378 86.481434 
L 62.514893 84.925572 
L 61.166407 82.597612 
L 59.817922 80.350752 
L 58.469437 78.13846 
L 57.120952 75.970667 
L 55.772467 74.007385 
L 51.277517 69.393847 
L 46.782566 66.394252 
L 42.287616 64.177257 
z
" clip-path="url(#pca988fd6e7)" style="fill: #d62728; fill-opacity: 0.5"/>
   </g>
   <g id="matplotlib.axis_1">
    <g id="xtick_1">
     <g id="line2d_1">
      <defs>
       <path id="m0f51a610f8" d="M 0 0 
L 0 -2 
" style="stroke: #000000; stroke-width: 0.5"/>
      </defs>
      <g>
       <use xlink:href="#m0f51a610f8" x="69.257318" y="95.670687" style="stroke: #000000; stroke-width: 0.5"/>
      </g>
     </g>
     <g id="line2d_2">
      <defs>
       <path id="m76112c420e" d="M 0 0 
L 0 2 
" style="stroke: #000000; stroke-width: 0.5"/>
      </defs>
      <g>
       <use xlink:href="#m76112c420e" x="69.257318" y="18.20072" style="stroke: #000000; stroke-width: 0.5"/>
      </g>
     </g>
    </g>
    <g id="xtick_2">
     <g id="line2d_3">
      <g>
       <use xlink:href="#m0f51a610f8" x="114.206821" y="95.670687" style="stroke: #000000; stroke-width: 0.5"/>
      </g>
     </g>
     <g id="line2d_4">
      <g>
       <use xlink:href="#m76112c420e" x="114.206821" y="18.20072" style="stroke: #000000; stroke-width: 0.5"/>
      </g>
     </g>
    </g>
    <g id="xtick_3">
     <g id="line2d_5">
      <g>
       <use xlink:href="#m0f51a610f8" x="159.156325" y="95.670687" style="stroke: #000000; stroke-width: 0.5"/>
      </g>
     </g>
     <g id="line2d_6">
      <g>
       <use xlink:href="#m76112c420e" x="159.156325" y="18.20072" style="stroke: #000000; stroke-width: 0.5"/>
      </g>
     </g>
    </g>
   </g>
   <g id="matplotlib.axis_2">
    <g id="ytick_1">
     <g id="line2d_7">
      <defs>
       <path id="m2df176ff0e" d="M 0 0 
L 2 0 
" style="stroke: #000000; stroke-width: 0.5"/>
      </defs>
      <g>
       <use xlink:href="#m2df176ff0e" x="36.444181" y="77.140905" style="stroke: #000000; stroke-width: 0.5"/>
      </g>
     </g>
     <g id="line2d_8">
      <defs>
       <path id="md977b6efad" d="M 0 0 
L -2 0 
" style="stroke: #000000; stroke-width: 0.5"/>
      </defs>
      <g>
       <use xlink:href="#md977b6efad" x="164.99976" y="77.140905" style="stroke: #000000; stroke-width: 0.5"/>
      </g>
     </g>
     <g id="text_1">
      <!-- −2.5 -->
      <g transform="translate(16.50024 80.122134) scale(0.0833 -0.0833)">
       <defs>
        <path id="ArialMT-2212" d="M 3381 1997 
L 356 1997 
L 356 2522 
L 3381 2522 
L 3381 1997 
z
" transform="scale(0.015625)"/>
        <path id="ArialMT-32" d="M 3222 541 
L 3222 0 
L 194 0 
Q 188 203 259 391 
Q 375 700 629 1000 
Q 884 1300 1366 1694 
Q 2113 2306 2375 2664 
Q 2638 3022 2638 3341 
Q 2638 3675 2398 3904 
Q 2159 4134 1775 4134 
Q 1369 4134 1125 3890 
Q 881 3647 878 3216 
L 300 3275 
Q 359 3922 746 4261 
Q 1134 4600 1788 4600 
Q 2447 4600 2831 4234 
Q 3216 3869 3216 3328 
Q 3216 3053 3103 2787 
Q 2991 2522 2730 2228 
Q 2469 1934 1863 1422 
Q 1356 997 1212 845 
Q 1069 694 975 541 
L 3222 541 
z
" transform="scale(0.015625)"/>
        <path id="ArialMT-2e" d="M 581 0 
L 581 641 
L 1222 641 
L 1222 0 
L 581 0 
z
" transform="scale(0.015625)"/>
        <path id="ArialMT-35" d="M 266 1200 
L 856 1250 
Q 922 819 1161 601 
Q 1400 384 1738 384 
Q 2144 384 2425 690 
Q 2706 997 2706 1503 
Q 2706 1984 2436 2262 
Q 2166 2541 1728 2541 
Q 1456 2541 1237 2417 
Q 1019 2294 894 2097 
L 366 2166 
L 809 4519 
L 3088 4519 
L 3088 3981 
L 1259 3981 
L 1013 2750 
Q 1425 3038 1878 3038 
Q 2478 3038 2890 2622 
Q 3303 2206 3303 1553 
Q 3303 931 2941 478 
Q 2500 -78 1738 -78 
Q 1113 -78 717 272 
Q 322 622 266 1200 
z
" transform="scale(0.015625)"/>
       </defs>
       <use xlink:href="#ArialMT-2212"/>
       <use xlink:href="#ArialMT-32" x="58.398438"/>
       <use xlink:href="#ArialMT-2e" x="114.013672"/>
       <use xlink:href="#ArialMT-35" x="141.796875"/>
      </g>
     </g>
    </g>
    <g id="ytick_2">
     <g id="line2d_9">
      <g>
       <use xlink:href="#m2df176ff0e" x="36.444181" y="56.903268" style="stroke: #000000; stroke-width: 0.5"/>
      </g>
     </g>
     <g id="line2d_10">
      <g>
       <use xlink:href="#md977b6efad" x="164.99976" y="56.903268" style="stroke: #000000; stroke-width: 0.5"/>
      </g>
     </g>
     <g id="text_2">
      <!-- 0.0 -->
      <g transform="translate(21.365481 59.884497) scale(0.0833 -0.0833)">
       <defs>
        <path id="ArialMT-30" d="M 266 2259 
Q 266 3072 433 3567 
Q 600 4063 929 4331 
Q 1259 4600 1759 4600 
Q 2128 4600 2406 4451 
Q 2684 4303 2865 4023 
Q 3047 3744 3150 3342 
Q 3253 2941 3253 2259 
Q 3253 1453 3087 958 
Q 2922 463 2592 192 
Q 2263 -78 1759 -78 
Q 1097 -78 719 397 
Q 266 969 266 2259 
z
M 844 2259 
Q 844 1131 1108 757 
Q 1372 384 1759 384 
Q 2147 384 2411 759 
Q 2675 1134 2675 2259 
Q 2675 3391 2411 3762 
Q 2147 4134 1753 4134 
Q 1366 4134 1134 3806 
Q 844 3388 844 2259 
z
" transform="scale(0.015625)"/>
       </defs>
       <use xlink:href="#ArialMT-30"/>
       <use xlink:href="#ArialMT-2e" x="55.615234"/>
       <use xlink:href="#ArialMT-30" x="83.398438"/>
      </g>
     </g>
    </g>
    <g id="ytick_3">
     <g id="line2d_11">
      <g>
       <use xlink:href="#m2df176ff0e" x="36.444181" y="36.665631" style="stroke: #000000; stroke-width: 0.5"/>
      </g>
     </g>
     <g id="line2d_12">
      <g>
       <use xlink:href="#md977b6efad" x="164.99976" y="36.665631" style="stroke: #000000; stroke-width: 0.5"/>
      </g>
     </g>
     <g id="text_3">
      <!-- 2.5 -->
      <g transform="translate(21.365481 39.64686) scale(0.0833 -0.0833)">
       <use xlink:href="#ArialMT-32"/>
       <use xlink:href="#ArialMT-2e" x="55.615234"/>
       <use xlink:href="#ArialMT-35" x="83.398438"/>
      </g>
     </g>
    </g>
    <g id="text_4">
     <!-- $I_\mathrm{c}$ (μA) -->
     <g transform="translate(10.30024 71.985704) rotate(-90) scale(0.1 -0.1)">
      <defs>
       <path id="Cmmi10-49" d="M 269 0 
Q 206 0 206 84 
Q 231 225 288 225 
Q 666 225 800 250 
Q 947 284 984 441 
L 1863 3956 
Q 1875 4019 1875 4038 
Q 1875 4078 1854 4095 
Q 1834 4113 1791 4122 
Q 1663 4147 1306 4147 
Q 1241 4147 1241 4231 
Q 1263 4313 1275 4342 
Q 1288 4372 1350 4372 
L 3138 4372 
Q 3200 4372 3200 4288 
Q 3197 4272 3187 4234 
Q 3178 4197 3162 4172 
Q 3147 4147 3116 4147 
Q 2741 4147 2597 4122 
Q 2456 4088 2419 3928 
L 1544 416 
Q 1528 338 1528 331 
Q 1528 316 1533 302 
Q 1538 288 1552 277 
Q 1566 266 1580 261 
Q 1594 256 1613 250 
Q 1734 225 2100 225 
Q 2163 225 2163 141 
Q 2141 50 2128 25 
Q 2116 0 2053 0 
L 269 0 
z
" transform="scale(0.015625)"/>
       <path id="Cmr10-63" d="M 1594 -72 
Q 1206 -72 890 129 
Q 575 331 394 667 
Q 213 1003 213 1381 
Q 213 1759 392 2106 
Q 572 2453 889 2661 
Q 1206 2869 1594 2869 
Q 1969 2869 2276 2722 
Q 2584 2575 2584 2241 
Q 2584 2116 2495 2023 
Q 2406 1931 2278 1931 
Q 2150 1931 2061 2023 
Q 1972 2116 1972 2241 
Q 1972 2353 2044 2436 
Q 2116 2519 2222 2541 
Q 2000 2681 1600 2681 
Q 1294 2681 1106 2478 
Q 919 2275 844 1975 
Q 769 1675 769 1381 
Q 769 1072 861 783 
Q 953 494 1158 305 
Q 1363 116 1672 116 
Q 1975 116 2187 302 
Q 2400 488 2478 788 
Q 2478 825 2528 825 
L 2606 825 
Q 2625 825 2640 808 
Q 2656 791 2656 769 
L 2656 750 
Q 2559 372 2271 150 
Q 1984 -72 1594 -72 
z
" transform="scale(0.015625)"/>
       <path id="ArialMT-20" transform="scale(0.015625)"/>
       <path id="ArialMT-28" d="M 1497 -1347 
Q 1031 -759 709 28 
Q 388 816 388 1659 
Q 388 2403 628 3084 
Q 909 3875 1497 4659 
L 1900 4659 
Q 1522 4009 1400 3731 
Q 1209 3300 1100 2831 
Q 966 2247 966 1656 
Q 966 153 1900 -1347 
L 1497 -1347 
z
" transform="scale(0.015625)"/>
       <path id="ArialMT-3bc" d="M 3181 3319 
L 3181 0 
L 2678 0 
L 2678 394 
Q 2516 144 2356 50 
Q 2138 -78 1847 -78 
Q 1588 -78 1388 25 
Q 1238 103 1056 334 
L 1056 -1272 
L 500 -1272 
L 500 3319 
L 1056 3319 
L 1056 1913 
Q 1056 1147 1137 920 
Q 1219 694 1401 562 
Q 1584 431 1822 431 
Q 2072 431 2269 568 
Q 2466 706 2547 923 
Q 2628 1141 2628 1903 
L 2628 3319 
L 3181 3319 
z
" transform="scale(0.015625)"/>
       <path id="ArialMT-41" d="M -9 0 
L 1750 4581 
L 2403 4581 
L 4278 0 
L 3588 0 
L 3053 1388 
L 1138 1388 
L 634 0 
L -9 0 
z
M 1313 1881 
L 2866 1881 
L 2388 3150 
Q 2169 3728 2063 4100 
Q 1975 3659 1816 3225 
L 1313 1881 
z
" transform="scale(0.015625)"/>
       <path id="ArialMT-29" d="M 791 -1347 
L 388 -1347 
Q 1322 153 1322 1656 
Q 1322 2244 1188 2822 
Q 1081 3291 891 3722 
Q 769 4003 388 4659 
L 791 4659 
Q 1378 3875 1659 3084 
Q 1900 2403 1900 1659 
Q 1900 816 1576 28 
Q 1253 -759 791 -1347 
z
" transform="scale(0.015625)"/>
      </defs>
      <use xlink:href="#Cmmi10-49" transform="translate(0 0.203125)"/>
      <use xlink:href="#Cmr10-63" transform="translate(43.896484 -16.803125) scale(0.7)"/>
      <use xlink:href="#ArialMT-20" transform="translate(81.343164 0.203125)"/>
      <use xlink:href="#ArialMT-28" transform="translate(109.126367 0.203125)"/>
      <use xlink:href="#ArialMT-3bc" transform="translate(142.427148 0.203125)"/>
      <use xlink:href="#ArialMT-41" transform="translate(200.044336 0.203125)"/>
      <use xlink:href="#ArialMT-29" transform="translate(266.743555 0.203125)"/>
     </g>
    </g>
   </g>
   <g id="line2d_13">
    <path d="M 36.444181 56.903268 
L 164.99976 56.903268 
" clip-path="url(#pca988fd6e7)" style="fill: none; stroke: #d3d3d3; stroke-width: 0.5; stroke-linecap: square"/>
   </g>
   <g id="line2d_14">
    <path d="M 69.257318 95.670687 
L 69.257318 18.20072 
" clip-path="url(#pca988fd6e7)" style="fill: none; stroke: #d3d3d3; stroke-width: 0.5; stroke-linecap: square"/>
   </g>
   <g id="patch_3">
    <path d="M 36.444181 95.670687 
L 36.444181 18.20072 
" style="fill: none; stroke: #000000; stroke-width: 0.5; stroke-linejoin: miter; stroke-linecap: square"/>
   </g>
   <g id="patch_4">
    <path d="M 164.99976 95.670687 
L 164.99976 18.20072 
" style="fill: none; stroke: #000000; stroke-width: 0.5; stroke-linejoin: miter; stroke-linecap: square"/>
   </g>
   <g id="patch_5">
    <path d="M 36.444181 95.670687 
L 164.99976 95.670687 
" style="fill: none; stroke: #000000; stroke-width: 0.5; stroke-linejoin: miter; stroke-linecap: square"/>
   </g>
   <g id="patch_6">
    <path d="M 36.444181 18.20072 
L 164.99976 18.20072 
" style="fill: none; stroke: #000000; stroke-width: 0.5; stroke-linejoin: miter; stroke-linecap: square"/>
   </g>
   <g id="line2d_15">
    <path d="M 42.287616 45.755837 
L 46.782566 43.83674 
L 51.277517 41.31585 
L 55.772467 38.227568 
L 57.120952 37.171921 
L 58.469437 36.052383 
L 59.817922 34.947828 
L 61.166407 33.90491 
L 62.514893 32.834872 
L 63.863378 31.709189 
L 65.211863 30.6477 
L 66.560348 29.857165 
L 67.908833 29.310006 
L 69.257318 28.859131 
L 70.605803 28.485415 
L 71.954288 28.346375 
L 73.302773 28.73599 
L 74.651258 29.404918 
L 75.999744 30.258473 
L 77.348229 31.379772 
L 78.696714 32.626304 
L 80.045199 33.835553 
L 81.393684 35.090003 
L 82.742169 36.335807 
L 87.237119 39.80913 
L 91.73207 42.796215 
L 96.22702 45.274306 
L 100.72197 47.209604 
L 105.216921 48.683406 
L 109.711871 49.959254 
L 114.206821 50.944211 
L 118.701772 51.782005 
L 123.196722 52.485669 
L 127.691672 53.08055 
L 132.186623 53.601013 
L 141.176523 54.428055 
L 145.671474 54.725498 
L 150.166424 54.97909 
L 154.661374 55.192638 
L 159.156325 55.389619 
" clip-path="url(#pca988fd6e7)" style="fill: none; stroke: #1f77b4; stroke-linecap: square"/>
   </g>
   <g id="line2d_16">
    <path d="M 42.287616 68.630944 
L 46.782566 70.890971 
L 51.277517 73.929624 
L 55.772467 77.343278 
L 57.120952 78.591791 
L 58.469437 79.918502 
L 59.817922 81.182673 
L 61.166407 82.284591 
L 62.514893 83.319455 
L 63.863378 84.307097 
L 65.211863 85.012349 
L 66.560348 85.496052 
L 67.908833 85.457977 
L 69.257318 85.069989 
L 70.605803 84.645417 
L 71.954288 84.134758 
L 73.302773 83.1958 
L 74.651258 82.260141 
L 75.999744 81.225081 
L 77.348229 80.091778 
L 78.696714 78.928191 
L 80.045199 77.825622 
L 81.393684 76.762991 
L 82.742169 75.666396 
L 87.237119 72.515524 
L 91.73207 70.033759 
L 96.22702 67.956533 
L 100.72197 66.242567 
L 105.216921 64.915705 
L 109.711871 63.748226 
L 114.206821 62.819363 
L 118.701772 62.010072 
L 123.196722 61.326249 
L 127.691672 60.756835 
L 132.186623 60.233086 
L 141.176523 59.394236 
L 145.671474 59.089711 
L 150.166424 58.832266 
L 154.661374 58.611521 
L 159.156325 58.415928 
" clip-path="url(#pca988fd6e7)" style="fill: none; stroke: #1f77b4; stroke-linecap: square"/>
   </g>
   <g id="line2d_17">
    <path d="M 42.287616 47.479922 
L 44.085596 46.763877 
L 45.883576 45.937221 
L 47.681556 45.020796 
L 49.479537 43.98777 
L 51.277517 42.811195 
L 53.075497 41.42104 
L 54.873477 39.764136 
L 56.671457 37.986718 
L 58.469437 36.149355 
L 60.267417 34.207809 
L 62.065397 31.74991 
L 63.863378 28.114465 
L 65.661358 24.929765 
L 67.459338 22.518394 
L 69.257318 21.984889 
L 71.055298 21.777189 
L 72.853278 22.753808 
L 74.651258 24.619517 
L 76.449239 27.017363 
L 78.247219 29.7269 
L 80.045199 32.623792 
L 81.843179 35.476444 
L 83.641159 37.900541 
L 85.439139 39.860934 
L 87.237119 41.456457 
L 89.035099 42.88344 
L 90.83308 44.145675 
L 92.63106 45.258714 
L 94.42904 46.265078 
L 96.22702 47.098662 
L 98.025 47.84027 
L 99.82298 48.497064 
L 101.62096 49.078032 
L 103.418941 49.636283 
L 105.216921 50.153144 
L 109.711871 51.222254 
L 114.206821 51.957555 
L 118.701772 52.597291 
L 123.196722 53.165157 
L 127.691672 53.538447 
L 132.186623 53.911238 
L 136.681573 54.237119 
L 141.176523 54.496465 
L 145.671474 54.757627 
L 150.166424 54.955345 
" clip-path="url(#pca988fd6e7)" style="fill: none; stroke: #000000; stroke-linecap: square"/>
   </g>
   <g id="line2d_18">
    <path d="M 42.287616 66.710062 
L 44.085596 67.515181 
L 45.883576 68.484227 
L 47.681556 69.587778 
L 49.479537 70.806013 
L 51.277517 72.197104 
L 53.075497 73.800487 
L 54.873477 75.677651 
L 56.671457 78.039806 
L 58.469437 80.873582 
L 60.267417 83.733607 
L 62.065397 86.487027 
L 63.863378 88.870732 
L 65.661358 90.71883 
L 67.459338 92.139561 
L 69.257318 91.800464 
L 71.055298 91.083155 
L 72.853278 89.184307 
L 74.651258 86.037379 
L 76.449239 82.364892 
L 78.247219 79.828788 
L 80.045199 77.839671 
L 81.843179 75.998614 
L 83.641159 74.194599 
L 85.439139 72.475052 
L 87.237119 71.094454 
L 89.035099 69.883587 
L 90.83308 68.822592 
L 92.63106 67.898861 
L 94.42904 67.050735 
L 96.22702 66.321577 
L 98.025 65.658866 
L 99.82298 65.071951 
L 101.62096 64.54933 
L 103.418941 64.042838 
L 105.216921 63.576408 
L 109.711871 62.578703 
L 114.206821 61.869542 
L 118.701772 61.244762 
L 123.196722 60.68268 
L 127.691672 60.310489 
L 132.186623 59.932257 
L 136.681573 59.591862 
L 141.176523 59.333767 
L 145.671474 59.068194 
L 150.166424 58.872229 
" clip-path="url(#pca988fd6e7)" style="fill: none; stroke: #000000; stroke-linecap: square"/>
   </g>
   <g id="line2d_19">
    <path d="M 42.287616 49.889336 
L 46.782566 47.949941 
L 51.277517 45.356017 
L 55.772467 41.361603 
L 57.120952 39.979085 
L 58.469437 38.551327 
L 59.817922 37.051764 
L 61.166407 35.200842 
L 62.514893 31.781985 
L 63.863378 28.708749 
L 65.211863 25.972927 
L 66.560348 24.339586 
L 67.908833 23.610132 
L 69.257318 23.499782 
L 70.605803 23.643927 
L 71.954288 24.267669 
L 73.302773 25.492635 
L 74.651258 27.109342 
L 75.999744 28.987188 
L 77.348229 31.083001 
L 78.696714 33.270267 
L 80.045199 35.458772 
L 81.393684 37.617913 
L 82.742169 39.59508 
L 87.237119 44.289082 
L 91.73207 47.322462 
L 96.22702 49.538376 
L 100.72197 51.095819 
L 105.216921 52.328423 
L 109.711871 53.386745 
L 114.206821 54.049437 
L 118.701772 54.560627 
L 123.196722 54.983712 
L 127.691672 55.229006 
L 132.186623 55.474133 
" clip-path="url(#pca988fd6e7)" style="fill: none; stroke: #d62728; stroke-linecap: square"/>
   </g>
   <g id="line2d_20">
    <path d="M 42.287616 64.174359 
L 46.782566 66.388459 
L 51.277517 69.389523 
L 55.772467 74.000604 
L 57.120952 75.960682 
L 58.469437 78.12701 
L 59.817922 80.295425 
L 61.166407 82.556424 
L 62.514893 84.901133 
L 63.863378 86.458969 
L 65.211863 88.107328 
L 66.560348 89.378783 
L 67.908833 90.15097 
L 69.257318 90.365263 
L 70.605803 90.268165 
L 71.954288 89.729655 
L 73.302773 88.230373 
L 74.651258 85.576529 
L 75.999744 81.869456 
L 77.348229 78.88166 
L 78.696714 76.970294 
L 80.045199 75.434396 
L 81.393684 73.990926 
L 82.742169 72.603739 
L 87.237119 68.559527 
L 91.73207 65.95617 
L 96.22702 64.021642 
L 100.72197 62.591343 
L 105.216921 61.427453 
L 109.711871 60.406576 
L 114.206821 59.750262 
L 118.701772 59.241305 
L 123.196722 58.819362 
L 127.691672 58.572269 
L 132.186623 58.314199 
" clip-path="url(#pca988fd6e7)" style="fill: none; stroke: #d62728; stroke-linecap: square"/>
   </g>
   <g id="line2d_21">
    <path d="M 66.716468 85.478107 
L 71.798168 28.32843 
" clip-path="url(#pca988fd6e7)" style="fill: none"/>
    <defs>
     <path id="m8e346ceaf3" d="M 0 -1 
L -1 1 
L 1 1 
z
" style="stroke: #1f77b4; stroke-width: 0.5; stroke-linejoin: miter"/>
    </defs>
    <g clip-path="url(#pca988fd6e7)">
     <use xlink:href="#m8e346ceaf3" x="66.716468" y="85.478107" style="fill: #1f77b4; stroke: #1f77b4; stroke-width: 0.5; stroke-linejoin: miter"/>
     <use xlink:href="#m8e346ceaf3" x="71.798168" y="28.32843" style="fill: #1f77b4; stroke: #1f77b4; stroke-width: 0.5; stroke-linejoin: miter"/>
    </g>
   </g>
   <g id="line2d_22">
    <path d="M 68.481139 92.084454 
L 70.033497 21.722082 
" clip-path="url(#pca988fd6e7)" style="fill: none"/>
    <defs>
     <path id="m295e53c376" d="M 0 1 
C 0.265203 1 0.51958 0.894634 0.707107 0.707107 
C 0.894634 0.51958 1 0.265203 1 0 
C 1 -0.265203 0.894634 -0.51958 0.707107 -0.707107 
C 0.51958 -0.894634 0.265203 -1 0 -1 
C -0.265203 -1 -0.51958 -0.894634 -0.707107 -0.707107 
C -0.894634 -0.51958 -1 -0.265203 -1 0 
C -1 0.265203 -0.894634 0.51958 -0.707107 0.707107 
C -0.51958 0.894634 -0.265203 1 0 1 
z
" style="stroke: #000000; stroke-width: 0.5"/>
    </defs>
    <g clip-path="url(#pca988fd6e7)">
     <use xlink:href="#m295e53c376" x="68.481139" y="92.084454" style="stroke: #000000; stroke-width: 0.5"/>
     <use xlink:href="#m295e53c376" x="70.033497" y="21.722082" style="stroke: #000000; stroke-width: 0.5"/>
    </g>
   </g>
   <g id="line2d_23">
    <path d="M 69.778306 90.336009 
L 68.73633 23.470527 
" clip-path="url(#pca988fd6e7)" style="fill: none"/>
    <defs>
     <path id="m0fbf59ae35" d="M -0 1 
L 1 -1 
L -1 -1 
z
" style="stroke: #d62728; stroke-width: 0.5; stroke-linejoin: miter"/>
    </defs>
    <g clip-path="url(#pca988fd6e7)">
     <use xlink:href="#m0fbf59ae35" x="69.778306" y="90.336009" style="fill: #d62728; stroke: #d62728; stroke-width: 0.5; stroke-linejoin: miter"/>
     <use xlink:href="#m0fbf59ae35" x="68.73633" y="23.470527" style="fill: #d62728; stroke: #d62728; stroke-width: 0.5; stroke-linejoin: miter"/>
    </g>
   </g>
  </g>
  <g id="axes_2">
   <g id="patch_7">
    <path d="M 36.444181 179.141135 
L 164.99976 179.141135 
L 164.99976 101.671167 
L 36.444181 101.671167 
L 36.444181 179.141135 
z
" style="fill: none"/>
   </g>
   <g id="PolyCollection_7">
    <path d="M 42.287616 152.283962 
L 42.287616 149.341138 
L 46.782566 153.569896 
L 51.277517 158.25565 
L 55.772467 156.80275 
L 57.120952 158.213556 
L 58.469437 159.051482 
L 59.817922 159.798606 
L 61.166407 158.651413 
L 62.514893 157.999893 
L 63.863378 157.407464 
L 65.211863 152.765838 
L 66.560348 149.786656 
L 67.908833 144.741101 
L 69.257318 138.431119 
L 70.605803 134.891574 
L 71.954288 128.594369 
L 73.302773 123.970752 
L 74.651258 121.606903 
L 75.999744 120.304075 
L 77.348229 119.148048 
L 78.696714 119.113844 
L 80.045199 118.492652 
L 81.393684 119.084662 
L 82.742169 120.279431 
L 87.237119 121.403429 
L 91.73207 124.708357 
L 96.22702 129.484311 
L 100.72197 131.084582 
L 105.216921 134.04558 
L 109.711871 136.184501 
L 114.206821 138.613966 
L 118.701772 139.635967 
L 123.196722 140.218801 
L 127.691672 141.805768 
L 132.186623 141.795681 
L 141.176523 141.079747 
L 145.671474 140.469911 
L 150.166424 139.964966 
L 154.661374 139.073126 
L 159.156325 138.964095 
L 159.156325 141.571743 
L 159.156325 141.571743 
L 154.661374 141.160393 
L 150.166424 141.865899 
L 145.671474 141.965475 
L 141.176523 142.328408 
L 132.186623 142.419812 
L 127.691672 142.297067 
L 123.196722 141.08508 
L 118.701772 140.007796 
L 114.206821 139.220605 
L 109.711871 138.723107 
L 105.216921 136.269642 
L 100.72197 134.437015 
L 96.22702 130.486504 
L 91.73207 126.666273 
L 87.237119 122.210181 
L 82.742169 122.868427 
L 81.393684 123.240879 
L 80.045199 122.280439 
L 78.696714 121.76678 
L 77.348229 122.310194 
L 75.999744 123.088039 
L 74.651258 125.94074 
L 73.302773 128.576962 
L 71.954288 132.708872 
L 70.605803 136.036626 
L 69.257318 144.16312 
L 67.908833 150.118492 
L 66.560348 153.835363 
L 65.211863 156.023715 
L 63.863378 157.881426 
L 62.514893 160.976954 
L 61.166407 162.583028 
L 59.817922 162.263932 
L 58.469437 162.252214 
L 57.120952 161.376454 
L 55.772467 161.024763 
L 51.277517 158.763889 
L 46.782566 155.182806 
L 42.287616 152.283962 
z
" clip-path="url(#pd4e20a9735)" style="fill: #1f77b4; fill-opacity: 0.5"/>
   </g>
   <g id="PolyCollection_8">
    <path d="M 42.287616 148.754958 
L 42.287616 148.416465 
L 44.085596 149.600702 
L 45.883576 151.437549 
L 47.681556 153.434575 
L 49.479537 155.30994 
L 51.277517 157.004266 
L 53.075497 158.112287 
L 54.873477 158.953991 
L 56.671457 162.992852 
L 58.469437 169.788525 
L 60.267417 174.330207 
L 62.065397 173.481599 
L 63.863378 161.773464 
L 65.661358 151.705303 
L 67.459338 145.340841 
L 69.257318 140.159584 
L 71.055298 134.698135 
L 72.853278 128.697128 
L 74.651258 119.250471 
L 76.449239 107.374116 
L 78.247219 105.437907 
L 80.045199 109.889324 
L 81.843179 116.64759 
L 83.641159 120.927903 
L 85.439139 121.738506 
L 87.237119 122.875747 
L 89.035099 124.47369 
L 90.83308 126.251511 
L 92.63106 128.471544 
L 94.42904 130.551072 
L 96.22702 132.017153 
L 98.025 133.145524 
L 99.82298 134.35855 
L 101.62096 135.411697 
L 103.418941 136.592817 
L 105.216921 137.820261 
L 109.711871 140.035182 
L 114.206821 141.079333 
L 118.701772 141.930722 
L 123.196722 142.078572 
L 127.691672 141.32453 
L 132.186623 142.452304 
L 136.681573 140.09624 
L 141.176523 139.500047 
L 145.671474 139.99975 
L 150.166424 141.660855 
L 150.166424 143.552044 
L 150.166424 143.552044 
L 145.671474 144.476568 
L 141.176523 145.325049 
L 136.681573 144.148609 
L 132.186623 143.390384 
L 127.691672 144.618789 
L 123.196722 143.235169 
L 118.701772 142.244777 
L 114.206821 141.427571 
L 109.711871 140.365796 
L 105.216921 138.276353 
L 103.418941 136.951823 
L 101.62096 135.886441 
L 99.82298 134.683058 
L 98.025 133.498045 
L 96.22702 132.291949 
L 94.42904 130.874419 
L 92.63106 128.804316 
L 90.83308 126.669353 
L 89.035099 124.728574 
L 87.237119 123.153802 
L 85.439139 122.05508 
L 83.641159 121.171312 
L 81.843179 116.929594 
L 80.045199 110.226333 
L 78.247219 105.723951 
L 76.449239 107.816112 
L 74.651258 119.459933 
L 72.853278 129.020525 
L 71.055298 134.899812 
L 69.257318 140.395561 
L 67.459338 145.501502 
L 65.661358 152.081625 
L 63.863378 161.974962 
L 62.065397 173.760042 
L 60.267417 175.004385 
L 58.469437 170.046525 
L 56.671457 163.30662 
L 54.873477 159.224948 
L 53.075497 158.562293 
L 51.277517 157.368385 
L 49.479537 155.710956 
L 47.681556 154.167146 
L 45.883576 151.752595 
L 44.085596 149.894312 
L 42.287616 148.754958 
z
" clip-path="url(#pd4e20a9735)" style="fill-opacity: 0.5"/>
   </g>
   <g id="PolyCollection_9">
    <path d="M 42.287616 147.909391 
L 42.287616 147.671338 
L 46.782566 152.071688 
L 51.277517 156.335923 
L 55.772467 159.845683 
L 57.120952 164.598684 
L 58.469437 170.051345 
L 59.817922 173.442345 
L 61.166407 174.211891 
L 62.514893 162.393817 
L 63.863378 149.873244 
L 65.211863 141.840797 
L 66.560348 139.483986 
L 67.908833 139.98331 
L 69.257318 140.645856 
L 70.605803 140.550155 
L 71.954288 141.205136 
L 73.302773 139.661904 
L 74.651258 132.292245 
L 75.999744 117.352328 
L 77.348229 107.077635 
L 78.696714 106.697965 
L 80.045199 110.055535 
L 81.393684 115.397895 
L 82.742169 120.259374 
L 87.237119 124.050397 
L 91.73207 128.633901 
L 96.22702 133.327285 
L 100.72197 136.023945 
L 105.216921 138.019318 
L 109.711871 139.32291 
L 114.206821 139.555718 
L 118.701772 139.47055 
L 123.196722 139.147502 
L 127.691672 138.570572 
L 132.186623 136.901887 
L 132.186623 138.640908 
L 132.186623 138.640908 
L 127.691672 140.941932 
L 123.196722 140.915711 
L 118.701772 140.52626 
L 114.206821 140.264006 
L 109.711871 139.936021 
L 105.216921 138.214806 
L 100.72197 136.256442 
L 96.22702 133.505705 
L 91.73207 128.915755 
L 87.237119 124.356674 
L 82.742169 120.565651 
L 81.393684 115.811035 
L 80.045199 110.927906 
L 78.696714 107.125729 
L 77.348229 107.751561 
L 75.999744 117.664277 
L 74.651258 132.77882 
L 73.302773 140.049449 
L 71.954288 141.991341 
L 70.605803 141.554508 
L 69.257318 140.876585 
L 67.908833 140.260422 
L 66.560348 140.207494 
L 65.211863 142.579364 
L 63.863378 150.277982 
L 62.514893 162.860955 
L 61.166407 175.071376 
L 59.817922 174.568561 
L 58.469437 170.315999 
L 57.120952 164.869661 
L 55.772467 160.081546 
L 51.277517 156.538481 
L 46.782566 152.409488 
L 42.287616 147.909391 
z
" clip-path="url(#pd4e20a9735)" style="fill: #d62728; fill-opacity: 0.5"/>
   </g>
   <g id="matplotlib.axis_3">
    <g id="xtick_4">
     <g id="line2d_24">
      <g>
       <use xlink:href="#m0f51a610f8" x="69.257318" y="179.141135" style="stroke: #000000; stroke-width: 0.5"/>
      </g>
     </g>
     <g id="line2d_25">
      <g>
       <use xlink:href="#m76112c420e" x="69.257318" y="101.671167" style="stroke: #000000; stroke-width: 0.5"/>
      </g>
     </g>
     <g id="text_5">
      <!-- 0.0 -->
      <g transform="translate(63.467968 188.603593) scale(0.0833 -0.0833)">
       <use xlink:href="#ArialMT-30"/>
       <use xlink:href="#ArialMT-2e" x="55.615234"/>
       <use xlink:href="#ArialMT-30" x="83.398438"/>
      </g>
     </g>
    </g>
    <g id="xtick_5">
     <g id="line2d_26">
      <g>
       <use xlink:href="#m0f51a610f8" x="114.206821" y="179.141135" style="stroke: #000000; stroke-width: 0.5"/>
      </g>
     </g>
     <g id="line2d_27">
      <g>
       <use xlink:href="#m76112c420e" x="114.206821" y="101.671167" style="stroke: #000000; stroke-width: 0.5"/>
      </g>
     </g>
     <g id="text_6">
      <!-- 0.5 -->
      <g transform="translate(108.417471 188.603593) scale(0.0833 -0.0833)">
       <use xlink:href="#ArialMT-30"/>
       <use xlink:href="#ArialMT-2e" x="55.615234"/>
       <use xlink:href="#ArialMT-35" x="83.398438"/>
      </g>
     </g>
    </g>
    <g id="xtick_6">
     <g id="line2d_28">
      <g>
       <use xlink:href="#m0f51a610f8" x="159.156325" y="179.141135" style="stroke: #000000; stroke-width: 0.5"/>
      </g>
     </g>
     <g id="line2d_29">
      <g>
       <use xlink:href="#m76112c420e" x="159.156325" y="101.671167" style="stroke: #000000; stroke-width: 0.5"/>
      </g>
     </g>
     <g id="text_7">
      <!-- 1.0 -->
      <g transform="translate(153.366975 188.603593) scale(0.0833 -0.0833)">
       <defs>
        <path id="ArialMT-31" d="M 2384 0 
L 1822 0 
L 1822 3584 
Q 1619 3391 1289 3197 
Q 959 3003 697 2906 
L 697 3450 
Q 1169 3672 1522 3987 
Q 1875 4303 2022 4600 
L 2384 4600 
L 2384 0 
z
" transform="scale(0.015625)"/>
       </defs>
       <use xlink:href="#ArialMT-31"/>
       <use xlink:href="#ArialMT-2e" x="55.615234"/>
       <use xlink:href="#ArialMT-30" x="83.398438"/>
      </g>
     </g>
    </g>
    <g id="text_8">
     <!-- $B_\parallel$ (T) -->
     <g transform="translate(85.77197 201.55918) scale(0.1 -0.1)">
      <defs>
       <path id="Cmmi10-42" d="M 319 0 
Q 256 0 256 84 
Q 259 100 268 137 
Q 278 175 293 200 
Q 309 225 341 225 
Q 522 225 656 234 
Q 791 244 884 269 
Q 959 297 1006 441 
L 1881 3956 
Q 1894 4019 1894 4044 
Q 1894 4113 1819 4122 
Q 1697 4147 1356 4147 
Q 1294 4147 1294 4231 
Q 1297 4247 1306 4286 
Q 1316 4325 1333 4348 
Q 1350 4372 1375 4372 
L 3669 4372 
Q 3878 4372 4083 4320 
Q 4288 4269 4461 4156 
Q 4634 4044 4736 3876 
Q 4838 3709 4838 3488 
Q 4838 3247 4714 3040 
Q 4591 2834 4395 2681 
Q 4200 2528 3973 2429 
Q 3747 2331 3500 2284 
Q 3675 2284 3854 2215 
Q 4034 2147 4175 2028 
Q 4316 1909 4402 1743 
Q 4488 1578 4488 1388 
Q 4488 1003 4219 684 
Q 3950 366 3542 183 
Q 3134 0 2753 0 
L 319 0 
z
M 1497 275 
Q 1497 225 1716 225 
L 2631 225 
Q 2944 225 3231 398 
Q 3519 572 3692 859 
Q 3866 1147 3866 1459 
Q 3866 1650 3786 1820 
Q 3706 1991 3556 2089 
Q 3406 2188 3213 2188 
L 1966 2188 
L 1522 416 
Q 1497 328 1497 275 
z
M 2009 2356 
L 2981 2356 
Q 3288 2356 3577 2512 
Q 3866 2669 4048 2937 
Q 4231 3206 4231 3506 
Q 4231 3784 4057 3965 
Q 3884 4147 3609 4147 
L 2731 4147 
Q 2559 4147 2500 4115 
Q 2441 4084 2400 3928 
L 2009 2356 
z
" transform="scale(0.015625)"/>
       <path id="STIXGeneral-Regular-2225" d="M 2522 -1210 
L 2099 -1210 
L 2099 4416 
L 2522 4416 
L 2522 -1210 
z
M 1248 -1210 
L 826 -1210 
L 826 4416 
L 1248 4416 
L 1248 -1210 
z
" transform="scale(0.015625)"/>
       <path id="ArialMT-54" d="M 1659 0 
L 1659 4041 
L 150 4041 
L 150 4581 
L 3781 4581 
L 3781 4041 
L 2266 4041 
L 2266 0 
L 1659 0 
z
" transform="scale(0.015625)"/>
      </defs>
      <use xlink:href="#Cmmi10-42" transform="translate(0 0.203125)"/>
      <use xlink:href="#STIXGeneral-Regular-2225" transform="translate(88.072266 -16.803125) scale(0.7)"/>
      <use xlink:href="#ArialMT-20" transform="translate(143.350616 0.203125)"/>
      <use xlink:href="#ArialMT-28" transform="translate(171.13382 0.203125)"/>
      <use xlink:href="#ArialMT-54" transform="translate(204.434601 0.203125)"/>
      <use xlink:href="#ArialMT-29" transform="translate(265.518585 0.203125)"/>
     </g>
    </g>
   </g>
   <g id="matplotlib.axis_4">
    <g id="ytick_4">
     <g id="line2d_30">
      <g>
       <use xlink:href="#m2df176ff0e" x="36.444181" y="160.92278" style="stroke: #000000; stroke-width: 0.5"/>
      </g>
     </g>
     <g id="line2d_31">
      <g>
       <use xlink:href="#md977b6efad" x="164.99976" y="160.92278" style="stroke: #000000; stroke-width: 0.5"/>
      </g>
     </g>
     <g id="text_9">
      <!-- −5 -->
      <g transform="translate(23.446679 163.904009) scale(0.0833 -0.0833)">
       <use xlink:href="#ArialMT-2212"/>
       <use xlink:href="#ArialMT-35" x="58.398438"/>
      </g>
     </g>
    </g>
    <g id="ytick_5">
     <g id="line2d_32">
      <g>
       <use xlink:href="#m2df176ff0e" x="36.444181" y="140.402099" style="stroke: #000000; stroke-width: 0.5"/>
      </g>
     </g>
     <g id="line2d_33">
      <g>
       <use xlink:href="#md977b6efad" x="164.99976" y="140.402099" style="stroke: #000000; stroke-width: 0.5"/>
      </g>
     </g>
     <g id="text_10">
      <!-- 0 -->
      <g transform="translate(28.31192 143.383328) scale(0.0833 -0.0833)">
       <use xlink:href="#ArialMT-30"/>
      </g>
     </g>
    </g>
    <g id="ytick_6">
     <g id="line2d_34">
      <g>
       <use xlink:href="#m2df176ff0e" x="36.444181" y="119.881418" style="stroke: #000000; stroke-width: 0.5"/>
      </g>
     </g>
     <g id="line2d_35">
      <g>
       <use xlink:href="#md977b6efad" x="164.99976" y="119.881418" style="stroke: #000000; stroke-width: 0.5"/>
      </g>
     </g>
     <g id="text_11">
      <!-- 5 -->
      <g transform="translate(28.31192 122.862647) scale(0.0833 -0.0833)">
       <use xlink:href="#ArialMT-35"/>
      </g>
     </g>
    </g>
    <g id="text_12">
     <!-- $\eta$ (%) -->
     <g transform="translate(17.246679 152.056151) rotate(-90) scale(0.1 -0.1)">
      <defs>
       <path id="Cmmi10-b4" d="M 684 -72 
Q 606 -72 550 -22 
Q 494 28 494 109 
Q 494 147 500 166 
L 978 2075 
Q 1025 2253 1025 2388 
Q 1025 2663 838 2663 
Q 638 2663 541 2423 
Q 444 2184 353 1819 
Q 353 1800 334 1789 
Q 316 1778 300 1778 
L 225 1778 
Q 203 1778 187 1801 
Q 172 1825 172 1844 
Q 241 2122 305 2315 
Q 369 2509 505 2668 
Q 641 2828 844 2828 
Q 1081 2828 1267 2678 
Q 1453 2528 1453 2291 
Q 1641 2541 1894 2684 
Q 2147 2828 2444 2828 
Q 2778 2828 2979 2648 
Q 3181 2469 3181 2138 
Q 3181 1947 3138 1784 
L 2394 -1178 
Q 2375 -1269 2300 -1325 
Q 2225 -1381 2131 -1381 
Q 2053 -1381 1997 -1332 
Q 1941 -1284 1941 -1203 
Q 1941 -1166 1947 -1153 
L 2681 1797 
Q 2747 2059 2747 2234 
Q 2747 2413 2672 2538 
Q 2597 2663 2431 2663 
Q 1803 2663 1388 1888 
L 953 141 
Q 931 53 854 -9 
Q 778 -72 684 -72 
z
" transform="scale(0.015625)"/>
       <path id="ArialMT-25" d="M 372 3481 
Q 372 3972 619 4315 
Q 866 4659 1334 4659 
Q 1766 4659 2048 4351 
Q 2331 4044 2331 3447 
Q 2331 2866 2045 2552 
Q 1759 2238 1341 2238 
Q 925 2238 648 2547 
Q 372 2856 372 3481 
z
M 1350 4272 
Q 1141 4272 1002 4090 
Q 863 3909 863 3425 
Q 863 2984 1003 2804 
Q 1144 2625 1350 2625 
Q 1563 2625 1702 2806 
Q 1841 2988 1841 3469 
Q 1841 3913 1700 4092 
Q 1559 4272 1350 4272 
z
M 1353 -169 
L 3859 4659 
L 4316 4659 
L 1819 -169 
L 1353 -169 
z
M 3334 1075 
Q 3334 1569 3581 1911 
Q 3828 2253 4300 2253 
Q 4731 2253 5014 1945 
Q 5297 1638 5297 1041 
Q 5297 459 5011 145 
Q 4725 -169 4303 -169 
Q 3888 -169 3611 142 
Q 3334 453 3334 1075 
z
M 4316 1866 
Q 4103 1866 3964 1684 
Q 3825 1503 3825 1019 
Q 3825 581 3965 400 
Q 4106 219 4313 219 
Q 4528 219 4667 400 
Q 4806 581 4806 1063 
Q 4806 1506 4665 1686 
Q 4525 1866 4316 1866 
z
" transform="scale(0.015625)"/>
      </defs>
      <use xlink:href="#Cmmi10-b4" transform="translate(0 0.203125)"/>
      <use xlink:href="#ArialMT-20" transform="translate(49.609375 0.203125)"/>
      <use xlink:href="#ArialMT-28" transform="translate(77.392578 0.203125)"/>
      <use xlink:href="#ArialMT-25" transform="translate(110.693359 0.203125)"/>
      <use xlink:href="#ArialMT-29" transform="translate(199.609375 0.203125)"/>
     </g>
    </g>
   </g>
   <g id="line2d_36">
    <path d="M 36.444181 140.402099 
L 164.99976 140.402099 
" clip-path="url(#pd4e20a9735)" style="fill: none; stroke: #d3d3d3; stroke-width: 0.5; stroke-linecap: square"/>
   </g>
   <g id="line2d_37">
    <path d="M 69.257318 179.141135 
L 69.257318 101.671167 
" clip-path="url(#pd4e20a9735)" style="fill: none; stroke: #d3d3d3; stroke-width: 0.5; stroke-linecap: square"/>
   </g>
   <g id="line2d_38"/>
   <g id="line2d_39"/>
   <g id="line2d_40"/>
   <g id="patch_8">
    <path d="M 36.444181 179.141135 
L 36.444181 101.671167 
" style="fill: none; stroke: #000000; stroke-width: 0.5; stroke-linejoin: miter; stroke-linecap: square"/>
   </g>
   <g id="patch_9">
    <path d="M 164.99976 179.141135 
L 164.99976 101.671167 
" style="fill: none; stroke: #000000; stroke-width: 0.5; stroke-linejoin: miter; stroke-linecap: square"/>
   </g>
   <g id="patch_10">
    <path d="M 36.444181 179.141135 
L 164.99976 179.141135 
" style="fill: none; stroke: #000000; stroke-width: 0.5; stroke-linejoin: miter; stroke-linecap: square"/>
   </g>
   <g id="patch_11">
    <path d="M 36.444181 101.671167 
L 164.99976 101.671167 
" style="fill: none; stroke: #000000; stroke-width: 0.5; stroke-linejoin: miter; stroke-linecap: square"/>
   </g>
   <g id="line2d_41">
    <path d="M 42.287616 150.81255 
L 46.782566 154.376351 
L 51.277517 158.509769 
L 55.772467 158.913757 
L 57.120952 159.795005 
L 58.469437 160.651848 
L 59.817922 161.031269 
L 61.166407 160.61722 
L 62.514893 159.488424 
L 63.863378 157.644445 
L 65.211863 154.394777 
L 66.560348 151.811009 
L 67.908833 147.429797 
L 69.257318 141.29712 
L 70.605803 135.4641 
L 71.954288 130.65162 
L 73.302773 126.273857 
L 74.651258 123.773822 
L 75.999744 121.696057 
L 77.348229 120.729121 
L 78.696714 120.440312 
L 80.045199 120.386545 
L 81.393684 121.16277 
L 82.742169 121.573929 
L 87.237119 121.806805 
L 91.73207 125.687315 
L 96.22702 129.985407 
L 100.72197 132.760798 
L 105.216921 135.157611 
L 109.711871 137.453804 
L 114.206821 138.917285 
L 118.701772 139.821882 
L 123.196722 140.65194 
L 127.691672 142.051418 
L 132.186623 142.107746 
L 141.176523 141.704078 
L 145.671474 141.217693 
L 150.166424 140.915432 
L 154.661374 140.116759 
L 159.156325 140.267919 
" clip-path="url(#pd4e20a9735)" style="fill: none; stroke: #1f77b4; stroke-linecap: square"/>
   </g>
   <g id="line2d_42">
    <path d="M 42.287616 148.585712 
L 44.085596 149.747507 
L 45.883576 151.595072 
L 47.681556 153.800861 
L 49.479537 155.510448 
L 51.277517 157.186325 
L 53.075497 158.33729 
L 54.873477 159.089469 
L 56.671457 163.149736 
L 58.469437 169.917525 
L 60.267417 174.667296 
L 62.065397 173.620821 
L 63.863378 161.874213 
L 65.661358 151.893464 
L 67.459338 145.421171 
L 69.257318 140.277573 
L 71.055298 134.798973 
L 72.853278 128.858827 
L 74.651258 119.355202 
L 76.449239 107.595114 
L 78.247219 105.580929 
L 80.045199 110.057828 
L 81.843179 116.788592 
L 83.641159 121.049608 
L 85.439139 121.896793 
L 87.237119 123.014775 
L 89.035099 124.601132 
L 90.83308 126.460432 
L 92.63106 128.63793 
L 94.42904 130.712746 
L 96.22702 132.154551 
L 98.025 133.321784 
L 99.82298 134.520804 
L 101.62096 135.649069 
L 103.418941 136.77232 
L 105.216921 138.048307 
L 109.711871 140.200489 
L 114.206821 141.253452 
L 118.701772 142.087749 
L 123.196722 142.65687 
L 127.691672 142.97166 
L 132.186623 142.921344 
L 136.681573 142.122425 
L 141.176523 142.412548 
L 145.671474 142.238159 
L 150.166424 142.60645 
" clip-path="url(#pd4e20a9735)" style="fill: none; stroke: #000000; stroke-linecap: square"/>
   </g>
   <g id="legend_1">
    <g id="patch_12">
     <path d="M 118.91136 176.246135 
L 160.94676 176.246135 
Q 162.10476 176.246135 162.10476 175.088135 
L 162.10476 148.917335 
Q 162.10476 147.759335 160.94676 147.759335 
L 118.91136 147.759335 
Q 117.75336 147.759335 117.75336 148.917335 
L 117.75336 175.088135 
Q 117.75336 176.246135 118.91136 176.246135 
z
" style="fill: #ffffff; opacity: 0.8; stroke: #cccccc; stroke-linejoin: miter"/>
    </g>
    <g id="line2d_43">
     <path d="M 120.06936 152.217635 
L 125.85936 152.217635 
L 131.64936 152.217635 
" style="fill: none; stroke: #1f77b4; stroke-linecap: square"/>
     <defs>
      <path id="m001cc1108f" d="M 0 -1.5 
L -1.5 1.5 
L 1.5 1.5 
z
" style="stroke: #1f77b4; stroke-width: 0.5; stroke-linejoin: miter"/>
     </defs>
     <g>
      <use xlink:href="#m001cc1108f" x="125.85936" y="152.217635" style="fill: #1f77b4; stroke: #1f77b4; stroke-width: 0.5; stroke-linejoin: miter"/>
     </g>
    </g>
    <g id="text_13">
     <!-- $V_\mathrm{g}=$10$\,$V -->
     <g transform="translate(136.28136 154.244135) scale(0.0579 -0.0579)">
      <defs>
       <path id="Cmmi10-56" d="M 1409 -72 
L 897 4006 
Q 850 4147 416 4147 
Q 353 4147 353 4231 
Q 366 4300 384 4336 
Q 403 4372 459 4372 
L 2022 4372 
Q 2056 4372 2072 4347 
Q 2088 4322 2088 4288 
Q 2063 4147 2003 4147 
Q 1503 4147 1472 3975 
L 1894 628 
L 3866 3775 
Q 3922 3881 3922 3944 
Q 3922 4056 3820 4101 
Q 3719 4147 3584 4147 
Q 3519 4147 3519 4231 
Q 3531 4281 3540 4309 
Q 3550 4338 3569 4355 
Q 3588 4372 3628 4372 
L 4863 4372 
Q 4922 4372 4922 4288 
Q 4897 4147 4838 4147 
Q 4356 4147 4084 3725 
Q 4072 3713 4063 3713 
L 1703 -72 
Q 1656 -141 1581 -141 
L 1491 -141 
Q 1419 -141 1409 -72 
z
" transform="scale(0.015625)"/>
       <path id="Cmr10-67" d="M 178 -500 
Q 178 -272 343 -101 
Q 509 69 738 141 
Q 609 238 542 384 
Q 475 531 475 697 
Q 475 997 666 1228 
Q 372 1516 372 1888 
Q 372 2088 458 2263 
Q 544 2438 697 2566 
Q 850 2694 1037 2761 
Q 1225 2828 1422 2828 
Q 1803 2828 2106 2606 
Q 2238 2747 2417 2823 
Q 2597 2900 2791 2900 
Q 2928 2900 3015 2801 
Q 3103 2703 3103 2566 
Q 3103 2488 3043 2428 
Q 2984 2369 2906 2369 
Q 2825 2369 2765 2428 
Q 2706 2488 2706 2566 
Q 2706 2684 2784 2731 
Q 2453 2731 2216 2503 
Q 2331 2388 2401 2220 
Q 2472 2053 2472 1888 
Q 2472 1616 2322 1398 
Q 2172 1181 1926 1061 
Q 1681 941 1422 941 
Q 1072 941 781 1131 
Q 691 1006 691 850 
Q 691 681 802 554 
Q 913 428 1081 428 
L 1606 428 
Q 1988 428 2294 359 
Q 2600 291 2808 84 
Q 3016 -122 3016 -500 
Q 3016 -781 2778 -967 
Q 2541 -1153 2211 -1236 
Q 1881 -1319 1600 -1319 
Q 1316 -1319 984 -1236 
Q 653 -1153 415 -967 
Q 178 -781 178 -500 
z
M 538 -500 
Q 538 -716 713 -861 
Q 888 -1006 1134 -1076 
Q 1381 -1147 1600 -1147 
Q 1816 -1147 2062 -1076 
Q 2309 -1006 2482 -861 
Q 2656 -716 2656 -500 
Q 2656 -166 2350 -67 
Q 2044 31 1606 31 
L 1081 31 
Q 934 31 811 -39 
Q 688 -109 613 -236 
Q 538 -363 538 -500 
z
M 1422 1113 
Q 1966 1113 1966 1888 
Q 1966 2222 1850 2439 
Q 1734 2656 1422 2656 
Q 1109 2656 993 2439 
Q 878 2222 878 1888 
Q 878 1675 922 1503 
Q 966 1331 1084 1222 
Q 1203 1113 1422 1113 
z
" transform="scale(0.015625)"/>
       <path id="Cmr10-3d" d="M 481 850 
Q 428 850 393 890 
Q 359 931 359 978 
Q 359 1031 393 1068 
Q 428 1106 481 1106 
L 4500 1106 
Q 4547 1106 4581 1068 
Q 4616 1031 4616 978 
Q 4616 931 4581 890 
Q 4547 850 4500 850 
L 481 850 
z
M 481 2094 
Q 428 2094 393 2131 
Q 359 2169 359 2222 
Q 359 2269 393 2309 
Q 428 2350 481 2350 
L 4500 2350 
Q 4547 2350 4581 2309 
Q 4616 2269 4616 2222 
Q 4616 2169 4581 2131 
Q 4547 2094 4500 2094 
L 481 2094 
z
" transform="scale(0.015625)"/>
       <path id="ArialMT-56" d="M 1803 0 
L 28 4581 
L 684 4581 
L 1875 1253 
Q 2019 853 2116 503 
Q 2222 878 2363 1253 
L 3600 4581 
L 4219 4581 
L 2425 0 
L 1803 0 
z
" transform="scale(0.015625)"/>
      </defs>
      <use xlink:href="#Cmmi10-56" transform="translate(0 0.125)"/>
      <use xlink:href="#Cmr10-67" transform="translate(58.300781 -16.88125) scale(0.7)"/>
      <use xlink:href="#Cmr10-3d" transform="translate(117.236719 0.125)"/>
      <use xlink:href="#ArialMT-31" transform="translate(212.480859 0.125)"/>
      <use xlink:href="#ArialMT-30" transform="translate(268.096094 0.125)"/>
      <use xlink:href="#ArialMT-56" transform="translate(338.343782 0.125)"/>
     </g>
    </g>
    <g id="line2d_44">
     <path d="M 120.06936 161.134235 
L 125.85936 161.134235 
L 131.64936 161.134235 
" style="fill: none; stroke: #000000; stroke-linecap: square"/>
     <defs>
      <path id="m861dc842df" d="M 0 1.5 
C 0.397805 1.5 0.77937 1.341951 1.06066 1.06066 
C 1.341951 0.77937 1.5 0.397805 1.5 0 
C 1.5 -0.397805 1.341951 -0.77937 1.06066 -1.06066 
C 0.77937 -1.341951 0.397805 -1.5 0 -1.5 
C -0.397805 -1.5 -0.77937 -1.341951 -1.06066 -1.06066 
C -1.341951 -0.77937 -1.5 -0.397805 -1.5 0 
C -1.5 0.397805 -1.341951 0.77937 -1.06066 1.06066 
C -0.77937 1.341951 -0.397805 1.5 0 1.5 
z
" style="stroke: #000000; stroke-width: 0.5"/>
     </defs>
     <g>
      <use xlink:href="#m861dc842df" x="125.85936" y="161.134235" style="stroke: #000000; stroke-width: 0.5"/>
     </g>
    </g>
    <g id="text_14">
     <!-- $V_\mathrm{g}=$0$\,$V -->
     <g transform="translate(136.28136 163.160735) scale(0.0579 -0.0579)">
      <use xlink:href="#Cmmi10-56" transform="translate(0 0.125)"/>
      <use xlink:href="#Cmr10-67" transform="translate(58.300781 -16.88125) scale(0.7)"/>
      <use xlink:href="#Cmr10-3d" transform="translate(117.236719 0.125)"/>
      <use xlink:href="#ArialMT-30" transform="translate(212.480859 0.125)"/>
      <use xlink:href="#ArialMT-56" transform="translate(282.728548 0.125)"/>
     </g>
    </g>
    <g id="line2d_45">
     <path d="M 120.06936 170.050835 
L 125.85936 170.050835 
L 131.64936 170.050835 
" style="fill: none; stroke: #d62728; stroke-linecap: square"/>
     <defs>
      <path id="m09781ae64a" d="M -0 1.5 
L 1.5 -1.5 
L -1.5 -1.5 
z
" style="stroke: #d62728; stroke-width: 0.5; stroke-linejoin: miter"/>
     </defs>
     <g>
      <use xlink:href="#m09781ae64a" x="125.85936" y="170.050835" style="fill: #d62728; stroke: #d62728; stroke-width: 0.5; stroke-linejoin: miter"/>
     </g>
    </g>
    <g id="text_15">
     <!-- $V_\mathrm{g}&lt;$0$\,$V -->
     <g transform="translate(136.28136 172.077335) scale(0.0579 -0.0579)">
      <defs>
       <path id="Cmmi10-3c" d="M 594 1491 
Q 531 1519 531 1600 
Q 531 1681 616 1722 
L 4269 3444 
Q 4294 3456 4313 3456 
Q 4369 3456 4405 3417 
Q 4441 3378 4441 3328 
Q 4441 3250 4366 3206 
L 959 1600 
L 4384 -19 
Q 4441 -38 4441 -128 
Q 4441 -178 4405 -217 
Q 4369 -256 4313 -256 
Q 4294 -256 4269 -244 
L 594 1491 
z
" transform="scale(0.015625)"/>
      </defs>
      <use xlink:href="#Cmmi10-56" transform="translate(0 0.125)"/>
      <use xlink:href="#Cmr10-67" transform="translate(58.300781 -16.88125) scale(0.7)"/>
      <use xlink:href="#Cmmi10-3c" transform="translate(117.236719 0.125)"/>
      <use xlink:href="#ArialMT-30" transform="translate(212.480859 0.125)"/>
      <use xlink:href="#ArialMT-56" transform="translate(282.728548 0.125)"/>
     </g>
    </g>
   </g>
   <g id="line2d_46">
    <path d="M 42.287616 147.790365 
L 46.782566 152.240588 
L 51.277517 156.437202 
L 55.772467 159.963615 
L 57.120952 164.734172 
L 58.469437 170.183672 
L 59.817922 174.005453 
L 61.166407 174.641634 
L 62.514893 162.627386 
L 63.863378 150.075613 
L 65.211863 142.21008 
L 66.560348 139.84574 
L 67.908833 140.121866 
L 69.257318 140.76122 
L 70.605803 141.052331 
L 71.954288 141.598239 
L 73.302773 139.855677 
L 74.651258 132.535533 
L 75.999744 117.508302 
L 77.348229 107.414598 
L 78.696714 106.911847 
L 80.045199 110.49172 
L 81.393684 115.604465 
L 82.742169 120.412513 
L 87.237119 124.203536 
L 91.73207 128.774828 
L 96.22702 133.416495 
L 100.72197 136.140194 
L 105.216921 138.117062 
L 109.711871 139.629466 
L 114.206821 139.909862 
L 118.701772 139.998405 
L 123.196722 140.031606 
L 127.691672 139.756252 
L 132.186623 137.771398 
" clip-path="url(#pd4e20a9735)" style="fill: none; stroke: #d62728; stroke-linecap: square"/>
   </g>
   <g id="line2d_47">
    <path d="M 59.835902 161.031332 
L 79.586714 120.321041 
" clip-path="url(#pd4e20a9735)" style="fill: none"/>
    <g clip-path="url(#pd4e20a9735)">
     <use xlink:href="#m8e346ceaf3" x="59.835902" y="161.031332" style="fill: #1f77b4; stroke: #1f77b4; stroke-width: 0.5; stroke-linejoin: miter"/>
     <use xlink:href="#m8e346ceaf3" x="79.586714" y="120.321041" style="fill: #1f77b4; stroke: #1f77b4; stroke-width: 0.5; stroke-linejoin: miter"/>
    </g>
   </g>
   <g id="line2d_48">
    <path d="M 61.076508 175.430865 
L 77.662875 105.19253 
" clip-path="url(#pd4e20a9735)" style="fill: none"/>
    <g clip-path="url(#pd4e20a9735)">
     <use xlink:href="#m295e53c376" x="61.076508" y="175.430865" style="stroke: #000000; stroke-width: 0.5"/>
     <use xlink:href="#m295e53c376" x="77.662875" y="105.19253" style="stroke: #000000; stroke-width: 0.5"/>
    </g>
   </g>
   <g id="line2d_49">
    <path d="M 60.680953 175.619773 
L 78.049441 106.252668 
" clip-path="url(#pd4e20a9735)" style="fill: none"/>
    <g clip-path="url(#pd4e20a9735)">
     <use xlink:href="#m0fbf59ae35" x="60.680953" y="175.619773" style="fill: #d62728; stroke: #d62728; stroke-width: 0.5; stroke-linejoin: miter"/>
     <use xlink:href="#m0fbf59ae35" x="78.049441" y="106.252668" style="fill: #d62728; stroke: #d62728; stroke-width: 0.5; stroke-linejoin: miter"/>
    </g>
   </g>
  </g>
  <g id="text_16">
   <!-- $W_\mathrm{sc}=$1.2$\,$μm -->
   <g transform="translate(55.65 10.20024) scale(0.1 -0.1)">
    <defs>
     <path id="Cmmi10-57" d="M 1141 -72 
L 844 4006 
Q 822 4100 703 4123 
Q 584 4147 409 4147 
Q 347 4147 347 4231 
Q 369 4313 381 4342 
Q 394 4372 453 4372 
L 1978 4372 
Q 2041 4372 2041 4288 
Q 2016 4147 1959 4147 
Q 1447 4147 1416 3969 
L 1644 738 
L 3244 3525 
L 3213 4006 
Q 3191 4100 3072 4123 
Q 2953 4147 2778 4147 
Q 2713 4147 2713 4231 
Q 2734 4313 2746 4342 
Q 2759 4372 2822 4372 
L 4347 4372 
Q 4409 4372 4409 4288 
Q 4406 4272 4397 4234 
Q 4388 4197 4372 4172 
Q 4356 4147 4325 4147 
Q 3809 4147 3781 3969 
L 3781 3922 
L 4013 738 
L 5753 3775 
Q 5791 3844 5791 3909 
Q 5791 4041 5662 4094 
Q 5534 4147 5375 4147 
Q 5313 4147 5313 4231 
Q 5325 4281 5333 4309 
Q 5341 4338 5361 4355 
Q 5381 4372 5422 4372 
L 6644 4372 
Q 6706 4372 6706 4288 
Q 6703 4272 6693 4233 
Q 6684 4194 6667 4170 
Q 6650 4147 6625 4147 
Q 6169 4147 5931 3731 
Q 5913 3713 5913 3713 
L 3744 -72 
Q 3709 -141 3634 -141 
L 3584 -141 
Q 3506 -141 3506 -72 
L 3263 3225 
L 1381 -72 
Q 1334 -141 1269 -141 
L 1216 -141 
Q 1141 -141 1141 -72 
z
" transform="scale(0.015625)"/>
     <path id="Cmr10-73" d="M 213 -19 
L 213 1025 
Q 213 1075 269 1075 
L 347 1075 
Q 384 1075 397 1025 
Q 575 97 1259 97 
Q 1563 97 1767 234 
Q 1972 372 1972 659 
Q 1972 866 1812 1011 
Q 1653 1156 1434 1209 
L 1006 1294 
Q 791 1341 614 1437 
Q 438 1534 325 1695 
Q 213 1856 213 2069 
Q 213 2350 361 2529 
Q 509 2709 746 2789 
Q 984 2869 1259 2869 
Q 1588 2869 1831 2694 
L 2016 2853 
Q 2016 2869 2047 2869 
L 2094 2869 
Q 2113 2869 2128 2851 
Q 2144 2834 2144 2816 
L 2144 1978 
Q 2144 1919 2094 1919 
L 2016 1919 
Q 1959 1919 1959 1978 
Q 1959 2313 1773 2516 
Q 1588 2719 1253 2719 
Q 966 2719 755 2612 
Q 544 2506 544 2247 
Q 544 2069 695 1955 
Q 847 1841 1050 1791 
L 1484 1709 
Q 1703 1659 1892 1540 
Q 2081 1422 2192 1240 
Q 2303 1059 2303 831 
Q 2303 600 2223 429 
Q 2144 259 2001 146 
Q 1859 34 1665 -19 
Q 1472 -72 1259 -72 
Q 859 -72 575 197 
L 341 -56 
Q 341 -72 306 -72 
L 269 -72 
Q 213 -72 213 -19 
z
" transform="scale(0.015625)"/>
     <path id="ArialMT-6d" d="M 422 0 
L 422 3319 
L 925 3319 
L 925 2853 
Q 1081 3097 1340 3245 
Q 1600 3394 1931 3394 
Q 2300 3394 2536 3241 
Q 2772 3088 2869 2813 
Q 3263 3394 3894 3394 
Q 4388 3394 4653 3120 
Q 4919 2847 4919 2278 
L 4919 0 
L 4359 0 
L 4359 2091 
Q 4359 2428 4304 2576 
Q 4250 2725 4106 2815 
Q 3963 2906 3769 2906 
Q 3419 2906 3187 2673 
Q 2956 2441 2956 1928 
L 2956 0 
L 2394 0 
L 2394 2156 
Q 2394 2531 2256 2718 
Q 2119 2906 1806 2906 
Q 1569 2906 1367 2781 
Q 1166 2656 1075 2415 
Q 984 2175 984 1722 
L 984 0 
L 422 0 
z
" transform="scale(0.015625)"/>
    </defs>
    <use xlink:href="#Cmmi10-57" transform="translate(0 0.125)"/>
    <use xlink:href="#Cmr10-73" transform="translate(94.384766 -16.88125) scale(0.7)"/>
    <use xlink:href="#Cmr10-63" transform="translate(121.967773 -16.88125) scale(0.7)"/>
    <use xlink:href="#Cmr10-3d" transform="translate(176.973047 0.125)"/>
    <use xlink:href="#ArialMT-31" transform="translate(272.217188 0.125)"/>
    <use xlink:href="#ArialMT-2e" transform="translate(327.832422 0.125)"/>
    <use xlink:href="#ArialMT-32" transform="translate(355.615625 0.125)"/>
    <use xlink:href="#ArialMT-3bc" transform="translate(425.863313 0.125)"/>
    <use xlink:href="#ArialMT-6d" transform="translate(483.480501 0.125)"/>
   </g>
  </g>
 </g>
 <defs>
  <clipPath id="pca988fd6e7">
   <rect x="36.444181" y="18.20072" width="128.555579" height="77.469967"/>
  </clipPath>
  <clipPath id="pd4e20a9735">
   <rect x="36.444181" y="101.671167" width="128.555579" height="77.469967"/>
  </clipPath>
 </defs>
</svg>
