<?xml version="1.0" encoding="utf-8" standalone="no"?>
<!DOCTYPE svg PUBLIC "-//W3C//DTD SVG 1.1//EN"
  "http://www.w3.org/Graphics/SVG/1.1/DTD/svg11.dtd">
<svg xmlns:xlink="http://www.w3.org/1999/xlink" width="168pt" height="207.65942pt" viewBox="0 0 168 207.65942" xmlns="http://www.w3.org/2000/svg" version="1.1">
 <metadata>
  <rdf:RDF xmlns:dc="http://purl.org/dc/elements/1.1/" xmlns:cc="http://creativecommons.org/ns#" xmlns:rdf="http://www.w3.org/1999/02/22-rdf-syntax-ns#">
   <cc:Work>
    <dc:type rdf:resource="http://purl.org/dc/dcmitype/StillImage"/>
    <dc:date>2024-12-06T17:48:34.978966</dc:date>
    <dc:format>image/svg+xml</dc:format>
    <dc:creator>
     <cc:Agent>
      <dc:title>Matplotlib v3.8.4, https://matplotlib.org/</dc:title>
     </cc:Agent>
    </dc:creator>
   </cc:Work>
  </rdf:RDF>
 </metadata>
 <defs>
  <style type="text/css">*{stroke-linejoin: round; stroke-linecap: butt}</style>
 </defs>
 <g id="figure_1">
  <g id="patch_1">
   <path d="M 0 207.65942 
L 168 207.65942 
L 168 0 
L 0 0 
L 0 207.65942 
z
" style="fill: none"/>
  </g>
  <g id="axes_1">
   <g id="patch_2">
    <path d="M 29.497742 95.670687 
L 164.99976 95.670687 
L 164.99976 18.20072 
L 29.497742 18.20072 
L 29.497742 95.670687 
z
" style="fill: none"/>
   </g>
   <g id="PolyCollection_1">
    <path d="M 83.698549 39.148251 
L 83.698549 39.134615 
L 84.930385 37.849457 
L 86.162222 36.511026 
L 87.394059 35.074122 
L 88.625895 33.573741 
L 89.857732 32.007755 
L 91.089568 30.44234 
L 92.321405 29.022277 
L 93.553241 27.795249 
L 94.785078 26.870607 
L 96.016914 26.246652 
L 97.248751 26.094234 
L 98.480587 26.166039 
L 99.712424 26.291105 
L 100.94426 26.735863 
L 102.176097 27.625884 
L 103.407933 28.717241 
L 104.63977 30.081501 
L 105.871606 31.488786 
L 107.103443 33.013764 
L 108.33528 34.676101 
L 109.567116 36.325667 
L 110.798953 37.967962 
L 112.030789 39.503061 
L 113.262626 40.911642 
L 114.494462 42.1405 
L 115.726299 43.222205 
L 118.80589 45.385763 
L 121.885481 47.018338 
L 124.965073 48.339986 
L 128.044664 49.549223 
L 131.124255 50.699299 
L 134.203847 51.700167 
L 137.283438 52.490091 
L 140.363029 53.118011 
L 143.442621 53.661703 
L 146.522212 54.156493 
L 149.601803 54.59498 
L 152.681395 54.926072 
L 155.760986 55.198793 
L 158.840577 55.436844 
L 158.840577 55.449645 
L 158.840577 55.449645 
L 155.760986 55.209256 
L 152.681395 54.934883 
L 149.601803 54.603282 
L 146.522212 54.161879 
L 143.442621 53.665099 
L 140.363029 53.121717 
L 137.283438 52.49417 
L 134.203847 51.703739 
L 131.124255 50.705012 
L 128.044664 49.555771 
L 124.965073 48.351024 
L 121.885481 47.022983 
L 118.80589 45.392912 
L 115.726299 43.233295 
L 114.494462 42.151523 
L 113.262626 40.922303 
L 112.030789 39.521541 
L 110.798953 37.982782 
L 109.567116 36.348576 
L 108.33528 34.698099 
L 107.103443 33.058678 
L 105.871606 31.539023 
L 104.63977 30.144119 
L 103.407933 28.779615 
L 102.176097 27.663065 
L 100.94426 26.787778 
L 99.712424 26.344073 
L 98.480587 26.197618 
L 97.248751 26.187852 
L 96.016914 26.280996 
L 94.785078 26.903195 
L 93.553241 27.829406 
L 92.321405 29.054385 
L 91.089568 30.477285 
L 89.857732 32.039639 
L 88.625895 33.597831 
L 87.394059 35.092716 
L 86.162222 36.528581 
L 84.930385 37.865859 
L 83.698549 39.148251 
z
" clip-path="url(#p26ccfb4fb9)" style="fill: #1f77b4; fill-opacity: 0.5"/>
   </g>
   <g id="PolyCollection_2">
    <path d="M 83.698549 76.097588 
L 83.698549 76.055425 
L 84.930385 77.668491 
L 86.162222 79.302435 
L 87.394059 80.893524 
L 88.625895 82.48162 
L 89.857732 83.920728 
L 91.089568 85.24881 
L 92.321405 86.345918 
L 93.553241 87.255456 
L 94.785078 87.854536 
L 96.016914 88.170307 
L 97.248751 87.792859 
L 98.480587 87.357388 
L 99.712424 86.825537 
L 100.94426 85.995848 
L 102.176097 84.76843 
L 103.407933 83.34033 
L 104.63977 81.785905 
L 105.871606 80.271066 
L 107.103443 78.772293 
L 108.33528 77.36163 
L 109.567116 76.02452 
L 110.798953 74.745724 
L 112.030789 73.526737 
L 113.262626 72.359311 
L 114.494462 71.276131 
L 115.726299 70.276716 
L 118.80589 68.211848 
L 121.885481 66.654538 
L 124.965073 65.384942 
L 128.044664 64.234597 
L 131.124255 63.142216 
L 134.203847 62.168797 
L 137.283438 61.375144 
L 140.363029 60.743727 
L 143.442621 60.197688 
L 146.522212 59.696571 
L 149.601803 59.252803 
L 152.681395 58.919641 
L 155.760986 58.642957 
L 158.840577 58.399813 
L 158.840577 58.412605 
L 158.840577 58.412605 
L 155.760986 58.656419 
L 152.681395 58.929359 
L 149.601803 59.260979 
L 146.522212 59.702416 
L 143.442621 60.201354 
L 140.363029 60.747238 
L 137.283438 61.37879 
L 134.203847 62.172617 
L 131.124255 63.148545 
L 128.044664 64.241272 
L 124.965073 65.395159 
L 121.885481 66.660238 
L 118.80589 68.222916 
L 115.726299 70.290826 
L 114.494462 71.2892 
L 113.262626 72.371824 
L 112.030789 73.548584 
L 110.798953 74.763057 
L 109.567116 76.059065 
L 108.33528 77.404261 
L 107.103443 78.825393 
L 105.871606 80.327498 
L 104.63977 81.845132 
L 103.407933 83.400336 
L 102.176097 84.814799 
L 100.94426 86.047102 
L 99.712424 86.888159 
L 98.480587 87.407114 
L 97.248751 87.903738 
L 96.016914 88.221582 
L 94.785078 87.932668 
L 93.553241 87.335654 
L 92.321405 86.423761 
L 91.089568 85.335582 
L 89.857732 84.003906 
L 88.625895 82.556691 
L 87.394059 80.987413 
L 86.162222 79.365948 
L 84.930385 77.722259 
L 83.698549 76.097588 
z
" clip-path="url(#p26ccfb4fb9)" style="fill: #1f77b4; fill-opacity: 0.5"/>
   </g>
   <g id="PolyCollection_3">
    <path d="M 35.656924 54.646874 
L 35.656924 54.624731 
L 38.736516 54.555568 
L 41.816107 54.371264 
L 44.895698 54.031478 
L 47.97529 53.592368 
L 51.054881 53.171633 
L 54.134472 52.858226 
L 57.214064 52.607452 
L 60.293655 52.170331 
L 63.373246 51.245713 
L 66.452837 50.060571 
L 69.532429 49.019211 
L 72.61202 48.133011 
L 74.151816 47.628922 
L 75.691611 47.080043 
L 77.231407 46.386612 
L 78.771203 45.378848 
L 80.310998 44.188752 
L 81.850794 42.672416 
L 83.39059 40.849959 
L 84.930385 38.839188 
L 86.470181 36.938964 
L 88.009977 34.575022 
L 89.549772 31.985496 
L 91.089568 29.226891 
L 92.629364 26.272053 
L 94.169159 23.86946 
L 95.708955 22.436645 
L 97.248751 21.722082 
L 98.788546 21.966952 
L 100.328342 22.964787 
L 101.868138 24.977698 
L 103.407933 27.051238 
L 104.947729 29.707767 
L 106.487525 32.385353 
L 108.02732 35.297855 
L 109.567116 38.077628 
L 111.106912 40.549456 
L 112.646707 42.575572 
L 114.186503 44.195525 
L 115.726299 45.368111 
L 117.266094 46.372828 
L 118.80589 47.01864 
L 120.345686 47.647324 
L 121.885481 48.077519 
L 123.425277 48.602467 
L 124.965073 49.071543 
L 126.504868 49.633489 
L 128.044664 50.204188 
L 129.58446 50.850131 
L 131.124255 51.425108 
L 132.664051 51.919944 
L 134.203847 52.240373 
L 137.283438 52.70711 
L 140.363029 52.958113 
L 143.442621 53.241761 
L 146.522212 53.628105 
L 149.601803 54.036344 
L 152.681395 54.381436 
L 155.760986 54.545566 
L 158.840577 54.605803 
L 158.840577 54.617723 
L 158.840577 54.617723 
L 155.760986 54.566422 
L 152.681395 54.393087 
L 149.601803 54.069081 
L 146.522212 53.637374 
L 143.442621 53.247273 
L 140.363029 52.972239 
L 137.283438 52.733143 
L 134.203847 52.283406 
L 132.664051 51.930035 
L 131.124255 51.47084 
L 129.58446 50.855742 
L 128.044664 50.269479 
L 126.504868 49.64285 
L 124.965073 49.141889 
L 123.425277 48.611985 
L 121.885481 48.146694 
L 120.345686 47.657614 
L 118.80589 47.097419 
L 117.266094 46.417766 
L 115.726299 45.440293 
L 114.186503 44.238274 
L 112.646707 42.623515 
L 111.106912 40.60172 
L 109.567116 38.159233 
L 108.02732 35.361915 
L 106.487525 32.463436 
L 104.947729 29.769394 
L 103.407933 27.274404 
L 101.868138 25.11837 
L 100.328342 23.097584 
L 98.788546 22.189258 
L 97.248751 21.893266 
L 95.708955 22.587636 
L 94.169159 23.960575 
L 92.629364 26.355367 
L 91.089568 29.280564 
L 89.549772 32.035001 
L 88.009977 34.64996 
L 86.470181 36.996871 
L 84.930385 38.992874 
L 83.39059 40.963771 
L 81.850794 42.690273 
L 80.310998 44.231865 
L 78.771203 45.473692 
L 77.231407 46.431444 
L 75.691611 47.116443 
L 74.151816 47.669175 
L 72.61202 48.207841 
L 69.532429 49.070357 
L 66.452837 50.17256 
L 63.373246 51.327094 
L 60.293655 52.194456 
L 57.214064 52.640094 
L 54.134472 52.929108 
L 51.054881 53.226732 
L 47.97529 53.626079 
L 44.895698 54.049145 
L 41.816107 54.387313 
L 38.736516 54.575387 
L 35.656924 54.646874 
z
" clip-path="url(#p26ccfb4fb9)" style="fill-opacity: 0.5"/>
   </g>
   <g id="PolyCollection_4">
    <path d="M 35.656924 59.254022 
L 35.656924 59.231038 
L 38.736516 59.295495 
L 41.816107 59.484628 
L 44.895698 59.823148 
L 47.97529 60.239932 
L 51.054881 60.631398 
L 54.134472 60.916934 
L 57.214064 61.199404 
L 60.293655 61.633505 
L 63.373246 62.499831 
L 66.452837 63.717227 
L 69.532429 64.882357 
L 72.61202 65.772047 
L 74.151816 66.318835 
L 75.691611 66.895475 
L 77.231407 67.61156 
L 78.771203 68.602378 
L 80.310998 69.894993 
L 81.850794 71.571077 
L 83.39059 73.67655 
L 84.930385 76.266821 
L 86.470181 78.915573 
L 88.009977 81.841269 
L 89.549772 84.530705 
L 91.089568 87.063696 
L 92.629364 89.189088 
L 94.169159 90.868505 
L 95.708955 91.813969 
L 97.248751 92.002312 
L 98.788546 91.361747 
L 100.328342 89.804984 
L 101.868138 86.968623 
L 103.407933 84.283172 
L 104.947729 81.450952 
L 106.487525 78.910519 
L 108.02732 76.63351 
L 109.567116 74.537381 
L 111.106912 72.648017 
L 112.646707 70.919013 
L 114.186503 69.395746 
L 115.726299 68.226701 
L 117.266094 67.283838 
L 118.80589 66.633923 
L 120.345686 66.09808 
L 121.885481 65.619702 
L 123.425277 65.168303 
L 124.965073 64.652853 
L 126.504868 64.174101 
L 128.044664 63.58052 
L 129.58446 63.034132 
L 131.124255 62.433064 
L 132.664051 61.974272 
L 134.203847 61.61746 
L 137.283438 61.163955 
L 140.363029 60.918069 
L 143.442621 60.633832 
L 146.522212 60.234737 
L 149.601803 59.795283 
L 152.681395 59.467194 
L 155.760986 59.291281 
L 158.840577 59.240254 
L 158.840577 59.251722 
L 158.840577 59.251722 
L 155.760986 59.317179 
L 152.681395 59.479503 
L 149.601803 59.827258 
L 146.522212 60.245042 
L 143.442621 60.641095 
L 140.363029 60.93342 
L 137.283438 61.195767 
L 134.203847 61.66004 
L 132.664051 61.987977 
L 131.124255 62.480035 
L 129.58446 63.043522 
L 128.044664 63.64692 
L 126.504868 64.183791 
L 124.965073 64.719839 
L 123.425277 65.179995 
L 121.885481 65.689206 
L 120.345686 66.109785 
L 118.80589 66.714369 
L 117.266094 67.329569 
L 115.726299 68.319574 
L 114.186503 69.440718 
L 112.646707 70.974085 
L 111.106912 72.692635 
L 109.567116 74.595088 
L 108.02732 76.676936 
L 106.487525 79.049271 
L 104.947729 81.492606 
L 103.407933 84.416815 
L 101.868138 87.12301 
L 100.328342 89.949423 
L 98.788546 91.483613 
L 97.248751 92.149325 
L 95.708955 91.951629 
L 94.169159 91.036614 
L 92.629364 89.352231 
L 91.089568 87.209774 
L 89.549772 84.679532 
L 88.009977 81.925903 
L 86.470181 79.028762 
L 84.930385 76.450464 
L 83.39059 73.815127 
L 81.850794 71.589448 
L 80.310998 69.929365 
L 78.771203 68.698517 
L 77.231407 67.655053 
L 75.691611 66.933983 
L 74.151816 66.362631 
L 72.61202 65.844624 
L 69.532429 64.935199 
L 66.452837 63.827526 
L 63.373246 62.580777 
L 60.293655 61.658708 
L 57.214064 61.23164 
L 54.134472 60.974623 
L 51.054881 60.678512 
L 47.97529 60.271657 
L 44.895698 59.839949 
L 41.816107 59.50393 
L 38.736516 59.313676 
L 35.656924 59.254022 
z
" clip-path="url(#p26ccfb4fb9)" style="fill-opacity: 0.5"/>
   </g>
   <g id="PolyCollection_5">
    <path d="M 78.771203 50.739176 
L 78.771203 50.734249 
L 80.003039 49.883967 
L 81.234876 48.837969 
L 82.466712 47.641834 
L 83.698549 46.308857 
L 84.930385 44.934134 
L 86.162222 43.454738 
L 87.394059 41.847977 
L 88.625895 40.10487 
L 89.857732 38.130548 
L 91.089568 35.991837 
L 92.321405 33.744847 
L 93.553241 31.694383 
L 94.785078 30.19476 
L 96.016914 29.38822 
L 97.248751 29.005661 
L 98.480587 29.276427 
L 99.712424 29.990952 
L 100.94426 31.121546 
L 102.176097 32.529643 
L 103.407933 34.211416 
L 104.63977 36.087135 
L 105.871606 38.037253 
L 107.103443 40.059044 
L 108.33528 42.067212 
L 109.567116 43.98559 
L 110.798953 45.752031 
L 112.030789 47.315518 
L 113.262626 48.63572 
L 114.494462 49.736968 
L 115.726299 50.632801 
L 118.80589 51.881291 
L 121.885481 52.367111 
L 124.965073 52.927148 
L 128.044664 53.824469 
L 131.124255 54.8035 
L 134.203847 55.416612 
L 137.283438 55.638613 
L 140.363029 55.695948 
L 143.442621 55.757027 
L 146.522212 55.927659 
L 149.601803 56.134523 
L 152.681395 56.291798 
L 155.760986 56.342881 
L 158.840577 56.305846 
L 158.840577 56.319908 
L 158.840577 56.319908 
L 155.760986 56.351688 
L 152.681395 56.309067 
L 149.601803 56.14931 
L 146.522212 55.937162 
L 143.442621 55.764424 
L 140.363029 55.703244 
L 137.283438 55.646449 
L 134.203847 55.423046 
L 131.124255 54.807285 
L 128.044664 53.827243 
L 124.965073 52.930387 
L 121.885481 52.37347 
L 118.80589 51.89016 
L 115.726299 50.63845 
L 114.494462 49.74315 
L 113.262626 48.640211 
L 112.030789 47.327106 
L 110.798953 45.764451 
L 109.567116 44.000022 
L 108.33528 42.08596 
L 107.103443 40.076947 
L 105.871606 38.060468 
L 104.63977 36.112333 
L 103.407933 34.242306 
L 102.176097 32.568939 
L 100.94426 31.168499 
L 99.712424 30.043548 
L 98.480587 29.323535 
L 97.248751 29.051852 
L 96.016914 29.408702 
L 94.785078 30.225462 
L 93.553241 31.719996 
L 92.321405 33.764554 
L 91.089568 36.006029 
L 89.857732 38.145154 
L 88.625895 40.117229 
L 87.394059 41.86028 
L 86.162222 43.463234 
L 84.930385 44.941587 
L 83.698549 46.318578 
L 82.466712 47.649012 
L 81.234876 48.845803 
L 80.003039 49.891099 
L 78.771203 50.739176 
z
" clip-path="url(#p26ccfb4fb9)" style="fill: #d62728; fill-opacity: 0.5"/>
   </g>
   <g id="PolyCollection_6">
    <path d="M 78.771203 63.197751 
L 78.771203 63.192227 
L 80.003039 64.101344 
L 81.234876 65.21562 
L 82.466712 66.542642 
L 83.698549 68.154682 
L 84.930385 69.953295 
L 86.162222 71.9079 
L 87.394059 73.940507 
L 88.625895 75.916229 
L 89.857732 77.827939 
L 91.089568 79.633102 
L 92.321405 81.319929 
L 93.553241 82.746176 
L 94.785078 83.842931 
L 96.016914 84.492183 
L 97.248751 84.694114 
L 98.480587 84.333487 
L 99.712424 83.443277 
L 100.94426 81.905213 
L 102.176097 79.906745 
L 103.407933 77.717998 
L 104.63977 75.584921 
L 105.871606 73.66106 
L 107.103443 71.92756 
L 108.33528 70.336162 
L 109.567116 68.875394 
L 110.798953 67.505369 
L 112.030789 66.197742 
L 113.262626 65.005932 
L 114.494462 63.976084 
L 115.726299 63.145033 
L 118.80589 61.956563 
L 121.885481 61.474711 
L 124.965073 60.909005 
L 128.044664 60.011096 
L 131.124255 59.038082 
L 134.203847 58.430546 
L 137.283438 58.21609 
L 140.363029 58.16841 
L 143.442621 58.101894 
L 146.522212 57.923706 
L 149.601803 57.710686 
L 152.681395 57.552757 
L 155.760986 57.511372 
L 158.840577 57.554784 
L 158.840577 57.565529 
L 158.840577 57.565529 
L 155.760986 57.519463 
L 152.681395 57.568455 
L 149.601803 57.722597 
L 146.522212 57.933358 
L 143.442621 58.108804 
L 140.363029 58.177205 
L 137.283438 58.224054 
L 134.203847 58.438074 
L 131.124255 59.041868 
L 128.044664 60.013494 
L 124.965073 60.912936 
L 121.885481 61.481575 
L 118.80589 61.965096 
L 115.726299 63.148857 
L 114.494462 63.981361 
L 113.262626 65.010735 
L 112.030789 66.209079 
L 110.798953 67.515844 
L 109.567116 68.893862 
L 108.33528 70.35493 
L 107.103443 71.94605 
L 105.871606 73.68364 
L 104.63977 75.603828 
L 103.407933 77.740902 
L 102.176097 79.93769 
L 100.94426 81.943444 
L 99.712424 83.490017 
L 98.480587 84.370685 
L 97.248751 84.737672 
L 96.016914 84.522596 
L 94.785078 83.882628 
L 93.553241 82.797613 
L 92.321405 81.357683 
L 91.089568 79.676691 
L 89.857732 77.870957 
L 88.625895 75.949426 
L 87.394059 73.96826 
L 86.162222 71.933022 
L 84.930385 69.97051 
L 83.698549 68.171632 
L 82.466712 66.551582 
L 81.234876 65.225331 
L 80.003039 64.111844 
L 78.771203 63.197751 
z
" clip-path="url(#p26ccfb4fb9)" style="fill: #d62728; fill-opacity: 0.5"/>
   </g>
   <g id="matplotlib.axis_1">
    <g id="xtick_1">
     <g id="line2d_1">
      <defs>
       <path id="m62699c67f3" d="M 0 0 
L 0 -2 
" style="stroke: #000000; stroke-width: 0.5"/>
      </defs>
      <g>
       <use xlink:href="#m62699c67f3" x="35.656924" y="95.670687" style="stroke: #000000; stroke-width: 0.5"/>
      </g>
     </g>
     <g id="line2d_2">
      <defs>
       <path id="m16292873bc" d="M 0 0 
L 0 2 
" style="stroke: #000000; stroke-width: 0.5"/>
      </defs>
      <g>
       <use xlink:href="#m16292873bc" x="35.656924" y="18.20072" style="stroke: #000000; stroke-width: 0.5"/>
      </g>
     </g>
    </g>
    <g id="xtick_2">
     <g id="line2d_3">
      <g>
       <use xlink:href="#m62699c67f3" x="66.452837" y="95.670687" style="stroke: #000000; stroke-width: 0.5"/>
      </g>
     </g>
     <g id="line2d_4">
      <g>
       <use xlink:href="#m16292873bc" x="66.452837" y="18.20072" style="stroke: #000000; stroke-width: 0.5"/>
      </g>
     </g>
    </g>
    <g id="xtick_3">
     <g id="line2d_5">
      <g>
       <use xlink:href="#m62699c67f3" x="97.248751" y="95.670687" style="stroke: #000000; stroke-width: 0.5"/>
      </g>
     </g>
     <g id="line2d_6">
      <g>
       <use xlink:href="#m16292873bc" x="97.248751" y="18.20072" style="stroke: #000000; stroke-width: 0.5"/>
      </g>
     </g>
    </g>
    <g id="xtick_4">
     <g id="line2d_7">
      <g>
       <use xlink:href="#m62699c67f3" x="128.044664" y="95.670687" style="stroke: #000000; stroke-width: 0.5"/>
      </g>
     </g>
     <g id="line2d_8">
      <g>
       <use xlink:href="#m16292873bc" x="128.044664" y="18.20072" style="stroke: #000000; stroke-width: 0.5"/>
      </g>
     </g>
    </g>
    <g id="xtick_5">
     <g id="line2d_9">
      <g>
       <use xlink:href="#m62699c67f3" x="158.840577" y="95.670687" style="stroke: #000000; stroke-width: 0.5"/>
      </g>
     </g>
     <g id="line2d_10">
      <g>
       <use xlink:href="#m16292873bc" x="158.840577" y="18.20072" style="stroke: #000000; stroke-width: 0.5"/>
      </g>
     </g>
    </g>
   </g>
   <g id="matplotlib.axis_2">
    <g id="ytick_1">
     <g id="line2d_11">
      <defs>
       <path id="m348d28fdf3" d="M 0 0 
L 2 0 
" style="stroke: #000000; stroke-width: 0.5"/>
      </defs>
      <g>
       <use xlink:href="#m348d28fdf3" x="29.497742" y="78.374427" style="stroke: #000000; stroke-width: 0.5"/>
      </g>
     </g>
     <g id="line2d_12">
      <defs>
       <path id="mf57a105259" d="M 0 0 
L -2 0 
" style="stroke: #000000; stroke-width: 0.5"/>
      </defs>
      <g>
       <use xlink:href="#mf57a105259" x="164.99976" y="78.374427" style="stroke: #000000; stroke-width: 0.5"/>
      </g>
     </g>
     <g id="text_1">
      <!-- −2 -->
      <g transform="translate(16.50024 81.355656) scale(0.0833 -0.0833)">
       <defs>
        <path id="ArialMT-2212" d="M 3381 1997 
L 356 1997 
L 356 2522 
L 3381 2522 
L 3381 1997 
z
" transform="scale(0.015625)"/>
        <path id="ArialMT-32" d="M 3222 541 
L 3222 0 
L 194 0 
Q 188 203 259 391 
Q 375 700 629 1000 
Q 884 1300 1366 1694 
Q 2113 2306 2375 2664 
Q 2638 3022 2638 3341 
Q 2638 3675 2398 3904 
Q 2159 4134 1775 4134 
Q 1369 4134 1125 3890 
Q 881 3647 878 3216 
L 300 3275 
Q 359 3922 746 4261 
Q 1134 4600 1788 4600 
Q 2447 4600 2831 4234 
Q 3216 3869 3216 3328 
Q 3216 3053 3103 2787 
Q 2991 2522 2730 2228 
Q 2469 1934 1863 1422 
Q 1356 997 1212 845 
Q 1069 694 975 541 
L 3222 541 
z
" transform="scale(0.015625)"/>
       </defs>
       <use xlink:href="#ArialMT-2212"/>
       <use xlink:href="#ArialMT-32" x="58.398438"/>
      </g>
     </g>
    </g>
    <g id="ytick_2">
     <g id="line2d_13">
      <g>
       <use xlink:href="#m348d28fdf3" x="29.497742" y="56.935092" style="stroke: #000000; stroke-width: 0.5"/>
      </g>
     </g>
     <g id="line2d_14">
      <g>
       <use xlink:href="#mf57a105259" x="164.99976" y="56.935092" style="stroke: #000000; stroke-width: 0.5"/>
      </g>
     </g>
     <g id="text_2">
      <!-- 0 -->
      <g transform="translate(21.365481 59.916321) scale(0.0833 -0.0833)">
       <defs>
        <path id="ArialMT-30" d="M 266 2259 
Q 266 3072 433 3567 
Q 600 4063 929 4331 
Q 1259 4600 1759 4600 
Q 2128 4600 2406 4451 
Q 2684 4303 2865 4023 
Q 3047 3744 3150 3342 
Q 3253 2941 3253 2259 
Q 3253 1453 3087 958 
Q 2922 463 2592 192 
Q 2263 -78 1759 -78 
Q 1097 -78 719 397 
Q 266 969 266 2259 
z
M 844 2259 
Q 844 1131 1108 757 
Q 1372 384 1759 384 
Q 2147 384 2411 759 
Q 2675 1134 2675 2259 
Q 2675 3391 2411 3762 
Q 2147 4134 1753 4134 
Q 1366 4134 1134 3806 
Q 844 3388 844 2259 
z
" transform="scale(0.015625)"/>
       </defs>
       <use xlink:href="#ArialMT-30"/>
      </g>
     </g>
    </g>
    <g id="ytick_3">
     <g id="line2d_15">
      <g>
       <use xlink:href="#m348d28fdf3" x="29.497742" y="35.495758" style="stroke: #000000; stroke-width: 0.5"/>
      </g>
     </g>
     <g id="line2d_16">
      <g>
       <use xlink:href="#mf57a105259" x="164.99976" y="35.495758" style="stroke: #000000; stroke-width: 0.5"/>
      </g>
     </g>
     <g id="text_3">
      <!-- 2 -->
      <g transform="translate(21.365481 38.476987) scale(0.0833 -0.0833)">
       <use xlink:href="#ArialMT-32"/>
      </g>
     </g>
    </g>
    <g id="text_4">
     <!-- $I_\mathrm{c}$ (μA) -->
     <g transform="translate(10.30024 71.985704) rotate(-90) scale(0.1 -0.1)">
      <defs>
       <path id="Cmmi10-49" d="M 269 0 
Q 206 0 206 84 
Q 231 225 288 225 
Q 666 225 800 250 
Q 947 284 984 441 
L 1863 3956 
Q 1875 4019 1875 4038 
Q 1875 4078 1854 4095 
Q 1834 4113 1791 4122 
Q 1663 4147 1306 4147 
Q 1241 4147 1241 4231 
Q 1263 4313 1275 4342 
Q 1288 4372 1350 4372 
L 3138 4372 
Q 3200 4372 3200 4288 
Q 3197 4272 3187 4234 
Q 3178 4197 3162 4172 
Q 3147 4147 3116 4147 
Q 2741 4147 2597 4122 
Q 2456 4088 2419 3928 
L 1544 416 
Q 1528 338 1528 331 
Q 1528 316 1533 302 
Q 1538 288 1552 277 
Q 1566 266 1580 261 
Q 1594 256 1613 250 
Q 1734 225 2100 225 
Q 2163 225 2163 141 
Q 2141 50 2128 25 
Q 2116 0 2053 0 
L 269 0 
z
" transform="scale(0.015625)"/>
       <path id="Cmr10-63" d="M 1594 -72 
Q 1206 -72 890 129 
Q 575 331 394 667 
Q 213 1003 213 1381 
Q 213 1759 392 2106 
Q 572 2453 889 2661 
Q 1206 2869 1594 2869 
Q 1969 2869 2276 2722 
Q 2584 2575 2584 2241 
Q 2584 2116 2495 2023 
Q 2406 1931 2278 1931 
Q 2150 1931 2061 2023 
Q 1972 2116 1972 2241 
Q 1972 2353 2044 2436 
Q 2116 2519 2222 2541 
Q 2000 2681 1600 2681 
Q 1294 2681 1106 2478 
Q 919 2275 844 1975 
Q 769 1675 769 1381 
Q 769 1072 861 783 
Q 953 494 1158 305 
Q 1363 116 1672 116 
Q 1975 116 2187 302 
Q 2400 488 2478 788 
Q 2478 825 2528 825 
L 2606 825 
Q 2625 825 2640 808 
Q 2656 791 2656 769 
L 2656 750 
Q 2559 372 2271 150 
Q 1984 -72 1594 -72 
z
" transform="scale(0.015625)"/>
       <path id="ArialMT-20" transform="scale(0.015625)"/>
       <path id="ArialMT-28" d="M 1497 -1347 
Q 1031 -759 709 28 
Q 388 816 388 1659 
Q 388 2403 628 3084 
Q 909 3875 1497 4659 
L 1900 4659 
Q 1522 4009 1400 3731 
Q 1209 3300 1100 2831 
Q 966 2247 966 1656 
Q 966 153 1900 -1347 
L 1497 -1347 
z
" transform="scale(0.015625)"/>
       <path id="ArialMT-3bc" d="M 3181 3319 
L 3181 0 
L 2678 0 
L 2678 394 
Q 2516 144 2356 50 
Q 2138 -78 1847 -78 
Q 1588 -78 1388 25 
Q 1238 103 1056 334 
L 1056 -1272 
L 500 -1272 
L 500 3319 
L 1056 3319 
L 1056 1913 
Q 1056 1147 1137 920 
Q 1219 694 1401 562 
Q 1584 431 1822 431 
Q 2072 431 2269 568 
Q 2466 706 2547 923 
Q 2628 1141 2628 1903 
L 2628 3319 
L 3181 3319 
z
" transform="scale(0.015625)"/>
       <path id="ArialMT-41" d="M -9 0 
L 1750 4581 
L 2403 4581 
L 4278 0 
L 3588 0 
L 3053 1388 
L 1138 1388 
L 634 0 
L -9 0 
z
M 1313 1881 
L 2866 1881 
L 2388 3150 
Q 2169 3728 2063 4100 
Q 1975 3659 1816 3225 
L 1313 1881 
z
" transform="scale(0.015625)"/>
       <path id="ArialMT-29" d="M 791 -1347 
L 388 -1347 
Q 1322 153 1322 1656 
Q 1322 2244 1188 2822 
Q 1081 3291 891 3722 
Q 769 4003 388 4659 
L 791 4659 
Q 1378 3875 1659 3084 
Q 1900 2403 1900 1659 
Q 1900 816 1576 28 
Q 1253 -759 791 -1347 
z
" transform="scale(0.015625)"/>
      </defs>
      <use xlink:href="#Cmmi10-49" transform="translate(0 0.203125)"/>
      <use xlink:href="#Cmr10-63" transform="translate(43.896484 -16.803125) scale(0.7)"/>
      <use xlink:href="#ArialMT-20" transform="translate(81.343164 0.203125)"/>
      <use xlink:href="#ArialMT-28" transform="translate(109.126367 0.203125)"/>
      <use xlink:href="#ArialMT-3bc" transform="translate(142.427148 0.203125)"/>
      <use xlink:href="#ArialMT-41" transform="translate(200.044336 0.203125)"/>
      <use xlink:href="#ArialMT-29" transform="translate(266.743555 0.203125)"/>
     </g>
    </g>
   </g>
   <g id="line2d_17">
    <path d="M 29.497742 56.935092 
L 164.99976 56.935092 
" clip-path="url(#p26ccfb4fb9)" style="fill: none; stroke: #d3d3d3; stroke-width: 0.5; stroke-linecap: square"/>
   </g>
   <g id="line2d_18">
    <path d="M 97.248751 95.670687 
L 97.248751 18.20072 
" clip-path="url(#p26ccfb4fb9)" style="fill: none; stroke: #d3d3d3; stroke-width: 0.5; stroke-linecap: square"/>
   </g>
   <g id="patch_3">
    <path d="M 29.497742 95.670687 
L 29.497742 18.20072 
" style="fill: none; stroke: #000000; stroke-width: 0.5; stroke-linejoin: miter; stroke-linecap: square"/>
   </g>
   <g id="patch_4">
    <path d="M 164.99976 95.670687 
L 164.99976 18.20072 
" style="fill: none; stroke: #000000; stroke-width: 0.5; stroke-linejoin: miter; stroke-linecap: square"/>
   </g>
   <g id="patch_5">
    <path d="M 29.497742 95.670687 
L 164.99976 95.670687 
" style="fill: none; stroke: #000000; stroke-width: 0.5; stroke-linejoin: miter; stroke-linecap: square"/>
   </g>
   <g id="patch_6">
    <path d="M 29.497742 18.20072 
L 164.99976 18.20072 
" style="fill: none; stroke: #000000; stroke-width: 0.5; stroke-linejoin: miter; stroke-linecap: square"/>
   </g>
   <g id="line2d_19">
    <path d="M 83.698549 39.141433 
L 84.930385 37.857658 
L 86.162222 36.519804 
L 87.394059 35.083419 
L 88.625895 33.585786 
L 89.857732 32.023697 
L 91.089568 30.459813 
L 92.321405 29.038331 
L 93.553241 27.812327 
L 94.785078 26.886901 
L 96.016914 26.263824 
L 97.248751 26.141043 
L 98.480587 26.181828 
L 99.712424 26.317589 
L 100.94426 26.761821 
L 102.176097 27.644474 
L 103.407933 28.748428 
L 104.63977 30.11281 
L 105.871606 31.513905 
L 107.103443 33.036221 
L 108.33528 34.6871 
L 109.567116 36.337121 
L 110.798953 37.975372 
L 112.030789 39.512301 
L 113.262626 40.916972 
L 114.494462 42.146011 
L 115.726299 43.22775 
L 118.80589 45.389338 
L 121.885481 47.02066 
L 124.965073 48.345505 
L 128.044664 49.552497 
L 131.124255 50.702156 
L 134.203847 51.701953 
L 137.283438 52.492131 
L 140.363029 53.119864 
L 143.442621 53.663401 
L 146.522212 54.159186 
L 149.601803 54.599131 
L 152.681395 54.930477 
L 155.760986 55.204025 
L 158.840577 55.443244 
" clip-path="url(#p26ccfb4fb9)" style="fill: none; stroke: #1f77b4; stroke-linecap: square"/>
   </g>
   <g id="line2d_20">
    <path d="M 83.698549 76.076507 
L 84.930385 77.695375 
L 86.162222 79.334192 
L 87.394059 80.940469 
L 88.625895 82.519155 
L 89.857732 83.962317 
L 91.089568 85.292196 
L 92.321405 86.38484 
L 93.553241 87.295555 
L 94.785078 87.893602 
L 96.016914 88.195945 
L 97.248751 87.848299 
L 98.480587 87.382251 
L 99.712424 86.856848 
L 100.94426 86.021475 
L 102.176097 84.791615 
L 103.407933 83.370333 
L 104.63977 81.815519 
L 105.871606 80.299282 
L 107.103443 78.798843 
L 108.33528 77.382946 
L 109.567116 76.041792 
L 110.798953 74.754391 
L 112.030789 73.53766 
L 113.262626 72.365567 
L 114.494462 71.282665 
L 115.726299 70.283771 
L 118.80589 68.217382 
L 121.885481 66.657388 
L 124.965073 65.390051 
L 128.044664 64.237934 
L 131.124255 63.145381 
L 134.203847 62.170707 
L 137.283438 61.376967 
L 140.363029 60.745483 
L 143.442621 60.199521 
L 146.522212 59.699493 
L 149.601803 59.256891 
L 152.681395 58.9245 
L 155.760986 58.649688 
L 158.840577 58.406209 
" clip-path="url(#p26ccfb4fb9)" style="fill: none; stroke: #1f77b4; stroke-linecap: square"/>
   </g>
   <g id="line2d_21">
    <path d="M 35.656924 54.635802 
L 38.736516 54.565477 
L 41.816107 54.379289 
L 44.895698 54.040311 
L 47.97529 53.609224 
L 51.054881 53.199182 
L 54.134472 52.893667 
L 57.214064 52.623773 
L 60.293655 52.182393 
L 63.373246 51.286404 
L 66.452837 50.116566 
L 69.532429 49.044784 
L 72.61202 48.170426 
L 74.151816 47.649049 
L 75.691611 47.098243 
L 77.231407 46.409028 
L 78.771203 45.42627 
L 80.310998 44.210308 
L 81.850794 42.681344 
L 83.39059 40.906865 
L 84.930385 38.916031 
L 86.470181 36.967917 
L 88.009977 34.612491 
L 89.549772 32.010249 
L 91.089568 29.253727 
L 92.629364 26.31371 
L 94.169159 23.915018 
L 95.708955 22.512141 
L 97.248751 21.807674 
L 98.788546 22.078105 
L 100.328342 23.031186 
L 101.868138 25.048034 
L 103.407933 27.162821 
L 104.947729 29.73858 
L 106.487525 32.424394 
L 108.02732 35.329885 
L 109.567116 38.118431 
L 111.106912 40.575588 
L 112.646707 42.599544 
L 114.186503 44.2169 
L 115.726299 45.404202 
L 117.266094 46.395297 
L 118.80589 47.05803 
L 120.345686 47.652469 
L 121.885481 48.112106 
L 123.425277 48.607226 
L 124.965073 49.106716 
L 126.504868 49.638169 
L 128.044664 50.236834 
L 129.58446 50.852936 
L 131.124255 51.447974 
L 132.664051 51.92499 
L 134.203847 52.26189 
L 137.283438 52.720126 
L 140.363029 52.965176 
L 143.442621 53.244517 
L 146.522212 53.63274 
L 149.601803 54.052713 
L 152.681395 54.387262 
L 155.760986 54.555994 
L 158.840577 54.611763 
" clip-path="url(#p26ccfb4fb9)" style="fill: none; stroke: #000000; stroke-linecap: square"/>
   </g>
   <g id="line2d_22">
    <path d="M 35.656924 59.24253 
L 38.736516 59.304586 
L 41.816107 59.494279 
L 44.895698 59.831548 
L 47.97529 60.255795 
L 51.054881 60.654955 
L 54.134472 60.945779 
L 57.214064 61.215522 
L 60.293655 61.646106 
L 63.373246 62.540304 
L 66.452837 63.772376 
L 69.532429 64.908778 
L 72.61202 65.808335 
L 74.151816 66.340733 
L 75.691611 66.914729 
L 77.231407 67.633307 
L 78.771203 68.650447 
L 80.310998 69.912179 
L 81.850794 71.580262 
L 83.39059 73.745838 
L 84.930385 76.358642 
L 86.470181 78.972168 
L 88.009977 81.883586 
L 89.549772 84.605118 
L 91.089568 87.136735 
L 92.629364 89.27066 
L 94.169159 90.952559 
L 95.708955 91.882799 
L 97.248751 92.075819 
L 98.788546 91.42268 
L 100.328342 89.877203 
L 101.868138 87.045817 
L 103.407933 84.349994 
L 104.947729 81.471779 
L 106.487525 78.979895 
L 108.02732 76.655223 
L 109.567116 74.566234 
L 111.106912 72.670326 
L 112.646707 70.946549 
L 114.186503 69.418232 
L 115.726299 68.273138 
L 117.266094 67.306703 
L 118.80589 66.674146 
L 120.345686 66.103933 
L 121.885481 65.654454 
L 123.425277 65.174149 
L 124.965073 64.686346 
L 126.504868 64.178946 
L 128.044664 63.61372 
L 129.58446 63.038827 
L 131.124255 62.456549 
L 132.664051 61.981125 
L 134.203847 61.63875 
L 137.283438 61.179861 
L 140.363029 60.925745 
L 143.442621 60.637464 
L 146.522212 60.239889 
L 149.601803 59.811271 
L 152.681395 59.473349 
L 155.760986 59.30423 
L 158.840577 59.245988 
" clip-path="url(#p26ccfb4fb9)" style="fill: none; stroke: #000000; stroke-linecap: square"/>
   </g>
   <g id="line2d_23">
    <path d="M 78.771203 50.736712 
L 80.003039 49.887533 
L 81.234876 48.841886 
L 82.466712 47.645423 
L 83.698549 46.313718 
L 84.930385 44.93786 
L 86.162222 43.458986 
L 87.394059 41.854128 
L 88.625895 40.111049 
L 89.857732 38.137851 
L 91.089568 35.998933 
L 92.321405 33.754701 
L 93.553241 31.707189 
L 94.785078 30.210111 
L 96.016914 29.398461 
L 97.248751 29.028757 
L 98.480587 29.299981 
L 99.712424 30.01725 
L 100.94426 31.145023 
L 102.176097 32.549291 
L 103.407933 34.226861 
L 104.63977 36.099734 
L 105.871606 38.048861 
L 107.103443 40.067995 
L 108.33528 42.076586 
L 109.567116 43.992806 
L 110.798953 45.758241 
L 112.030789 47.321312 
L 113.262626 48.637965 
L 114.494462 49.740059 
L 115.726299 50.635625 
L 118.80589 51.885725 
L 121.885481 52.370291 
L 124.965073 52.928768 
L 128.044664 53.825856 
L 131.124255 54.805393 
L 134.203847 55.419829 
L 137.283438 55.642531 
L 140.363029 55.699596 
L 143.442621 55.760726 
L 146.522212 55.93241 
L 149.601803 56.141917 
L 152.681395 56.300432 
L 155.760986 56.347284 
L 158.840577 56.312877 
" clip-path="url(#p26ccfb4fb9)" style="fill: none; stroke: #d62728; stroke-linecap: square"/>
   </g>
   <g id="line2d_24">
    <path d="M 78.771203 63.194989 
L 80.003039 64.106594 
L 81.234876 65.220475 
L 82.466712 66.547112 
L 83.698549 68.163157 
L 84.930385 69.961902 
L 86.162222 71.920461 
L 87.394059 73.954383 
L 88.625895 75.932827 
L 89.857732 77.849448 
L 91.089568 79.654897 
L 92.321405 81.338806 
L 93.553241 82.771894 
L 94.785078 83.86278 
L 96.016914 84.507389 
L 97.248751 84.715893 
L 98.480587 84.352086 
L 99.712424 83.466647 
L 100.94426 81.924329 
L 102.176097 79.922218 
L 103.407933 77.72945 
L 104.63977 75.594375 
L 105.871606 73.67235 
L 107.103443 71.936805 
L 108.33528 70.345546 
L 109.567116 68.884628 
L 110.798953 67.510606 
L 112.030789 66.20341 
L 113.262626 65.008333 
L 114.494462 63.978722 
L 115.726299 63.146945 
L 118.80589 61.960829 
L 121.885481 61.478143 
L 124.965073 60.91097 
L 128.044664 60.012295 
L 131.124255 59.039975 
L 134.203847 58.43431 
L 137.283438 58.220072 
L 140.363029 58.172807 
L 143.442621 58.105349 
L 146.522212 57.928532 
L 149.601803 57.716641 
L 152.681395 57.560606 
L 155.760986 57.515417 
L 158.840577 57.560157 
" clip-path="url(#p26ccfb4fb9)" style="fill: none; stroke: #d62728; stroke-linecap: square"/>
   </g>
   <g id="line2d_25">
    <path d="M 96.157926 88.224936 
L 98.339576 25.645249 
" clip-path="url(#p26ccfb4fb9)" style="fill: none"/>
    <defs>
     <path id="m8830ae980f" d="M 0 -1 
L -1 1 
L 1 1 
z
" style="stroke: #1f77b4; stroke-width: 0.5; stroke-linejoin: miter"/>
    </defs>
    <g clip-path="url(#p26ccfb4fb9)">
     <use xlink:href="#m8830ae980f" x="96.157926" y="88.224936" style="fill: #1f77b4; stroke: #1f77b4; stroke-width: 0.5; stroke-linejoin: miter"/>
     <use xlink:href="#m8830ae980f" x="98.339576" y="25.645249" style="fill: #1f77b4; stroke: #1f77b4; stroke-width: 0.5; stroke-linejoin: miter"/>
    </g>
   </g>
   <g id="line2d_26">
    <path d="M 96.839652 92.130539 
L 97.657849 21.739646 
" clip-path="url(#p26ccfb4fb9)" style="fill: none"/>
    <defs>
     <path id="m36937d8f3a" d="M 0 1 
C 0.265203 1 0.51958 0.894634 0.707107 0.707107 
C 0.894634 0.51958 1 0.265203 1 0 
C 1 -0.265203 0.894634 -0.51958 0.707107 -0.707107 
C 0.51958 -0.894634 0.265203 -1 0 -1 
C -0.265203 -1 -0.51958 -0.894634 -0.707107 -0.707107 
C -0.894634 -0.51958 -1 -0.265203 -1 0 
C -1 0.265203 -0.894634 0.51958 -0.707107 0.707107 
C -0.51958 0.894634 -0.265203 1 0 1 
z
" style="stroke: #000000; stroke-width: 0.5"/>
    </defs>
    <g clip-path="url(#p26ccfb4fb9)">
     <use xlink:href="#m36937d8f3a" x="96.839652" y="92.130539" style="stroke: #000000; stroke-width: 0.5"/>
     <use xlink:href="#m36937d8f3a" x="97.657849" y="21.739646" style="stroke: #000000; stroke-width: 0.5"/>
    </g>
   </g>
   <g id="line2d_27">
    <path d="M 97.164046 84.778661 
L 97.333455 29.091524 
" clip-path="url(#p26ccfb4fb9)" style="fill: none"/>
    <defs>
     <path id="m44f60a5bd1" d="M -0 1 
L 1 -1 
L -1 -1 
z
" style="stroke: #d62728; stroke-width: 0.5; stroke-linejoin: miter"/>
    </defs>
    <g clip-path="url(#p26ccfb4fb9)">
     <use xlink:href="#m44f60a5bd1" x="97.164046" y="84.778661" style="fill: #d62728; stroke: #d62728; stroke-width: 0.5; stroke-linejoin: miter"/>
     <use xlink:href="#m44f60a5bd1" x="97.333455" y="29.091524" style="fill: #d62728; stroke: #d62728; stroke-width: 0.5; stroke-linejoin: miter"/>
    </g>
   </g>
  </g>
  <g id="axes_2">
   <g id="patch_7">
    <path d="M 29.497742 179.141135 
L 164.99976 179.141135 
L 164.99976 101.671167 
L 29.497742 101.671167 
L 29.497742 179.141135 
z
" style="fill: none"/>
   </g>
   <g id="PolyCollection_7">
    <path d="M 83.698549 161.547755 
L 83.698549 160.856453 
L 84.930385 164.108008 
L 86.162222 166.427597 
L 87.394059 166.632628 
L 88.625895 166.023465 
L 89.857732 163.153559 
L 91.089568 159.460967 
L 92.321405 155.361284 
L 93.553241 151.749954 
L 94.785078 148.383203 
L 96.016914 145.385425 
L 97.248751 140.625486 
L 98.480587 137.033482 
L 99.712424 133.182999 
L 100.94426 129.275036 
L 102.176097 125.441134 
L 103.407933 121.270952 
L 104.63977 118.083785 
L 105.871606 115.465526 
L 107.103443 114.145406 
L 108.33528 115.589361 
L 109.567116 118.262747 
L 110.798953 122.15748 
L 112.030789 126.067696 
L 113.262626 129.280493 
L 114.494462 131.296339 
L 115.726299 132.366455 
L 118.80589 133.378792 
L 121.885481 134.448743 
L 124.965073 135.388406 
L 128.044664 136.880213 
L 131.124255 138.945313 
L 134.203847 140.182965 
L 137.283438 139.942955 
L 140.363029 139.632575 
L 143.442621 139.330736 
L 146.522212 138.581908 
L 149.601803 137.719561 
L 152.681395 137.05269 
L 155.760986 136.013283 
L 158.840577 134.403189 
L 158.840577 137.920174 
L 158.840577 137.920174 
L 155.760986 138.862656 
L 152.681395 138.943839 
L 149.601803 139.160033 
L 146.522212 139.407878 
L 143.442621 139.770952 
L 140.363029 140.018075 
L 137.283438 140.297465 
L 134.203847 140.470653 
L 131.124255 139.339857 
L 128.044664 137.246844 
L 124.965073 135.896559 
L 121.885481 134.664366 
L 118.80589 133.711194 
L 115.726299 132.748422 
L 114.494462 131.634273 
L 113.262626 129.581539 
L 112.030789 126.552079 
L 110.798953 122.514685 
L 109.567116 118.8643 
L 108.33528 116.236909 
L 107.103443 115.02137 
L 105.871606 116.358078 
L 104.63977 119.044375 
L 103.407933 122.183836 
L 102.176097 126.040192 
L 100.94426 129.984029 
L 99.712424 133.963169 
L 98.480587 137.587717 
L 97.248751 141.979625 
L 96.016914 145.959239 
L 94.785078 149.182324 
L 93.553241 152.593958 
L 92.321405 156.207097 
L 91.089568 160.443896 
L 89.857732 164.141949 
L 88.625895 166.952198 
L 87.394059 167.835786 
L 86.162222 167.314779 
L 84.930385 164.921247 
L 83.698549 161.547755 
z
" clip-path="url(#p73835a3fe3)" style="fill: #1f77b4; fill-opacity: 0.5"/>
   </g>
   <g id="PolyCollection_8">
    <path d="M 35.656924 143.203734 
L 35.656924 139.214439 
L 38.736516 138.541938 
L 41.816107 139.158505 
L 44.895698 139.145195 
L 47.97529 137.737871 
L 51.054881 136.151826 
L 54.134472 134.724715 
L 57.214064 136.583095 
L 60.293655 136.592943 
L 63.373246 135.029606 
L 66.452837 137.667599 
L 69.532429 141.882358 
L 72.61202 142.033659 
L 74.151816 142.958687 
L 75.691611 143.569804 
L 77.231407 144.013761 
L 78.771203 143.63714 
L 80.310998 145.225488 
L 81.850794 147.734551 
L 83.39059 152.339144 
L 84.930385 159.947159 
L 86.470181 167.693413 
L 88.009977 171.487492 
L 89.549772 169.385567 
L 91.089568 164.487399 
L 92.629364 155.030889 
L 94.169159 147.936417 
L 95.708955 143.698393 
L 97.248751 139.375171 
L 98.788546 136.07069 
L 100.328342 131.060516 
L 101.868138 122.722281 
L 103.407933 115.143651 
L 104.947729 110.170957 
L 106.487525 108.70553 
L 108.02732 113.384752 
L 109.567116 120.67145 
L 111.106912 128.373958 
L 112.646707 132.865682 
L 114.186503 134.111128 
L 115.726299 133.854133 
L 117.266094 134.676762 
L 118.80589 134.486877 
L 120.345686 136.39662 
L 121.885481 135.179821 
L 123.425277 136.841896 
L 124.965073 135.545117 
L 126.504868 137.82234 
L 128.044664 137.341352 
L 129.58446 140.951859 
L 131.124255 140.272254 
L 132.664051 141.760724 
L 134.203847 140.202047 
L 137.283438 140.8202 
L 140.363029 140.936087 
L 143.442621 140.754386 
L 146.522212 139.799694 
L 149.601803 137.282653 
L 152.681395 138.147286 
L 155.760986 136.966567 
L 158.840577 137.618024 
L 158.840577 139.673342 
L 158.840577 139.673342 
L 155.760986 140.998994 
L 152.681395 140.066143 
L 149.601803 141.85843 
L 146.522212 141.007654 
L 143.442621 141.464508 
L 140.363029 142.445029 
L 137.283438 143.618144 
L 134.203847 143.919616 
L 132.664051 142.735279 
L 131.124255 143.701293 
L 129.58446 141.468732 
L 128.044664 141.349881 
L 126.504868 138.355858 
L 124.965073 139.135315 
L 123.425277 137.365892 
L 121.885481 138.398672 
L 120.345686 136.883016 
L 118.80589 137.792113 
L 117.266094 136.442297 
L 115.726299 136.815915 
L 114.186503 135.528882 
L 112.646707 134.34898 
L 111.106912 129.607092 
L 109.567116 122.251274 
L 108.02732 114.464228 
L 106.487525 110.677506 
L 104.947729 110.999977 
L 103.407933 117.765039 
L 101.868138 124.662942 
L 100.328342 132.75084 
L 98.788546 138.175858 
L 97.248751 141.224253 
L 95.708955 145.394448 
L 94.169159 149.579024 
L 92.629364 156.706962 
L 91.089568 166.03703 
L 89.549772 171.105065 
L 88.009977 172.8666 
L 86.470181 169.438454 
L 84.930385 163.632406 
L 83.39059 155.484388 
L 81.850794 148.245079 
L 80.310998 146.460836 
L 78.771203 146.985646 
L 77.231407 145.708433 
L 75.691611 145.109572 
L 74.151816 144.791217 
L 72.61202 145.436949 
L 69.532429 144.551673 
L 66.452837 144.295569 
L 63.373246 140.902644 
L 60.293655 138.715726 
L 57.214064 139.65775 
L 54.134472 141.260268 
L 51.054881 141.750771 
L 47.97529 141.748291 
L 44.895698 141.569226 
L 41.816107 141.984481 
L 38.736516 141.809787 
L 35.656924 143.203734 
z
" clip-path="url(#p73835a3fe3)" style="fill-opacity: 0.5"/>
   </g>
   <g id="PolyCollection_9">
    <path d="M 78.771203 143.204996 
L 78.771203 142.862854 
L 80.003039 144.952812 
L 81.234876 146.7276 
L 82.466712 149.835986 
L 83.698549 155.921701 
L 84.930385 163.665775 
L 86.162222 170.456547 
L 87.394059 174.687707 
L 88.625895 174.846389 
L 89.857732 170.55888 
L 91.089568 163.41412 
L 92.321405 154.736339 
L 93.553241 146.732731 
L 94.785078 142.096853 
L 96.016914 140.371753 
L 97.248751 138.56435 
L 98.480587 137.595346 
L 99.712424 135.650116 
L 100.94426 130.766193 
L 102.176097 122.88568 
L 103.407933 114.603174 
L 104.63977 108.234329 
L 105.871606 105.19253 
L 107.103443 106.253355 
L 108.33528 110.424426 
L 109.567116 116.954298 
L 110.798953 124.057248 
L 112.030789 129.408428 
L 113.262626 132.199957 
L 114.494462 133.903493 
L 115.726299 136.001335 
L 118.80589 138.488435 
L 121.885481 138.519742 
L 124.965073 137.810573 
L 128.044664 137.038411 
L 131.124255 136.452043 
L 134.203847 136.179845 
L 137.283438 137.248885 
L 140.363029 139.376913 
L 143.442621 137.938195 
L 146.522212 135.570948 
L 149.601803 132.467629 
L 152.681395 130.679332 
L 155.760986 133.554064 
L 158.840577 137.420911 
L 158.840577 145.590765 
L 158.840577 145.590765 
L 155.760986 139.449518 
L 152.681395 141.343276 
L 149.601803 139.41082 
L 146.522212 139.478325 
L 143.442621 140.42425 
L 140.363029 142.037432 
L 137.283438 139.744862 
L 134.203847 138.071468 
L 131.124255 137.180044 
L 128.044664 137.379739 
L 124.965073 138.17802 
L 121.885481 139.111309 
L 118.80589 139.191865 
L 115.726299 136.31533 
L 114.494462 134.232214 
L 113.262626 132.431292 
L 112.030789 129.902892 
L 110.798953 124.487523 
L 109.567116 117.496915 
L 108.33528 110.96549 
L 107.103443 106.719181 
L 105.871606 105.716951 
L 104.63977 108.694308 
L 103.407933 115.112664 
L 102.176097 123.493908 
L 100.94426 131.452873 
L 99.712424 136.408159 
L 98.480587 138.223168 
L 97.248751 139.220849 
L 96.016914 140.754872 
L 94.785078 142.635452 
L 93.553241 147.380727 
L 92.321405 155.251865 
L 91.089568 164.019266 
L 89.857732 171.218553 
L 88.625895 175.416842 
L 87.394059 175.233256 
L 86.162222 170.993845 
L 84.930385 164.097801 
L 83.698549 156.436831 
L 82.466712 150.185313 
L 81.234876 147.166289 
L 80.003039 145.466831 
L 78.771203 143.204996 
z
" clip-path="url(#p73835a3fe3)" style="fill: #d62728; fill-opacity: 0.5"/>
   </g>
   <g id="matplotlib.axis_3">
    <g id="xtick_6">
     <g id="line2d_28">
      <g>
       <use xlink:href="#m62699c67f3" x="35.656924" y="179.141135" style="stroke: #000000; stroke-width: 0.5"/>
      </g>
     </g>
     <g id="line2d_29">
      <g>
       <use xlink:href="#m16292873bc" x="35.656924" y="101.671167" style="stroke: #000000; stroke-width: 0.5"/>
      </g>
     </g>
     <g id="text_5">
      <!-- −1.0 -->
      <g transform="translate(27.434954 188.603593) scale(0.0833 -0.0833)">
       <defs>
        <path id="ArialMT-31" d="M 2384 0 
L 1822 0 
L 1822 3584 
Q 1619 3391 1289 3197 
Q 959 3003 697 2906 
L 697 3450 
Q 1169 3672 1522 3987 
Q 1875 4303 2022 4600 
L 2384 4600 
L 2384 0 
z
" transform="scale(0.015625)"/>
        <path id="ArialMT-2e" d="M 581 0 
L 581 641 
L 1222 641 
L 1222 0 
L 581 0 
z
" transform="scale(0.015625)"/>
       </defs>
       <use xlink:href="#ArialMT-2212"/>
       <use xlink:href="#ArialMT-31" x="58.398438"/>
       <use xlink:href="#ArialMT-2e" x="114.013672"/>
       <use xlink:href="#ArialMT-30" x="141.796875"/>
      </g>
     </g>
    </g>
    <g id="xtick_7">
     <g id="line2d_30">
      <g>
       <use xlink:href="#m62699c67f3" x="66.452837" y="179.141135" style="stroke: #000000; stroke-width: 0.5"/>
      </g>
     </g>
     <g id="line2d_31">
      <g>
       <use xlink:href="#m16292873bc" x="66.452837" y="101.671167" style="stroke: #000000; stroke-width: 0.5"/>
      </g>
     </g>
     <g id="text_6">
      <!-- −0.5 -->
      <g transform="translate(58.230867 188.603593) scale(0.0833 -0.0833)">
       <defs>
        <path id="ArialMT-35" d="M 266 1200 
L 856 1250 
Q 922 819 1161 601 
Q 1400 384 1738 384 
Q 2144 384 2425 690 
Q 2706 997 2706 1503 
Q 2706 1984 2436 2262 
Q 2166 2541 1728 2541 
Q 1456 2541 1237 2417 
Q 1019 2294 894 2097 
L 366 2166 
L 809 4519 
L 3088 4519 
L 3088 3981 
L 1259 3981 
L 1013 2750 
Q 1425 3038 1878 3038 
Q 2478 3038 2890 2622 
Q 3303 2206 3303 1553 
Q 3303 931 2941 478 
Q 2500 -78 1738 -78 
Q 1113 -78 717 272 
Q 322 622 266 1200 
z
" transform="scale(0.015625)"/>
       </defs>
       <use xlink:href="#ArialMT-2212"/>
       <use xlink:href="#ArialMT-30" x="58.398438"/>
       <use xlink:href="#ArialMT-2e" x="114.013672"/>
       <use xlink:href="#ArialMT-35" x="141.796875"/>
      </g>
     </g>
    </g>
    <g id="xtick_8">
     <g id="line2d_32">
      <g>
       <use xlink:href="#m62699c67f3" x="97.248751" y="179.141135" style="stroke: #000000; stroke-width: 0.5"/>
      </g>
     </g>
     <g id="line2d_33">
      <g>
       <use xlink:href="#m16292873bc" x="97.248751" y="101.671167" style="stroke: #000000; stroke-width: 0.5"/>
      </g>
     </g>
     <g id="text_7">
      <!-- 0.0 -->
      <g transform="translate(91.459401 188.603593) scale(0.0833 -0.0833)">
       <use xlink:href="#ArialMT-30"/>
       <use xlink:href="#ArialMT-2e" x="55.615234"/>
       <use xlink:href="#ArialMT-30" x="83.398438"/>
      </g>
     </g>
    </g>
    <g id="xtick_9">
     <g id="line2d_34">
      <g>
       <use xlink:href="#m62699c67f3" x="128.044664" y="179.141135" style="stroke: #000000; stroke-width: 0.5"/>
      </g>
     </g>
     <g id="line2d_35">
      <g>
       <use xlink:href="#m16292873bc" x="128.044664" y="101.671167" style="stroke: #000000; stroke-width: 0.5"/>
      </g>
     </g>
     <g id="text_8">
      <!-- 0.5 -->
      <g transform="translate(122.255314 188.603593) scale(0.0833 -0.0833)">
       <use xlink:href="#ArialMT-30"/>
       <use xlink:href="#ArialMT-2e" x="55.615234"/>
       <use xlink:href="#ArialMT-35" x="83.398438"/>
      </g>
     </g>
    </g>
    <g id="xtick_10">
     <g id="line2d_36">
      <g>
       <use xlink:href="#m62699c67f3" x="158.840577" y="179.141135" style="stroke: #000000; stroke-width: 0.5"/>
      </g>
     </g>
     <g id="line2d_37">
      <g>
       <use xlink:href="#m16292873bc" x="158.840577" y="101.671167" style="stroke: #000000; stroke-width: 0.5"/>
      </g>
     </g>
     <g id="text_9">
      <!-- 1.0 -->
      <g transform="translate(153.051227 188.603593) scale(0.0833 -0.0833)">
       <use xlink:href="#ArialMT-31"/>
       <use xlink:href="#ArialMT-2e" x="55.615234"/>
       <use xlink:href="#ArialMT-30" x="83.398438"/>
      </g>
     </g>
    </g>
    <g id="text_10">
     <!-- $B_\parallel$ (T) -->
     <g transform="translate(82.298751 201.55918) scale(0.1 -0.1)">
      <defs>
       <path id="Cmmi10-42" d="M 319 0 
Q 256 0 256 84 
Q 259 100 268 137 
Q 278 175 293 200 
Q 309 225 341 225 
Q 522 225 656 234 
Q 791 244 884 269 
Q 959 297 1006 441 
L 1881 3956 
Q 1894 4019 1894 4044 
Q 1894 4113 1819 4122 
Q 1697 4147 1356 4147 
Q 1294 4147 1294 4231 
Q 1297 4247 1306 4286 
Q 1316 4325 1333 4348 
Q 1350 4372 1375 4372 
L 3669 4372 
Q 3878 4372 4083 4320 
Q 4288 4269 4461 4156 
Q 4634 4044 4736 3876 
Q 4838 3709 4838 3488 
Q 4838 3247 4714 3040 
Q 4591 2834 4395 2681 
Q 4200 2528 3973 2429 
Q 3747 2331 3500 2284 
Q 3675 2284 3854 2215 
Q 4034 2147 4175 2028 
Q 4316 1909 4402 1743 
Q 4488 1578 4488 1388 
Q 4488 1003 4219 684 
Q 3950 366 3542 183 
Q 3134 0 2753 0 
L 319 0 
z
M 1497 275 
Q 1497 225 1716 225 
L 2631 225 
Q 2944 225 3231 398 
Q 3519 572 3692 859 
Q 3866 1147 3866 1459 
Q 3866 1650 3786 1820 
Q 3706 1991 3556 2089 
Q 3406 2188 3213 2188 
L 1966 2188 
L 1522 416 
Q 1497 328 1497 275 
z
M 2009 2356 
L 2981 2356 
Q 3288 2356 3577 2512 
Q 3866 2669 4048 2937 
Q 4231 3206 4231 3506 
Q 4231 3784 4057 3965 
Q 3884 4147 3609 4147 
L 2731 4147 
Q 2559 4147 2500 4115 
Q 2441 4084 2400 3928 
L 2009 2356 
z
" transform="scale(0.015625)"/>
       <path id="STIXGeneral-Regular-2225" d="M 2522 -1210 
L 2099 -1210 
L 2099 4416 
L 2522 4416 
L 2522 -1210 
z
M 1248 -1210 
L 826 -1210 
L 826 4416 
L 1248 4416 
L 1248 -1210 
z
" transform="scale(0.015625)"/>
       <path id="ArialMT-54" d="M 1659 0 
L 1659 4041 
L 150 4041 
L 150 4581 
L 3781 4581 
L 3781 4041 
L 2266 4041 
L 2266 0 
L 1659 0 
z
" transform="scale(0.015625)"/>
      </defs>
      <use xlink:href="#Cmmi10-42" transform="translate(0 0.203125)"/>
      <use xlink:href="#STIXGeneral-Regular-2225" transform="translate(88.072266 -16.803125) scale(0.7)"/>
      <use xlink:href="#ArialMT-20" transform="translate(143.350616 0.203125)"/>
      <use xlink:href="#ArialMT-28" transform="translate(171.13382 0.203125)"/>
      <use xlink:href="#ArialMT-54" transform="translate(204.434601 0.203125)"/>
      <use xlink:href="#ArialMT-29" transform="translate(265.518585 0.203125)"/>
     </g>
    </g>
   </g>
   <g id="matplotlib.axis_4">
    <g id="ytick_4">
     <g id="line2d_38">
      <g>
       <use xlink:href="#m348d28fdf3" x="29.497742" y="168.981474" style="stroke: #000000; stroke-width: 0.5"/>
      </g>
     </g>
     <g id="line2d_39">
      <g>
       <use xlink:href="#mf57a105259" x="164.99976" y="168.981474" style="stroke: #000000; stroke-width: 0.5"/>
      </g>
     </g>
     <g id="text_11">
      <!-- −5 -->
      <g transform="translate(16.50024 171.962703) scale(0.0833 -0.0833)">
       <use xlink:href="#ArialMT-2212"/>
       <use xlink:href="#ArialMT-35" x="58.398438"/>
      </g>
     </g>
    </g>
    <g id="ytick_5">
     <g id="line2d_40">
      <g>
       <use xlink:href="#m348d28fdf3" x="29.497742" y="140.190655" style="stroke: #000000; stroke-width: 0.5"/>
      </g>
     </g>
     <g id="line2d_41">
      <g>
       <use xlink:href="#mf57a105259" x="164.99976" y="140.190655" style="stroke: #000000; stroke-width: 0.5"/>
      </g>
     </g>
     <g id="text_12">
      <!-- 0 -->
      <g transform="translate(21.365481 143.171884) scale(0.0833 -0.0833)">
       <use xlink:href="#ArialMT-30"/>
      </g>
     </g>
    </g>
    <g id="ytick_6">
     <g id="line2d_42">
      <g>
       <use xlink:href="#m348d28fdf3" x="29.497742" y="111.399837" style="stroke: #000000; stroke-width: 0.5"/>
      </g>
     </g>
     <g id="line2d_43">
      <g>
       <use xlink:href="#mf57a105259" x="164.99976" y="111.399837" style="stroke: #000000; stroke-width: 0.5"/>
      </g>
     </g>
     <g id="text_13">
      <!-- 5 -->
      <g transform="translate(21.365481 114.381066) scale(0.0833 -0.0833)">
       <use xlink:href="#ArialMT-35"/>
      </g>
     </g>
    </g>
    <g id="text_14">
     <!-- $\eta$ (%) -->
     <g transform="translate(10.30024 152.056151) rotate(-90) scale(0.1 -0.1)">
      <defs>
       <path id="Cmmi10-b4" d="M 684 -72 
Q 606 -72 550 -22 
Q 494 28 494 109 
Q 494 147 500 166 
L 978 2075 
Q 1025 2253 1025 2388 
Q 1025 2663 838 2663 
Q 638 2663 541 2423 
Q 444 2184 353 1819 
Q 353 1800 334 1789 
Q 316 1778 300 1778 
L 225 1778 
Q 203 1778 187 1801 
Q 172 1825 172 1844 
Q 241 2122 305 2315 
Q 369 2509 505 2668 
Q 641 2828 844 2828 
Q 1081 2828 1267 2678 
Q 1453 2528 1453 2291 
Q 1641 2541 1894 2684 
Q 2147 2828 2444 2828 
Q 2778 2828 2979 2648 
Q 3181 2469 3181 2138 
Q 3181 1947 3138 1784 
L 2394 -1178 
Q 2375 -1269 2300 -1325 
Q 2225 -1381 2131 -1381 
Q 2053 -1381 1997 -1332 
Q 1941 -1284 1941 -1203 
Q 1941 -1166 1947 -1153 
L 2681 1797 
Q 2747 2059 2747 2234 
Q 2747 2413 2672 2538 
Q 2597 2663 2431 2663 
Q 1803 2663 1388 1888 
L 953 141 
Q 931 53 854 -9 
Q 778 -72 684 -72 
z
" transform="scale(0.015625)"/>
       <path id="ArialMT-25" d="M 372 3481 
Q 372 3972 619 4315 
Q 866 4659 1334 4659 
Q 1766 4659 2048 4351 
Q 2331 4044 2331 3447 
Q 2331 2866 2045 2552 
Q 1759 2238 1341 2238 
Q 925 2238 648 2547 
Q 372 2856 372 3481 
z
M 1350 4272 
Q 1141 4272 1002 4090 
Q 863 3909 863 3425 
Q 863 2984 1003 2804 
Q 1144 2625 1350 2625 
Q 1563 2625 1702 2806 
Q 1841 2988 1841 3469 
Q 1841 3913 1700 4092 
Q 1559 4272 1350 4272 
z
M 1353 -169 
L 3859 4659 
L 4316 4659 
L 1819 -169 
L 1353 -169 
z
M 3334 1075 
Q 3334 1569 3581 1911 
Q 3828 2253 4300 2253 
Q 4731 2253 5014 1945 
Q 5297 1638 5297 1041 
Q 5297 459 5011 145 
Q 4725 -169 4303 -169 
Q 3888 -169 3611 142 
Q 3334 453 3334 1075 
z
M 4316 1866 
Q 4103 1866 3964 1684 
Q 3825 1503 3825 1019 
Q 3825 581 3965 400 
Q 4106 219 4313 219 
Q 4528 219 4667 400 
Q 4806 581 4806 1063 
Q 4806 1506 4665 1686 
Q 4525 1866 4316 1866 
z
" transform="scale(0.015625)"/>
      </defs>
      <use xlink:href="#Cmmi10-b4" transform="translate(0 0.203125)"/>
      <use xlink:href="#ArialMT-20" transform="translate(49.609375 0.203125)"/>
      <use xlink:href="#ArialMT-28" transform="translate(77.392578 0.203125)"/>
      <use xlink:href="#ArialMT-25" transform="translate(110.693359 0.203125)"/>
      <use xlink:href="#ArialMT-29" transform="translate(199.609375 0.203125)"/>
     </g>
    </g>
   </g>
   <g id="line2d_44">
    <path d="M 29.497742 140.190655 
L 164.99976 140.190655 
" clip-path="url(#p73835a3fe3)" style="fill: none; stroke: #d3d3d3; stroke-width: 0.5; stroke-linecap: square"/>
   </g>
   <g id="line2d_45">
    <path d="M 97.248751 179.141135 
L 97.248751 101.671167 
" clip-path="url(#p73835a3fe3)" style="fill: none; stroke: #d3d3d3; stroke-width: 0.5; stroke-linecap: square"/>
   </g>
   <g id="line2d_46"/>
   <g id="line2d_47"/>
   <g id="line2d_48"/>
   <g id="patch_8">
    <path d="M 29.497742 179.141135 
L 29.497742 101.671167 
" style="fill: none; stroke: #000000; stroke-width: 0.5; stroke-linejoin: miter; stroke-linecap: square"/>
   </g>
   <g id="patch_9">
    <path d="M 164.99976 179.141135 
L 164.99976 101.671167 
" style="fill: none; stroke: #000000; stroke-width: 0.5; stroke-linejoin: miter; stroke-linecap: square"/>
   </g>
   <g id="patch_10">
    <path d="M 29.497742 179.141135 
L 164.99976 179.141135 
" style="fill: none; stroke: #000000; stroke-width: 0.5; stroke-linejoin: miter; stroke-linecap: square"/>
   </g>
   <g id="patch_11">
    <path d="M 29.497742 101.671167 
L 164.99976 101.671167 
" style="fill: none; stroke: #000000; stroke-width: 0.5; stroke-linejoin: miter; stroke-linecap: square"/>
   </g>
   <g id="line2d_49">
    <path d="M 83.698549 161.202104 
L 84.930385 164.514627 
L 86.162222 166.871188 
L 87.394059 167.234207 
L 88.625895 166.487831 
L 89.857732 163.647754 
L 91.089568 159.952431 
L 92.321405 155.784191 
L 93.553241 152.171956 
L 94.785078 148.782764 
L 96.016914 145.672332 
L 97.248751 141.302556 
L 98.480587 137.3106 
L 99.712424 133.573084 
L 100.94426 129.629532 
L 102.176097 125.740663 
L 103.407933 121.727394 
L 104.63977 118.56408 
L 105.871606 115.911802 
L 107.103443 114.583388 
L 108.33528 115.913135 
L 109.567116 118.563524 
L 110.798953 122.336082 
L 112.030789 126.309888 
L 113.262626 129.431016 
L 114.494462 131.465306 
L 115.726299 132.557438 
L 118.80589 133.544993 
L 121.885481 134.556555 
L 124.965073 135.642483 
L 128.044664 137.063528 
L 131.124255 139.142585 
L 134.203847 140.326809 
L 137.283438 140.12021 
L 140.363029 139.825325 
L 143.442621 139.550844 
L 146.522212 138.994893 
L 149.601803 138.439797 
L 152.681395 137.998265 
L 155.760986 137.43797 
L 158.840577 136.161682 
" clip-path="url(#p73835a3fe3)" style="fill: none; stroke: #1f77b4; stroke-linecap: square"/>
   </g>
   <g id="line2d_50">
    <path d="M 35.656924 141.209086 
L 38.736516 140.175862 
L 41.816107 140.571493 
L 44.895698 140.357211 
L 47.97529 139.743081 
L 51.054881 138.951299 
L 54.134472 137.992492 
L 57.214064 138.120422 
L 60.293655 137.654335 
L 63.373246 137.966125 
L 66.452837 140.981584 
L 69.532429 143.217016 
L 72.61202 143.735304 
L 74.151816 143.874952 
L 75.691611 144.339688 
L 77.231407 144.861097 
L 78.771203 145.311393 
L 80.310998 145.843162 
L 81.850794 147.989815 
L 83.39059 153.911766 
L 84.930385 161.789782 
L 86.470181 168.565934 
L 88.009977 172.177046 
L 89.549772 170.245316 
L 91.089568 165.262215 
L 92.629364 155.868925 
L 94.169159 148.757721 
L 95.708955 144.54642 
L 97.248751 140.299712 
L 98.788546 137.123274 
L 100.328342 131.905678 
L 101.868138 123.692612 
L 103.407933 116.454345 
L 104.947729 110.585467 
L 106.487525 109.691518 
L 108.02732 113.92449 
L 109.567116 121.461362 
L 111.106912 128.990525 
L 112.646707 133.607331 
L 114.186503 134.820005 
L 115.726299 135.335024 
L 117.266094 135.559529 
L 118.80589 136.139495 
L 120.345686 136.639818 
L 121.885481 136.789246 
L 123.425277 137.103894 
L 124.965073 137.340216 
L 126.504868 138.089099 
L 128.044664 139.345616 
L 129.58446 141.210296 
L 131.124255 141.986774 
L 132.664051 142.248001 
L 134.203847 142.060831 
L 137.283438 142.219172 
L 140.363029 141.690558 
L 143.442621 141.109447 
L 146.522212 140.403674 
L 149.601803 139.570541 
L 152.681395 139.106715 
L 155.760986 138.98278 
L 158.840577 138.645683 
" clip-path="url(#p73835a3fe3)" style="fill: none; stroke: #000000; stroke-linecap: square"/>
   </g>
   <g id="legend_1">
    <g id="patch_12">
     <path d="M 118.91136 176.246135 
L 160.94676 176.246135 
Q 162.10476 176.246135 162.10476 175.088135 
L 162.10476 148.917335 
Q 162.10476 147.759335 160.94676 147.759335 
L 118.91136 147.759335 
Q 117.75336 147.759335 117.75336 148.917335 
L 117.75336 175.088135 
Q 117.75336 176.246135 118.91136 176.246135 
z
" style="fill: #ffffff; opacity: 0.8; stroke: #cccccc; stroke-linejoin: miter"/>
    </g>
    <g id="line2d_51">
     <path d="M 120.06936 152.217635 
L 125.85936 152.217635 
L 131.64936 152.217635 
" style="fill: none; stroke: #1f77b4; stroke-linecap: square"/>
     <defs>
      <path id="m081e745506" d="M 0 -1.5 
L -1.5 1.5 
L 1.5 1.5 
z
" style="stroke: #1f77b4; stroke-width: 0.5; stroke-linejoin: miter"/>
     </defs>
     <g>
      <use xlink:href="#m081e745506" x="125.85936" y="152.217635" style="fill: #1f77b4; stroke: #1f77b4; stroke-width: 0.5; stroke-linejoin: miter"/>
     </g>
    </g>
    <g id="text_15">
     <!-- $V_\mathrm{g}=$10$\,$V -->
     <g transform="translate(136.28136 154.244135) scale(0.0579 -0.0579)">
      <defs>
       <path id="Cmmi10-56" d="M 1409 -72 
L 897 4006 
Q 850 4147 416 4147 
Q 353 4147 353 4231 
Q 366 4300 384 4336 
Q 403 4372 459 4372 
L 2022 4372 
Q 2056 4372 2072 4347 
Q 2088 4322 2088 4288 
Q 2063 4147 2003 4147 
Q 1503 4147 1472 3975 
L 1894 628 
L 3866 3775 
Q 3922 3881 3922 3944 
Q 3922 4056 3820 4101 
Q 3719 4147 3584 4147 
Q 3519 4147 3519 4231 
Q 3531 4281 3540 4309 
Q 3550 4338 3569 4355 
Q 3588 4372 3628 4372 
L 4863 4372 
Q 4922 4372 4922 4288 
Q 4897 4147 4838 4147 
Q 4356 4147 4084 3725 
Q 4072 3713 4063 3713 
L 1703 -72 
Q 1656 -141 1581 -141 
L 1491 -141 
Q 1419 -141 1409 -72 
z
" transform="scale(0.015625)"/>
       <path id="Cmr10-67" d="M 178 -500 
Q 178 -272 343 -101 
Q 509 69 738 141 
Q 609 238 542 384 
Q 475 531 475 697 
Q 475 997 666 1228 
Q 372 1516 372 1888 
Q 372 2088 458 2263 
Q 544 2438 697 2566 
Q 850 2694 1037 2761 
Q 1225 2828 1422 2828 
Q 1803 2828 2106 2606 
Q 2238 2747 2417 2823 
Q 2597 2900 2791 2900 
Q 2928 2900 3015 2801 
Q 3103 2703 3103 2566 
Q 3103 2488 3043 2428 
Q 2984 2369 2906 2369 
Q 2825 2369 2765 2428 
Q 2706 2488 2706 2566 
Q 2706 2684 2784 2731 
Q 2453 2731 2216 2503 
Q 2331 2388 2401 2220 
Q 2472 2053 2472 1888 
Q 2472 1616 2322 1398 
Q 2172 1181 1926 1061 
Q 1681 941 1422 941 
Q 1072 941 781 1131 
Q 691 1006 691 850 
Q 691 681 802 554 
Q 913 428 1081 428 
L 1606 428 
Q 1988 428 2294 359 
Q 2600 291 2808 84 
Q 3016 -122 3016 -500 
Q 3016 -781 2778 -967 
Q 2541 -1153 2211 -1236 
Q 1881 -1319 1600 -1319 
Q 1316 -1319 984 -1236 
Q 653 -1153 415 -967 
Q 178 -781 178 -500 
z
M 538 -500 
Q 538 -716 713 -861 
Q 888 -1006 1134 -1076 
Q 1381 -1147 1600 -1147 
Q 1816 -1147 2062 -1076 
Q 2309 -1006 2482 -861 
Q 2656 -716 2656 -500 
Q 2656 -166 2350 -67 
Q 2044 31 1606 31 
L 1081 31 
Q 934 31 811 -39 
Q 688 -109 613 -236 
Q 538 -363 538 -500 
z
M 1422 1113 
Q 1966 1113 1966 1888 
Q 1966 2222 1850 2439 
Q 1734 2656 1422 2656 
Q 1109 2656 993 2439 
Q 878 2222 878 1888 
Q 878 1675 922 1503 
Q 966 1331 1084 1222 
Q 1203 1113 1422 1113 
z
" transform="scale(0.015625)"/>
       <path id="Cmr10-3d" d="M 481 850 
Q 428 850 393 890 
Q 359 931 359 978 
Q 359 1031 393 1068 
Q 428 1106 481 1106 
L 4500 1106 
Q 4547 1106 4581 1068 
Q 4616 1031 4616 978 
Q 4616 931 4581 890 
Q 4547 850 4500 850 
L 481 850 
z
M 481 2094 
Q 428 2094 393 2131 
Q 359 2169 359 2222 
Q 359 2269 393 2309 
Q 428 2350 481 2350 
L 4500 2350 
Q 4547 2350 4581 2309 
Q 4616 2269 4616 2222 
Q 4616 2169 4581 2131 
Q 4547 2094 4500 2094 
L 481 2094 
z
" transform="scale(0.015625)"/>
       <path id="ArialMT-56" d="M 1803 0 
L 28 4581 
L 684 4581 
L 1875 1253 
Q 2019 853 2116 503 
Q 2222 878 2363 1253 
L 3600 4581 
L 4219 4581 
L 2425 0 
L 1803 0 
z
" transform="scale(0.015625)"/>
      </defs>
      <use xlink:href="#Cmmi10-56" transform="translate(0 0.125)"/>
      <use xlink:href="#Cmr10-67" transform="translate(58.300781 -16.88125) scale(0.7)"/>
      <use xlink:href="#Cmr10-3d" transform="translate(117.236719 0.125)"/>
      <use xlink:href="#ArialMT-31" transform="translate(212.480859 0.125)"/>
      <use xlink:href="#ArialMT-30" transform="translate(268.096094 0.125)"/>
      <use xlink:href="#ArialMT-56" transform="translate(338.343782 0.125)"/>
     </g>
    </g>
    <g id="line2d_52">
     <path d="M 120.06936 161.134235 
L 125.85936 161.134235 
L 131.64936 161.134235 
" style="fill: none; stroke: #000000; stroke-linecap: square"/>
     <defs>
      <path id="m1a9a6d5744" d="M 0 1.5 
C 0.397805 1.5 0.77937 1.341951 1.06066 1.06066 
C 1.341951 0.77937 1.5 0.397805 1.5 0 
C 1.5 -0.397805 1.341951 -0.77937 1.06066 -1.06066 
C 0.77937 -1.341951 0.397805 -1.5 0 -1.5 
C -0.397805 -1.5 -0.77937 -1.341951 -1.06066 -1.06066 
C -1.341951 -0.77937 -1.5 -0.397805 -1.5 0 
C -1.5 0.397805 -1.341951 0.77937 -1.06066 1.06066 
C -0.77937 1.341951 -0.397805 1.5 0 1.5 
z
" style="stroke: #000000; stroke-width: 0.5"/>
     </defs>
     <g>
      <use xlink:href="#m1a9a6d5744" x="125.85936" y="161.134235" style="stroke: #000000; stroke-width: 0.5"/>
     </g>
    </g>
    <g id="text_16">
     <!-- $V_\mathrm{g}=$0$\,$V -->
     <g transform="translate(136.28136 163.160735) scale(0.0579 -0.0579)">
      <use xlink:href="#Cmmi10-56" transform="translate(0 0.125)"/>
      <use xlink:href="#Cmr10-67" transform="translate(58.300781 -16.88125) scale(0.7)"/>
      <use xlink:href="#Cmr10-3d" transform="translate(117.236719 0.125)"/>
      <use xlink:href="#ArialMT-30" transform="translate(212.480859 0.125)"/>
      <use xlink:href="#ArialMT-56" transform="translate(282.728548 0.125)"/>
     </g>
    </g>
    <g id="line2d_53">
     <path d="M 120.06936 170.050835 
L 125.85936 170.050835 
L 131.64936 170.050835 
" style="fill: none; stroke: #d62728; stroke-linecap: square"/>
     <defs>
      <path id="mcb0e720ad7" d="M -0 1.5 
L 1.5 -1.5 
L -1.5 -1.5 
z
" style="stroke: #d62728; stroke-width: 0.5; stroke-linejoin: miter"/>
     </defs>
     <g>
      <use xlink:href="#mcb0e720ad7" x="125.85936" y="170.050835" style="fill: #d62728; stroke: #d62728; stroke-width: 0.5; stroke-linejoin: miter"/>
     </g>
    </g>
    <g id="text_17">
     <!-- $V_\mathrm{g}&lt;$0$\,$V -->
     <g transform="translate(136.28136 172.077335) scale(0.0579 -0.0579)">
      <defs>
       <path id="Cmmi10-3c" d="M 594 1491 
Q 531 1519 531 1600 
Q 531 1681 616 1722 
L 4269 3444 
Q 4294 3456 4313 3456 
Q 4369 3456 4405 3417 
Q 4441 3378 4441 3328 
Q 4441 3250 4366 3206 
L 959 1600 
L 4384 -19 
Q 4441 -38 4441 -128 
Q 4441 -178 4405 -217 
Q 4369 -256 4313 -256 
Q 4294 -256 4269 -244 
L 594 1491 
z
" transform="scale(0.015625)"/>
      </defs>
      <use xlink:href="#Cmmi10-56" transform="translate(0 0.125)"/>
      <use xlink:href="#Cmr10-67" transform="translate(58.300781 -16.88125) scale(0.7)"/>
      <use xlink:href="#Cmmi10-3c" transform="translate(117.236719 0.125)"/>
      <use xlink:href="#ArialMT-30" transform="translate(212.480859 0.125)"/>
      <use xlink:href="#ArialMT-56" transform="translate(282.728548 0.125)"/>
     </g>
    </g>
   </g>
   <g id="line2d_54">
    <path d="M 78.771203 143.033925 
L 80.003039 145.209822 
L 81.234876 146.946945 
L 82.466712 150.01065 
L 83.698549 156.179266 
L 84.930385 163.881788 
L 86.162222 170.725196 
L 87.394059 174.960482 
L 88.625895 175.131615 
L 89.857732 170.888716 
L 91.089568 163.716693 
L 92.321405 154.994102 
L 93.553241 147.056729 
L 94.785078 142.366152 
L 96.016914 140.563313 
L 97.248751 138.892599 
L 98.480587 137.909257 
L 99.712424 136.029138 
L 100.94426 131.109533 
L 102.176097 123.189794 
L 103.407933 114.857919 
L 104.63977 108.464319 
L 105.871606 105.45474 
L 107.103443 106.486268 
L 108.33528 110.694958 
L 109.567116 117.225606 
L 110.798953 124.272386 
L 112.030789 129.65566 
L 113.262626 132.315625 
L 114.494462 134.067854 
L 115.726299 136.158333 
L 118.80589 138.84015 
L 121.885481 138.815525 
L 124.965073 137.994296 
L 128.044664 137.209075 
L 131.124255 136.816043 
L 134.203847 137.125656 
L 137.283438 138.496874 
L 140.363029 140.707172 
L 143.442621 139.181222 
L 146.522212 137.524636 
L 149.601803 135.939225 
L 152.681395 136.011304 
L 155.760986 136.501791 
L 158.840577 141.505838 
" clip-path="url(#p73835a3fe3)" style="fill: none; stroke: #d62728; stroke-linecap: square"/>
   </g>
   <g id="line2d_55">
    <path d="M 87.049144 167.262185 
L 107.091125 114.583284 
" clip-path="url(#p73835a3fe3)" style="fill: none"/>
    <g clip-path="url(#p73835a3fe3)">
     <use xlink:href="#m8830ae980f" x="87.049144" y="167.262185" style="fill: #1f77b4; stroke: #1f77b4; stroke-width: 0.5; stroke-linejoin: miter"/>
     <use xlink:href="#m8830ae980f" x="107.091125" y="114.583284" style="fill: #1f77b4; stroke: #1f77b4; stroke-width: 0.5; stroke-linejoin: miter"/>
    </g>
   </g>
   <g id="line2d_56">
    <path d="M 88.163956 172.210909 
L 105.951676 109.360562 
" clip-path="url(#p73835a3fe3)" style="fill: none"/>
    <g clip-path="url(#p73835a3fe3)">
     <use xlink:href="#m36937d8f3a" x="88.163956" y="172.210909" style="stroke: #000000; stroke-width: 0.5"/>
     <use xlink:href="#m36937d8f3a" x="105.951676" y="109.360562" style="stroke: #000000; stroke-width: 0.5"/>
    </g>
   </g>
   <g id="line2d_57">
    <path d="M 88.065409 175.619773 
L 106.142611 105.350194 
" clip-path="url(#p73835a3fe3)" style="fill: none"/>
    <g clip-path="url(#p73835a3fe3)">
     <use xlink:href="#m44f60a5bd1" x="88.065409" y="175.619773" style="fill: #d62728; stroke: #d62728; stroke-width: 0.5; stroke-linejoin: miter"/>
     <use xlink:href="#m44f60a5bd1" x="106.142611" y="105.350194" style="fill: #d62728; stroke: #d62728; stroke-width: 0.5; stroke-linejoin: miter"/>
    </g>
   </g>
  </g>
  <g id="text_18">
   <!-- $W_\mathrm{sc}=$0.6$\,$μm -->
   <g transform="translate(55.65 10.20024) scale(0.1 -0.1)">
    <defs>
     <path id="Cmmi10-57" d="M 1141 -72 
L 844 4006 
Q 822 4100 703 4123 
Q 584 4147 409 4147 
Q 347 4147 347 4231 
Q 369 4313 381 4342 
Q 394 4372 453 4372 
L 1978 4372 
Q 2041 4372 2041 4288 
Q 2016 4147 1959 4147 
Q 1447 4147 1416 3969 
L 1644 738 
L 3244 3525 
L 3213 4006 
Q 3191 4100 3072 4123 
Q 2953 4147 2778 4147 
Q 2713 4147 2713 4231 
Q 2734 4313 2746 4342 
Q 2759 4372 2822 4372 
L 4347 4372 
Q 4409 4372 4409 4288 
Q 4406 4272 4397 4234 
Q 4388 4197 4372 4172 
Q 4356 4147 4325 4147 
Q 3809 4147 3781 3969 
L 3781 3922 
L 4013 738 
L 5753 3775 
Q 5791 3844 5791 3909 
Q 5791 4041 5662 4094 
Q 5534 4147 5375 4147 
Q 5313 4147 5313 4231 
Q 5325 4281 5333 4309 
Q 5341 4338 5361 4355 
Q 5381 4372 5422 4372 
L 6644 4372 
Q 6706 4372 6706 4288 
Q 6703 4272 6693 4233 
Q 6684 4194 6667 4170 
Q 6650 4147 6625 4147 
Q 6169 4147 5931 3731 
Q 5913 3713 5913 3713 
L 3744 -72 
Q 3709 -141 3634 -141 
L 3584 -141 
Q 3506 -141 3506 -72 
L 3263 3225 
L 1381 -72 
Q 1334 -141 1269 -141 
L 1216 -141 
Q 1141 -141 1141 -72 
z
" transform="scale(0.015625)"/>
     <path id="Cmr10-73" d="M 213 -19 
L 213 1025 
Q 213 1075 269 1075 
L 347 1075 
Q 384 1075 397 1025 
Q 575 97 1259 97 
Q 1563 97 1767 234 
Q 1972 372 1972 659 
Q 1972 866 1812 1011 
Q 1653 1156 1434 1209 
L 1006 1294 
Q 791 1341 614 1437 
Q 438 1534 325 1695 
Q 213 1856 213 2069 
Q 213 2350 361 2529 
Q 509 2709 746 2789 
Q 984 2869 1259 2869 
Q 1588 2869 1831 2694 
L 2016 2853 
Q 2016 2869 2047 2869 
L 2094 2869 
Q 2113 2869 2128 2851 
Q 2144 2834 2144 2816 
L 2144 1978 
Q 2144 1919 2094 1919 
L 2016 1919 
Q 1959 1919 1959 1978 
Q 1959 2313 1773 2516 
Q 1588 2719 1253 2719 
Q 966 2719 755 2612 
Q 544 2506 544 2247 
Q 544 2069 695 1955 
Q 847 1841 1050 1791 
L 1484 1709 
Q 1703 1659 1892 1540 
Q 2081 1422 2192 1240 
Q 2303 1059 2303 831 
Q 2303 600 2223 429 
Q 2144 259 2001 146 
Q 1859 34 1665 -19 
Q 1472 -72 1259 -72 
Q 859 -72 575 197 
L 341 -56 
Q 341 -72 306 -72 
L 269 -72 
Q 213 -72 213 -19 
z
" transform="scale(0.015625)"/>
     <path id="ArialMT-36" d="M 3184 3459 
L 2625 3416 
Q 2550 3747 2413 3897 
Q 2184 4138 1850 4138 
Q 1581 4138 1378 3988 
Q 1113 3794 959 3422 
Q 806 3050 800 2363 
Q 1003 2672 1297 2822 
Q 1591 2972 1913 2972 
Q 2475 2972 2870 2558 
Q 3266 2144 3266 1488 
Q 3266 1056 3080 686 
Q 2894 316 2569 119 
Q 2244 -78 1831 -78 
Q 1128 -78 684 439 
Q 241 956 241 2144 
Q 241 3472 731 4075 
Q 1159 4600 1884 4600 
Q 2425 4600 2770 4297 
Q 3116 3994 3184 3459 
z
M 888 1484 
Q 888 1194 1011 928 
Q 1134 663 1356 523 
Q 1578 384 1822 384 
Q 2178 384 2434 671 
Q 2691 959 2691 1453 
Q 2691 1928 2437 2201 
Q 2184 2475 1800 2475 
Q 1419 2475 1153 2201 
Q 888 1928 888 1484 
z
" transform="scale(0.015625)"/>
     <path id="ArialMT-6d" d="M 422 0 
L 422 3319 
L 925 3319 
L 925 2853 
Q 1081 3097 1340 3245 
Q 1600 3394 1931 3394 
Q 2300 3394 2536 3241 
Q 2772 3088 2869 2813 
Q 3263 3394 3894 3394 
Q 4388 3394 4653 3120 
Q 4919 2847 4919 2278 
L 4919 0 
L 4359 0 
L 4359 2091 
Q 4359 2428 4304 2576 
Q 4250 2725 4106 2815 
Q 3963 2906 3769 2906 
Q 3419 2906 3187 2673 
Q 2956 2441 2956 1928 
L 2956 0 
L 2394 0 
L 2394 2156 
Q 2394 2531 2256 2718 
Q 2119 2906 1806 2906 
Q 1569 2906 1367 2781 
Q 1166 2656 1075 2415 
Q 984 2175 984 1722 
L 984 0 
L 422 0 
z
" transform="scale(0.015625)"/>
    </defs>
    <use xlink:href="#Cmmi10-57" transform="translate(0 0.125)"/>
    <use xlink:href="#Cmr10-73" transform="translate(94.384766 -16.88125) scale(0.7)"/>
    <use xlink:href="#Cmr10-63" transform="translate(121.967773 -16.88125) scale(0.7)"/>
    <use xlink:href="#Cmr10-3d" transform="translate(176.973047 0.125)"/>
    <use xlink:href="#ArialMT-30" transform="translate(272.217188 0.125)"/>
    <use xlink:href="#ArialMT-2e" transform="translate(327.832422 0.125)"/>
    <use xlink:href="#ArialMT-36" transform="translate(355.615625 0.125)"/>
    <use xlink:href="#ArialMT-3bc" transform="translate(425.863313 0.125)"/>
    <use xlink:href="#ArialMT-6d" transform="translate(483.480501 0.125)"/>
   </g>
  </g>
 </g>
 <defs>
  <clipPath id="p26ccfb4fb9">
   <rect x="29.497742" y="18.20072" width="135.502018" height="77.469967"/>
  </clipPath>
  <clipPath id="p73835a3fe3">
   <rect x="29.497742" y="101.671167" width="135.502018" height="77.469967"/>
  </clipPath>
 </defs>
</svg>
