<?xml version="1.0" encoding="utf-8" standalone="no"?>
<!DOCTYPE svg PUBLIC "-//W3C//DTD SVG 1.1//EN"
  "http://www.w3.org/Graphics/SVG/1.1/DTD/svg11.dtd">
<svg xmlns:xlink="http://www.w3.org/1999/xlink" width="168pt" height="207.65942pt" viewBox="0 0 168 207.65942" xmlns="http://www.w3.org/2000/svg" version="1.1">
 <metadata>
  <rdf:RDF xmlns:dc="http://purl.org/dc/elements/1.1/" xmlns:cc="http://creativecommons.org/ns#" xmlns:rdf="http://www.w3.org/1999/02/22-rdf-syntax-ns#">
   <cc:Work>
    <dc:type rdf:resource="http://purl.org/dc/dcmitype/StillImage"/>
    <dc:date>2024-12-06T17:48:34.241628</dc:date>
    <dc:format>image/svg+xml</dc:format>
    <dc:creator>
     <cc:Agent>
      <dc:title>Matplotlib v3.8.4, https://matplotlib.org/</dc:title>
     </cc:Agent>
    </dc:creator>
   </cc:Work>
  </rdf:RDF>
 </metadata>
 <defs>
  <style type="text/css">*{stroke-linejoin: round; stroke-linecap: butt}</style>
 </defs>
 <g id="figure_1">
  <g id="patch_1">
   <path d="M 0 207.65942 
L 168 207.65942 
L 168 0 
L 0 0 
L 0 207.65942 
z
" style="fill: none"/>
  </g>
  <g id="axes_1">
   <g id="patch_2">
    <path d="M 29.497742 95.670687 
L 164.99976 95.670687 
L 164.99976 18.20072 
L 29.497742 18.20072 
L 29.497742 95.670687 
z
" style="fill: none"/>
   </g>
   <g id="PolyCollection_1">
    <path d="M 35.656924 54.468556 
L 35.656924 54.434426 
L 37.581669 54.024382 
L 39.506413 53.397227 
L 41.431158 52.549675 
L 43.355903 51.444782 
L 45.280647 50.153707 
L 47.205392 48.762876 
L 49.130136 47.29373 
L 51.054881 45.815925 
L 52.979625 44.31245 
L 54.90437 42.771295 
L 56.829115 41.198112 
L 58.753859 39.587459 
L 60.678604 37.929548 
L 62.603348 36.256533 
L 64.528093 34.556825 
L 66.452837 32.831411 
L 68.377582 30.972795 
L 70.302327 29.164035 
L 71.072224 28.366116 
L 71.842122 27.583671 
L 72.61202 26.8999 
L 73.381918 26.1419 
L 74.151816 25.419906 
L 74.921714 24.74218 
L 75.691611 24.098039 
L 76.461509 23.516995 
L 77.231407 23.082113 
L 78.001305 22.731413 
L 78.771203 22.413998 
L 79.541101 22.178621 
L 80.310998 22.097758 
L 81.080896 22.034542 
L 81.850794 22.006117 
L 82.620692 22.00229 
L 83.39059 21.766483 
L 84.160488 21.722082 
L 84.930385 21.799151 
L 85.700283 22.048694 
L 86.470181 22.363192 
L 87.240079 22.646628 
L 88.009977 23.104569 
L 88.779875 23.626988 
L 89.549772 24.235614 
L 90.31967 24.867152 
L 91.089568 25.443192 
L 91.859466 26.119449 
L 92.629364 26.683324 
L 93.399262 27.338609 
L 95.324006 29.011264 
L 97.248751 30.739141 
L 99.173495 32.404481 
L 101.09824 34.229595 
L 103.022985 36.006811 
L 104.947729 37.898439 
L 106.872474 39.699795 
L 108.797218 41.50987 
L 110.721963 43.27531 
L 112.646707 44.963489 
L 114.571452 46.607308 
L 116.496197 48.255361 
L 118.420941 49.758473 
L 120.345686 51.168487 
L 122.27043 52.333079 
L 124.195175 53.245612 
L 126.119919 53.920841 
L 128.044664 54.498197 
L 129.969409 54.809874 
L 131.894153 54.978188 
L 133.818898 55.071956 
L 135.743642 54.924897 
L 137.668387 55.121323 
L 139.593132 55.107666 
L 141.517876 55.124381 
L 143.442621 55.129076 
L 145.367365 55.16284 
L 147.29211 55.202423 
L 149.216854 55.266428 
L 151.141599 55.360933 
L 153.066344 55.472156 
L 154.991088 55.580819 
L 156.915833 55.706225 
L 158.840577 55.803566 
L 158.840577 55.817102 
L 158.840577 55.817102 
L 156.915833 55.720164 
L 154.991088 55.595979 
L 153.066344 55.489794 
L 151.141599 55.384457 
L 149.216854 55.284989 
L 147.29211 55.213646 
L 145.367365 55.173314 
L 143.442621 55.14139 
L 141.517876 55.143379 
L 139.593132 55.126157 
L 137.668387 55.136008 
L 135.743642 54.958293 
L 133.818898 55.08298 
L 131.894153 54.992051 
L 129.969409 54.82508 
L 128.044664 54.50791 
L 126.119919 53.959864 
L 124.195175 53.285917 
L 122.27043 52.367262 
L 120.345686 51.179629 
L 118.420941 49.779564 
L 116.496197 48.281038 
L 114.571452 46.650262 
L 112.646707 45.016035 
L 110.721963 43.329522 
L 108.797218 41.574044 
L 106.872474 39.791577 
L 104.947729 37.987601 
L 103.022985 36.132939 
L 101.09824 34.375863 
L 99.173495 32.578419 
L 97.248751 30.88755 
L 95.324006 29.218246 
L 93.399262 27.510911 
L 92.629364 26.869709 
L 91.859466 26.363575 
L 91.089568 25.663184 
L 90.31967 25.123607 
L 89.549772 24.434453 
L 88.779875 23.830419 
L 88.009977 23.327694 
L 87.240079 22.875169 
L 86.470181 22.520637 
L 85.700283 22.269937 
L 84.930385 21.971113 
L 84.160488 21.84485 
L 83.39059 21.897479 
L 82.620692 22.23788 
L 81.850794 22.198058 
L 81.080896 22.196124 
L 80.310998 22.206605 
L 79.541101 22.273691 
L 78.771203 22.547594 
L 78.001305 22.87014 
L 77.231407 23.29992 
L 76.461509 23.731629 
L 75.691611 24.30982 
L 74.921714 24.965715 
L 74.151816 25.645425 
L 73.381918 26.341259 
L 72.61202 27.093164 
L 71.842122 27.772277 
L 71.072224 28.542178 
L 70.302327 29.358816 
L 68.377582 31.17367 
L 66.452837 33.007476 
L 64.528093 34.725539 
L 62.603348 36.385564 
L 60.678604 38.056578 
L 58.753859 39.678472 
L 56.829115 41.276869 
L 54.90437 42.823973 
L 52.979625 44.346421 
L 51.054881 45.849736 
L 49.130136 47.314444 
L 47.205392 48.790356 
L 45.280647 50.170683 
L 43.355903 51.484797 
L 41.431158 52.580005 
L 39.506413 53.432328 
L 37.581669 54.06253 
L 35.656924 54.468556 
z
" clip-path="url(#p2c8015a7b7)" style="fill-opacity: 0.5"/>
   </g>
   <g id="PolyCollection_2">
    <path d="M 35.656924 59.609129 
L 35.656924 59.579746 
L 37.581669 60.044078 
L 39.506413 60.709566 
L 41.431158 61.646152 
L 43.355903 62.837986 
L 45.280647 64.249032 
L 47.205392 65.738147 
L 49.130136 67.328561 
L 51.054881 68.961159 
L 52.979625 70.673063 
L 54.90437 72.385135 
L 56.829115 74.159717 
L 58.753859 75.968119 
L 60.678604 77.821249 
L 62.603348 79.580294 
L 64.528093 81.299146 
L 66.452837 83.039638 
L 68.377582 84.66863 
L 70.302327 86.410366 
L 71.072224 87.041614 
L 71.842122 87.628194 
L 72.61202 88.325368 
L 73.381918 88.916786 
L 74.151816 89.530217 
L 74.921714 90.092998 
L 75.691611 90.640685 
L 76.461509 91.161405 
L 77.231407 91.446664 
L 78.001305 91.805578 
L 78.771203 91.917327 
L 79.541101 92.07656 
L 80.310998 91.985657 
L 81.080896 91.83831 
L 81.850794 91.643385 
L 82.620692 91.558007 
L 83.39059 91.632782 
L 84.160488 91.540532 
L 84.930385 91.337722 
L 85.700283 91.001978 
L 86.470181 90.531165 
L 87.240079 90.123352 
L 88.009977 89.559887 
L 88.779875 88.944101 
L 89.549772 88.273638 
L 90.31967 87.517639 
L 91.089568 86.814649 
L 91.859466 85.965473 
L 92.629364 85.311171 
L 93.399262 84.571805 
L 95.324006 82.70833 
L 97.248751 80.975554 
L 99.173495 79.267703 
L 101.09824 77.562476 
L 103.022985 75.927791 
L 104.947729 74.268934 
L 106.872474 72.682288 
L 108.797218 71.125098 
L 110.721963 69.589616 
L 112.646707 68.1142 
L 114.571452 66.626293 
L 116.496197 65.136346 
L 118.420941 63.736994 
L 120.345686 62.433849 
L 122.27043 61.352273 
L 124.195175 60.48817 
L 126.119919 59.86935 
L 128.044664 59.364575 
L 129.969409 59.070864 
L 131.894153 58.91706 
L 133.818898 58.830644 
L 135.743642 58.958759 
L 137.668387 58.762574 
L 139.593132 58.769449 
L 141.517876 58.748239 
L 143.442621 58.731141 
L 145.367365 58.692069 
L 147.29211 58.645236 
L 149.216854 58.567829 
L 151.141599 58.478163 
L 153.066344 58.384527 
L 154.991088 58.308932 
L 156.915833 58.212421 
L 158.840577 58.155266 
L 158.840577 58.169018 
L 158.840577 58.169018 
L 156.915833 58.229363 
L 154.991088 58.322458 
L 153.066344 58.40781 
L 151.141599 58.504769 
L 149.216854 58.586425 
L 147.29211 58.659074 
L 145.367365 58.705235 
L 143.442621 58.744533 
L 141.517876 58.76662 
L 139.593132 58.7855 
L 137.668387 58.777479 
L 135.743642 58.990081 
L 133.818898 58.842598 
L 131.894153 58.93022 
L 129.969409 59.08229 
L 128.044664 59.373581 
L 126.119919 59.903675 
L 124.195175 60.518724 
L 122.27043 61.376751 
L 120.345686 62.446998 
L 118.420941 63.756812 
L 116.496197 65.160829 
L 114.571452 66.647627 
L 112.646707 68.149459 
L 110.721963 69.640637 
L 108.797218 71.18831 
L 106.872474 72.763387 
L 104.947729 74.385015 
L 103.022985 76.064568 
L 101.09824 77.714469 
L 99.173495 79.463032 
L 97.248751 81.190606 
L 95.324006 82.934009 
L 93.399262 84.824688 
L 92.629364 85.558597 
L 91.859466 86.195054 
L 91.089568 87.036266 
L 90.31967 87.783118 
L 89.549772 88.475757 
L 88.779875 89.180291 
L 88.009977 89.747443 
L 87.240079 90.31553 
L 86.470181 90.753622 
L 85.700283 91.140179 
L 84.930385 91.494537 
L 84.160488 91.636677 
L 83.39059 91.73668 
L 82.620692 91.710749 
L 81.850794 91.809165 
L 81.080896 92.0042 
L 80.310998 92.09629 
L 79.541101 92.149325 
L 78.771203 92.03778 
L 78.001305 91.934738 
L 77.231407 91.678397 
L 76.461509 91.384462 
L 75.691611 90.88103 
L 74.921714 90.328582 
L 74.151816 89.767849 
L 73.381918 89.218621 
L 72.61202 88.580792 
L 71.842122 87.894468 
L 71.072224 87.278422 
L 70.302327 86.599918 
L 68.377582 84.868312 
L 66.452837 83.233892 
L 64.528093 81.494748 
L 62.603348 79.761572 
L 60.678604 77.944474 
L 58.753859 76.074173 
L 56.829115 74.23818 
L 54.90437 72.441355 
L 52.979625 70.711703 
L 51.054881 68.996771 
L 49.130136 67.3538 
L 47.205392 65.767026 
L 45.280647 64.262973 
L 43.355903 62.884297 
L 41.431158 61.677759 
L 39.506413 60.750526 
L 37.581669 60.069035 
L 35.656924 59.609129 
z
" clip-path="url(#p2c8015a7b7)" style="fill-opacity: 0.5"/>
   </g>
   <g id="PolyCollection_3">
    <path d="M 35.656924 55.787849 
L 35.656924 55.751818 
L 37.581669 55.419074 
L 39.506413 54.892005 
L 41.431158 54.134939 
L 43.355903 53.155263 
L 45.280647 51.971922 
L 47.205392 50.708304 
L 49.130136 49.349392 
L 51.054881 47.960595 
L 52.979625 46.593344 
L 54.90437 45.178742 
L 56.829115 43.73325 
L 58.753859 42.212132 
L 60.678604 40.674441 
L 62.603348 39.083858 
L 64.528093 37.473229 
L 66.452837 35.778639 
L 68.377582 33.98194 
L 70.302327 32.243859 
L 71.072224 31.442369 
L 71.842122 30.695518 
L 72.61202 29.928358 
L 73.381918 29.134668 
L 74.151816 28.368513 
L 74.921714 27.636033 
L 75.691611 26.862638 
L 76.461509 26.170091 
L 77.231407 25.541981 
L 78.001305 25.094453 
L 78.771203 24.610985 
L 79.541101 24.339767 
L 80.310998 24.11743 
L 81.080896 24.107388 
L 81.850794 24.056417 
L 82.620692 24.031145 
L 83.39059 23.906059 
L 84.160488 24.079504 
L 84.930385 24.310288 
L 85.700283 24.614989 
L 86.470181 25.137075 
L 87.240079 25.676607 
L 88.009977 26.286842 
L 88.779875 26.895704 
L 89.549772 27.659276 
L 90.31967 28.269711 
L 91.089568 28.960951 
L 91.859466 29.644936 
L 92.629364 30.272528 
L 93.399262 30.913512 
L 95.324006 32.629261 
L 97.248751 34.228432 
L 99.173495 35.953617 
L 101.09824 37.590066 
L 103.022985 39.275265 
L 104.947729 40.987924 
L 106.872474 42.659039 
L 108.797218 44.284638 
L 110.721963 45.891541 
L 112.646707 47.425107 
L 114.571452 48.934577 
L 116.496197 50.405443 
L 118.420941 51.774373 
L 120.345686 53.029972 
L 122.27043 54.060801 
L 124.195175 54.963566 
L 126.119919 55.526372 
L 128.044664 55.865665 
L 131.894153 56.280532 
L 133.818898 56.306524 
L 133.818898 56.32633 
L 133.818898 56.32633 
L 131.894153 56.301545 
L 128.044664 55.898135 
L 126.119919 55.540618 
L 124.195175 54.973726 
L 122.27043 54.08671 
L 120.345686 53.043606 
L 118.420941 51.790201 
L 116.496197 50.417708 
L 114.571452 48.952287 
L 112.646707 47.451562 
L 110.721963 45.919845 
L 108.797218 44.325948 
L 106.872474 42.714784 
L 104.947729 41.079396 
L 103.022985 39.377939 
L 101.09824 37.725132 
L 99.173495 36.08673 
L 97.248751 34.385618 
L 95.324006 32.768041 
L 93.399262 31.07222 
L 92.629364 30.442951 
L 91.859466 29.832545 
L 91.089568 29.134822 
L 90.31967 28.459701 
L 89.549772 27.804135 
L 88.779875 27.076147 
L 88.009977 26.494631 
L 87.240079 25.823614 
L 86.470181 25.294305 
L 85.700283 24.763754 
L 84.930385 24.449312 
L 84.160488 24.197731 
L 83.39059 24.035821 
L 82.620692 24.174092 
L 81.850794 24.205276 
L 81.080896 24.209643 
L 80.310998 24.213002 
L 79.541101 24.435739 
L 78.771203 24.719034 
L 78.001305 25.211854 
L 77.231407 25.701548 
L 76.461509 26.331116 
L 75.691611 27.055335 
L 74.921714 27.797958 
L 74.151816 28.545626 
L 73.381918 29.309855 
L 72.61202 30.107326 
L 71.842122 30.863402 
L 71.072224 31.632212 
L 70.302327 32.384689 
L 68.377582 34.18432 
L 66.452837 35.930475 
L 64.528093 37.617814 
L 62.603348 39.193075 
L 60.678604 40.775099 
L 58.753859 42.283606 
L 56.829115 43.791879 
L 54.90437 45.215881 
L 52.979625 46.629294 
L 51.054881 48.003995 
L 49.130136 49.376236 
L 47.205392 50.727072 
L 45.280647 51.987173 
L 43.355903 53.177184 
L 41.431158 54.176337 
L 39.506413 54.921273 
L 37.581669 55.452674 
L 35.656924 55.787849 
z
" clip-path="url(#p2c8015a7b7)" style="fill: #d62728; fill-opacity: 0.5"/>
   </g>
   <g id="PolyCollection_4">
    <path d="M 35.656924 58.21201 
L 35.656924 58.177384 
L 37.581669 58.53992 
L 39.506413 59.091193 
L 41.431158 59.903327 
L 43.355903 60.957234 
L 45.280647 62.227643 
L 47.205392 63.564106 
L 49.130136 65.018788 
L 51.054881 66.519982 
L 52.979625 68.049684 
L 54.90437 69.636336 
L 56.829115 71.249688 
L 58.753859 72.895722 
L 60.678604 74.611565 
L 62.603348 76.264661 
L 64.528093 77.87816 
L 66.452837 79.518956 
L 68.377582 81.204056 
L 70.302327 82.835009 
L 71.072224 83.448311 
L 71.842122 84.16824 
L 72.61202 84.834994 
L 73.381918 85.454393 
L 74.151816 86.174557 
L 74.921714 86.873098 
L 75.691611 87.493207 
L 76.461509 88.076937 
L 77.231407 88.596985 
L 78.001305 88.990786 
L 78.771203 89.356135 
L 79.541101 89.632738 
L 80.310998 89.780416 
L 81.080896 89.732031 
L 81.850794 89.689726 
L 82.620692 89.629207 
L 83.39059 89.716282 
L 84.160488 89.493704 
L 84.930385 89.223826 
L 85.700283 88.813071 
L 86.470181 88.194115 
L 87.240079 87.563779 
L 88.009977 86.860956 
L 88.779875 86.107687 
L 89.549772 85.341049 
L 90.31967 84.497379 
L 91.089568 83.789759 
L 91.859466 83.026297 
L 92.629364 82.272005 
L 93.399262 81.498409 
L 95.324006 79.679704 
L 97.248751 78.029301 
L 99.173495 76.31205 
L 101.09824 74.713815 
L 103.022985 73.181649 
L 104.947729 71.663562 
L 106.872474 70.18739 
L 108.797218 68.738922 
L 110.721963 67.34494 
L 112.646707 65.961232 
L 114.571452 64.585895 
L 116.496197 63.217927 
L 118.420941 61.933678 
L 120.345686 60.755714 
L 122.27043 59.775316 
L 124.195175 58.925345 
L 126.119919 58.3788 
L 128.044664 58.034598 
L 131.894153 57.649247 
L 133.818898 57.631068 
L 133.818898 57.647737 
L 133.818898 57.647737 
L 131.894153 57.667104 
L 128.044664 58.05904 
L 126.119919 58.389699 
L 124.195175 58.937395 
L 122.27043 59.796675 
L 120.345686 60.770131 
L 118.420941 61.947604 
L 116.496197 63.230724 
L 114.571452 64.602023 
L 112.646707 65.982196 
L 110.721963 67.369876 
L 108.797218 68.790153 
L 106.872474 70.255894 
L 104.947729 71.740364 
L 103.022985 73.303725 
L 101.09824 74.849491 
L 99.173495 76.477308 
L 97.248751 78.175749 
L 95.324006 79.862046 
L 93.399262 81.674066 
L 92.629364 82.444646 
L 91.859466 83.241634 
L 91.089568 83.96155 
L 90.31967 84.694328 
L 89.549772 85.530473 
L 88.779875 86.301449 
L 88.009977 87.046325 
L 87.240079 87.726548 
L 86.470181 88.343244 
L 85.700283 89.002292 
L 84.930385 89.363742 
L 84.160488 89.621919 
L 83.39059 89.847129 
L 82.620692 89.773061 
L 81.850794 89.784076 
L 81.080896 89.858579 
L 80.310998 89.887587 
L 79.541101 89.747556 
L 78.771203 89.497262 
L 78.001305 89.157119 
L 77.231407 88.754274 
L 76.461509 88.279406 
L 75.691611 87.679896 
L 74.921714 87.094163 
L 74.151816 86.36041 
L 73.381918 85.647411 
L 72.61202 84.997392 
L 71.842122 84.338968 
L 71.072224 83.674854 
L 70.302327 82.99462 
L 68.377582 81.374288 
L 66.452837 79.694832 
L 64.528093 78.020168 
L 62.603348 76.378169 
L 60.678604 74.690405 
L 58.753859 73.001387 
L 56.829115 71.314143 
L 54.90437 69.677352 
L 52.979625 68.087964 
L 51.054881 66.567041 
L 49.130136 65.050367 
L 47.205392 63.603894 
L 45.280647 62.241736 
L 43.355903 60.980494 
L 41.431158 59.932994 
L 39.506413 59.123794 
L 37.581669 58.572119 
L 35.656924 58.21201 
z
" clip-path="url(#p2c8015a7b7)" style="fill: #d62728; fill-opacity: 0.5"/>
   </g>
   <g id="matplotlib.axis_1">
    <g id="xtick_1">
     <g id="line2d_1">
      <defs>
       <path id="m4f7da39c22" d="M 0 0 
L 0 -2 
" style="stroke: #000000; stroke-width: 0.5"/>
      </defs>
      <g>
       <use xlink:href="#m4f7da39c22" x="43.355903" y="95.670687" style="stroke: #000000; stroke-width: 0.5"/>
      </g>
     </g>
     <g id="line2d_2">
      <defs>
       <path id="mca4db81204" d="M 0 0 
L 0 2 
" style="stroke: #000000; stroke-width: 0.5"/>
      </defs>
      <g>
       <use xlink:href="#mca4db81204" x="43.355903" y="18.20072" style="stroke: #000000; stroke-width: 0.5"/>
      </g>
     </g>
    </g>
    <g id="xtick_2">
     <g id="line2d_3">
      <g>
       <use xlink:href="#m4f7da39c22" x="81.850794" y="95.670687" style="stroke: #000000; stroke-width: 0.5"/>
      </g>
     </g>
     <g id="line2d_4">
      <g>
       <use xlink:href="#mca4db81204" x="81.850794" y="18.20072" style="stroke: #000000; stroke-width: 0.5"/>
      </g>
     </g>
    </g>
    <g id="xtick_3">
     <g id="line2d_5">
      <g>
       <use xlink:href="#m4f7da39c22" x="120.345686" y="95.670687" style="stroke: #000000; stroke-width: 0.5"/>
      </g>
     </g>
     <g id="line2d_6">
      <g>
       <use xlink:href="#mca4db81204" x="120.345686" y="18.20072" style="stroke: #000000; stroke-width: 0.5"/>
      </g>
     </g>
    </g>
    <g id="xtick_4">
     <g id="line2d_7">
      <g>
       <use xlink:href="#m4f7da39c22" x="158.840577" y="95.670687" style="stroke: #000000; stroke-width: 0.5"/>
      </g>
     </g>
     <g id="line2d_8">
      <g>
       <use xlink:href="#mca4db81204" x="158.840577" y="18.20072" style="stroke: #000000; stroke-width: 0.5"/>
      </g>
     </g>
    </g>
   </g>
   <g id="matplotlib.axis_2">
    <g id="ytick_1">
     <g id="line2d_9">
      <defs>
       <path id="m64dc0130b7" d="M 0 0 
L 2 0 
" style="stroke: #000000; stroke-width: 0.5"/>
      </defs>
      <g>
       <use xlink:href="#m64dc0130b7" x="29.497742" y="89.53076" style="stroke: #000000; stroke-width: 0.5"/>
      </g>
     </g>
     <g id="line2d_10">
      <defs>
       <path id="m3cac40800f" d="M 0 0 
L -2 0 
" style="stroke: #000000; stroke-width: 0.5"/>
      </defs>
      <g>
       <use xlink:href="#m3cac40800f" x="164.99976" y="89.53076" style="stroke: #000000; stroke-width: 0.5"/>
      </g>
     </g>
     <g id="text_1">
      <!-- −2 -->
      <g transform="translate(16.50024 92.511989) scale(0.0833 -0.0833)">
       <defs>
        <path id="ArialMT-2212" d="M 3381 1997 
L 356 1997 
L 356 2522 
L 3381 2522 
L 3381 1997 
z
" transform="scale(0.015625)"/>
        <path id="ArialMT-32" d="M 3222 541 
L 3222 0 
L 194 0 
Q 188 203 259 391 
Q 375 700 629 1000 
Q 884 1300 1366 1694 
Q 2113 2306 2375 2664 
Q 2638 3022 2638 3341 
Q 2638 3675 2398 3904 
Q 2159 4134 1775 4134 
Q 1369 4134 1125 3890 
Q 881 3647 878 3216 
L 300 3275 
Q 359 3922 746 4261 
Q 1134 4600 1788 4600 
Q 2447 4600 2831 4234 
Q 3216 3869 3216 3328 
Q 3216 3053 3103 2787 
Q 2991 2522 2730 2228 
Q 2469 1934 1863 1422 
Q 1356 997 1212 845 
Q 1069 694 975 541 
L 3222 541 
z
" transform="scale(0.015625)"/>
       </defs>
       <use xlink:href="#ArialMT-2212"/>
       <use xlink:href="#ArialMT-32" x="58.398438"/>
      </g>
     </g>
    </g>
    <g id="ytick_2">
     <g id="line2d_11">
      <g>
       <use xlink:href="#m64dc0130b7" x="29.497742" y="56.982307" style="stroke: #000000; stroke-width: 0.5"/>
      </g>
     </g>
     <g id="line2d_12">
      <g>
       <use xlink:href="#m3cac40800f" x="164.99976" y="56.982307" style="stroke: #000000; stroke-width: 0.5"/>
      </g>
     </g>
     <g id="text_2">
      <!-- 0 -->
      <g transform="translate(21.365481 59.963536) scale(0.0833 -0.0833)">
       <defs>
        <path id="ArialMT-30" d="M 266 2259 
Q 266 3072 433 3567 
Q 600 4063 929 4331 
Q 1259 4600 1759 4600 
Q 2128 4600 2406 4451 
Q 2684 4303 2865 4023 
Q 3047 3744 3150 3342 
Q 3253 2941 3253 2259 
Q 3253 1453 3087 958 
Q 2922 463 2592 192 
Q 2263 -78 1759 -78 
Q 1097 -78 719 397 
Q 266 969 266 2259 
z
M 844 2259 
Q 844 1131 1108 757 
Q 1372 384 1759 384 
Q 2147 384 2411 759 
Q 2675 1134 2675 2259 
Q 2675 3391 2411 3762 
Q 2147 4134 1753 4134 
Q 1366 4134 1134 3806 
Q 844 3388 844 2259 
z
" transform="scale(0.015625)"/>
       </defs>
       <use xlink:href="#ArialMT-30"/>
      </g>
     </g>
    </g>
    <g id="ytick_3">
     <g id="line2d_13">
      <g>
       <use xlink:href="#m64dc0130b7" x="29.497742" y="24.433855" style="stroke: #000000; stroke-width: 0.5"/>
      </g>
     </g>
     <g id="line2d_14">
      <g>
       <use xlink:href="#m3cac40800f" x="164.99976" y="24.433855" style="stroke: #000000; stroke-width: 0.5"/>
      </g>
     </g>
     <g id="text_3">
      <!-- 2 -->
      <g transform="translate(21.365481 27.415084) scale(0.0833 -0.0833)">
       <use xlink:href="#ArialMT-32"/>
      </g>
     </g>
    </g>
    <g id="text_4">
     <!-- $I_\mathrm{c}$ (μA) -->
     <g transform="translate(10.30024 71.985704) rotate(-90) scale(0.1 -0.1)">
      <defs>
       <path id="Cmmi10-49" d="M 269 0 
Q 206 0 206 84 
Q 231 225 288 225 
Q 666 225 800 250 
Q 947 284 984 441 
L 1863 3956 
Q 1875 4019 1875 4038 
Q 1875 4078 1854 4095 
Q 1834 4113 1791 4122 
Q 1663 4147 1306 4147 
Q 1241 4147 1241 4231 
Q 1263 4313 1275 4342 
Q 1288 4372 1350 4372 
L 3138 4372 
Q 3200 4372 3200 4288 
Q 3197 4272 3187 4234 
Q 3178 4197 3162 4172 
Q 3147 4147 3116 4147 
Q 2741 4147 2597 4122 
Q 2456 4088 2419 3928 
L 1544 416 
Q 1528 338 1528 331 
Q 1528 316 1533 302 
Q 1538 288 1552 277 
Q 1566 266 1580 261 
Q 1594 256 1613 250 
Q 1734 225 2100 225 
Q 2163 225 2163 141 
Q 2141 50 2128 25 
Q 2116 0 2053 0 
L 269 0 
z
" transform="scale(0.015625)"/>
       <path id="Cmr10-63" d="M 1594 -72 
Q 1206 -72 890 129 
Q 575 331 394 667 
Q 213 1003 213 1381 
Q 213 1759 392 2106 
Q 572 2453 889 2661 
Q 1206 2869 1594 2869 
Q 1969 2869 2276 2722 
Q 2584 2575 2584 2241 
Q 2584 2116 2495 2023 
Q 2406 1931 2278 1931 
Q 2150 1931 2061 2023 
Q 1972 2116 1972 2241 
Q 1972 2353 2044 2436 
Q 2116 2519 2222 2541 
Q 2000 2681 1600 2681 
Q 1294 2681 1106 2478 
Q 919 2275 844 1975 
Q 769 1675 769 1381 
Q 769 1072 861 783 
Q 953 494 1158 305 
Q 1363 116 1672 116 
Q 1975 116 2187 302 
Q 2400 488 2478 788 
Q 2478 825 2528 825 
L 2606 825 
Q 2625 825 2640 808 
Q 2656 791 2656 769 
L 2656 750 
Q 2559 372 2271 150 
Q 1984 -72 1594 -72 
z
" transform="scale(0.015625)"/>
       <path id="ArialMT-20" transform="scale(0.015625)"/>
       <path id="ArialMT-28" d="M 1497 -1347 
Q 1031 -759 709 28 
Q 388 816 388 1659 
Q 388 2403 628 3084 
Q 909 3875 1497 4659 
L 1900 4659 
Q 1522 4009 1400 3731 
Q 1209 3300 1100 2831 
Q 966 2247 966 1656 
Q 966 153 1900 -1347 
L 1497 -1347 
z
" transform="scale(0.015625)"/>
       <path id="ArialMT-3bc" d="M 3181 3319 
L 3181 0 
L 2678 0 
L 2678 394 
Q 2516 144 2356 50 
Q 2138 -78 1847 -78 
Q 1588 -78 1388 25 
Q 1238 103 1056 334 
L 1056 -1272 
L 500 -1272 
L 500 3319 
L 1056 3319 
L 1056 1913 
Q 1056 1147 1137 920 
Q 1219 694 1401 562 
Q 1584 431 1822 431 
Q 2072 431 2269 568 
Q 2466 706 2547 923 
Q 2628 1141 2628 1903 
L 2628 3319 
L 3181 3319 
z
" transform="scale(0.015625)"/>
       <path id="ArialMT-41" d="M -9 0 
L 1750 4581 
L 2403 4581 
L 4278 0 
L 3588 0 
L 3053 1388 
L 1138 1388 
L 634 0 
L -9 0 
z
M 1313 1881 
L 2866 1881 
L 2388 3150 
Q 2169 3728 2063 4100 
Q 1975 3659 1816 3225 
L 1313 1881 
z
" transform="scale(0.015625)"/>
       <path id="ArialMT-29" d="M 791 -1347 
L 388 -1347 
Q 1322 153 1322 1656 
Q 1322 2244 1188 2822 
Q 1081 3291 891 3722 
Q 769 4003 388 4659 
L 791 4659 
Q 1378 3875 1659 3084 
Q 1900 2403 1900 1659 
Q 1900 816 1576 28 
Q 1253 -759 791 -1347 
z
" transform="scale(0.015625)"/>
      </defs>
      <use xlink:href="#Cmmi10-49" transform="translate(0 0.203125)"/>
      <use xlink:href="#Cmr10-63" transform="translate(43.896484 -16.803125) scale(0.7)"/>
      <use xlink:href="#ArialMT-20" transform="translate(81.343164 0.203125)"/>
      <use xlink:href="#ArialMT-28" transform="translate(109.126367 0.203125)"/>
      <use xlink:href="#ArialMT-3bc" transform="translate(142.427148 0.203125)"/>
      <use xlink:href="#ArialMT-41" transform="translate(200.044336 0.203125)"/>
      <use xlink:href="#ArialMT-29" transform="translate(266.743555 0.203125)"/>
     </g>
    </g>
   </g>
   <g id="line2d_15">
    <path d="M 29.497742 56.982307 
L 164.99976 56.982307 
" clip-path="url(#p2c8015a7b7)" style="fill: none; stroke: #d3d3d3; stroke-width: 0.5; stroke-linecap: square"/>
   </g>
   <g id="line2d_16">
    <path d="M 81.850794 95.670687 
L 81.850794 18.20072 
" clip-path="url(#p2c8015a7b7)" style="fill: none; stroke: #d3d3d3; stroke-width: 0.5; stroke-linecap: square"/>
   </g>
   <g id="patch_3">
    <path d="M 29.497742 95.670687 
L 29.497742 18.20072 
" style="fill: none; stroke: #000000; stroke-width: 0.5; stroke-linejoin: miter; stroke-linecap: square"/>
   </g>
   <g id="patch_4">
    <path d="M 164.99976 95.670687 
L 164.99976 18.20072 
" style="fill: none; stroke: #000000; stroke-width: 0.5; stroke-linejoin: miter; stroke-linecap: square"/>
   </g>
   <g id="patch_5">
    <path d="M 29.497742 95.670687 
L 164.99976 95.670687 
" style="fill: none; stroke: #000000; stroke-width: 0.5; stroke-linejoin: miter; stroke-linecap: square"/>
   </g>
   <g id="patch_6">
    <path d="M 29.497742 18.20072 
L 164.99976 18.20072 
" style="fill: none; stroke: #000000; stroke-width: 0.5; stroke-linejoin: miter; stroke-linecap: square"/>
   </g>
   <g id="line2d_17">
    <path d="M 35.656924 54.451491 
L 37.581669 54.043456 
L 39.506413 53.414777 
L 41.431158 52.56484 
L 43.355903 51.464789 
L 45.280647 50.162195 
L 47.205392 48.776616 
L 49.130136 47.304087 
L 51.054881 45.832831 
L 52.979625 44.329435 
L 54.90437 42.797634 
L 56.829115 41.237491 
L 58.753859 39.632966 
L 60.678604 37.993063 
L 62.603348 36.321049 
L 64.528093 34.641182 
L 66.452837 32.919443 
L 68.377582 31.073233 
L 70.302327 29.261426 
L 71.072224 28.454147 
L 71.842122 27.677974 
L 72.61202 26.996532 
L 73.381918 26.24158 
L 74.151816 25.532666 
L 74.921714 24.853948 
L 75.691611 24.20393 
L 76.461509 23.624312 
L 77.231407 23.191017 
L 78.001305 22.800776 
L 78.771203 22.480796 
L 79.541101 22.226156 
L 80.310998 22.152181 
L 81.080896 22.115333 
L 81.850794 22.102087 
L 82.620692 22.120085 
L 83.39059 21.831981 
L 84.160488 21.783466 
L 84.930385 21.885132 
L 85.700283 22.159316 
L 86.470181 22.441915 
L 87.240079 22.760899 
L 88.009977 23.216131 
L 88.779875 23.728703 
L 89.549772 24.335034 
L 90.31967 24.99538 
L 91.089568 25.553188 
L 91.859466 26.241512 
L 92.629364 26.776517 
L 93.399262 27.42476 
L 95.324006 29.114755 
L 97.248751 30.813345 
L 99.173495 32.49145 
L 101.09824 34.302729 
L 103.022985 36.069875 
L 104.947729 37.94302 
L 106.872474 39.745686 
L 108.797218 41.541957 
L 110.721963 43.302416 
L 112.646707 44.989762 
L 114.571452 46.628785 
L 116.496197 48.2682 
L 118.420941 49.769019 
L 120.345686 51.174058 
L 122.27043 52.350171 
L 124.195175 53.265764 
L 126.119919 53.940353 
L 128.044664 54.503053 
L 129.969409 54.817477 
L 131.894153 54.985119 
L 133.818898 55.077468 
L 135.743642 54.941595 
L 137.668387 55.128666 
L 139.593132 55.116911 
L 141.517876 55.13388 
L 143.442621 55.135233 
L 145.367365 55.168077 
L 147.29211 55.208035 
L 149.216854 55.275708 
L 151.141599 55.372695 
L 153.066344 55.480975 
L 154.991088 55.588399 
L 156.915833 55.713195 
L 158.840577 55.810334 
" clip-path="url(#p2c8015a7b7)" style="fill: none; stroke: #000000; stroke-linecap: square"/>
   </g>
   <g id="line2d_18">
    <path d="M 35.656924 59.594438 
L 37.581669 60.056556 
L 39.506413 60.730046 
L 41.431158 61.661955 
L 43.355903 62.861141 
L 45.280647 64.256002 
L 47.205392 65.752587 
L 49.130136 67.34118 
L 51.054881 68.978965 
L 52.979625 70.692383 
L 54.90437 72.413245 
L 56.829115 74.198949 
L 58.753859 76.021146 
L 60.678604 77.882862 
L 62.603348 79.670933 
L 64.528093 81.396947 
L 66.452837 83.136765 
L 68.377582 84.768471 
L 70.302327 86.505142 
L 71.072224 87.160018 
L 71.842122 87.761331 
L 72.61202 88.45308 
L 73.381918 89.067703 
L 74.151816 89.649033 
L 74.921714 90.21079 
L 75.691611 90.760857 
L 76.461509 91.272933 
L 77.231407 91.56253 
L 78.001305 91.870158 
L 78.771203 91.977554 
L 79.541101 92.112943 
L 80.310998 92.040973 
L 81.080896 91.921255 
L 81.850794 91.726275 
L 82.620692 91.634378 
L 83.39059 91.684731 
L 84.160488 91.588604 
L 84.930385 91.41613 
L 85.700283 91.071079 
L 86.470181 90.642393 
L 87.240079 90.219441 
L 88.009977 89.653665 
L 88.779875 89.062196 
L 89.549772 88.374697 
L 90.31967 87.650378 
L 91.089568 86.925458 
L 91.859466 86.080264 
L 92.629364 85.434884 
L 93.399262 84.698246 
L 95.324006 82.82117 
L 97.248751 81.08308 
L 99.173495 79.365367 
L 101.09824 77.638473 
L 103.022985 75.996179 
L 104.947729 74.326974 
L 106.872474 72.722837 
L 108.797218 71.156704 
L 110.721963 69.615126 
L 112.646707 68.131829 
L 114.571452 66.63696 
L 116.496197 65.148588 
L 118.420941 63.746903 
L 120.345686 62.440423 
L 122.27043 61.364512 
L 124.195175 60.503447 
L 126.119919 59.886512 
L 128.044664 59.369078 
L 129.969409 59.076577 
L 131.894153 58.92364 
L 133.818898 58.836621 
L 135.743642 58.97442 
L 137.668387 58.770026 
L 139.593132 58.777474 
L 141.517876 58.75743 
L 143.442621 58.737837 
L 145.367365 58.698652 
L 147.29211 58.652155 
L 149.216854 58.577127 
L 151.141599 58.491466 
L 153.066344 58.396168 
L 154.991088 58.315695 
L 156.915833 58.220892 
L 158.840577 58.162142 
" clip-path="url(#p2c8015a7b7)" style="fill: none; stroke: #000000; stroke-linecap: square"/>
   </g>
   <g id="line2d_19">
    <path d="M 35.656924 55.769834 
L 37.581669 55.435874 
L 39.506413 54.906639 
L 41.431158 54.155638 
L 43.355903 53.166223 
L 45.280647 51.979548 
L 47.205392 50.717688 
L 49.130136 49.362814 
L 51.054881 47.982295 
L 52.979625 46.611319 
L 54.90437 45.197312 
L 56.829115 43.762564 
L 58.753859 42.247869 
L 60.678604 40.72477 
L 62.603348 39.138466 
L 64.528093 37.545521 
L 66.452837 35.854557 
L 68.377582 34.08313 
L 70.302327 32.314274 
L 71.072224 31.537291 
L 71.842122 30.77946 
L 72.61202 30.017842 
L 73.381918 29.222262 
L 74.151816 28.45707 
L 74.921714 27.716996 
L 75.691611 26.958986 
L 76.461509 26.250603 
L 77.231407 25.621765 
L 78.001305 25.153154 
L 78.771203 24.665009 
L 79.541101 24.387753 
L 80.310998 24.165216 
L 81.080896 24.158516 
L 81.850794 24.130847 
L 82.620692 24.102618 
L 83.39059 23.97094 
L 84.160488 24.138618 
L 84.930385 24.3798 
L 85.700283 24.689372 
L 86.470181 25.21569 
L 87.240079 25.750111 
L 88.009977 26.390737 
L 88.779875 26.985925 
L 89.549772 27.731706 
L 90.31967 28.364706 
L 91.089568 29.047886 
L 91.859466 29.73874 
L 92.629364 30.35774 
L 93.399262 30.992866 
L 95.324006 32.698651 
L 97.248751 34.307025 
L 99.173495 36.020174 
L 101.09824 37.657599 
L 103.022985 39.326602 
L 104.947729 41.03366 
L 106.872474 42.686912 
L 108.797218 44.305293 
L 110.721963 45.905693 
L 112.646707 47.438335 
L 114.571452 48.943432 
L 116.496197 50.411575 
L 118.420941 51.782287 
L 120.345686 53.036789 
L 122.27043 54.073755 
L 124.195175 54.968646 
L 126.119919 55.533495 
L 128.044664 55.8819 
L 131.894153 56.291038 
L 133.818898 56.316427 
" clip-path="url(#p2c8015a7b7)" style="fill: none; stroke: #d62728; stroke-linecap: square"/>
   </g>
   <g id="line2d_20">
    <path d="M 35.656924 58.194697 
L 37.581669 58.55602 
L 39.506413 59.107494 
L 41.431158 59.91816 
L 43.355903 60.968864 
L 45.280647 62.23469 
L 47.205392 63.584 
L 49.130136 65.034577 
L 51.054881 66.543512 
L 52.979625 68.068824 
L 54.90437 69.656844 
L 56.829115 71.281915 
L 58.753859 72.948554 
L 60.678604 74.650985 
L 62.603348 76.321415 
L 64.528093 77.949164 
L 66.452837 79.606894 
L 68.377582 81.289172 
L 70.302327 82.914814 
L 71.072224 83.561582 
L 71.842122 84.253604 
L 72.61202 84.916193 
L 73.381918 85.550902 
L 74.151816 86.267483 
L 74.921714 86.983631 
L 75.691611 87.586552 
L 76.461509 88.178172 
L 77.231407 88.67563 
L 78.001305 89.073952 
L 78.771203 89.426699 
L 79.541101 89.690147 
L 80.310998 89.834002 
L 81.080896 89.795305 
L 81.850794 89.736901 
L 82.620692 89.701134 
L 83.39059 89.781705 
L 84.160488 89.557812 
L 84.930385 89.293784 
L 85.700283 88.907682 
L 86.470181 88.268679 
L 87.240079 87.645163 
L 88.009977 86.95364 
L 88.779875 86.204568 
L 89.549772 85.435761 
L 90.31967 84.595853 
L 91.089568 83.875654 
L 91.859466 83.133966 
L 92.629364 82.358326 
L 93.399262 81.586237 
L 95.324006 79.770875 
L 97.248751 78.102525 
L 99.173495 76.394679 
L 101.09824 74.781653 
L 103.022985 73.242687 
L 104.947729 71.701963 
L 106.872474 70.221642 
L 108.797218 68.764537 
L 110.721963 67.357408 
L 112.646707 65.971714 
L 114.571452 64.593959 
L 116.496197 63.224326 
L 118.420941 61.940641 
L 120.345686 60.762923 
L 122.27043 59.785996 
L 124.195175 58.93137 
L 126.119919 58.38425 
L 128.044664 58.046819 
L 131.894153 57.658175 
L 133.818898 57.639403 
" clip-path="url(#p2c8015a7b7)" style="fill: none; stroke: #d62728; stroke-linecap: square"/>
   </g>
   <g id="line2d_21">
    <path d="M 80.845333 92.147046 
L 82.856255 21.817569 
" clip-path="url(#p2c8015a7b7)" style="fill: none"/>
    <defs>
     <path id="mb82f150fbc" d="M 0 1 
C 0.265203 1 0.51958 0.894634 0.707107 0.707107 
C 0.894634 0.51958 1 0.265203 1 0 
C 1 -0.265203 0.894634 -0.51958 0.707107 -0.707107 
C 0.51958 -0.894634 0.265203 -1 0 -1 
C -0.265203 -1 -0.51958 -0.894634 -0.707107 -0.707107 
C -0.894634 -0.51958 -1 -0.265203 -1 0 
C -1 0.265203 -0.894634 0.51958 -0.707107 0.707107 
C -0.51958 0.894634 -0.265203 1 0 1 
z
" style="stroke: #000000; stroke-width: 0.5"/>
    </defs>
    <g clip-path="url(#p2c8015a7b7)">
     <use xlink:href="#mb82f150fbc" x="80.845333" y="92.147046" style="stroke: #000000; stroke-width: 0.5"/>
     <use xlink:href="#mb82f150fbc" x="82.856255" y="21.817569" style="stroke: #000000; stroke-width: 0.5"/>
    </g>
   </g>
   <g id="line2d_22">
    <path d="M 81.520615 89.913838 
L 82.180973 24.050777 
" clip-path="url(#p2c8015a7b7)" style="fill: none"/>
    <defs>
     <path id="m108ba168ab" d="M -0 1 
L 1 -1 
L -1 -1 
z
" style="stroke: #d62728; stroke-width: 0.5; stroke-linejoin: miter"/>
    </defs>
    <g clip-path="url(#p2c8015a7b7)">
     <use xlink:href="#m108ba168ab" x="81.520615" y="89.913838" style="fill: #d62728; stroke: #d62728; stroke-width: 0.5; stroke-linejoin: miter"/>
     <use xlink:href="#m108ba168ab" x="82.180973" y="24.050777" style="fill: #d62728; stroke: #d62728; stroke-width: 0.5; stroke-linejoin: miter"/>
    </g>
   </g>
  </g>
  <g id="axes_2">
   <g id="patch_7">
    <path d="M 29.497742 179.141135 
L 164.99976 179.141135 
L 164.99976 101.671167 
L 29.497742 101.671167 
L 29.497742 179.141135 
z
" style="fill: none"/>
   </g>
   <g id="PolyCollection_5">
    <path d="M 35.656924 154.533829 
L 35.656924 148.367128 
L 37.581669 153.502927 
L 39.506413 155.066697 
L 41.431158 158.914872 
L 43.355903 160.750095 
L 45.280647 162.429798 
L 47.205392 162.908508 
L 49.130136 163.66274 
L 51.054881 165.342446 
L 52.979625 167.867047 
L 54.90437 169.031784 
L 56.829115 170.570577 
L 58.753859 171.656788 
L 60.678604 172.49219 
L 62.603348 171.439081 
L 64.528093 169.597391 
L 66.452837 167.805716 
L 68.377582 163.074592 
L 70.302327 160.810332 
L 71.072224 158.33238 
L 71.842122 155.687313 
L 72.61202 155.496407 
L 73.381918 153.360659 
L 74.151816 151.884532 
L 74.921714 150.420325 
L 75.691611 149.204174 
L 76.461509 148.413918 
L 77.231407 146.804828 
L 78.001305 146.552035 
L 78.771203 144.408808 
L 79.541101 143.487567 
L 80.310998 141.838349 
L 81.080896 139.875656 
L 81.850794 137.657184 
L 82.620692 136.766924 
L 83.39059 134.959953 
L 84.160488 133.554072 
L 84.930385 132.421476 
L 85.700283 131.482658 
L 86.470181 129.821934 
L 87.240079 128.485192 
L 88.009977 127.169453 
L 88.779875 125.987846 
L 89.549772 124.96082 
L 90.31967 123.421407 
L 91.089568 121.477036 
L 91.859466 119.01362 
L 92.629364 117.412041 
L 93.399262 115.794499 
L 95.324006 111.711092 
L 97.248751 109.516812 
L 99.173495 106.688172 
L 101.09824 105.72501 
L 103.022985 105.19253 
L 104.947729 106.104027 
L 106.872474 107.06395 
L 108.797218 109.145944 
L 110.721963 111.300934 
L 112.646707 113.70403 
L 114.571452 114.878405 
L 116.496197 116.725736 
L 118.420941 116.985515 
L 120.345686 117.895921 
L 122.27043 119.152133 
L 124.195175 118.846274 
L 126.119919 120.927604 
L 128.044664 125.976376 
L 129.969409 127.079596 
L 131.894153 128.622892 
L 133.818898 129.330491 
L 135.743642 127.834786 
L 137.668387 125.546781 
L 139.593132 124.453144 
L 141.517876 123.504004 
L 143.442621 120.646647 
L 145.367365 119.117185 
L 147.29211 117.146412 
L 149.216854 113.673725 
L 151.141599 113.626725 
L 153.066344 115.660712 
L 154.991088 122.068975 
L 156.915833 128.665152 
L 158.840577 139.782606 
L 158.840577 145.560054 
L 158.840577 145.560054 
L 156.915833 134.825958 
L 154.991088 127.315687 
L 153.066344 122.719104 
L 151.141599 121.648998 
L 149.216854 119.280656 
L 147.29211 120.790488 
L 145.367365 122.473642 
L 143.442621 124.203707 
L 141.517876 128.641791 
L 139.593132 129.164069 
L 137.668387 129.593456 
L 135.743642 135.829491 
L 133.818898 132.376665 
L 131.894153 132.040519 
L 129.969409 130.224622 
L 128.044664 127.893479 
L 126.119919 127.083582 
L 124.195175 123.768521 
L 122.27043 122.437506 
L 120.345686 118.973588 
L 118.420941 118.444156 
L 116.496197 118.206423 
L 114.571452 116.567259 
L 112.646707 115.630695 
L 110.721963 113.294675 
L 108.797218 111.289621 
L 106.872474 109.681812 
L 104.947729 108.939812 
L 103.022985 108.477438 
L 101.09824 109.156176 
L 99.173495 110.621091 
L 97.248751 113.179828 
L 95.324006 115.728773 
L 93.399262 119.558503 
L 92.629364 121.1322 
L 91.859466 122.958505 
L 91.089568 125.060764 
L 90.31967 127.570564 
L 89.549772 128.078901 
L 88.779875 129.347953 
L 88.009977 130.259125 
L 87.240079 131.602336 
L 86.470181 132.635956 
L 85.700283 134.148244 
L 84.930385 134.778384 
L 84.160488 135.127066 
L 83.39059 136.64537 
L 82.620692 139.610955 
L 81.850794 140.222155 
L 81.080896 142.211587 
L 80.310998 143.402014 
L 79.541101 144.693806 
L 78.771203 146.231384 
L 78.001305 148.484477 
L 77.231407 150.080272 
L 76.461509 151.636251 
L 75.691611 152.593545 
L 74.921714 153.919648 
L 74.151816 155.48302 
L 73.381918 157.415725 
L 72.61202 159.167292 
L 71.842122 159.512504 
L 71.072224 161.873118 
L 70.302327 164.15517 
L 68.377582 166.791104 
L 66.452837 171.484982 
L 64.528093 173.491312 
L 62.603348 175.057271 
L 60.678604 175.619773 
L 58.753859 174.363992 
L 56.829115 172.947807 
L 54.90437 170.865152 
L 52.979625 169.242323 
L 51.054881 166.8373 
L 49.130136 164.810801 
L 47.205392 164.56293 
L 45.280647 163.52783 
L 43.355903 164.5335 
L 41.431158 162.306871 
L 39.506413 160.260575 
L 37.581669 158.842445 
L 35.656924 154.533829 
z
" clip-path="url(#p03e903b557)" style="fill-opacity: 0.5"/>
   </g>
   <g id="PolyCollection_6">
    <path d="M 35.656924 147.54872 
L 35.656924 133.037556 
L 37.581669 141.222402 
L 39.506413 144.945663 
L 41.431158 150.546695 
L 43.355903 154.259032 
L 45.280647 156.743924 
L 47.205392 157.560399 
L 49.130136 158.830823 
L 51.054881 160.392018 
L 52.979625 162.935737 
L 54.90437 165.128482 
L 56.829115 166.832372 
L 58.753859 167.10557 
L 60.678604 168.277607 
L 62.603348 167.140776 
L 64.528093 165.215683 
L 66.452837 162.53634 
L 68.377582 159.341705 
L 70.302327 156.431953 
L 71.072224 153.66876 
L 71.842122 152.809894 
L 72.61202 151.201463 
L 73.381918 148.795468 
L 74.151816 148.010079 
L 74.921714 147.434076 
L 75.691611 145.506412 
L 76.461509 144.124505 
L 77.231407 142.782778 
L 78.001305 142.087798 
L 78.771203 140.733223 
L 79.541101 140.732357 
L 80.310998 139.918808 
L 81.080896 139.329148 
L 81.850794 138.332203 
L 82.620692 137.502511 
L 83.39059 137.06385 
L 84.160488 136.492452 
L 84.930385 136.091009 
L 85.700283 134.967835 
L 86.470181 133.744542 
L 87.240079 132.593057 
L 88.009977 131.487637 
L 88.779875 129.538783 
L 89.549772 129.135379 
L 90.31967 126.031118 
L 91.089568 125.377692 
L 91.859466 124.034911 
L 92.629364 121.768301 
L 93.399262 119.386794 
L 95.324006 116.23854 
L 97.248751 113.587581 
L 99.173495 111.437981 
L 101.09824 109.568947 
L 103.022985 109.692008 
L 104.947729 110.728215 
L 106.872474 112.181367 
L 108.797218 113.610667 
L 110.721963 116.671676 
L 112.646707 118.606663 
L 114.571452 120.557374 
L 116.496197 121.765756 
L 118.420941 122.834085 
L 120.345686 124.384525 
L 122.27043 125.321461 
L 124.195175 127.438597 
L 126.119919 126.525305 
L 128.044664 122.032592 
L 131.894153 125.283627 
L 133.818898 128.752736 
L 133.818898 142.530933 
L 133.818898 142.530933 
L 131.894153 139.487254 
L 128.044664 135.252854 
L 126.119919 130.956396 
L 124.195175 130.239736 
L 122.27043 129.461247 
L 120.345686 126.193361 
L 118.420941 124.295838 
L 116.496197 122.740155 
L 114.571452 121.635441 
L 112.646707 119.889682 
L 110.721963 117.910527 
L 108.797218 115.506488 
L 106.872474 114.441598 
L 104.947729 113.472686 
L 103.022985 113.006469 
L 101.09824 113.203126 
L 99.173495 115.141495 
L 97.248751 117.043828 
L 95.324006 119.667986 
L 93.399262 122.682798 
L 92.629364 125.054095 
L 91.859466 127.801953 
L 91.089568 128.517311 
L 90.31967 129.458359 
L 89.549772 132.045517 
L 88.779875 132.687282 
L 88.009977 134.72527 
L 87.240079 135.088293 
L 86.470181 136.164619 
L 85.700283 137.607057 
L 84.930385 138.230537 
L 84.160488 138.369637 
L 83.39059 139.035544 
L 82.620692 139.67937 
L 81.850794 140.223758 
L 81.080896 141.074524 
L 80.310998 141.458516 
L 79.541101 142.345933 
L 78.771203 142.66573 
L 78.001305 144.330523 
L 77.231407 145.284889 
L 76.461509 147.066005 
L 75.691611 148.622613 
L 74.921714 150.68995 
L 74.151816 151.137332 
L 73.381918 152.054229 
L 72.61202 154.30159 
L 71.842122 155.963451 
L 71.072224 157.670176 
L 70.302327 159.394909 
L 68.377582 163.288121 
L 66.452837 166.277886 
L 64.528093 168.750063 
L 62.603348 170.126131 
L 60.678604 170.933602 
L 58.753859 170.033761 
L 56.829115 169.063497 
L 54.90437 166.722407 
L 52.979625 164.659951 
L 51.054881 162.821627 
L 49.130136 160.693753 
L 47.205392 159.968786 
L 45.280647 158.170178 
L 43.355903 157.144039 
L 41.431158 156.771194 
L 39.506413 152.28966 
L 37.581669 151.725096 
L 35.656924 147.54872 
z
" clip-path="url(#p03e903b557)" style="fill: #d62728; fill-opacity: 0.5"/>
   </g>
   <g id="matplotlib.axis_3">
    <g id="xtick_5">
     <g id="line2d_23">
      <g>
       <use xlink:href="#m4f7da39c22" x="43.355903" y="179.141135" style="stroke: #000000; stroke-width: 0.5"/>
      </g>
     </g>
     <g id="line2d_24">
      <g>
       <use xlink:href="#mca4db81204" x="43.355903" y="101.671167" style="stroke: #000000; stroke-width: 0.5"/>
      </g>
     </g>
     <g id="text_5">
      <!-- −0.5 -->
      <g transform="translate(35.133932 188.603593) scale(0.0833 -0.0833)">
       <defs>
        <path id="ArialMT-2e" d="M 581 0 
L 581 641 
L 1222 641 
L 1222 0 
L 581 0 
z
" transform="scale(0.015625)"/>
        <path id="ArialMT-35" d="M 266 1200 
L 856 1250 
Q 922 819 1161 601 
Q 1400 384 1738 384 
Q 2144 384 2425 690 
Q 2706 997 2706 1503 
Q 2706 1984 2436 2262 
Q 2166 2541 1728 2541 
Q 1456 2541 1237 2417 
Q 1019 2294 894 2097 
L 366 2166 
L 809 4519 
L 3088 4519 
L 3088 3981 
L 1259 3981 
L 1013 2750 
Q 1425 3038 1878 3038 
Q 2478 3038 2890 2622 
Q 3303 2206 3303 1553 
Q 3303 931 2941 478 
Q 2500 -78 1738 -78 
Q 1113 -78 717 272 
Q 322 622 266 1200 
z
" transform="scale(0.015625)"/>
       </defs>
       <use xlink:href="#ArialMT-2212"/>
       <use xlink:href="#ArialMT-30" x="58.398438"/>
       <use xlink:href="#ArialMT-2e" x="114.013672"/>
       <use xlink:href="#ArialMT-35" x="141.796875"/>
      </g>
     </g>
    </g>
    <g id="xtick_6">
     <g id="line2d_25">
      <g>
       <use xlink:href="#m4f7da39c22" x="81.850794" y="179.141135" style="stroke: #000000; stroke-width: 0.5"/>
      </g>
     </g>
     <g id="line2d_26">
      <g>
       <use xlink:href="#mca4db81204" x="81.850794" y="101.671167" style="stroke: #000000; stroke-width: 0.5"/>
      </g>
     </g>
     <g id="text_6">
      <!-- 0.0 -->
      <g transform="translate(76.061444 188.603593) scale(0.0833 -0.0833)">
       <use xlink:href="#ArialMT-30"/>
       <use xlink:href="#ArialMT-2e" x="55.615234"/>
       <use xlink:href="#ArialMT-30" x="83.398438"/>
      </g>
     </g>
    </g>
    <g id="xtick_7">
     <g id="line2d_27">
      <g>
       <use xlink:href="#m4f7da39c22" x="120.345686" y="179.141135" style="stroke: #000000; stroke-width: 0.5"/>
      </g>
     </g>
     <g id="line2d_28">
      <g>
       <use xlink:href="#mca4db81204" x="120.345686" y="101.671167" style="stroke: #000000; stroke-width: 0.5"/>
      </g>
     </g>
     <g id="text_7">
      <!-- 0.5 -->
      <g transform="translate(114.556336 188.603593) scale(0.0833 -0.0833)">
       <use xlink:href="#ArialMT-30"/>
       <use xlink:href="#ArialMT-2e" x="55.615234"/>
       <use xlink:href="#ArialMT-35" x="83.398438"/>
      </g>
     </g>
    </g>
    <g id="xtick_8">
     <g id="line2d_29">
      <g>
       <use xlink:href="#m4f7da39c22" x="158.840577" y="179.141135" style="stroke: #000000; stroke-width: 0.5"/>
      </g>
     </g>
     <g id="line2d_30">
      <g>
       <use xlink:href="#mca4db81204" x="158.840577" y="101.671167" style="stroke: #000000; stroke-width: 0.5"/>
      </g>
     </g>
     <g id="text_8">
      <!-- 1.0 -->
      <g transform="translate(153.051227 188.603593) scale(0.0833 -0.0833)">
       <defs>
        <path id="ArialMT-31" d="M 2384 0 
L 1822 0 
L 1822 3584 
Q 1619 3391 1289 3197 
Q 959 3003 697 2906 
L 697 3450 
Q 1169 3672 1522 3987 
Q 1875 4303 2022 4600 
L 2384 4600 
L 2384 0 
z
" transform="scale(0.015625)"/>
       </defs>
       <use xlink:href="#ArialMT-31"/>
       <use xlink:href="#ArialMT-2e" x="55.615234"/>
       <use xlink:href="#ArialMT-30" x="83.398438"/>
      </g>
     </g>
    </g>
    <g id="text_9">
     <!-- $B_\parallel$ (T) -->
     <g transform="translate(82.298751 201.55918) scale(0.1 -0.1)">
      <defs>
       <path id="Cmmi10-42" d="M 319 0 
Q 256 0 256 84 
Q 259 100 268 137 
Q 278 175 293 200 
Q 309 225 341 225 
Q 522 225 656 234 
Q 791 244 884 269 
Q 959 297 1006 441 
L 1881 3956 
Q 1894 4019 1894 4044 
Q 1894 4113 1819 4122 
Q 1697 4147 1356 4147 
Q 1294 4147 1294 4231 
Q 1297 4247 1306 4286 
Q 1316 4325 1333 4348 
Q 1350 4372 1375 4372 
L 3669 4372 
Q 3878 4372 4083 4320 
Q 4288 4269 4461 4156 
Q 4634 4044 4736 3876 
Q 4838 3709 4838 3488 
Q 4838 3247 4714 3040 
Q 4591 2834 4395 2681 
Q 4200 2528 3973 2429 
Q 3747 2331 3500 2284 
Q 3675 2284 3854 2215 
Q 4034 2147 4175 2028 
Q 4316 1909 4402 1743 
Q 4488 1578 4488 1388 
Q 4488 1003 4219 684 
Q 3950 366 3542 183 
Q 3134 0 2753 0 
L 319 0 
z
M 1497 275 
Q 1497 225 1716 225 
L 2631 225 
Q 2944 225 3231 398 
Q 3519 572 3692 859 
Q 3866 1147 3866 1459 
Q 3866 1650 3786 1820 
Q 3706 1991 3556 2089 
Q 3406 2188 3213 2188 
L 1966 2188 
L 1522 416 
Q 1497 328 1497 275 
z
M 2009 2356 
L 2981 2356 
Q 3288 2356 3577 2512 
Q 3866 2669 4048 2937 
Q 4231 3206 4231 3506 
Q 4231 3784 4057 3965 
Q 3884 4147 3609 4147 
L 2731 4147 
Q 2559 4147 2500 4115 
Q 2441 4084 2400 3928 
L 2009 2356 
z
" transform="scale(0.015625)"/>
       <path id="STIXGeneral-Regular-2225" d="M 2522 -1210 
L 2099 -1210 
L 2099 4416 
L 2522 4416 
L 2522 -1210 
z
M 1248 -1210 
L 826 -1210 
L 826 4416 
L 1248 4416 
L 1248 -1210 
z
" transform="scale(0.015625)"/>
       <path id="ArialMT-54" d="M 1659 0 
L 1659 4041 
L 150 4041 
L 150 4581 
L 3781 4581 
L 3781 4041 
L 2266 4041 
L 2266 0 
L 1659 0 
z
" transform="scale(0.015625)"/>
      </defs>
      <use xlink:href="#Cmmi10-42" transform="translate(0 0.203125)"/>
      <use xlink:href="#STIXGeneral-Regular-2225" transform="translate(88.072266 -16.803125) scale(0.7)"/>
      <use xlink:href="#ArialMT-20" transform="translate(143.350616 0.203125)"/>
      <use xlink:href="#ArialMT-28" transform="translate(171.13382 0.203125)"/>
      <use xlink:href="#ArialMT-54" transform="translate(204.434601 0.203125)"/>
      <use xlink:href="#ArialMT-29" transform="translate(265.518585 0.203125)"/>
     </g>
    </g>
   </g>
   <g id="matplotlib.axis_4">
    <g id="ytick_4">
     <g id="line2d_31">
      <g>
       <use xlink:href="#m64dc0130b7" x="29.497742" y="175.524266" style="stroke: #000000; stroke-width: 0.5"/>
      </g>
     </g>
     <g id="line2d_32">
      <g>
       <use xlink:href="#m3cac40800f" x="164.99976" y="175.524266" style="stroke: #000000; stroke-width: 0.5"/>
      </g>
     </g>
     <g id="text_10">
      <!-- −5 -->
      <g transform="translate(16.50024 178.505495) scale(0.0833 -0.0833)">
       <use xlink:href="#ArialMT-2212"/>
       <use xlink:href="#ArialMT-35" x="58.398438"/>
      </g>
     </g>
    </g>
    <g id="ytick_5">
     <g id="line2d_33">
      <g>
       <use xlink:href="#m64dc0130b7" x="29.497742" y="140.317633" style="stroke: #000000; stroke-width: 0.5"/>
      </g>
     </g>
     <g id="line2d_34">
      <g>
       <use xlink:href="#m3cac40800f" x="164.99976" y="140.317633" style="stroke: #000000; stroke-width: 0.5"/>
      </g>
     </g>
     <g id="text_11">
      <!-- 0 -->
      <g transform="translate(21.365481 143.298862) scale(0.0833 -0.0833)">
       <use xlink:href="#ArialMT-30"/>
      </g>
     </g>
    </g>
    <g id="ytick_6">
     <g id="line2d_35">
      <g>
       <use xlink:href="#m64dc0130b7" x="29.497742" y="105.111" style="stroke: #000000; stroke-width: 0.5"/>
      </g>
     </g>
     <g id="line2d_36">
      <g>
       <use xlink:href="#m3cac40800f" x="164.99976" y="105.111" style="stroke: #000000; stroke-width: 0.5"/>
      </g>
     </g>
     <g id="text_12">
      <!-- 5 -->
      <g transform="translate(21.365481 108.092229) scale(0.0833 -0.0833)">
       <use xlink:href="#ArialMT-35"/>
      </g>
     </g>
    </g>
    <g id="text_13">
     <!-- $\eta$ (%) -->
     <g transform="translate(10.30024 152.056151) rotate(-90) scale(0.1 -0.1)">
      <defs>
       <path id="Cmmi10-b4" d="M 684 -72 
Q 606 -72 550 -22 
Q 494 28 494 109 
Q 494 147 500 166 
L 978 2075 
Q 1025 2253 1025 2388 
Q 1025 2663 838 2663 
Q 638 2663 541 2423 
Q 444 2184 353 1819 
Q 353 1800 334 1789 
Q 316 1778 300 1778 
L 225 1778 
Q 203 1778 187 1801 
Q 172 1825 172 1844 
Q 241 2122 305 2315 
Q 369 2509 505 2668 
Q 641 2828 844 2828 
Q 1081 2828 1267 2678 
Q 1453 2528 1453 2291 
Q 1641 2541 1894 2684 
Q 2147 2828 2444 2828 
Q 2778 2828 2979 2648 
Q 3181 2469 3181 2138 
Q 3181 1947 3138 1784 
L 2394 -1178 
Q 2375 -1269 2300 -1325 
Q 2225 -1381 2131 -1381 
Q 2053 -1381 1997 -1332 
Q 1941 -1284 1941 -1203 
Q 1941 -1166 1947 -1153 
L 2681 1797 
Q 2747 2059 2747 2234 
Q 2747 2413 2672 2538 
Q 2597 2663 2431 2663 
Q 1803 2663 1388 1888 
L 953 141 
Q 931 53 854 -9 
Q 778 -72 684 -72 
z
" transform="scale(0.015625)"/>
       <path id="ArialMT-25" d="M 372 3481 
Q 372 3972 619 4315 
Q 866 4659 1334 4659 
Q 1766 4659 2048 4351 
Q 2331 4044 2331 3447 
Q 2331 2866 2045 2552 
Q 1759 2238 1341 2238 
Q 925 2238 648 2547 
Q 372 2856 372 3481 
z
M 1350 4272 
Q 1141 4272 1002 4090 
Q 863 3909 863 3425 
Q 863 2984 1003 2804 
Q 1144 2625 1350 2625 
Q 1563 2625 1702 2806 
Q 1841 2988 1841 3469 
Q 1841 3913 1700 4092 
Q 1559 4272 1350 4272 
z
M 1353 -169 
L 3859 4659 
L 4316 4659 
L 1819 -169 
L 1353 -169 
z
M 3334 1075 
Q 3334 1569 3581 1911 
Q 3828 2253 4300 2253 
Q 4731 2253 5014 1945 
Q 5297 1638 5297 1041 
Q 5297 459 5011 145 
Q 4725 -169 4303 -169 
Q 3888 -169 3611 142 
Q 3334 453 3334 1075 
z
M 4316 1866 
Q 4103 1866 3964 1684 
Q 3825 1503 3825 1019 
Q 3825 581 3965 400 
Q 4106 219 4313 219 
Q 4528 219 4667 400 
Q 4806 581 4806 1063 
Q 4806 1506 4665 1686 
Q 4525 1866 4316 1866 
z
" transform="scale(0.015625)"/>
      </defs>
      <use xlink:href="#Cmmi10-b4" transform="translate(0 0.203125)"/>
      <use xlink:href="#ArialMT-20" transform="translate(49.609375 0.203125)"/>
      <use xlink:href="#ArialMT-28" transform="translate(77.392578 0.203125)"/>
      <use xlink:href="#ArialMT-25" transform="translate(110.693359 0.203125)"/>
      <use xlink:href="#ArialMT-29" transform="translate(199.609375 0.203125)"/>
     </g>
    </g>
   </g>
   <g id="line2d_37">
    <path d="M 29.497742 140.317633 
L 164.99976 140.317633 
" clip-path="url(#p03e903b557)" style="fill: none; stroke: #d3d3d3; stroke-width: 0.5; stroke-linecap: square"/>
   </g>
   <g id="line2d_38">
    <path d="M 81.850794 179.141135 
L 81.850794 101.671167 
" clip-path="url(#p03e903b557)" style="fill: none; stroke: #d3d3d3; stroke-width: 0.5; stroke-linecap: square"/>
   </g>
   <g id="line2d_39"/>
   <g id="line2d_40"/>
   <g id="patch_8">
    <path d="M 29.497742 179.141135 
L 29.497742 101.671167 
" style="fill: none; stroke: #000000; stroke-width: 0.5; stroke-linejoin: miter; stroke-linecap: square"/>
   </g>
   <g id="patch_9">
    <path d="M 164.99976 179.141135 
L 164.99976 101.671167 
" style="fill: none; stroke: #000000; stroke-width: 0.5; stroke-linejoin: miter; stroke-linecap: square"/>
   </g>
   <g id="patch_10">
    <path d="M 29.497742 179.141135 
L 164.99976 179.141135 
" style="fill: none; stroke: #000000; stroke-width: 0.5; stroke-linejoin: miter; stroke-linecap: square"/>
   </g>
   <g id="patch_11">
    <path d="M 29.497742 101.671167 
L 164.99976 101.671167 
" style="fill: none; stroke: #000000; stroke-width: 0.5; stroke-linejoin: miter; stroke-linecap: square"/>
   </g>
   <g id="line2d_41">
    <path d="M 35.656924 151.450478 
L 37.581669 156.172686 
L 39.506413 157.663636 
L 41.431158 160.610872 
L 43.355903 162.641798 
L 45.280647 162.978814 
L 47.205392 163.735719 
L 49.130136 164.23677 
L 51.054881 166.089873 
L 52.979625 168.554685 
L 54.90437 169.948468 
L 56.829115 171.759192 
L 58.753859 173.01039 
L 60.678604 174.055981 
L 62.603348 173.248176 
L 64.528093 171.544352 
L 66.452837 169.645349 
L 68.377582 164.932848 
L 70.302327 162.482751 
L 71.072224 160.102749 
L 71.842122 157.599908 
L 72.61202 157.33185 
L 73.381918 155.388192 
L 74.151816 153.683776 
L 74.921714 152.169986 
L 75.691611 150.89886 
L 76.461509 150.025084 
L 77.231407 148.44255 
L 78.001305 147.518256 
L 78.771203 145.320096 
L 79.541101 144.090687 
L 80.310998 142.620181 
L 81.080896 141.043622 
L 81.850794 138.939669 
L 82.620692 138.188939 
L 83.39059 135.802661 
L 84.160488 134.340569 
L 84.930385 133.59993 
L 85.700283 132.815451 
L 86.470181 131.228945 
L 87.240079 130.043764 
L 88.009977 128.714289 
L 88.779875 127.667899 
L 89.549772 126.51986 
L 90.31967 125.495985 
L 91.089568 123.2689 
L 91.859466 120.986063 
L 92.629364 119.272121 
L 93.399262 117.676501 
L 95.324006 113.719932 
L 97.248751 111.34832 
L 99.173495 108.654632 
L 101.09824 107.440593 
L 103.022985 106.834984 
L 104.947729 107.52192 
L 106.872474 108.372881 
L 108.797218 110.217783 
L 110.721963 112.297805 
L 112.646707 114.667363 
L 114.571452 115.722832 
L 116.496197 117.466079 
L 118.420941 117.714835 
L 120.345686 118.434755 
L 122.27043 120.79482 
L 124.195175 121.307398 
L 126.119919 124.005593 
L 128.044664 126.934927 
L 129.969409 128.652109 
L 131.894153 130.331705 
L 133.818898 130.853578 
L 135.743642 131.832138 
L 137.668387 127.570118 
L 139.593132 126.808606 
L 141.517876 126.072898 
L 143.442621 122.425177 
L 145.367365 120.795413 
L 147.29211 118.96845 
L 149.216854 116.477191 
L 151.141599 117.637862 
L 153.066344 119.189908 
L 154.991088 124.692331 
L 156.915833 131.745555 
L 158.840577 142.67133 
" clip-path="url(#p03e903b557)" style="fill: none; stroke: #000000; stroke-linecap: square"/>
   </g>
   <g id="legend_1">
    <g id="patch_12">
     <path d="M 122.15376 176.246135 
L 160.94676 176.246135 
Q 162.10476 176.246135 162.10476 175.088135 
L 162.10476 157.833935 
Q 162.10476 156.675935 160.94676 156.675935 
L 122.15376 156.675935 
Q 120.99576 156.675935 120.99576 157.833935 
L 120.99576 175.088135 
Q 120.99576 176.246135 122.15376 176.246135 
z
" style="fill: #ffffff; opacity: 0.8; stroke: #cccccc; stroke-linejoin: miter"/>
    </g>
    <g id="line2d_42">
     <path d="M 123.31176 161.134235 
L 129.10176 161.134235 
L 134.89176 161.134235 
" style="fill: none; stroke: #000000; stroke-linecap: square"/>
     <defs>
      <path id="m3c0d2247cc" d="M 0 1.5 
C 0.397805 1.5 0.77937 1.341951 1.06066 1.06066 
C 1.341951 0.77937 1.5 0.397805 1.5 0 
C 1.5 -0.397805 1.341951 -0.77937 1.06066 -1.06066 
C 0.77937 -1.341951 0.397805 -1.5 0 -1.5 
C -0.397805 -1.5 -0.77937 -1.341951 -1.06066 -1.06066 
C -1.341951 -0.77937 -1.5 -0.397805 -1.5 0 
C -1.5 0.397805 -1.341951 0.77937 -1.06066 1.06066 
C -0.77937 1.341951 -0.397805 1.5 0 1.5 
z
" style="stroke: #000000; stroke-width: 0.5"/>
     </defs>
     <g>
      <use xlink:href="#m3c0d2247cc" x="129.10176" y="161.134235" style="stroke: #000000; stroke-width: 0.5"/>
     </g>
    </g>
    <g id="text_14">
     <!-- $V_\mathrm{g}=$0$\,$V -->
     <g transform="translate(139.52376 163.160735) scale(0.0579 -0.0579)">
      <defs>
       <path id="Cmmi10-56" d="M 1409 -72 
L 897 4006 
Q 850 4147 416 4147 
Q 353 4147 353 4231 
Q 366 4300 384 4336 
Q 403 4372 459 4372 
L 2022 4372 
Q 2056 4372 2072 4347 
Q 2088 4322 2088 4288 
Q 2063 4147 2003 4147 
Q 1503 4147 1472 3975 
L 1894 628 
L 3866 3775 
Q 3922 3881 3922 3944 
Q 3922 4056 3820 4101 
Q 3719 4147 3584 4147 
Q 3519 4147 3519 4231 
Q 3531 4281 3540 4309 
Q 3550 4338 3569 4355 
Q 3588 4372 3628 4372 
L 4863 4372 
Q 4922 4372 4922 4288 
Q 4897 4147 4838 4147 
Q 4356 4147 4084 3725 
Q 4072 3713 4063 3713 
L 1703 -72 
Q 1656 -141 1581 -141 
L 1491 -141 
Q 1419 -141 1409 -72 
z
" transform="scale(0.015625)"/>
       <path id="Cmr10-67" d="M 178 -500 
Q 178 -272 343 -101 
Q 509 69 738 141 
Q 609 238 542 384 
Q 475 531 475 697 
Q 475 997 666 1228 
Q 372 1516 372 1888 
Q 372 2088 458 2263 
Q 544 2438 697 2566 
Q 850 2694 1037 2761 
Q 1225 2828 1422 2828 
Q 1803 2828 2106 2606 
Q 2238 2747 2417 2823 
Q 2597 2900 2791 2900 
Q 2928 2900 3015 2801 
Q 3103 2703 3103 2566 
Q 3103 2488 3043 2428 
Q 2984 2369 2906 2369 
Q 2825 2369 2765 2428 
Q 2706 2488 2706 2566 
Q 2706 2684 2784 2731 
Q 2453 2731 2216 2503 
Q 2331 2388 2401 2220 
Q 2472 2053 2472 1888 
Q 2472 1616 2322 1398 
Q 2172 1181 1926 1061 
Q 1681 941 1422 941 
Q 1072 941 781 1131 
Q 691 1006 691 850 
Q 691 681 802 554 
Q 913 428 1081 428 
L 1606 428 
Q 1988 428 2294 359 
Q 2600 291 2808 84 
Q 3016 -122 3016 -500 
Q 3016 -781 2778 -967 
Q 2541 -1153 2211 -1236 
Q 1881 -1319 1600 -1319 
Q 1316 -1319 984 -1236 
Q 653 -1153 415 -967 
Q 178 -781 178 -500 
z
M 538 -500 
Q 538 -716 713 -861 
Q 888 -1006 1134 -1076 
Q 1381 -1147 1600 -1147 
Q 1816 -1147 2062 -1076 
Q 2309 -1006 2482 -861 
Q 2656 -716 2656 -500 
Q 2656 -166 2350 -67 
Q 2044 31 1606 31 
L 1081 31 
Q 934 31 811 -39 
Q 688 -109 613 -236 
Q 538 -363 538 -500 
z
M 1422 1113 
Q 1966 1113 1966 1888 
Q 1966 2222 1850 2439 
Q 1734 2656 1422 2656 
Q 1109 2656 993 2439 
Q 878 2222 878 1888 
Q 878 1675 922 1503 
Q 966 1331 1084 1222 
Q 1203 1113 1422 1113 
z
" transform="scale(0.015625)"/>
       <path id="Cmr10-3d" d="M 481 850 
Q 428 850 393 890 
Q 359 931 359 978 
Q 359 1031 393 1068 
Q 428 1106 481 1106 
L 4500 1106 
Q 4547 1106 4581 1068 
Q 4616 1031 4616 978 
Q 4616 931 4581 890 
Q 4547 850 4500 850 
L 481 850 
z
M 481 2094 
Q 428 2094 393 2131 
Q 359 2169 359 2222 
Q 359 2269 393 2309 
Q 428 2350 481 2350 
L 4500 2350 
Q 4547 2350 4581 2309 
Q 4616 2269 4616 2222 
Q 4616 2169 4581 2131 
Q 4547 2094 4500 2094 
L 481 2094 
z
" transform="scale(0.015625)"/>
       <path id="ArialMT-56" d="M 1803 0 
L 28 4581 
L 684 4581 
L 1875 1253 
Q 2019 853 2116 503 
Q 2222 878 2363 1253 
L 3600 4581 
L 4219 4581 
L 2425 0 
L 1803 0 
z
" transform="scale(0.015625)"/>
      </defs>
      <use xlink:href="#Cmmi10-56" transform="translate(0 0.125)"/>
      <use xlink:href="#Cmr10-67" transform="translate(58.300781 -16.88125) scale(0.7)"/>
      <use xlink:href="#Cmr10-3d" transform="translate(117.236719 0.125)"/>
      <use xlink:href="#ArialMT-30" transform="translate(212.480859 0.125)"/>
      <use xlink:href="#ArialMT-56" transform="translate(282.728548 0.125)"/>
     </g>
    </g>
    <g id="line2d_43">
     <path d="M 123.31176 170.050835 
L 129.10176 170.050835 
L 134.89176 170.050835 
" style="fill: none; stroke: #d62728; stroke-linecap: square"/>
     <defs>
      <path id="m4c50acddd8" d="M -0 1.5 
L 1.5 -1.5 
L -1.5 -1.5 
z
" style="stroke: #d62728; stroke-width: 0.5; stroke-linejoin: miter"/>
     </defs>
     <g>
      <use xlink:href="#m4c50acddd8" x="129.10176" y="170.050835" style="fill: #d62728; stroke: #d62728; stroke-width: 0.5; stroke-linejoin: miter"/>
     </g>
    </g>
    <g id="text_15">
     <!-- $V_\mathrm{g}&lt;$0$\,$V -->
     <g transform="translate(139.52376 172.077335) scale(0.0579 -0.0579)">
      <defs>
       <path id="Cmmi10-3c" d="M 594 1491 
Q 531 1519 531 1600 
Q 531 1681 616 1722 
L 4269 3444 
Q 4294 3456 4313 3456 
Q 4369 3456 4405 3417 
Q 4441 3378 4441 3328 
Q 4441 3250 4366 3206 
L 959 1600 
L 4384 -19 
Q 4441 -38 4441 -128 
Q 4441 -178 4405 -217 
Q 4369 -256 4313 -256 
Q 4294 -256 4269 -244 
L 594 1491 
z
" transform="scale(0.015625)"/>
      </defs>
      <use xlink:href="#Cmmi10-56" transform="translate(0 0.125)"/>
      <use xlink:href="#Cmr10-67" transform="translate(58.300781 -16.88125) scale(0.7)"/>
      <use xlink:href="#Cmmi10-3c" transform="translate(117.236719 0.125)"/>
      <use xlink:href="#ArialMT-30" transform="translate(212.480859 0.125)"/>
      <use xlink:href="#ArialMT-56" transform="translate(282.728548 0.125)"/>
     </g>
    </g>
   </g>
   <g id="line2d_44">
    <path d="M 35.656924 140.293138 
L 37.581669 146.473749 
L 39.506413 148.617661 
L 41.431158 153.658944 
L 43.355903 155.701535 
L 45.280647 157.457051 
L 47.205392 158.764593 
L 49.130136 159.762288 
L 51.054881 161.606823 
L 52.979625 163.797844 
L 54.90437 165.925445 
L 56.829115 167.947934 
L 58.753859 168.569666 
L 60.678604 169.605605 
L 62.603348 168.633453 
L 64.528093 166.982873 
L 66.452837 164.407113 
L 68.377582 161.314913 
L 70.302327 157.913431 
L 71.072224 155.669468 
L 71.842122 154.386672 
L 72.61202 152.751527 
L 73.381918 150.424848 
L 74.151816 149.573706 
L 74.921714 149.062013 
L 75.691611 147.064513 
L 76.461509 145.595255 
L 77.231407 144.033833 
L 78.001305 143.209161 
L 78.771203 141.699476 
L 79.541101 141.539145 
L 80.310998 140.688662 
L 81.080896 140.201836 
L 81.850794 139.27798 
L 82.620692 138.590941 
L 83.39059 138.049697 
L 84.160488 137.431045 
L 84.930385 137.160773 
L 85.700283 136.287446 
L 86.470181 134.95458 
L 87.240079 133.840675 
L 88.009977 133.106453 
L 88.779875 131.113033 
L 89.549772 130.590448 
L 90.31967 127.744738 
L 91.089568 126.947502 
L 91.859466 125.918432 
L 92.629364 123.411198 
L 93.399262 121.034796 
L 95.324006 117.953263 
L 97.248751 115.315704 
L 99.173495 113.289738 
L 101.09824 111.386037 
L 103.022985 111.349238 
L 104.947729 112.100451 
L 106.872474 113.311483 
L 108.797218 114.558577 
L 110.721963 117.291102 
L 112.646707 119.248172 
L 114.571452 121.096408 
L 116.496197 122.252955 
L 118.420941 123.564961 
L 120.345686 125.288943 
L 122.27043 127.391354 
L 124.195175 128.839167 
L 126.119919 128.740851 
L 128.044664 128.642723 
L 131.894153 132.38544 
L 133.818898 135.641835 
" clip-path="url(#p03e903b557)" style="fill: none; stroke: #d62728; stroke-linecap: square"/>
   </g>
   <g id="line2d_45">
    <path d="M 60.878777 174.06954 
L 102.953694 106.833695 
" clip-path="url(#p03e903b557)" style="fill: none"/>
    <g clip-path="url(#p03e903b557)">
     <use xlink:href="#mb82f150fbc" x="60.878777" y="174.06954" style="stroke: #000000; stroke-width: 0.5"/>
     <use xlink:href="#mb82f150fbc" x="102.953694" y="106.833695" style="stroke: #000000; stroke-width: 0.5"/>
    </g>
   </g>
   <g id="line2d_46">
    <path d="M 60.786389 169.611331 
L 101.968224 111.165862 
" clip-path="url(#p03e903b557)" style="fill: none"/>
    <g clip-path="url(#p03e903b557)">
     <use xlink:href="#m108ba168ab" x="60.786389" y="169.611331" style="fill: #d62728; stroke: #d62728; stroke-width: 0.5; stroke-linejoin: miter"/>
     <use xlink:href="#m108ba168ab" x="101.968224" y="111.165862" style="fill: #d62728; stroke: #d62728; stroke-width: 0.5; stroke-linejoin: miter"/>
    </g>
   </g>
  </g>
  <g id="text_16">
   <!-- $W_\mathrm{sc}=$0.3$\,$μm -->
   <g transform="translate(55.65 10.20024) scale(0.1 -0.1)">
    <defs>
     <path id="Cmmi10-57" d="M 1141 -72 
L 844 4006 
Q 822 4100 703 4123 
Q 584 4147 409 4147 
Q 347 4147 347 4231 
Q 369 4313 381 4342 
Q 394 4372 453 4372 
L 1978 4372 
Q 2041 4372 2041 4288 
Q 2016 4147 1959 4147 
Q 1447 4147 1416 3969 
L 1644 738 
L 3244 3525 
L 3213 4006 
Q 3191 4100 3072 4123 
Q 2953 4147 2778 4147 
Q 2713 4147 2713 4231 
Q 2734 4313 2746 4342 
Q 2759 4372 2822 4372 
L 4347 4372 
Q 4409 4372 4409 4288 
Q 4406 4272 4397 4234 
Q 4388 4197 4372 4172 
Q 4356 4147 4325 4147 
Q 3809 4147 3781 3969 
L 3781 3922 
L 4013 738 
L 5753 3775 
Q 5791 3844 5791 3909 
Q 5791 4041 5662 4094 
Q 5534 4147 5375 4147 
Q 5313 4147 5313 4231 
Q 5325 4281 5333 4309 
Q 5341 4338 5361 4355 
Q 5381 4372 5422 4372 
L 6644 4372 
Q 6706 4372 6706 4288 
Q 6703 4272 6693 4233 
Q 6684 4194 6667 4170 
Q 6650 4147 6625 4147 
Q 6169 4147 5931 3731 
Q 5913 3713 5913 3713 
L 3744 -72 
Q 3709 -141 3634 -141 
L 3584 -141 
Q 3506 -141 3506 -72 
L 3263 3225 
L 1381 -72 
Q 1334 -141 1269 -141 
L 1216 -141 
Q 1141 -141 1141 -72 
z
" transform="scale(0.015625)"/>
     <path id="Cmr10-73" d="M 213 -19 
L 213 1025 
Q 213 1075 269 1075 
L 347 1075 
Q 384 1075 397 1025 
Q 575 97 1259 97 
Q 1563 97 1767 234 
Q 1972 372 1972 659 
Q 1972 866 1812 1011 
Q 1653 1156 1434 1209 
L 1006 1294 
Q 791 1341 614 1437 
Q 438 1534 325 1695 
Q 213 1856 213 2069 
Q 213 2350 361 2529 
Q 509 2709 746 2789 
Q 984 2869 1259 2869 
Q 1588 2869 1831 2694 
L 2016 2853 
Q 2016 2869 2047 2869 
L 2094 2869 
Q 2113 2869 2128 2851 
Q 2144 2834 2144 2816 
L 2144 1978 
Q 2144 1919 2094 1919 
L 2016 1919 
Q 1959 1919 1959 1978 
Q 1959 2313 1773 2516 
Q 1588 2719 1253 2719 
Q 966 2719 755 2612 
Q 544 2506 544 2247 
Q 544 2069 695 1955 
Q 847 1841 1050 1791 
L 1484 1709 
Q 1703 1659 1892 1540 
Q 2081 1422 2192 1240 
Q 2303 1059 2303 831 
Q 2303 600 2223 429 
Q 2144 259 2001 146 
Q 1859 34 1665 -19 
Q 1472 -72 1259 -72 
Q 859 -72 575 197 
L 341 -56 
Q 341 -72 306 -72 
L 269 -72 
Q 213 -72 213 -19 
z
" transform="scale(0.015625)"/>
     <path id="ArialMT-33" d="M 269 1209 
L 831 1284 
Q 928 806 1161 595 
Q 1394 384 1728 384 
Q 2125 384 2398 659 
Q 2672 934 2672 1341 
Q 2672 1728 2419 1979 
Q 2166 2231 1775 2231 
Q 1616 2231 1378 2169 
L 1441 2663 
Q 1497 2656 1531 2656 
Q 1891 2656 2178 2843 
Q 2466 3031 2466 3422 
Q 2466 3731 2256 3934 
Q 2047 4138 1716 4138 
Q 1388 4138 1169 3931 
Q 950 3725 888 3313 
L 325 3413 
Q 428 3978 793 4289 
Q 1159 4600 1703 4600 
Q 2078 4600 2393 4439 
Q 2709 4278 2876 4000 
Q 3044 3722 3044 3409 
Q 3044 3113 2884 2869 
Q 2725 2625 2413 2481 
Q 2819 2388 3044 2092 
Q 3269 1797 3269 1353 
Q 3269 753 2831 336 
Q 2394 -81 1725 -81 
Q 1122 -81 723 278 
Q 325 638 269 1209 
z
" transform="scale(0.015625)"/>
     <path id="ArialMT-6d" d="M 422 0 
L 422 3319 
L 925 3319 
L 925 2853 
Q 1081 3097 1340 3245 
Q 1600 3394 1931 3394 
Q 2300 3394 2536 3241 
Q 2772 3088 2869 2813 
Q 3263 3394 3894 3394 
Q 4388 3394 4653 3120 
Q 4919 2847 4919 2278 
L 4919 0 
L 4359 0 
L 4359 2091 
Q 4359 2428 4304 2576 
Q 4250 2725 4106 2815 
Q 3963 2906 3769 2906 
Q 3419 2906 3187 2673 
Q 2956 2441 2956 1928 
L 2956 0 
L 2394 0 
L 2394 2156 
Q 2394 2531 2256 2718 
Q 2119 2906 1806 2906 
Q 1569 2906 1367 2781 
Q 1166 2656 1075 2415 
Q 984 2175 984 1722 
L 984 0 
L 422 0 
z
" transform="scale(0.015625)"/>
    </defs>
    <use xlink:href="#Cmmi10-57" transform="translate(0 0.125)"/>
    <use xlink:href="#Cmr10-73" transform="translate(94.384766 -16.88125) scale(0.7)"/>
    <use xlink:href="#Cmr10-63" transform="translate(121.967773 -16.88125) scale(0.7)"/>
    <use xlink:href="#Cmr10-3d" transform="translate(176.973047 0.125)"/>
    <use xlink:href="#ArialMT-30" transform="translate(272.217188 0.125)"/>
    <use xlink:href="#ArialMT-2e" transform="translate(327.832422 0.125)"/>
    <use xlink:href="#ArialMT-33" transform="translate(355.615625 0.125)"/>
    <use xlink:href="#ArialMT-3bc" transform="translate(425.863313 0.125)"/>
    <use xlink:href="#ArialMT-6d" transform="translate(483.480501 0.125)"/>
   </g>
  </g>
 </g>
 <defs>
  <clipPath id="p2c8015a7b7">
   <rect x="29.497742" y="18.20072" width="135.502018" height="77.469967"/>
  </clipPath>
  <clipPath id="p03e903b557">
   <rect x="29.497742" y="101.671167" width="135.502018" height="77.469967"/>
  </clipPath>
 </defs>
</svg>
