<?xml version="1.0" encoding="utf-8" standalone="no"?>
<!DOCTYPE svg PUBLIC "-//W3C//DTD SVG 1.1//EN"
  "http://www.w3.org/Graphics/SVG/1.1/DTD/svg11.dtd">
<svg xmlns:xlink="http://www.w3.org/1999/xlink" width="168pt" height="207.65942pt" viewBox="0 0 168 207.65942" xmlns="http://www.w3.org/2000/svg" version="1.1">
 <metadata>
  <rdf:RDF xmlns:dc="http://purl.org/dc/elements/1.1/" xmlns:cc="http://creativecommons.org/ns#" xmlns:rdf="http://www.w3.org/1999/02/22-rdf-syntax-ns#">
   <cc:Work>
    <dc:type rdf:resource="http://purl.org/dc/dcmitype/StillImage"/>
    <dc:date>2024-12-06T17:48:35.398475</dc:date>
    <dc:format>image/svg+xml</dc:format>
    <dc:creator>
     <cc:Agent>
      <dc:title>Matplotlib v3.8.4, https://matplotlib.org/</dc:title>
     </cc:Agent>
    </dc:creator>
   </cc:Work>
  </rdf:RDF>
 </metadata>
 <defs>
  <style type="text/css">*{stroke-linejoin: round; stroke-linecap: butt}</style>
 </defs>
 <g id="figure_1">
  <g id="patch_1">
   <path d="M 0 207.65942 
L 168 207.65942 
L 168 0 
L 0 0 
L 0 207.65942 
z
" style="fill: none"/>
  </g>
  <g id="axes_1">
   <g id="patch_2">
    <path d="M 36.444181 95.670687 
L 164.99976 95.670687 
L 164.99976 18.20072 
L 36.444181 18.20072 
L 36.444181 95.670687 
z
" style="fill: none"/>
   </g>
   <g id="PolyCollection_1">
    <path d="M 42.287616 46.186447 
L 42.287616 46.159335 
L 44.535091 45.222889 
L 46.782566 44.137679 
L 49.030042 42.899117 
L 51.277517 41.52444 
L 52.176507 40.917028 
L 53.075497 40.295637 
L 53.974487 39.658219 
L 54.873477 39.015973 
L 55.772467 38.348386 
L 56.671457 37.67628 
L 57.570447 36.985907 
L 58.469437 36.273011 
L 59.368427 35.525248 
L 60.267417 34.753277 
L 61.166407 33.955604 
L 62.065397 33.140337 
L 62.964388 32.333565 
L 63.863378 31.571851 
L 64.762368 30.858038 
L 65.661358 30.244684 
L 66.560348 29.712123 
L 67.459338 29.299406 
L 68.358328 28.972367 
L 69.257318 28.711981 
L 70.156308 28.522988 
L 71.055298 28.457379 
L 71.954288 28.511086 
L 72.853278 28.699706 
L 73.752268 29.008753 
L 74.651258 29.420678 
L 75.550248 29.938731 
L 76.449239 30.533412 
L 77.348229 31.204292 
L 78.247219 31.925402 
L 79.146209 32.727341 
L 80.045199 33.567346 
L 80.944189 34.443858 
L 81.843179 35.34554 
L 82.742169 36.242966 
L 83.641159 37.131113 
L 84.540149 37.995805 
L 85.439139 38.83426 
L 86.338129 39.603091 
L 87.237119 40.309917 
L 89.484594 41.891027 
L 91.73207 43.259619 
L 93.979545 44.481529 
L 96.22702 45.598393 
L 98.474495 46.621259 
L 100.72197 47.560613 
L 102.969445 48.385648 
L 105.216921 49.111412 
L 107.464396 49.743774 
L 109.711871 50.304869 
L 111.959346 50.814912 
L 114.206821 51.29626 
L 116.454296 51.764965 
L 118.701772 52.211745 
L 120.949247 52.615533 
L 123.196722 52.969032 
L 125.444197 53.273028 
L 127.691672 53.531588 
L 129.939147 53.763187 
L 132.186623 53.979773 
L 134.434098 54.181986 
L 136.681573 54.3679 
L 138.929048 54.528946 
L 141.176523 54.661651 
L 145.671474 54.87343 
L 150.166424 55.041599 
L 154.661374 55.201214 
L 159.156325 55.337575 
L 159.156325 55.352218 
L 159.156325 55.352218 
L 154.661374 55.218035 
L 150.166424 55.057683 
L 145.671474 54.890242 
L 141.176523 54.67767 
L 138.929048 54.543606 
L 136.681573 54.378424 
L 134.434098 54.194857 
L 132.186623 53.989379 
L 129.939147 53.773986 
L 127.691672 53.542005 
L 125.444197 53.282273 
L 123.196722 52.980688 
L 120.949247 52.63078 
L 118.701772 52.226526 
L 116.454296 51.781474 
L 114.206821 51.312034 
L 111.959346 50.829131 
L 109.711871 50.330061 
L 107.464396 49.766753 
L 105.216921 49.141527 
L 102.969445 48.411117 
L 100.72197 47.587592 
L 98.474495 46.657236 
L 96.22702 45.621247 
L 93.979545 44.510866 
L 91.73207 43.285181 
L 89.484594 41.923836 
L 87.237119 40.34727 
L 86.338129 39.633287 
L 85.439139 38.864268 
L 84.540149 38.037626 
L 83.641159 37.174918 
L 82.742169 36.28116 
L 81.843179 35.383202 
L 80.944189 34.482895 
L 80.045199 33.624154 
L 79.146209 32.76648 
L 78.247219 31.962622 
L 77.348229 31.233156 
L 76.449239 30.57146 
L 75.550248 29.966383 
L 74.651258 29.452939 
L 73.752268 29.040111 
L 72.853278 28.727073 
L 71.954288 28.544587 
L 71.055298 28.482655 
L 70.156308 28.549778 
L 69.257318 28.741634 
L 68.358328 29.003134 
L 67.459338 29.340269 
L 66.560348 29.749175 
L 65.661358 30.291208 
L 64.762368 30.905323 
L 63.863378 31.614971 
L 62.964388 32.372737 
L 62.065397 33.175071 
L 61.166407 33.987631 
L 60.267417 34.779508 
L 59.368427 35.55136 
L 58.469437 36.292766 
L 57.570447 37.011748 
L 56.671457 37.700811 
L 55.772467 38.379595 
L 54.873477 39.045441 
L 53.974487 39.690306 
L 53.075497 40.322849 
L 52.176507 40.948585 
L 51.277517 41.545467 
L 49.030042 42.943088 
L 46.782566 44.180139 
L 44.535091 45.250449 
L 42.287616 46.186447 
z
" clip-path="url(#pebcce6c347)" style="fill: #1f77b4; fill-opacity: 0.5"/>
   </g>
   <g id="PolyCollection_2">
    <path d="M 42.287616 68.22835 
L 42.287616 68.188391 
L 44.535091 69.257825 
L 46.782566 70.462788 
L 49.030042 71.828326 
L 51.277517 73.394985 
L 52.176507 74.092567 
L 53.075497 74.851949 
L 53.974487 75.658172 
L 54.873477 76.515327 
L 55.772467 77.389454 
L 56.671457 78.274742 
L 57.570447 79.166965 
L 58.469437 80.029541 
L 59.368427 80.890901 
L 60.267417 81.672963 
L 61.166407 82.401248 
L 62.065397 83.081097 
L 62.964388 83.67636 
L 63.863378 84.205952 
L 64.762368 84.638359 
L 65.661358 84.990797 
L 66.560348 85.213766 
L 67.459338 85.314182 
L 68.358328 85.290384 
L 69.257318 85.175279 
L 70.156308 84.986907 
L 71.055298 84.677372 
L 71.954288 84.287647 
L 72.853278 83.788409 
L 73.752268 83.173128 
L 74.651258 82.473364 
L 75.550248 81.703497 
L 76.449239 80.886306 
L 77.348229 80.063713 
L 78.247219 79.252555 
L 79.146209 78.467079 
L 80.045199 77.701826 
L 80.944189 76.975501 
L 81.843179 76.273726 
L 82.742169 75.587116 
L 83.641159 74.912434 
L 84.540149 74.258022 
L 85.439139 73.625556 
L 86.338129 73.001608 
L 87.237119 72.396838 
L 89.484594 70.992706 
L 91.73207 69.759523 
L 93.979545 68.675625 
L 96.22702 67.689746 
L 98.474495 66.783322 
L 100.72197 65.948264 
L 102.969445 65.199214 
L 105.216921 64.52612 
L 107.464396 63.93788 
L 109.711871 63.413486 
L 111.959346 62.940661 
L 114.206821 62.478558 
L 116.454296 62.027588 
L 118.701772 61.594694 
L 120.949247 61.196667 
L 123.196722 60.853957 
L 125.444197 60.557688 
L 127.691672 60.29727 
L 129.939147 60.063696 
L 132.186623 59.85293 
L 134.434098 59.645856 
L 136.681573 59.46441 
L 138.929048 59.297103 
L 141.176523 59.162754 
L 145.671474 58.948735 
L 150.166424 58.779928 
L 154.661374 58.621779 
L 159.156325 58.482436 
L 159.156325 58.505705 
L 159.156325 58.505705 
L 154.661374 58.643588 
L 150.166424 58.801731 
L 145.671474 58.972537 
L 141.176523 59.183006 
L 138.929048 59.318052 
L 136.681573 59.48074 
L 134.434098 59.661707 
L 132.186623 59.863359 
L 129.939147 60.076968 
L 127.691672 60.308497 
L 125.444197 60.568682 
L 123.196722 60.863528 
L 120.949247 61.206649 
L 118.701772 61.606198 
L 116.454296 62.041173 
L 114.206821 62.4904 
L 111.959346 62.952198 
L 109.711871 63.431442 
L 107.464396 63.95779 
L 105.216921 64.545842 
L 102.969445 65.224522 
L 100.72197 65.969253 
L 98.474495 66.804021 
L 96.22702 67.710224 
L 93.979545 68.687778 
L 91.73207 69.773267 
L 89.484594 71.014194 
L 87.237119 72.419122 
L 86.338129 73.020951 
L 85.439139 73.64567 
L 84.540149 74.29063 
L 83.641159 74.938843 
L 82.742169 75.606321 
L 81.843179 76.297878 
L 80.944189 76.998724 
L 80.045199 77.723001 
L 79.146209 78.480178 
L 78.247219 79.276638 
L 77.348229 80.084394 
L 76.449239 80.91129 
L 75.550248 81.728407 
L 74.651258 82.506035 
L 73.752268 83.210117 
L 72.853278 83.818967 
L 71.954288 84.315079 
L 71.055298 84.710247 
L 70.156308 85.013088 
L 69.257318 85.213133 
L 68.358328 85.324864 
L 67.459338 85.344603 
L 66.560348 85.249441 
L 65.661358 85.026775 
L 64.762368 84.684255 
L 63.863378 84.249422 
L 62.964388 83.727092 
L 62.065397 83.127291 
L 61.166407 82.454525 
L 60.267417 81.714864 
L 59.368427 80.927693 
L 58.469437 80.08679 
L 57.570447 79.208598 
L 56.671457 78.32313 
L 55.772467 77.442028 
L 54.873477 76.559226 
L 53.974487 75.703037 
L 53.075497 74.900665 
L 52.176507 74.14859 
L 51.277517 73.431856 
L 49.030042 71.862873 
L 46.782566 70.514097 
L 44.535091 69.294155 
L 42.287616 68.22835 
z
" clip-path="url(#pebcce6c347)" style="fill: #1f77b4; fill-opacity: 0.5"/>
   </g>
   <g id="PolyCollection_3">
    <path d="M 42.287616 47.473129 
L 42.287616 47.44088 
L 44.535091 46.572417 
L 46.782566 45.529273 
L 49.030042 44.24592 
L 51.277517 42.557029 
L 52.176507 41.786673 
L 53.075497 40.991395 
L 53.974487 40.184741 
L 54.873477 39.383647 
L 55.772467 38.563497 
L 56.671457 37.736388 
L 57.570447 36.883337 
L 58.469437 35.977223 
L 59.368427 34.982789 
L 60.267417 33.824458 
L 61.166407 32.423086 
L 62.065397 30.71285 
L 62.964388 28.768189 
L 63.863378 26.898669 
L 64.762368 25.332864 
L 65.661358 24.120679 
L 66.560348 23.20993 
L 67.459338 22.571757 
L 68.358328 22.132565 
L 69.257318 21.817612 
L 71.055298 21.722082 
L 71.954288 21.980119 
L 72.853278 22.460576 
L 73.752268 23.115616 
L 74.651258 23.918647 
L 75.550248 24.882685 
L 76.449239 25.950482 
L 77.348229 27.16417 
L 78.247219 28.477567 
L 79.146209 29.874841 
L 80.045199 31.326574 
L 80.944189 32.810168 
L 81.843179 34.313628 
L 82.742169 35.801941 
L 83.641159 37.220554 
L 84.540149 38.53007 
L 85.439139 39.699787 
L 86.338129 40.704507 
L 87.237119 41.566547 
L 89.484594 43.366781 
L 91.73207 44.815863 
L 93.979545 45.995076 
L 96.22702 47.00596 
L 98.474495 47.947561 
L 100.72197 48.836566 
L 102.969445 49.637419 
L 105.216921 50.308381 
L 107.464396 50.840983 
L 109.711871 51.262953 
L 111.959346 51.648996 
L 114.206821 52.045373 
L 116.454296 52.471905 
L 118.701772 52.90298 
L 120.949247 53.271765 
L 123.196722 53.559165 
L 125.444197 53.768635 
L 127.691672 53.917638 
L 129.939147 54.036644 
L 132.186623 54.16133 
L 134.434098 54.288161 
L 136.681573 54.422636 
L 141.176523 54.624285 
L 145.671474 54.735493 
L 150.166424 54.836339 
L 154.661374 54.966207 
L 159.156325 55.089226 
L 159.156325 55.108457 
L 159.156325 55.108457 
L 154.661374 54.984784 
L 150.166424 54.852212 
L 145.671474 54.748772 
L 141.176523 54.637036 
L 136.681573 54.437265 
L 134.434098 54.30455 
L 132.186623 54.176786 
L 129.939147 54.051236 
L 127.691672 53.933974 
L 125.444197 53.790595 
L 123.196722 53.579927 
L 120.949247 53.286554 
L 118.701772 52.919084 
L 116.454296 52.496375 
L 114.206821 52.063497 
L 111.959346 51.663076 
L 109.711871 51.286058 
L 107.464396 50.859513 
L 105.216921 50.333907 
L 102.969445 49.653457 
L 100.72197 48.861034 
L 98.474495 47.972722 
L 96.22702 47.026928 
L 93.979545 46.018085 
L 91.73207 44.838823 
L 89.484594 43.404976 
L 87.237119 41.61741 
L 86.338129 40.741973 
L 85.439139 39.740236 
L 84.540149 38.564847 
L 83.641159 37.265964 
L 82.742169 35.8524 
L 81.843179 34.377071 
L 80.944189 32.886325 
L 80.045199 31.388087 
L 79.146209 29.934385 
L 78.247219 28.526692 
L 77.348229 27.224644 
L 76.449239 25.990401 
L 75.550248 24.927275 
L 74.651258 23.976307 
L 73.752268 23.157328 
L 72.853278 22.505378 
L 71.954288 22.027582 
L 71.055298 21.759392 
L 69.257318 21.860289 
L 68.358328 22.169761 
L 67.459338 22.605335 
L 66.560348 23.259743 
L 65.661358 24.174817 
L 64.762368 25.396444 
L 63.863378 26.965389 
L 62.964388 28.830324 
L 62.065397 30.753809 
L 61.166407 32.464371 
L 60.267417 33.850108 
L 59.368427 35.001759 
L 58.469437 35.997257 
L 57.570447 36.906531 
L 56.671457 37.764302 
L 55.772467 38.593446 
L 54.873477 39.409936 
L 53.974487 40.221423 
L 53.075497 41.023548 
L 52.176507 41.811544 
L 51.277517 42.57555 
L 49.030042 44.273691 
L 46.782566 45.559049 
L 44.535091 46.596301 
L 42.287616 47.473129 
z
" clip-path="url(#pebcce6c347)" style="fill-opacity: 0.5"/>
   </g>
   <g id="PolyCollection_4">
    <path d="M 42.287616 66.884547 
L 42.287616 66.858407 
L 44.535091 67.820533 
L 46.782566 68.984551 
L 49.030042 70.409249 
L 51.277517 72.197884 
L 52.176507 73.043578 
L 53.075497 74.035432 
L 53.974487 75.17776 
L 54.873477 76.469557 
L 55.772467 77.858031 
L 56.671457 79.324743 
L 57.570447 80.803674 
L 58.469437 82.277218 
L 59.368427 83.702208 
L 60.267417 85.083129 
L 61.166407 86.369625 
L 62.065397 87.582419 
L 62.964388 88.667471 
L 63.863378 89.626998 
L 64.762368 90.45059 
L 65.661358 91.148651 
L 66.560348 91.658959 
L 67.459338 91.970997 
L 68.358328 92.077543 
L 69.257318 92.026157 
L 71.055298 91.393781 
L 71.954288 90.794731 
L 72.853278 89.938457 
L 73.752268 88.769733 
L 74.651258 87.255645 
L 75.550248 85.397839 
L 76.449239 83.4307 
L 77.348229 81.635428 
L 78.247219 80.165596 
L 79.146209 78.973525 
L 80.045199 77.954118 
L 80.944189 77.032287 
L 81.843179 76.169279 
L 82.742169 75.328153 
L 83.641159 74.511455 
L 84.540149 73.686575 
L 85.439139 72.886028 
L 86.338129 72.076609 
L 87.237119 71.307788 
L 89.484594 69.612519 
L 91.73207 68.310736 
L 93.979545 67.273528 
L 96.22702 66.344616 
L 98.474495 65.507865 
L 100.72197 64.740748 
L 102.969445 64.03391 
L 105.216921 63.409657 
L 107.464396 62.914594 
L 109.711871 62.506947 
L 111.959346 62.136999 
L 114.206821 61.75269 
L 116.454296 61.330455 
L 118.701772 60.913655 
L 120.949247 60.551697 
L 123.196722 60.263621 
L 125.444197 60.061291 
L 127.691672 59.921576 
L 129.939147 59.800868 
L 132.186623 59.685779 
L 134.434098 59.552036 
L 136.681573 59.420323 
L 141.176523 59.210457 
L 145.671474 59.090607 
L 150.166424 58.984247 
L 154.661374 58.849996 
L 159.156325 58.72017 
L 159.156325 58.749047 
L 159.156325 58.749047 
L 154.661374 58.874711 
L 150.166424 59.006985 
L 145.671474 59.112569 
L 141.176523 59.229908 
L 136.681573 59.436249 
L 134.434098 59.569474 
L 132.186623 59.700646 
L 129.939147 59.818106 
L 127.691672 59.939316 
L 125.444197 60.084225 
L 123.196722 60.286573 
L 120.949247 60.567035 
L 118.701772 60.931444 
L 116.454296 61.345352 
L 114.206821 61.762572 
L 111.959346 62.153918 
L 109.711871 62.523361 
L 107.464396 62.928084 
L 105.216921 63.427738 
L 102.969445 64.052027 
L 100.72197 64.759287 
L 98.474495 65.529266 
L 96.22702 66.368053 
L 93.979545 67.289703 
L 91.73207 68.330095 
L 89.484594 69.638465 
L 87.237119 71.333454 
L 86.338129 72.102907 
L 85.439139 72.909991 
L 84.540149 73.710618 
L 83.641159 74.529158 
L 82.742169 75.357962 
L 81.843179 76.187634 
L 80.944189 77.050704 
L 80.045199 77.977477 
L 79.146209 78.989576 
L 78.247219 80.182726 
L 77.348229 81.651109 
L 76.449239 83.45934 
L 75.550248 85.43457 
L 74.651258 87.311893 
L 73.752268 88.821532 
L 72.853278 89.979668 
L 71.954288 90.832278 
L 71.055298 91.43409 
L 69.257318 92.083256 
L 68.358328 92.149325 
L 67.459338 92.032947 
L 66.560348 91.711107 
L 65.661358 91.192809 
L 64.762368 90.513343 
L 63.863378 89.690971 
L 62.964388 88.727391 
L 62.065397 87.65912 
L 61.166407 86.452184 
L 60.267417 85.166469 
L 59.368427 83.778806 
L 58.469437 82.346247 
L 57.570447 80.870875 
L 56.671457 79.385486 
L 55.772467 77.922891 
L 54.873477 76.524064 
L 53.974487 75.228686 
L 53.075497 74.082715 
L 52.176507 73.089151 
L 51.277517 72.232261 
L 49.030042 70.439431 
L 46.782566 69.0169 
L 44.535091 67.858136 
L 42.287616 66.884547 
z
" clip-path="url(#pebcce6c347)" style="fill-opacity: 0.5"/>
   </g>
   <g id="PolyCollection_5">
    <path d="M 42.287616 49.192408 
L 42.287616 49.143379 
L 43.411354 48.766324 
L 44.535091 48.342629 
L 45.658829 47.895153 
L 46.782566 47.380318 
L 47.906304 46.82869 
L 49.030042 46.163984 
L 50.153779 45.373066 
L 51.277517 44.485865 
L 52.401254 43.489547 
L 53.524992 42.487159 
L 54.648729 41.441887 
L 55.772467 40.416361 
L 56.896205 39.335708 
L 58.019942 38.227478 
L 59.14368 36.974102 
L 60.267417 35.455105 
L 61.391155 33.462155 
L 62.514893 30.829158 
L 63.63863 28.017565 
L 64.762368 25.844245 
L 65.886105 24.423076 
L 67.009843 23.588353 
L 68.13358 23.165338 
L 69.257318 22.945654 
L 70.381056 22.925662 
L 71.504793 23.243072 
L 72.628531 23.896474 
L 73.752268 24.79873 
L 74.876006 26.013854 
L 75.999744 27.43717 
L 77.123481 29.033928 
L 78.247219 30.739733 
L 79.370956 32.555086 
L 80.494694 34.386464 
L 81.618431 36.218481 
L 82.742169 38.030635 
L 83.865907 39.752505 
L 84.989644 41.265024 
L 86.113382 42.592008 
L 87.237119 43.70518 
L 88.360857 44.656653 
L 89.484594 45.46014 
L 90.608332 46.173745 
L 91.73207 46.824623 
L 92.855807 47.386668 
L 93.979545 47.88793 
L 95.103282 48.355706 
L 96.22702 48.796283 
L 96.22702 48.879462 
L 96.22702 48.879462 
L 95.103282 48.430791 
L 93.979545 47.954733 
L 92.855807 47.448071 
L 91.73207 46.885636 
L 90.608332 46.259831 
L 89.484594 45.531697 
L 88.360857 44.727654 
L 87.237119 43.765585 
L 86.113382 42.681116 
L 84.989644 41.34006 
L 83.865907 39.819942 
L 82.742169 38.110251 
L 81.618431 36.302027 
L 80.494694 34.48617 
L 79.370956 32.652239 
L 78.247219 30.893698 
L 77.123481 29.177862 
L 75.999744 27.599443 
L 74.876006 26.177941 
L 73.752268 24.96369 
L 72.628531 24.040074 
L 71.504793 23.378234 
L 70.381056 23.078719 
L 69.257318 23.065815 
L 68.13358 23.276109 
L 67.009843 23.722091 
L 65.886105 24.534049 
L 64.762368 25.998543 
L 63.63863 28.251251 
L 62.514893 30.976166 
L 61.391155 33.520404 
L 60.267417 35.505754 
L 59.14368 37.016895 
L 58.019942 38.266591 
L 56.896205 39.386033 
L 55.772467 40.446392 
L 54.648729 41.501818 
L 53.524992 42.532636 
L 52.401254 43.552518 
L 51.277517 44.533522 
L 50.153779 45.420566 
L 49.030042 46.204291 
L 47.906304 46.879471 
L 46.782566 47.424588 
L 45.658829 47.93348 
L 44.535091 48.391066 
L 43.411354 48.815871 
L 42.287616 49.192408 
z
" clip-path="url(#pebcce6c347)" style="fill: #d62728; fill-opacity: 0.5"/>
   </g>
   <g id="PolyCollection_6">
    <path d="M 42.287616 65.048511 
L 42.287616 64.993076 
L 43.411354 65.397084 
L 44.535091 65.857153 
L 45.658829 66.370917 
L 46.782566 66.926144 
L 47.906304 67.558945 
L 49.030042 68.25772 
L 50.153779 69.082978 
L 51.277517 70.005 
L 52.401254 71.064128 
L 53.524992 72.350217 
L 54.648729 73.86917 
L 55.772467 75.541082 
L 56.896205 77.309644 
L 58.019942 79.112556 
L 59.14368 80.928375 
L 60.267417 82.675121 
L 61.391155 84.354917 
L 62.514893 85.956186 
L 63.63863 87.370392 
L 64.762368 88.592111 
L 65.886105 89.545955 
L 67.009843 90.25434 
L 68.13358 90.619643 
L 69.257318 90.716508 
L 70.381056 90.561115 
L 71.504793 90.185745 
L 72.628531 89.434878 
L 73.752268 88.05836 
L 74.876006 85.975063 
L 75.999744 83.220834 
L 77.123481 80.608484 
L 78.247219 78.52962 
L 79.370956 76.966921 
L 80.494694 75.686048 
L 81.618431 74.54516 
L 82.742169 73.474335 
L 83.865907 72.426532 
L 84.989644 71.387501 
L 86.113382 70.362063 
L 87.237119 69.375637 
L 88.360857 68.470907 
L 89.484594 67.680745 
L 90.608332 67.022149 
L 91.73207 66.42874 
L 92.855807 65.933896 
L 93.979545 65.483241 
L 95.103282 65.043781 
L 96.22702 64.627719 
L 96.22702 64.689592 
L 96.22702 64.689592 
L 95.103282 65.096626 
L 93.979545 65.539719 
L 92.855807 65.997108 
L 91.73207 66.488793 
L 90.608332 67.06577 
L 89.484594 67.739805 
L 88.360857 68.527342 
L 87.237119 69.436056 
L 86.113382 70.419556 
L 84.989644 71.441897 
L 83.865907 72.47499 
L 82.742169 73.519924 
L 81.618431 74.583048 
L 80.494694 75.719182 
L 79.370956 77.007667 
L 78.247219 78.586757 
L 77.123481 80.67489 
L 75.999744 83.391983 
L 74.876006 86.193276 
L 73.752268 88.212193 
L 72.628531 89.536713 
L 71.504793 90.296768 
L 70.381056 90.709379 
L 69.257318 90.851222 
L 68.13358 90.743186 
L 67.009843 90.37208 
L 65.886105 89.676018 
L 64.762368 88.750423 
L 63.63863 87.556265 
L 62.514893 86.117437 
L 61.391155 84.506128 
L 60.267417 82.825542 
L 59.14368 81.067766 
L 58.019942 79.231602 
L 56.896205 77.407907 
L 55.772467 75.60974 
L 54.648729 73.932047 
L 53.524992 72.41308 
L 52.401254 71.13316 
L 51.277517 70.057696 
L 50.153779 69.149964 
L 49.030042 68.306514 
L 47.906304 67.617926 
L 46.782566 66.98524 
L 45.658829 66.427149 
L 44.535091 65.930824 
L 43.411354 65.463697 
L 42.287616 65.048511 
z
" clip-path="url(#pebcce6c347)" style="fill: #d62728; fill-opacity: 0.5"/>
   </g>
   <g id="matplotlib.axis_1">
    <g id="xtick_1">
     <g id="line2d_1">
      <defs>
       <path id="ma4d12670fa" d="M 0 0 
L 0 -2 
" style="stroke: #000000; stroke-width: 0.5"/>
      </defs>
      <g>
       <use xlink:href="#ma4d12670fa" x="69.257318" y="95.670687" style="stroke: #000000; stroke-width: 0.5"/>
      </g>
     </g>
     <g id="line2d_2">
      <defs>
       <path id="m2db8a6a7ef" d="M 0 0 
L 0 2 
" style="stroke: #000000; stroke-width: 0.5"/>
      </defs>
      <g>
       <use xlink:href="#m2db8a6a7ef" x="69.257318" y="18.20072" style="stroke: #000000; stroke-width: 0.5"/>
      </g>
     </g>
    </g>
    <g id="xtick_2">
     <g id="line2d_3">
      <g>
       <use xlink:href="#ma4d12670fa" x="114.206821" y="95.670687" style="stroke: #000000; stroke-width: 0.5"/>
      </g>
     </g>
     <g id="line2d_4">
      <g>
       <use xlink:href="#m2db8a6a7ef" x="114.206821" y="18.20072" style="stroke: #000000; stroke-width: 0.5"/>
      </g>
     </g>
    </g>
    <g id="xtick_3">
     <g id="line2d_5">
      <g>
       <use xlink:href="#ma4d12670fa" x="159.156325" y="95.670687" style="stroke: #000000; stroke-width: 0.5"/>
      </g>
     </g>
     <g id="line2d_6">
      <g>
       <use xlink:href="#m2db8a6a7ef" x="159.156325" y="18.20072" style="stroke: #000000; stroke-width: 0.5"/>
      </g>
     </g>
    </g>
   </g>
   <g id="matplotlib.axis_2">
    <g id="ytick_1">
     <g id="line2d_7">
      <defs>
       <path id="m5cdc6c462b" d="M 0 0 
L 2 0 
" style="stroke: #000000; stroke-width: 0.5"/>
      </defs>
      <g>
       <use xlink:href="#m5cdc6c462b" x="36.444181" y="78.136791" style="stroke: #000000; stroke-width: 0.5"/>
      </g>
     </g>
     <g id="line2d_8">
      <defs>
       <path id="m0a98b774ff" d="M 0 0 
L -2 0 
" style="stroke: #000000; stroke-width: 0.5"/>
      </defs>
      <g>
       <use xlink:href="#m0a98b774ff" x="164.99976" y="78.136791" style="stroke: #000000; stroke-width: 0.5"/>
      </g>
     </g>
     <g id="text_1">
      <!-- −2.5 -->
      <g transform="translate(16.50024 81.11802) scale(0.0833 -0.0833)">
       <defs>
        <path id="ArialMT-2212" d="M 3381 1997 
L 356 1997 
L 356 2522 
L 3381 2522 
L 3381 1997 
z
" transform="scale(0.015625)"/>
        <path id="ArialMT-32" d="M 3222 541 
L 3222 0 
L 194 0 
Q 188 203 259 391 
Q 375 700 629 1000 
Q 884 1300 1366 1694 
Q 2113 2306 2375 2664 
Q 2638 3022 2638 3341 
Q 2638 3675 2398 3904 
Q 2159 4134 1775 4134 
Q 1369 4134 1125 3890 
Q 881 3647 878 3216 
L 300 3275 
Q 359 3922 746 4261 
Q 1134 4600 1788 4600 
Q 2447 4600 2831 4234 
Q 3216 3869 3216 3328 
Q 3216 3053 3103 2787 
Q 2991 2522 2730 2228 
Q 2469 1934 1863 1422 
Q 1356 997 1212 845 
Q 1069 694 975 541 
L 3222 541 
z
" transform="scale(0.015625)"/>
        <path id="ArialMT-2e" d="M 581 0 
L 581 641 
L 1222 641 
L 1222 0 
L 581 0 
z
" transform="scale(0.015625)"/>
        <path id="ArialMT-35" d="M 266 1200 
L 856 1250 
Q 922 819 1161 601 
Q 1400 384 1738 384 
Q 2144 384 2425 690 
Q 2706 997 2706 1503 
Q 2706 1984 2436 2262 
Q 2166 2541 1728 2541 
Q 1456 2541 1237 2417 
Q 1019 2294 894 2097 
L 366 2166 
L 809 4519 
L 3088 4519 
L 3088 3981 
L 1259 3981 
L 1013 2750 
Q 1425 3038 1878 3038 
Q 2478 3038 2890 2622 
Q 3303 2206 3303 1553 
Q 3303 931 2941 478 
Q 2500 -78 1738 -78 
Q 1113 -78 717 272 
Q 322 622 266 1200 
z
" transform="scale(0.015625)"/>
       </defs>
       <use xlink:href="#ArialMT-2212"/>
       <use xlink:href="#ArialMT-32" x="58.398438"/>
       <use xlink:href="#ArialMT-2e" x="114.013672"/>
       <use xlink:href="#ArialMT-35" x="141.796875"/>
      </g>
     </g>
    </g>
    <g id="ytick_2">
     <g id="line2d_9">
      <g>
       <use xlink:href="#m5cdc6c462b" x="36.444181" y="56.925247" style="stroke: #000000; stroke-width: 0.5"/>
      </g>
     </g>
     <g id="line2d_10">
      <g>
       <use xlink:href="#m0a98b774ff" x="164.99976" y="56.925247" style="stroke: #000000; stroke-width: 0.5"/>
      </g>
     </g>
     <g id="text_2">
      <!-- 0.0 -->
      <g transform="translate(21.365481 59.906476) scale(0.0833 -0.0833)">
       <defs>
        <path id="ArialMT-30" d="M 266 2259 
Q 266 3072 433 3567 
Q 600 4063 929 4331 
Q 1259 4600 1759 4600 
Q 2128 4600 2406 4451 
Q 2684 4303 2865 4023 
Q 3047 3744 3150 3342 
Q 3253 2941 3253 2259 
Q 3253 1453 3087 958 
Q 2922 463 2592 192 
Q 2263 -78 1759 -78 
Q 1097 -78 719 397 
Q 266 969 266 2259 
z
M 844 2259 
Q 844 1131 1108 757 
Q 1372 384 1759 384 
Q 2147 384 2411 759 
Q 2675 1134 2675 2259 
Q 2675 3391 2411 3762 
Q 2147 4134 1753 4134 
Q 1366 4134 1134 3806 
Q 844 3388 844 2259 
z
" transform="scale(0.015625)"/>
       </defs>
       <use xlink:href="#ArialMT-30"/>
       <use xlink:href="#ArialMT-2e" x="55.615234"/>
       <use xlink:href="#ArialMT-30" x="83.398438"/>
      </g>
     </g>
    </g>
    <g id="ytick_3">
     <g id="line2d_11">
      <g>
       <use xlink:href="#m5cdc6c462b" x="36.444181" y="35.713703" style="stroke: #000000; stroke-width: 0.5"/>
      </g>
     </g>
     <g id="line2d_12">
      <g>
       <use xlink:href="#m0a98b774ff" x="164.99976" y="35.713703" style="stroke: #000000; stroke-width: 0.5"/>
      </g>
     </g>
     <g id="text_3">
      <!-- 2.5 -->
      <g transform="translate(21.365481 38.694932) scale(0.0833 -0.0833)">
       <use xlink:href="#ArialMT-32"/>
       <use xlink:href="#ArialMT-2e" x="55.615234"/>
       <use xlink:href="#ArialMT-35" x="83.398438"/>
      </g>
     </g>
    </g>
    <g id="text_4">
     <!-- $I_\mathrm{c}$ (μA) -->
     <g transform="translate(10.30024 71.985704) rotate(-90) scale(0.1 -0.1)">
      <defs>
       <path id="Cmmi10-49" d="M 269 0 
Q 206 0 206 84 
Q 231 225 288 225 
Q 666 225 800 250 
Q 947 284 984 441 
L 1863 3956 
Q 1875 4019 1875 4038 
Q 1875 4078 1854 4095 
Q 1834 4113 1791 4122 
Q 1663 4147 1306 4147 
Q 1241 4147 1241 4231 
Q 1263 4313 1275 4342 
Q 1288 4372 1350 4372 
L 3138 4372 
Q 3200 4372 3200 4288 
Q 3197 4272 3187 4234 
Q 3178 4197 3162 4172 
Q 3147 4147 3116 4147 
Q 2741 4147 2597 4122 
Q 2456 4088 2419 3928 
L 1544 416 
Q 1528 338 1528 331 
Q 1528 316 1533 302 
Q 1538 288 1552 277 
Q 1566 266 1580 261 
Q 1594 256 1613 250 
Q 1734 225 2100 225 
Q 2163 225 2163 141 
Q 2141 50 2128 25 
Q 2116 0 2053 0 
L 269 0 
z
" transform="scale(0.015625)"/>
       <path id="Cmr10-63" d="M 1594 -72 
Q 1206 -72 890 129 
Q 575 331 394 667 
Q 213 1003 213 1381 
Q 213 1759 392 2106 
Q 572 2453 889 2661 
Q 1206 2869 1594 2869 
Q 1969 2869 2276 2722 
Q 2584 2575 2584 2241 
Q 2584 2116 2495 2023 
Q 2406 1931 2278 1931 
Q 2150 1931 2061 2023 
Q 1972 2116 1972 2241 
Q 1972 2353 2044 2436 
Q 2116 2519 2222 2541 
Q 2000 2681 1600 2681 
Q 1294 2681 1106 2478 
Q 919 2275 844 1975 
Q 769 1675 769 1381 
Q 769 1072 861 783 
Q 953 494 1158 305 
Q 1363 116 1672 116 
Q 1975 116 2187 302 
Q 2400 488 2478 788 
Q 2478 825 2528 825 
L 2606 825 
Q 2625 825 2640 808 
Q 2656 791 2656 769 
L 2656 750 
Q 2559 372 2271 150 
Q 1984 -72 1594 -72 
z
" transform="scale(0.015625)"/>
       <path id="ArialMT-20" transform="scale(0.015625)"/>
       <path id="ArialMT-28" d="M 1497 -1347 
Q 1031 -759 709 28 
Q 388 816 388 1659 
Q 388 2403 628 3084 
Q 909 3875 1497 4659 
L 1900 4659 
Q 1522 4009 1400 3731 
Q 1209 3300 1100 2831 
Q 966 2247 966 1656 
Q 966 153 1900 -1347 
L 1497 -1347 
z
" transform="scale(0.015625)"/>
       <path id="ArialMT-3bc" d="M 3181 3319 
L 3181 0 
L 2678 0 
L 2678 394 
Q 2516 144 2356 50 
Q 2138 -78 1847 -78 
Q 1588 -78 1388 25 
Q 1238 103 1056 334 
L 1056 -1272 
L 500 -1272 
L 500 3319 
L 1056 3319 
L 1056 1913 
Q 1056 1147 1137 920 
Q 1219 694 1401 562 
Q 1584 431 1822 431 
Q 2072 431 2269 568 
Q 2466 706 2547 923 
Q 2628 1141 2628 1903 
L 2628 3319 
L 3181 3319 
z
" transform="scale(0.015625)"/>
       <path id="ArialMT-41" d="M -9 0 
L 1750 4581 
L 2403 4581 
L 4278 0 
L 3588 0 
L 3053 1388 
L 1138 1388 
L 634 0 
L -9 0 
z
M 1313 1881 
L 2866 1881 
L 2388 3150 
Q 2169 3728 2063 4100 
Q 1975 3659 1816 3225 
L 1313 1881 
z
" transform="scale(0.015625)"/>
       <path id="ArialMT-29" d="M 791 -1347 
L 388 -1347 
Q 1322 153 1322 1656 
Q 1322 2244 1188 2822 
Q 1081 3291 891 3722 
Q 769 4003 388 4659 
L 791 4659 
Q 1378 3875 1659 3084 
Q 1900 2403 1900 1659 
Q 1900 816 1576 28 
Q 1253 -759 791 -1347 
z
" transform="scale(0.015625)"/>
      </defs>
      <use xlink:href="#Cmmi10-49" transform="translate(0 0.203125)"/>
      <use xlink:href="#Cmr10-63" transform="translate(43.896484 -16.803125) scale(0.7)"/>
      <use xlink:href="#ArialMT-20" transform="translate(81.343164 0.203125)"/>
      <use xlink:href="#ArialMT-28" transform="translate(109.126367 0.203125)"/>
      <use xlink:href="#ArialMT-3bc" transform="translate(142.427148 0.203125)"/>
      <use xlink:href="#ArialMT-41" transform="translate(200.044336 0.203125)"/>
      <use xlink:href="#ArialMT-29" transform="translate(266.743555 0.203125)"/>
     </g>
    </g>
   </g>
   <g id="line2d_13">
    <path d="M 36.444181 56.925247 
L 164.99976 56.925247 
" clip-path="url(#pebcce6c347)" style="fill: none; stroke: #d3d3d3; stroke-width: 0.5; stroke-linecap: square"/>
   </g>
   <g id="line2d_14">
    <path d="M 69.257318 95.670687 
L 69.257318 18.20072 
" clip-path="url(#pebcce6c347)" style="fill: none; stroke: #d3d3d3; stroke-width: 0.5; stroke-linecap: square"/>
   </g>
   <g id="patch_3">
    <path d="M 36.444181 95.670687 
L 36.444181 18.20072 
" style="fill: none; stroke: #000000; stroke-width: 0.5; stroke-linejoin: miter; stroke-linecap: square"/>
   </g>
   <g id="patch_4">
    <path d="M 164.99976 95.670687 
L 164.99976 18.20072 
" style="fill: none; stroke: #000000; stroke-width: 0.5; stroke-linejoin: miter; stroke-linecap: square"/>
   </g>
   <g id="patch_5">
    <path d="M 36.444181 95.670687 
L 164.99976 95.670687 
" style="fill: none; stroke: #000000; stroke-width: 0.5; stroke-linejoin: miter; stroke-linecap: square"/>
   </g>
   <g id="patch_6">
    <path d="M 36.444181 18.20072 
L 164.99976 18.20072 
" style="fill: none; stroke: #000000; stroke-width: 0.5; stroke-linejoin: miter; stroke-linecap: square"/>
   </g>
   <g id="line2d_15">
    <path d="M 42.287616 46.172891 
L 44.535091 45.236669 
L 46.782566 44.158909 
L 49.030042 42.921103 
L 51.277517 41.534954 
L 52.176507 40.932806 
L 53.075497 40.309243 
L 53.974487 39.674263 
L 54.873477 39.030707 
L 55.772467 38.36399 
L 56.671457 37.688545 
L 57.570447 36.998828 
L 58.469437 36.282889 
L 59.368427 35.538304 
L 60.267417 34.766393 
L 61.166407 33.971618 
L 62.065397 33.157704 
L 62.964388 32.353151 
L 63.863378 31.593411 
L 64.762368 30.88168 
L 65.661358 30.267946 
L 66.560348 29.730649 
L 67.459338 29.319838 
L 68.358328 28.98775 
L 69.257318 28.726807 
L 70.156308 28.536383 
L 71.055298 28.470017 
L 71.954288 28.527837 
L 72.853278 28.713389 
L 73.752268 29.024432 
L 74.651258 29.436808 
L 75.550248 29.952557 
L 76.449239 30.552436 
L 77.348229 31.218724 
L 78.247219 31.944012 
L 79.146209 32.74691 
L 80.045199 33.59575 
L 80.944189 34.463377 
L 81.843179 35.364371 
L 82.742169 36.262063 
L 83.641159 37.153015 
L 84.540149 38.016716 
L 85.439139 38.849264 
L 86.338129 39.618189 
L 87.237119 40.328594 
L 89.484594 41.907432 
L 91.73207 43.2724 
L 93.979545 44.496198 
L 96.22702 45.60982 
L 98.474495 46.639247 
L 100.72197 47.574102 
L 102.969445 48.398382 
L 105.216921 49.12647 
L 107.464396 49.755264 
L 109.711871 50.317465 
L 111.959346 50.822022 
L 114.206821 51.304147 
L 116.454296 51.77322 
L 118.701772 52.219136 
L 120.949247 52.623156 
L 123.196722 52.97486 
L 125.444197 53.277651 
L 127.691672 53.536796 
L 129.939147 53.768587 
L 132.186623 53.984576 
L 134.434098 54.188421 
L 136.681573 54.373162 
L 138.929048 54.536276 
L 141.176523 54.66966 
L 145.671474 54.881836 
L 150.166424 55.049641 
L 154.661374 55.209624 
L 159.156325 55.344896 
" clip-path="url(#pebcce6c347)" style="fill: none; stroke: #1f77b4; stroke-linecap: square"/>
   </g>
   <g id="line2d_16">
    <path d="M 42.287616 68.208371 
L 44.535091 69.27599 
L 46.782566 70.488443 
L 49.030042 71.845599 
L 51.277517 73.413421 
L 52.176507 74.120578 
L 53.075497 74.876307 
L 53.974487 75.680604 
L 54.873477 76.537276 
L 55.772467 77.415741 
L 56.671457 78.298936 
L 57.570447 79.187781 
L 58.469437 80.058166 
L 59.368427 80.909297 
L 60.267417 81.693914 
L 61.166407 82.427887 
L 62.065397 83.104194 
L 62.964388 83.701726 
L 63.863378 84.227687 
L 64.762368 84.661307 
L 65.661358 85.008786 
L 66.560348 85.231604 
L 67.459338 85.329393 
L 68.358328 85.307624 
L 69.257318 85.194206 
L 70.156308 84.999998 
L 71.055298 84.69381 
L 71.954288 84.301363 
L 72.853278 83.803688 
L 73.752268 83.191623 
L 74.651258 82.489699 
L 75.550248 81.715952 
L 76.449239 80.898798 
L 77.348229 80.074054 
L 78.247219 79.264597 
L 79.146209 78.473629 
L 80.045199 77.712413 
L 80.944189 76.987112 
L 81.843179 76.285802 
L 82.742169 75.596718 
L 83.641159 74.925639 
L 84.540149 74.274326 
L 85.439139 73.635613 
L 86.338129 73.011279 
L 87.237119 72.40798 
L 89.484594 71.00345 
L 91.73207 69.766395 
L 93.979545 68.681702 
L 96.22702 67.699985 
L 98.474495 66.793671 
L 100.72197 65.958758 
L 102.969445 65.211868 
L 105.216921 64.535981 
L 107.464396 63.947835 
L 109.711871 63.422464 
L 111.959346 62.94643 
L 114.206821 62.484479 
L 116.454296 62.034381 
L 118.701772 61.600446 
L 120.949247 61.201658 
L 123.196722 60.858742 
L 125.444197 60.563185 
L 127.691672 60.302883 
L 129.939147 60.070332 
L 132.186623 59.858145 
L 134.434098 59.653782 
L 136.681573 59.472575 
L 138.929048 59.307577 
L 141.176523 59.17288 
L 145.671474 58.960636 
L 150.166424 58.790829 
L 154.661374 58.632683 
L 159.156325 58.49407 
" clip-path="url(#pebcce6c347)" style="fill: none; stroke: #1f77b4; stroke-linecap: square"/>
   </g>
   <g id="line2d_17">
    <path d="M 42.287616 47.457004 
L 44.535091 46.584359 
L 46.782566 45.544161 
L 49.030042 44.259805 
L 51.277517 42.566289 
L 52.176507 41.799109 
L 53.075497 41.007472 
L 53.974487 40.203082 
L 54.873477 39.396791 
L 55.772467 38.578471 
L 56.671457 37.750345 
L 57.570447 36.894934 
L 58.469437 35.98724 
L 59.368427 34.992274 
L 60.267417 33.837283 
L 61.166407 32.443728 
L 62.065397 30.73333 
L 62.964388 28.799257 
L 63.863378 26.932029 
L 64.762368 25.364654 
L 65.661358 24.147748 
L 66.560348 23.234837 
L 67.459338 22.588546 
L 68.358328 22.151163 
L 69.257318 21.838951 
L 71.055298 21.740737 
L 71.954288 22.003851 
L 72.853278 22.482977 
L 73.752268 23.136472 
L 74.651258 23.947477 
L 75.550248 24.90498 
L 76.449239 25.970442 
L 77.348229 27.194407 
L 78.247219 28.502129 
L 79.146209 29.904613 
L 80.045199 31.35733 
L 80.944189 32.848246 
L 81.843179 34.34535 
L 82.742169 35.827171 
L 83.641159 37.243259 
L 84.540149 38.547459 
L 85.439139 39.720011 
L 86.338129 40.72324 
L 87.237119 41.591978 
L 89.484594 43.385878 
L 91.73207 44.827343 
L 93.979545 46.006581 
L 96.22702 47.016444 
L 98.474495 47.960141 
L 100.72197 48.8488 
L 102.969445 49.645438 
L 105.216921 50.321144 
L 107.464396 50.850248 
L 109.711871 51.274505 
L 111.959346 51.656036 
L 114.206821 52.054435 
L 116.454296 52.48414 
L 118.701772 52.911032 
L 120.949247 53.27916 
L 123.196722 53.569546 
L 125.444197 53.779615 
L 127.691672 53.925806 
L 129.939147 54.04394 
L 132.186623 54.169058 
L 134.434098 54.296355 
L 136.681573 54.429951 
L 141.176523 54.630661 
L 145.671474 54.742132 
L 150.166424 54.844276 
L 154.661374 54.975495 
L 159.156325 55.098842 
" clip-path="url(#pebcce6c347)" style="fill: none; stroke: #000000; stroke-linecap: square"/>
   </g>
   <g id="line2d_18">
    <path d="M 42.287616 66.871477 
L 44.535091 67.839334 
L 46.782566 69.000725 
L 49.030042 70.42434 
L 51.277517 72.215073 
L 52.176507 73.066365 
L 53.075497 74.059073 
L 53.974487 75.203223 
L 54.873477 76.49681 
L 55.772467 77.890461 
L 56.671457 79.355115 
L 57.570447 80.837275 
L 58.469437 82.311733 
L 59.368427 83.740507 
L 60.267417 85.124799 
L 61.166407 86.410905 
L 62.065397 87.62077 
L 62.964388 88.697431 
L 63.863378 89.658985 
L 64.762368 90.481967 
L 65.661358 91.17073 
L 66.560348 91.685033 
L 67.459338 92.001972 
L 68.358328 92.113434 
L 69.257318 92.054706 
L 71.055298 91.413935 
L 71.954288 90.813505 
L 72.853278 89.959062 
L 73.752268 88.795633 
L 74.651258 87.283769 
L 75.550248 85.416204 
L 76.449239 83.44502 
L 77.348229 81.643269 
L 78.247219 80.174161 
L 79.146209 78.981551 
L 80.045199 77.965798 
L 80.944189 77.041495 
L 81.843179 76.178456 
L 82.742169 75.343058 
L 83.641159 74.520307 
L 84.540149 73.698596 
L 85.439139 72.89801 
L 86.338129 72.089758 
L 87.237119 71.320621 
L 89.484594 69.625492 
L 91.73207 68.320416 
L 93.979545 67.281616 
L 96.22702 66.356335 
L 98.474495 65.518565 
L 100.72197 64.750018 
L 102.969445 64.042968 
L 105.216921 63.418697 
L 107.464396 62.921339 
L 109.711871 62.515154 
L 111.959346 62.145459 
L 114.206821 61.757631 
L 116.454296 61.337904 
L 118.701772 60.922549 
L 120.949247 60.559366 
L 123.196722 60.275097 
L 125.444197 60.072758 
L 127.691672 59.930446 
L 129.939147 59.809487 
L 132.186623 59.693213 
L 134.434098 59.560755 
L 136.681573 59.428286 
L 141.176523 59.220182 
L 145.671474 59.101588 
L 150.166424 58.995616 
L 154.661374 58.862353 
L 159.156325 58.734609 
" clip-path="url(#pebcce6c347)" style="fill: none; stroke: #000000; stroke-linecap: square"/>
   </g>
   <g id="line2d_19">
    <path d="M 42.287616 49.167893 
L 43.411354 48.791098 
L 44.535091 48.366848 
L 45.658829 47.914316 
L 46.782566 47.402453 
L 47.906304 46.85408 
L 49.030042 46.184137 
L 50.153779 45.396816 
L 51.277517 44.509693 
L 52.401254 43.521032 
L 53.524992 42.509898 
L 54.648729 41.471853 
L 55.772467 40.431377 
L 56.896205 39.36087 
L 58.019942 38.247035 
L 59.14368 36.995498 
L 60.267417 35.48043 
L 61.391155 33.49128 
L 62.514893 30.902662 
L 63.63863 28.134408 
L 64.762368 25.921394 
L 65.886105 24.478562 
L 67.009843 23.655222 
L 68.13358 23.220724 
L 69.257318 23.005734 
L 70.381056 23.002191 
L 71.504793 23.310653 
L 72.628531 23.968274 
L 73.752268 24.88121 
L 74.876006 26.095898 
L 75.999744 27.518306 
L 77.123481 29.105895 
L 78.247219 30.816715 
L 79.370956 32.603662 
L 80.494694 34.436317 
L 81.618431 36.260254 
L 82.742169 38.070443 
L 83.865907 39.786223 
L 84.989644 41.302542 
L 86.113382 42.636562 
L 87.237119 43.735382 
L 88.360857 44.692154 
L 89.484594 45.495919 
L 90.608332 46.216788 
L 91.73207 46.855129 
L 92.855807 47.417369 
L 93.979545 47.921332 
L 95.103282 48.393248 
L 96.22702 48.837873 
" clip-path="url(#pebcce6c347)" style="fill: none; stroke: #d62728; stroke-linecap: square"/>
   </g>
   <g id="line2d_20">
    <path d="M 42.287616 65.020793 
L 43.411354 65.430391 
L 44.535091 65.893989 
L 45.658829 66.399033 
L 46.782566 66.955692 
L 47.906304 67.588435 
L 49.030042 68.282117 
L 50.153779 69.116471 
L 51.277517 70.031348 
L 52.401254 71.098644 
L 53.524992 72.381648 
L 54.648729 73.900609 
L 55.772467 75.575411 
L 56.896205 77.358776 
L 58.019942 79.172079 
L 59.14368 80.998071 
L 60.267417 82.750331 
L 61.391155 84.430522 
L 62.514893 86.036812 
L 63.63863 87.463328 
L 64.762368 88.671267 
L 65.886105 89.610987 
L 67.009843 90.31321 
L 68.13358 90.681414 
L 69.257318 90.783865 
L 70.381056 90.635247 
L 71.504793 90.241257 
L 72.628531 89.485796 
L 73.752268 88.135276 
L 74.876006 86.084169 
L 75.999744 83.306408 
L 77.123481 80.641687 
L 78.247219 78.558188 
L 79.370956 76.987294 
L 80.494694 75.702615 
L 81.618431 74.564104 
L 82.742169 73.497129 
L 83.865907 72.450761 
L 84.989644 71.414699 
L 86.113382 70.390809 
L 87.237119 69.405846 
L 88.360857 68.499125 
L 89.484594 67.710275 
L 90.608332 67.04396 
L 91.73207 66.458767 
L 92.855807 65.965502 
L 93.979545 65.51148 
L 95.103282 65.070203 
L 96.22702 64.658655 
" clip-path="url(#pebcce6c347)" style="fill: none; stroke: #d62728; stroke-linecap: square"/>
   </g>
   <g id="line2d_21">
    <path d="M 67.39837 85.354935 
L 71.116266 28.495559 
" clip-path="url(#pebcce6c347)" style="fill: none"/>
    <defs>
     <path id="m5fed5cc14a" d="M 0 -1 
L -1 1 
L 1 1 
z
" style="stroke: #1f77b4; stroke-width: 0.5; stroke-linejoin: miter"/>
    </defs>
    <g clip-path="url(#pebcce6c347)">
     <use xlink:href="#m5fed5cc14a" x="67.39837" y="85.354935" style="fill: #1f77b4; stroke: #1f77b4; stroke-width: 0.5; stroke-linejoin: miter"/>
     <use xlink:href="#m5fed5cc14a" x="71.116266" y="28.495559" style="fill: #1f77b4; stroke: #1f77b4; stroke-width: 0.5; stroke-linejoin: miter"/>
    </g>
   </g>
   <g id="line2d_22">
    <path d="M 68.550229 92.111596 
L 69.964408 21.738898 
" clip-path="url(#pebcce6c347)" style="fill: none"/>
    <defs>
     <path id="mfb8a39ca24" d="M 0 1 
C 0.265203 1 0.51958 0.894634 0.707107 0.707107 
C 0.894634 0.51958 1 0.265203 1 0 
C 1 -0.265203 0.894634 -0.51958 0.707107 -0.707107 
C 0.51958 -0.894634 0.265203 -1 0 -1 
C -0.265203 -1 -0.51958 -0.894634 -0.707107 -0.707107 
C -0.894634 -0.51958 -1 -0.265203 -1 0 
C -1 0.265203 -0.894634 0.51958 -0.707107 0.707107 
C -0.51958 0.894634 -0.265203 1 0 1 
z
" style="stroke: #000000; stroke-width: 0.5"/>
    </defs>
    <g clip-path="url(#pebcce6c347)">
     <use xlink:href="#mfb8a39ca24" x="68.550229" y="92.111596" style="stroke: #000000; stroke-width: 0.5"/>
     <use xlink:href="#mfb8a39ca24" x="69.964408" y="21.738898" style="stroke: #000000; stroke-width: 0.5"/>
    </g>
   </g>
   <g id="line2d_23">
    <path d="M 69.397064 90.816084 
L 69.117572 23.03441 
" clip-path="url(#pebcce6c347)" style="fill: none"/>
    <defs>
     <path id="m706eaeb58a" d="M -0 1 
L 1 -1 
L -1 -1 
z
" style="stroke: #d62728; stroke-width: 0.5; stroke-linejoin: miter"/>
    </defs>
    <g clip-path="url(#pebcce6c347)">
     <use xlink:href="#m706eaeb58a" x="69.397064" y="90.816084" style="fill: #d62728; stroke: #d62728; stroke-width: 0.5; stroke-linejoin: miter"/>
     <use xlink:href="#m706eaeb58a" x="69.117572" y="23.03441" style="fill: #d62728; stroke: #d62728; stroke-width: 0.5; stroke-linejoin: miter"/>
    </g>
   </g>
  </g>
  <g id="axes_2">
   <g id="patch_7">
    <path d="M 36.444181 179.141135 
L 164.99976 179.141135 
L 164.99976 101.671167 
L 36.444181 101.671167 
L 36.444181 179.141135 
z
" style="fill: none"/>
   </g>
   <g id="PolyCollection_7">
    <path d="M 42.287616 149.295866 
L 42.287616 148.534447 
L 44.535091 149.786784 
L 46.782566 150.621553 
L 49.030042 151.215276 
L 51.277517 152.279809 
L 52.176507 152.801619 
L 53.075497 153.683493 
L 53.974487 154.794929 
L 54.873477 156.209349 
L 55.772467 157.436284 
L 56.671457 158.594548 
L 57.570447 159.580421 
L 58.469437 160.070305 
L 59.368427 160.258641 
L 60.267417 159.682926 
L 61.166407 158.597744 
L 62.065397 157.117477 
L 62.964388 155.243341 
L 63.863378 153.351091 
L 64.762368 151.267106 
L 65.661358 149.411891 
L 66.560348 147.345425 
L 67.459338 145.343967 
L 68.358328 143.149715 
L 69.257318 140.834293 
L 70.156308 138.500794 
L 71.055298 136.177982 
L 71.954288 134.05294 
L 72.853278 132.011548 
L 73.752268 129.911717 
L 74.651258 127.800956 
L 75.550248 125.781282 
L 76.449239 123.837897 
L 77.348229 122.236891 
L 78.247219 120.992688 
L 79.146209 120.413302 
L 80.045199 120.292065 
L 80.944189 120.758067 
L 81.843179 121.681088 
L 82.742169 122.770981 
L 83.641159 124.019135 
L 84.540149 125.354214 
L 85.439139 126.731636 
L 86.338129 127.660598 
L 87.237119 128.251217 
L 89.484594 129.096814 
L 91.73207 129.716057 
L 93.979545 130.660352 
L 96.22702 131.805008 
L 98.474495 132.993836 
L 100.72197 134.224125 
L 102.969445 135.214183 
L 105.216921 135.903825 
L 107.464396 136.568881 
L 109.711871 137.207785 
L 111.959346 137.935618 
L 114.206821 138.319853 
L 116.454296 138.734511 
L 118.701772 139.057057 
L 120.949247 139.139613 
L 123.196722 139.471905 
L 125.444197 139.745511 
L 127.691672 139.600106 
L 129.939147 139.438799 
L 132.186623 139.669431 
L 134.434098 139.372598 
L 136.681573 139.562739 
L 138.929048 139.134229 
L 141.176523 138.939063 
L 145.671474 138.62439 
L 150.166424 138.360023 
L 154.661374 138.320232 
L 159.156325 137.760653 
L 159.156325 140.793179 
L 159.156325 140.793179 
L 154.661374 141.115124 
L 150.166424 140.875552 
L 145.671474 141.106044 
L 141.176523 140.930795 
L 138.929048 140.995662 
L 136.681573 140.886087 
L 134.434098 140.670338 
L 132.186623 140.507934 
L 129.939147 140.381935 
L 127.691672 140.386336 
L 125.444197 140.430344 
L 123.196722 140.136406 
L 120.949247 139.87755 
L 118.701772 139.750583 
L 116.454296 139.458264 
L 114.206821 138.932657 
L 111.959346 138.460227 
L 109.711871 138.027803 
L 107.464396 137.313071 
L 105.216921 136.715343 
L 102.969445 135.956037 
L 100.72197 134.870046 
L 98.474495 133.709342 
L 96.22702 132.287675 
L 93.979545 131.116596 
L 91.73207 130.096745 
L 89.484594 129.565275 
L 87.237119 128.722457 
L 86.338129 128.033867 
L 85.439139 127.092639 
L 84.540149 125.862734 
L 83.641159 124.49003 
L 82.742169 123.148985 
L 81.843179 122.061414 
L 80.944189 121.129696 
L 80.045199 120.7702 
L 79.146209 120.727339 
L 78.247219 121.318613 
L 77.348229 122.489698 
L 76.449239 124.152293 
L 75.550248 126.03125 
L 74.651258 128.101769 
L 73.752268 130.222828 
L 72.853278 132.270275 
L 71.954288 134.322651 
L 71.055298 136.434203 
L 70.156308 138.731237 
L 69.257318 141.13009 
L 68.358328 143.434733 
L 67.459338 145.659934 
L 66.560348 147.667399 
L 65.661358 149.785208 
L 64.762368 151.692931 
L 63.863378 153.755449 
L 62.964388 155.677324 
L 62.065397 157.519886 
L 61.166407 159.043969 
L 60.267417 160.04941 
L 59.368427 160.604614 
L 58.469437 160.551639 
L 57.570447 159.984481 
L 56.671457 159.059213 
L 55.772467 157.980764 
L 54.873477 156.699524 
L 53.974487 155.32751 
L 53.075497 154.244639 
L 52.176507 153.475042 
L 51.277517 152.74259 
L 49.030042 151.887144 
L 46.782566 151.50058 
L 44.535091 150.445937 
L 42.287616 149.295866 
z
" clip-path="url(#pbaa29ea401)" style="fill: #1f77b4; fill-opacity: 0.5"/>
   </g>
   <g id="PolyCollection_8">
    <path d="M 42.287616 149.471847 
L 42.287616 148.728892 
L 44.535091 149.551702 
L 46.782566 150.50562 
L 49.030042 151.343441 
L 51.277517 151.225321 
L 52.176507 151.535545 
L 53.075497 153.027841 
L 53.974487 155.67719 
L 54.873477 159.393682 
L 55.772467 163.368318 
L 56.671457 167.444055 
L 57.570447 170.95059 
L 58.469437 173.633856 
L 59.368427 175.054677 
L 60.267417 174.871051 
L 61.166407 172.458896 
L 62.065397 167.781255 
L 62.964388 161.442345 
L 63.863378 155.468108 
L 64.762368 150.957998 
L 65.661358 147.97536 
L 66.560348 145.792037 
L 67.459338 144.075283 
L 68.358328 142.403681 
L 69.257318 140.5856 
L 71.055298 136.942448 
L 71.954288 135.180261 
L 72.853278 133.141171 
L 73.752268 130.223551 
L 74.651258 125.962532 
L 75.550248 120.122778 
L 76.449239 113.595688 
L 77.348229 108.369009 
L 78.247219 105.589949 
L 79.146209 105.19253 
L 80.045199 106.561193 
L 80.944189 109.107947 
L 81.843179 112.650552 
L 82.742169 116.729882 
L 83.641159 120.874463 
L 84.540149 124.484538 
L 85.439139 127.39877 
L 86.338129 128.805454 
L 87.237119 129.256813 
L 89.484594 129.134407 
L 91.73207 129.936003 
L 93.979545 131.138113 
L 96.22702 131.685838 
L 98.474495 132.866564 
L 100.72197 134.715275 
L 102.969445 136.345956 
L 105.216921 137.199011 
L 107.464396 137.947992 
L 109.711871 138.230584 
L 111.959346 138.561325 
L 114.206821 138.803235 
L 116.454296 138.870243 
L 118.701772 139.294915 
L 120.949247 139.469052 
L 123.196722 139.443704 
L 125.444197 139.775785 
L 127.691672 140.184006 
L 129.939147 140.044793 
L 132.186623 140.614645 
L 134.434098 140.195447 
L 136.681573 140.335036 
L 141.176523 139.694711 
L 145.671474 138.986241 
L 150.166424 138.501131 
L 154.661374 138.036827 
L 159.156325 137.262733 
L 159.156325 140.577428 
L 159.156325 140.577428 
L 154.661374 140.799855 
L 150.166424 140.821432 
L 145.671474 141.031169 
L 141.176523 141.454918 
L 136.681573 141.837876 
L 134.434098 141.774467 
L 132.186623 141.963159 
L 129.939147 141.405437 
L 127.691672 141.57904 
L 125.444197 141.52842 
L 123.196722 141.046909 
L 120.949247 140.485648 
L 118.701772 140.335284 
L 116.454296 139.99416 
L 114.206821 139.542246 
L 111.959346 139.290251 
L 109.711871 139.106409 
L 107.464396 138.607576 
L 105.216921 138.028616 
L 102.969445 136.929747 
L 100.72197 135.385952 
L 98.474495 133.520177 
L 96.22702 132.250826 
L 93.979545 131.597472 
L 91.73207 130.380235 
L 89.484594 129.74597 
L 87.237119 129.922818 
L 86.338129 129.312637 
L 85.439139 127.891321 
L 84.540149 124.902769 
L 83.641159 121.329333 
L 82.742169 117.246235 
L 81.843179 113.200687 
L 80.944189 109.726261 
L 80.045199 107.053876 
L 79.146209 105.631244 
L 78.247219 105.941431 
L 77.348229 108.769248 
L 76.449239 113.893502 
L 75.550248 120.454965 
L 74.651258 126.40468 
L 73.752268 130.575539 
L 72.853278 133.454607 
L 71.954288 135.485802 
L 71.055298 137.216293 
L 69.257318 140.938247 
L 68.358328 142.805086 
L 67.459338 144.42792 
L 66.560348 146.158037 
L 65.661358 148.337521 
L 64.762368 151.43475 
L 63.863378 155.980458 
L 62.964388 161.943851 
L 62.065397 168.313845 
L 61.166407 173.055569 
L 60.267417 175.464549 
L 59.368427 175.619773 
L 58.469437 174.175292 
L 57.570447 171.514743 
L 56.671457 168.003889 
L 55.772467 164.000959 
L 54.873477 159.961131 
L 53.974487 156.300679 
L 53.075497 153.629178 
L 52.176507 152.11261 
L 51.277517 151.683028 
L 49.030042 151.88822 
L 46.782566 151.156982 
L 44.535091 150.279968 
L 42.287616 149.471847 
z
" clip-path="url(#pbaa29ea401)" style="fill-opacity: 0.5"/>
   </g>
   <g id="PolyCollection_9">
    <path d="M 42.287616 148.769576 
L 42.287616 147.147658 
L 43.411354 147.42639 
L 44.535091 147.806736 
L 45.658829 148.606568 
L 46.782566 148.910556 
L 47.906304 149.814165 
L 49.030042 149.729866 
L 50.153779 149.652979 
L 51.277517 149.46325 
L 52.401254 149.648027 
L 53.524992 152.20264 
L 54.648729 156.385026 
L 55.772467 161.489728 
L 56.896205 166.270601 
L 58.019942 170.303708 
L 59.14368 172.675783 
L 60.267417 172.150537 
L 61.391155 167.756541 
L 62.514893 159.321155 
L 63.63863 149.903607 
L 64.762368 144.044808 
L 65.886105 141.36739 
L 67.009843 140.698723 
L 68.13358 140.387122 
L 69.257318 139.773749 
L 70.381056 138.906946 
L 71.504793 138.544914 
L 72.628531 137.979985 
L 73.752268 135.349114 
L 74.876006 130.085185 
L 75.999744 120.973507 
L 77.123481 112.358467 
L 78.247219 107.384931 
L 79.370956 106.798132 
L 80.494694 108.862576 
L 81.618431 112.688794 
L 82.742169 117.713782 
L 83.865907 122.948173 
L 84.989644 126.940922 
L 86.113382 129.582765 
L 87.237119 130.372817 
L 88.360857 130.268166 
L 89.484594 129.748044 
L 90.608332 129.907488 
L 91.73207 130.281682 
L 92.855807 130.965646 
L 93.979545 131.43637 
L 95.103282 131.530417 
L 96.22702 131.638482 
L 96.22702 133.915152 
L 96.22702 133.915152 
L 95.103282 133.44334 
L 93.979545 133.164299 
L 92.855807 132.616517 
L 91.73207 131.799166 
L 90.608332 131.517687 
L 89.484594 131.199443 
L 88.360857 131.592 
L 87.237119 131.529318 
L 86.113382 130.910553 
L 84.989644 128.010769 
L 83.865907 123.83232 
L 82.742169 118.6152 
L 81.618431 113.523293 
L 80.494694 109.750543 
L 79.370956 107.626428 
L 78.247219 108.585037 
L 77.123481 113.430246 
L 75.999744 122.444141 
L 74.876006 131.666709 
L 73.752268 136.587859 
L 72.628531 138.913338 
L 71.504793 139.452693 
L 70.381056 140.001377 
L 69.257318 140.698886 
L 68.13358 141.241506 
L 67.009843 141.627231 
L 65.886105 142.279202 
L 64.762368 145.268624 
L 63.63863 151.652552 
L 62.514893 160.698047 
L 61.391155 168.865035 
L 60.267417 173.321856 
L 59.14368 173.831907 
L 58.019942 171.371303 
L 56.896205 167.282694 
L 55.772467 162.231804 
L 54.648729 157.316483 
L 53.524992 153.105398 
L 52.401254 150.82539 
L 51.277517 150.430605 
L 50.153779 150.856013 
L 49.030042 150.725095 
L 47.906304 151.118561 
L 46.782566 150.222712 
L 45.658829 149.88577 
L 44.535091 149.554551 
L 43.411354 149.159911 
L 42.287616 148.769576 
z
" clip-path="url(#pbaa29ea401)" style="fill: #d62728; fill-opacity: 0.5"/>
   </g>
   <g id="matplotlib.axis_3">
    <g id="xtick_4">
     <g id="line2d_24">
      <g>
       <use xlink:href="#ma4d12670fa" x="69.257318" y="179.141135" style="stroke: #000000; stroke-width: 0.5"/>
      </g>
     </g>
     <g id="line2d_25">
      <g>
       <use xlink:href="#m2db8a6a7ef" x="69.257318" y="101.671167" style="stroke: #000000; stroke-width: 0.5"/>
      </g>
     </g>
     <g id="text_5">
      <!-- 0.0 -->
      <g transform="translate(63.467968 188.603593) scale(0.0833 -0.0833)">
       <use xlink:href="#ArialMT-30"/>
       <use xlink:href="#ArialMT-2e" x="55.615234"/>
       <use xlink:href="#ArialMT-30" x="83.398438"/>
      </g>
     </g>
    </g>
    <g id="xtick_5">
     <g id="line2d_26">
      <g>
       <use xlink:href="#ma4d12670fa" x="114.206821" y="179.141135" style="stroke: #000000; stroke-width: 0.5"/>
      </g>
     </g>
     <g id="line2d_27">
      <g>
       <use xlink:href="#m2db8a6a7ef" x="114.206821" y="101.671167" style="stroke: #000000; stroke-width: 0.5"/>
      </g>
     </g>
     <g id="text_6">
      <!-- 0.5 -->
      <g transform="translate(108.417471 188.603593) scale(0.0833 -0.0833)">
       <use xlink:href="#ArialMT-30"/>
       <use xlink:href="#ArialMT-2e" x="55.615234"/>
       <use xlink:href="#ArialMT-35" x="83.398438"/>
      </g>
     </g>
    </g>
    <g id="xtick_6">
     <g id="line2d_28">
      <g>
       <use xlink:href="#ma4d12670fa" x="159.156325" y="179.141135" style="stroke: #000000; stroke-width: 0.5"/>
      </g>
     </g>
     <g id="line2d_29">
      <g>
       <use xlink:href="#m2db8a6a7ef" x="159.156325" y="101.671167" style="stroke: #000000; stroke-width: 0.5"/>
      </g>
     </g>
     <g id="text_7">
      <!-- 1.0 -->
      <g transform="translate(153.366975 188.603593) scale(0.0833 -0.0833)">
       <defs>
        <path id="ArialMT-31" d="M 2384 0 
L 1822 0 
L 1822 3584 
Q 1619 3391 1289 3197 
Q 959 3003 697 2906 
L 697 3450 
Q 1169 3672 1522 3987 
Q 1875 4303 2022 4600 
L 2384 4600 
L 2384 0 
z
" transform="scale(0.015625)"/>
       </defs>
       <use xlink:href="#ArialMT-31"/>
       <use xlink:href="#ArialMT-2e" x="55.615234"/>
       <use xlink:href="#ArialMT-30" x="83.398438"/>
      </g>
     </g>
    </g>
    <g id="text_8">
     <!-- $B_\parallel$ (T) -->
     <g transform="translate(85.77197 201.55918) scale(0.1 -0.1)">
      <defs>
       <path id="Cmmi10-42" d="M 319 0 
Q 256 0 256 84 
Q 259 100 268 137 
Q 278 175 293 200 
Q 309 225 341 225 
Q 522 225 656 234 
Q 791 244 884 269 
Q 959 297 1006 441 
L 1881 3956 
Q 1894 4019 1894 4044 
Q 1894 4113 1819 4122 
Q 1697 4147 1356 4147 
Q 1294 4147 1294 4231 
Q 1297 4247 1306 4286 
Q 1316 4325 1333 4348 
Q 1350 4372 1375 4372 
L 3669 4372 
Q 3878 4372 4083 4320 
Q 4288 4269 4461 4156 
Q 4634 4044 4736 3876 
Q 4838 3709 4838 3488 
Q 4838 3247 4714 3040 
Q 4591 2834 4395 2681 
Q 4200 2528 3973 2429 
Q 3747 2331 3500 2284 
Q 3675 2284 3854 2215 
Q 4034 2147 4175 2028 
Q 4316 1909 4402 1743 
Q 4488 1578 4488 1388 
Q 4488 1003 4219 684 
Q 3950 366 3542 183 
Q 3134 0 2753 0 
L 319 0 
z
M 1497 275 
Q 1497 225 1716 225 
L 2631 225 
Q 2944 225 3231 398 
Q 3519 572 3692 859 
Q 3866 1147 3866 1459 
Q 3866 1650 3786 1820 
Q 3706 1991 3556 2089 
Q 3406 2188 3213 2188 
L 1966 2188 
L 1522 416 
Q 1497 328 1497 275 
z
M 2009 2356 
L 2981 2356 
Q 3288 2356 3577 2512 
Q 3866 2669 4048 2937 
Q 4231 3206 4231 3506 
Q 4231 3784 4057 3965 
Q 3884 4147 3609 4147 
L 2731 4147 
Q 2559 4147 2500 4115 
Q 2441 4084 2400 3928 
L 2009 2356 
z
" transform="scale(0.015625)"/>
       <path id="STIXGeneral-Regular-2225" d="M 2522 -1210 
L 2099 -1210 
L 2099 4416 
L 2522 4416 
L 2522 -1210 
z
M 1248 -1210 
L 826 -1210 
L 826 4416 
L 1248 4416 
L 1248 -1210 
z
" transform="scale(0.015625)"/>
       <path id="ArialMT-54" d="M 1659 0 
L 1659 4041 
L 150 4041 
L 150 4581 
L 3781 4581 
L 3781 4041 
L 2266 4041 
L 2266 0 
L 1659 0 
z
" transform="scale(0.015625)"/>
      </defs>
      <use xlink:href="#Cmmi10-42" transform="translate(0 0.203125)"/>
      <use xlink:href="#STIXGeneral-Regular-2225" transform="translate(88.072266 -16.803125) scale(0.7)"/>
      <use xlink:href="#ArialMT-20" transform="translate(143.350616 0.203125)"/>
      <use xlink:href="#ArialMT-28" transform="translate(171.13382 0.203125)"/>
      <use xlink:href="#ArialMT-54" transform="translate(204.434601 0.203125)"/>
      <use xlink:href="#ArialMT-29" transform="translate(265.518585 0.203125)"/>
     </g>
    </g>
   </g>
   <g id="matplotlib.axis_4">
    <g id="ytick_4">
     <g id="line2d_30">
      <g>
       <use xlink:href="#m5cdc6c462b" x="36.444181" y="175.284043" style="stroke: #000000; stroke-width: 0.5"/>
      </g>
     </g>
     <g id="line2d_31">
      <g>
       <use xlink:href="#m0a98b774ff" x="164.99976" y="175.284043" style="stroke: #000000; stroke-width: 0.5"/>
      </g>
     </g>
     <g id="text_9">
      <!-- −10 -->
      <g transform="translate(18.814418 178.265272) scale(0.0833 -0.0833)">
       <use xlink:href="#ArialMT-2212"/>
       <use xlink:href="#ArialMT-31" x="58.398438"/>
       <use xlink:href="#ArialMT-30" x="114.013672"/>
      </g>
     </g>
    </g>
    <g id="ytick_5">
     <g id="line2d_32">
      <g>
       <use xlink:href="#m5cdc6c462b" x="36.444181" y="140.548396" style="stroke: #000000; stroke-width: 0.5"/>
      </g>
     </g>
     <g id="line2d_33">
      <g>
       <use xlink:href="#m0a98b774ff" x="164.99976" y="140.548396" style="stroke: #000000; stroke-width: 0.5"/>
      </g>
     </g>
     <g id="text_10">
      <!-- 0 -->
      <g transform="translate(28.31192 143.529625) scale(0.0833 -0.0833)">
       <use xlink:href="#ArialMT-30"/>
      </g>
     </g>
    </g>
    <g id="ytick_6">
     <g id="line2d_34">
      <g>
       <use xlink:href="#m5cdc6c462b" x="36.444181" y="105.81275" style="stroke: #000000; stroke-width: 0.5"/>
      </g>
     </g>
     <g id="line2d_35">
      <g>
       <use xlink:href="#m0a98b774ff" x="164.99976" y="105.81275" style="stroke: #000000; stroke-width: 0.5"/>
      </g>
     </g>
     <g id="text_11">
      <!-- 10 -->
      <g transform="translate(23.679659 108.793979) scale(0.0833 -0.0833)">
       <use xlink:href="#ArialMT-31"/>
       <use xlink:href="#ArialMT-30" x="55.615234"/>
      </g>
     </g>
    </g>
    <g id="text_12">
     <!-- $\eta$ (%) -->
     <g transform="translate(12.614418 152.056151) rotate(-90) scale(0.1 -0.1)">
      <defs>
       <path id="Cmmi10-b4" d="M 684 -72 
Q 606 -72 550 -22 
Q 494 28 494 109 
Q 494 147 500 166 
L 978 2075 
Q 1025 2253 1025 2388 
Q 1025 2663 838 2663 
Q 638 2663 541 2423 
Q 444 2184 353 1819 
Q 353 1800 334 1789 
Q 316 1778 300 1778 
L 225 1778 
Q 203 1778 187 1801 
Q 172 1825 172 1844 
Q 241 2122 305 2315 
Q 369 2509 505 2668 
Q 641 2828 844 2828 
Q 1081 2828 1267 2678 
Q 1453 2528 1453 2291 
Q 1641 2541 1894 2684 
Q 2147 2828 2444 2828 
Q 2778 2828 2979 2648 
Q 3181 2469 3181 2138 
Q 3181 1947 3138 1784 
L 2394 -1178 
Q 2375 -1269 2300 -1325 
Q 2225 -1381 2131 -1381 
Q 2053 -1381 1997 -1332 
Q 1941 -1284 1941 -1203 
Q 1941 -1166 1947 -1153 
L 2681 1797 
Q 2747 2059 2747 2234 
Q 2747 2413 2672 2538 
Q 2597 2663 2431 2663 
Q 1803 2663 1388 1888 
L 953 141 
Q 931 53 854 -9 
Q 778 -72 684 -72 
z
" transform="scale(0.015625)"/>
       <path id="ArialMT-25" d="M 372 3481 
Q 372 3972 619 4315 
Q 866 4659 1334 4659 
Q 1766 4659 2048 4351 
Q 2331 4044 2331 3447 
Q 2331 2866 2045 2552 
Q 1759 2238 1341 2238 
Q 925 2238 648 2547 
Q 372 2856 372 3481 
z
M 1350 4272 
Q 1141 4272 1002 4090 
Q 863 3909 863 3425 
Q 863 2984 1003 2804 
Q 1144 2625 1350 2625 
Q 1563 2625 1702 2806 
Q 1841 2988 1841 3469 
Q 1841 3913 1700 4092 
Q 1559 4272 1350 4272 
z
M 1353 -169 
L 3859 4659 
L 4316 4659 
L 1819 -169 
L 1353 -169 
z
M 3334 1075 
Q 3334 1569 3581 1911 
Q 3828 2253 4300 2253 
Q 4731 2253 5014 1945 
Q 5297 1638 5297 1041 
Q 5297 459 5011 145 
Q 4725 -169 4303 -169 
Q 3888 -169 3611 142 
Q 3334 453 3334 1075 
z
M 4316 1866 
Q 4103 1866 3964 1684 
Q 3825 1503 3825 1019 
Q 3825 581 3965 400 
Q 4106 219 4313 219 
Q 4528 219 4667 400 
Q 4806 581 4806 1063 
Q 4806 1506 4665 1686 
Q 4525 1866 4316 1866 
z
" transform="scale(0.015625)"/>
      </defs>
      <use xlink:href="#Cmmi10-b4" transform="translate(0 0.203125)"/>
      <use xlink:href="#ArialMT-20" transform="translate(49.609375 0.203125)"/>
      <use xlink:href="#ArialMT-28" transform="translate(77.392578 0.203125)"/>
      <use xlink:href="#ArialMT-25" transform="translate(110.693359 0.203125)"/>
      <use xlink:href="#ArialMT-29" transform="translate(199.609375 0.203125)"/>
     </g>
    </g>
   </g>
   <g id="line2d_36">
    <path d="M 36.444181 140.548396 
L 164.99976 140.548396 
" clip-path="url(#pbaa29ea401)" style="fill: none; stroke: #d3d3d3; stroke-width: 0.5; stroke-linecap: square"/>
   </g>
   <g id="line2d_37">
    <path d="M 69.257318 179.141135 
L 69.257318 101.671167 
" clip-path="url(#pbaa29ea401)" style="fill: none; stroke: #d3d3d3; stroke-width: 0.5; stroke-linecap: square"/>
   </g>
   <g id="line2d_38"/>
   <g id="line2d_39"/>
   <g id="line2d_40"/>
   <g id="patch_8">
    <path d="M 36.444181 179.141135 
L 36.444181 101.671167 
" style="fill: none; stroke: #000000; stroke-width: 0.5; stroke-linejoin: miter; stroke-linecap: square"/>
   </g>
   <g id="patch_9">
    <path d="M 164.99976 179.141135 
L 164.99976 101.671167 
" style="fill: none; stroke: #000000; stroke-width: 0.5; stroke-linejoin: miter; stroke-linecap: square"/>
   </g>
   <g id="patch_10">
    <path d="M 36.444181 179.141135 
L 164.99976 179.141135 
" style="fill: none; stroke: #000000; stroke-width: 0.5; stroke-linejoin: miter; stroke-linecap: square"/>
   </g>
   <g id="patch_11">
    <path d="M 36.444181 101.671167 
L 164.99976 101.671167 
" style="fill: none; stroke: #000000; stroke-width: 0.5; stroke-linejoin: miter; stroke-linecap: square"/>
   </g>
   <g id="line2d_41">
    <path d="M 42.287616 148.915157 
L 44.535091 150.116361 
L 46.782566 151.061067 
L 49.030042 151.55121 
L 51.277517 152.5112 
L 52.176507 153.13833 
L 53.075497 153.964066 
L 53.974487 155.06122 
L 54.873477 156.454436 
L 55.772467 157.708524 
L 56.671457 158.826881 
L 57.570447 159.782451 
L 58.469437 160.310972 
L 59.368427 160.431628 
L 60.267417 159.866168 
L 61.166407 158.820857 
L 62.065397 157.318682 
L 62.964388 155.460332 
L 63.863378 153.55327 
L 64.762368 151.480018 
L 65.661358 149.59855 
L 66.560348 147.506412 
L 67.459338 145.50195 
L 68.358328 143.292224 
L 69.257318 140.982192 
L 70.156308 138.616015 
L 71.055298 136.306092 
L 71.954288 134.187795 
L 72.853278 132.140911 
L 73.752268 130.067272 
L 74.651258 127.951363 
L 75.550248 125.906266 
L 76.449239 123.995095 
L 77.348229 122.363294 
L 78.247219 121.155651 
L 79.146209 120.570321 
L 80.045199 120.531133 
L 80.944189 120.943882 
L 81.843179 121.871251 
L 82.742169 122.959983 
L 83.641159 124.254583 
L 84.540149 125.608474 
L 85.439139 126.912138 
L 86.338129 127.847232 
L 87.237119 128.486837 
L 89.484594 129.331044 
L 91.73207 129.906401 
L 93.979545 130.888474 
L 96.22702 132.046341 
L 98.474495 133.351589 
L 100.72197 134.547085 
L 102.969445 135.58511 
L 105.216921 136.309584 
L 107.464396 136.940976 
L 109.711871 137.617794 
L 111.959346 138.197922 
L 114.206821 138.626255 
L 116.454296 139.096387 
L 118.701772 139.40382 
L 120.949247 139.508582 
L 123.196722 139.804155 
L 125.444197 140.087928 
L 127.691672 139.993221 
L 129.939147 139.910367 
L 132.186623 140.088682 
L 134.434098 140.021468 
L 136.681573 140.224413 
L 138.929048 140.064945 
L 141.176523 139.934929 
L 145.671474 139.865217 
L 150.166424 139.617787 
L 154.661374 139.717678 
L 159.156325 139.276916 
" clip-path="url(#pbaa29ea401)" style="fill: none; stroke: #1f77b4; stroke-linecap: square"/>
   </g>
   <g id="line2d_42">
    <path d="M 42.287616 149.100369 
L 44.535091 149.915835 
L 46.782566 150.831301 
L 49.030042 151.61583 
L 51.277517 151.454175 
L 52.176507 151.824077 
L 53.075497 153.32851 
L 53.974487 155.988935 
L 54.873477 159.677407 
L 55.772467 163.684639 
L 56.671457 167.723972 
L 57.570447 171.232667 
L 58.469437 173.904574 
L 59.368427 175.337225 
L 60.267417 175.1678 
L 61.166407 172.757232 
L 62.065397 168.04755 
L 62.964388 161.693098 
L 63.863378 155.724283 
L 64.762368 151.196374 
L 65.661358 148.15644 
L 66.560348 145.975037 
L 67.459338 144.251601 
L 68.358328 142.604383 
L 69.257318 140.761923 
L 71.055298 137.07937 
L 71.954288 135.333032 
L 72.853278 133.297889 
L 73.752268 130.399545 
L 74.651258 126.183606 
L 75.550248 120.288871 
L 76.449239 113.744595 
L 77.348229 108.569128 
L 78.247219 105.76569 
L 79.146209 105.411887 
L 80.045199 106.807534 
L 80.944189 109.417104 
L 81.843179 112.92562 
L 82.742169 116.988059 
L 83.641159 121.101898 
L 84.540149 124.693654 
L 85.439139 127.645045 
L 86.338129 129.059046 
L 87.237119 129.589815 
L 89.484594 129.440189 
L 91.73207 130.158119 
L 93.979545 131.367792 
L 96.22702 131.968332 
L 98.474495 133.19337 
L 100.72197 135.050613 
L 102.969445 136.637852 
L 105.216921 137.613813 
L 107.464396 138.277784 
L 109.711871 138.668496 
L 111.959346 138.925788 
L 114.206821 139.172741 
L 116.454296 139.432201 
L 118.701772 139.8151 
L 120.949247 139.97735 
L 123.196722 140.245307 
L 125.444197 140.652102 
L 127.691672 140.881523 
L 129.939147 140.725115 
L 132.186623 141.288902 
L 134.434098 140.984957 
L 136.681573 141.086456 
L 141.176523 140.574815 
L 145.671474 140.008705 
L 150.166424 139.661282 
L 154.661374 139.418341 
L 159.156325 138.920081 
" clip-path="url(#pbaa29ea401)" style="fill: none; stroke: #000000; stroke-linecap: square"/>
   </g>
   <g id="legend_1">
    <g id="patch_12">
     <path d="M 118.91136 176.246135 
L 160.94676 176.246135 
Q 162.10476 176.246135 162.10476 175.088135 
L 162.10476 148.917335 
Q 162.10476 147.759335 160.94676 147.759335 
L 118.91136 147.759335 
Q 117.75336 147.759335 117.75336 148.917335 
L 117.75336 175.088135 
Q 117.75336 176.246135 118.91136 176.246135 
z
" style="fill: #ffffff; opacity: 0.8; stroke: #cccccc; stroke-linejoin: miter"/>
    </g>
    <g id="line2d_43">
     <path d="M 120.06936 152.217635 
L 125.85936 152.217635 
L 131.64936 152.217635 
" style="fill: none; stroke: #1f77b4; stroke-linecap: square"/>
     <defs>
      <path id="m544e7c5687" d="M 0 -1.5 
L -1.5 1.5 
L 1.5 1.5 
z
" style="stroke: #1f77b4; stroke-width: 0.5; stroke-linejoin: miter"/>
     </defs>
     <g>
      <use xlink:href="#m544e7c5687" x="125.85936" y="152.217635" style="fill: #1f77b4; stroke: #1f77b4; stroke-width: 0.5; stroke-linejoin: miter"/>
     </g>
    </g>
    <g id="text_13">
     <!-- $V_\mathrm{g}=$10$\,$V -->
     <g transform="translate(136.28136 154.244135) scale(0.0579 -0.0579)">
      <defs>
       <path id="Cmmi10-56" d="M 1409 -72 
L 897 4006 
Q 850 4147 416 4147 
Q 353 4147 353 4231 
Q 366 4300 384 4336 
Q 403 4372 459 4372 
L 2022 4372 
Q 2056 4372 2072 4347 
Q 2088 4322 2088 4288 
Q 2063 4147 2003 4147 
Q 1503 4147 1472 3975 
L 1894 628 
L 3866 3775 
Q 3922 3881 3922 3944 
Q 3922 4056 3820 4101 
Q 3719 4147 3584 4147 
Q 3519 4147 3519 4231 
Q 3531 4281 3540 4309 
Q 3550 4338 3569 4355 
Q 3588 4372 3628 4372 
L 4863 4372 
Q 4922 4372 4922 4288 
Q 4897 4147 4838 4147 
Q 4356 4147 4084 3725 
Q 4072 3713 4063 3713 
L 1703 -72 
Q 1656 -141 1581 -141 
L 1491 -141 
Q 1419 -141 1409 -72 
z
" transform="scale(0.015625)"/>
       <path id="Cmr10-67" d="M 178 -500 
Q 178 -272 343 -101 
Q 509 69 738 141 
Q 609 238 542 384 
Q 475 531 475 697 
Q 475 997 666 1228 
Q 372 1516 372 1888 
Q 372 2088 458 2263 
Q 544 2438 697 2566 
Q 850 2694 1037 2761 
Q 1225 2828 1422 2828 
Q 1803 2828 2106 2606 
Q 2238 2747 2417 2823 
Q 2597 2900 2791 2900 
Q 2928 2900 3015 2801 
Q 3103 2703 3103 2566 
Q 3103 2488 3043 2428 
Q 2984 2369 2906 2369 
Q 2825 2369 2765 2428 
Q 2706 2488 2706 2566 
Q 2706 2684 2784 2731 
Q 2453 2731 2216 2503 
Q 2331 2388 2401 2220 
Q 2472 2053 2472 1888 
Q 2472 1616 2322 1398 
Q 2172 1181 1926 1061 
Q 1681 941 1422 941 
Q 1072 941 781 1131 
Q 691 1006 691 850 
Q 691 681 802 554 
Q 913 428 1081 428 
L 1606 428 
Q 1988 428 2294 359 
Q 2600 291 2808 84 
Q 3016 -122 3016 -500 
Q 3016 -781 2778 -967 
Q 2541 -1153 2211 -1236 
Q 1881 -1319 1600 -1319 
Q 1316 -1319 984 -1236 
Q 653 -1153 415 -967 
Q 178 -781 178 -500 
z
M 538 -500 
Q 538 -716 713 -861 
Q 888 -1006 1134 -1076 
Q 1381 -1147 1600 -1147 
Q 1816 -1147 2062 -1076 
Q 2309 -1006 2482 -861 
Q 2656 -716 2656 -500 
Q 2656 -166 2350 -67 
Q 2044 31 1606 31 
L 1081 31 
Q 934 31 811 -39 
Q 688 -109 613 -236 
Q 538 -363 538 -500 
z
M 1422 1113 
Q 1966 1113 1966 1888 
Q 1966 2222 1850 2439 
Q 1734 2656 1422 2656 
Q 1109 2656 993 2439 
Q 878 2222 878 1888 
Q 878 1675 922 1503 
Q 966 1331 1084 1222 
Q 1203 1113 1422 1113 
z
" transform="scale(0.015625)"/>
       <path id="Cmr10-3d" d="M 481 850 
Q 428 850 393 890 
Q 359 931 359 978 
Q 359 1031 393 1068 
Q 428 1106 481 1106 
L 4500 1106 
Q 4547 1106 4581 1068 
Q 4616 1031 4616 978 
Q 4616 931 4581 890 
Q 4547 850 4500 850 
L 481 850 
z
M 481 2094 
Q 428 2094 393 2131 
Q 359 2169 359 2222 
Q 359 2269 393 2309 
Q 428 2350 481 2350 
L 4500 2350 
Q 4547 2350 4581 2309 
Q 4616 2269 4616 2222 
Q 4616 2169 4581 2131 
Q 4547 2094 4500 2094 
L 481 2094 
z
" transform="scale(0.015625)"/>
       <path id="ArialMT-56" d="M 1803 0 
L 28 4581 
L 684 4581 
L 1875 1253 
Q 2019 853 2116 503 
Q 2222 878 2363 1253 
L 3600 4581 
L 4219 4581 
L 2425 0 
L 1803 0 
z
" transform="scale(0.015625)"/>
      </defs>
      <use xlink:href="#Cmmi10-56" transform="translate(0 0.125)"/>
      <use xlink:href="#Cmr10-67" transform="translate(58.300781 -16.88125) scale(0.7)"/>
      <use xlink:href="#Cmr10-3d" transform="translate(117.236719 0.125)"/>
      <use xlink:href="#ArialMT-31" transform="translate(212.480859 0.125)"/>
      <use xlink:href="#ArialMT-30" transform="translate(268.096094 0.125)"/>
      <use xlink:href="#ArialMT-56" transform="translate(338.343782 0.125)"/>
     </g>
    </g>
    <g id="line2d_44">
     <path d="M 120.06936 161.134235 
L 125.85936 161.134235 
L 131.64936 161.134235 
" style="fill: none; stroke: #000000; stroke-linecap: square"/>
     <defs>
      <path id="m908665d793" d="M 0 1.5 
C 0.397805 1.5 0.77937 1.341951 1.06066 1.06066 
C 1.341951 0.77937 1.5 0.397805 1.5 0 
C 1.5 -0.397805 1.341951 -0.77937 1.06066 -1.06066 
C 0.77937 -1.341951 0.397805 -1.5 0 -1.5 
C -0.397805 -1.5 -0.77937 -1.341951 -1.06066 -1.06066 
C -1.341951 -0.77937 -1.5 -0.397805 -1.5 0 
C -1.5 0.397805 -1.341951 0.77937 -1.06066 1.06066 
C -0.77937 1.341951 -0.397805 1.5 0 1.5 
z
" style="stroke: #000000; stroke-width: 0.5"/>
     </defs>
     <g>
      <use xlink:href="#m908665d793" x="125.85936" y="161.134235" style="stroke: #000000; stroke-width: 0.5"/>
     </g>
    </g>
    <g id="text_14">
     <!-- $V_\mathrm{g}=$0$\,$V -->
     <g transform="translate(136.28136 163.160735) scale(0.0579 -0.0579)">
      <use xlink:href="#Cmmi10-56" transform="translate(0 0.125)"/>
      <use xlink:href="#Cmr10-67" transform="translate(58.300781 -16.88125) scale(0.7)"/>
      <use xlink:href="#Cmr10-3d" transform="translate(117.236719 0.125)"/>
      <use xlink:href="#ArialMT-30" transform="translate(212.480859 0.125)"/>
      <use xlink:href="#ArialMT-56" transform="translate(282.728548 0.125)"/>
     </g>
    </g>
    <g id="line2d_45">
     <path d="M 120.06936 170.050835 
L 125.85936 170.050835 
L 131.64936 170.050835 
" style="fill: none; stroke: #d62728; stroke-linecap: square"/>
     <defs>
      <path id="m43274acaf6" d="M -0 1.5 
L 1.5 -1.5 
L -1.5 -1.5 
z
" style="stroke: #d62728; stroke-width: 0.5; stroke-linejoin: miter"/>
     </defs>
     <g>
      <use xlink:href="#m43274acaf6" x="125.85936" y="170.050835" style="fill: #d62728; stroke: #d62728; stroke-width: 0.5; stroke-linejoin: miter"/>
     </g>
    </g>
    <g id="text_15">
     <!-- $V_\mathrm{g}&lt;$0$\,$V -->
     <g transform="translate(136.28136 172.077335) scale(0.0579 -0.0579)">
      <defs>
       <path id="Cmmi10-3c" d="M 594 1491 
Q 531 1519 531 1600 
Q 531 1681 616 1722 
L 4269 3444 
Q 4294 3456 4313 3456 
Q 4369 3456 4405 3417 
Q 4441 3378 4441 3328 
Q 4441 3250 4366 3206 
L 959 1600 
L 4384 -19 
Q 4441 -38 4441 -128 
Q 4441 -178 4405 -217 
Q 4369 -256 4313 -256 
Q 4294 -256 4269 -244 
L 594 1491 
z
" transform="scale(0.015625)"/>
      </defs>
      <use xlink:href="#Cmmi10-56" transform="translate(0 0.125)"/>
      <use xlink:href="#Cmr10-67" transform="translate(58.300781 -16.88125) scale(0.7)"/>
      <use xlink:href="#Cmmi10-3c" transform="translate(117.236719 0.125)"/>
      <use xlink:href="#ArialMT-30" transform="translate(212.480859 0.125)"/>
      <use xlink:href="#ArialMT-56" transform="translate(282.728548 0.125)"/>
     </g>
    </g>
   </g>
   <g id="line2d_46">
    <path d="M 42.287616 147.958617 
L 43.411354 148.29315 
L 44.535091 148.680643 
L 45.658829 149.246169 
L 46.782566 149.566634 
L 47.906304 150.466363 
L 49.030042 150.227481 
L 50.153779 150.254496 
L 51.277517 149.946927 
L 52.401254 150.236708 
L 53.524992 152.654019 
L 54.648729 156.850755 
L 55.772467 161.860766 
L 56.896205 166.776648 
L 58.019942 170.837505 
L 59.14368 173.253845 
L 60.267417 172.736196 
L 61.391155 168.310788 
L 62.514893 160.009601 
L 63.63863 150.778079 
L 64.762368 144.656716 
L 65.886105 141.823296 
L 67.009843 141.162977 
L 68.13358 140.814314 
L 69.257318 140.236317 
L 70.381056 139.454162 
L 71.504793 138.998803 
L 72.628531 138.446661 
L 73.752268 135.968487 
L 74.876006 130.875947 
L 75.999744 121.708824 
L 77.123481 112.894356 
L 78.247219 107.984984 
L 79.370956 107.21228 
L 80.494694 109.30656 
L 81.618431 113.106043 
L 82.742169 118.164491 
L 83.865907 123.390247 
L 84.989644 127.475845 
L 86.113382 130.246659 
L 87.237119 130.951067 
L 88.360857 130.930083 
L 89.484594 130.473743 
L 90.608332 130.712588 
L 91.73207 131.040424 
L 92.855807 131.791081 
L 93.979545 132.300334 
L 95.103282 132.486879 
L 96.22702 132.776817 
" clip-path="url(#pbaa29ea401)" style="fill: none; stroke: #d62728; stroke-linecap: square"/>
   </g>
   <g id="line2d_47">
    <path d="M 59.1257 160.459111 
L 79.658633 120.492023 
" clip-path="url(#pbaa29ea401)" style="fill: none"/>
    <g clip-path="url(#pbaa29ea401)">
     <use xlink:href="#m5fed5cc14a" x="59.1257" y="160.459111" style="fill: #1f77b4; stroke: #1f77b4; stroke-width: 0.5; stroke-linejoin: miter"/>
     <use xlink:href="#m5fed5cc14a" x="79.658633" y="120.492023" style="fill: #1f77b4; stroke: #1f77b4; stroke-width: 0.5; stroke-linejoin: miter"/>
    </g>
   </g>
   <g id="line2d_48">
    <path d="M 59.754993 175.499821 
L 78.831562 105.296251 
" clip-path="url(#pbaa29ea401)" style="fill: none"/>
    <g clip-path="url(#pbaa29ea401)">
     <use xlink:href="#mfb8a39ca24" x="59.754993" y="175.499821" style="stroke: #000000; stroke-width: 0.5"/>
     <use xlink:href="#mfb8a39ca24" x="78.831562" y="105.296251" style="stroke: #000000; stroke-width: 0.5"/>
    </g>
   </g>
   <g id="line2d_49">
    <path d="M 59.548225 173.466451 
L 79.03833 107.076831 
" clip-path="url(#pbaa29ea401)" style="fill: none"/>
    <g clip-path="url(#pbaa29ea401)">
     <use xlink:href="#m706eaeb58a" x="59.548225" y="173.466451" style="fill: #d62728; stroke: #d62728; stroke-width: 0.5; stroke-linejoin: miter"/>
     <use xlink:href="#m706eaeb58a" x="79.03833" y="107.076831" style="fill: #d62728; stroke: #d62728; stroke-width: 0.5; stroke-linejoin: miter"/>
    </g>
   </g>
  </g>
  <g id="text_16">
   <!-- $W_\mathrm{sc}=$0.9$\,$μm -->
   <g transform="translate(55.65 10.20024) scale(0.1 -0.1)">
    <defs>
     <path id="Cmmi10-57" d="M 1141 -72 
L 844 4006 
Q 822 4100 703 4123 
Q 584 4147 409 4147 
Q 347 4147 347 4231 
Q 369 4313 381 4342 
Q 394 4372 453 4372 
L 1978 4372 
Q 2041 4372 2041 4288 
Q 2016 4147 1959 4147 
Q 1447 4147 1416 3969 
L 1644 738 
L 3244 3525 
L 3213 4006 
Q 3191 4100 3072 4123 
Q 2953 4147 2778 4147 
Q 2713 4147 2713 4231 
Q 2734 4313 2746 4342 
Q 2759 4372 2822 4372 
L 4347 4372 
Q 4409 4372 4409 4288 
Q 4406 4272 4397 4234 
Q 4388 4197 4372 4172 
Q 4356 4147 4325 4147 
Q 3809 4147 3781 3969 
L 3781 3922 
L 4013 738 
L 5753 3775 
Q 5791 3844 5791 3909 
Q 5791 4041 5662 4094 
Q 5534 4147 5375 4147 
Q 5313 4147 5313 4231 
Q 5325 4281 5333 4309 
Q 5341 4338 5361 4355 
Q 5381 4372 5422 4372 
L 6644 4372 
Q 6706 4372 6706 4288 
Q 6703 4272 6693 4233 
Q 6684 4194 6667 4170 
Q 6650 4147 6625 4147 
Q 6169 4147 5931 3731 
Q 5913 3713 5913 3713 
L 3744 -72 
Q 3709 -141 3634 -141 
L 3584 -141 
Q 3506 -141 3506 -72 
L 3263 3225 
L 1381 -72 
Q 1334 -141 1269 -141 
L 1216 -141 
Q 1141 -141 1141 -72 
z
" transform="scale(0.015625)"/>
     <path id="Cmr10-73" d="M 213 -19 
L 213 1025 
Q 213 1075 269 1075 
L 347 1075 
Q 384 1075 397 1025 
Q 575 97 1259 97 
Q 1563 97 1767 234 
Q 1972 372 1972 659 
Q 1972 866 1812 1011 
Q 1653 1156 1434 1209 
L 1006 1294 
Q 791 1341 614 1437 
Q 438 1534 325 1695 
Q 213 1856 213 2069 
Q 213 2350 361 2529 
Q 509 2709 746 2789 
Q 984 2869 1259 2869 
Q 1588 2869 1831 2694 
L 2016 2853 
Q 2016 2869 2047 2869 
L 2094 2869 
Q 2113 2869 2128 2851 
Q 2144 2834 2144 2816 
L 2144 1978 
Q 2144 1919 2094 1919 
L 2016 1919 
Q 1959 1919 1959 1978 
Q 1959 2313 1773 2516 
Q 1588 2719 1253 2719 
Q 966 2719 755 2612 
Q 544 2506 544 2247 
Q 544 2069 695 1955 
Q 847 1841 1050 1791 
L 1484 1709 
Q 1703 1659 1892 1540 
Q 2081 1422 2192 1240 
Q 2303 1059 2303 831 
Q 2303 600 2223 429 
Q 2144 259 2001 146 
Q 1859 34 1665 -19 
Q 1472 -72 1259 -72 
Q 859 -72 575 197 
L 341 -56 
Q 341 -72 306 -72 
L 269 -72 
Q 213 -72 213 -19 
z
" transform="scale(0.015625)"/>
     <path id="ArialMT-39" d="M 350 1059 
L 891 1109 
Q 959 728 1153 556 
Q 1347 384 1650 384 
Q 1909 384 2104 503 
Q 2300 622 2425 820 
Q 2550 1019 2634 1356 
Q 2719 1694 2719 2044 
Q 2719 2081 2716 2156 
Q 2547 1888 2255 1720 
Q 1963 1553 1622 1553 
Q 1053 1553 659 1965 
Q 266 2378 266 3053 
Q 266 3750 677 4175 
Q 1088 4600 1706 4600 
Q 2153 4600 2523 4359 
Q 2894 4119 3086 3673 
Q 3278 3228 3278 2384 
Q 3278 1506 3087 986 
Q 2897 466 2520 194 
Q 2144 -78 1638 -78 
Q 1100 -78 759 220 
Q 419 519 350 1059 
z
M 2653 3081 
Q 2653 3566 2395 3850 
Q 2138 4134 1775 4134 
Q 1400 4134 1122 3828 
Q 844 3522 844 3034 
Q 844 2597 1108 2323 
Q 1372 2050 1759 2050 
Q 2150 2050 2401 2323 
Q 2653 2597 2653 3081 
z
" transform="scale(0.015625)"/>
     <path id="ArialMT-6d" d="M 422 0 
L 422 3319 
L 925 3319 
L 925 2853 
Q 1081 3097 1340 3245 
Q 1600 3394 1931 3394 
Q 2300 3394 2536 3241 
Q 2772 3088 2869 2813 
Q 3263 3394 3894 3394 
Q 4388 3394 4653 3120 
Q 4919 2847 4919 2278 
L 4919 0 
L 4359 0 
L 4359 2091 
Q 4359 2428 4304 2576 
Q 4250 2725 4106 2815 
Q 3963 2906 3769 2906 
Q 3419 2906 3187 2673 
Q 2956 2441 2956 1928 
L 2956 0 
L 2394 0 
L 2394 2156 
Q 2394 2531 2256 2718 
Q 2119 2906 1806 2906 
Q 1569 2906 1367 2781 
Q 1166 2656 1075 2415 
Q 984 2175 984 1722 
L 984 0 
L 422 0 
z
" transform="scale(0.015625)"/>
    </defs>
    <use xlink:href="#Cmmi10-57" transform="translate(0 0.125)"/>
    <use xlink:href="#Cmr10-73" transform="translate(94.384766 -16.88125) scale(0.7)"/>
    <use xlink:href="#Cmr10-63" transform="translate(121.967773 -16.88125) scale(0.7)"/>
    <use xlink:href="#Cmr10-3d" transform="translate(176.973047 0.125)"/>
    <use xlink:href="#ArialMT-30" transform="translate(272.217188 0.125)"/>
    <use xlink:href="#ArialMT-2e" transform="translate(327.832422 0.125)"/>
    <use xlink:href="#ArialMT-39" transform="translate(355.615625 0.125)"/>
    <use xlink:href="#ArialMT-3bc" transform="translate(425.863313 0.125)"/>
    <use xlink:href="#ArialMT-6d" transform="translate(483.480501 0.125)"/>
   </g>
  </g>
 </g>
 <defs>
  <clipPath id="pebcce6c347">
   <rect x="36.444181" y="18.20072" width="128.555579" height="77.469967"/>
  </clipPath>
  <clipPath id="pbaa29ea401">
   <rect x="36.444181" y="101.671167" width="128.555579" height="77.469967"/>
  </clipPath>
 </defs>
</svg>
